f{
  "header": {
	"keySignatures": [],
	"meta": [],
	"name": "",
	"ppq": 480,
	"tempos": [
	  {
		"bpm": 155.00031000062,
		"ticks": 0
	  }
	],
	"timeSignatures": [
	  {
		"ticks": 0,
		"timeSignature": [
		  4,
		  4
		],
		"measures": 0
	  }
	]
  },
  "tracks": [
	{
	  "channel": 0,
	  "controlChanges": {
		"6": [
		  {
			"number": 6,
			"ticks": 0,
			"time": 0,
			"value": 0.09448818897637795
		  },
		  {
			"number": 6,
			"ticks": 0,
			"time": 0,
			"value": 0.5039370078740157
		  },
		  {
			"number": 6,
			"ticks": 0,
			"time": 0,
			"value": 0.5039370078740157
		  }
		],
		"38": [
		  {
			"number": 38,
			"ticks": 0,
			"time": 0,
			"value": 0
		  }
		],
		"100": [
		  {
			"number": 100,
			"ticks": 0,
			"time": 0,
			"value": 0
		  },
		  {
			"number": 100,
			"ticks": 0,
			"time": 0,
			"value": 0.007874015748031496
		  },
		  {
			"number": 100,
			"ticks": 0,
			"time": 0,
			"value": 1
		  },
		  {
			"number": 100,
			"ticks": 0,
			"time": 0,
			"value": 0.015748031496062992
		  },
		  {
			"number": 100,
			"ticks": 0,
			"time": 0,
			"value": 1
		  }
		],
		"101": [
		  {
			"number": 101,
			"ticks": 0,
			"time": 0,
			"value": 0
		  },
		  {
			"number": 101,
			"ticks": 0,
			"time": 0,
			"value": 0
		  },
		  {
			"number": 101,
			"ticks": 0,
			"time": 0,
			"value": 1
		  },
		  {
			"number": 101,
			"ticks": 0,
			"time": 0,
			"value": 0
		  },
		  {
			"number": 101,
			"ticks": 0,
			"time": 0,
			"value": 1
		  }
		]
	  },
	  "pitchBends": [
		{
		  "ticks": 0,
		  "time": 0,
		  "value": 0
		}
	  ],
	  "instrument": {
		"family": "piano",
		"number": 0,
		"name": "acoustic grand piano"
	  },
	  "name": "Lead Guitar",
	  "notes": [],
	  "endOfTrackTicks": 130560
	},
	{
	  "channel": 0,
	  "controlChanges": {
		"6": [
		  {
			"number": 6,
			"ticks": 0,
			"time": 0,
			"value": 0.09448818897637795
		  },
		  {
			"number": 6,
			"ticks": 0,
			"time": 0,
			"value": 0.5039370078740157
		  },
		  {
			"number": 6,
			"ticks": 0,
			"time": 0,
			"value": 0.5039370078740157
		  }
		],
		"38": [
		  {
			"number": 38,
			"ticks": 0,
			"time": 0,
			"value": 0
		  }
		],
		"100": [
		  {
			"number": 100,
			"ticks": 0,
			"time": 0,
			"value": 0
		  },
		  {
			"number": 100,
			"ticks": 0,
			"time": 0,
			"value": 0.007874015748031496
		  },
		  {
			"number": 100,
			"ticks": 0,
			"time": 0,
			"value": 1
		  },
		  {
			"number": 100,
			"ticks": 0,
			"time": 0,
			"value": 0.015748031496062992
		  },
		  {
			"number": 100,
			"ticks": 0,
			"time": 0,
			"value": 1
		  }
		],
		"101": [
		  {
			"number": 101,
			"ticks": 0,
			"time": 0,
			"value": 0
		  },
		  {
			"number": 101,
			"ticks": 0,
			"time": 0,
			"value": 0
		  },
		  {
			"number": 101,
			"ticks": 0,
			"time": 0,
			"value": 1
		  },
		  {
			"number": 101,
			"ticks": 0,
			"time": 0,
			"value": 0
		  },
		  {
			"number": 101,
			"ticks": 0,
			"time": 0,
			"value": 1
		  }
		]
	  },
	  "pitchBends": [
		{
		  "ticks": 0,
		  "time": 0,
		  "value": 0
		}
	  ],
	  "instrument": {
		"family": "piano",
		"number": 0,
		"name": "acoustic grand piano"
	  },
	  "name": "",
	  "notes": []
	},
	{
	  "channel": 0,
	  "controlChanges": {
		"0": [
		  {
			"number": 0,
			"ticks": 0,
			"time": 0,
			"value": 0
		  }
		],
		"7": [
		  {
			"number": 7,
			"ticks": 0,
			"time": 0,
			"value": 1
		  }
		],
		"10": [
		  {
			"number": 10,
			"ticks": 0,
			"time": 0,
			"value": 0.5039370078740157
		  }
		],
		"91": [
		  {
			"number": 91,
			"ticks": 0,
			"time": 0,
			"value": 0
		  }
		],
		"92": [
		  {
			"number": 92,
			"ticks": 0,
			"time": 0,
			"value": 0
		  }
		],
		"93": [
		  {
			"number": 93,
			"ticks": 0,
			"time": 0,
			"value": 0
		  }
		],
		"95": [
		  {
			"number": 95,
			"ticks": 0,
			"time": 0,
			"value": 0
		  }
		]
	  },
	  "pitchBends": [],
	  "instrument": {
		"family": "guitar",
		"number": 30,
		"name": "distortion guitar"
	  },
	  "name": "",
	  "notes": []
	},
	{
	  "channel": 0,
	  "controlChanges": {
		"0": [
		  {
			"number": 0,
			"ticks": 0,
			"time": 0,
			"value": 0
		  }
		],
		"7": [
		  {
			"number": 7,
			"ticks": 0,
			"time": 0,
			"value": 1
		  }
		],
		"10": [
		  {
			"number": 10,
			"ticks": 0,
			"time": 0,
			"value": 0.5039370078740157
		  }
		],
		"91": [
		  {
			"number": 91,
			"ticks": 0,
			"time": 0,
			"value": 0
		  }
		],
		"92": [
		  {
			"number": 92,
			"ticks": 0,
			"time": 0,
			"value": 0
		  }
		],
		"93": [
		  {
			"number": 93,
			"ticks": 0,
			"time": 0,
			"value": 0
		  }
		],
		"95": [
		  {
			"number": 95,
			"ticks": 0,
			"time": 0,
			"value": 0
		  }
		]
	  },
	  "pitchBends": [],
	  "instrument": {
		"family": "guitar",
		"number": 30,
		"name": "distortion guitar"
	  },
	  "name": "",
	  "notes": [
		{
		  "duration": 0.193548,
		  "durationTicks": 240,
		  "midi": 70,
		  "name": "A#4",
		  "ticks": 0,
		  "time": 0,
		  "velocity": 0.7480314960629921
		},
		{
		  "duration": 0.193548,
		  "durationTicks": 240,
		  "midi": 65,
		  "name": "F4",
		  "ticks": 240,
		  "time": 0.193548,
		  "velocity": 0.7480314960629921
		},
		{
		  "duration": 0.19354799999999994,
		  "durationTicks": 240,
		  "midi": 58,
		  "name": "A#3",
		  "ticks": 480,
		  "time": 0.387096,
		  "velocity": 0.7480314960629921
		},
		{
		  "duration": 0.19354800000000005,
		  "durationTicks": 240,
		  "midi": 70,
		  "name": "A#4",
		  "ticks": 720,
		  "time": 0.5806439999999999,
		  "velocity": 0.7480314960629921
		},
		{
		  "duration": 0.19354800000000005,
		  "durationTicks": 240,
		  "midi": 65,
		  "name": "F4",
		  "ticks": 960,
		  "time": 0.774192,
		  "velocity": 0.7480314960629921
		},
		{
		  "duration": 0.19354799999999983,
		  "durationTicks": 240,
		  "midi": 58,
		  "name": "A#3",
		  "ticks": 1200,
		  "time": 0.96774,
		  "velocity": 0.7480314960629921
		},
		{
		  "duration": 0.19354800000000005,
		  "durationTicks": 240,
		  "midi": 73,
		  "name": "C#5",
		  "ticks": 1440,
		  "time": 1.1612879999999999,
		  "velocity": 0.7480314960629921
		},
		{
		  "duration": 0.19354800000000005,
		  "durationTicks": 240,
		  "midi": 72,
		  "name": "C5",
		  "ticks": 1680,
		  "time": 1.354836,
		  "velocity": 0.7480314960629921
		},
		{
		  "duration": 0.19354800000000005,
		  "durationTicks": 240,
		  "midi": 70,
		  "name": "A#4",
		  "ticks": 1920,
		  "time": 1.548384,
		  "velocity": 0.7480314960629921
		},
		{
		  "duration": 0.19354800000000005,
		  "durationTicks": 240,
		  "midi": 65,
		  "name": "F4",
		  "ticks": 2160,
		  "time": 1.741932,
		  "velocity": 0.7480314960629921
		},
		{
		  "duration": 0.19354799999999983,
		  "durationTicks": 240,
		  "midi": 58,
		  "name": "A#3",
		  "ticks": 2400,
		  "time": 1.93548,
		  "velocity": 0.7480314960629921
		},
		{
		  "duration": 0.19354799999999983,
		  "durationTicks": 240,
		  "midi": 70,
		  "name": "A#4",
		  "ticks": 2640,
		  "time": 2.129028,
		  "velocity": 0.7480314960629921
		},
		{
		  "duration": 0.19354800000000028,
		  "durationTicks": 240,
		  "midi": 65,
		  "name": "F4",
		  "ticks": 2880,
		  "time": 2.3225759999999998,
		  "velocity": 0.7480314960629921
		},
		{
		  "duration": 0.19354799999999983,
		  "durationTicks": 240,
		  "midi": 58,
		  "name": "A#3",
		  "ticks": 3120,
		  "time": 2.516124,
		  "velocity": 0.7480314960629921
		},
		{
		  "duration": 0.19354800000000028,
		  "durationTicks": 240,
		  "midi": 65,
		  "name": "F4",
		  "ticks": 3360,
		  "time": 2.709672,
		  "velocity": 0.7480314960629921
		},
		{
		  "duration": 0.19354799999999983,
		  "durationTicks": 240,
		  "midi": 70,
		  "name": "A#4",
		  "ticks": 3600,
		  "time": 2.90322,
		  "velocity": 0.7480314960629921
		},
		{
		  "duration": 0.19354799999999983,
		  "durationTicks": 240,
		  "midi": 73,
		  "name": "C#5",
		  "ticks": 3840,
		  "time": 3.096768,
		  "velocity": 0.7480314960629921
		},
		{
		  "duration": 0.19354800000000028,
		  "durationTicks": 240,
		  "midi": 72,
		  "name": "C5",
		  "ticks": 4080,
		  "time": 3.290316,
		  "velocity": 0.7480314960629921
		},
		{
		  "duration": 0.19354799999999983,
		  "durationTicks": 240,
		  "midi": 68,
		  "name": "G#4",
		  "ticks": 4320,
		  "time": 3.483864,
		  "velocity": 0.7480314960629921
		},
		{
		  "duration": 0.19354800000000028,
		  "durationTicks": 240,
		  "midi": 61,
		  "name": "C#4",
		  "ticks": 4560,
		  "time": 3.677412,
		  "velocity": 0.7480314960629921
		},
		{
		  "duration": 0.19354799999999983,
		  "durationTicks": 240,
		  "midi": 60,
		  "name": "C4",
		  "ticks": 4800,
		  "time": 3.87096,
		  "velocity": 0.7480314960629921
		},
		{
		  "duration": 0.19354799999999983,
		  "durationTicks": 240,
		  "midi": 56,
		  "name": "G#3",
		  "ticks": 5040,
		  "time": 4.064508,
		  "velocity": 0.7480314960629921
		},
		{
		  "duration": 0.19354799999999983,
		  "durationTicks": 240,
		  "midi": 68,
		  "name": "G#4",
		  "ticks": 5280,
		  "time": 4.258056,
		  "velocity": 0.7480314960629921
		},
		{
		  "duration": 0.19354799999999983,
		  "durationTicks": 240,
		  "midi": 72,
		  "name": "C5",
		  "ticks": 5520,
		  "time": 4.451604,
		  "velocity": 0.7480314960629921
		},
		{
		  "duration": 0.19354800000000072,
		  "durationTicks": 240,
		  "midi": 73,
		  "name": "C#5",
		  "ticks": 5760,
		  "time": 4.6451519999999995,
		  "velocity": 0.7480314960629921
		},
		{
		  "duration": 0.19354799999999983,
		  "durationTicks": 240,
		  "midi": 72,
		  "name": "C5",
		  "ticks": 6000,
		  "time": 4.8387,
		  "velocity": 0.7480314960629921
		},
		{
		  "duration": 0.19354799999999983,
		  "durationTicks": 240,
		  "midi": 56,
		  "name": "G#3",
		  "ticks": 6240,
		  "time": 5.032248,
		  "velocity": 0.7480314960629921
		},
		{
		  "duration": 0.19354799999999983,
		  "durationTicks": 240,
		  "midi": 63,
		  "name": "D#4",
		  "ticks": 6480,
		  "time": 5.225796,
		  "velocity": 0.7480314960629921
		},
		{
		  "duration": 0.19354799999999983,
		  "durationTicks": 240,
		  "midi": 68,
		  "name": "G#4",
		  "ticks": 6720,
		  "time": 5.419344,
		  "velocity": 0.7480314960629921
		},
		{
		  "duration": 0.19354800000000072,
		  "durationTicks": 240,
		  "midi": 72,
		  "name": "C5",
		  "ticks": 6960,
		  "time": 5.6128919999999995,
		  "velocity": 0.7480314960629921
		},
		{
		  "duration": 0.19354799999999983,
		  "durationTicks": 240,
		  "midi": 73,
		  "name": "C#5",
		  "ticks": 7200,
		  "time": 5.80644,
		  "velocity": 0.7480314960629921
		},
		{
		  "duration": 0.19354799999999983,
		  "durationTicks": 240,
		  "midi": 72,
		  "name": "C5",
		  "ticks": 7440,
		  "time": 5.999988,
		  "velocity": 0.7480314960629921
		},
		{
		  "duration": 0.19354799999999983,
		  "durationTicks": 240,
		  "midi": 70,
		  "name": "A#4",
		  "ticks": 7680,
		  "time": 6.193536,
		  "velocity": 0.7480314960629921
		},
		{
		  "duration": 0.19354799999999983,
		  "durationTicks": 240,
		  "midi": 65,
		  "name": "F4",
		  "ticks": 7920,
		  "time": 6.387084,
		  "velocity": 0.7480314960629921
		},
		{
		  "duration": 0.19354800000000072,
		  "durationTicks": 240,
		  "midi": 58,
		  "name": "A#3",
		  "ticks": 8160,
		  "time": 6.580632,
		  "velocity": 0.7480314960629921
		},
		{
		  "duration": 0.19354799999999983,
		  "durationTicks": 240,
		  "midi": 70,
		  "name": "A#4",
		  "ticks": 8400,
		  "time": 6.77418,
		  "velocity": 0.7480314960629921
		},
		{
		  "duration": 0.19354799999999983,
		  "durationTicks": 240,
		  "midi": 65,
		  "name": "F4",
		  "ticks": 8640,
		  "time": 6.967728,
		  "velocity": 0.7480314960629921
		},
		{
		  "duration": 0.19354799999999983,
		  "durationTicks": 240,
		  "midi": 58,
		  "name": "A#3",
		  "ticks": 8880,
		  "time": 7.161276,
		  "velocity": 0.7480314960629921
		},
		{
		  "duration": 0.19354799999999983,
		  "durationTicks": 240,
		  "midi": 73,
		  "name": "C#5",
		  "ticks": 9120,
		  "time": 7.354824,
		  "velocity": 0.7480314960629921
		},
		{
		  "duration": 0.19354800000000072,
		  "durationTicks": 240,
		  "midi": 72,
		  "name": "C5",
		  "ticks": 9360,
		  "time": 7.548372,
		  "velocity": 0.7480314960629921
		},
		{
		  "duration": 0.19354799999999983,
		  "durationTicks": 240,
		  "midi": 70,
		  "name": "A#4",
		  "ticks": 9600,
		  "time": 7.74192,
		  "velocity": 0.7480314960629921
		},
		{
		  "duration": 0.19354799999999983,
		  "durationTicks": 240,
		  "midi": 65,
		  "name": "F4",
		  "ticks": 9840,
		  "time": 7.935468,
		  "velocity": 0.7480314960629921
		},
		{
		  "duration": 0.19354799999999983,
		  "durationTicks": 240,
		  "midi": 58,
		  "name": "A#3",
		  "ticks": 10080,
		  "time": 8.129016,
		  "velocity": 0.7480314960629921
		},
		{
		  "duration": 0.19354799999999983,
		  "durationTicks": 240,
		  "midi": 70,
		  "name": "A#4",
		  "ticks": 10320,
		  "time": 8.322564,
		  "velocity": 0.7480314960629921
		},
		{
		  "duration": 0.19354799999999983,
		  "durationTicks": 240,
		  "midi": 65,
		  "name": "F4",
		  "ticks": 10560,
		  "time": 8.516112,
		  "velocity": 0.7480314960629921
		},
		{
		  "duration": 0.19354799999999983,
		  "durationTicks": 240,
		  "midi": 58,
		  "name": "A#3",
		  "ticks": 10800,
		  "time": 8.70966,
		  "velocity": 0.7480314960629921
		},
		{
		  "duration": 0.19354799999999983,
		  "durationTicks": 240,
		  "midi": 65,
		  "name": "F4",
		  "ticks": 11040,
		  "time": 8.903208,
		  "velocity": 0.7480314960629921
		},
		{
		  "duration": 0.19354799999999983,
		  "durationTicks": 240,
		  "midi": 70,
		  "name": "A#4",
		  "ticks": 11280,
		  "time": 9.096756,
		  "velocity": 0.7480314960629921
		},
		{
		  "duration": 0.1935480000000016,
		  "durationTicks": 240,
		  "midi": 73,
		  "name": "C#5",
		  "ticks": 11520,
		  "time": 9.290303999999999,
		  "velocity": 0.7480314960629921
		},
		{
		  "duration": 0.19354799999999983,
		  "durationTicks": 240,
		  "midi": 72,
		  "name": "C5",
		  "ticks": 11760,
		  "time": 9.483852,
		  "velocity": 0.7480314960629921
		},
		{
		  "duration": 0.19354799999999983,
		  "durationTicks": 240,
		  "midi": 68,
		  "name": "G#4",
		  "ticks": 12000,
		  "time": 9.6774,
		  "velocity": 0.7480314960629921
		},
		{
		  "duration": 0.19354799999999983,
		  "durationTicks": 240,
		  "midi": 61,
		  "name": "C#4",
		  "ticks": 12240,
		  "time": 9.870948,
		  "velocity": 0.7480314960629921
		},
		{
		  "duration": 0.19354799999999983,
		  "durationTicks": 240,
		  "midi": 60,
		  "name": "C4",
		  "ticks": 12480,
		  "time": 10.064496,
		  "velocity": 0.7480314960629921
		},
		{
		  "duration": 0.19354799999999983,
		  "durationTicks": 240,
		  "midi": 56,
		  "name": "G#3",
		  "ticks": 12720,
		  "time": 10.258044,
		  "velocity": 0.7480314960629921
		},
		{
		  "duration": 0.19354799999999983,
		  "durationTicks": 240,
		  "midi": 68,
		  "name": "G#4",
		  "ticks": 12960,
		  "time": 10.451592,
		  "velocity": 0.7480314960629921
		},
		{
		  "duration": 0.19354799999999983,
		  "durationTicks": 240,
		  "midi": 72,
		  "name": "C5",
		  "ticks": 13200,
		  "time": 10.64514,
		  "velocity": 0.7480314960629921
		},
		{
		  "duration": 0.19354799999999983,
		  "durationTicks": 240,
		  "midi": 73,
		  "name": "C#5",
		  "ticks": 13440,
		  "time": 10.838688,
		  "velocity": 0.7480314960629921
		},
		{
		  "duration": 0.19354799999999983,
		  "durationTicks": 240,
		  "midi": 72,
		  "name": "C5",
		  "ticks": 13680,
		  "time": 11.032236,
		  "velocity": 0.7480314960629921
		},
		{
		  "duration": 0.1935480000000016,
		  "durationTicks": 240,
		  "midi": 56,
		  "name": "G#3",
		  "ticks": 13920,
		  "time": 11.225783999999999,
		  "velocity": 0.7480314960629921
		},
		{
		  "duration": 0.19354799999999983,
		  "durationTicks": 240,
		  "midi": 63,
		  "name": "D#4",
		  "ticks": 14160,
		  "time": 11.419332,
		  "velocity": 0.7480314960629921
		},
		{
		  "duration": 0.19354799999999983,
		  "durationTicks": 240,
		  "midi": 68,
		  "name": "G#4",
		  "ticks": 14400,
		  "time": 11.61288,
		  "velocity": 0.7480314960629921
		},
		{
		  "duration": 0.19354799999999983,
		  "durationTicks": 240,
		  "midi": 72,
		  "name": "C5",
		  "ticks": 14640,
		  "time": 11.806428,
		  "velocity": 0.7480314960629921
		},
		{
		  "duration": 0.19354799999999983,
		  "durationTicks": 240,
		  "midi": 73,
		  "name": "C#5",
		  "ticks": 14880,
		  "time": 11.999976,
		  "velocity": 0.7480314960629921
		},
		{
		  "duration": 0.19354799999999983,
		  "durationTicks": 240,
		  "midi": 72,
		  "name": "C5",
		  "ticks": 15120,
		  "time": 12.193524,
		  "velocity": 0.7480314960629921
		},
		{
		  "duration": 0.19354799999999983,
		  "durationTicks": 240,
		  "midi": 70,
		  "name": "A#4",
		  "ticks": 15360,
		  "time": 12.387072,
		  "velocity": 0.7480314960629921
		},
		{
		  "duration": 0.19354799999999983,
		  "durationTicks": 240,
		  "midi": 65,
		  "name": "F4",
		  "ticks": 15600,
		  "time": 12.58062,
		  "velocity": 0.7480314960629921
		},
		{
		  "duration": 0.19354799999999983,
		  "durationTicks": 240,
		  "midi": 58,
		  "name": "A#3",
		  "ticks": 15840,
		  "time": 12.774168,
		  "velocity": 0.7480314960629921
		},
		{
		  "duration": 0.19354799999999983,
		  "durationTicks": 240,
		  "midi": 70,
		  "name": "A#4",
		  "ticks": 16080,
		  "time": 12.967716,
		  "velocity": 0.7480314960629921
		},
		{
		  "duration": 0.19354799999999983,
		  "durationTicks": 240,
		  "midi": 65,
		  "name": "F4",
		  "ticks": 16320,
		  "time": 13.161264,
		  "velocity": 0.7480314960629921
		},
		{
		  "duration": 0.1935480000000016,
		  "durationTicks": 240,
		  "midi": 58,
		  "name": "A#3",
		  "ticks": 16560,
		  "time": 13.354811999999999,
		  "velocity": 0.7480314960629921
		},
		{
		  "duration": 0.19354799999999983,
		  "durationTicks": 240,
		  "midi": 73,
		  "name": "C#5",
		  "ticks": 16800,
		  "time": 13.54836,
		  "velocity": 0.7480314960629921
		},
		{
		  "duration": 0.19354799999999983,
		  "durationTicks": 240,
		  "midi": 72,
		  "name": "C5",
		  "ticks": 17040,
		  "time": 13.741908,
		  "velocity": 0.7480314960629921
		},
		{
		  "duration": 0.19354799999999983,
		  "durationTicks": 240,
		  "midi": 70,
		  "name": "A#4",
		  "ticks": 17280,
		  "time": 13.935456,
		  "velocity": 0.7480314960629921
		},
		{
		  "duration": 0.19354799999999983,
		  "durationTicks": 240,
		  "midi": 65,
		  "name": "F4",
		  "ticks": 17520,
		  "time": 14.129004,
		  "velocity": 0.7480314960629921
		},
		{
		  "duration": 0.19354799999999983,
		  "durationTicks": 240,
		  "midi": 58,
		  "name": "A#3",
		  "ticks": 17760,
		  "time": 14.322552,
		  "velocity": 0.7480314960629921
		},
		{
		  "duration": 0.19354799999999983,
		  "durationTicks": 240,
		  "midi": 70,
		  "name": "A#4",
		  "ticks": 18000,
		  "time": 14.5161,
		  "velocity": 0.7480314960629921
		},
		{
		  "duration": 0.19354799999999983,
		  "durationTicks": 240,
		  "midi": 65,
		  "name": "F4",
		  "ticks": 18240,
		  "time": 14.709648,
		  "velocity": 0.7480314960629921
		},
		{
		  "duration": 0.19354799999999983,
		  "durationTicks": 240,
		  "midi": 58,
		  "name": "A#3",
		  "ticks": 18480,
		  "time": 14.903196,
		  "velocity": 0.7480314960629921
		},
		{
		  "duration": 0.19354799999999983,
		  "durationTicks": 240,
		  "midi": 65,
		  "name": "F4",
		  "ticks": 18720,
		  "time": 15.096744,
		  "velocity": 0.7480314960629921
		},
		{
		  "duration": 0.1935480000000016,
		  "durationTicks": 240,
		  "midi": 70,
		  "name": "A#4",
		  "ticks": 18960,
		  "time": 15.290291999999999,
		  "velocity": 0.7480314960629921
		},
		{
		  "duration": 0.19354799999999983,
		  "durationTicks": 240,
		  "midi": 73,
		  "name": "C#5",
		  "ticks": 19200,
		  "time": 15.48384,
		  "velocity": 0.7480314960629921
		},
		{
		  "duration": 0.19354799999999983,
		  "durationTicks": 240,
		  "midi": 72,
		  "name": "C5",
		  "ticks": 19440,
		  "time": 15.677388,
		  "velocity": 0.7480314960629921
		},
		{
		  "duration": 0.19354799999999983,
		  "durationTicks": 240,
		  "midi": 68,
		  "name": "G#4",
		  "ticks": 19680,
		  "time": 15.870936,
		  "velocity": 0.7480314960629921
		},
		{
		  "duration": 0.19354799999999983,
		  "durationTicks": 240,
		  "midi": 61,
		  "name": "C#4",
		  "ticks": 19920,
		  "time": 16.064484,
		  "velocity": 0.7480314960629921
		},
		{
		  "duration": 0.19354799999999983,
		  "durationTicks": 240,
		  "midi": 60,
		  "name": "C4",
		  "ticks": 20160,
		  "time": 16.258032,
		  "velocity": 0.7480314960629921
		},
		{
		  "duration": 0.19354799999999983,
		  "durationTicks": 240,
		  "midi": 56,
		  "name": "G#3",
		  "ticks": 20400,
		  "time": 16.45158,
		  "velocity": 0.7480314960629921
		},
		{
		  "duration": 0.19354799999999983,
		  "durationTicks": 240,
		  "midi": 68,
		  "name": "G#4",
		  "ticks": 20640,
		  "time": 16.645128,
		  "velocity": 0.7480314960629921
		},
		{
		  "duration": 0.19354799999999983,
		  "durationTicks": 240,
		  "midi": 72,
		  "name": "C5",
		  "ticks": 20880,
		  "time": 16.838676,
		  "velocity": 0.7480314960629921
		},
		{
		  "duration": 0.19354799999999983,
		  "durationTicks": 240,
		  "midi": 73,
		  "name": "C#5",
		  "ticks": 21120,
		  "time": 17.032224,
		  "velocity": 0.7480314960629921
		},
		{
		  "duration": 0.19354799999999983,
		  "durationTicks": 240,
		  "midi": 72,
		  "name": "C5",
		  "ticks": 21360,
		  "time": 17.225772,
		  "velocity": 0.7480314960629921
		},
		{
		  "duration": 0.19354799999999983,
		  "durationTicks": 240,
		  "midi": 56,
		  "name": "G#3",
		  "ticks": 21600,
		  "time": 17.41932,
		  "velocity": 0.7480314960629921
		},
		{
		  "duration": 0.19354799999999983,
		  "durationTicks": 240,
		  "midi": 63,
		  "name": "D#4",
		  "ticks": 21840,
		  "time": 17.612868,
		  "velocity": 0.7480314960629921
		},
		{
		  "duration": 0.19354799999999983,
		  "durationTicks": 240,
		  "midi": 68,
		  "name": "G#4",
		  "ticks": 22080,
		  "time": 17.806416,
		  "velocity": 0.7480314960629921
		},
		{
		  "duration": 0.19354799999999983,
		  "durationTicks": 240,
		  "midi": 72,
		  "name": "C5",
		  "ticks": 22320,
		  "time": 17.999964,
		  "velocity": 0.7480314960629921
		},
		{
		  "duration": 0.19354799999999983,
		  "durationTicks": 240,
		  "midi": 73,
		  "name": "C#5",
		  "ticks": 22560,
		  "time": 18.193512,
		  "velocity": 0.7480314960629921
		},
		{
		  "duration": 0.19354799999999983,
		  "durationTicks": 240,
		  "midi": 72,
		  "name": "C5",
		  "ticks": 22800,
		  "time": 18.387059999999998,
		  "velocity": 0.7480314960629921
		},
		{
		  "duration": 0.19354800000000338,
		  "durationTicks": 240,
		  "midi": 70,
		  "name": "A#4",
		  "ticks": 23040,
		  "time": 18.580607999999998,
		  "velocity": 0.7480314960629921
		},
		{
		  "duration": 0.19354799999999983,
		  "durationTicks": 240,
		  "midi": 65,
		  "name": "F4",
		  "ticks": 23280,
		  "time": 18.774156,
		  "velocity": 0.7480314960629921
		},
		{
		  "duration": 0.19354799999999983,
		  "durationTicks": 240,
		  "midi": 58,
		  "name": "A#3",
		  "ticks": 23520,
		  "time": 18.967704,
		  "velocity": 0.7480314960629921
		},
		{
		  "duration": 0.19354799999999983,
		  "durationTicks": 240,
		  "midi": 70,
		  "name": "A#4",
		  "ticks": 23760,
		  "time": 19.161252,
		  "velocity": 0.7480314960629921
		},
		{
		  "duration": 0.19354799999999983,
		  "durationTicks": 240,
		  "midi": 65,
		  "name": "F4",
		  "ticks": 24000,
		  "time": 19.3548,
		  "velocity": 0.7480314960629921
		},
		{
		  "duration": 0.19354799999999983,
		  "durationTicks": 240,
		  "midi": 58,
		  "name": "A#3",
		  "ticks": 24240,
		  "time": 19.548348,
		  "velocity": 0.7480314960629921
		},
		{
		  "duration": 0.19354799999999983,
		  "durationTicks": 240,
		  "midi": 73,
		  "name": "C#5",
		  "ticks": 24480,
		  "time": 19.741896,
		  "velocity": 0.7480314960629921
		},
		{
		  "duration": 0.19354799999999983,
		  "durationTicks": 240,
		  "midi": 72,
		  "name": "C5",
		  "ticks": 24720,
		  "time": 19.935444,
		  "velocity": 0.7480314960629921
		},
		{
		  "duration": 0.19354799999999983,
		  "durationTicks": 240,
		  "midi": 70,
		  "name": "A#4",
		  "ticks": 24960,
		  "time": 20.128992,
		  "velocity": 0.7480314960629921
		},
		{
		  "duration": 0.19354799999999983,
		  "durationTicks": 240,
		  "midi": 65,
		  "name": "F4",
		  "ticks": 25200,
		  "time": 20.32254,
		  "velocity": 0.7480314960629921
		},
		{
		  "duration": 0.19354799999999983,
		  "durationTicks": 240,
		  "midi": 58,
		  "name": "A#3",
		  "ticks": 25440,
		  "time": 20.516088,
		  "velocity": 0.7480314960629921
		},
		{
		  "duration": 0.19354799999999983,
		  "durationTicks": 240,
		  "midi": 70,
		  "name": "A#4",
		  "ticks": 25680,
		  "time": 20.709636,
		  "velocity": 0.7480314960629921
		},
		{
		  "duration": 0.19354799999999983,
		  "durationTicks": 240,
		  "midi": 65,
		  "name": "F4",
		  "ticks": 25920,
		  "time": 20.903184,
		  "velocity": 0.7480314960629921
		},
		{
		  "duration": 0.19354799999999983,
		  "durationTicks": 240,
		  "midi": 58,
		  "name": "A#3",
		  "ticks": 26160,
		  "time": 21.096732,
		  "velocity": 0.7480314960629921
		},
		{
		  "duration": 0.19354799999999983,
		  "durationTicks": 240,
		  "midi": 65,
		  "name": "F4",
		  "ticks": 26400,
		  "time": 21.29028,
		  "velocity": 0.7480314960629921
		},
		{
		  "duration": 0.19354799999999983,
		  "durationTicks": 240,
		  "midi": 70,
		  "name": "A#4",
		  "ticks": 26640,
		  "time": 21.483828,
		  "velocity": 0.7480314960629921
		},
		{
		  "duration": 0.19354799999999983,
		  "durationTicks": 240,
		  "midi": 73,
		  "name": "C#5",
		  "ticks": 26880,
		  "time": 21.677376,
		  "velocity": 0.7480314960629921
		},
		{
		  "duration": 0.19354799999999983,
		  "durationTicks": 240,
		  "midi": 72,
		  "name": "C5",
		  "ticks": 27120,
		  "time": 21.870924,
		  "velocity": 0.7480314960629921
		},
		{
		  "duration": 0.19354799999999983,
		  "durationTicks": 240,
		  "midi": 68,
		  "name": "G#4",
		  "ticks": 27360,
		  "time": 22.064472,
		  "velocity": 0.7480314960629921
		},
		{
		  "duration": 0.19354799999999983,
		  "durationTicks": 240,
		  "midi": 61,
		  "name": "C#4",
		  "ticks": 27600,
		  "time": 22.25802,
		  "velocity": 0.7480314960629921
		},
		{
		  "duration": 0.19354799999999983,
		  "durationTicks": 240,
		  "midi": 60,
		  "name": "C4",
		  "ticks": 27840,
		  "time": 22.451567999999998,
		  "velocity": 0.7480314960629921
		},
		{
		  "duration": 0.19354800000000338,
		  "durationTicks": 240,
		  "midi": 56,
		  "name": "G#3",
		  "ticks": 28080,
		  "time": 22.645115999999998,
		  "velocity": 0.7480314960629921
		},
		{
		  "duration": 0.19354799999999983,
		  "durationTicks": 240,
		  "midi": 68,
		  "name": "G#4",
		  "ticks": 28320,
		  "time": 22.838664,
		  "velocity": 0.7480314960629921
		},
		{
		  "duration": 0.19354799999999983,
		  "durationTicks": 240,
		  "midi": 72,
		  "name": "C5",
		  "ticks": 28560,
		  "time": 23.032212,
		  "velocity": 0.7480314960629921
		},
		{
		  "duration": 0.19354799999999983,
		  "durationTicks": 240,
		  "midi": 73,
		  "name": "C#5",
		  "ticks": 28800,
		  "time": 23.22576,
		  "velocity": 0.7480314960629921
		},
		{
		  "duration": 0.19354799999999983,
		  "durationTicks": 240,
		  "midi": 72,
		  "name": "C5",
		  "ticks": 29040,
		  "time": 23.419308,
		  "velocity": 0.7480314960629921
		},
		{
		  "duration": 0.19354799999999983,
		  "durationTicks": 240,
		  "midi": 56,
		  "name": "G#3",
		  "ticks": 29280,
		  "time": 23.612856,
		  "velocity": 0.7480314960629921
		},
		{
		  "duration": 0.19354799999999983,
		  "durationTicks": 240,
		  "midi": 63,
		  "name": "D#4",
		  "ticks": 29520,
		  "time": 23.806404,
		  "velocity": 0.7480314960629921
		},
		{
		  "duration": 0.19354799999999983,
		  "durationTicks": 240,
		  "midi": 68,
		  "name": "G#4",
		  "ticks": 29760,
		  "time": 23.999952,
		  "velocity": 0.7480314960629921
		},
		{
		  "duration": 0.19354799999999983,
		  "durationTicks": 240,
		  "midi": 72,
		  "name": "C5",
		  "ticks": 30000,
		  "time": 24.1935,
		  "velocity": 0.7480314960629921
		},
		{
		  "duration": 0.19354799999999983,
		  "durationTicks": 240,
		  "midi": 73,
		  "name": "C#5",
		  "ticks": 30240,
		  "time": 24.387048,
		  "velocity": 0.7480314960629921
		},
		{
		  "duration": 0.19354799999999983,
		  "durationTicks": 240,
		  "midi": 72,
		  "name": "C5",
		  "ticks": 30480,
		  "time": 24.580596,
		  "velocity": 0.7480314960629921
		},
		{
		  "duration": 0.19354799999999273,
		  "durationTicks": 240,
		  "midi": 70,
		  "name": "A#4",
		  "ticks": 99840,
		  "time": 80.515968,
		  "velocity": 0.7480314960629921
		},
		{
		  "duration": 0.19354800000000694,
		  "durationTicks": 240,
		  "midi": 65,
		  "name": "F4",
		  "ticks": 100080,
		  "time": 80.709516,
		  "velocity": 0.7480314960629921
		},
		{
		  "duration": 0.19354799999999273,
		  "durationTicks": 240,
		  "midi": 58,
		  "name": "A#3",
		  "ticks": 100320,
		  "time": 80.903064,
		  "velocity": 0.7480314960629921
		},
		{
		  "duration": 0.19354800000000694,
		  "durationTicks": 240,
		  "midi": 70,
		  "name": "A#4",
		  "ticks": 100560,
		  "time": 81.096612,
		  "velocity": 0.7480314960629921
		},
		{
		  "duration": 0.19354799999999273,
		  "durationTicks": 240,
		  "midi": 65,
		  "name": "F4",
		  "ticks": 100800,
		  "time": 81.29016,
		  "velocity": 0.7480314960629921
		},
		{
		  "duration": 0.19354800000000694,
		  "durationTicks": 240,
		  "midi": 58,
		  "name": "A#3",
		  "ticks": 101040,
		  "time": 81.483708,
		  "velocity": 0.7480314960629921
		},
		{
		  "duration": 0.19354799999999273,
		  "durationTicks": 240,
		  "midi": 73,
		  "name": "C#5",
		  "ticks": 101280,
		  "time": 81.677256,
		  "velocity": 0.7480314960629921
		},
		{
		  "duration": 0.19354800000000694,
		  "durationTicks": 240,
		  "midi": 72,
		  "name": "C5",
		  "ticks": 101520,
		  "time": 81.87080399999999,
		  "velocity": 0.7480314960629921
		},
		{
		  "duration": 0.19354799999999273,
		  "durationTicks": 240,
		  "midi": 70,
		  "name": "A#4",
		  "ticks": 101760,
		  "time": 82.064352,
		  "velocity": 0.7480314960629921
		},
		{
		  "duration": 0.19354800000000694,
		  "durationTicks": 240,
		  "midi": 65,
		  "name": "F4",
		  "ticks": 102000,
		  "time": 82.25789999999999,
		  "velocity": 0.7480314960629921
		},
		{
		  "duration": 0.19354800000000694,
		  "durationTicks": 240,
		  "midi": 58,
		  "name": "A#3",
		  "ticks": 102240,
		  "time": 82.451448,
		  "velocity": 0.7480314960629921
		},
		{
		  "duration": 0.19354799999999273,
		  "durationTicks": 240,
		  "midi": 70,
		  "name": "A#4",
		  "ticks": 102480,
		  "time": 82.644996,
		  "velocity": 0.7480314960629921
		},
		{
		  "duration": 0.19354800000000694,
		  "durationTicks": 240,
		  "midi": 65,
		  "name": "F4",
		  "ticks": 102720,
		  "time": 82.838544,
		  "velocity": 0.7480314960629921
		},
		{
		  "duration": 0.19354799999999273,
		  "durationTicks": 240,
		  "midi": 58,
		  "name": "A#3",
		  "ticks": 102960,
		  "time": 83.032092,
		  "velocity": 0.7480314960629921
		},
		{
		  "duration": 0.19354800000000694,
		  "durationTicks": 240,
		  "midi": 65,
		  "name": "F4",
		  "ticks": 103200,
		  "time": 83.22564,
		  "velocity": 0.7480314960629921
		},
		{
		  "duration": 0.19354799999999273,
		  "durationTicks": 240,
		  "midi": 70,
		  "name": "A#4",
		  "ticks": 103440,
		  "time": 83.419188,
		  "velocity": 0.7480314960629921
		},
		{
		  "duration": 0.19354800000000694,
		  "durationTicks": 240,
		  "midi": 73,
		  "name": "C#5",
		  "ticks": 103680,
		  "time": 83.612736,
		  "velocity": 0.7480314960629921
		},
		{
		  "duration": 0.19354799999999273,
		  "durationTicks": 240,
		  "midi": 72,
		  "name": "C5",
		  "ticks": 103920,
		  "time": 83.806284,
		  "velocity": 0.7480314960629921
		},
		{
		  "duration": 0.19354800000000694,
		  "durationTicks": 240,
		  "midi": 68,
		  "name": "G#4",
		  "ticks": 104160,
		  "time": 83.999832,
		  "velocity": 0.7480314960629921
		},
		{
		  "duration": 0.19354799999999273,
		  "durationTicks": 240,
		  "midi": 61,
		  "name": "C#4",
		  "ticks": 104400,
		  "time": 84.19338,
		  "velocity": 0.7480314960629921
		},
		{
		  "duration": 0.19354800000000694,
		  "durationTicks": 240,
		  "midi": 60,
		  "name": "C4",
		  "ticks": 104640,
		  "time": 84.386928,
		  "velocity": 0.7480314960629921
		},
		{
		  "duration": 0.19354799999999273,
		  "durationTicks": 240,
		  "midi": 56,
		  "name": "G#3",
		  "ticks": 104880,
		  "time": 84.580476,
		  "velocity": 0.7480314960629921
		},
		{
		  "duration": 0.19354800000000694,
		  "durationTicks": 240,
		  "midi": 68,
		  "name": "G#4",
		  "ticks": 105120,
		  "time": 84.774024,
		  "velocity": 0.7480314960629921
		},
		{
		  "duration": 0.19354799999999273,
		  "durationTicks": 240,
		  "midi": 72,
		  "name": "C5",
		  "ticks": 105360,
		  "time": 84.967572,
		  "velocity": 0.7480314960629921
		},
		{
		  "duration": 0.19354800000000694,
		  "durationTicks": 240,
		  "midi": 73,
		  "name": "C#5",
		  "ticks": 105600,
		  "time": 85.16112,
		  "velocity": 0.7480314960629921
		},
		{
		  "duration": 0.19354799999999273,
		  "durationTicks": 240,
		  "midi": 72,
		  "name": "C5",
		  "ticks": 105840,
		  "time": 85.354668,
		  "velocity": 0.7480314960629921
		},
		{
		  "duration": 0.19354800000000694,
		  "durationTicks": 240,
		  "midi": 56,
		  "name": "G#3",
		  "ticks": 106080,
		  "time": 85.548216,
		  "velocity": 0.7480314960629921
		},
		{
		  "duration": 0.19354799999999273,
		  "durationTicks": 240,
		  "midi": 63,
		  "name": "D#4",
		  "ticks": 106320,
		  "time": 85.741764,
		  "velocity": 0.7480314960629921
		},
		{
		  "duration": 0.19354800000000694,
		  "durationTicks": 240,
		  "midi": 68,
		  "name": "G#4",
		  "ticks": 106560,
		  "time": 85.935312,
		  "velocity": 0.7480314960629921
		},
		{
		  "duration": 0.19354799999999273,
		  "durationTicks": 240,
		  "midi": 72,
		  "name": "C5",
		  "ticks": 106800,
		  "time": 86.12886,
		  "velocity": 0.7480314960629921
		},
		{
		  "duration": 0.19354800000000694,
		  "durationTicks": 240,
		  "midi": 73,
		  "name": "C#5",
		  "ticks": 107040,
		  "time": 86.322408,
		  "velocity": 0.7480314960629921
		},
		{
		  "duration": 0.19354799999999273,
		  "durationTicks": 240,
		  "midi": 72,
		  "name": "C5",
		  "ticks": 107280,
		  "time": 86.515956,
		  "velocity": 0.7480314960629921
		},
		{
		  "duration": 0.19354800000000694,
		  "durationTicks": 240,
		  "midi": 70,
		  "name": "A#4",
		  "ticks": 107520,
		  "time": 86.709504,
		  "velocity": 0.7480314960629921
		},
		{
		  "duration": 0.19354799999999273,
		  "durationTicks": 240,
		  "midi": 65,
		  "name": "F4",
		  "ticks": 107760,
		  "time": 86.903052,
		  "velocity": 0.7480314960629921
		},
		{
		  "duration": 0.19354800000000694,
		  "durationTicks": 240,
		  "midi": 58,
		  "name": "A#3",
		  "ticks": 108000,
		  "time": 87.0966,
		  "velocity": 0.7480314960629921
		},
		{
		  "duration": 0.19354799999999273,
		  "durationTicks": 240,
		  "midi": 70,
		  "name": "A#4",
		  "ticks": 108240,
		  "time": 87.290148,
		  "velocity": 0.7480314960629921
		},
		{
		  "duration": 0.19354800000000694,
		  "durationTicks": 240,
		  "midi": 65,
		  "name": "F4",
		  "ticks": 108480,
		  "time": 87.483696,
		  "velocity": 0.7480314960629921
		},
		{
		  "duration": 0.19354799999999273,
		  "durationTicks": 240,
		  "midi": 58,
		  "name": "A#3",
		  "ticks": 108720,
		  "time": 87.677244,
		  "velocity": 0.7480314960629921
		},
		{
		  "duration": 0.19354800000000694,
		  "durationTicks": 240,
		  "midi": 73,
		  "name": "C#5",
		  "ticks": 108960,
		  "time": 87.870792,
		  "velocity": 0.7480314960629921
		},
		{
		  "duration": 0.19354799999999273,
		  "durationTicks": 240,
		  "midi": 72,
		  "name": "C5",
		  "ticks": 109200,
		  "time": 88.06434,
		  "velocity": 0.7480314960629921
		},
		{
		  "duration": 0.19354800000000694,
		  "durationTicks": 240,
		  "midi": 70,
		  "name": "A#4",
		  "ticks": 109440,
		  "time": 88.257888,
		  "velocity": 0.7480314960629921
		},
		{
		  "duration": 0.19354799999999273,
		  "durationTicks": 240,
		  "midi": 65,
		  "name": "F4",
		  "ticks": 109680,
		  "time": 88.451436,
		  "velocity": 0.7480314960629921
		},
		{
		  "duration": 0.19354800000000694,
		  "durationTicks": 240,
		  "midi": 58,
		  "name": "A#3",
		  "ticks": 109920,
		  "time": 88.644984,
		  "velocity": 0.7480314960629921
		},
		{
		  "duration": 0.19354799999999273,
		  "durationTicks": 240,
		  "midi": 70,
		  "name": "A#4",
		  "ticks": 110160,
		  "time": 88.838532,
		  "velocity": 0.7480314960629921
		},
		{
		  "duration": 0.19354800000000694,
		  "durationTicks": 240,
		  "midi": 65,
		  "name": "F4",
		  "ticks": 110400,
		  "time": 89.03208,
		  "velocity": 0.7480314960629921
		},
		{
		  "duration": 0.19354799999999273,
		  "durationTicks": 240,
		  "midi": 58,
		  "name": "A#3",
		  "ticks": 110640,
		  "time": 89.225628,
		  "velocity": 0.7480314960629921
		},
		{
		  "duration": 0.19354800000000694,
		  "durationTicks": 240,
		  "midi": 65,
		  "name": "F4",
		  "ticks": 110880,
		  "time": 89.419176,
		  "velocity": 0.7480314960629921
		},
		{
		  "duration": 0.19354799999999273,
		  "durationTicks": 240,
		  "midi": 70,
		  "name": "A#4",
		  "ticks": 111120,
		  "time": 89.612724,
		  "velocity": 0.7480314960629921
		},
		{
		  "duration": 0.19354800000000694,
		  "durationTicks": 240,
		  "midi": 73,
		  "name": "C#5",
		  "ticks": 111360,
		  "time": 89.80627199999999,
		  "velocity": 0.7480314960629921
		},
		{
		  "duration": 0.19354799999999273,
		  "durationTicks": 240,
		  "midi": 72,
		  "name": "C5",
		  "ticks": 111600,
		  "time": 89.99982,
		  "velocity": 0.7480314960629921
		},
		{
		  "duration": 0.19354800000000694,
		  "durationTicks": 240,
		  "midi": 68,
		  "name": "G#4",
		  "ticks": 111840,
		  "time": 90.19336799999999,
		  "velocity": 0.7480314960629921
		},
		{
		  "duration": 0.19354799999999273,
		  "durationTicks": 240,
		  "midi": 61,
		  "name": "C#4",
		  "ticks": 112080,
		  "time": 90.386916,
		  "velocity": 0.7480314960629921
		},
		{
		  "duration": 0.19354800000000694,
		  "durationTicks": 240,
		  "midi": 60,
		  "name": "C4",
		  "ticks": 112320,
		  "time": 90.58046399999999,
		  "velocity": 0.7480314960629921
		},
		{
		  "duration": 0.19354800000000694,
		  "durationTicks": 240,
		  "midi": 56,
		  "name": "G#3",
		  "ticks": 112560,
		  "time": 90.774012,
		  "velocity": 0.7480314960629921
		},
		{
		  "duration": 0.19354799999999273,
		  "durationTicks": 240,
		  "midi": 68,
		  "name": "G#4",
		  "ticks": 112800,
		  "time": 90.96756,
		  "velocity": 0.7480314960629921
		},
		{
		  "duration": 0.19354800000000694,
		  "durationTicks": 240,
		  "midi": 72,
		  "name": "C5",
		  "ticks": 113040,
		  "time": 91.161108,
		  "velocity": 0.7480314960629921
		},
		{
		  "duration": 0.19354799999999273,
		  "durationTicks": 240,
		  "midi": 73,
		  "name": "C#5",
		  "ticks": 113280,
		  "time": 91.354656,
		  "velocity": 0.7480314960629921
		},
		{
		  "duration": 0.19354800000000694,
		  "durationTicks": 240,
		  "midi": 72,
		  "name": "C5",
		  "ticks": 113520,
		  "time": 91.548204,
		  "velocity": 0.7480314960629921
		},
		{
		  "duration": 0.19354799999999273,
		  "durationTicks": 240,
		  "midi": 56,
		  "name": "G#3",
		  "ticks": 113760,
		  "time": 91.741752,
		  "velocity": 0.7480314960629921
		},
		{
		  "duration": 0.19354800000000694,
		  "durationTicks": 240,
		  "midi": 63,
		  "name": "D#4",
		  "ticks": 114000,
		  "time": 91.9353,
		  "velocity": 0.7480314960629921
		},
		{
		  "duration": 0.19354799999999273,
		  "durationTicks": 240,
		  "midi": 68,
		  "name": "G#4",
		  "ticks": 114240,
		  "time": 92.128848,
		  "velocity": 0.7480314960629921
		},
		{
		  "duration": 0.19354800000000694,
		  "durationTicks": 240,
		  "midi": 72,
		  "name": "C5",
		  "ticks": 114480,
		  "time": 92.322396,
		  "velocity": 0.7480314960629921
		},
		{
		  "duration": 0.19354799999999273,
		  "durationTicks": 240,
		  "midi": 73,
		  "name": "C#5",
		  "ticks": 114720,
		  "time": 92.515944,
		  "velocity": 0.7480314960629921
		},
		{
		  "duration": 0.19354800000000694,
		  "durationTicks": 240,
		  "midi": 72,
		  "name": "C5",
		  "ticks": 114960,
		  "time": 92.709492,
		  "velocity": 0.7480314960629921
		},
		{
		  "duration": 0.19354799999999273,
		  "durationTicks": 240,
		  "midi": 70,
		  "name": "A#4",
		  "ticks": 115200,
		  "time": 92.90304,
		  "velocity": 0.7480314960629921
		},
		{
		  "duration": 0.19354800000000694,
		  "durationTicks": 240,
		  "midi": 65,
		  "name": "F4",
		  "ticks": 115440,
		  "time": 93.096588,
		  "velocity": 0.7480314960629921
		},
		{
		  "duration": 0.19354799999999273,
		  "durationTicks": 240,
		  "midi": 58,
		  "name": "A#3",
		  "ticks": 115680,
		  "time": 93.290136,
		  "velocity": 0.7480314960629921
		},
		{
		  "duration": 0.19354800000000694,
		  "durationTicks": 240,
		  "midi": 70,
		  "name": "A#4",
		  "ticks": 115920,
		  "time": 93.483684,
		  "velocity": 0.7480314960629921
		},
		{
		  "duration": 0.19354799999999273,
		  "durationTicks": 240,
		  "midi": 65,
		  "name": "F4",
		  "ticks": 116160,
		  "time": 93.677232,
		  "velocity": 0.7480314960629921
		},
		{
		  "duration": 0.19354800000000694,
		  "durationTicks": 240,
		  "midi": 58,
		  "name": "A#3",
		  "ticks": 116400,
		  "time": 93.87078,
		  "velocity": 0.7480314960629921
		},
		{
		  "duration": 0.19354799999999273,
		  "durationTicks": 240,
		  "midi": 73,
		  "name": "C#5",
		  "ticks": 116640,
		  "time": 94.064328,
		  "velocity": 0.7480314960629921
		},
		{
		  "duration": 0.19354800000000694,
		  "durationTicks": 240,
		  "midi": 72,
		  "name": "C5",
		  "ticks": 116880,
		  "time": 94.257876,
		  "velocity": 0.7480314960629921
		},
		{
		  "duration": 0.19354799999999273,
		  "durationTicks": 240,
		  "midi": 70,
		  "name": "A#4",
		  "ticks": 117120,
		  "time": 94.451424,
		  "velocity": 0.7480314960629921
		},
		{
		  "duration": 0.19354800000000694,
		  "durationTicks": 240,
		  "midi": 65,
		  "name": "F4",
		  "ticks": 117360,
		  "time": 94.644972,
		  "velocity": 0.7480314960629921
		},
		{
		  "duration": 0.19354799999999273,
		  "durationTicks": 240,
		  "midi": 58,
		  "name": "A#3",
		  "ticks": 117600,
		  "time": 94.83852,
		  "velocity": 0.7480314960629921
		},
		{
		  "duration": 0.19354800000000694,
		  "durationTicks": 240,
		  "midi": 70,
		  "name": "A#4",
		  "ticks": 117840,
		  "time": 95.032068,
		  "velocity": 0.7480314960629921
		},
		{
		  "duration": 0.19354799999999273,
		  "durationTicks": 240,
		  "midi": 65,
		  "name": "F4",
		  "ticks": 118080,
		  "time": 95.225616,
		  "velocity": 0.7480314960629921
		},
		{
		  "duration": 0.19354800000000694,
		  "durationTicks": 240,
		  "midi": 58,
		  "name": "A#3",
		  "ticks": 118320,
		  "time": 95.419164,
		  "velocity": 0.7480314960629921
		},
		{
		  "duration": 0.19354799999999273,
		  "durationTicks": 240,
		  "midi": 65,
		  "name": "F4",
		  "ticks": 118560,
		  "time": 95.612712,
		  "velocity": 0.7480314960629921
		},
		{
		  "duration": 0.19354800000000694,
		  "durationTicks": 240,
		  "midi": 70,
		  "name": "A#4",
		  "ticks": 118800,
		  "time": 95.80626,
		  "velocity": 0.7480314960629921
		},
		{
		  "duration": 0.19354799999999273,
		  "durationTicks": 240,
		  "midi": 73,
		  "name": "C#5",
		  "ticks": 119040,
		  "time": 95.999808,
		  "velocity": 0.7480314960629921
		},
		{
		  "duration": 0.19354800000000694,
		  "durationTicks": 240,
		  "midi": 72,
		  "name": "C5",
		  "ticks": 119280,
		  "time": 96.193356,
		  "velocity": 0.7480314960629921
		},
		{
		  "duration": 0.19354799999999273,
		  "durationTicks": 240,
		  "midi": 68,
		  "name": "G#4",
		  "ticks": 119520,
		  "time": 96.386904,
		  "velocity": 0.7480314960629921
		},
		{
		  "duration": 0.19354800000000694,
		  "durationTicks": 240,
		  "midi": 61,
		  "name": "C#4",
		  "ticks": 119760,
		  "time": 96.580452,
		  "velocity": 0.7480314960629921
		},
		{
		  "duration": 0.19354799999999273,
		  "durationTicks": 240,
		  "midi": 60,
		  "name": "C4",
		  "ticks": 120000,
		  "time": 96.774,
		  "velocity": 0.7480314960629921
		},
		{
		  "duration": 0.19354800000000694,
		  "durationTicks": 240,
		  "midi": 56,
		  "name": "G#3",
		  "ticks": 120240,
		  "time": 96.967548,
		  "velocity": 0.7480314960629921
		},
		{
		  "duration": 0.19354799999999273,
		  "durationTicks": 240,
		  "midi": 68,
		  "name": "G#4",
		  "ticks": 120480,
		  "time": 97.161096,
		  "velocity": 0.7480314960629921
		},
		{
		  "duration": 0.19354800000000694,
		  "durationTicks": 240,
		  "midi": 72,
		  "name": "C5",
		  "ticks": 120720,
		  "time": 97.354644,
		  "velocity": 0.7480314960629921
		},
		{
		  "duration": 0.19354799999999273,
		  "durationTicks": 240,
		  "midi": 73,
		  "name": "C#5",
		  "ticks": 120960,
		  "time": 97.548192,
		  "velocity": 0.7480314960629921
		},
		{
		  "duration": 0.19354800000000694,
		  "durationTicks": 240,
		  "midi": 72,
		  "name": "C5",
		  "ticks": 121200,
		  "time": 97.74174,
		  "velocity": 0.7480314960629921
		},
		{
		  "duration": 0.19354799999999273,
		  "durationTicks": 240,
		  "midi": 56,
		  "name": "G#3",
		  "ticks": 121440,
		  "time": 97.935288,
		  "velocity": 0.7480314960629921
		},
		{
		  "duration": 0.19354800000000694,
		  "durationTicks": 240,
		  "midi": 63,
		  "name": "D#4",
		  "ticks": 121680,
		  "time": 98.12883599999999,
		  "velocity": 0.7480314960629921
		},
		{
		  "duration": 0.19354799999999273,
		  "durationTicks": 240,
		  "midi": 68,
		  "name": "G#4",
		  "ticks": 121920,
		  "time": 98.322384,
		  "velocity": 0.7480314960629921
		},
		{
		  "duration": 0.19354800000000694,
		  "durationTicks": 240,
		  "midi": 72,
		  "name": "C5",
		  "ticks": 122160,
		  "time": 98.51593199999999,
		  "velocity": 0.7480314960629921
		},
		{
		  "duration": 0.19354799999999273,
		  "durationTicks": 240,
		  "midi": 73,
		  "name": "C#5",
		  "ticks": 122400,
		  "time": 98.70948,
		  "velocity": 0.7480314960629921
		},
		{
		  "duration": 0.19354800000000694,
		  "durationTicks": 240,
		  "midi": 72,
		  "name": "C5",
		  "ticks": 122640,
		  "time": 98.90302799999999,
		  "velocity": 0.7480314960629921
		},
		{
		  "duration": 0.19354800000000694,
		  "durationTicks": 240,
		  "midi": 70,
		  "name": "A#4",
		  "ticks": 122880,
		  "time": 99.096576,
		  "velocity": 0.7480314960629921
		},
		{
		  "duration": 0.19354799999999273,
		  "durationTicks": 240,
		  "midi": 65,
		  "name": "F4",
		  "ticks": 123120,
		  "time": 99.290124,
		  "velocity": 0.7480314960629921
		},
		{
		  "duration": 0.19354800000000694,
		  "durationTicks": 240,
		  "midi": 58,
		  "name": "A#3",
		  "ticks": 123360,
		  "time": 99.483672,
		  "velocity": 0.7480314960629921
		},
		{
		  "duration": 0.19354799999999273,
		  "durationTicks": 240,
		  "midi": 70,
		  "name": "A#4",
		  "ticks": 123600,
		  "time": 99.67722,
		  "velocity": 0.7480314960629921
		},
		{
		  "duration": 0.19354800000000694,
		  "durationTicks": 240,
		  "midi": 65,
		  "name": "F4",
		  "ticks": 123840,
		  "time": 99.870768,
		  "velocity": 0.7480314960629921
		},
		{
		  "duration": 0.19354799999999273,
		  "durationTicks": 240,
		  "midi": 58,
		  "name": "A#3",
		  "ticks": 124080,
		  "time": 100.064316,
		  "velocity": 0.7480314960629921
		},
		{
		  "duration": 0.19354800000000694,
		  "durationTicks": 240,
		  "midi": 73,
		  "name": "C#5",
		  "ticks": 124320,
		  "time": 100.257864,
		  "velocity": 0.7480314960629921
		},
		{
		  "duration": 0.19354799999999273,
		  "durationTicks": 240,
		  "midi": 72,
		  "name": "C5",
		  "ticks": 124560,
		  "time": 100.451412,
		  "velocity": 0.7480314960629921
		},
		{
		  "duration": 0.19354800000000694,
		  "durationTicks": 240,
		  "midi": 70,
		  "name": "A#4",
		  "ticks": 124800,
		  "time": 100.64496,
		  "velocity": 0.7480314960629921
		},
		{
		  "duration": 0.19354799999999273,
		  "durationTicks": 240,
		  "midi": 65,
		  "name": "F4",
		  "ticks": 125040,
		  "time": 100.838508,
		  "velocity": 0.7480314960629921
		},
		{
		  "duration": 0.19354800000000694,
		  "durationTicks": 240,
		  "midi": 58,
		  "name": "A#3",
		  "ticks": 125280,
		  "time": 101.032056,
		  "velocity": 0.7480314960629921
		},
		{
		  "duration": 0.19354799999999273,
		  "durationTicks": 240,
		  "midi": 70,
		  "name": "A#4",
		  "ticks": 125520,
		  "time": 101.225604,
		  "velocity": 0.7480314960629921
		},
		{
		  "duration": 0.19354800000000694,
		  "durationTicks": 240,
		  "midi": 65,
		  "name": "F4",
		  "ticks": 125760,
		  "time": 101.419152,
		  "velocity": 0.7480314960629921
		},
		{
		  "duration": 0.19354799999999273,
		  "durationTicks": 240,
		  "midi": 58,
		  "name": "A#3",
		  "ticks": 126000,
		  "time": 101.6127,
		  "velocity": 0.7480314960629921
		},
		{
		  "duration": 0.19354800000000694,
		  "durationTicks": 240,
		  "midi": 65,
		  "name": "F4",
		  "ticks": 126240,
		  "time": 101.806248,
		  "velocity": 0.7480314960629921
		},
		{
		  "duration": 0.19354799999999273,
		  "durationTicks": 240,
		  "midi": 70,
		  "name": "A#4",
		  "ticks": 126480,
		  "time": 101.999796,
		  "velocity": 0.7480314960629921
		},
		{
		  "duration": 0.19354800000000694,
		  "durationTicks": 240,
		  "midi": 73,
		  "name": "C#5",
		  "ticks": 126720,
		  "time": 102.193344,
		  "velocity": 0.7480314960629921
		},
		{
		  "duration": 0.19354799999999273,
		  "durationTicks": 240,
		  "midi": 72,
		  "name": "C5",
		  "ticks": 126960,
		  "time": 102.386892,
		  "velocity": 0.7480314960629921
		},
		{
		  "duration": 0.19354800000000694,
		  "durationTicks": 240,
		  "midi": 68,
		  "name": "G#4",
		  "ticks": 127200,
		  "time": 102.58044,
		  "velocity": 0.7480314960629921
		},
		{
		  "duration": 0.19354799999999273,
		  "durationTicks": 240,
		  "midi": 61,
		  "name": "C#4",
		  "ticks": 127440,
		  "time": 102.773988,
		  "velocity": 0.7480314960629921
		},
		{
		  "duration": 0.19354800000000694,
		  "durationTicks": 240,
		  "midi": 60,
		  "name": "C4",
		  "ticks": 127680,
		  "time": 102.967536,
		  "velocity": 0.7480314960629921
		},
		{
		  "duration": 0.19354799999999273,
		  "durationTicks": 240,
		  "midi": 56,
		  "name": "G#3",
		  "ticks": 127920,
		  "time": 103.161084,
		  "velocity": 0.7480314960629921
		},
		{
		  "duration": 0.19354800000000694,
		  "durationTicks": 240,
		  "midi": 68,
		  "name": "G#4",
		  "ticks": 128160,
		  "time": 103.354632,
		  "velocity": 0.7480314960629921
		},
		{
		  "duration": 0.19354799999999273,
		  "durationTicks": 240,
		  "midi": 72,
		  "name": "C5",
		  "ticks": 128400,
		  "time": 103.54818,
		  "velocity": 0.7480314960629921
		},
		{
		  "duration": 0.19354800000000694,
		  "durationTicks": 240,
		  "midi": 73,
		  "name": "C#5",
		  "ticks": 128640,
		  "time": 103.741728,
		  "velocity": 0.7480314960629921
		},
		{
		  "duration": 0.19354799999999273,
		  "durationTicks": 240,
		  "midi": 72,
		  "name": "C5",
		  "ticks": 128880,
		  "time": 103.935276,
		  "velocity": 0.7480314960629921
		},
		{
		  "duration": 0.19354800000000694,
		  "durationTicks": 240,
		  "midi": 56,
		  "name": "G#3",
		  "ticks": 129120,
		  "time": 104.128824,
		  "velocity": 0.7480314960629921
		},
		{
		  "duration": 0.19354799999999273,
		  "durationTicks": 240,
		  "midi": 63,
		  "name": "D#4",
		  "ticks": 129360,
		  "time": 104.322372,
		  "velocity": 0.7480314960629921
		},
		{
		  "duration": 0.19354800000000694,
		  "durationTicks": 240,
		  "midi": 68,
		  "name": "G#4",
		  "ticks": 129600,
		  "time": 104.51592,
		  "velocity": 0.7480314960629921
		},
		{
		  "duration": 0.19354799999999273,
		  "durationTicks": 240,
		  "midi": 72,
		  "name": "C5",
		  "ticks": 129840,
		  "time": 104.709468,
		  "velocity": 0.7480314960629921
		},
		{
		  "duration": 0.19354800000000694,
		  "durationTicks": 240,
		  "midi": 73,
		  "name": "C#5",
		  "ticks": 130080,
		  "time": 104.903016,
		  "velocity": 0.7480314960629921
		},
		{
		  "duration": 0.19354799999999273,
		  "durationTicks": 240,
		  "midi": 72,
		  "name": "C5",
		  "ticks": 130320,
		  "time": 105.096564,
		  "velocity": 0.7480314960629921
		}
	  ]
	},
	{
	  "channel": 0,
	  "controlChanges": {
		"6": [
		  {
			"number": 6,
			"ticks": 0,
			"time": 0,
			"value": 0.09448818897637795
		  },
		  {
			"number": 6,
			"ticks": 0,
			"time": 0,
			"value": 0.5039370078740157
		  },
		  {
			"number": 6,
			"ticks": 0,
			"time": 0,
			"value": 0.5039370078740157
		  }
		],
		"38": [
		  {
			"number": 38,
			"ticks": 0,
			"time": 0,
			"value": 0
		  }
		],
		"100": [
		  {
			"number": 100,
			"ticks": 0,
			"time": 0,
			"value": 0
		  },
		  {
			"number": 100,
			"ticks": 0,
			"time": 0,
			"value": 0.007874015748031496
		  },
		  {
			"number": 100,
			"ticks": 0,
			"time": 0,
			"value": 1
		  },
		  {
			"number": 100,
			"ticks": 0,
			"time": 0,
			"value": 0.015748031496062992
		  },
		  {
			"number": 100,
			"ticks": 0,
			"time": 0,
			"value": 1
		  }
		],
		"101": [
		  {
			"number": 101,
			"ticks": 0,
			"time": 0,
			"value": 0
		  },
		  {
			"number": 101,
			"ticks": 0,
			"time": 0,
			"value": 0
		  },
		  {
			"number": 101,
			"ticks": 0,
			"time": 0,
			"value": 1
		  },
		  {
			"number": 101,
			"ticks": 0,
			"time": 0,
			"value": 0
		  },
		  {
			"number": 101,
			"ticks": 0,
			"time": 0,
			"value": 1
		  }
		]
	  },
	  "pitchBends": [
		{
		  "ticks": 0,
		  "time": 0,
		  "value": 0
		}
	  ],
	  "instrument": {
		"family": "piano",
		"number": 0,
		"name": "acoustic grand piano"
	  },
	  "name": "Lead Guitar 2",
	  "notes": [],
	  "endOfTrackTicks": 117120
	},
	{
	  "channel": 0,
	  "controlChanges": {
		"6": [
		  {
			"number": 6,
			"ticks": 0,
			"time": 0,
			"value": 0.09448818897637795
		  },
		  {
			"number": 6,
			"ticks": 0,
			"time": 0,
			"value": 0.5039370078740157
		  },
		  {
			"number": 6,
			"ticks": 0,
			"time": 0,
			"value": 0.5039370078740157
		  }
		],
		"38": [
		  {
			"number": 38,
			"ticks": 0,
			"time": 0,
			"value": 0
		  }
		],
		"100": [
		  {
			"number": 100,
			"ticks": 0,
			"time": 0,
			"value": 0
		  },
		  {
			"number": 100,
			"ticks": 0,
			"time": 0,
			"value": 0.007874015748031496
		  },
		  {
			"number": 100,
			"ticks": 0,
			"time": 0,
			"value": 1
		  },
		  {
			"number": 100,
			"ticks": 0,
			"time": 0,
			"value": 0.015748031496062992
		  },
		  {
			"number": 100,
			"ticks": 0,
			"time": 0,
			"value": 1
		  }
		],
		"101": [
		  {
			"number": 101,
			"ticks": 0,
			"time": 0,
			"value": 0
		  },
		  {
			"number": 101,
			"ticks": 0,
			"time": 0,
			"value": 0
		  },
		  {
			"number": 101,
			"ticks": 0,
			"time": 0,
			"value": 1
		  },
		  {
			"number": 101,
			"ticks": 0,
			"time": 0,
			"value": 0
		  },
		  {
			"number": 101,
			"ticks": 0,
			"time": 0,
			"value": 1
		  }
		]
	  },
	  "pitchBends": [
		{
		  "ticks": 0,
		  "time": 0,
		  "value": 0
		}
	  ],
	  "instrument": {
		"family": "piano",
		"number": 0,
		"name": "acoustic grand piano"
	  },
	  "name": "",
	  "notes": []
	},
	{
	  "channel": 14,
	  "controlChanges": {
		"0": [
		  {
			"number": 0,
			"ticks": 0,
			"time": 0,
			"value": 0
		  }
		],
		"7": [
		  {
			"number": 7,
			"ticks": 0,
			"time": 0,
			"value": 0.7559055118110236
		  }
		],
		"10": [
		  {
			"number": 10,
			"ticks": 0,
			"time": 0,
			"value": 0.5039370078740157
		  }
		],
		"91": [
		  {
			"number": 91,
			"ticks": 0,
			"time": 0,
			"value": 0
		  }
		],
		"92": [
		  {
			"number": 92,
			"ticks": 0,
			"time": 0,
			"value": 0
		  }
		],
		"93": [
		  {
			"number": 93,
			"ticks": 0,
			"time": 0,
			"value": 0
		  }
		],
		"95": [
		  {
			"number": 95,
			"ticks": 0,
			"time": 0,
			"value": 0
		  }
		]
	  },
	  "pitchBends": [
		{
		  "ticks": 99096,
		  "time": 79.91596919999999,
		  "value": 0.078125
		},
		{
		  "ticks": 99120,
		  "time": 79.935324,
		  "value": 0.171875
		},
		{
		  "ticks": 99336,
		  "time": 80.1095172,
		  "value": 0.09375
		},
		{
		  "ticks": 99360,
		  "time": 80.128872,
		  "value": 0
		},
		{
		  "ticks": 99840,
		  "time": 80.515968,
		  "value": 0
		},
		{
		  "ticks": 99847,
		  "time": 80.52161315,
		  "value": 0
		},
		{
		  "ticks": 99854,
		  "time": 80.5272583,
		  "value": 0
		},
		{
		  "ticks": 99862,
		  "time": 80.53370989999999,
		  "value": 0
		},
		{
		  "ticks": 99869,
		  "time": 80.53935505,
		  "value": 0
		},
		{
		  "ticks": 99876,
		  "time": 80.54500019999999,
		  "value": 0
		},
		{
		  "ticks": 99884,
		  "time": 80.5514518,
		  "value": 0
		},
		{
		  "ticks": 99891,
		  "time": 80.55709694999999,
		  "value": 0
		},
		{
		  "ticks": 99898,
		  "time": 80.5627421,
		  "value": 0
		},
		{
		  "ticks": 99905,
		  "time": 80.56838725,
		  "value": 0
		},
		{
		  "ticks": 99912,
		  "time": 80.57403240000001,
		  "value": 0
		},
		{
		  "ticks": 99920,
		  "time": 80.580484,
		  "value": 0
		},
		{
		  "ticks": 99927,
		  "time": 80.58612915,
		  "value": 0
		},
		{
		  "ticks": 99934,
		  "time": 80.5917743,
		  "value": 0
		},
		{
		  "ticks": 99942,
		  "time": 80.5982259,
		  "value": 0
		},
		{
		  "ticks": 99949,
		  "time": 80.60387105,
		  "value": 0
		},
		{
		  "ticks": 99956,
		  "time": 80.6095162,
		  "value": 0
		},
		{
		  "ticks": 99963,
		  "time": 80.61516135,
		  "value": 0
		},
		{
		  "ticks": 99970,
		  "time": 80.6208065,
		  "value": 0
		},
		{
		  "ticks": 99978,
		  "time": 80.62725809999999,
		  "value": 0
		},
		{
		  "ticks": 99985,
		  "time": 80.63290325,
		  "value": 0
		},
		{
		  "ticks": 99992,
		  "time": 80.63854839999999,
		  "value": 0
		},
		{
		  "ticks": 100000,
		  "time": 80.645,
		  "value": 0
		},
		{
		  "ticks": 100007,
		  "time": 80.65064515,
		  "value": 0
		},
		{
		  "ticks": 100014,
		  "time": 80.65629030000001,
		  "value": 0
		},
		{
		  "ticks": 100021,
		  "time": 80.66193545,
		  "value": 0
		},
		{
		  "ticks": 100028,
		  "time": 80.66758060000001,
		  "value": 0
		},
		{
		  "ticks": 100036,
		  "time": 80.6740322,
		  "value": 0
		},
		{
		  "ticks": 100043,
		  "time": 80.67967735,
		  "value": 0
		},
		{
		  "ticks": 100050,
		  "time": 80.6853225,
		  "value": 0
		},
		{
		  "ticks": 100058,
		  "time": 80.6917741,
		  "value": 0
		},
		{
		  "ticks": 100065,
		  "time": 80.69741925,
		  "value": 0
		},
		{
		  "ticks": 100072,
		  "time": 80.70306439999999,
		  "value": 0
		},
		{
		  "ticks": 100079,
		  "time": 80.70870955,
		  "value": 0
		},
		{
		  "ticks": 100086,
		  "time": 80.7143547,
		  "value": 0
		},
		{
		  "ticks": 100094,
		  "time": 80.7208063,
		  "value": 0.015625
		},
		{
		  "ticks": 100101,
		  "time": 80.72645145,
		  "value": 0.015625
		},
		{
		  "ticks": 100108,
		  "time": 80.7320966,
		  "value": 0.015625
		},
		{
		  "ticks": 100116,
		  "time": 80.7385482,
		  "value": 0.015625
		},
		{
		  "ticks": 100123,
		  "time": 80.74419335,
		  "value": 0.015625
		},
		{
		  "ticks": 100130,
		  "time": 80.7498385,
		  "value": 0.015625
		},
		{
		  "ticks": 100137,
		  "time": 80.75548365,
		  "value": 0.015625
		},
		{
		  "ticks": 100144,
		  "time": 80.7611288,
		  "value": 0.015625
		},
		{
		  "ticks": 100152,
		  "time": 80.7675804,
		  "value": 0.015625
		},
		{
		  "ticks": 100159,
		  "time": 80.77322554999999,
		  "value": 0.015625
		},
		{
		  "ticks": 100166,
		  "time": 80.7788707,
		  "value": 0.015625
		},
		{
		  "ticks": 100174,
		  "time": 80.78532229999999,
		  "value": 0
		},
		{
		  "ticks": 100181,
		  "time": 80.79096745,
		  "value": 0
		},
		{
		  "ticks": 100188,
		  "time": 80.7966126,
		  "value": 0
		},
		{
		  "ticks": 100195,
		  "time": 80.80225775000001,
		  "value": 0
		},
		{
		  "ticks": 100202,
		  "time": 80.8079029,
		  "value": 0
		},
		{
		  "ticks": 100210,
		  "time": 80.81435450000001,
		  "value": -0.015625
		},
		{
		  "ticks": 100217,
		  "time": 80.81999965,
		  "value": -0.015625
		},
		{
		  "ticks": 100224,
		  "time": 80.8256448,
		  "value": -0.015625
		},
		{
		  "ticks": 100232,
		  "time": 80.8320964,
		  "value": -0.015625
		},
		{
		  "ticks": 100239,
		  "time": 80.83774155,
		  "value": -0.015625
		},
		{
		  "ticks": 100246,
		  "time": 80.8433867,
		  "value": -0.015625
		},
		{
		  "ticks": 100253,
		  "time": 80.84903185,
		  "value": -0.015625
		},
		{
		  "ticks": 100260,
		  "time": 80.854677,
		  "value": -0.015625
		},
		{
		  "ticks": 100268,
		  "time": 80.8611286,
		  "value": -0.015625
		},
		{
		  "ticks": 100275,
		  "time": 80.86677375,
		  "value": -0.015625
		},
		{
		  "ticks": 100282,
		  "time": 80.8724189,
		  "value": -0.015625
		},
		{
		  "ticks": 100290,
		  "time": 80.8788705,
		  "value": 0
		},
		{
		  "ticks": 100297,
		  "time": 80.88451565,
		  "value": 0
		},
		{
		  "ticks": 100304,
		  "time": 80.8901608,
		  "value": 0
		},
		{
		  "ticks": 100311,
		  "time": 80.89580595,
		  "value": 0
		},
		{
		  "ticks": 100318,
		  "time": 80.9014511,
		  "value": 0.015625
		},
		{
		  "ticks": 100326,
		  "time": 80.9079027,
		  "value": 0.015625
		},
		{
		  "ticks": 100333,
		  "time": 80.91354785,
		  "value": 0.015625
		},
		{
		  "ticks": 100340,
		  "time": 80.91919299999999,
		  "value": 0.015625
		},
		{
		  "ticks": 100348,
		  "time": 80.9256446,
		  "value": 0.015625
		},
		{
		  "ticks": 100355,
		  "time": 80.93128974999999,
		  "value": 0.015625
		},
		{
		  "ticks": 100362,
		  "time": 80.9369349,
		  "value": 0.015625
		},
		{
		  "ticks": 100369,
		  "time": 80.94258004999999,
		  "value": 0.015625
		},
		{
		  "ticks": 100376,
		  "time": 80.9482252,
		  "value": 0.015625
		},
		{
		  "ticks": 100384,
		  "time": 80.9546768,
		  "value": 0.015625
		},
		{
		  "ticks": 100391,
		  "time": 80.96032195000001,
		  "value": 0.015625
		},
		{
		  "ticks": 100398,
		  "time": 80.9659671,
		  "value": 0.015625
		},
		{
		  "ticks": 100406,
		  "time": 80.9724187,
		  "value": 0.015625
		},
		{
		  "ticks": 100413,
		  "time": 80.97806385,
		  "value": 0
		},
		{
		  "ticks": 100420,
		  "time": 80.983709,
		  "value": 0
		},
		{
		  "ticks": 100427,
		  "time": 80.98935415,
		  "value": 0
		},
		{
		  "ticks": 100434,
		  "time": 80.9949993,
		  "value": -0.015625
		},
		{
		  "ticks": 100442,
		  "time": 81.0014509,
		  "value": -0.015625
		},
		{
		  "ticks": 100449,
		  "time": 81.00709605,
		  "value": -0.015625
		},
		{
		  "ticks": 100456,
		  "time": 81.0127412,
		  "value": -0.015625
		},
		{
		  "ticks": 100464,
		  "time": 81.0191928,
		  "value": -0.015625
		},
		{
		  "ticks": 100471,
		  "time": 81.02483794999999,
		  "value": -0.015625
		},
		{
		  "ticks": 100478,
		  "time": 81.0304831,
		  "value": -0.015625
		},
		{
		  "ticks": 100485,
		  "time": 81.03612825,
		  "value": -0.015625
		},
		{
		  "ticks": 100492,
		  "time": 81.0417734,
		  "value": -0.015625
		},
		{
		  "ticks": 100500,
		  "time": 81.048225,
		  "value": -0.015625
		},
		{
		  "ticks": 100507,
		  "time": 81.05387015,
		  "value": -0.015625
		},
		{
		  "ticks": 100514,
		  "time": 81.0595153,
		  "value": -0.015625
		},
		{
		  "ticks": 100522,
		  "time": 81.06596689999999,
		  "value": -0.015625
		},
		{
		  "ticks": 100529,
		  "time": 81.07161205,
		  "value": 0
		},
		{
		  "ticks": 100536,
		  "time": 81.07725719999999,
		  "value": 0
		},
		{
		  "ticks": 100543,
		  "time": 81.08290235,
		  "value": 0
		},
		{
		  "ticks": 100550,
		  "time": 81.08854749999999,
		  "value": 0.015625
		},
		{
		  "ticks": 100558,
		  "time": 81.0949991,
		  "value": 0.015625
		},
		{
		  "ticks": 100565,
		  "time": 81.10064425,
		  "value": 0.015625
		},
		{
		  "ticks": 100572,
		  "time": 81.1062894,
		  "value": 0.03125
		},
		{
		  "ticks": 100580,
		  "time": 81.112741,
		  "value": 0.03125
		},
		{
		  "ticks": 100587,
		  "time": 81.11838615,
		  "value": 0.03125
		},
		{
		  "ticks": 100594,
		  "time": 81.1240313,
		  "value": 0.03125
		},
		{
		  "ticks": 100601,
		  "time": 81.12967645,
		  "value": 0.03125
		},
		{
		  "ticks": 100608,
		  "time": 81.1353216,
		  "value": 0.03125
		},
		{
		  "ticks": 100616,
		  "time": 81.1417732,
		  "value": 0.03125
		},
		{
		  "ticks": 100623,
		  "time": 81.14741835,
		  "value": 0.015625
		},
		{
		  "ticks": 100630,
		  "time": 81.1530635,
		  "value": 0.015625
		},
		{
		  "ticks": 100638,
		  "time": 81.1595151,
		  "value": 0.015625
		},
		{
		  "ticks": 100645,
		  "time": 81.16516025,
		  "value": 0
		},
		{
		  "ticks": 100652,
		  "time": 81.17080539999999,
		  "value": 0
		},
		{
		  "ticks": 100659,
		  "time": 81.17645055,
		  "value": 0
		},
		{
		  "ticks": 100666,
		  "time": 81.1820957,
		  "value": -0.015625
		},
		{
		  "ticks": 100674,
		  "time": 81.18854730000001,
		  "value": -0.015625
		},
		{
		  "ticks": 100681,
		  "time": 81.19419245,
		  "value": -0.015625
		},
		{
		  "ticks": 100688,
		  "time": 81.19983760000001,
		  "value": -0.03125
		},
		{
		  "ticks": 100696,
		  "time": 81.2062892,
		  "value": -0.03125
		},
		{
		  "ticks": 100703,
		  "time": 81.21193435,
		  "value": -0.03125
		},
		{
		  "ticks": 100710,
		  "time": 81.2175795,
		  "value": -0.03125
		},
		{
		  "ticks": 100717,
		  "time": 81.22322464999999,
		  "value": -0.03125
		},
		{
		  "ticks": 100724,
		  "time": 81.2288698,
		  "value": -0.03125
		},
		{
		  "ticks": 100732,
		  "time": 81.23532139999999,
		  "value": -0.03125
		},
		{
		  "ticks": 100739,
		  "time": 81.24096655,
		  "value": -0.015625
		},
		{
		  "ticks": 100746,
		  "time": 81.24661169999999,
		  "value": -0.015625
		},
		{
		  "ticks": 100754,
		  "time": 81.2530633,
		  "value": -0.015625
		},
		{
		  "ticks": 100761,
		  "time": 81.25870845,
		  "value": 0
		},
		{
		  "ticks": 100768,
		  "time": 81.2643536,
		  "value": 0
		},
		{
		  "ticks": 100775,
		  "time": 81.26999875,
		  "value": 0
		},
		{
		  "ticks": 100782,
		  "time": 81.2756439,
		  "value": 0.015625
		},
		{
		  "ticks": 100790,
		  "time": 81.2820955,
		  "value": 0.015625
		},
		{
		  "ticks": 100797,
		  "time": 81.28774065,
		  "value": 0.015625
		},
		{
		  "ticks": 100804,
		  "time": 81.2933858,
		  "value": 0.015625
		},
		{
		  "ticks": 100812,
		  "time": 81.2998374,
		  "value": 0.015625
		},
		{
		  "ticks": 100819,
		  "time": 81.30548255,
		  "value": 0.03125
		},
		{
		  "ticks": 100826,
		  "time": 81.3111277,
		  "value": 0.03125
		},
		{
		  "ticks": 100833,
		  "time": 81.31677284999999,
		  "value": 0.03125
		},
		{
		  "ticks": 100840,
		  "time": 81.322418,
		  "value": 0.015625
		},
		{
		  "ticks": 100848,
		  "time": 81.32886959999999,
		  "value": 0.015625
		},
		{
		  "ticks": 100855,
		  "time": 81.33451475,
		  "value": 0.015625
		},
		{
		  "ticks": 100862,
		  "time": 81.3401599,
		  "value": 0.015625
		},
		{
		  "ticks": 100870,
		  "time": 81.34661150000001,
		  "value": 0.015625
		},
		{
		  "ticks": 100877,
		  "time": 81.35225665,
		  "value": 0
		},
		{
		  "ticks": 100884,
		  "time": 81.35790180000001,
		  "value": 0
		},
		{
		  "ticks": 100891,
		  "time": 81.36354695,
		  "value": 0
		},
		{
		  "ticks": 100898,
		  "time": 81.3691921,
		  "value": -0.015625
		},
		{
		  "ticks": 100906,
		  "time": 81.3756437,
		  "value": -0.015625
		},
		{
		  "ticks": 100913,
		  "time": 81.38128885,
		  "value": -0.015625
		},
		{
		  "ticks": 100920,
		  "time": 81.386934,
		  "value": -0.015625
		},
		{
		  "ticks": 100928,
		  "time": 81.3933856,
		  "value": -0.015625
		},
		{
		  "ticks": 100935,
		  "time": 81.39903075,
		  "value": -0.03125
		},
		{
		  "ticks": 100942,
		  "time": 81.4046759,
		  "value": -0.03125
		},
		{
		  "ticks": 100949,
		  "time": 81.41032105,
		  "value": -0.03125
		},
		{
		  "ticks": 100956,
		  "time": 81.4159662,
		  "value": -0.015625
		},
		{
		  "ticks": 100964,
		  "time": 81.4224178,
		  "value": -0.015625
		},
		{
		  "ticks": 100971,
		  "time": 81.42806295,
		  "value": -0.015625
		},
		{
		  "ticks": 100978,
		  "time": 81.4337081,
		  "value": -0.015625
		},
		{
		  "ticks": 100986,
		  "time": 81.4401597,
		  "value": -0.015625
		},
		{
		  "ticks": 100993,
		  "time": 81.44580485,
		  "value": 0
		},
		{
		  "ticks": 101000,
		  "time": 81.45145,
		  "value": 0
		},
		{
		  "ticks": 101007,
		  "time": 81.45709515,
		  "value": 0
		},
		{
		  "ticks": 101014,
		  "time": 81.4627403,
		  "value": 0.015625
		},
		{
		  "ticks": 101022,
		  "time": 81.4691919,
		  "value": 0.015625
		},
		{
		  "ticks": 101029,
		  "time": 81.47483704999999,
		  "value": 0.015625
		},
		{
		  "ticks": 101036,
		  "time": 81.4804822,
		  "value": 0.015625
		},
		{
		  "ticks": 101044,
		  "time": 81.4869338,
		  "value": 0.03125
		},
		{
		  "ticks": 101051,
		  "time": 81.49257895,
		  "value": 0.03125
		},
		{
		  "ticks": 101058,
		  "time": 81.4982241,
		  "value": 0.03125
		},
		{
		  "ticks": 101065,
		  "time": 81.50386925000001,
		  "value": 0.03125
		},
		{
		  "ticks": 101072,
		  "time": 81.5095144,
		  "value": 0.03125
		},
		{
		  "ticks": 101080,
		  "time": 81.515966,
		  "value": 0.015625
		},
		{
		  "ticks": 101087,
		  "time": 81.52161115,
		  "value": 0.015625
		},
		{
		  "ticks": 101094,
		  "time": 81.5272563,
		  "value": 0.015625
		},
		{
		  "ticks": 101102,
		  "time": 81.5337079,
		  "value": 0.015625
		},
		{
		  "ticks": 101109,
		  "time": 81.53935305,
		  "value": 0
		},
		{
		  "ticks": 101116,
		  "time": 81.5449982,
		  "value": 0
		},
		{
		  "ticks": 101123,
		  "time": 81.55064335,
		  "value": 0
		},
		{
		  "ticks": 101130,
		  "time": 81.5562885,
		  "value": -0.015625
		},
		{
		  "ticks": 101138,
		  "time": 81.5627401,
		  "value": -0.015625
		},
		{
		  "ticks": 101145,
		  "time": 81.56838525,
		  "value": -0.015625
		},
		{
		  "ticks": 101152,
		  "time": 81.5740304,
		  "value": -0.015625
		},
		{
		  "ticks": 101160,
		  "time": 81.580482,
		  "value": -0.03125
		},
		{
		  "ticks": 101167,
		  "time": 81.58612715,
		  "value": -0.03125
		},
		{
		  "ticks": 101174,
		  "time": 81.5917723,
		  "value": -0.03125
		},
		{
		  "ticks": 101181,
		  "time": 81.59741745,
		  "value": -0.03125
		},
		{
		  "ticks": 101188,
		  "time": 81.6030626,
		  "value": -0.03125
		},
		{
		  "ticks": 101196,
		  "time": 81.60951419999999,
		  "value": -0.015625
		},
		{
		  "ticks": 101203,
		  "time": 81.61515935,
		  "value": -0.015625
		},
		{
		  "ticks": 101210,
		  "time": 81.62080449999999,
		  "value": -0.015625
		},
		{
		  "ticks": 101218,
		  "time": 81.6272561,
		  "value": -0.015625
		},
		{
		  "ticks": 101225,
		  "time": 81.63290124999999,
		  "value": 0
		},
		{
		  "ticks": 101232,
		  "time": 81.6385464,
		  "value": 0
		},
		{
		  "ticks": 101239,
		  "time": 81.64419155,
		  "value": 0
		},
		{
		  "ticks": 101246,
		  "time": 81.64983670000001,
		  "value": 0.015625
		},
		{
		  "ticks": 101254,
		  "time": 81.6562883,
		  "value": 0.015625
		},
		{
		  "ticks": 101261,
		  "time": 81.66193345,
		  "value": 0.03125
		},
		{
		  "ticks": 101268,
		  "time": 81.6675786,
		  "value": 0.03125
		},
		{
		  "ticks": 101276,
		  "time": 81.6740302,
		  "value": 0.03125
		},
		{
		  "ticks": 101283,
		  "time": 81.67967535,
		  "value": 0.03125
		},
		{
		  "ticks": 101290,
		  "time": 81.6853205,
		  "value": 0.03125
		},
		{
		  "ticks": 101297,
		  "time": 81.69096565,
		  "value": 0.03125
		},
		{
		  "ticks": 101304,
		  "time": 81.6966108,
		  "value": 0.03125
		},
		{
		  "ticks": 101312,
		  "time": 81.7030624,
		  "value": 0.03125
		},
		{
		  "ticks": 101319,
		  "time": 81.70870755,
		  "value": 0.03125
		},
		{
		  "ticks": 101326,
		  "time": 81.71435269999999,
		  "value": 0.015625
		},
		{
		  "ticks": 101334,
		  "time": 81.7208043,
		  "value": 0.015625
		},
		{
		  "ticks": 101341,
		  "time": 81.72644945,
		  "value": 0
		},
		{
		  "ticks": 101348,
		  "time": 81.73209460000001,
		  "value": 0
		},
		{
		  "ticks": 101355,
		  "time": 81.73773975,
		  "value": 0
		},
		{
		  "ticks": 101362,
		  "time": 81.7433849,
		  "value": -0.015625
		},
		{
		  "ticks": 101370,
		  "time": 81.7498365,
		  "value": -0.015625
		},
		{
		  "ticks": 101377,
		  "time": 81.75548165,
		  "value": -0.03125
		},
		{
		  "ticks": 101384,
		  "time": 81.7611268,
		  "value": -0.03125
		},
		{
		  "ticks": 101392,
		  "time": 81.76757839999999,
		  "value": -0.03125
		},
		{
		  "ticks": 101399,
		  "time": 81.77322355,
		  "value": -0.03125
		},
		{
		  "ticks": 101406,
		  "time": 81.77886869999999,
		  "value": -0.03125
		},
		{
		  "ticks": 101413,
		  "time": 81.78451385,
		  "value": -0.03125
		},
		{
		  "ticks": 101420,
		  "time": 81.79015899999999,
		  "value": -0.03125
		},
		{
		  "ticks": 101428,
		  "time": 81.7966106,
		  "value": -0.03125
		},
		{
		  "ticks": 101435,
		  "time": 81.80225575,
		  "value": -0.03125
		},
		{
		  "ticks": 101442,
		  "time": 81.8079009,
		  "value": -0.015625
		},
		{
		  "ticks": 101450,
		  "time": 81.8143525,
		  "value": -0.015625
		},
		{
		  "ticks": 101457,
		  "time": 81.81999765,
		  "value": 0
		},
		{
		  "ticks": 101464,
		  "time": 81.8256428,
		  "value": 0
		},
		{
		  "ticks": 101471,
		  "time": 81.83128795,
		  "value": 0
		},
		{
		  "ticks": 101478,
		  "time": 81.8369331,
		  "value": 0.015625
		},
		{
		  "ticks": 101486,
		  "time": 81.8433847,
		  "value": 0.015625
		},
		{
		  "ticks": 101493,
		  "time": 81.84902985,
		  "value": 0.015625
		},
		{
		  "ticks": 101500,
		  "time": 81.854675,
		  "value": 0.015625
		},
		{
		  "ticks": 101508,
		  "time": 81.86112659999999,
		  "value": 0.015625
		},
		{
		  "ticks": 101515,
		  "time": 81.86677175,
		  "value": 0.015625
		},
		{
		  "ticks": 101522,
		  "time": 81.8724169,
		  "value": 0.015625
		},
		{
		  "ticks": 101529,
		  "time": 81.87806205,
		  "value": 0.015625
		},
		{
		  "ticks": 101536,
		  "time": 81.8837072,
		  "value": 0.015625
		},
		{
		  "ticks": 101544,
		  "time": 81.89015880000001,
		  "value": 0.015625
		},
		{
		  "ticks": 101551,
		  "time": 81.89580395,
		  "value": 0.015625
		},
		{
		  "ticks": 101558,
		  "time": 81.90144910000001,
		  "value": 0.015625
		},
		{
		  "ticks": 101566,
		  "time": 81.9079007,
		  "value": 0.015625
		},
		{
		  "ticks": 101573,
		  "time": 81.91354585,
		  "value": 0
		},
		{
		  "ticks": 101580,
		  "time": 81.919191,
		  "value": 0
		},
		{
		  "ticks": 101587,
		  "time": 81.92483614999999,
		  "value": 0
		},
		{
		  "ticks": 101594,
		  "time": 81.9304813,
		  "value": -0.015625
		},
		{
		  "ticks": 101602,
		  "time": 81.93693289999999,
		  "value": -0.015625
		},
		{
		  "ticks": 101609,
		  "time": 81.94257805,
		  "value": -0.015625
		},
		{
		  "ticks": 101616,
		  "time": 81.9482232,
		  "value": -0.015625
		},
		{
		  "ticks": 101624,
		  "time": 81.9546748,
		  "value": -0.015625
		},
		{
		  "ticks": 101631,
		  "time": 81.96031995,
		  "value": -0.015625
		},
		{
		  "ticks": 101638,
		  "time": 81.9659651,
		  "value": -0.015625
		},
		{
		  "ticks": 101645,
		  "time": 81.97161025,
		  "value": -0.015625
		},
		{
		  "ticks": 101652,
		  "time": 81.9772554,
		  "value": -0.015625
		},
		{
		  "ticks": 101660,
		  "time": 81.983707,
		  "value": -0.015625
		},
		{
		  "ticks": 101667,
		  "time": 81.98935215,
		  "value": -0.015625
		},
		{
		  "ticks": 101674,
		  "time": 81.9949973,
		  "value": -0.015625
		},
		{
		  "ticks": 101682,
		  "time": 82.0014489,
		  "value": -0.015625
		},
		{
		  "ticks": 101689,
		  "time": 82.00709404999999,
		  "value": 0
		},
		{
		  "ticks": 101696,
		  "time": 82.0127392,
		  "value": 0
		},
		{
		  "ticks": 101703,
		  "time": 82.01838434999999,
		  "value": 0
		},
		{
		  "ticks": 101710,
		  "time": 82.0240295,
		  "value": 0
		},
		{
		  "ticks": 101718,
		  "time": 82.0304811,
		  "value": 0
		},
		{
		  "ticks": 101725,
		  "time": 82.03612625000001,
		  "value": 0
		},
		{
		  "ticks": 101732,
		  "time": 82.0417714,
		  "value": 0
		},
		{
		  "ticks": 101740,
		  "time": 82.04822300000001,
		  "value": 0
		},
		{
		  "ticks": 101747,
		  "time": 82.05386815,
		  "value": 0
		},
		{
		  "ticks": 101754,
		  "time": 82.0595133,
		  "value": 0
		},
		{
		  "ticks": 101760,
		  "time": 82.064352,
		  "value": 0
		},
		{
		  "ticks": 101760,
		  "time": 82.064352,
		  "value": 0
		},
		{
		  "ticks": 115200,
		  "time": 92.90304,
		  "value": 0
		},
		{
		  "ticks": 115207,
		  "time": 92.90868515,
		  "value": 0
		},
		{
		  "ticks": 115214,
		  "time": 92.9143303,
		  "value": 0
		},
		{
		  "ticks": 115222,
		  "time": 92.9207819,
		  "value": 0
		},
		{
		  "ticks": 115229,
		  "time": 92.92642705,
		  "value": 0
		},
		{
		  "ticks": 115236,
		  "time": 92.9320722,
		  "value": 0
		},
		{
		  "ticks": 115244,
		  "time": 92.9385238,
		  "value": 0
		},
		{
		  "ticks": 115251,
		  "time": 92.94416894999999,
		  "value": 0
		},
		{
		  "ticks": 115258,
		  "time": 92.9498141,
		  "value": 0
		},
		{
		  "ticks": 115265,
		  "time": 92.95545924999999,
		  "value": 0
		},
		{
		  "ticks": 115272,
		  "time": 92.9611044,
		  "value": 0
		},
		{
		  "ticks": 115280,
		  "time": 92.967556,
		  "value": 0
		},
		{
		  "ticks": 115287,
		  "time": 92.97320115,
		  "value": 0
		},
		{
		  "ticks": 115294,
		  "time": 92.9788463,
		  "value": 0
		},
		{
		  "ticks": 115302,
		  "time": 92.9852979,
		  "value": 0
		},
		{
		  "ticks": 115309,
		  "time": 92.99094305,
		  "value": 0
		},
		{
		  "ticks": 115316,
		  "time": 92.9965882,
		  "value": 0
		},
		{
		  "ticks": 115323,
		  "time": 93.00223335,
		  "value": 0
		},
		{
		  "ticks": 115330,
		  "time": 93.0078785,
		  "value": 0
		},
		{
		  "ticks": 115338,
		  "time": 93.0143301,
		  "value": 0
		},
		{
		  "ticks": 115345,
		  "time": 93.01997525,
		  "value": 0
		},
		{
		  "ticks": 115352,
		  "time": 93.0256204,
		  "value": 0
		},
		{
		  "ticks": 115360,
		  "time": 93.032072,
		  "value": 0
		},
		{
		  "ticks": 115367,
		  "time": 93.03771714999999,
		  "value": 0
		},
		{
		  "ticks": 115374,
		  "time": 93.0433623,
		  "value": 0
		},
		{
		  "ticks": 115381,
		  "time": 93.04900745,
		  "value": 0
		},
		{
		  "ticks": 115388,
		  "time": 93.0546526,
		  "value": 0
		},
		{
		  "ticks": 115396,
		  "time": 93.0611042,
		  "value": 0
		},
		{
		  "ticks": 115403,
		  "time": 93.06674935000001,
		  "value": 0
		},
		{
		  "ticks": 115410,
		  "time": 93.0723945,
		  "value": 0
		},
		{
		  "ticks": 115418,
		  "time": 93.0788461,
		  "value": 0
		},
		{
		  "ticks": 115425,
		  "time": 93.08449125,
		  "value": 0
		},
		{
		  "ticks": 115432,
		  "time": 93.09013639999999,
		  "value": 0
		},
		{
		  "ticks": 115439,
		  "time": 93.09578155,
		  "value": 0
		},
		{
		  "ticks": 115446,
		  "time": 93.10142669999999,
		  "value": 0
		},
		{
		  "ticks": 115454,
		  "time": 93.1078783,
		  "value": 0.015625
		},
		{
		  "ticks": 115461,
		  "time": 93.11352344999999,
		  "value": 0.015625
		},
		{
		  "ticks": 115468,
		  "time": 93.1191686,
		  "value": 0.015625
		},
		{
		  "ticks": 115476,
		  "time": 93.1256202,
		  "value": 0.015625
		},
		{
		  "ticks": 115483,
		  "time": 93.13126535,
		  "value": 0.015625
		},
		{
		  "ticks": 115490,
		  "time": 93.1369105,
		  "value": 0.015625
		},
		{
		  "ticks": 115497,
		  "time": 93.14255565,
		  "value": 0.015625
		},
		{
		  "ticks": 115504,
		  "time": 93.1482008,
		  "value": 0.015625
		},
		{
		  "ticks": 115512,
		  "time": 93.1546524,
		  "value": 0.015625
		},
		{
		  "ticks": 115519,
		  "time": 93.16029755,
		  "value": 0.015625
		},
		{
		  "ticks": 115526,
		  "time": 93.1659427,
		  "value": 0.015625
		},
		{
		  "ticks": 115534,
		  "time": 93.1723943,
		  "value": 0
		},
		{
		  "ticks": 115541,
		  "time": 93.17803945,
		  "value": 0
		},
		{
		  "ticks": 115548,
		  "time": 93.18368459999999,
		  "value": 0
		},
		{
		  "ticks": 115555,
		  "time": 93.18932975,
		  "value": 0
		},
		{
		  "ticks": 115562,
		  "time": 93.19497489999999,
		  "value": 0
		},
		{
		  "ticks": 115570,
		  "time": 93.2014265,
		  "value": -0.015625
		},
		{
		  "ticks": 115577,
		  "time": 93.20707165,
		  "value": -0.015625
		},
		{
		  "ticks": 115584,
		  "time": 93.21271680000001,
		  "value": -0.015625
		},
		{
		  "ticks": 115592,
		  "time": 93.2191684,
		  "value": -0.015625
		},
		{
		  "ticks": 115599,
		  "time": 93.22481355000001,
		  "value": -0.015625
		},
		{
		  "ticks": 115606,
		  "time": 93.2304587,
		  "value": -0.015625
		},
		{
		  "ticks": 115613,
		  "time": 93.23610385,
		  "value": -0.015625
		},
		{
		  "ticks": 115620,
		  "time": 93.241749,
		  "value": -0.015625
		},
		{
		  "ticks": 115628,
		  "time": 93.2482006,
		  "value": -0.015625
		},
		{
		  "ticks": 115635,
		  "time": 93.25384575,
		  "value": -0.015625
		},
		{
		  "ticks": 115642,
		  "time": 93.25949089999999,
		  "value": -0.015625
		},
		{
		  "ticks": 115650,
		  "time": 93.2659425,
		  "value": 0
		},
		{
		  "ticks": 115657,
		  "time": 93.27158765,
		  "value": 0
		},
		{
		  "ticks": 115664,
		  "time": 93.2772328,
		  "value": 0
		},
		{
		  "ticks": 115671,
		  "time": 93.28287795,
		  "value": 0
		},
		{
		  "ticks": 115678,
		  "time": 93.2885231,
		  "value": 0.015625
		},
		{
		  "ticks": 115686,
		  "time": 93.2949747,
		  "value": 0.015625
		},
		{
		  "ticks": 115693,
		  "time": 93.30061985,
		  "value": 0.015625
		},
		{
		  "ticks": 115700,
		  "time": 93.306265,
		  "value": 0.03125
		},
		{
		  "ticks": 115708,
		  "time": 93.3127166,
		  "value": 0.03125
		},
		{
		  "ticks": 115715,
		  "time": 93.31836175,
		  "value": 0.03125
		},
		{
		  "ticks": 115722,
		  "time": 93.3240069,
		  "value": 0.03125
		},
		{
		  "ticks": 115729,
		  "time": 93.32965204999999,
		  "value": 0.03125
		},
		{
		  "ticks": 115736,
		  "time": 93.3352972,
		  "value": 0.03125
		},
		{
		  "ticks": 115744,
		  "time": 93.34174879999999,
		  "value": 0.03125
		},
		{
		  "ticks": 115751,
		  "time": 93.34739395,
		  "value": 0.015625
		},
		{
		  "ticks": 115758,
		  "time": 93.3530391,
		  "value": 0.015625
		},
		{
		  "ticks": 115766,
		  "time": 93.3594907,
		  "value": 0.015625
		},
		{
		  "ticks": 115773,
		  "time": 93.36513585,
		  "value": 0
		},
		{
		  "ticks": 115780,
		  "time": 93.37078100000001,
		  "value": 0
		},
		{
		  "ticks": 115787,
		  "time": 93.37642615,
		  "value": 0
		},
		{
		  "ticks": 115794,
		  "time": 93.3820713,
		  "value": -0.015625
		},
		{
		  "ticks": 115802,
		  "time": 93.3885229,
		  "value": -0.015625
		},
		{
		  "ticks": 115809,
		  "time": 93.39416805,
		  "value": -0.015625
		},
		{
		  "ticks": 115816,
		  "time": 93.3998132,
		  "value": -0.03125
		},
		{
		  "ticks": 115824,
		  "time": 93.4062648,
		  "value": -0.03125
		},
		{
		  "ticks": 115831,
		  "time": 93.41190995,
		  "value": -0.03125
		},
		{
		  "ticks": 115838,
		  "time": 93.4175551,
		  "value": -0.03125
		},
		{
		  "ticks": 115845,
		  "time": 93.42320025,
		  "value": -0.03125
		},
		{
		  "ticks": 115852,
		  "time": 93.4288454,
		  "value": -0.03125
		},
		{
		  "ticks": 115860,
		  "time": 93.435297,
		  "value": -0.03125
		},
		{
		  "ticks": 115867,
		  "time": 93.44094215,
		  "value": -0.015625
		},
		{
		  "ticks": 115874,
		  "time": 93.4465873,
		  "value": -0.015625
		},
		{
		  "ticks": 115882,
		  "time": 93.4530389,
		  "value": -0.015625
		},
		{
		  "ticks": 115889,
		  "time": 93.45868405,
		  "value": 0
		},
		{
		  "ticks": 115896,
		  "time": 93.4643292,
		  "value": 0
		},
		{
		  "ticks": 115903,
		  "time": 93.46997435,
		  "value": 0
		},
		{
		  "ticks": 115910,
		  "time": 93.4756195,
		  "value": 0.015625
		},
		{
		  "ticks": 115918,
		  "time": 93.4820711,
		  "value": 0.015625
		},
		{
		  "ticks": 115925,
		  "time": 93.48771624999999,
		  "value": 0.03125
		},
		{
		  "ticks": 115932,
		  "time": 93.4933614,
		  "value": 0.03125
		},
		{
		  "ticks": 115940,
		  "time": 93.49981299999999,
		  "value": 0.03125
		},
		{
		  "ticks": 115947,
		  "time": 93.50545815,
		  "value": 0.03125
		},
		{
		  "ticks": 115954,
		  "time": 93.5111033,
		  "value": 0.03125
		},
		{
		  "ticks": 115961,
		  "time": 93.51674845000001,
		  "value": 0.03125
		},
		{
		  "ticks": 115968,
		  "time": 93.5223936,
		  "value": 0.03125
		},
		{
		  "ticks": 115976,
		  "time": 93.5288452,
		  "value": 0.03125
		},
		{
		  "ticks": 115983,
		  "time": 93.53449035,
		  "value": 0.03125
		},
		{
		  "ticks": 115990,
		  "time": 93.5401355,
		  "value": 0.015625
		},
		{
		  "ticks": 115998,
		  "time": 93.5465871,
		  "value": 0.015625
		},
		{
		  "ticks": 116005,
		  "time": 93.55223225,
		  "value": 0
		},
		{
		  "ticks": 116012,
		  "time": 93.5578774,
		  "value": 0
		},
		{
		  "ticks": 116019,
		  "time": 93.56352255,
		  "value": 0
		},
		{
		  "ticks": 116026,
		  "time": 93.5691677,
		  "value": -0.015625
		},
		{
		  "ticks": 116034,
		  "time": 93.5756193,
		  "value": -0.015625
		},
		{
		  "ticks": 116041,
		  "time": 93.58126444999999,
		  "value": -0.03125
		},
		{
		  "ticks": 116048,
		  "time": 93.5869096,
		  "value": -0.03125
		},
		{
		  "ticks": 116056,
		  "time": 93.5933612,
		  "value": -0.03125
		},
		{
		  "ticks": 116063,
		  "time": 93.59900635000001,
		  "value": -0.03125
		},
		{
		  "ticks": 116070,
		  "time": 93.6046515,
		  "value": -0.03125
		},
		{
		  "ticks": 116077,
		  "time": 93.61029665,
		  "value": -0.03125
		},
		{
		  "ticks": 116084,
		  "time": 93.6159418,
		  "value": -0.03125
		},
		{
		  "ticks": 116092,
		  "time": 93.62239339999999,
		  "value": -0.03125
		},
		{
		  "ticks": 116099,
		  "time": 93.62803855,
		  "value": -0.03125
		},
		{
		  "ticks": 116106,
		  "time": 93.63368369999999,
		  "value": -0.015625
		},
		{
		  "ticks": 116114,
		  "time": 93.6401353,
		  "value": -0.015625
		},
		{
		  "ticks": 116121,
		  "time": 93.64578044999999,
		  "value": 0
		},
		{
		  "ticks": 116128,
		  "time": 93.6514256,
		  "value": 0
		},
		{
		  "ticks": 116135,
		  "time": 93.65707074999999,
		  "value": 0
		},
		{
		  "ticks": 116142,
		  "time": 93.6627159,
		  "value": 0.015625
		},
		{
		  "ticks": 116150,
		  "time": 93.6691675,
		  "value": 0.015625
		},
		{
		  "ticks": 116157,
		  "time": 93.67481265,
		  "value": 0.03125
		},
		{
		  "ticks": 116164,
		  "time": 93.6804578,
		  "value": 0.03125
		},
		{
		  "ticks": 116172,
		  "time": 93.6869094,
		  "value": 0.03125
		},
		{
		  "ticks": 116179,
		  "time": 93.69255455,
		  "value": 0.03125
		},
		{
		  "ticks": 116186,
		  "time": 93.6981997,
		  "value": 0.03125
		},
		{
		  "ticks": 116193,
		  "time": 93.70384485,
		  "value": 0.03125
		},
		{
		  "ticks": 116200,
		  "time": 93.70949,
		  "value": 0.03125
		},
		{
		  "ticks": 116208,
		  "time": 93.7159416,
		  "value": 0.03125
		},
		{
		  "ticks": 116215,
		  "time": 93.72158675,
		  "value": 0.03125
		},
		{
		  "ticks": 116222,
		  "time": 93.72723189999999,
		  "value": 0.015625
		},
		{
		  "ticks": 116230,
		  "time": 93.7336835,
		  "value": 0.015625
		},
		{
		  "ticks": 116237,
		  "time": 93.73932865,
		  "value": 0
		},
		{
		  "ticks": 116244,
		  "time": 93.7449738,
		  "value": 0
		},
		{
		  "ticks": 116251,
		  "time": 93.75061895,
		  "value": 0
		},
		{
		  "ticks": 116258,
		  "time": 93.75626410000001,
		  "value": -0.015625
		},
		{
		  "ticks": 116266,
		  "time": 93.7627157,
		  "value": -0.015625
		},
		{
		  "ticks": 116273,
		  "time": 93.76836085000001,
		  "value": -0.03125
		},
		{
		  "ticks": 116280,
		  "time": 93.774006,
		  "value": -0.03125
		},
		{
		  "ticks": 116288,
		  "time": 93.7804576,
		  "value": -0.03125
		},
		{
		  "ticks": 116295,
		  "time": 93.78610275,
		  "value": -0.03125
		},
		{
		  "ticks": 116302,
		  "time": 93.79174789999999,
		  "value": -0.03125
		},
		{
		  "ticks": 116309,
		  "time": 93.79739305,
		  "value": -0.03125
		},
		{
		  "ticks": 116316,
		  "time": 93.80303819999999,
		  "value": -0.03125
		},
		{
		  "ticks": 116324,
		  "time": 93.8094898,
		  "value": -0.03125
		},
		{
		  "ticks": 116331,
		  "time": 93.81513495,
		  "value": -0.03125
		},
		{
		  "ticks": 116338,
		  "time": 93.82078010000001,
		  "value": -0.015625
		},
		{
		  "ticks": 116346,
		  "time": 93.8272317,
		  "value": -0.015625
		},
		{
		  "ticks": 116353,
		  "time": 93.83287685,
		  "value": 0
		},
		{
		  "ticks": 116360,
		  "time": 93.838522,
		  "value": 0
		},
		{
		  "ticks": 116367,
		  "time": 93.84416715,
		  "value": 0
		},
		{
		  "ticks": 116374,
		  "time": 93.8498123,
		  "value": 0.015625
		},
		{
		  "ticks": 116382,
		  "time": 93.8562639,
		  "value": 0.015625
		},
		{
		  "ticks": 116389,
		  "time": 93.86190905,
		  "value": 0.03125
		},
		{
		  "ticks": 116396,
		  "time": 93.8675542,
		  "value": 0.03125
		},
		{
		  "ticks": 116404,
		  "time": 93.87400579999999,
		  "value": 0.03125
		},
		{
		  "ticks": 116411,
		  "time": 93.87965095,
		  "value": 0.03125
		},
		{
		  "ticks": 116418,
		  "time": 93.88529609999999,
		  "value": 0.03125
		},
		{
		  "ticks": 116425,
		  "time": 93.89094125,
		  "value": 0.03125
		},
		{
		  "ticks": 116432,
		  "time": 93.8965864,
		  "value": 0.03125
		},
		{
		  "ticks": 116440,
		  "time": 93.90303800000001,
		  "value": 0.03125
		},
		{
		  "ticks": 116447,
		  "time": 93.90868315,
		  "value": 0.03125
		},
		{
		  "ticks": 116454,
		  "time": 93.91432830000001,
		  "value": 0.015625
		},
		{
		  "ticks": 116462,
		  "time": 93.9207799,
		  "value": 0.015625
		},
		{
		  "ticks": 116469,
		  "time": 93.92642505,
		  "value": 0
		},
		{
		  "ticks": 116476,
		  "time": 93.9320702,
		  "value": 0
		},
		{
		  "ticks": 116483,
		  "time": 93.93771535,
		  "value": 0
		},
		{
		  "ticks": 116490,
		  "time": 93.9433605,
		  "value": -0.015625
		},
		{
		  "ticks": 116498,
		  "time": 93.9498121,
		  "value": -0.015625
		},
		{
		  "ticks": 116505,
		  "time": 93.95545725,
		  "value": -0.03125
		},
		{
		  "ticks": 116512,
		  "time": 93.96110239999999,
		  "value": -0.03125
		},
		{
		  "ticks": 116520,
		  "time": 93.96755399999999,
		  "value": -0.03125
		},
		{
		  "ticks": 116527,
		  "time": 93.97319915,
		  "value": -0.03125
		},
		{
		  "ticks": 116534,
		  "time": 93.9788443,
		  "value": -0.03125
		},
		{
		  "ticks": 116541,
		  "time": 93.98448945,
		  "value": -0.03125
		},
		{
		  "ticks": 116548,
		  "time": 93.9901346,
		  "value": -0.03125
		},
		{
		  "ticks": 116556,
		  "time": 93.9965862,
		  "value": -0.03125
		},
		{
		  "ticks": 116563,
		  "time": 94.00223135,
		  "value": -0.03125
		},
		{
		  "ticks": 116570,
		  "time": 94.0078765,
		  "value": -0.015625
		},
		{
		  "ticks": 116578,
		  "time": 94.0143281,
		  "value": -0.015625
		},
		{
		  "ticks": 116585,
		  "time": 94.01997324999999,
		  "value": 0
		},
		{
		  "ticks": 116592,
		  "time": 94.0256184,
		  "value": 0
		},
		{
		  "ticks": 116599,
		  "time": 94.03126354999999,
		  "value": 0
		},
		{
		  "ticks": 116606,
		  "time": 94.0369087,
		  "value": 0.015625
		},
		{
		  "ticks": 116614,
		  "time": 94.04336029999999,
		  "value": 0.015625
		},
		{
		  "ticks": 116621,
		  "time": 94.04900545,
		  "value": 0.015625
		},
		{
		  "ticks": 116628,
		  "time": 94.0546506,
		  "value": 0.03125
		},
		{
		  "ticks": 116636,
		  "time": 94.06110220000001,
		  "value": 0.03125
		},
		{
		  "ticks": 116643,
		  "time": 94.06674735,
		  "value": 0.03125
		},
		{
		  "ticks": 116650,
		  "time": 94.0723925,
		  "value": 0.03125
		},
		{
		  "ticks": 116657,
		  "time": 94.07803765,
		  "value": 0.03125
		},
		{
		  "ticks": 116664,
		  "time": 94.0836828,
		  "value": 0.03125
		},
		{
		  "ticks": 116672,
		  "time": 94.0901344,
		  "value": 0.03125
		},
		{
		  "ticks": 116679,
		  "time": 94.09577955,
		  "value": 0.015625
		},
		{
		  "ticks": 116686,
		  "time": 94.1014247,
		  "value": 0.015625
		},
		{
		  "ticks": 116694,
		  "time": 94.1078763,
		  "value": 0.015625
		},
		{
		  "ticks": 116701,
		  "time": 94.11352145,
		  "value": 0
		},
		{
		  "ticks": 116708,
		  "time": 94.1191666,
		  "value": 0
		},
		{
		  "ticks": 116715,
		  "time": 94.12481174999999,
		  "value": 0
		},
		{
		  "ticks": 116722,
		  "time": 94.1304569,
		  "value": -0.015625
		},
		{
		  "ticks": 116730,
		  "time": 94.1369085,
		  "value": -0.015625
		},
		{
		  "ticks": 116737,
		  "time": 94.14255365,
		  "value": -0.015625
		},
		{
		  "ticks": 116744,
		  "time": 94.1481988,
		  "value": -0.03125
		},
		{
		  "ticks": 116752,
		  "time": 94.1546504,
		  "value": -0.03125
		},
		{
		  "ticks": 116759,
		  "time": 94.16029555,
		  "value": -0.03125
		},
		{
		  "ticks": 116766,
		  "time": 94.1659407,
		  "value": -0.03125
		},
		{
		  "ticks": 116773,
		  "time": 94.17158585,
		  "value": -0.03125
		},
		{
		  "ticks": 116780,
		  "time": 94.17723099999999,
		  "value": -0.03125
		},
		{
		  "ticks": 116788,
		  "time": 94.1836826,
		  "value": -0.03125
		},
		{
		  "ticks": 116795,
		  "time": 94.18932774999999,
		  "value": -0.015625
		},
		{
		  "ticks": 116802,
		  "time": 94.1949729,
		  "value": -0.015625
		},
		{
		  "ticks": 116810,
		  "time": 94.2014245,
		  "value": -0.015625
		},
		{
		  "ticks": 116817,
		  "time": 94.20706965000001,
		  "value": 0
		},
		{
		  "ticks": 116824,
		  "time": 94.2127148,
		  "value": 0
		},
		{
		  "ticks": 116831,
		  "time": 94.21835995,
		  "value": 0
		},
		{
		  "ticks": 116838,
		  "time": 94.2240051,
		  "value": 0.015625
		},
		{
		  "ticks": 116846,
		  "time": 94.2304567,
		  "value": 0.015625
		},
		{
		  "ticks": 116853,
		  "time": 94.23610185,
		  "value": 0.015625
		},
		{
		  "ticks": 116860,
		  "time": 94.241747,
		  "value": 0.03125
		},
		{
		  "ticks": 116868,
		  "time": 94.2481986,
		  "value": 0.03125
		},
		{
		  "ticks": 116875,
		  "time": 94.25384375,
		  "value": 0.03125
		},
		{
		  "ticks": 116882,
		  "time": 94.2594889,
		  "value": 0.03125
		},
		{
		  "ticks": 116889,
		  "time": 94.26513405,
		  "value": 0.03125
		},
		{
		  "ticks": 116896,
		  "time": 94.27077919999999,
		  "value": 0.03125
		},
		{
		  "ticks": 116904,
		  "time": 94.2772308,
		  "value": 0.03125
		},
		{
		  "ticks": 116911,
		  "time": 94.28287595,
		  "value": 0.015625
		},
		{
		  "ticks": 116918,
		  "time": 94.2885211,
		  "value": 0.015625
		},
		{
		  "ticks": 116926,
		  "time": 94.2949727,
		  "value": 0.015625
		},
		{
		  "ticks": 116933,
		  "time": 94.30061785000001,
		  "value": 0
		},
		{
		  "ticks": 116940,
		  "time": 94.306263,
		  "value": 0
		},
		{
		  "ticks": 116947,
		  "time": 94.31190815,
		  "value": 0
		},
		{
		  "ticks": 116954,
		  "time": 94.3175533,
		  "value": -0.015625
		},
		{
		  "ticks": 116962,
		  "time": 94.32400489999999,
		  "value": -0.015625
		},
		{
		  "ticks": 116969,
		  "time": 94.32965005,
		  "value": -0.015625
		},
		{
		  "ticks": 116976,
		  "time": 94.33529519999999,
		  "value": -0.03125
		},
		{
		  "ticks": 116984,
		  "time": 94.3417468,
		  "value": -0.03125
		},
		{
		  "ticks": 116991,
		  "time": 94.34739194999999,
		  "value": -0.03125
		},
		{
		  "ticks": 116998,
		  "time": 94.3530371,
		  "value": -0.03125
		},
		{
		  "ticks": 117005,
		  "time": 94.35868225,
		  "value": -0.03125
		},
		{
		  "ticks": 117012,
		  "time": 94.36432740000001,
		  "value": -0.03125
		},
		{
		  "ticks": 117020,
		  "time": 94.370779,
		  "value": -0.03125
		},
		{
		  "ticks": 117027,
		  "time": 94.37642415,
		  "value": -0.015625
		},
		{
		  "ticks": 117034,
		  "time": 94.3820693,
		  "value": -0.015625
		},
		{
		  "ticks": 117042,
		  "time": 94.3885209,
		  "value": -0.015625
		},
		{
		  "ticks": 117049,
		  "time": 94.39416605,
		  "value": 0
		},
		{
		  "ticks": 117056,
		  "time": 94.3998112,
		  "value": 0
		},
		{
		  "ticks": 117063,
		  "time": 94.40545635,
		  "value": 0
		},
		{
		  "ticks": 117070,
		  "time": 94.4111015,
		  "value": 0
		},
		{
		  "ticks": 117078,
		  "time": 94.41755309999999,
		  "value": 0
		},
		{
		  "ticks": 117085,
		  "time": 94.42319825,
		  "value": 0.015625
		},
		{
		  "ticks": 117092,
		  "time": 94.42884339999999,
		  "value": 0.015625
		},
		{
		  "ticks": 117100,
		  "time": 94.435295,
		  "value": 0.015625
		},
		{
		  "ticks": 117107,
		  "time": 94.44094015,
		  "value": 0.015625
		},
		{
		  "ticks": 117114,
		  "time": 94.44658530000001,
		  "value": 0.015625
		},
		{
		  "ticks": 117120,
		  "time": 94.451424,
		  "value": 0
		}
	  ],
	  "instrument": {
		"family": "guitar",
		"number": 30,
		"name": "distortion guitar"
	  },
	  "name": "",
	  "notes": [
		{
		  "duration": 2.322575999999998,
		  "durationTicks": 2880,
		  "midi": 82,
		  "name": "A#5",
		  "ticks": 98880,
		  "time": 79.741776,
		  "velocity": 0.7480314960629921
		}
	  ]
	},
	{
	  "channel": 0,
	  "controlChanges": {
		"0": [
		  {
			"number": 0,
			"ticks": 0,
			"time": 0,
			"value": 0
		  }
		],
		"7": [
		  {
			"number": 7,
			"ticks": 0,
			"time": 0,
			"value": 0.7559055118110236
		  }
		],
		"10": [
		  {
			"number": 10,
			"ticks": 0,
			"time": 0,
			"value": 0.5039370078740157
		  }
		],
		"91": [
		  {
			"number": 91,
			"ticks": 0,
			"time": 0,
			"value": 0
		  }
		],
		"92": [
		  {
			"number": 92,
			"ticks": 0,
			"time": 0,
			"value": 0
		  }
		],
		"93": [
		  {
			"number": 93,
			"ticks": 0,
			"time": 0,
			"value": 0
		  }
		],
		"95": [
		  {
			"number": 95,
			"ticks": 0,
			"time": 0,
			"value": 0
		  }
		]
	  },
	  "pitchBends": [],
	  "instrument": {
		"family": "guitar",
		"number": 30,
		"name": "distortion guitar"
	  },
	  "name": "",
	  "notes": []
	},
	{
	  "channel": 0,
	  "controlChanges": {
		"6": [
		  {
			"number": 6,
			"ticks": 0,
			"time": 0,
			"value": 0.09448818897637795
		  },
		  {
			"number": 6,
			"ticks": 0,
			"time": 0,
			"value": 0.5039370078740157
		  },
		  {
			"number": 6,
			"ticks": 0,
			"time": 0,
			"value": 0.5039370078740157
		  }
		],
		"38": [
		  {
			"number": 38,
			"ticks": 0,
			"time": 0,
			"value": 0
		  }
		],
		"100": [
		  {
			"number": 100,
			"ticks": 0,
			"time": 0,
			"value": 0
		  },
		  {
			"number": 100,
			"ticks": 0,
			"time": 0,
			"value": 0.007874015748031496
		  },
		  {
			"number": 100,
			"ticks": 0,
			"time": 0,
			"value": 1
		  },
		  {
			"number": 100,
			"ticks": 0,
			"time": 0,
			"value": 0.015748031496062992
		  },
		  {
			"number": 100,
			"ticks": 0,
			"time": 0,
			"value": 1
		  }
		],
		"101": [
		  {
			"number": 101,
			"ticks": 0,
			"time": 0,
			"value": 0
		  },
		  {
			"number": 101,
			"ticks": 0,
			"time": 0,
			"value": 0
		  },
		  {
			"number": 101,
			"ticks": 0,
			"time": 0,
			"value": 1
		  },
		  {
			"number": 101,
			"ticks": 0,
			"time": 0,
			"value": 0
		  },
		  {
			"number": 101,
			"ticks": 0,
			"time": 0,
			"value": 1
		  }
		]
	  },
	  "pitchBends": [
		{
		  "ticks": 0,
		  "time": 0,
		  "value": 0
		}
	  ],
	  "instrument": {
		"family": "piano",
		"number": 0,
		"name": "acoustic grand piano"
	  },
	  "name": "Keyboards",
	  "notes": [],
	  "endOfTrackTicks": 195840
	},
	{
	  "channel": 0,
	  "controlChanges": {
		"6": [
		  {
			"number": 6,
			"ticks": 0,
			"time": 0,
			"value": 0.09448818897637795
		  },
		  {
			"number": 6,
			"ticks": 0,
			"time": 0,
			"value": 0.5039370078740157
		  },
		  {
			"number": 6,
			"ticks": 0,
			"time": 0,
			"value": 0.5039370078740157
		  }
		],
		"38": [
		  {
			"number": 38,
			"ticks": 0,
			"time": 0,
			"value": 0
		  }
		],
		"100": [
		  {
			"number": 100,
			"ticks": 0,
			"time": 0,
			"value": 0
		  },
		  {
			"number": 100,
			"ticks": 0,
			"time": 0,
			"value": 0.007874015748031496
		  },
		  {
			"number": 100,
			"ticks": 0,
			"time": 0,
			"value": 1
		  },
		  {
			"number": 100,
			"ticks": 0,
			"time": 0,
			"value": 0.015748031496062992
		  },
		  {
			"number": 100,
			"ticks": 0,
			"time": 0,
			"value": 1
		  }
		],
		"101": [
		  {
			"number": 101,
			"ticks": 0,
			"time": 0,
			"value": 0
		  },
		  {
			"number": 101,
			"ticks": 0,
			"time": 0,
			"value": 0
		  },
		  {
			"number": 101,
			"ticks": 0,
			"time": 0,
			"value": 1
		  },
		  {
			"number": 101,
			"ticks": 0,
			"time": 0,
			"value": 0
		  },
		  {
			"number": 101,
			"ticks": 0,
			"time": 0,
			"value": 1
		  }
		]
	  },
	  "pitchBends": [
		{
		  "ticks": 0,
		  "time": 0,
		  "value": 0
		}
	  ],
	  "instrument": {
		"family": "piano",
		"number": 0,
		"name": "acoustic grand piano"
	  },
	  "name": "",
	  "notes": []
	},
	{
	  "channel": 3,
	  "controlChanges": {
		"0": [
		  {
			"number": 0,
			"ticks": 0,
			"time": 0,
			"value": 0
		  }
		],
		"7": [
		  {
			"number": 7,
			"ticks": 0,
			"time": 0,
			"value": 0.6299212598425197
		  },
		  {
			"number": 7,
			"ticks": 0,
			"time": 0,
			"value": 0.3779527559055118
		  },
		  {
			"number": 7,
			"ticks": 15360,
			"time": 12.387072,
			"value": 0.3779527559055118
		  },
		  {
			"number": 7,
			"ticks": 63360,
			"time": 51.096672,
			"value": 0.8818897637795275
		  },
		  {
			"number": 7,
			"ticks": 99840,
			"time": 80.515968,
			"value": 0.3779527559055118
		  },
		  {
			"number": 7,
			"ticks": 115200,
			"time": 92.90304,
			"value": 0.3779527559055118
		  },
		  {
			"number": 7,
			"ticks": 163200,
			"time": 131.61264,
			"value": 0.8818897637795275
		  }
		],
		"10": [
		  {
			"number": 10,
			"ticks": 0,
			"time": 0,
			"value": 0.6299212598425197
		  }
		],
		"91": [
		  {
			"number": 91,
			"ticks": 0,
			"time": 0,
			"value": 0
		  }
		],
		"92": [
		  {
			"number": 92,
			"ticks": 0,
			"time": 0,
			"value": 0
		  }
		],
		"93": [
		  {
			"number": 93,
			"ticks": 0,
			"time": 0,
			"value": 0
		  }
		],
		"95": [
		  {
			"number": 95,
			"ticks": 0,
			"time": 0,
			"value": 0
		  }
		]
	  },
	  "pitchBends": [
		{
		  "ticks": 72912,
		  "time": 58.7998824,
		  "value": -0.078125
		},
		{
		  "ticks": 72928,
		  "time": 58.8127856,
		  "value": -0.171875
		},
		{
		  "ticks": 72944,
		  "time": 58.8256888,
		  "value": -0.25
		},
		{
		  "ticks": 72960,
		  "time": 58.838592,
		  "value": -0.328125
		},
		{
		  "ticks": 73920,
		  "time": 59.612784,
		  "value": 0
		},
		{
		  "ticks": 77016,
		  "time": 62.10955319999999,
		  "value": 0.078125
		},
		{
		  "ticks": 77040,
		  "time": 62.128908,
		  "value": 0.171875
		},
		{
		  "ticks": 77760,
		  "time": 62.709552,
		  "value": 0
		},
		{
		  "ticks": 172752,
		  "time": 139.3158504,
		  "value": -0.078125
		},
		{
		  "ticks": 172768,
		  "time": 139.3287536,
		  "value": -0.171875
		},
		{
		  "ticks": 172784,
		  "time": 139.34165679999998,
		  "value": -0.25
		},
		{
		  "ticks": 172800,
		  "time": 139.35456,
		  "value": -0.328125
		},
		{
		  "ticks": 173760,
		  "time": 140.128752,
		  "value": 0
		},
		{
		  "ticks": 176856,
		  "time": 142.62552119999998,
		  "value": 0.078125
		},
		{
		  "ticks": 176880,
		  "time": 142.644876,
		  "value": 0.171875
		},
		{
		  "ticks": 177600,
		  "time": 143.22552,
		  "value": 0
		}
	  ],
	  "instrument": {
		"family": "synth lead",
		"number": 80,
		"name": "lead 1 (square)"
	  },
	  "name": "",
	  "notes": [
		{
		  "duration": 0.9677399999999992,
		  "durationTicks": 1200,
		  "midi": 70,
		  "name": "A#4",
		  "ticks": 72720,
		  "time": 58.645044,
		  "velocity": 0.7480314960629921
		},
		{
		  "duration": 0.7741919999999993,
		  "durationTicks": 960,
		  "midi": 63,
		  "name": "D#4",
		  "ticks": 76800,
		  "time": 61.93536,
		  "velocity": 0.7480314960629921
		},
		{
		  "duration": 0.967739999999992,
		  "durationTicks": 1200,
		  "midi": 70,
		  "name": "A#4",
		  "ticks": 172560,
		  "time": 139.161012,
		  "velocity": 0.7480314960629921
		},
		{
		  "duration": 0.7741919999999993,
		  "durationTicks": 960,
		  "midi": 63,
		  "name": "D#4",
		  "ticks": 176640,
		  "time": 142.451328,
		  "velocity": 0.7480314960629921
		}
	  ]
	},
	{
	  "channel": 2,
	  "controlChanges": {
		"0": [
		  {
			"number": 0,
			"ticks": 0,
			"time": 0,
			"value": 0
		  }
		],
		"7": [
		  {
			"number": 7,
			"ticks": 0,
			"time": 0,
			"value": 0.6299212598425197
		  },
		  {
			"number": 7,
			"ticks": 0,
			"time": 0,
			"value": 0.3779527559055118
		  },
		  {
			"number": 7,
			"ticks": 15360,
			"time": 12.387072,
			"value": 0.3779527559055118
		  },
		  {
			"number": 7,
			"ticks": 63360,
			"time": 51.096672,
			"value": 0.8818897637795275
		  },
		  {
			"number": 7,
			"ticks": 99840,
			"time": 80.515968,
			"value": 0.3779527559055118
		  },
		  {
			"number": 7,
			"ticks": 115200,
			"time": 92.90304,
			"value": 0.3779527559055118
		  },
		  {
			"number": 7,
			"ticks": 163200,
			"time": 131.61264,
			"value": 0.8818897637795275
		  }
		],
		"10": [
		  {
			"number": 10,
			"ticks": 0,
			"time": 0,
			"value": 0.6299212598425197
		  }
		],
		"91": [
		  {
			"number": 91,
			"ticks": 0,
			"time": 0,
			"value": 0
		  }
		],
		"92": [
		  {
			"number": 92,
			"ticks": 0,
			"time": 0,
			"value": 0
		  }
		],
		"93": [
		  {
			"number": 93,
			"ticks": 0,
			"time": 0,
			"value": 0
		  }
		],
		"95": [
		  {
			"number": 95,
			"ticks": 0,
			"time": 0,
			"value": 0
		  }
		]
	  },
	  "pitchBends": [],
	  "instrument": {
		"family": "synth lead",
		"number": 80,
		"name": "lead 1 (square)"
	  },
	  "name": "",
	  "notes": [
		{
		  "duration": 0.193548,
		  "durationTicks": 240,
		  "midi": 82,
		  "name": "A#5",
		  "ticks": 0,
		  "time": 0,
		  "velocity": 0.7480314960629921
		},
		{
		  "duration": 0.19354799999999994,
		  "durationTicks": 240,
		  "midi": 82,
		  "name": "A#5",
		  "ticks": 480,
		  "time": 0.387096,
		  "velocity": 0.7480314960629921
		},
		{
		  "duration": 0.19354800000000005,
		  "durationTicks": 240,
		  "midi": 82,
		  "name": "A#5",
		  "ticks": 960,
		  "time": 0.774192,
		  "velocity": 0.7480314960629921
		},
		{
		  "duration": 0.19354800000000005,
		  "durationTicks": 240,
		  "midi": 82,
		  "name": "A#5",
		  "ticks": 1440,
		  "time": 1.1612879999999999,
		  "velocity": 0.7480314960629921
		},
		{
		  "duration": 0.19354800000000005,
		  "durationTicks": 240,
		  "midi": 82,
		  "name": "A#5",
		  "ticks": 1920,
		  "time": 1.548384,
		  "velocity": 0.7480314960629921
		},
		{
		  "duration": 0.19354799999999983,
		  "durationTicks": 240,
		  "midi": 82,
		  "name": "A#5",
		  "ticks": 2400,
		  "time": 1.93548,
		  "velocity": 0.7480314960629921
		},
		{
		  "duration": 0.19354800000000028,
		  "durationTicks": 240,
		  "midi": 82,
		  "name": "A#5",
		  "ticks": 2880,
		  "time": 2.3225759999999998,
		  "velocity": 0.7480314960629921
		},
		{
		  "duration": 0.19354800000000028,
		  "durationTicks": 240,
		  "midi": 82,
		  "name": "A#5",
		  "ticks": 3360,
		  "time": 2.709672,
		  "velocity": 0.7480314960629921
		},
		{
		  "duration": 0.19354799999999983,
		  "durationTicks": 240,
		  "midi": 85,
		  "name": "C#6",
		  "ticks": 3840,
		  "time": 3.096768,
		  "velocity": 0.7480314960629921
		},
		{
		  "duration": 0.19354799999999983,
		  "durationTicks": 240,
		  "midi": 85,
		  "name": "C#6",
		  "ticks": 4320,
		  "time": 3.483864,
		  "velocity": 0.7480314960629921
		},
		{
		  "duration": 0.19354799999999983,
		  "durationTicks": 240,
		  "midi": 85,
		  "name": "C#6",
		  "ticks": 4800,
		  "time": 3.87096,
		  "velocity": 0.7480314960629921
		},
		{
		  "duration": 0.19354799999999983,
		  "durationTicks": 240,
		  "midi": 85,
		  "name": "C#6",
		  "ticks": 5280,
		  "time": 4.258056,
		  "velocity": 0.7480314960629921
		},
		{
		  "duration": 0.19354800000000072,
		  "durationTicks": 240,
		  "midi": 87,
		  "name": "D#6",
		  "ticks": 5760,
		  "time": 4.6451519999999995,
		  "velocity": 0.7480314960629921
		},
		{
		  "duration": 0.19354799999999983,
		  "durationTicks": 240,
		  "midi": 87,
		  "name": "D#6",
		  "ticks": 6240,
		  "time": 5.032248,
		  "velocity": 0.7480314960629921
		},
		{
		  "duration": 0.19354799999999983,
		  "durationTicks": 240,
		  "midi": 87,
		  "name": "D#6",
		  "ticks": 6720,
		  "time": 5.419344,
		  "velocity": 0.7480314960629921
		},
		{
		  "duration": 0.19354799999999983,
		  "durationTicks": 240,
		  "midi": 87,
		  "name": "D#6",
		  "ticks": 7200,
		  "time": 5.80644,
		  "velocity": 0.7480314960629921
		},
		{
		  "duration": 0.19354799999999983,
		  "durationTicks": 240,
		  "midi": 82,
		  "name": "A#5",
		  "ticks": 7680,
		  "time": 6.193536,
		  "velocity": 0.7480314960629921
		},
		{
		  "duration": 0.19354800000000072,
		  "durationTicks": 240,
		  "midi": 82,
		  "name": "A#5",
		  "ticks": 8160,
		  "time": 6.580632,
		  "velocity": 0.7480314960629921
		},
		{
		  "duration": 0.19354799999999983,
		  "durationTicks": 240,
		  "midi": 82,
		  "name": "A#5",
		  "ticks": 8640,
		  "time": 6.967728,
		  "velocity": 0.7480314960629921
		},
		{
		  "duration": 0.19354799999999983,
		  "durationTicks": 240,
		  "midi": 82,
		  "name": "A#5",
		  "ticks": 9120,
		  "time": 7.354824,
		  "velocity": 0.7480314960629921
		},
		{
		  "duration": 0.19354799999999983,
		  "durationTicks": 240,
		  "midi": 82,
		  "name": "A#5",
		  "ticks": 9600,
		  "time": 7.74192,
		  "velocity": 0.7480314960629921
		},
		{
		  "duration": 0.19354799999999983,
		  "durationTicks": 240,
		  "midi": 82,
		  "name": "A#5",
		  "ticks": 10080,
		  "time": 8.129016,
		  "velocity": 0.7480314960629921
		},
		{
		  "duration": 0.19354799999999983,
		  "durationTicks": 240,
		  "midi": 82,
		  "name": "A#5",
		  "ticks": 10560,
		  "time": 8.516112,
		  "velocity": 0.7480314960629921
		},
		{
		  "duration": 0.19354799999999983,
		  "durationTicks": 240,
		  "midi": 82,
		  "name": "A#5",
		  "ticks": 11040,
		  "time": 8.903208,
		  "velocity": 0.7480314960629921
		},
		{
		  "duration": 0.1935480000000016,
		  "durationTicks": 240,
		  "midi": 85,
		  "name": "C#6",
		  "ticks": 11520,
		  "time": 9.290303999999999,
		  "velocity": 0.7480314960629921
		},
		{
		  "duration": 0.19354799999999983,
		  "durationTicks": 240,
		  "midi": 85,
		  "name": "C#6",
		  "ticks": 12000,
		  "time": 9.6774,
		  "velocity": 0.7480314960629921
		},
		{
		  "duration": 0.19354799999999983,
		  "durationTicks": 240,
		  "midi": 85,
		  "name": "C#6",
		  "ticks": 12480,
		  "time": 10.064496,
		  "velocity": 0.7480314960629921
		},
		{
		  "duration": 0.19354799999999983,
		  "durationTicks": 240,
		  "midi": 85,
		  "name": "C#6",
		  "ticks": 12960,
		  "time": 10.451592,
		  "velocity": 0.7480314960629921
		},
		{
		  "duration": 0.19354799999999983,
		  "durationTicks": 240,
		  "midi": 87,
		  "name": "D#6",
		  "ticks": 13440,
		  "time": 10.838688,
		  "velocity": 0.7480314960629921
		},
		{
		  "duration": 0.1935480000000016,
		  "durationTicks": 240,
		  "midi": 87,
		  "name": "D#6",
		  "ticks": 13920,
		  "time": 11.225783999999999,
		  "velocity": 0.7480314960629921
		},
		{
		  "duration": 0.19354799999999983,
		  "durationTicks": 240,
		  "midi": 87,
		  "name": "D#6",
		  "ticks": 14400,
		  "time": 11.61288,
		  "velocity": 0.7480314960629921
		},
		{
		  "duration": 0.19354799999999983,
		  "durationTicks": 240,
		  "midi": 87,
		  "name": "D#6",
		  "ticks": 14880,
		  "time": 11.999976,
		  "velocity": 0.7480314960629921
		},
		{
		  "duration": 0.19354799999999983,
		  "durationTicks": 240,
		  "midi": 82,
		  "name": "A#5",
		  "ticks": 15360,
		  "time": 12.387072,
		  "velocity": 0.7480314960629921
		},
		{
		  "duration": 0.19354799999999983,
		  "durationTicks": 240,
		  "midi": 82,
		  "name": "A#5",
		  "ticks": 15840,
		  "time": 12.774168,
		  "velocity": 0.7480314960629921
		},
		{
		  "duration": 0.19354799999999983,
		  "durationTicks": 240,
		  "midi": 82,
		  "name": "A#5",
		  "ticks": 16320,
		  "time": 13.161264,
		  "velocity": 0.7480314960629921
		},
		{
		  "duration": 0.19354799999999983,
		  "durationTicks": 240,
		  "midi": 82,
		  "name": "A#5",
		  "ticks": 16800,
		  "time": 13.54836,
		  "velocity": 0.7480314960629921
		},
		{
		  "duration": 0.19354799999999983,
		  "durationTicks": 240,
		  "midi": 82,
		  "name": "A#5",
		  "ticks": 17280,
		  "time": 13.935456,
		  "velocity": 0.7480314960629921
		},
		{
		  "duration": 0.19354799999999983,
		  "durationTicks": 240,
		  "midi": 82,
		  "name": "A#5",
		  "ticks": 17760,
		  "time": 14.322552,
		  "velocity": 0.7480314960629921
		},
		{
		  "duration": 0.19354799999999983,
		  "durationTicks": 240,
		  "midi": 82,
		  "name": "A#5",
		  "ticks": 18240,
		  "time": 14.709648,
		  "velocity": 0.7480314960629921
		},
		{
		  "duration": 0.19354799999999983,
		  "durationTicks": 240,
		  "midi": 82,
		  "name": "A#5",
		  "ticks": 18720,
		  "time": 15.096744,
		  "velocity": 0.7480314960629921
		},
		{
		  "duration": 0.19354799999999983,
		  "durationTicks": 240,
		  "midi": 85,
		  "name": "C#6",
		  "ticks": 19200,
		  "time": 15.48384,
		  "velocity": 0.7480314960629921
		},
		{
		  "duration": 0.19354799999999983,
		  "durationTicks": 240,
		  "midi": 85,
		  "name": "C#6",
		  "ticks": 19680,
		  "time": 15.870936,
		  "velocity": 0.7480314960629921
		},
		{
		  "duration": 0.19354799999999983,
		  "durationTicks": 240,
		  "midi": 85,
		  "name": "C#6",
		  "ticks": 20160,
		  "time": 16.258032,
		  "velocity": 0.7480314960629921
		},
		{
		  "duration": 0.19354799999999983,
		  "durationTicks": 240,
		  "midi": 85,
		  "name": "C#6",
		  "ticks": 20640,
		  "time": 16.645128,
		  "velocity": 0.7480314960629921
		},
		{
		  "duration": 0.19354799999999983,
		  "durationTicks": 240,
		  "midi": 87,
		  "name": "D#6",
		  "ticks": 21120,
		  "time": 17.032224,
		  "velocity": 0.7480314960629921
		},
		{
		  "duration": 0.19354799999999983,
		  "durationTicks": 240,
		  "midi": 87,
		  "name": "D#6",
		  "ticks": 21600,
		  "time": 17.41932,
		  "velocity": 0.7480314960629921
		},
		{
		  "duration": 0.19354799999999983,
		  "durationTicks": 240,
		  "midi": 87,
		  "name": "D#6",
		  "ticks": 22080,
		  "time": 17.806416,
		  "velocity": 0.7480314960629921
		},
		{
		  "duration": 0.19354799999999983,
		  "durationTicks": 240,
		  "midi": 87,
		  "name": "D#6",
		  "ticks": 22560,
		  "time": 18.193512,
		  "velocity": 0.7480314960629921
		},
		{
		  "duration": 0.19354800000000338,
		  "durationTicks": 240,
		  "midi": 82,
		  "name": "A#5",
		  "ticks": 23040,
		  "time": 18.580607999999998,
		  "velocity": 0.7480314960629921
		},
		{
		  "duration": 0.19354799999999983,
		  "durationTicks": 240,
		  "midi": 82,
		  "name": "A#5",
		  "ticks": 23520,
		  "time": 18.967704,
		  "velocity": 0.7480314960629921
		},
		{
		  "duration": 0.19354799999999983,
		  "durationTicks": 240,
		  "midi": 82,
		  "name": "A#5",
		  "ticks": 24000,
		  "time": 19.3548,
		  "velocity": 0.7480314960629921
		},
		{
		  "duration": 0.19354799999999983,
		  "durationTicks": 240,
		  "midi": 82,
		  "name": "A#5",
		  "ticks": 24480,
		  "time": 19.741896,
		  "velocity": 0.7480314960629921
		},
		{
		  "duration": 0.19354799999999983,
		  "durationTicks": 240,
		  "midi": 82,
		  "name": "A#5",
		  "ticks": 24960,
		  "time": 20.128992,
		  "velocity": 0.7480314960629921
		},
		{
		  "duration": 0.19354799999999983,
		  "durationTicks": 240,
		  "midi": 82,
		  "name": "A#5",
		  "ticks": 25440,
		  "time": 20.516088,
		  "velocity": 0.7480314960629921
		},
		{
		  "duration": 0.19354799999999983,
		  "durationTicks": 240,
		  "midi": 82,
		  "name": "A#5",
		  "ticks": 25920,
		  "time": 20.903184,
		  "velocity": 0.7480314960629921
		},
		{
		  "duration": 0.19354799999999983,
		  "durationTicks": 240,
		  "midi": 82,
		  "name": "A#5",
		  "ticks": 26400,
		  "time": 21.29028,
		  "velocity": 0.7480314960629921
		},
		{
		  "duration": 0.19354799999999983,
		  "durationTicks": 240,
		  "midi": 85,
		  "name": "C#6",
		  "ticks": 26880,
		  "time": 21.677376,
		  "velocity": 0.7480314960629921
		},
		{
		  "duration": 0.19354799999999983,
		  "durationTicks": 240,
		  "midi": 85,
		  "name": "C#6",
		  "ticks": 27360,
		  "time": 22.064472,
		  "velocity": 0.7480314960629921
		},
		{
		  "duration": 0.19354799999999983,
		  "durationTicks": 240,
		  "midi": 85,
		  "name": "C#6",
		  "ticks": 27840,
		  "time": 22.451567999999998,
		  "velocity": 0.7480314960629921
		},
		{
		  "duration": 0.19354799999999983,
		  "durationTicks": 240,
		  "midi": 85,
		  "name": "C#6",
		  "ticks": 28320,
		  "time": 22.838664,
		  "velocity": 0.7480314960629921
		},
		{
		  "duration": 0.19354799999999983,
		  "durationTicks": 240,
		  "midi": 87,
		  "name": "D#6",
		  "ticks": 28800,
		  "time": 23.22576,
		  "velocity": 0.7480314960629921
		},
		{
		  "duration": 0.19354799999999983,
		  "durationTicks": 240,
		  "midi": 87,
		  "name": "D#6",
		  "ticks": 29280,
		  "time": 23.612856,
		  "velocity": 0.7480314960629921
		},
		{
		  "duration": 0.19354799999999983,
		  "durationTicks": 240,
		  "midi": 87,
		  "name": "D#6",
		  "ticks": 29760,
		  "time": 23.999952,
		  "velocity": 0.7480314960629921
		},
		{
		  "duration": 0.19354799999999983,
		  "durationTicks": 240,
		  "midi": 87,
		  "name": "D#6",
		  "ticks": 30240,
		  "time": 24.387048,
		  "velocity": 0.7480314960629921
		},
		{
		  "duration": 0.19354799999999983,
		  "durationTicks": 240,
		  "midi": 82,
		  "name": "A#5",
		  "ticks": 38400,
		  "time": 30.96768,
		  "velocity": 0.7480314960629921
		},
		{
		  "duration": 0.19354799999999983,
		  "durationTicks": 240,
		  "midi": 82,
		  "name": "A#5",
		  "ticks": 38880,
		  "time": 31.354776,
		  "velocity": 0.7480314960629921
		},
		{
		  "duration": 0.19354799999999983,
		  "durationTicks": 240,
		  "midi": 80,
		  "name": "G#5",
		  "ticks": 39120,
		  "time": 31.548324,
		  "velocity": 0.7480314960629921
		},
		{
		  "duration": 0.19354799999999983,
		  "durationTicks": 240,
		  "midi": 80,
		  "name": "G#5",
		  "ticks": 39600,
		  "time": 31.93542,
		  "velocity": 0.7480314960629921
		},
		{
		  "duration": 0.19354799999999983,
		  "durationTicks": 240,
		  "midi": 80,
		  "name": "G#5",
		  "ticks": 40080,
		  "time": 32.322516,
		  "velocity": 0.7480314960629921
		},
		{
		  "duration": 0.19354799999999983,
		  "durationTicks": 240,
		  "midi": 82,
		  "name": "A#5",
		  "ticks": 40560,
		  "time": 32.709612,
		  "velocity": 0.7480314960629921
		},
		{
		  "duration": 0.19354799999999983,
		  "durationTicks": 240,
		  "midi": 80,
		  "name": "G#5",
		  "ticks": 40800,
		  "time": 32.90316,
		  "velocity": 0.7480314960629921
		},
		{
		  "duration": 0.19354799999999983,
		  "durationTicks": 240,
		  "midi": 82,
		  "name": "A#5",
		  "ticks": 41040,
		  "time": 33.096708,
		  "velocity": 0.7480314960629921
		},
		{
		  "duration": 0.19354799999999983,
		  "durationTicks": 240,
		  "midi": 82,
		  "name": "A#5",
		  "ticks": 41520,
		  "time": 33.483804,
		  "velocity": 0.7480314960629921
		},
		{
		  "duration": 0.19354799999999983,
		  "durationTicks": 240,
		  "midi": 80,
		  "name": "G#5",
		  "ticks": 41760,
		  "time": 33.677352,
		  "velocity": 0.7480314960629921
		},
		{
		  "duration": 0.19354799999999983,
		  "durationTicks": 240,
		  "midi": 82,
		  "name": "A#5",
		  "ticks": 42000,
		  "time": 33.8709,
		  "velocity": 0.7480314960629921
		},
		{
		  "duration": 0.19354799999999983,
		  "durationTicks": 240,
		  "midi": 82,
		  "name": "A#5",
		  "ticks": 42480,
		  "time": 34.257996,
		  "velocity": 0.7480314960629921
		},
		{
		  "duration": 0.19354799999999983,
		  "durationTicks": 240,
		  "midi": 80,
		  "name": "G#5",
		  "ticks": 42720,
		  "time": 34.451544,
		  "velocity": 0.7480314960629921
		},
		{
		  "duration": 0.19354799999999983,
		  "durationTicks": 240,
		  "midi": 82,
		  "name": "A#5",
		  "ticks": 42960,
		  "time": 34.645092,
		  "velocity": 0.7480314960629921
		},
		{
		  "duration": 0.19354799999999983,
		  "durationTicks": 240,
		  "midi": 82,
		  "name": "A#5",
		  "ticks": 43440,
		  "time": 35.032188,
		  "velocity": 0.7480314960629921
		},
		{
		  "duration": 0.19354799999999983,
		  "durationTicks": 240,
		  "midi": 80,
		  "name": "G#5",
		  "ticks": 43680,
		  "time": 35.225736,
		  "velocity": 0.7480314960629921
		},
		{
		  "duration": 0.19354799999999983,
		  "durationTicks": 240,
		  "midi": 82,
		  "name": "A#5",
		  "ticks": 43920,
		  "time": 35.419284,
		  "velocity": 0.7480314960629921
		},
		{
		  "duration": 0.19354799999999983,
		  "durationTicks": 240,
		  "midi": 82,
		  "name": "A#5",
		  "ticks": 44400,
		  "time": 35.80638,
		  "velocity": 0.7480314960629921
		},
		{
		  "duration": 0.19354799999999983,
		  "durationTicks": 240,
		  "midi": 80,
		  "name": "G#5",
		  "ticks": 44640,
		  "time": 35.999928,
		  "velocity": 0.7480314960629921
		},
		{
		  "duration": 0.19354799999999983,
		  "durationTicks": 240,
		  "midi": 82,
		  "name": "A#5",
		  "ticks": 44880,
		  "time": 36.193476,
		  "velocity": 0.7480314960629921
		},
		{
		  "duration": 0.19354799999999983,
		  "durationTicks": 240,
		  "midi": 82,
		  "name": "A#5",
		  "ticks": 45360,
		  "time": 36.580572,
		  "velocity": 0.7480314960629921
		},
		{
		  "duration": 0.19354799999999983,
		  "durationTicks": 240,
		  "midi": 80,
		  "name": "G#5",
		  "ticks": 45600,
		  "time": 36.774119999999996,
		  "velocity": 0.7480314960629921
		},
		{
		  "duration": 0.19354799999999983,
		  "durationTicks": 240,
		  "midi": 82,
		  "name": "A#5",
		  "ticks": 45840,
		  "time": 36.967667999999996,
		  "velocity": 0.7480314960629921
		},
		{
		  "duration": 0.19354799999999983,
		  "durationTicks": 240,
		  "midi": 82,
		  "name": "A#5",
		  "ticks": 53760,
		  "time": 43.354752,
		  "velocity": 0.7480314960629921
		},
		{
		  "duration": 0.19354799999999983,
		  "durationTicks": 240,
		  "midi": 82,
		  "name": "A#5",
		  "ticks": 54240,
		  "time": 43.741848,
		  "velocity": 0.7480314960629921
		},
		{
		  "duration": 0.19354799999999983,
		  "durationTicks": 240,
		  "midi": 80,
		  "name": "G#5",
		  "ticks": 54480,
		  "time": 43.935396,
		  "velocity": 0.7480314960629921
		},
		{
		  "duration": 0.19354799999999983,
		  "durationTicks": 240,
		  "midi": 80,
		  "name": "G#5",
		  "ticks": 54960,
		  "time": 44.322492,
		  "velocity": 0.7480314960629921
		},
		{
		  "duration": 0.19354799999999983,
		  "durationTicks": 240,
		  "midi": 80,
		  "name": "G#5",
		  "ticks": 55440,
		  "time": 44.709588,
		  "velocity": 0.7480314960629921
		},
		{
		  "duration": 0.19354799999999983,
		  "durationTicks": 240,
		  "midi": 82,
		  "name": "A#5",
		  "ticks": 55920,
		  "time": 45.096683999999996,
		  "velocity": 0.7480314960629921
		},
		{
		  "duration": 0.19354800000000694,
		  "durationTicks": 240,
		  "midi": 80,
		  "name": "G#5",
		  "ticks": 56160,
		  "time": 45.290231999999996,
		  "velocity": 0.7480314960629921
		},
		{
		  "duration": 0.19354799999999983,
		  "durationTicks": 240,
		  "midi": 82,
		  "name": "A#5",
		  "ticks": 56400,
		  "time": 45.48378,
		  "velocity": 0.7480314960629921
		},
		{
		  "duration": 0.19354799999999983,
		  "durationTicks": 240,
		  "midi": 82,
		  "name": "A#5",
		  "ticks": 56880,
		  "time": 45.870876,
		  "velocity": 0.7480314960629921
		},
		{
		  "duration": 0.19354799999999983,
		  "durationTicks": 240,
		  "midi": 80,
		  "name": "G#5",
		  "ticks": 57120,
		  "time": 46.064424,
		  "velocity": 0.7480314960629921
		},
		{
		  "duration": 0.19354799999999983,
		  "durationTicks": 240,
		  "midi": 82,
		  "name": "A#5",
		  "ticks": 57360,
		  "time": 46.257972,
		  "velocity": 0.7480314960629921
		},
		{
		  "duration": 0.19354799999999983,
		  "durationTicks": 240,
		  "midi": 82,
		  "name": "A#5",
		  "ticks": 57840,
		  "time": 46.645068,
		  "velocity": 0.7480314960629921
		},
		{
		  "duration": 0.19354799999999983,
		  "durationTicks": 240,
		  "midi": 80,
		  "name": "G#5",
		  "ticks": 58080,
		  "time": 46.838616,
		  "velocity": 0.7480314960629921
		},
		{
		  "duration": 0.19354799999999983,
		  "durationTicks": 240,
		  "midi": 82,
		  "name": "A#5",
		  "ticks": 58320,
		  "time": 47.032164,
		  "velocity": 0.7480314960629921
		},
		{
		  "duration": 0.19354799999999983,
		  "durationTicks": 240,
		  "midi": 82,
		  "name": "A#5",
		  "ticks": 58800,
		  "time": 47.41926,
		  "velocity": 0.7480314960629921
		},
		{
		  "duration": 0.19354799999999983,
		  "durationTicks": 240,
		  "midi": 80,
		  "name": "G#5",
		  "ticks": 59040,
		  "time": 47.612808,
		  "velocity": 0.7480314960629921
		},
		{
		  "duration": 0.19354799999999983,
		  "durationTicks": 240,
		  "midi": 82,
		  "name": "A#5",
		  "ticks": 59280,
		  "time": 47.806356,
		  "velocity": 0.7480314960629921
		},
		{
		  "duration": 0.19354799999999983,
		  "durationTicks": 240,
		  "midi": 82,
		  "name": "A#5",
		  "ticks": 59520,
		  "time": 47.999904,
		  "velocity": 0.7480314960629921
		},
		{
		  "duration": 0.19354799999999983,
		  "durationTicks": 240,
		  "midi": 82,
		  "name": "A#5",
		  "ticks": 60000,
		  "time": 48.387,
		  "velocity": 0.7480314960629921
		},
		{
		  "duration": 0.19354799999999983,
		  "durationTicks": 240,
		  "midi": 82,
		  "name": "A#5",
		  "ticks": 60480,
		  "time": 48.774096,
		  "velocity": 0.7480314960629921
		},
		{
		  "duration": 0.19354799999999983,
		  "durationTicks": 240,
		  "midi": 82,
		  "name": "A#5",
		  "ticks": 60960,
		  "time": 49.161192,
		  "velocity": 0.7480314960629921
		},
		{
		  "duration": 0.19354799999999983,
		  "durationTicks": 240,
		  "midi": 80,
		  "name": "G#5",
		  "ticks": 61200,
		  "time": 49.35474,
		  "velocity": 0.7480314960629921
		},
		{
		  "duration": 0.19354799999999983,
		  "durationTicks": 240,
		  "midi": 80,
		  "name": "G#5",
		  "ticks": 61680,
		  "time": 49.741836,
		  "velocity": 0.7480314960629921
		},
		{
		  "duration": 0.19354799999999983,
		  "durationTicks": 240,
		  "midi": 80,
		  "name": "G#5",
		  "ticks": 61920,
		  "time": 49.935384,
		  "velocity": 0.7480314960629921
		},
		{
		  "duration": 0.19354799999999983,
		  "durationTicks": 240,
		  "midi": 82,
		  "name": "A#5",
		  "ticks": 62160,
		  "time": 50.128932,
		  "velocity": 0.7480314960629921
		},
		{
		  "duration": 0.38709599999999966,
		  "durationTicks": 480,
		  "midi": 70,
		  "name": "A#4",
		  "ticks": 63840,
		  "time": 51.483768,
		  "velocity": 0.7480314960629921
		},
		{
		  "duration": 0.19354799999999983,
		  "durationTicks": 240,
		  "midi": 68,
		  "name": "G#4",
		  "ticks": 64320,
		  "time": 51.870864,
		  "velocity": 0.7480314960629921
		},
		{
		  "duration": 0.19354799999999983,
		  "durationTicks": 240,
		  "midi": 70,
		  "name": "A#4",
		  "ticks": 64560,
		  "time": 52.064412,
		  "velocity": 0.7480314960629921
		},
		{
		  "duration": 0.38709599999999966,
		  "durationTicks": 480,
		  "midi": 70,
		  "name": "A#4",
		  "ticks": 65040,
		  "time": 52.451508,
		  "velocity": 0.7480314960629921
		},
		{
		  "duration": 0.38709599999999966,
		  "durationTicks": 480,
		  "midi": 70,
		  "name": "A#4",
		  "ticks": 65760,
		  "time": 53.032151999999996,
		  "velocity": 0.7480314960629921
		},
		{
		  "duration": 0.38709600000000677,
		  "durationTicks": 480,
		  "midi": 73,
		  "name": "C#5",
		  "ticks": 66240,
		  "time": 53.419247999999996,
		  "velocity": 0.7480314960629921
		},
		{
		  "duration": 0.38709599999999966,
		  "durationTicks": 480,
		  "midi": 70,
		  "name": "A#4",
		  "ticks": 66720,
		  "time": 53.806344,
		  "velocity": 0.7480314960629921
		},
		{
		  "duration": 0.19354799999999983,
		  "durationTicks": 240,
		  "midi": 70,
		  "name": "A#4",
		  "ticks": 67680,
		  "time": 54.580536,
		  "velocity": 0.7480314960629921
		},
		{
		  "duration": 0.2903219999999962,
		  "durationTicks": 360,
		  "midi": 68,
		  "name": "G#4",
		  "ticks": 67920,
		  "time": 54.774084,
		  "velocity": 0.7480314960629921
		},
		{
		  "duration": 0.2903219999999962,
		  "durationTicks": 360,
		  "midi": 68,
		  "name": "G#4",
		  "ticks": 68400,
		  "time": 55.16118,
		  "velocity": 0.7480314960629921
		},
		{
		  "duration": 0.38709599999999966,
		  "durationTicks": 480,
		  "midi": 68,
		  "name": "G#4",
		  "ticks": 68880,
		  "time": 55.548276,
		  "velocity": 0.7480314960629921
		},
		{
		  "duration": 0.2903219999999962,
		  "durationTicks": 360,
		  "midi": 70,
		  "name": "A#4",
		  "ticks": 69360,
		  "time": 55.935372,
		  "velocity": 0.7480314960629921
		},
		{
		  "duration": 0.5806439999999995,
		  "durationTicks": 720,
		  "midi": 70,
		  "name": "A#4",
		  "ticks": 69840,
		  "time": 56.322468,
		  "velocity": 0.7480314960629921
		},
		{
		  "duration": 0.48387000000000313,
		  "durationTicks": 600,
		  "midi": 68,
		  "name": "G#4",
		  "ticks": 71520,
		  "time": 57.677304,
		  "velocity": 0.7480314960629921
		},
		{
		  "duration": 0.38709599999999966,
		  "durationTicks": 480,
		  "midi": 68,
		  "name": "G#4",
		  "ticks": 72240,
		  "time": 58.257948,
		  "velocity": 0.7480314960629921
		},
		{
		  "duration": 0.38709599999999966,
		  "durationTicks": 480,
		  "midi": 65,
		  "name": "F4",
		  "ticks": 73920,
		  "time": 59.612784,
		  "velocity": 0.7480314960629921
		},
		{
		  "duration": 0.38709599999999966,
		  "durationTicks": 480,
		  "midi": 61,
		  "name": "C#4",
		  "ticks": 74400,
		  "time": 59.99988,
		  "velocity": 0.7480314960629921
		},
		{
		  "duration": 0.5806439999999995,
		  "durationTicks": 720,
		  "midi": 60,
		  "name": "C4",
		  "ticks": 75120,
		  "time": 60.580524,
		  "velocity": 0.7480314960629921
		},
		{
		  "duration": 0.38709599999999966,
		  "durationTicks": 480,
		  "midi": 56,
		  "name": "G#3",
		  "ticks": 75840,
		  "time": 61.161167999999996,
		  "velocity": 0.7480314960629921
		},
		{
		  "duration": 0.38709600000000677,
		  "durationTicks": 480,
		  "midi": 60,
		  "name": "C4",
		  "ticks": 76320,
		  "time": 61.548263999999996,
		  "velocity": 0.7480314960629921
		},
		{
		  "duration": 0.38709599999999966,
		  "durationTicks": 480,
		  "midi": 65,
		  "name": "F4",
		  "ticks": 78000,
		  "time": 62.9031,
		  "velocity": 0.7480314960629921
		},
		{
		  "duration": 0.5806439999999995,
		  "durationTicks": 720,
		  "midi": 72,
		  "name": "C5",
		  "ticks": 78480,
		  "time": 63.290196,
		  "velocity": 0.7480314960629921
		},
		{
		  "duration": 0.38709599999999966,
		  "durationTicks": 480,
		  "midi": 70,
		  "name": "A#4",
		  "ticks": 79200,
		  "time": 63.87084,
		  "velocity": 0.7480314960629921
		},
		{
		  "duration": 0.19354799999999273,
		  "durationTicks": 240,
		  "midi": 68,
		  "name": "G#4",
		  "ticks": 79680,
		  "time": 64.257936,
		  "velocity": 0.7480314960629921
		},
		{
		  "duration": 0.38709599999999966,
		  "durationTicks": 480,
		  "midi": 70,
		  "name": "A#4",
		  "ticks": 79920,
		  "time": 64.451484,
		  "velocity": 0.7480314960629921
		},
		{
		  "duration": 0.5806440000000066,
		  "durationTicks": 720,
		  "midi": 70,
		  "name": "A#4",
		  "ticks": 80400,
		  "time": 64.83858,
		  "velocity": 0.7480314960629921
		},
		{
		  "duration": 0.38709599999999966,
		  "durationTicks": 480,
		  "midi": 70,
		  "name": "A#4",
		  "ticks": 81120,
		  "time": 65.419224,
		  "velocity": 0.7480314960629921
		},
		{
		  "duration": 0.38709599999999966,
		  "durationTicks": 480,
		  "midi": 73,
		  "name": "C#5",
		  "ticks": 81600,
		  "time": 65.80632,
		  "velocity": 0.7480314960629921
		},
		{
		  "duration": 0.38709599999999966,
		  "durationTicks": 480,
		  "midi": 70,
		  "name": "A#4",
		  "ticks": 82080,
		  "time": 66.193416,
		  "velocity": 0.7480314960629921
		},
		{
		  "duration": 0.38709599999999966,
		  "durationTicks": 480,
		  "midi": 75,
		  "name": "D#5",
		  "ticks": 83040,
		  "time": 66.967608,
		  "velocity": 0.7480314960629921
		},
		{
		  "duration": 0.38709599999999966,
		  "durationTicks": 480,
		  "midi": 77,
		  "name": "F5",
		  "ticks": 83760,
		  "time": 67.548252,
		  "velocity": 0.7480314960629921
		},
		{
		  "duration": 0.38709599999999966,
		  "durationTicks": 480,
		  "midi": 73,
		  "name": "C#5",
		  "ticks": 84480,
		  "time": 68.128896,
		  "velocity": 0.7480314960629921
		},
		{
		  "duration": 0.38709599999999966,
		  "durationTicks": 480,
		  "midi": 72,
		  "name": "C5",
		  "ticks": 85200,
		  "time": 68.70954,
		  "velocity": 0.7480314960629921
		},
		{
		  "duration": 0.38709599999999966,
		  "durationTicks": 480,
		  "midi": 68,
		  "name": "G#4",
		  "ticks": 85920,
		  "time": 69.290184,
		  "velocity": 0.7480314960629921
		},
		{
		  "duration": 0.5806440000000066,
		  "durationTicks": 720,
		  "midi": 70,
		  "name": "A#4",
		  "ticks": 86880,
		  "time": 70.064376,
		  "velocity": 0.7480314960629921
		},
		{
		  "duration": 0.38709599999999966,
		  "durationTicks": 480,
		  "midi": 77,
		  "name": "F5",
		  "ticks": 87600,
		  "time": 70.64502,
		  "velocity": 0.7480314960629921
		},
		{
		  "duration": 0.5806440000000066,
		  "durationTicks": 720,
		  "midi": 75,
		  "name": "D#5",
		  "ticks": 88320,
		  "time": 71.225664,
		  "velocity": 0.7480314960629921
		},
		{
		  "duration": 0.5806439999999924,
		  "durationTicks": 720,
		  "midi": 73,
		  "name": "C#5",
		  "ticks": 89040,
		  "time": 71.806308,
		  "velocity": 0.7480314960629921
		},
		{
		  "duration": 0.38709599999999966,
		  "durationTicks": 480,
		  "midi": 75,
		  "name": "D#5",
		  "ticks": 89760,
		  "time": 72.386952,
		  "velocity": 0.7480314960629921
		},
		{
		  "duration": 1.5483839999999987,
		  "durationTicks": 1920,
		  "midi": 77,
		  "name": "F5",
		  "ticks": 90240,
		  "time": 72.774048,
		  "velocity": 0.7480314960629921
		},
		{
		  "duration": 3.0967680000000115,
		  "durationTicks": 3840,
		  "midi": 82,
		  "name": "A#5",
		  "ticks": 92160,
		  "time": 74.32243199999999,
		  "velocity": 0.7480314960629921
		},
		{
		  "duration": 0.19354799999999273,
		  "durationTicks": 240,
		  "midi": 82,
		  "name": "A#5",
		  "ticks": 99840,
		  "time": 80.515968,
		  "velocity": 0.7480314960629921
		},
		{
		  "duration": 0.19354799999999273,
		  "durationTicks": 240,
		  "midi": 82,
		  "name": "A#5",
		  "ticks": 100320,
		  "time": 80.903064,
		  "velocity": 0.7480314960629921
		},
		{
		  "duration": 0.19354799999999273,
		  "durationTicks": 240,
		  "midi": 82,
		  "name": "A#5",
		  "ticks": 100800,
		  "time": 81.29016,
		  "velocity": 0.7480314960629921
		},
		{
		  "duration": 0.19354799999999273,
		  "durationTicks": 240,
		  "midi": 82,
		  "name": "A#5",
		  "ticks": 101280,
		  "time": 81.677256,
		  "velocity": 0.7480314960629921
		},
		{
		  "duration": 0.19354799999999273,
		  "durationTicks": 240,
		  "midi": 82,
		  "name": "A#5",
		  "ticks": 101760,
		  "time": 82.064352,
		  "velocity": 0.7480314960629921
		},
		{
		  "duration": 0.19354800000000694,
		  "durationTicks": 240,
		  "midi": 82,
		  "name": "A#5",
		  "ticks": 102240,
		  "time": 82.451448,
		  "velocity": 0.7480314960629921
		},
		{
		  "duration": 0.19354800000000694,
		  "durationTicks": 240,
		  "midi": 82,
		  "name": "A#5",
		  "ticks": 102720,
		  "time": 82.838544,
		  "velocity": 0.7480314960629921
		},
		{
		  "duration": 0.19354800000000694,
		  "durationTicks": 240,
		  "midi": 82,
		  "name": "A#5",
		  "ticks": 103200,
		  "time": 83.22564,
		  "velocity": 0.7480314960629921
		},
		{
		  "duration": 0.19354800000000694,
		  "durationTicks": 240,
		  "midi": 85,
		  "name": "C#6",
		  "ticks": 103680,
		  "time": 83.612736,
		  "velocity": 0.7480314960629921
		},
		{
		  "duration": 0.19354800000000694,
		  "durationTicks": 240,
		  "midi": 85,
		  "name": "C#6",
		  "ticks": 104160,
		  "time": 83.999832,
		  "velocity": 0.7480314960629921
		},
		{
		  "duration": 0.19354800000000694,
		  "durationTicks": 240,
		  "midi": 85,
		  "name": "C#6",
		  "ticks": 104640,
		  "time": 84.386928,
		  "velocity": 0.7480314960629921
		},
		{
		  "duration": 0.19354800000000694,
		  "durationTicks": 240,
		  "midi": 85,
		  "name": "C#6",
		  "ticks": 105120,
		  "time": 84.774024,
		  "velocity": 0.7480314960629921
		},
		{
		  "duration": 0.19354800000000694,
		  "durationTicks": 240,
		  "midi": 87,
		  "name": "D#6",
		  "ticks": 105600,
		  "time": 85.16112,
		  "velocity": 0.7480314960629921
		},
		{
		  "duration": 0.19354800000000694,
		  "durationTicks": 240,
		  "midi": 87,
		  "name": "D#6",
		  "ticks": 106080,
		  "time": 85.548216,
		  "velocity": 0.7480314960629921
		},
		{
		  "duration": 0.19354800000000694,
		  "durationTicks": 240,
		  "midi": 87,
		  "name": "D#6",
		  "ticks": 106560,
		  "time": 85.935312,
		  "velocity": 0.7480314960629921
		},
		{
		  "duration": 0.19354800000000694,
		  "durationTicks": 240,
		  "midi": 87,
		  "name": "D#6",
		  "ticks": 107040,
		  "time": 86.322408,
		  "velocity": 0.7480314960629921
		},
		{
		  "duration": 0.19354800000000694,
		  "durationTicks": 240,
		  "midi": 82,
		  "name": "A#5",
		  "ticks": 107520,
		  "time": 86.709504,
		  "velocity": 0.7480314960629921
		},
		{
		  "duration": 0.19354800000000694,
		  "durationTicks": 240,
		  "midi": 82,
		  "name": "A#5",
		  "ticks": 108000,
		  "time": 87.0966,
		  "velocity": 0.7480314960629921
		},
		{
		  "duration": 0.19354800000000694,
		  "durationTicks": 240,
		  "midi": 82,
		  "name": "A#5",
		  "ticks": 108480,
		  "time": 87.483696,
		  "velocity": 0.7480314960629921
		},
		{
		  "duration": 0.19354800000000694,
		  "durationTicks": 240,
		  "midi": 82,
		  "name": "A#5",
		  "ticks": 108960,
		  "time": 87.870792,
		  "velocity": 0.7480314960629921
		},
		{
		  "duration": 0.19354800000000694,
		  "durationTicks": 240,
		  "midi": 82,
		  "name": "A#5",
		  "ticks": 109440,
		  "time": 88.257888,
		  "velocity": 0.7480314960629921
		},
		{
		  "duration": 0.19354800000000694,
		  "durationTicks": 240,
		  "midi": 82,
		  "name": "A#5",
		  "ticks": 109920,
		  "time": 88.644984,
		  "velocity": 0.7480314960629921
		},
		{
		  "duration": 0.19354800000000694,
		  "durationTicks": 240,
		  "midi": 82,
		  "name": "A#5",
		  "ticks": 110400,
		  "time": 89.03208,
		  "velocity": 0.7480314960629921
		},
		{
		  "duration": 0.19354800000000694,
		  "durationTicks": 240,
		  "midi": 82,
		  "name": "A#5",
		  "ticks": 110880,
		  "time": 89.419176,
		  "velocity": 0.7480314960629921
		},
		{
		  "duration": 0.19354800000000694,
		  "durationTicks": 240,
		  "midi": 85,
		  "name": "C#6",
		  "ticks": 111360,
		  "time": 89.80627199999999,
		  "velocity": 0.7480314960629921
		},
		{
		  "duration": 0.19354800000000694,
		  "durationTicks": 240,
		  "midi": 85,
		  "name": "C#6",
		  "ticks": 111840,
		  "time": 90.19336799999999,
		  "velocity": 0.7480314960629921
		},
		{
		  "duration": 0.19354800000000694,
		  "durationTicks": 240,
		  "midi": 85,
		  "name": "C#6",
		  "ticks": 112320,
		  "time": 90.58046399999999,
		  "velocity": 0.7480314960629921
		},
		{
		  "duration": 0.19354799999999273,
		  "durationTicks": 240,
		  "midi": 85,
		  "name": "C#6",
		  "ticks": 112800,
		  "time": 90.96756,
		  "velocity": 0.7480314960629921
		},
		{
		  "duration": 0.19354799999999273,
		  "durationTicks": 240,
		  "midi": 87,
		  "name": "D#6",
		  "ticks": 113280,
		  "time": 91.354656,
		  "velocity": 0.7480314960629921
		},
		{
		  "duration": 0.19354799999999273,
		  "durationTicks": 240,
		  "midi": 87,
		  "name": "D#6",
		  "ticks": 113760,
		  "time": 91.741752,
		  "velocity": 0.7480314960629921
		},
		{
		  "duration": 0.19354799999999273,
		  "durationTicks": 240,
		  "midi": 87,
		  "name": "D#6",
		  "ticks": 114240,
		  "time": 92.128848,
		  "velocity": 0.7480314960629921
		},
		{
		  "duration": 0.19354799999999273,
		  "durationTicks": 240,
		  "midi": 87,
		  "name": "D#6",
		  "ticks": 114720,
		  "time": 92.515944,
		  "velocity": 0.7480314960629921
		},
		{
		  "duration": 0.19354799999999273,
		  "durationTicks": 240,
		  "midi": 82,
		  "name": "A#5",
		  "ticks": 115200,
		  "time": 92.90304,
		  "velocity": 0.7480314960629921
		},
		{
		  "duration": 0.19354799999999273,
		  "durationTicks": 240,
		  "midi": 82,
		  "name": "A#5",
		  "ticks": 115680,
		  "time": 93.290136,
		  "velocity": 0.7480314960629921
		},
		{
		  "duration": 0.19354799999999273,
		  "durationTicks": 240,
		  "midi": 82,
		  "name": "A#5",
		  "ticks": 116160,
		  "time": 93.677232,
		  "velocity": 0.7480314960629921
		},
		{
		  "duration": 0.19354799999999273,
		  "durationTicks": 240,
		  "midi": 82,
		  "name": "A#5",
		  "ticks": 116640,
		  "time": 94.064328,
		  "velocity": 0.7480314960629921
		},
		{
		  "duration": 0.19354799999999273,
		  "durationTicks": 240,
		  "midi": 82,
		  "name": "A#5",
		  "ticks": 117120,
		  "time": 94.451424,
		  "velocity": 0.7480314960629921
		},
		{
		  "duration": 0.19354799999999273,
		  "durationTicks": 240,
		  "midi": 82,
		  "name": "A#5",
		  "ticks": 117600,
		  "time": 94.83852,
		  "velocity": 0.7480314960629921
		},
		{
		  "duration": 0.19354799999999273,
		  "durationTicks": 240,
		  "midi": 82,
		  "name": "A#5",
		  "ticks": 118080,
		  "time": 95.225616,
		  "velocity": 0.7480314960629921
		},
		{
		  "duration": 0.19354799999999273,
		  "durationTicks": 240,
		  "midi": 82,
		  "name": "A#5",
		  "ticks": 118560,
		  "time": 95.612712,
		  "velocity": 0.7480314960629921
		},
		{
		  "duration": 0.19354799999999273,
		  "durationTicks": 240,
		  "midi": 85,
		  "name": "C#6",
		  "ticks": 119040,
		  "time": 95.999808,
		  "velocity": 0.7480314960629921
		},
		{
		  "duration": 0.19354799999999273,
		  "durationTicks": 240,
		  "midi": 85,
		  "name": "C#6",
		  "ticks": 119520,
		  "time": 96.386904,
		  "velocity": 0.7480314960629921
		},
		{
		  "duration": 0.19354799999999273,
		  "durationTicks": 240,
		  "midi": 85,
		  "name": "C#6",
		  "ticks": 120000,
		  "time": 96.774,
		  "velocity": 0.7480314960629921
		},
		{
		  "duration": 0.19354799999999273,
		  "durationTicks": 240,
		  "midi": 85,
		  "name": "C#6",
		  "ticks": 120480,
		  "time": 97.161096,
		  "velocity": 0.7480314960629921
		},
		{
		  "duration": 0.19354799999999273,
		  "durationTicks": 240,
		  "midi": 87,
		  "name": "D#6",
		  "ticks": 120960,
		  "time": 97.548192,
		  "velocity": 0.7480314960629921
		},
		{
		  "duration": 0.19354799999999273,
		  "durationTicks": 240,
		  "midi": 87,
		  "name": "D#6",
		  "ticks": 121440,
		  "time": 97.935288,
		  "velocity": 0.7480314960629921
		},
		{
		  "duration": 0.19354799999999273,
		  "durationTicks": 240,
		  "midi": 87,
		  "name": "D#6",
		  "ticks": 121920,
		  "time": 98.322384,
		  "velocity": 0.7480314960629921
		},
		{
		  "duration": 0.19354799999999273,
		  "durationTicks": 240,
		  "midi": 87,
		  "name": "D#6",
		  "ticks": 122400,
		  "time": 98.70948,
		  "velocity": 0.7480314960629921
		},
		{
		  "duration": 0.19354800000000694,
		  "durationTicks": 240,
		  "midi": 82,
		  "name": "A#5",
		  "ticks": 122880,
		  "time": 99.096576,
		  "velocity": 0.7480314960629921
		},
		{
		  "duration": 0.19354800000000694,
		  "durationTicks": 240,
		  "midi": 82,
		  "name": "A#5",
		  "ticks": 123360,
		  "time": 99.483672,
		  "velocity": 0.7480314960629921
		},
		{
		  "duration": 0.19354800000000694,
		  "durationTicks": 240,
		  "midi": 82,
		  "name": "A#5",
		  "ticks": 123840,
		  "time": 99.870768,
		  "velocity": 0.7480314960629921
		},
		{
		  "duration": 0.19354800000000694,
		  "durationTicks": 240,
		  "midi": 82,
		  "name": "A#5",
		  "ticks": 124320,
		  "time": 100.257864,
		  "velocity": 0.7480314960629921
		},
		{
		  "duration": 0.19354800000000694,
		  "durationTicks": 240,
		  "midi": 82,
		  "name": "A#5",
		  "ticks": 124800,
		  "time": 100.64496,
		  "velocity": 0.7480314960629921
		},
		{
		  "duration": 0.19354800000000694,
		  "durationTicks": 240,
		  "midi": 82,
		  "name": "A#5",
		  "ticks": 125280,
		  "time": 101.032056,
		  "velocity": 0.7480314960629921
		},
		{
		  "duration": 0.19354800000000694,
		  "durationTicks": 240,
		  "midi": 82,
		  "name": "A#5",
		  "ticks": 125760,
		  "time": 101.419152,
		  "velocity": 0.7480314960629921
		},
		{
		  "duration": 0.19354800000000694,
		  "durationTicks": 240,
		  "midi": 82,
		  "name": "A#5",
		  "ticks": 126240,
		  "time": 101.806248,
		  "velocity": 0.7480314960629921
		},
		{
		  "duration": 0.19354800000000694,
		  "durationTicks": 240,
		  "midi": 85,
		  "name": "C#6",
		  "ticks": 126720,
		  "time": 102.193344,
		  "velocity": 0.7480314960629921
		},
		{
		  "duration": 0.19354800000000694,
		  "durationTicks": 240,
		  "midi": 85,
		  "name": "C#6",
		  "ticks": 127200,
		  "time": 102.58044,
		  "velocity": 0.7480314960629921
		},
		{
		  "duration": 0.19354800000000694,
		  "durationTicks": 240,
		  "midi": 85,
		  "name": "C#6",
		  "ticks": 127680,
		  "time": 102.967536,
		  "velocity": 0.7480314960629921
		},
		{
		  "duration": 0.19354800000000694,
		  "durationTicks": 240,
		  "midi": 85,
		  "name": "C#6",
		  "ticks": 128160,
		  "time": 103.354632,
		  "velocity": 0.7480314960629921
		},
		{
		  "duration": 0.19354800000000694,
		  "durationTicks": 240,
		  "midi": 87,
		  "name": "D#6",
		  "ticks": 128640,
		  "time": 103.741728,
		  "velocity": 0.7480314960629921
		},
		{
		  "duration": 0.19354800000000694,
		  "durationTicks": 240,
		  "midi": 87,
		  "name": "D#6",
		  "ticks": 129120,
		  "time": 104.128824,
		  "velocity": 0.7480314960629921
		},
		{
		  "duration": 0.19354800000000694,
		  "durationTicks": 240,
		  "midi": 87,
		  "name": "D#6",
		  "ticks": 129600,
		  "time": 104.51592,
		  "velocity": 0.7480314960629921
		},
		{
		  "duration": 0.19354800000000694,
		  "durationTicks": 240,
		  "midi": 87,
		  "name": "D#6",
		  "ticks": 130080,
		  "time": 104.903016,
		  "velocity": 0.7480314960629921
		},
		{
		  "duration": 0.19354799999999273,
		  "durationTicks": 240,
		  "midi": 82,
		  "name": "A#5",
		  "ticks": 138240,
		  "time": 111.483648,
		  "velocity": 0.7480314960629921
		},
		{
		  "duration": 0.19354799999999273,
		  "durationTicks": 240,
		  "midi": 82,
		  "name": "A#5",
		  "ticks": 138720,
		  "time": 111.870744,
		  "velocity": 0.7480314960629921
		},
		{
		  "duration": 0.19354800000000694,
		  "durationTicks": 240,
		  "midi": 80,
		  "name": "G#5",
		  "ticks": 138960,
		  "time": 112.064292,
		  "velocity": 0.7480314960629921
		},
		{
		  "duration": 0.19354800000000694,
		  "durationTicks": 240,
		  "midi": 80,
		  "name": "G#5",
		  "ticks": 139440,
		  "time": 112.451388,
		  "velocity": 0.7480314960629921
		},
		{
		  "duration": 0.19354800000000694,
		  "durationTicks": 240,
		  "midi": 80,
		  "name": "G#5",
		  "ticks": 139920,
		  "time": 112.838484,
		  "velocity": 0.7480314960629921
		},
		{
		  "duration": 0.19354800000000694,
		  "durationTicks": 240,
		  "midi": 82,
		  "name": "A#5",
		  "ticks": 140400,
		  "time": 113.22558,
		  "velocity": 0.7480314960629921
		},
		{
		  "duration": 0.19354799999999273,
		  "durationTicks": 240,
		  "midi": 80,
		  "name": "G#5",
		  "ticks": 140640,
		  "time": 113.419128,
		  "velocity": 0.7480314960629921
		},
		{
		  "duration": 0.19354800000000694,
		  "durationTicks": 240,
		  "midi": 82,
		  "name": "A#5",
		  "ticks": 140880,
		  "time": 113.612676,
		  "velocity": 0.7480314960629921
		},
		{
		  "duration": 0.19354800000000694,
		  "durationTicks": 240,
		  "midi": 82,
		  "name": "A#5",
		  "ticks": 141360,
		  "time": 113.999772,
		  "velocity": 0.7480314960629921
		},
		{
		  "duration": 0.19354799999999273,
		  "durationTicks": 240,
		  "midi": 80,
		  "name": "G#5",
		  "ticks": 141600,
		  "time": 114.19332,
		  "velocity": 0.7480314960629921
		},
		{
		  "duration": 0.19354800000000694,
		  "durationTicks": 240,
		  "midi": 82,
		  "name": "A#5",
		  "ticks": 141840,
		  "time": 114.38686799999999,
		  "velocity": 0.7480314960629921
		},
		{
		  "duration": 0.19354800000000694,
		  "durationTicks": 240,
		  "midi": 82,
		  "name": "A#5",
		  "ticks": 142320,
		  "time": 114.77396399999999,
		  "velocity": 0.7480314960629921
		},
		{
		  "duration": 0.19354799999999273,
		  "durationTicks": 240,
		  "midi": 80,
		  "name": "G#5",
		  "ticks": 142560,
		  "time": 114.967512,
		  "velocity": 0.7480314960629921
		},
		{
		  "duration": 0.19354800000000694,
		  "durationTicks": 240,
		  "midi": 82,
		  "name": "A#5",
		  "ticks": 142800,
		  "time": 115.16105999999999,
		  "velocity": 0.7480314960629921
		},
		{
		  "duration": 0.19354800000000694,
		  "durationTicks": 240,
		  "midi": 82,
		  "name": "A#5",
		  "ticks": 143280,
		  "time": 115.54815599999999,
		  "velocity": 0.7480314960629921
		},
		{
		  "duration": 0.19354800000000694,
		  "durationTicks": 240,
		  "midi": 80,
		  "name": "G#5",
		  "ticks": 143520,
		  "time": 115.741704,
		  "velocity": 0.7480314960629921
		},
		{
		  "duration": 0.19354799999999273,
		  "durationTicks": 240,
		  "midi": 82,
		  "name": "A#5",
		  "ticks": 143760,
		  "time": 115.935252,
		  "velocity": 0.7480314960629921
		},
		{
		  "duration": 0.19354799999999273,
		  "durationTicks": 240,
		  "midi": 82,
		  "name": "A#5",
		  "ticks": 144240,
		  "time": 116.322348,
		  "velocity": 0.7480314960629921
		},
		{
		  "duration": 0.19354800000000694,
		  "durationTicks": 240,
		  "midi": 80,
		  "name": "G#5",
		  "ticks": 144480,
		  "time": 116.515896,
		  "velocity": 0.7480314960629921
		},
		{
		  "duration": 0.19354799999999273,
		  "durationTicks": 240,
		  "midi": 82,
		  "name": "A#5",
		  "ticks": 144720,
		  "time": 116.709444,
		  "velocity": 0.7480314960629921
		},
		{
		  "duration": 0.19354799999999273,
		  "durationTicks": 240,
		  "midi": 82,
		  "name": "A#5",
		  "ticks": 145200,
		  "time": 117.09654,
		  "velocity": 0.7480314960629921
		},
		{
		  "duration": 0.19354800000000694,
		  "durationTicks": 240,
		  "midi": 80,
		  "name": "G#5",
		  "ticks": 145440,
		  "time": 117.290088,
		  "velocity": 0.7480314960629921
		},
		{
		  "duration": 0.19354799999999273,
		  "durationTicks": 240,
		  "midi": 82,
		  "name": "A#5",
		  "ticks": 145680,
		  "time": 117.483636,
		  "velocity": 0.7480314960629921
		},
		{
		  "duration": 0.19354799999999273,
		  "durationTicks": 240,
		  "midi": 82,
		  "name": "A#5",
		  "ticks": 153600,
		  "time": 123.87072,
		  "velocity": 0.7480314960629921
		},
		{
		  "duration": 0.19354799999999273,
		  "durationTicks": 240,
		  "midi": 82,
		  "name": "A#5",
		  "ticks": 154080,
		  "time": 124.257816,
		  "velocity": 0.7480314960629921
		},
		{
		  "duration": 0.19354800000000694,
		  "durationTicks": 240,
		  "midi": 80,
		  "name": "G#5",
		  "ticks": 154320,
		  "time": 124.451364,
		  "velocity": 0.7480314960629921
		},
		{
		  "duration": 0.19354800000000694,
		  "durationTicks": 240,
		  "midi": 80,
		  "name": "G#5",
		  "ticks": 154800,
		  "time": 124.83846,
		  "velocity": 0.7480314960629921
		},
		{
		  "duration": 0.19354800000000694,
		  "durationTicks": 240,
		  "midi": 80,
		  "name": "G#5",
		  "ticks": 155280,
		  "time": 125.225556,
		  "velocity": 0.7480314960629921
		},
		{
		  "duration": 0.19354800000000694,
		  "durationTicks": 240,
		  "midi": 82,
		  "name": "A#5",
		  "ticks": 155760,
		  "time": 125.612652,
		  "velocity": 0.7480314960629921
		},
		{
		  "duration": 0.19354799999999273,
		  "durationTicks": 240,
		  "midi": 80,
		  "name": "G#5",
		  "ticks": 156000,
		  "time": 125.8062,
		  "velocity": 0.7480314960629921
		},
		{
		  "duration": 0.19354800000000694,
		  "durationTicks": 240,
		  "midi": 82,
		  "name": "A#5",
		  "ticks": 156240,
		  "time": 125.999748,
		  "velocity": 0.7480314960629921
		},
		{
		  "duration": 0.19354800000000694,
		  "durationTicks": 240,
		  "midi": 82,
		  "name": "A#5",
		  "ticks": 156720,
		  "time": 126.386844,
		  "velocity": 0.7480314960629921
		},
		{
		  "duration": 0.19354799999999273,
		  "durationTicks": 240,
		  "midi": 80,
		  "name": "G#5",
		  "ticks": 156960,
		  "time": 126.580392,
		  "velocity": 0.7480314960629921
		},
		{
		  "duration": 0.19354800000000694,
		  "durationTicks": 240,
		  "midi": 82,
		  "name": "A#5",
		  "ticks": 157200,
		  "time": 126.77394,
		  "velocity": 0.7480314960629921
		},
		{
		  "duration": 0.19354800000000694,
		  "durationTicks": 240,
		  "midi": 82,
		  "name": "A#5",
		  "ticks": 157680,
		  "time": 127.161036,
		  "velocity": 0.7480314960629921
		},
		{
		  "duration": 0.19354799999999273,
		  "durationTicks": 240,
		  "midi": 80,
		  "name": "G#5",
		  "ticks": 157920,
		  "time": 127.354584,
		  "velocity": 0.7480314960629921
		},
		{
		  "duration": 0.19354800000000694,
		  "durationTicks": 240,
		  "midi": 82,
		  "name": "A#5",
		  "ticks": 158160,
		  "time": 127.548132,
		  "velocity": 0.7480314960629921
		},
		{
		  "duration": 0.19354799999999273,
		  "durationTicks": 240,
		  "midi": 82,
		  "name": "A#5",
		  "ticks": 158640,
		  "time": 127.935228,
		  "velocity": 0.7480314960629921
		},
		{
		  "duration": 0.19354800000002115,
		  "durationTicks": 240,
		  "midi": 80,
		  "name": "G#5",
		  "ticks": 158880,
		  "time": 128.128776,
		  "velocity": 0.7480314960629921
		},
		{
		  "duration": 0.19354799999999273,
		  "durationTicks": 240,
		  "midi": 82,
		  "name": "A#5",
		  "ticks": 159120,
		  "time": 128.322324,
		  "velocity": 0.7480314960629921
		},
		{
		  "duration": 0.19354799999999273,
		  "durationTicks": 240,
		  "midi": 82,
		  "name": "A#5",
		  "ticks": 159360,
		  "time": 128.515872,
		  "velocity": 0.7480314960629921
		},
		{
		  "duration": 0.19354800000002115,
		  "durationTicks": 240,
		  "midi": 82,
		  "name": "A#5",
		  "ticks": 159840,
		  "time": 128.902968,
		  "velocity": 0.7480314960629921
		},
		{
		  "duration": 0.19354799999999273,
		  "durationTicks": 240,
		  "midi": 82,
		  "name": "A#5",
		  "ticks": 160320,
		  "time": 129.290064,
		  "velocity": 0.7480314960629921
		},
		{
		  "duration": 0.19354800000002115,
		  "durationTicks": 240,
		  "midi": 82,
		  "name": "A#5",
		  "ticks": 160800,
		  "time": 129.67716,
		  "velocity": 0.7480314960629921
		},
		{
		  "duration": 0.19354799999999273,
		  "durationTicks": 240,
		  "midi": 80,
		  "name": "G#5",
		  "ticks": 161040,
		  "time": 129.870708,
		  "velocity": 0.7480314960629921
		},
		{
		  "duration": 0.19354799999999273,
		  "durationTicks": 240,
		  "midi": 80,
		  "name": "G#5",
		  "ticks": 161520,
		  "time": 130.257804,
		  "velocity": 0.7480314960629921
		},
		{
		  "duration": 0.19354800000002115,
		  "durationTicks": 240,
		  "midi": 80,
		  "name": "G#5",
		  "ticks": 161760,
		  "time": 130.45135199999999,
		  "velocity": 0.7480314960629921
		},
		{
		  "duration": 0.19354799999999273,
		  "durationTicks": 240,
		  "midi": 82,
		  "name": "A#5",
		  "ticks": 162000,
		  "time": 130.6449,
		  "velocity": 0.7480314960629921
		},
		{
		  "duration": 0.3870960000000139,
		  "durationTicks": 480,
		  "midi": 70,
		  "name": "A#4",
		  "ticks": 163680,
		  "time": 131.99973599999998,
		  "velocity": 0.7480314960629921
		},
		{
		  "duration": 0.19354799999999273,
		  "durationTicks": 240,
		  "midi": 68,
		  "name": "G#4",
		  "ticks": 164160,
		  "time": 132.386832,
		  "velocity": 0.7480314960629921
		},
		{
		  "duration": 0.19354800000002115,
		  "durationTicks": 240,
		  "midi": 70,
		  "name": "A#4",
		  "ticks": 164400,
		  "time": 132.58038,
		  "velocity": 0.7480314960629921
		},
		{
		  "duration": 0.38709599999998545,
		  "durationTicks": 480,
		  "midi": 70,
		  "name": "A#4",
		  "ticks": 164880,
		  "time": 132.967476,
		  "velocity": 0.7480314960629921
		},
		{
		  "duration": 0.38709599999998545,
		  "durationTicks": 480,
		  "midi": 70,
		  "name": "A#4",
		  "ticks": 165600,
		  "time": 133.54812,
		  "velocity": 0.7480314960629921
		},
		{
		  "duration": 0.3870960000000139,
		  "durationTicks": 480,
		  "midi": 73,
		  "name": "C#5",
		  "ticks": 166080,
		  "time": 133.935216,
		  "velocity": 0.7480314960629921
		},
		{
		  "duration": 0.38709599999998545,
		  "durationTicks": 480,
		  "midi": 70,
		  "name": "A#4",
		  "ticks": 166560,
		  "time": 134.322312,
		  "velocity": 0.7480314960629921
		},
		{
		  "duration": 0.19354799999999273,
		  "durationTicks": 240,
		  "midi": 70,
		  "name": "A#4",
		  "ticks": 167520,
		  "time": 135.096504,
		  "velocity": 0.7480314960629921
		},
		{
		  "duration": 0.2903220000000033,
		  "durationTicks": 360,
		  "midi": 68,
		  "name": "G#4",
		  "ticks": 167760,
		  "time": 135.290052,
		  "velocity": 0.7480314960629921
		},
		{
		  "duration": 0.2903220000000033,
		  "durationTicks": 360,
		  "midi": 68,
		  "name": "G#4",
		  "ticks": 168240,
		  "time": 135.677148,
		  "velocity": 0.7480314960629921
		},
		{
		  "duration": 0.38709599999998545,
		  "durationTicks": 480,
		  "midi": 68,
		  "name": "G#4",
		  "ticks": 168720,
		  "time": 136.064244,
		  "velocity": 0.7480314960629921
		},
		{
		  "duration": 0.2903220000000033,
		  "durationTicks": 360,
		  "midi": 70,
		  "name": "A#4",
		  "ticks": 169200,
		  "time": 136.45134,
		  "velocity": 0.7480314960629921
		},
		{
		  "duration": 0.5806440000000066,
		  "durationTicks": 720,
		  "midi": 70,
		  "name": "A#4",
		  "ticks": 169680,
		  "time": 136.838436,
		  "velocity": 0.7480314960629921
		},
		{
		  "duration": 0.483869999999996,
		  "durationTicks": 600,
		  "midi": 68,
		  "name": "G#4",
		  "ticks": 171360,
		  "time": 138.193272,
		  "velocity": 0.7480314960629921
		},
		{
		  "duration": 0.3870960000000139,
		  "durationTicks": 480,
		  "midi": 68,
		  "name": "G#4",
		  "ticks": 172080,
		  "time": 138.77391599999999,
		  "velocity": 0.7480314960629921
		},
		{
		  "duration": 0.3870960000000139,
		  "durationTicks": 480,
		  "midi": 65,
		  "name": "F4",
		  "ticks": 173760,
		  "time": 140.128752,
		  "velocity": 0.7480314960629921
		},
		{
		  "duration": 0.38709599999998545,
		  "durationTicks": 480,
		  "midi": 61,
		  "name": "C#4",
		  "ticks": 174240,
		  "time": 140.515848,
		  "velocity": 0.7480314960629921
		},
		{
		  "duration": 0.5806439999999782,
		  "durationTicks": 720,
		  "midi": 60,
		  "name": "C4",
		  "ticks": 174960,
		  "time": 141.096492,
		  "velocity": 0.7480314960629921
		},
		{
		  "duration": 0.3870960000000139,
		  "durationTicks": 480,
		  "midi": 56,
		  "name": "G#3",
		  "ticks": 175680,
		  "time": 141.677136,
		  "velocity": 0.7480314960629921
		},
		{
		  "duration": 0.38709599999998545,
		  "durationTicks": 480,
		  "midi": 60,
		  "name": "C4",
		  "ticks": 176160,
		  "time": 142.064232,
		  "velocity": 0.7480314960629921
		},
		{
		  "duration": 0.38709599999998545,
		  "durationTicks": 480,
		  "midi": 65,
		  "name": "F4",
		  "ticks": 177840,
		  "time": 143.419068,
		  "velocity": 0.7480314960629921
		},
		{
		  "duration": 0.5806440000000066,
		  "durationTicks": 720,
		  "midi": 72,
		  "name": "C5",
		  "ticks": 178320,
		  "time": 143.806164,
		  "velocity": 0.7480314960629921
		},
		{
		  "duration": 0.38709599999998545,
		  "durationTicks": 480,
		  "midi": 70,
		  "name": "A#4",
		  "ticks": 179040,
		  "time": 144.386808,
		  "velocity": 0.7480314960629921
		},
		{
		  "duration": 0.19354800000002115,
		  "durationTicks": 240,
		  "midi": 68,
		  "name": "G#4",
		  "ticks": 179520,
		  "time": 144.773904,
		  "velocity": 0.7480314960629921
		},
		{
		  "duration": 0.38709599999998545,
		  "durationTicks": 480,
		  "midi": 70,
		  "name": "A#4",
		  "ticks": 179760,
		  "time": 144.967452,
		  "velocity": 0.7480314960629921
		},
		{
		  "duration": 0.5806440000000066,
		  "durationTicks": 720,
		  "midi": 70,
		  "name": "A#4",
		  "ticks": 180240,
		  "time": 145.354548,
		  "velocity": 0.7480314960629921
		},
		{
		  "duration": 0.38709599999998545,
		  "durationTicks": 480,
		  "midi": 70,
		  "name": "A#4",
		  "ticks": 180960,
		  "time": 145.935192,
		  "velocity": 0.7480314960629921
		},
		{
		  "duration": 0.3870960000000139,
		  "durationTicks": 480,
		  "midi": 73,
		  "name": "C#5",
		  "ticks": 181440,
		  "time": 146.322288,
		  "velocity": 0.7480314960629921
		},
		{
		  "duration": 0.38709599999998545,
		  "durationTicks": 480,
		  "midi": 70,
		  "name": "A#4",
		  "ticks": 181920,
		  "time": 146.709384,
		  "velocity": 0.7480314960629921
		},
		{
		  "duration": 0.38709599999998545,
		  "durationTicks": 480,
		  "midi": 75,
		  "name": "D#5",
		  "ticks": 182880,
		  "time": 147.483576,
		  "velocity": 0.7480314960629921
		},
		{
		  "duration": 0.38709599999998545,
		  "durationTicks": 480,
		  "midi": 77,
		  "name": "F5",
		  "ticks": 183600,
		  "time": 148.06422,
		  "velocity": 0.7480314960629921
		},
		{
		  "duration": 0.3870960000000139,
		  "durationTicks": 480,
		  "midi": 73,
		  "name": "C#5",
		  "ticks": 184320,
		  "time": 148.64486399999998,
		  "velocity": 0.7480314960629921
		},
		{
		  "duration": 0.3870960000000139,
		  "durationTicks": 480,
		  "midi": 72,
		  "name": "C5",
		  "ticks": 185040,
		  "time": 149.225508,
		  "velocity": 0.7480314960629921
		},
		{
		  "duration": 0.3870960000000139,
		  "durationTicks": 480,
		  "midi": 68,
		  "name": "G#4",
		  "ticks": 185760,
		  "time": 149.806152,
		  "velocity": 0.7480314960629921
		},
		{
		  "duration": 0.5806440000000066,
		  "durationTicks": 720,
		  "midi": 70,
		  "name": "A#4",
		  "ticks": 186720,
		  "time": 150.580344,
		  "velocity": 0.7480314960629921
		},
		{
		  "duration": 0.38709599999998545,
		  "durationTicks": 480,
		  "midi": 77,
		  "name": "F5",
		  "ticks": 187440,
		  "time": 151.160988,
		  "velocity": 0.7480314960629921
		},
		{
		  "duration": 0.5806439999999782,
		  "durationTicks": 720,
		  "midi": 75,
		  "name": "D#5",
		  "ticks": 188160,
		  "time": 151.741632,
		  "velocity": 0.7480314960629921
		},
		{
		  "duration": 0.5806440000000066,
		  "durationTicks": 720,
		  "midi": 73,
		  "name": "C#5",
		  "ticks": 188880,
		  "time": 152.322276,
		  "velocity": 0.7480314960629921
		},
		{
		  "duration": 0.3870960000000139,
		  "durationTicks": 480,
		  "midi": 75,
		  "name": "D#5",
		  "ticks": 189600,
		  "time": 152.90292,
		  "velocity": 0.7480314960629921
		},
		{
		  "duration": 1.5483839999999987,
		  "durationTicks": 1920,
		  "midi": 77,
		  "name": "F5",
		  "ticks": 190080,
		  "time": 153.290016,
		  "velocity": 0.7480314960629921
		},
		{
		  "duration": 3.0967679999999973,
		  "durationTicks": 3840,
		  "midi": 82,
		  "name": "A#5",
		  "ticks": 192000,
		  "time": 154.8384,
		  "velocity": 0.7480314960629921
		}
	  ]
	},
	{
	  "channel": 0,
	  "controlChanges": {
		"6": [
		  {
			"number": 6,
			"ticks": 0,
			"time": 0,
			"value": 0.09448818897637795
		  },
		  {
			"number": 6,
			"ticks": 0,
			"time": 0,
			"value": 0.5039370078740157
		  },
		  {
			"number": 6,
			"ticks": 0,
			"time": 0,
			"value": 0.5039370078740157
		  }
		],
		"38": [
		  {
			"number": 38,
			"ticks": 0,
			"time": 0,
			"value": 0
		  }
		],
		"100": [
		  {
			"number": 100,
			"ticks": 0,
			"time": 0,
			"value": 0
		  },
		  {
			"number": 100,
			"ticks": 0,
			"time": 0,
			"value": 0.007874015748031496
		  },
		  {
			"number": 100,
			"ticks": 0,
			"time": 0,
			"value": 1
		  },
		  {
			"number": 100,
			"ticks": 0,
			"time": 0,
			"value": 0.015748031496062992
		  },
		  {
			"number": 100,
			"ticks": 0,
			"time": 0,
			"value": 1
		  }
		],
		"101": [
		  {
			"number": 101,
			"ticks": 0,
			"time": 0,
			"value": 0
		  },
		  {
			"number": 101,
			"ticks": 0,
			"time": 0,
			"value": 0
		  },
		  {
			"number": 101,
			"ticks": 0,
			"time": 0,
			"value": 1
		  },
		  {
			"number": 101,
			"ticks": 0,
			"time": 0,
			"value": 0
		  },
		  {
			"number": 101,
			"ticks": 0,
			"time": 0,
			"value": 1
		  }
		]
	  },
	  "pitchBends": [
		{
		  "ticks": 0,
		  "time": 0,
		  "value": 0
		}
	  ],
	  "instrument": {
		"family": "piano",
		"number": 0,
		"name": "acoustic grand piano"
	  },
	  "name": "Keyboards 2",
	  "notes": [],
	  "endOfTrackTicks": 162180
	},
	{
	  "channel": 15,
	  "controlChanges": {
		"0": [
		  {
			"number": 0,
			"ticks": 0,
			"time": 0,
			"value": 0
		  }
		],
		"7": [
		  {
			"number": 7,
			"ticks": 0,
			"time": 0,
			"value": 0.5669291338582677
		  }
		],
		"10": [
		  {
			"number": 10,
			"ticks": 0,
			"time": 0,
			"value": 0.5039370078740157
		  }
		],
		"91": [
		  {
			"number": 91,
			"ticks": 0,
			"time": 0,
			"value": 0
		  }
		],
		"92": [
		  {
			"number": 92,
			"ticks": 0,
			"time": 0,
			"value": 0
		  }
		],
		"93": [
		  {
			"number": 93,
			"ticks": 0,
			"time": 0,
			"value": 0
		  }
		],
		"95": [
		  {
			"number": 95,
			"ticks": 0,
			"time": 0,
			"value": 0
		  }
		]
	  },
	  "pitchBends": [],
	  "instrument": {
		"family": "synth lead",
		"number": 81,
		"name": "lead 2 (sawtooth)"
	  },
	  "name": "",
	  "notes": [
		{
		  "duration": 0.19354799999999983,
		  "durationTicks": 240,
		  "midi": 46,
		  "name": "A#2",
		  "ticks": 31440,
		  "time": 25.354788,
		  "velocity": 0.7480314960629921
		},
		{
		  "duration": 0.19354799999999983,
		  "durationTicks": 240,
		  "midi": 46,
		  "name": "A#2",
		  "ticks": 31920,
		  "time": 25.741884,
		  "velocity": 0.7480314960629921
		},
		{
		  "duration": 0.19354799999999983,
		  "durationTicks": 240,
		  "midi": 46,
		  "name": "A#2",
		  "ticks": 32400,
		  "time": 26.12898,
		  "velocity": 0.7480314960629921
		},
		{
		  "duration": 0.19354799999999983,
		  "durationTicks": 240,
		  "midi": 46,
		  "name": "A#2",
		  "ticks": 32880,
		  "time": 26.516075999999998,
		  "velocity": 0.7480314960629921
		},
		{
		  "duration": 0.19354799999999983,
		  "durationTicks": 240,
		  "midi": 46,
		  "name": "A#2",
		  "ticks": 33360,
		  "time": 26.903172,
		  "velocity": 0.7480314960629921
		},
		{
		  "duration": 0.19354799999999983,
		  "durationTicks": 240,
		  "midi": 46,
		  "name": "A#2",
		  "ticks": 33840,
		  "time": 27.290268,
		  "velocity": 0.7480314960629921
		},
		{
		  "duration": 0.19354799999999983,
		  "durationTicks": 240,
		  "midi": 46,
		  "name": "A#2",
		  "ticks": 34320,
		  "time": 27.677364,
		  "velocity": 0.7480314960629921
		},
		{
		  "duration": 0.19354799999999983,
		  "durationTicks": 240,
		  "midi": 42,
		  "name": "F#2",
		  "ticks": 35280,
		  "time": 28.451556,
		  "velocity": 0.7480314960629921
		},
		{
		  "duration": 0.19354799999999983,
		  "durationTicks": 240,
		  "midi": 42,
		  "name": "F#2",
		  "ticks": 35760,
		  "time": 28.838652,
		  "velocity": 0.7480314960629921
		},
		{
		  "duration": 0.19354799999999983,
		  "durationTicks": 240,
		  "midi": 42,
		  "name": "F#2",
		  "ticks": 36240,
		  "time": 29.225748,
		  "velocity": 0.7480314960629921
		},
		{
		  "duration": 0.19354799999999983,
		  "durationTicks": 240,
		  "midi": 42,
		  "name": "F#2",
		  "ticks": 36720,
		  "time": 29.612844,
		  "velocity": 0.7480314960629921
		},
		{
		  "duration": 0.19354799999999983,
		  "durationTicks": 240,
		  "midi": 42,
		  "name": "F#2",
		  "ticks": 37200,
		  "time": 29.99994,
		  "velocity": 0.7480314960629921
		},
		{
		  "duration": 0.19354799999999983,
		  "durationTicks": 240,
		  "midi": 42,
		  "name": "F#2",
		  "ticks": 37680,
		  "time": 30.387036,
		  "velocity": 0.7480314960629921
		},
		{
		  "duration": 0.19354800000000338,
		  "durationTicks": 240,
		  "midi": 42,
		  "name": "F#2",
		  "ticks": 38160,
		  "time": 30.774131999999998,
		  "velocity": 0.7480314960629921
		},
		{
		  "duration": 0.1451609999999981,
		  "durationTicks": 180,
		  "midi": 46,
		  "name": "A#2",
		  "ticks": 38400,
		  "time": 30.96768,
		  "velocity": 0.5984251968503937
		},
		{
		  "duration": 0.1451609999999981,
		  "durationTicks": 180,
		  "midi": 46,
		  "name": "A#2",
		  "ticks": 38640,
		  "time": 31.161228,
		  "velocity": 0.5984251968503937
		},
		{
		  "duration": 0.1451609999999981,
		  "durationTicks": 180,
		  "midi": 46,
		  "name": "A#2",
		  "ticks": 38880,
		  "time": 31.354776,
		  "velocity": 0.5984251968503937
		},
		{
		  "duration": 0.1451609999999981,
		  "durationTicks": 180,
		  "midi": 46,
		  "name": "A#2",
		  "ticks": 39120,
		  "time": 31.548324,
		  "velocity": 0.5984251968503937
		},
		{
		  "duration": 0.1451609999999981,
		  "durationTicks": 180,
		  "midi": 46,
		  "name": "A#2",
		  "ticks": 39360,
		  "time": 31.741872,
		  "velocity": 0.5984251968503937
		},
		{
		  "duration": 0.14516100000000165,
		  "durationTicks": 180,
		  "midi": 46,
		  "name": "A#2",
		  "ticks": 39600,
		  "time": 31.93542,
		  "velocity": 0.5984251968503937
		},
		{
		  "duration": 0.14516100000000165,
		  "durationTicks": 180,
		  "midi": 46,
		  "name": "A#2",
		  "ticks": 39840,
		  "time": 32.128968,
		  "velocity": 0.5984251968503937
		},
		{
		  "duration": 0.14516100000000165,
		  "durationTicks": 180,
		  "midi": 46,
		  "name": "A#2",
		  "ticks": 40080,
		  "time": 32.322516,
		  "velocity": 0.5984251968503937
		},
		{
		  "duration": 0.14516100000000165,
		  "durationTicks": 180,
		  "midi": 44,
		  "name": "G#2",
		  "ticks": 40320,
		  "time": 32.516064,
		  "velocity": 0.5984251968503937
		},
		{
		  "duration": 0.14516100000000165,
		  "durationTicks": 180,
		  "midi": 44,
		  "name": "G#2",
		  "ticks": 40560,
		  "time": 32.709612,
		  "velocity": 0.5984251968503937
		},
		{
		  "duration": 0.14516100000000165,
		  "durationTicks": 180,
		  "midi": 44,
		  "name": "G#2",
		  "ticks": 40800,
		  "time": 32.90316,
		  "velocity": 0.5984251968503937
		},
		{
		  "duration": 0.14516100000000165,
		  "durationTicks": 180,
		  "midi": 44,
		  "name": "G#2",
		  "ticks": 41040,
		  "time": 33.096708,
		  "velocity": 0.5984251968503937
		},
		{
		  "duration": 0.14516100000000165,
		  "durationTicks": 180,
		  "midi": 44,
		  "name": "G#2",
		  "ticks": 41280,
		  "time": 33.290256,
		  "velocity": 0.5984251968503937
		},
		{
		  "duration": 0.14516100000000165,
		  "durationTicks": 180,
		  "midi": 44,
		  "name": "G#2",
		  "ticks": 41520,
		  "time": 33.483804,
		  "velocity": 0.5984251968503937
		},
		{
		  "duration": 0.14516100000000165,
		  "durationTicks": 180,
		  "midi": 44,
		  "name": "G#2",
		  "ticks": 41760,
		  "time": 33.677352,
		  "velocity": 0.5984251968503937
		},
		{
		  "duration": 0.14516100000000165,
		  "durationTicks": 180,
		  "midi": 44,
		  "name": "G#2",
		  "ticks": 42000,
		  "time": 33.8709,
		  "velocity": 0.5984251968503937
		},
		{
		  "duration": 0.14516100000000165,
		  "durationTicks": 180,
		  "midi": 41,
		  "name": "F2",
		  "ticks": 42240,
		  "time": 34.064448,
		  "velocity": 0.5984251968503937
		},
		{
		  "duration": 0.14516100000000165,
		  "durationTicks": 180,
		  "midi": 41,
		  "name": "F2",
		  "ticks": 42480,
		  "time": 34.257996,
		  "velocity": 0.5984251968503937
		},
		{
		  "duration": 0.14516100000000165,
		  "durationTicks": 180,
		  "midi": 41,
		  "name": "F2",
		  "ticks": 42720,
		  "time": 34.451544,
		  "velocity": 0.5984251968503937
		},
		{
		  "duration": 0.14516100000000165,
		  "durationTicks": 180,
		  "midi": 41,
		  "name": "F2",
		  "ticks": 42960,
		  "time": 34.645092,
		  "velocity": 0.5984251968503937
		},
		{
		  "duration": 0.14516100000000165,
		  "durationTicks": 180,
		  "midi": 41,
		  "name": "F2",
		  "ticks": 43200,
		  "time": 34.83864,
		  "velocity": 0.5984251968503937
		},
		{
		  "duration": 0.14516100000000165,
		  "durationTicks": 180,
		  "midi": 41,
		  "name": "F2",
		  "ticks": 43440,
		  "time": 35.032188,
		  "velocity": 0.5984251968503937
		},
		{
		  "duration": 0.14516100000000165,
		  "durationTicks": 180,
		  "midi": 41,
		  "name": "F2",
		  "ticks": 43680,
		  "time": 35.225736,
		  "velocity": 0.5984251968503937
		},
		{
		  "duration": 0.14516100000000165,
		  "durationTicks": 180,
		  "midi": 44,
		  "name": "G#2",
		  "ticks": 43920,
		  "time": 35.419284,
		  "velocity": 0.5984251968503937
		},
		{
		  "duration": 0.14516100000000165,
		  "durationTicks": 180,
		  "midi": 44,
		  "name": "G#2",
		  "ticks": 44160,
		  "time": 35.612832,
		  "velocity": 0.5984251968503937
		},
		{
		  "duration": 0.14516100000000165,
		  "durationTicks": 180,
		  "midi": 44,
		  "name": "G#2",
		  "ticks": 44400,
		  "time": 35.80638,
		  "velocity": 0.5984251968503937
		},
		{
		  "duration": 0.14516100000000165,
		  "durationTicks": 180,
		  "midi": 46,
		  "name": "A#2",
		  "ticks": 44640,
		  "time": 35.999928,
		  "velocity": 0.5984251968503937
		},
		{
		  "duration": 0.14516100000000165,
		  "durationTicks": 180,
		  "midi": 46,
		  "name": "A#2",
		  "ticks": 44880,
		  "time": 36.193476,
		  "velocity": 0.5984251968503937
		},
		{
		  "duration": 0.14516100000000165,
		  "durationTicks": 180,
		  "midi": 46,
		  "name": "A#2",
		  "ticks": 45120,
		  "time": 36.387024,
		  "velocity": 0.5984251968503937
		},
		{
		  "duration": 0.14516100000000165,
		  "durationTicks": 180,
		  "midi": 44,
		  "name": "G#2",
		  "ticks": 45360,
		  "time": 36.580572,
		  "velocity": 0.5984251968503937
		},
		{
		  "duration": 0.14516100000000165,
		  "durationTicks": 180,
		  "midi": 44,
		  "name": "G#2",
		  "ticks": 45600,
		  "time": 36.774119999999996,
		  "velocity": 0.5984251968503937
		},
		{
		  "duration": 0.14516100000000165,
		  "durationTicks": 180,
		  "midi": 44,
		  "name": "G#2",
		  "ticks": 45840,
		  "time": 36.967667999999996,
		  "velocity": 0.5984251968503937
		},
		{
		  "duration": 0.19354799999999983,
		  "durationTicks": 240,
		  "midi": 46,
		  "name": "A#2",
		  "ticks": 46800,
		  "time": 37.74186,
		  "velocity": 0.7480314960629921
		},
		{
		  "duration": 0.19354799999999983,
		  "durationTicks": 240,
		  "midi": 46,
		  "name": "A#2",
		  "ticks": 47280,
		  "time": 38.128956,
		  "velocity": 0.7480314960629921
		},
		{
		  "duration": 0.19354799999999983,
		  "durationTicks": 240,
		  "midi": 46,
		  "name": "A#2",
		  "ticks": 47760,
		  "time": 38.516052,
		  "velocity": 0.7480314960629921
		},
		{
		  "duration": 0.19354799999999983,
		  "durationTicks": 240,
		  "midi": 46,
		  "name": "A#2",
		  "ticks": 48240,
		  "time": 38.903148,
		  "velocity": 0.7480314960629921
		},
		{
		  "duration": 0.19354799999999983,
		  "durationTicks": 240,
		  "midi": 46,
		  "name": "A#2",
		  "ticks": 48720,
		  "time": 39.290244,
		  "velocity": 0.7480314960629921
		},
		{
		  "duration": 0.19354799999999983,
		  "durationTicks": 240,
		  "midi": 46,
		  "name": "A#2",
		  "ticks": 49200,
		  "time": 39.67734,
		  "velocity": 0.7480314960629921
		},
		{
		  "duration": 0.19354799999999983,
		  "durationTicks": 240,
		  "midi": 46,
		  "name": "A#2",
		  "ticks": 49680,
		  "time": 40.064436,
		  "velocity": 0.7480314960629921
		},
		{
		  "duration": 0.19354799999999983,
		  "durationTicks": 240,
		  "midi": 42,
		  "name": "F#2",
		  "ticks": 50640,
		  "time": 40.838628,
		  "velocity": 0.7480314960629921
		},
		{
		  "duration": 0.19354799999999983,
		  "durationTicks": 240,
		  "midi": 42,
		  "name": "F#2",
		  "ticks": 51120,
		  "time": 41.225724,
		  "velocity": 0.7480314960629921
		},
		{
		  "duration": 0.19354799999999983,
		  "durationTicks": 240,
		  "midi": 42,
		  "name": "F#2",
		  "ticks": 51600,
		  "time": 41.61282,
		  "velocity": 0.7480314960629921
		},
		{
		  "duration": 0.19354799999999983,
		  "durationTicks": 240,
		  "midi": 42,
		  "name": "F#2",
		  "ticks": 52080,
		  "time": 41.999916,
		  "velocity": 0.7480314960629921
		},
		{
		  "duration": 0.19354799999999983,
		  "durationTicks": 240,
		  "midi": 42,
		  "name": "F#2",
		  "ticks": 52560,
		  "time": 42.387012,
		  "velocity": 0.7480314960629921
		},
		{
		  "duration": 0.19354799999999983,
		  "durationTicks": 240,
		  "midi": 42,
		  "name": "F#2",
		  "ticks": 53040,
		  "time": 42.774108,
		  "velocity": 0.7480314960629921
		},
		{
		  "duration": 0.19354799999999983,
		  "durationTicks": 240,
		  "midi": 42,
		  "name": "F#2",
		  "ticks": 53520,
		  "time": 43.161204,
		  "velocity": 0.7480314960629921
		},
		{
		  "duration": 0.14516100000000165,
		  "durationTicks": 180,
		  "midi": 46,
		  "name": "A#2",
		  "ticks": 53760,
		  "time": 43.354752,
		  "velocity": 0.5984251968503937
		},
		{
		  "duration": 0.14516100000000165,
		  "durationTicks": 180,
		  "midi": 46,
		  "name": "A#2",
		  "ticks": 54000,
		  "time": 43.5483,
		  "velocity": 0.5984251968503937
		},
		{
		  "duration": 0.14516100000000165,
		  "durationTicks": 180,
		  "midi": 46,
		  "name": "A#2",
		  "ticks": 54240,
		  "time": 43.741848,
		  "velocity": 0.5984251968503937
		},
		{
		  "duration": 0.14516100000000165,
		  "durationTicks": 180,
		  "midi": 46,
		  "name": "A#2",
		  "ticks": 54480,
		  "time": 43.935396,
		  "velocity": 0.5984251968503937
		},
		{
		  "duration": 0.14516100000000165,
		  "durationTicks": 180,
		  "midi": 46,
		  "name": "A#2",
		  "ticks": 54720,
		  "time": 44.128944,
		  "velocity": 0.5984251968503937
		},
		{
		  "duration": 0.14516100000000165,
		  "durationTicks": 180,
		  "midi": 46,
		  "name": "A#2",
		  "ticks": 54960,
		  "time": 44.322492,
		  "velocity": 0.5984251968503937
		},
		{
		  "duration": 0.14516100000000165,
		  "durationTicks": 180,
		  "midi": 46,
		  "name": "A#2",
		  "ticks": 55200,
		  "time": 44.51604,
		  "velocity": 0.5984251968503937
		},
		{
		  "duration": 0.14516100000000165,
		  "durationTicks": 180,
		  "midi": 46,
		  "name": "A#2",
		  "ticks": 55440,
		  "time": 44.709588,
		  "velocity": 0.5984251968503937
		},
		{
		  "duration": 0.14516100000000165,
		  "durationTicks": 180,
		  "midi": 44,
		  "name": "G#2",
		  "ticks": 55680,
		  "time": 44.903135999999996,
		  "velocity": 0.5984251968503937
		},
		{
		  "duration": 0.14516100000000165,
		  "durationTicks": 180,
		  "midi": 44,
		  "name": "G#2",
		  "ticks": 55920,
		  "time": 45.096683999999996,
		  "velocity": 0.5984251968503937
		},
		{
		  "duration": 0.14516100000000165,
		  "durationTicks": 180,
		  "midi": 44,
		  "name": "G#2",
		  "ticks": 56160,
		  "time": 45.290231999999996,
		  "velocity": 0.5984251968503937
		},
		{
		  "duration": 0.14516099999999454,
		  "durationTicks": 180,
		  "midi": 44,
		  "name": "G#2",
		  "ticks": 56400,
		  "time": 45.48378,
		  "velocity": 0.5984251968503937
		},
		{
		  "duration": 0.14516099999999454,
		  "durationTicks": 180,
		  "midi": 44,
		  "name": "G#2",
		  "ticks": 56640,
		  "time": 45.677328,
		  "velocity": 0.5984251968503937
		},
		{
		  "duration": 0.14516099999999454,
		  "durationTicks": 180,
		  "midi": 44,
		  "name": "G#2",
		  "ticks": 56880,
		  "time": 45.870876,
		  "velocity": 0.5984251968503937
		},
		{
		  "duration": 0.14516099999999454,
		  "durationTicks": 180,
		  "midi": 44,
		  "name": "G#2",
		  "ticks": 57120,
		  "time": 46.064424,
		  "velocity": 0.5984251968503937
		},
		{
		  "duration": 0.14516099999999454,
		  "durationTicks": 180,
		  "midi": 44,
		  "name": "G#2",
		  "ticks": 57360,
		  "time": 46.257972,
		  "velocity": 0.5984251968503937
		},
		{
		  "duration": 0.14516099999999454,
		  "durationTicks": 180,
		  "midi": 41,
		  "name": "F2",
		  "ticks": 57600,
		  "time": 46.45152,
		  "velocity": 0.5984251968503937
		},
		{
		  "duration": 0.14516099999999454,
		  "durationTicks": 180,
		  "midi": 41,
		  "name": "F2",
		  "ticks": 57840,
		  "time": 46.645068,
		  "velocity": 0.5984251968503937
		},
		{
		  "duration": 0.14516099999999454,
		  "durationTicks": 180,
		  "midi": 41,
		  "name": "F2",
		  "ticks": 58080,
		  "time": 46.838616,
		  "velocity": 0.5984251968503937
		},
		{
		  "duration": 0.14516099999999454,
		  "durationTicks": 180,
		  "midi": 41,
		  "name": "F2",
		  "ticks": 58320,
		  "time": 47.032164,
		  "velocity": 0.5984251968503937
		},
		{
		  "duration": 0.14516099999999454,
		  "durationTicks": 180,
		  "midi": 41,
		  "name": "F2",
		  "ticks": 58560,
		  "time": 47.225712,
		  "velocity": 0.5984251968503937
		},
		{
		  "duration": 0.14516100000000165,
		  "durationTicks": 180,
		  "midi": 41,
		  "name": "F2",
		  "ticks": 58800,
		  "time": 47.41926,
		  "velocity": 0.5984251968503937
		},
		{
		  "duration": 0.14516100000000165,
		  "durationTicks": 180,
		  "midi": 41,
		  "name": "F2",
		  "ticks": 59040,
		  "time": 47.612808,
		  "velocity": 0.5984251968503937
		},
		{
		  "duration": 0.14516100000000165,
		  "durationTicks": 180,
		  "midi": 41,
		  "name": "F2",
		  "ticks": 59280,
		  "time": 47.806356,
		  "velocity": 0.5984251968503937
		},
		{
		  "duration": 0.14516100000000165,
		  "durationTicks": 180,
		  "midi": 46,
		  "name": "A#2",
		  "ticks": 59520,
		  "time": 47.999904,
		  "velocity": 0.5984251968503937
		},
		{
		  "duration": 0.14516100000000165,
		  "durationTicks": 180,
		  "midi": 46,
		  "name": "A#2",
		  "ticks": 59760,
		  "time": 48.193452,
		  "velocity": 0.5984251968503937
		},
		{
		  "duration": 0.14516100000000165,
		  "durationTicks": 180,
		  "midi": 46,
		  "name": "A#2",
		  "ticks": 60000,
		  "time": 48.387,
		  "velocity": 0.5984251968503937
		},
		{
		  "duration": 0.14516100000000165,
		  "durationTicks": 180,
		  "midi": 46,
		  "name": "A#2",
		  "ticks": 60240,
		  "time": 48.580548,
		  "velocity": 0.5984251968503937
		},
		{
		  "duration": 0.14516100000000165,
		  "durationTicks": 180,
		  "midi": 46,
		  "name": "A#2",
		  "ticks": 60480,
		  "time": 48.774096,
		  "velocity": 0.5984251968503937
		},
		{
		  "duration": 0.14516100000000165,
		  "durationTicks": 180,
		  "midi": 46,
		  "name": "A#2",
		  "ticks": 60720,
		  "time": 48.967644,
		  "velocity": 0.5984251968503937
		},
		{
		  "duration": 0.14516100000000165,
		  "durationTicks": 180,
		  "midi": 46,
		  "name": "A#2",
		  "ticks": 60960,
		  "time": 49.161192,
		  "velocity": 0.5984251968503937
		},
		{
		  "duration": 0.14516100000000165,
		  "durationTicks": 180,
		  "midi": 44,
		  "name": "G#2",
		  "ticks": 61200,
		  "time": 49.35474,
		  "velocity": 0.5984251968503937
		},
		{
		  "duration": 0.14516100000000165,
		  "durationTicks": 180,
		  "midi": 44,
		  "name": "G#2",
		  "ticks": 61680,
		  "time": 49.741836,
		  "velocity": 0.5984251968503937
		},
		{
		  "duration": 0.14516100000000165,
		  "durationTicks": 180,
		  "midi": 44,
		  "name": "G#2",
		  "ticks": 61920,
		  "time": 49.935384,
		  "velocity": 0.5984251968503937
		},
		{
		  "duration": 0.14516100000000165,
		  "durationTicks": 180,
		  "midi": 46,
		  "name": "A#2",
		  "ticks": 62160,
		  "time": 50.128932,
		  "velocity": 0.5984251968503937
		},
		{
		  "duration": 0.19354799999999273,
		  "durationTicks": 240,
		  "midi": 46,
		  "name": "A#2",
		  "ticks": 131280,
		  "time": 105.870756,
		  "velocity": 0.7480314960629921
		},
		{
		  "duration": 0.19354799999999273,
		  "durationTicks": 240,
		  "midi": 46,
		  "name": "A#2",
		  "ticks": 131760,
		  "time": 106.257852,
		  "velocity": 0.7480314960629921
		},
		{
		  "duration": 0.19354799999999273,
		  "durationTicks": 240,
		  "midi": 46,
		  "name": "A#2",
		  "ticks": 132240,
		  "time": 106.644948,
		  "velocity": 0.7480314960629921
		},
		{
		  "duration": 0.19354799999999273,
		  "durationTicks": 240,
		  "midi": 46,
		  "name": "A#2",
		  "ticks": 132720,
		  "time": 107.032044,
		  "velocity": 0.7480314960629921
		},
		{
		  "duration": 0.19354800000000694,
		  "durationTicks": 240,
		  "midi": 46,
		  "name": "A#2",
		  "ticks": 133200,
		  "time": 107.41914,
		  "velocity": 0.7480314960629921
		},
		{
		  "duration": 0.19354800000000694,
		  "durationTicks": 240,
		  "midi": 46,
		  "name": "A#2",
		  "ticks": 133680,
		  "time": 107.806236,
		  "velocity": 0.7480314960629921
		},
		{
		  "duration": 0.19354800000000694,
		  "durationTicks": 240,
		  "midi": 46,
		  "name": "A#2",
		  "ticks": 134160,
		  "time": 108.193332,
		  "velocity": 0.7480314960629921
		},
		{
		  "duration": 0.19354800000000694,
		  "durationTicks": 240,
		  "midi": 42,
		  "name": "F#2",
		  "ticks": 135120,
		  "time": 108.967524,
		  "velocity": 0.7480314960629921
		},
		{
		  "duration": 0.19354800000000694,
		  "durationTicks": 240,
		  "midi": 42,
		  "name": "F#2",
		  "ticks": 135600,
		  "time": 109.35462,
		  "velocity": 0.7480314960629921
		},
		{
		  "duration": 0.19354800000000694,
		  "durationTicks": 240,
		  "midi": 42,
		  "name": "F#2",
		  "ticks": 136080,
		  "time": 109.741716,
		  "velocity": 0.7480314960629921
		},
		{
		  "duration": 0.19354800000000694,
		  "durationTicks": 240,
		  "midi": 42,
		  "name": "F#2",
		  "ticks": 136560,
		  "time": 110.128812,
		  "velocity": 0.7480314960629921
		},
		{
		  "duration": 0.19354800000000694,
		  "durationTicks": 240,
		  "midi": 42,
		  "name": "F#2",
		  "ticks": 137040,
		  "time": 110.515908,
		  "velocity": 0.7480314960629921
		},
		{
		  "duration": 0.19354800000000694,
		  "durationTicks": 240,
		  "midi": 42,
		  "name": "F#2",
		  "ticks": 137520,
		  "time": 110.903004,
		  "velocity": 0.7480314960629921
		},
		{
		  "duration": 0.19354800000000694,
		  "durationTicks": 240,
		  "midi": 42,
		  "name": "F#2",
		  "ticks": 138000,
		  "time": 111.2901,
		  "velocity": 0.7480314960629921
		},
		{
		  "duration": 0.14516100000000165,
		  "durationTicks": 180,
		  "midi": 46,
		  "name": "A#2",
		  "ticks": 138240,
		  "time": 111.483648,
		  "velocity": 0.5984251968503937
		},
		{
		  "duration": 0.14516100000000165,
		  "durationTicks": 180,
		  "midi": 46,
		  "name": "A#2",
		  "ticks": 138480,
		  "time": 111.677196,
		  "velocity": 0.5984251968503937
		},
		{
		  "duration": 0.14516100000000165,
		  "durationTicks": 180,
		  "midi": 46,
		  "name": "A#2",
		  "ticks": 138720,
		  "time": 111.870744,
		  "velocity": 0.5984251968503937
		},
		{
		  "duration": 0.14516100000000165,
		  "durationTicks": 180,
		  "midi": 46,
		  "name": "A#2",
		  "ticks": 138960,
		  "time": 112.064292,
		  "velocity": 0.5984251968503937
		},
		{
		  "duration": 0.14516100000000165,
		  "durationTicks": 180,
		  "midi": 46,
		  "name": "A#2",
		  "ticks": 139200,
		  "time": 112.25784,
		  "velocity": 0.5984251968503937
		},
		{
		  "duration": 0.14516100000000165,
		  "durationTicks": 180,
		  "midi": 46,
		  "name": "A#2",
		  "ticks": 139440,
		  "time": 112.451388,
		  "velocity": 0.5984251968503937
		},
		{
		  "duration": 0.14516100000000165,
		  "durationTicks": 180,
		  "midi": 46,
		  "name": "A#2",
		  "ticks": 139680,
		  "time": 112.644936,
		  "velocity": 0.5984251968503937
		},
		{
		  "duration": 0.14516100000000165,
		  "durationTicks": 180,
		  "midi": 46,
		  "name": "A#2",
		  "ticks": 139920,
		  "time": 112.838484,
		  "velocity": 0.5984251968503937
		},
		{
		  "duration": 0.14516100000000165,
		  "durationTicks": 180,
		  "midi": 44,
		  "name": "G#2",
		  "ticks": 140160,
		  "time": 113.032032,
		  "velocity": 0.5984251968503937
		},
		{
		  "duration": 0.14516100000000165,
		  "durationTicks": 180,
		  "midi": 44,
		  "name": "G#2",
		  "ticks": 140400,
		  "time": 113.22558,
		  "velocity": 0.5984251968503937
		},
		{
		  "duration": 0.14516100000000165,
		  "durationTicks": 180,
		  "midi": 44,
		  "name": "G#2",
		  "ticks": 140640,
		  "time": 113.419128,
		  "velocity": 0.5984251968503937
		},
		{
		  "duration": 0.14516100000000165,
		  "durationTicks": 180,
		  "midi": 44,
		  "name": "G#2",
		  "ticks": 140880,
		  "time": 113.612676,
		  "velocity": 0.5984251968503937
		},
		{
		  "duration": 0.14516100000000165,
		  "durationTicks": 180,
		  "midi": 44,
		  "name": "G#2",
		  "ticks": 141120,
		  "time": 113.806224,
		  "velocity": 0.5984251968503937
		},
		{
		  "duration": 0.14516100000000165,
		  "durationTicks": 180,
		  "midi": 44,
		  "name": "G#2",
		  "ticks": 141360,
		  "time": 113.999772,
		  "velocity": 0.5984251968503937
		},
		{
		  "duration": 0.14516100000000165,
		  "durationTicks": 180,
		  "midi": 44,
		  "name": "G#2",
		  "ticks": 141600,
		  "time": 114.19332,
		  "velocity": 0.5984251968503937
		},
		{
		  "duration": 0.14516100000000165,
		  "durationTicks": 180,
		  "midi": 44,
		  "name": "G#2",
		  "ticks": 141840,
		  "time": 114.38686799999999,
		  "velocity": 0.5984251968503937
		},
		{
		  "duration": 0.14516100000000165,
		  "durationTicks": 180,
		  "midi": 41,
		  "name": "F2",
		  "ticks": 142080,
		  "time": 114.580416,
		  "velocity": 0.5984251968503937
		},
		{
		  "duration": 0.14516100000000165,
		  "durationTicks": 180,
		  "midi": 41,
		  "name": "F2",
		  "ticks": 142320,
		  "time": 114.77396399999999,
		  "velocity": 0.5984251968503937
		},
		{
		  "duration": 0.14516100000000165,
		  "durationTicks": 180,
		  "midi": 41,
		  "name": "F2",
		  "ticks": 142560,
		  "time": 114.967512,
		  "velocity": 0.5984251968503937
		},
		{
		  "duration": 0.14516100000000165,
		  "durationTicks": 180,
		  "midi": 41,
		  "name": "F2",
		  "ticks": 142800,
		  "time": 115.16105999999999,
		  "velocity": 0.5984251968503937
		},
		{
		  "duration": 0.14516100000000165,
		  "durationTicks": 180,
		  "midi": 41,
		  "name": "F2",
		  "ticks": 143040,
		  "time": 115.354608,
		  "velocity": 0.5984251968503937
		},
		{
		  "duration": 0.14516100000000165,
		  "durationTicks": 180,
		  "midi": 41,
		  "name": "F2",
		  "ticks": 143280,
		  "time": 115.54815599999999,
		  "velocity": 0.5984251968503937
		},
		{
		  "duration": 0.14516100000000165,
		  "durationTicks": 180,
		  "midi": 41,
		  "name": "F2",
		  "ticks": 143520,
		  "time": 115.741704,
		  "velocity": 0.5984251968503937
		},
		{
		  "duration": 0.14516099999998744,
		  "durationTicks": 180,
		  "midi": 44,
		  "name": "G#2",
		  "ticks": 143760,
		  "time": 115.935252,
		  "velocity": 0.5984251968503937
		},
		{
		  "duration": 0.14516100000000165,
		  "durationTicks": 180,
		  "midi": 44,
		  "name": "G#2",
		  "ticks": 144000,
		  "time": 116.1288,
		  "velocity": 0.5984251968503937
		},
		{
		  "duration": 0.14516099999998744,
		  "durationTicks": 180,
		  "midi": 44,
		  "name": "G#2",
		  "ticks": 144240,
		  "time": 116.322348,
		  "velocity": 0.5984251968503937
		},
		{
		  "duration": 0.14516100000000165,
		  "durationTicks": 180,
		  "midi": 46,
		  "name": "A#2",
		  "ticks": 144480,
		  "time": 116.515896,
		  "velocity": 0.5984251968503937
		},
		{
		  "duration": 0.14516099999998744,
		  "durationTicks": 180,
		  "midi": 46,
		  "name": "A#2",
		  "ticks": 144720,
		  "time": 116.709444,
		  "velocity": 0.5984251968503937
		},
		{
		  "duration": 0.14516100000000165,
		  "durationTicks": 180,
		  "midi": 46,
		  "name": "A#2",
		  "ticks": 144960,
		  "time": 116.902992,
		  "velocity": 0.5984251968503937
		},
		{
		  "duration": 0.14516099999998744,
		  "durationTicks": 180,
		  "midi": 44,
		  "name": "G#2",
		  "ticks": 145200,
		  "time": 117.09654,
		  "velocity": 0.5984251968503937
		},
		{
		  "duration": 0.14516100000000165,
		  "durationTicks": 180,
		  "midi": 44,
		  "name": "G#2",
		  "ticks": 145440,
		  "time": 117.290088,
		  "velocity": 0.5984251968503937
		},
		{
		  "duration": 0.14516099999998744,
		  "durationTicks": 180,
		  "midi": 44,
		  "name": "G#2",
		  "ticks": 145680,
		  "time": 117.483636,
		  "velocity": 0.5984251968503937
		},
		{
		  "duration": 0.19354799999999273,
		  "durationTicks": 240,
		  "midi": 46,
		  "name": "A#2",
		  "ticks": 146640,
		  "time": 118.257828,
		  "velocity": 0.7480314960629921
		},
		{
		  "duration": 0.19354799999999273,
		  "durationTicks": 240,
		  "midi": 46,
		  "name": "A#2",
		  "ticks": 147120,
		  "time": 118.644924,
		  "velocity": 0.7480314960629921
		},
		{
		  "duration": 0.19354799999999273,
		  "durationTicks": 240,
		  "midi": 46,
		  "name": "A#2",
		  "ticks": 147600,
		  "time": 119.03202,
		  "velocity": 0.7480314960629921
		},
		{
		  "duration": 0.19354799999999273,
		  "durationTicks": 240,
		  "midi": 46,
		  "name": "A#2",
		  "ticks": 148080,
		  "time": 119.419116,
		  "velocity": 0.7480314960629921
		},
		{
		  "duration": 0.19354799999999273,
		  "durationTicks": 240,
		  "midi": 46,
		  "name": "A#2",
		  "ticks": 148560,
		  "time": 119.806212,
		  "velocity": 0.7480314960629921
		},
		{
		  "duration": 0.19354799999999273,
		  "durationTicks": 240,
		  "midi": 46,
		  "name": "A#2",
		  "ticks": 149040,
		  "time": 120.193308,
		  "velocity": 0.7480314960629921
		},
		{
		  "duration": 0.19354799999999273,
		  "durationTicks": 240,
		  "midi": 46,
		  "name": "A#2",
		  "ticks": 149520,
		  "time": 120.580404,
		  "velocity": 0.7480314960629921
		},
		{
		  "duration": 0.19354799999999273,
		  "durationTicks": 240,
		  "midi": 42,
		  "name": "F#2",
		  "ticks": 150480,
		  "time": 121.354596,
		  "velocity": 0.7480314960629921
		},
		{
		  "duration": 0.19354799999999273,
		  "durationTicks": 240,
		  "midi": 42,
		  "name": "F#2",
		  "ticks": 150960,
		  "time": 121.741692,
		  "velocity": 0.7480314960629921
		},
		{
		  "duration": 0.19354799999999273,
		  "durationTicks": 240,
		  "midi": 42,
		  "name": "F#2",
		  "ticks": 151440,
		  "time": 122.128788,
		  "velocity": 0.7480314960629921
		},
		{
		  "duration": 0.19354799999999273,
		  "durationTicks": 240,
		  "midi": 42,
		  "name": "F#2",
		  "ticks": 151920,
		  "time": 122.515884,
		  "velocity": 0.7480314960629921
		},
		{
		  "duration": 0.19354799999999273,
		  "durationTicks": 240,
		  "midi": 42,
		  "name": "F#2",
		  "ticks": 152400,
		  "time": 122.90298,
		  "velocity": 0.7480314960629921
		},
		{
		  "duration": 0.19354799999999273,
		  "durationTicks": 240,
		  "midi": 42,
		  "name": "F#2",
		  "ticks": 152880,
		  "time": 123.290076,
		  "velocity": 0.7480314960629921
		},
		{
		  "duration": 0.19354800000000694,
		  "durationTicks": 240,
		  "midi": 42,
		  "name": "F#2",
		  "ticks": 153360,
		  "time": 123.677172,
		  "velocity": 0.7480314960629921
		},
		{
		  "duration": 0.14516099999998744,
		  "durationTicks": 180,
		  "midi": 46,
		  "name": "A#2",
		  "ticks": 153600,
		  "time": 123.87072,
		  "velocity": 0.5984251968503937
		},
		{
		  "duration": 0.14516100000000165,
		  "durationTicks": 180,
		  "midi": 46,
		  "name": "A#2",
		  "ticks": 153840,
		  "time": 124.064268,
		  "velocity": 0.5984251968503937
		},
		{
		  "duration": 0.14516099999998744,
		  "durationTicks": 180,
		  "midi": 46,
		  "name": "A#2",
		  "ticks": 154080,
		  "time": 124.257816,
		  "velocity": 0.5984251968503937
		},
		{
		  "duration": 0.14516100000000165,
		  "durationTicks": 180,
		  "midi": 46,
		  "name": "A#2",
		  "ticks": 154320,
		  "time": 124.451364,
		  "velocity": 0.5984251968503937
		},
		{
		  "duration": 0.14516099999998744,
		  "durationTicks": 180,
		  "midi": 46,
		  "name": "A#2",
		  "ticks": 154560,
		  "time": 124.644912,
		  "velocity": 0.5984251968503937
		},
		{
		  "duration": 0.14516100000000165,
		  "durationTicks": 180,
		  "midi": 46,
		  "name": "A#2",
		  "ticks": 154800,
		  "time": 124.83846,
		  "velocity": 0.5984251968503937
		},
		{
		  "duration": 0.14516099999998744,
		  "durationTicks": 180,
		  "midi": 46,
		  "name": "A#2",
		  "ticks": 155040,
		  "time": 125.032008,
		  "velocity": 0.5984251968503937
		},
		{
		  "duration": 0.14516100000000165,
		  "durationTicks": 180,
		  "midi": 46,
		  "name": "A#2",
		  "ticks": 155280,
		  "time": 125.225556,
		  "velocity": 0.5984251968503937
		},
		{
		  "duration": 0.14516099999998744,
		  "durationTicks": 180,
		  "midi": 44,
		  "name": "G#2",
		  "ticks": 155520,
		  "time": 125.419104,
		  "velocity": 0.5984251968503937
		},
		{
		  "duration": 0.14516100000000165,
		  "durationTicks": 180,
		  "midi": 44,
		  "name": "G#2",
		  "ticks": 155760,
		  "time": 125.612652,
		  "velocity": 0.5984251968503937
		},
		{
		  "duration": 0.14516100000000165,
		  "durationTicks": 180,
		  "midi": 44,
		  "name": "G#2",
		  "ticks": 156000,
		  "time": 125.8062,
		  "velocity": 0.5984251968503937
		},
		{
		  "duration": 0.14516100000000165,
		  "durationTicks": 180,
		  "midi": 44,
		  "name": "G#2",
		  "ticks": 156240,
		  "time": 125.999748,
		  "velocity": 0.5984251968503937
		},
		{
		  "duration": 0.14516100000000165,
		  "durationTicks": 180,
		  "midi": 44,
		  "name": "G#2",
		  "ticks": 156480,
		  "time": 126.193296,
		  "velocity": 0.5984251968503937
		},
		{
		  "duration": 0.14516100000000165,
		  "durationTicks": 180,
		  "midi": 44,
		  "name": "G#2",
		  "ticks": 156720,
		  "time": 126.386844,
		  "velocity": 0.5984251968503937
		},
		{
		  "duration": 0.14516100000000165,
		  "durationTicks": 180,
		  "midi": 44,
		  "name": "G#2",
		  "ticks": 156960,
		  "time": 126.580392,
		  "velocity": 0.5984251968503937
		},
		{
		  "duration": 0.14516100000000165,
		  "durationTicks": 180,
		  "midi": 44,
		  "name": "G#2",
		  "ticks": 157200,
		  "time": 126.77394,
		  "velocity": 0.5984251968503937
		},
		{
		  "duration": 0.14516100000000165,
		  "durationTicks": 180,
		  "midi": 41,
		  "name": "F2",
		  "ticks": 157440,
		  "time": 126.967488,
		  "velocity": 0.5984251968503937
		},
		{
		  "duration": 0.14516100000000165,
		  "durationTicks": 180,
		  "midi": 41,
		  "name": "F2",
		  "ticks": 157680,
		  "time": 127.161036,
		  "velocity": 0.5984251968503937
		},
		{
		  "duration": 0.14516100000000165,
		  "durationTicks": 180,
		  "midi": 41,
		  "name": "F2",
		  "ticks": 157920,
		  "time": 127.354584,
		  "velocity": 0.5984251968503937
		},
		{
		  "duration": 0.14516100000000165,
		  "durationTicks": 180,
		  "midi": 41,
		  "name": "F2",
		  "ticks": 158160,
		  "time": 127.548132,
		  "velocity": 0.5984251968503937
		},
		{
		  "duration": 0.14516100000000165,
		  "durationTicks": 180,
		  "midi": 41,
		  "name": "F2",
		  "ticks": 158400,
		  "time": 127.74168,
		  "velocity": 0.5984251968503937
		},
		{
		  "duration": 0.14516100000000165,
		  "durationTicks": 180,
		  "midi": 41,
		  "name": "F2",
		  "ticks": 158640,
		  "time": 127.935228,
		  "velocity": 0.5984251968503937
		},
		{
		  "duration": 0.14516100000000165,
		  "durationTicks": 180,
		  "midi": 41,
		  "name": "F2",
		  "ticks": 158880,
		  "time": 128.128776,
		  "velocity": 0.5984251968503937
		},
		{
		  "duration": 0.14516100000000165,
		  "durationTicks": 180,
		  "midi": 41,
		  "name": "F2",
		  "ticks": 159120,
		  "time": 128.322324,
		  "velocity": 0.5984251968503937
		},
		{
		  "duration": 0.14516100000000165,
		  "durationTicks": 180,
		  "midi": 46,
		  "name": "A#2",
		  "ticks": 159360,
		  "time": 128.515872,
		  "velocity": 0.5984251968503937
		},
		{
		  "duration": 0.14516100000000165,
		  "durationTicks": 180,
		  "midi": 46,
		  "name": "A#2",
		  "ticks": 159600,
		  "time": 128.70942,
		  "velocity": 0.5984251968503937
		},
		{
		  "duration": 0.14516100000000165,
		  "durationTicks": 180,
		  "midi": 46,
		  "name": "A#2",
		  "ticks": 159840,
		  "time": 128.902968,
		  "velocity": 0.5984251968503937
		},
		{
		  "duration": 0.14516100000000165,
		  "durationTicks": 180,
		  "midi": 46,
		  "name": "A#2",
		  "ticks": 160080,
		  "time": 129.096516,
		  "velocity": 0.5984251968503937
		},
		{
		  "duration": 0.14516100000000165,
		  "durationTicks": 180,
		  "midi": 46,
		  "name": "A#2",
		  "ticks": 160320,
		  "time": 129.290064,
		  "velocity": 0.5984251968503937
		},
		{
		  "duration": 0.14516100000000165,
		  "durationTicks": 180,
		  "midi": 46,
		  "name": "A#2",
		  "ticks": 160560,
		  "time": 129.483612,
		  "velocity": 0.5984251968503937
		},
		{
		  "duration": 0.14516100000000165,
		  "durationTicks": 180,
		  "midi": 46,
		  "name": "A#2",
		  "ticks": 160800,
		  "time": 129.67716,
		  "velocity": 0.5984251968503937
		},
		{
		  "duration": 0.14516100000000165,
		  "durationTicks": 180,
		  "midi": 44,
		  "name": "G#2",
		  "ticks": 161040,
		  "time": 129.870708,
		  "velocity": 0.5984251968503937
		},
		{
		  "duration": 0.14516100000000165,
		  "durationTicks": 180,
		  "midi": 44,
		  "name": "G#2",
		  "ticks": 161520,
		  "time": 130.257804,
		  "velocity": 0.5984251968503937
		},
		{
		  "duration": 0.14516100000000165,
		  "durationTicks": 180,
		  "midi": 44,
		  "name": "G#2",
		  "ticks": 161760,
		  "time": 130.45135199999999,
		  "velocity": 0.5984251968503937
		},
		{
		  "duration": 0.14516100000000165,
		  "durationTicks": 180,
		  "midi": 46,
		  "name": "A#2",
		  "ticks": 162000,
		  "time": 130.6449,
		  "velocity": 0.5984251968503937
		}
	  ]
	},
	{
	  "channel": 0,
	  "controlChanges": {
		"6": [
		  {
			"number": 6,
			"ticks": 0,
			"time": 0,
			"value": 0.09448818897637795
		  },
		  {
			"number": 6,
			"ticks": 0,
			"time": 0,
			"value": 0.5039370078740157
		  },
		  {
			"number": 6,
			"ticks": 0,
			"time": 0,
			"value": 0.5039370078740157
		  }
		],
		"38": [
		  {
			"number": 38,
			"ticks": 0,
			"time": 0,
			"value": 0
		  }
		],
		"100": [
		  {
			"number": 100,
			"ticks": 0,
			"time": 0,
			"value": 0
		  },
		  {
			"number": 100,
			"ticks": 0,
			"time": 0,
			"value": 0.007874015748031496
		  },
		  {
			"number": 100,
			"ticks": 0,
			"time": 0,
			"value": 1
		  },
		  {
			"number": 100,
			"ticks": 0,
			"time": 0,
			"value": 0.015748031496062992
		  },
		  {
			"number": 100,
			"ticks": 0,
			"time": 0,
			"value": 1
		  }
		],
		"101": [
		  {
			"number": 101,
			"ticks": 0,
			"time": 0,
			"value": 0
		  },
		  {
			"number": 101,
			"ticks": 0,
			"time": 0,
			"value": 0
		  },
		  {
			"number": 101,
			"ticks": 0,
			"time": 0,
			"value": 1
		  },
		  {
			"number": 101,
			"ticks": 0,
			"time": 0,
			"value": 0
		  },
		  {
			"number": 101,
			"ticks": 0,
			"time": 0,
			"value": 1
		  }
		]
	  },
	  "pitchBends": [
		{
		  "ticks": 0,
		  "time": 0,
		  "value": 0
		}
	  ],
	  "instrument": {
		"family": "piano",
		"number": 0,
		"name": "acoustic grand piano"
	  },
	  "name": "Strings",
	  "notes": [],
	  "endOfTrackTicks": 198720
	},
	{
	  "channel": 0,
	  "controlChanges": {
		"6": [
		  {
			"number": 6,
			"ticks": 0,
			"time": 0,
			"value": 0.09448818897637795
		  },
		  {
			"number": 6,
			"ticks": 0,
			"time": 0,
			"value": 0.5039370078740157
		  },
		  {
			"number": 6,
			"ticks": 0,
			"time": 0,
			"value": 0.5039370078740157
		  }
		],
		"38": [
		  {
			"number": 38,
			"ticks": 0,
			"time": 0,
			"value": 0
		  }
		],
		"100": [
		  {
			"number": 100,
			"ticks": 0,
			"time": 0,
			"value": 0
		  },
		  {
			"number": 100,
			"ticks": 0,
			"time": 0,
			"value": 0.007874015748031496
		  },
		  {
			"number": 100,
			"ticks": 0,
			"time": 0,
			"value": 1
		  },
		  {
			"number": 100,
			"ticks": 0,
			"time": 0,
			"value": 0.015748031496062992
		  },
		  {
			"number": 100,
			"ticks": 0,
			"time": 0,
			"value": 1
		  }
		],
		"101": [
		  {
			"number": 101,
			"ticks": 0,
			"time": 0,
			"value": 0
		  },
		  {
			"number": 101,
			"ticks": 0,
			"time": 0,
			"value": 0
		  },
		  {
			"number": 101,
			"ticks": 0,
			"time": 0,
			"value": 1
		  },
		  {
			"number": 101,
			"ticks": 0,
			"time": 0,
			"value": 0
		  },
		  {
			"number": 101,
			"ticks": 0,
			"time": 0,
			"value": 1
		  }
		]
	  },
	  "pitchBends": [
		{
		  "ticks": 0,
		  "time": 0,
		  "value": 0
		}
	  ],
	  "instrument": {
		"family": "piano",
		"number": 0,
		"name": "acoustic grand piano"
	  },
	  "name": "",
	  "notes": []
	},
	{
	  "channel": 0,
	  "controlChanges": {
		"0": [
		  {
			"number": 0,
			"ticks": 0,
			"time": 0,
			"value": 0
		  }
		],
		"7": [
		  {
			"number": 7,
			"ticks": 0,
			"time": 0,
			"value": 0.3779527559055118
		  }
		],
		"10": [
		  {
			"number": 10,
			"ticks": 0,
			"time": 0,
			"value": 0.3779527559055118
		  }
		],
		"91": [
		  {
			"number": 91,
			"ticks": 0,
			"time": 0,
			"value": 0
		  }
		],
		"92": [
		  {
			"number": 92,
			"ticks": 0,
			"time": 0,
			"value": 0
		  }
		],
		"93": [
		  {
			"number": 93,
			"ticks": 0,
			"time": 0,
			"value": 0
		  }
		],
		"95": [
		  {
			"number": 95,
			"ticks": 0,
			"time": 0,
			"value": 0
		  }
		]
	  },
	  "pitchBends": [],
	  "instrument": {
		"family": "ensemble",
		"number": 48,
		"name": "string ensemble 1"
	  },
	  "name": "",
	  "notes": []
	},
	{
	  "channel": 4,
	  "controlChanges": {
		"0": [
		  {
			"number": 0,
			"ticks": 0,
			"time": 0,
			"value": 0
		  }
		],
		"7": [
		  {
			"number": 7,
			"ticks": 0,
			"time": 0,
			"value": 0.3779527559055118
		  }
		],
		"10": [
		  {
			"number": 10,
			"ticks": 0,
			"time": 0,
			"value": 0.3779527559055118
		  }
		],
		"91": [
		  {
			"number": 91,
			"ticks": 0,
			"time": 0,
			"value": 0
		  }
		],
		"92": [
		  {
			"number": 92,
			"ticks": 0,
			"time": 0,
			"value": 0
		  }
		],
		"93": [
		  {
			"number": 93,
			"ticks": 0,
			"time": 0,
			"value": 0
		  }
		],
		"95": [
		  {
			"number": 95,
			"ticks": 0,
			"time": 0,
			"value": 0
		  }
		]
	  },
	  "pitchBends": [],
	  "instrument": {
		"family": "ensemble",
		"number": 48,
		"name": "string ensemble 1"
	  },
	  "name": "",
	  "notes": [
		{
		  "duration": 3.096768,
		  "durationTicks": 3840,
		  "midi": 70,
		  "name": "A#4",
		  "ticks": 0,
		  "time": 0,
		  "velocity": 0.7480314960629921
		},
		{
		  "duration": 1.548384,
		  "durationTicks": 1920,
		  "midi": 73,
		  "name": "C#5",
		  "ticks": 0,
		  "time": 0,
		  "velocity": 0.7480314960629921
		},
		{
		  "duration": 1.548384,
		  "durationTicks": 1920,
		  "midi": 77,
		  "name": "F5",
		  "ticks": 0,
		  "time": 0,
		  "velocity": 0.7480314960629921
		},
		{
		  "duration": 1.548384,
		  "durationTicks": 1920,
		  "midi": 75,
		  "name": "D#5",
		  "ticks": 1920,
		  "time": 1.548384,
		  "velocity": 0.7480314960629921
		},
		{
		  "duration": 1.548384,
		  "durationTicks": 1920,
		  "midi": 78,
		  "name": "F#5",
		  "ticks": 1920,
		  "time": 1.548384,
		  "velocity": 0.7480314960629921
		},
		{
		  "duration": 1.5483839999999995,
		  "durationTicks": 1920,
		  "midi": 66,
		  "name": "F#4",
		  "ticks": 3840,
		  "time": 3.096768,
		  "velocity": 0.7480314960629921
		},
		{
		  "duration": 1.5483839999999995,
		  "durationTicks": 1920,
		  "midi": 70,
		  "name": "A#4",
		  "ticks": 3840,
		  "time": 3.096768,
		  "velocity": 0.7480314960629921
		},
		{
		  "duration": 1.5483839999999995,
		  "durationTicks": 1920,
		  "midi": 73,
		  "name": "C#5",
		  "ticks": 3840,
		  "time": 3.096768,
		  "velocity": 0.7480314960629921
		},
		{
		  "duration": 1.5483840000000004,
		  "durationTicks": 1920,
		  "midi": 68,
		  "name": "G#4",
		  "ticks": 5760,
		  "time": 4.6451519999999995,
		  "velocity": 0.7480314960629921
		},
		{
		  "duration": 1.5483840000000004,
		  "durationTicks": 1920,
		  "midi": 72,
		  "name": "C5",
		  "ticks": 5760,
		  "time": 4.6451519999999995,
		  "velocity": 0.7480314960629921
		},
		{
		  "duration": 1.5483840000000004,
		  "durationTicks": 1920,
		  "midi": 75,
		  "name": "D#5",
		  "ticks": 5760,
		  "time": 4.6451519999999995,
		  "velocity": 0.7480314960629921
		},
		{
		  "duration": 3.096767999999999,
		  "durationTicks": 3840,
		  "midi": 70,
		  "name": "A#4",
		  "ticks": 7680,
		  "time": 6.193536,
		  "velocity": 0.7480314960629921
		},
		{
		  "duration": 1.5483840000000004,
		  "durationTicks": 1920,
		  "midi": 73,
		  "name": "C#5",
		  "ticks": 7680,
		  "time": 6.193536,
		  "velocity": 0.7480314960629921
		},
		{
		  "duration": 1.5483840000000004,
		  "durationTicks": 1920,
		  "midi": 77,
		  "name": "F5",
		  "ticks": 7680,
		  "time": 6.193536,
		  "velocity": 0.7480314960629921
		},
		{
		  "duration": 1.5483839999999987,
		  "durationTicks": 1920,
		  "midi": 75,
		  "name": "D#5",
		  "ticks": 9600,
		  "time": 7.74192,
		  "velocity": 0.7480314960629921
		},
		{
		  "duration": 1.5483839999999987,
		  "durationTicks": 1920,
		  "midi": 78,
		  "name": "F#5",
		  "ticks": 9600,
		  "time": 7.74192,
		  "velocity": 0.7480314960629921
		},
		{
		  "duration": 1.5483840000000004,
		  "durationTicks": 1920,
		  "midi": 66,
		  "name": "F#4",
		  "ticks": 11520,
		  "time": 9.290303999999999,
		  "velocity": 0.7480314960629921
		},
		{
		  "duration": 1.5483840000000004,
		  "durationTicks": 1920,
		  "midi": 70,
		  "name": "A#4",
		  "ticks": 11520,
		  "time": 9.290303999999999,
		  "velocity": 0.7480314960629921
		},
		{
		  "duration": 1.5483840000000004,
		  "durationTicks": 1920,
		  "midi": 73,
		  "name": "C#5",
		  "ticks": 11520,
		  "time": 9.290303999999999,
		  "velocity": 0.7480314960629921
		},
		{
		  "duration": 1.5483840000000004,
		  "durationTicks": 1920,
		  "midi": 68,
		  "name": "G#4",
		  "ticks": 13440,
		  "time": 10.838688,
		  "velocity": 0.7480314960629921
		},
		{
		  "duration": 1.5483840000000004,
		  "durationTicks": 1920,
		  "midi": 72,
		  "name": "C5",
		  "ticks": 13440,
		  "time": 10.838688,
		  "velocity": 0.7480314960629921
		},
		{
		  "duration": 1.5483840000000004,
		  "durationTicks": 1920,
		  "midi": 75,
		  "name": "D#5",
		  "ticks": 13440,
		  "time": 10.838688,
		  "velocity": 0.7480314960629921
		},
		{
		  "duration": 3.096768000000001,
		  "durationTicks": 3840,
		  "midi": 70,
		  "name": "A#4",
		  "ticks": 15360,
		  "time": 12.387072,
		  "velocity": 0.7480314960629921
		},
		{
		  "duration": 1.5483840000000004,
		  "durationTicks": 1920,
		  "midi": 73,
		  "name": "C#5",
		  "ticks": 15360,
		  "time": 12.387072,
		  "velocity": 0.7480314960629921
		},
		{
		  "duration": 1.5483840000000004,
		  "durationTicks": 1920,
		  "midi": 77,
		  "name": "F5",
		  "ticks": 15360,
		  "time": 12.387072,
		  "velocity": 0.7480314960629921
		},
		{
		  "duration": 1.5483840000000004,
		  "durationTicks": 1920,
		  "midi": 75,
		  "name": "D#5",
		  "ticks": 17280,
		  "time": 13.935456,
		  "velocity": 0.7480314960629921
		},
		{
		  "duration": 1.5483840000000004,
		  "durationTicks": 1920,
		  "midi": 78,
		  "name": "F#5",
		  "ticks": 17280,
		  "time": 13.935456,
		  "velocity": 0.7480314960629921
		},
		{
		  "duration": 1.5483839999999987,
		  "durationTicks": 1920,
		  "midi": 66,
		  "name": "F#4",
		  "ticks": 19200,
		  "time": 15.48384,
		  "velocity": 0.7480314960629921
		},
		{
		  "duration": 1.5483839999999987,
		  "durationTicks": 1920,
		  "midi": 70,
		  "name": "A#4",
		  "ticks": 19200,
		  "time": 15.48384,
		  "velocity": 0.7480314960629921
		},
		{
		  "duration": 1.5483839999999987,
		  "durationTicks": 1920,
		  "midi": 73,
		  "name": "C#5",
		  "ticks": 19200,
		  "time": 15.48384,
		  "velocity": 0.7480314960629921
		},
		{
		  "duration": 1.5483839999999987,
		  "durationTicks": 1920,
		  "midi": 68,
		  "name": "G#4",
		  "ticks": 21120,
		  "time": 17.032224,
		  "velocity": 0.7480314960629921
		},
		{
		  "duration": 1.5483839999999987,
		  "durationTicks": 1920,
		  "midi": 72,
		  "name": "C5",
		  "ticks": 21120,
		  "time": 17.032224,
		  "velocity": 0.7480314960629921
		},
		{
		  "duration": 1.5483839999999987,
		  "durationTicks": 1920,
		  "midi": 75,
		  "name": "D#5",
		  "ticks": 21120,
		  "time": 17.032224,
		  "velocity": 0.7480314960629921
		},
		{
		  "duration": 3.096768000000001,
		  "durationTicks": 3840,
		  "midi": 70,
		  "name": "A#4",
		  "ticks": 23040,
		  "time": 18.580607999999998,
		  "velocity": 0.7480314960629921
		},
		{
		  "duration": 1.5483840000000022,
		  "durationTicks": 1920,
		  "midi": 73,
		  "name": "C#5",
		  "ticks": 23040,
		  "time": 18.580607999999998,
		  "velocity": 0.7480314960629921
		},
		{
		  "duration": 1.5483840000000022,
		  "durationTicks": 1920,
		  "midi": 77,
		  "name": "F5",
		  "ticks": 23040,
		  "time": 18.580607999999998,
		  "velocity": 0.7480314960629921
		},
		{
		  "duration": 1.5483839999999987,
		  "durationTicks": 1920,
		  "midi": 75,
		  "name": "D#5",
		  "ticks": 24960,
		  "time": 20.128992,
		  "velocity": 0.7480314960629921
		},
		{
		  "duration": 1.5483839999999987,
		  "durationTicks": 1920,
		  "midi": 78,
		  "name": "F#5",
		  "ticks": 24960,
		  "time": 20.128992,
		  "velocity": 0.7480314960629921
		},
		{
		  "duration": 1.5483840000000022,
		  "durationTicks": 1920,
		  "midi": 66,
		  "name": "F#4",
		  "ticks": 26880,
		  "time": 21.677376,
		  "velocity": 0.7480314960629921
		},
		{
		  "duration": 1.5483840000000022,
		  "durationTicks": 1920,
		  "midi": 70,
		  "name": "A#4",
		  "ticks": 26880,
		  "time": 21.677376,
		  "velocity": 0.7480314960629921
		},
		{
		  "duration": 1.5483840000000022,
		  "durationTicks": 1920,
		  "midi": 73,
		  "name": "C#5",
		  "ticks": 26880,
		  "time": 21.677376,
		  "velocity": 0.7480314960629921
		},
		{
		  "duration": 1.5483839999999987,
		  "durationTicks": 1920,
		  "midi": 68,
		  "name": "G#4",
		  "ticks": 28800,
		  "time": 23.22576,
		  "velocity": 0.7480314960629921
		},
		{
		  "duration": 1.5483839999999987,
		  "durationTicks": 1920,
		  "midi": 72,
		  "name": "C5",
		  "ticks": 28800,
		  "time": 23.22576,
		  "velocity": 0.7480314960629921
		},
		{
		  "duration": 1.5483839999999987,
		  "durationTicks": 1920,
		  "midi": 75,
		  "name": "D#5",
		  "ticks": 28800,
		  "time": 23.22576,
		  "velocity": 0.7480314960629921
		},
		{
		  "duration": 1.5483840000000058,
		  "durationTicks": 1920,
		  "midi": 70,
		  "name": "A#4",
		  "ticks": 46080,
		  "time": 37.161215999999996,
		  "velocity": 0.7480314960629921
		},
		{
		  "duration": 1.5483839999999987,
		  "durationTicks": 1920,
		  "midi": 73,
		  "name": "C#5",
		  "ticks": 48000,
		  "time": 38.7096,
		  "velocity": 0.7480314960629921
		},
		{
		  "duration": 1.5483839999999987,
		  "durationTicks": 1920,
		  "midi": 70,
		  "name": "A#4",
		  "ticks": 49920,
		  "time": 40.257984,
		  "velocity": 0.7480314960629921
		},
		{
		  "duration": 0.7741919999999993,
		  "durationTicks": 960,
		  "midi": 68,
		  "name": "G#4",
		  "ticks": 51840,
		  "time": 41.806368,
		  "velocity": 0.7480314960629921
		},
		{
		  "duration": 0.7741919999999993,
		  "durationTicks": 960,
		  "midi": 72,
		  "name": "C5",
		  "ticks": 52800,
		  "time": 42.58056,
		  "velocity": 0.7480314960629921
		},
		{
		  "duration": 1.5483839999999987,
		  "durationTicks": 1920,
		  "midi": 70,
		  "name": "A#4",
		  "ticks": 53760,
		  "time": 43.354752,
		  "velocity": 0.7480314960629921
		},
		{
		  "duration": 1.5483840000000058,
		  "durationTicks": 1920,
		  "midi": 68,
		  "name": "G#4",
		  "ticks": 55680,
		  "time": 44.903135999999996,
		  "velocity": 0.7480314960629921
		},
		{
		  "duration": 1.5483839999999987,
		  "durationTicks": 1920,
		  "midi": 65,
		  "name": "F4",
		  "ticks": 57600,
		  "time": 46.45152,
		  "velocity": 0.7480314960629921
		},
		{
		  "duration": 1.5483839999999987,
		  "durationTicks": 1920,
		  "midi": 70,
		  "name": "A#4",
		  "ticks": 59520,
		  "time": 47.999904,
		  "velocity": 0.7480314960629921
		},
		{
		  "duration": 1.5483839999999987,
		  "durationTicks": 1920,
		  "midi": 65,
		  "name": "F4",
		  "ticks": 63360,
		  "time": 51.096672,
		  "velocity": 0.7480314960629921
		},
		{
		  "duration": 1.5483839999999987,
		  "durationTicks": 1920,
		  "midi": 61,
		  "name": "C#4",
		  "ticks": 63360,
		  "time": 51.096672,
		  "velocity": 0.7480314960629921
		},
		{
		  "duration": 3.0967680000000044,
		  "durationTicks": 3840,
		  "midi": 58,
		  "name": "A#3",
		  "ticks": 63360,
		  "time": 51.096672,
		  "velocity": 0.7480314960629921
		},
		{
		  "duration": 1.5483840000000058,
		  "durationTicks": 1920,
		  "midi": 66,
		  "name": "F#4",
		  "ticks": 65280,
		  "time": 52.645056,
		  "velocity": 0.7480314960629921
		},
		{
		  "duration": 1.5483840000000058,
		  "durationTicks": 1920,
		  "midi": 63,
		  "name": "D#4",
		  "ticks": 65280,
		  "time": 52.645056,
		  "velocity": 0.7480314960629921
		},
		{
		  "duration": 1.5483839999999987,
		  "durationTicks": 1920,
		  "midi": 60,
		  "name": "C4",
		  "ticks": 67200,
		  "time": 54.19344,
		  "velocity": 0.7480314960629921
		},
		{
		  "duration": 1.5483839999999987,
		  "durationTicks": 1920,
		  "midi": 56,
		  "name": "G#3",
		  "ticks": 67200,
		  "time": 54.19344,
		  "velocity": 0.7480314960629921
		},
		{
		  "duration": 1.5483839999999987,
		  "durationTicks": 1920,
		  "midi": 63,
		  "name": "D#4",
		  "ticks": 67200,
		  "time": 54.19344,
		  "velocity": 0.7480314960629921
		},
		{
		  "duration": 1.5483839999999987,
		  "durationTicks": 1920,
		  "midi": 65,
		  "name": "F4",
		  "ticks": 69120,
		  "time": 55.741824,
		  "velocity": 0.7480314960629921
		},
		{
		  "duration": 1.5483839999999987,
		  "durationTicks": 1920,
		  "midi": 61,
		  "name": "C#4",
		  "ticks": 69120,
		  "time": 55.741824,
		  "velocity": 0.7480314960629921
		},
		{
		  "duration": 1.5483839999999987,
		  "durationTicks": 1920,
		  "midi": 58,
		  "name": "A#3",
		  "ticks": 69120,
		  "time": 55.741824,
		  "velocity": 0.7480314960629921
		},
		{
		  "duration": 1.5483839999999987,
		  "durationTicks": 1920,
		  "midi": 60,
		  "name": "C4",
		  "ticks": 71040,
		  "time": 57.290208,
		  "velocity": 0.7480314960629921
		},
		{
		  "duration": 1.5483839999999987,
		  "durationTicks": 1920,
		  "midi": 56,
		  "name": "G#3",
		  "ticks": 71040,
		  "time": 57.290208,
		  "velocity": 0.7480314960629921
		},
		{
		  "duration": 1.5483839999999987,
		  "durationTicks": 1920,
		  "midi": 63,
		  "name": "D#4",
		  "ticks": 71040,
		  "time": 57.290208,
		  "velocity": 0.7480314960629921
		},
		{
		  "duration": 1.5483839999999987,
		  "durationTicks": 1920,
		  "midi": 61,
		  "name": "C#4",
		  "ticks": 72960,
		  "time": 58.838592,
		  "velocity": 0.7480314960629921
		},
		{
		  "duration": 1.5483839999999987,
		  "durationTicks": 1920,
		  "midi": 58,
		  "name": "A#3",
		  "ticks": 72960,
		  "time": 58.838592,
		  "velocity": 0.7480314960629921
		},
		{
		  "duration": 1.5483839999999987,
		  "durationTicks": 1920,
		  "midi": 54,
		  "name": "F#3",
		  "ticks": 72960,
		  "time": 58.838592,
		  "velocity": 0.7480314960629921
		},
		{
		  "duration": 1.5483840000000058,
		  "durationTicks": 1920,
		  "midi": 60,
		  "name": "C4",
		  "ticks": 74880,
		  "time": 60.386976,
		  "velocity": 0.7480314960629921
		},
		{
		  "duration": 1.5483840000000058,
		  "durationTicks": 1920,
		  "midi": 56,
		  "name": "G#3",
		  "ticks": 74880,
		  "time": 60.386976,
		  "velocity": 0.7480314960629921
		},
		{
		  "duration": 1.5483840000000058,
		  "durationTicks": 1920,
		  "midi": 53,
		  "name": "F3",
		  "ticks": 74880,
		  "time": 60.386976,
		  "velocity": 0.7480314960629921
		},
		{
		  "duration": 0.9677399999999992,
		  "durationTicks": 1200,
		  "midi": 65,
		  "name": "F4",
		  "ticks": 76800,
		  "time": 61.93536,
		  "velocity": 0.7480314960629921
		},
		{
		  "duration": 0.9677399999999992,
		  "durationTicks": 1200,
		  "midi": 61,
		  "name": "C#4",
		  "ticks": 76800,
		  "time": 61.93536,
		  "velocity": 0.7480314960629921
		},
		{
		  "duration": 0.9677399999999992,
		  "durationTicks": 1200,
		  "midi": 58,
		  "name": "A#3",
		  "ticks": 76800,
		  "time": 61.93536,
		  "velocity": 0.7480314960629921
		},
		{
		  "duration": 0.5806439999999995,
		  "durationTicks": 720,
		  "midi": 60,
		  "name": "C4",
		  "ticks": 78000,
		  "time": 62.9031,
		  "velocity": 0.7480314960629921
		},
		{
		  "duration": 0.5806439999999995,
		  "durationTicks": 720,
		  "midi": 56,
		  "name": "G#3",
		  "ticks": 78000,
		  "time": 62.9031,
		  "velocity": 0.7480314960629921
		},
		{
		  "duration": 0.5806439999999995,
		  "durationTicks": 720,
		  "midi": 63,
		  "name": "D#4",
		  "ticks": 78000,
		  "time": 62.9031,
		  "velocity": 0.7480314960629921
		},
		{
		  "duration": 1.5483839999999987,
		  "durationTicks": 1920,
		  "midi": 65,
		  "name": "F4",
		  "ticks": 78720,
		  "time": 63.483744,
		  "velocity": 0.7480314960629921
		},
		{
		  "duration": 1.5483839999999987,
		  "durationTicks": 1920,
		  "midi": 61,
		  "name": "C#4",
		  "ticks": 78720,
		  "time": 63.483744,
		  "velocity": 0.7480314960629921
		},
		{
		  "duration": 3.0967679999999973,
		  "durationTicks": 3840,
		  "midi": 58,
		  "name": "A#3",
		  "ticks": 78720,
		  "time": 63.483744,
		  "velocity": 0.7480314960629921
		},
		{
		  "duration": 1.5483839999999987,
		  "durationTicks": 1920,
		  "midi": 66,
		  "name": "F#4",
		  "ticks": 80640,
		  "time": 65.032128,
		  "velocity": 0.7480314960629921
		},
		{
		  "duration": 1.5483839999999987,
		  "durationTicks": 1920,
		  "midi": 63,
		  "name": "D#4",
		  "ticks": 80640,
		  "time": 65.032128,
		  "velocity": 0.7480314960629921
		},
		{
		  "duration": 1.5483839999999987,
		  "durationTicks": 1920,
		  "midi": 60,
		  "name": "C4",
		  "ticks": 82560,
		  "time": 66.580512,
		  "velocity": 0.7480314960629921
		},
		{
		  "duration": 1.5483839999999987,
		  "durationTicks": 1920,
		  "midi": 56,
		  "name": "G#3",
		  "ticks": 82560,
		  "time": 66.580512,
		  "velocity": 0.7480314960629921
		},
		{
		  "duration": 1.5483839999999987,
		  "durationTicks": 1920,
		  "midi": 63,
		  "name": "D#4",
		  "ticks": 82560,
		  "time": 66.580512,
		  "velocity": 0.7480314960629921
		},
		{
		  "duration": 1.5483839999999987,
		  "durationTicks": 1920,
		  "midi": 65,
		  "name": "F4",
		  "ticks": 84480,
		  "time": 68.128896,
		  "velocity": 0.7480314960629921
		},
		{
		  "duration": 1.5483839999999987,
		  "durationTicks": 1920,
		  "midi": 61,
		  "name": "C#4",
		  "ticks": 84480,
		  "time": 68.128896,
		  "velocity": 0.7480314960629921
		},
		{
		  "duration": 1.5483839999999987,
		  "durationTicks": 1920,
		  "midi": 58,
		  "name": "A#3",
		  "ticks": 84480,
		  "time": 68.128896,
		  "velocity": 0.7480314960629921
		},
		{
		  "duration": 1.5483839999999987,
		  "durationTicks": 1920,
		  "midi": 60,
		  "name": "C4",
		  "ticks": 86400,
		  "time": 69.67728,
		  "velocity": 0.7480314960629921
		},
		{
		  "duration": 1.5483839999999987,
		  "durationTicks": 1920,
		  "midi": 56,
		  "name": "G#3",
		  "ticks": 86400,
		  "time": 69.67728,
		  "velocity": 0.7480314960629921
		},
		{
		  "duration": 1.5483839999999987,
		  "durationTicks": 1920,
		  "midi": 63,
		  "name": "D#4",
		  "ticks": 86400,
		  "time": 69.67728,
		  "velocity": 0.7480314960629921
		},
		{
		  "duration": 1.5483839999999987,
		  "durationTicks": 1920,
		  "midi": 61,
		  "name": "C#4",
		  "ticks": 88320,
		  "time": 71.225664,
		  "velocity": 0.7480314960629921
		},
		{
		  "duration": 1.5483839999999987,
		  "durationTicks": 1920,
		  "midi": 58,
		  "name": "A#3",
		  "ticks": 88320,
		  "time": 71.225664,
		  "velocity": 0.7480314960629921
		},
		{
		  "duration": 1.5483839999999987,
		  "durationTicks": 1920,
		  "midi": 54,
		  "name": "F#3",
		  "ticks": 88320,
		  "time": 71.225664,
		  "velocity": 0.7480314960629921
		},
		{
		  "duration": 1.5483839999999987,
		  "durationTicks": 1920,
		  "midi": 60,
		  "name": "C4",
		  "ticks": 90240,
		  "time": 72.774048,
		  "velocity": 0.7480314960629921
		},
		{
		  "duration": 1.5483839999999987,
		  "durationTicks": 1920,
		  "midi": 56,
		  "name": "G#3",
		  "ticks": 90240,
		  "time": 72.774048,
		  "velocity": 0.7480314960629921
		},
		{
		  "duration": 1.5483839999999987,
		  "durationTicks": 1920,
		  "midi": 53,
		  "name": "F3",
		  "ticks": 90240,
		  "time": 72.774048,
		  "velocity": 0.7480314960629921
		},
		{
		  "duration": 2.322576000000012,
		  "durationTicks": 2880,
		  "midi": 65,
		  "name": "F4",
		  "ticks": 92160,
		  "time": 74.32243199999999,
		  "velocity": 0.7480314960629921
		},
		{
		  "duration": 2.322576000000012,
		  "durationTicks": 2880,
		  "midi": 61,
		  "name": "C#4",
		  "ticks": 92160,
		  "time": 74.32243199999999,
		  "velocity": 0.7480314960629921
		},
		{
		  "duration": 2.322576000000012,
		  "durationTicks": 2880,
		  "midi": 58,
		  "name": "A#3",
		  "ticks": 92160,
		  "time": 74.32243199999999,
		  "velocity": 0.7480314960629921
		},
		{
		  "duration": 0.7741919999999993,
		  "durationTicks": 960,
		  "midi": 60,
		  "name": "C4",
		  "ticks": 95040,
		  "time": 76.645008,
		  "velocity": 0.7480314960629921
		},
		{
		  "duration": 0.7741919999999993,
		  "durationTicks": 960,
		  "midi": 56,
		  "name": "G#3",
		  "ticks": 95040,
		  "time": 76.645008,
		  "velocity": 0.7480314960629921
		},
		{
		  "duration": 0.7741919999999993,
		  "durationTicks": 960,
		  "midi": 63,
		  "name": "D#4",
		  "ticks": 95040,
		  "time": 76.645008,
		  "velocity": 0.7480314960629921
		},
		{
		  "duration": 2.322575999999998,
		  "durationTicks": 2880,
		  "midi": 65,
		  "name": "F4",
		  "ticks": 96000,
		  "time": 77.4192,
		  "velocity": 0.7480314960629921
		},
		{
		  "duration": 2.322575999999998,
		  "durationTicks": 2880,
		  "midi": 61,
		  "name": "C#4",
		  "ticks": 96000,
		  "time": 77.4192,
		  "velocity": 0.7480314960629921
		},
		{
		  "duration": 2.322575999999998,
		  "durationTicks": 2880,
		  "midi": 58,
		  "name": "A#3",
		  "ticks": 96000,
		  "time": 77.4192,
		  "velocity": 0.7480314960629921
		},
		{
		  "duration": 3.0967679999999973,
		  "durationTicks": 3840,
		  "midi": 70,
		  "name": "A#4",
		  "ticks": 99840,
		  "time": 80.515968,
		  "velocity": 0.7480314960629921
		},
		{
		  "duration": 1.5483839999999987,
		  "durationTicks": 1920,
		  "midi": 73,
		  "name": "C#5",
		  "ticks": 99840,
		  "time": 80.515968,
		  "velocity": 0.7480314960629921
		},
		{
		  "duration": 1.5483839999999987,
		  "durationTicks": 1920,
		  "midi": 77,
		  "name": "F5",
		  "ticks": 99840,
		  "time": 80.515968,
		  "velocity": 0.7480314960629921
		},
		{
		  "duration": 1.5483839999999987,
		  "durationTicks": 1920,
		  "midi": 75,
		  "name": "D#5",
		  "ticks": 101760,
		  "time": 82.064352,
		  "velocity": 0.7480314960629921
		},
		{
		  "duration": 1.5483839999999987,
		  "durationTicks": 1920,
		  "midi": 78,
		  "name": "F#5",
		  "ticks": 101760,
		  "time": 82.064352,
		  "velocity": 0.7480314960629921
		},
		{
		  "duration": 1.5483839999999987,
		  "durationTicks": 1920,
		  "midi": 66,
		  "name": "F#4",
		  "ticks": 103680,
		  "time": 83.612736,
		  "velocity": 0.7480314960629921
		},
		{
		  "duration": 1.5483839999999987,
		  "durationTicks": 1920,
		  "midi": 70,
		  "name": "A#4",
		  "ticks": 103680,
		  "time": 83.612736,
		  "velocity": 0.7480314960629921
		},
		{
		  "duration": 1.5483839999999987,
		  "durationTicks": 1920,
		  "midi": 73,
		  "name": "C#5",
		  "ticks": 103680,
		  "time": 83.612736,
		  "velocity": 0.7480314960629921
		},
		{
		  "duration": 1.5483839999999987,
		  "durationTicks": 1920,
		  "midi": 68,
		  "name": "G#4",
		  "ticks": 105600,
		  "time": 85.16112,
		  "velocity": 0.7480314960629921
		},
		{
		  "duration": 1.5483839999999987,
		  "durationTicks": 1920,
		  "midi": 72,
		  "name": "C5",
		  "ticks": 105600,
		  "time": 85.16112,
		  "velocity": 0.7480314960629921
		},
		{
		  "duration": 1.5483839999999987,
		  "durationTicks": 1920,
		  "midi": 75,
		  "name": "D#5",
		  "ticks": 105600,
		  "time": 85.16112,
		  "velocity": 0.7480314960629921
		},
		{
		  "duration": 3.0967679999999973,
		  "durationTicks": 3840,
		  "midi": 70,
		  "name": "A#4",
		  "ticks": 107520,
		  "time": 86.709504,
		  "velocity": 0.7480314960629921
		},
		{
		  "duration": 1.5483839999999987,
		  "durationTicks": 1920,
		  "midi": 73,
		  "name": "C#5",
		  "ticks": 107520,
		  "time": 86.709504,
		  "velocity": 0.7480314960629921
		},
		{
		  "duration": 1.5483839999999987,
		  "durationTicks": 1920,
		  "midi": 77,
		  "name": "F5",
		  "ticks": 107520,
		  "time": 86.709504,
		  "velocity": 0.7480314960629921
		},
		{
		  "duration": 1.5483839999999987,
		  "durationTicks": 1920,
		  "midi": 75,
		  "name": "D#5",
		  "ticks": 109440,
		  "time": 88.257888,
		  "velocity": 0.7480314960629921
		},
		{
		  "duration": 1.5483839999999987,
		  "durationTicks": 1920,
		  "midi": 78,
		  "name": "F#5",
		  "ticks": 109440,
		  "time": 88.257888,
		  "velocity": 0.7480314960629921
		},
		{
		  "duration": 1.5483840000000129,
		  "durationTicks": 1920,
		  "midi": 66,
		  "name": "F#4",
		  "ticks": 111360,
		  "time": 89.80627199999999,
		  "velocity": 0.7480314960629921
		},
		{
		  "duration": 1.5483840000000129,
		  "durationTicks": 1920,
		  "midi": 70,
		  "name": "A#4",
		  "ticks": 111360,
		  "time": 89.80627199999999,
		  "velocity": 0.7480314960629921
		},
		{
		  "duration": 1.5483840000000129,
		  "durationTicks": 1920,
		  "midi": 73,
		  "name": "C#5",
		  "ticks": 111360,
		  "time": 89.80627199999999,
		  "velocity": 0.7480314960629921
		},
		{
		  "duration": 1.5483839999999987,
		  "durationTicks": 1920,
		  "midi": 68,
		  "name": "G#4",
		  "ticks": 113280,
		  "time": 91.354656,
		  "velocity": 0.7480314960629921
		},
		{
		  "duration": 1.5483839999999987,
		  "durationTicks": 1920,
		  "midi": 72,
		  "name": "C5",
		  "ticks": 113280,
		  "time": 91.354656,
		  "velocity": 0.7480314960629921
		},
		{
		  "duration": 1.5483839999999987,
		  "durationTicks": 1920,
		  "midi": 75,
		  "name": "D#5",
		  "ticks": 113280,
		  "time": 91.354656,
		  "velocity": 0.7480314960629921
		},
		{
		  "duration": 3.0967679999999973,
		  "durationTicks": 3840,
		  "midi": 70,
		  "name": "A#4",
		  "ticks": 115200,
		  "time": 92.90304,
		  "velocity": 0.7480314960629921
		},
		{
		  "duration": 1.5483839999999987,
		  "durationTicks": 1920,
		  "midi": 73,
		  "name": "C#5",
		  "ticks": 115200,
		  "time": 92.90304,
		  "velocity": 0.7480314960629921
		},
		{
		  "duration": 1.5483839999999987,
		  "durationTicks": 1920,
		  "midi": 77,
		  "name": "F5",
		  "ticks": 115200,
		  "time": 92.90304,
		  "velocity": 0.7480314960629921
		},
		{
		  "duration": 1.5483839999999987,
		  "durationTicks": 1920,
		  "midi": 75,
		  "name": "D#5",
		  "ticks": 117120,
		  "time": 94.451424,
		  "velocity": 0.7480314960629921
		},
		{
		  "duration": 1.5483839999999987,
		  "durationTicks": 1920,
		  "midi": 78,
		  "name": "F#5",
		  "ticks": 117120,
		  "time": 94.451424,
		  "velocity": 0.7480314960629921
		},
		{
		  "duration": 1.5483839999999987,
		  "durationTicks": 1920,
		  "midi": 66,
		  "name": "F#4",
		  "ticks": 119040,
		  "time": 95.999808,
		  "velocity": 0.7480314960629921
		},
		{
		  "duration": 1.5483839999999987,
		  "durationTicks": 1920,
		  "midi": 70,
		  "name": "A#4",
		  "ticks": 119040,
		  "time": 95.999808,
		  "velocity": 0.7480314960629921
		},
		{
		  "duration": 1.5483839999999987,
		  "durationTicks": 1920,
		  "midi": 73,
		  "name": "C#5",
		  "ticks": 119040,
		  "time": 95.999808,
		  "velocity": 0.7480314960629921
		},
		{
		  "duration": 1.5483839999999987,
		  "durationTicks": 1920,
		  "midi": 68,
		  "name": "G#4",
		  "ticks": 120960,
		  "time": 97.548192,
		  "velocity": 0.7480314960629921
		},
		{
		  "duration": 1.5483839999999987,
		  "durationTicks": 1920,
		  "midi": 72,
		  "name": "C5",
		  "ticks": 120960,
		  "time": 97.548192,
		  "velocity": 0.7480314960629921
		},
		{
		  "duration": 1.5483839999999987,
		  "durationTicks": 1920,
		  "midi": 75,
		  "name": "D#5",
		  "ticks": 120960,
		  "time": 97.548192,
		  "velocity": 0.7480314960629921
		},
		{
		  "duration": 3.0967679999999973,
		  "durationTicks": 3840,
		  "midi": 70,
		  "name": "A#4",
		  "ticks": 122880,
		  "time": 99.096576,
		  "velocity": 0.7480314960629921
		},
		{
		  "duration": 1.5483839999999987,
		  "durationTicks": 1920,
		  "midi": 73,
		  "name": "C#5",
		  "ticks": 122880,
		  "time": 99.096576,
		  "velocity": 0.7480314960629921
		},
		{
		  "duration": 1.5483839999999987,
		  "durationTicks": 1920,
		  "midi": 77,
		  "name": "F5",
		  "ticks": 122880,
		  "time": 99.096576,
		  "velocity": 0.7480314960629921
		},
		{
		  "duration": 1.5483839999999987,
		  "durationTicks": 1920,
		  "midi": 75,
		  "name": "D#5",
		  "ticks": 124800,
		  "time": 100.64496,
		  "velocity": 0.7480314960629921
		},
		{
		  "duration": 1.5483839999999987,
		  "durationTicks": 1920,
		  "midi": 78,
		  "name": "F#5",
		  "ticks": 124800,
		  "time": 100.64496,
		  "velocity": 0.7480314960629921
		},
		{
		  "duration": 1.5483839999999987,
		  "durationTicks": 1920,
		  "midi": 66,
		  "name": "F#4",
		  "ticks": 126720,
		  "time": 102.193344,
		  "velocity": 0.7480314960629921
		},
		{
		  "duration": 1.5483839999999987,
		  "durationTicks": 1920,
		  "midi": 70,
		  "name": "A#4",
		  "ticks": 126720,
		  "time": 102.193344,
		  "velocity": 0.7480314960629921
		},
		{
		  "duration": 1.5483839999999987,
		  "durationTicks": 1920,
		  "midi": 73,
		  "name": "C#5",
		  "ticks": 126720,
		  "time": 102.193344,
		  "velocity": 0.7480314960629921
		},
		{
		  "duration": 1.5483839999999987,
		  "durationTicks": 1920,
		  "midi": 68,
		  "name": "G#4",
		  "ticks": 128640,
		  "time": 103.741728,
		  "velocity": 0.7480314960629921
		},
		{
		  "duration": 1.5483839999999987,
		  "durationTicks": 1920,
		  "midi": 72,
		  "name": "C5",
		  "ticks": 128640,
		  "time": 103.741728,
		  "velocity": 0.7480314960629921
		},
		{
		  "duration": 1.5483839999999987,
		  "durationTicks": 1920,
		  "midi": 75,
		  "name": "D#5",
		  "ticks": 128640,
		  "time": 103.741728,
		  "velocity": 0.7480314960629921
		},
		{
		  "duration": 1.5483839999999987,
		  "durationTicks": 1920,
		  "midi": 70,
		  "name": "A#4",
		  "ticks": 145920,
		  "time": 117.677184,
		  "velocity": 0.7480314960629921
		},
		{
		  "duration": 1.5483839999999987,
		  "durationTicks": 1920,
		  "midi": 73,
		  "name": "C#5",
		  "ticks": 147840,
		  "time": 119.225568,
		  "velocity": 0.7480314960629921
		},
		{
		  "duration": 1.5483839999999987,
		  "durationTicks": 1920,
		  "midi": 70,
		  "name": "A#4",
		  "ticks": 149760,
		  "time": 120.773952,
		  "velocity": 0.7480314960629921
		},
		{
		  "duration": 0.7741919999999993,
		  "durationTicks": 960,
		  "midi": 68,
		  "name": "G#4",
		  "ticks": 151680,
		  "time": 122.32233599999999,
		  "velocity": 0.7480314960629921
		},
		{
		  "duration": 0.7741920000000135,
		  "durationTicks": 960,
		  "midi": 72,
		  "name": "C5",
		  "ticks": 152640,
		  "time": 123.09652799999999,
		  "velocity": 0.7480314960629921
		},
		{
		  "duration": 1.5483839999999987,
		  "durationTicks": 1920,
		  "midi": 70,
		  "name": "A#4",
		  "ticks": 153600,
		  "time": 123.87072,
		  "velocity": 0.7480314960629921
		},
		{
		  "duration": 1.5483839999999987,
		  "durationTicks": 1920,
		  "midi": 68,
		  "name": "G#4",
		  "ticks": 155520,
		  "time": 125.419104,
		  "velocity": 0.7480314960629921
		},
		{
		  "duration": 1.5483839999999987,
		  "durationTicks": 1920,
		  "midi": 65,
		  "name": "F4",
		  "ticks": 157440,
		  "time": 126.967488,
		  "velocity": 0.7480314960629921
		},
		{
		  "duration": 1.5483839999999987,
		  "durationTicks": 1920,
		  "midi": 70,
		  "name": "A#4",
		  "ticks": 159360,
		  "time": 128.515872,
		  "velocity": 0.7480314960629921
		},
		{
		  "duration": 1.5483839999999987,
		  "durationTicks": 1920,
		  "midi": 65,
		  "name": "F4",
		  "ticks": 163200,
		  "time": 131.61264,
		  "velocity": 0.7480314960629921
		},
		{
		  "duration": 1.5483839999999987,
		  "durationTicks": 1920,
		  "midi": 61,
		  "name": "C#4",
		  "ticks": 163200,
		  "time": 131.61264,
		  "velocity": 0.7480314960629921
		},
		{
		  "duration": 3.0967679999999973,
		  "durationTicks": 3840,
		  "midi": 58,
		  "name": "A#3",
		  "ticks": 163200,
		  "time": 131.61264,
		  "velocity": 0.7480314960629921
		},
		{
		  "duration": 1.5483839999999987,
		  "durationTicks": 1920,
		  "midi": 66,
		  "name": "F#4",
		  "ticks": 165120,
		  "time": 133.161024,
		  "velocity": 0.7480314960629921
		},
		{
		  "duration": 1.5483839999999987,
		  "durationTicks": 1920,
		  "midi": 63,
		  "name": "D#4",
		  "ticks": 165120,
		  "time": 133.161024,
		  "velocity": 0.7480314960629921
		},
		{
		  "duration": 1.5483839999999987,
		  "durationTicks": 1920,
		  "midi": 60,
		  "name": "C4",
		  "ticks": 167040,
		  "time": 134.709408,
		  "velocity": 0.7480314960629921
		},
		{
		  "duration": 1.5483839999999987,
		  "durationTicks": 1920,
		  "midi": 56,
		  "name": "G#3",
		  "ticks": 167040,
		  "time": 134.709408,
		  "velocity": 0.7480314960629921
		},
		{
		  "duration": 1.5483839999999987,
		  "durationTicks": 1920,
		  "midi": 63,
		  "name": "D#4",
		  "ticks": 167040,
		  "time": 134.709408,
		  "velocity": 0.7480314960629921
		},
		{
		  "duration": 1.5483839999999987,
		  "durationTicks": 1920,
		  "midi": 65,
		  "name": "F4",
		  "ticks": 168960,
		  "time": 136.257792,
		  "velocity": 0.7480314960629921
		},
		{
		  "duration": 1.5483839999999987,
		  "durationTicks": 1920,
		  "midi": 61,
		  "name": "C#4",
		  "ticks": 168960,
		  "time": 136.257792,
		  "velocity": 0.7480314960629921
		},
		{
		  "duration": 1.5483839999999987,
		  "durationTicks": 1920,
		  "midi": 58,
		  "name": "A#3",
		  "ticks": 168960,
		  "time": 136.257792,
		  "velocity": 0.7480314960629921
		},
		{
		  "duration": 1.5483839999999987,
		  "durationTicks": 1920,
		  "midi": 60,
		  "name": "C4",
		  "ticks": 170880,
		  "time": 137.806176,
		  "velocity": 0.7480314960629921
		},
		{
		  "duration": 1.5483839999999987,
		  "durationTicks": 1920,
		  "midi": 56,
		  "name": "G#3",
		  "ticks": 170880,
		  "time": 137.806176,
		  "velocity": 0.7480314960629921
		},
		{
		  "duration": 1.5483839999999987,
		  "durationTicks": 1920,
		  "midi": 63,
		  "name": "D#4",
		  "ticks": 170880,
		  "time": 137.806176,
		  "velocity": 0.7480314960629921
		},
		{
		  "duration": 1.5483839999999987,
		  "durationTicks": 1920,
		  "midi": 61,
		  "name": "C#4",
		  "ticks": 172800,
		  "time": 139.35456,
		  "velocity": 0.7480314960629921
		},
		{
		  "duration": 1.5483839999999987,
		  "durationTicks": 1920,
		  "midi": 58,
		  "name": "A#3",
		  "ticks": 172800,
		  "time": 139.35456,
		  "velocity": 0.7480314960629921
		},
		{
		  "duration": 1.5483839999999987,
		  "durationTicks": 1920,
		  "midi": 54,
		  "name": "F#3",
		  "ticks": 172800,
		  "time": 139.35456,
		  "velocity": 0.7480314960629921
		},
		{
		  "duration": 1.5483839999999987,
		  "durationTicks": 1920,
		  "midi": 60,
		  "name": "C4",
		  "ticks": 174720,
		  "time": 140.902944,
		  "velocity": 0.7480314960629921
		},
		{
		  "duration": 1.5483839999999987,
		  "durationTicks": 1920,
		  "midi": 56,
		  "name": "G#3",
		  "ticks": 174720,
		  "time": 140.902944,
		  "velocity": 0.7480314960629921
		},
		{
		  "duration": 1.5483839999999987,
		  "durationTicks": 1920,
		  "midi": 53,
		  "name": "F3",
		  "ticks": 174720,
		  "time": 140.902944,
		  "velocity": 0.7480314960629921
		},
		{
		  "duration": 0.9677400000000205,
		  "durationTicks": 1200,
		  "midi": 65,
		  "name": "F4",
		  "ticks": 176640,
		  "time": 142.451328,
		  "velocity": 0.7480314960629921
		},
		{
		  "duration": 0.9677400000000205,
		  "durationTicks": 1200,
		  "midi": 61,
		  "name": "C#4",
		  "ticks": 176640,
		  "time": 142.451328,
		  "velocity": 0.7480314960629921
		},
		{
		  "duration": 0.9677400000000205,
		  "durationTicks": 1200,
		  "midi": 58,
		  "name": "A#3",
		  "ticks": 176640,
		  "time": 142.451328,
		  "velocity": 0.7480314960629921
		},
		{
		  "duration": 0.5806439999999782,
		  "durationTicks": 720,
		  "midi": 60,
		  "name": "C4",
		  "ticks": 177840,
		  "time": 143.419068,
		  "velocity": 0.7480314960629921
		},
		{
		  "duration": 0.5806439999999782,
		  "durationTicks": 720,
		  "midi": 56,
		  "name": "G#3",
		  "ticks": 177840,
		  "time": 143.419068,
		  "velocity": 0.7480314960629921
		},
		{
		  "duration": 0.5806439999999782,
		  "durationTicks": 720,
		  "midi": 63,
		  "name": "D#4",
		  "ticks": 177840,
		  "time": 143.419068,
		  "velocity": 0.7480314960629921
		},
		{
		  "duration": 1.5483839999999987,
		  "durationTicks": 1920,
		  "midi": 65,
		  "name": "F4",
		  "ticks": 178560,
		  "time": 143.999712,
		  "velocity": 0.7480314960629921
		},
		{
		  "duration": 1.5483839999999987,
		  "durationTicks": 1920,
		  "midi": 61,
		  "name": "C#4",
		  "ticks": 178560,
		  "time": 143.999712,
		  "velocity": 0.7480314960629921
		},
		{
		  "duration": 3.0967679999999973,
		  "durationTicks": 3840,
		  "midi": 58,
		  "name": "A#3",
		  "ticks": 178560,
		  "time": 143.999712,
		  "velocity": 0.7480314960629921
		},
		{
		  "duration": 1.5483839999999987,
		  "durationTicks": 1920,
		  "midi": 66,
		  "name": "F#4",
		  "ticks": 180480,
		  "time": 145.548096,
		  "velocity": 0.7480314960629921
		},
		{
		  "duration": 1.5483839999999987,
		  "durationTicks": 1920,
		  "midi": 63,
		  "name": "D#4",
		  "ticks": 180480,
		  "time": 145.548096,
		  "velocity": 0.7480314960629921
		},
		{
		  "duration": 1.5483839999999987,
		  "durationTicks": 1920,
		  "midi": 60,
		  "name": "C4",
		  "ticks": 182400,
		  "time": 147.09647999999999,
		  "velocity": 0.7480314960629921
		},
		{
		  "duration": 1.5483839999999987,
		  "durationTicks": 1920,
		  "midi": 56,
		  "name": "G#3",
		  "ticks": 182400,
		  "time": 147.09647999999999,
		  "velocity": 0.7480314960629921
		},
		{
		  "duration": 1.5483839999999987,
		  "durationTicks": 1920,
		  "midi": 63,
		  "name": "D#4",
		  "ticks": 182400,
		  "time": 147.09647999999999,
		  "velocity": 0.7480314960629921
		},
		{
		  "duration": 1.548384000000027,
		  "durationTicks": 1920,
		  "midi": 65,
		  "name": "F4",
		  "ticks": 184320,
		  "time": 148.64486399999998,
		  "velocity": 0.7480314960629921
		},
		{
		  "duration": 1.548384000000027,
		  "durationTicks": 1920,
		  "midi": 61,
		  "name": "C#4",
		  "ticks": 184320,
		  "time": 148.64486399999998,
		  "velocity": 0.7480314960629921
		},
		{
		  "duration": 1.548384000000027,
		  "durationTicks": 1920,
		  "midi": 58,
		  "name": "A#3",
		  "ticks": 184320,
		  "time": 148.64486399999998,
		  "velocity": 0.7480314960629921
		},
		{
		  "duration": 1.5483839999999987,
		  "durationTicks": 1920,
		  "midi": 60,
		  "name": "C4",
		  "ticks": 186240,
		  "time": 150.193248,
		  "velocity": 0.7480314960629921
		},
		{
		  "duration": 1.5483839999999987,
		  "durationTicks": 1920,
		  "midi": 56,
		  "name": "G#3",
		  "ticks": 186240,
		  "time": 150.193248,
		  "velocity": 0.7480314960629921
		},
		{
		  "duration": 1.5483839999999987,
		  "durationTicks": 1920,
		  "midi": 63,
		  "name": "D#4",
		  "ticks": 186240,
		  "time": 150.193248,
		  "velocity": 0.7480314960629921
		},
		{
		  "duration": 1.5483839999999987,
		  "durationTicks": 1920,
		  "midi": 61,
		  "name": "C#4",
		  "ticks": 188160,
		  "time": 151.741632,
		  "velocity": 0.7480314960629921
		},
		{
		  "duration": 1.5483839999999987,
		  "durationTicks": 1920,
		  "midi": 58,
		  "name": "A#3",
		  "ticks": 188160,
		  "time": 151.741632,
		  "velocity": 0.7480314960629921
		},
		{
		  "duration": 1.5483839999999987,
		  "durationTicks": 1920,
		  "midi": 54,
		  "name": "F#3",
		  "ticks": 188160,
		  "time": 151.741632,
		  "velocity": 0.7480314960629921
		},
		{
		  "duration": 1.5483839999999987,
		  "durationTicks": 1920,
		  "midi": 60,
		  "name": "C4",
		  "ticks": 190080,
		  "time": 153.290016,
		  "velocity": 0.7480314960629921
		},
		{
		  "duration": 1.5483839999999987,
		  "durationTicks": 1920,
		  "midi": 56,
		  "name": "G#3",
		  "ticks": 190080,
		  "time": 153.290016,
		  "velocity": 0.7480314960629921
		},
		{
		  "duration": 1.5483839999999987,
		  "durationTicks": 1920,
		  "midi": 53,
		  "name": "F3",
		  "ticks": 190080,
		  "time": 153.290016,
		  "velocity": 0.7480314960629921
		},
		{
		  "duration": 2.322575999999998,
		  "durationTicks": 2880,
		  "midi": 65,
		  "name": "F4",
		  "ticks": 192000,
		  "time": 154.8384,
		  "velocity": 0.7480314960629921
		},
		{
		  "duration": 2.322575999999998,
		  "durationTicks": 2880,
		  "midi": 61,
		  "name": "C#4",
		  "ticks": 192000,
		  "time": 154.8384,
		  "velocity": 0.7480314960629921
		},
		{
		  "duration": 2.322575999999998,
		  "durationTicks": 2880,
		  "midi": 58,
		  "name": "A#3",
		  "ticks": 192000,
		  "time": 154.8384,
		  "velocity": 0.7480314960629921
		},
		{
		  "duration": 0.7741919999999993,
		  "durationTicks": 960,
		  "midi": 60,
		  "name": "C4",
		  "ticks": 194880,
		  "time": 157.160976,
		  "velocity": 0.7480314960629921
		},
		{
		  "duration": 0.7741919999999993,
		  "durationTicks": 960,
		  "midi": 56,
		  "name": "G#3",
		  "ticks": 194880,
		  "time": 157.160976,
		  "velocity": 0.7480314960629921
		},
		{
		  "duration": 0.7741919999999993,
		  "durationTicks": 960,
		  "midi": 63,
		  "name": "D#4",
		  "ticks": 194880,
		  "time": 157.160976,
		  "velocity": 0.7480314960629921
		},
		{
		  "duration": 2.322575999999998,
		  "durationTicks": 2880,
		  "midi": 65,
		  "name": "F4",
		  "ticks": 195840,
		  "time": 157.935168,
		  "velocity": 0.7480314960629921
		},
		{
		  "duration": 2.322575999999998,
		  "durationTicks": 2880,
		  "midi": 61,
		  "name": "C#4",
		  "ticks": 195840,
		  "time": 157.935168,
		  "velocity": 0.7480314960629921
		},
		{
		  "duration": 2.322575999999998,
		  "durationTicks": 2880,
		  "midi": 58,
		  "name": "A#3",
		  "ticks": 195840,
		  "time": 157.935168,
		  "velocity": 0.7480314960629921
		}
	  ]
	},
	{
	  "channel": 0,
	  "controlChanges": {
		"6": [
		  {
			"number": 6,
			"ticks": 0,
			"time": 0,
			"value": 0.09448818897637795
		  },
		  {
			"number": 6,
			"ticks": 0,
			"time": 0,
			"value": 0.5039370078740157
		  },
		  {
			"number": 6,
			"ticks": 0,
			"time": 0,
			"value": 0.5039370078740157
		  }
		],
		"38": [
		  {
			"number": 38,
			"ticks": 0,
			"time": 0,
			"value": 0
		  }
		],
		"100": [
		  {
			"number": 100,
			"ticks": 0,
			"time": 0,
			"value": 0
		  },
		  {
			"number": 100,
			"ticks": 0,
			"time": 0,
			"value": 0.007874015748031496
		  },
		  {
			"number": 100,
			"ticks": 0,
			"time": 0,
			"value": 1
		  },
		  {
			"number": 100,
			"ticks": 0,
			"time": 0,
			"value": 0.015748031496062992
		  },
		  {
			"number": 100,
			"ticks": 0,
			"time": 0,
			"value": 1
		  }
		],
		"101": [
		  {
			"number": 101,
			"ticks": 0,
			"time": 0,
			"value": 0
		  },
		  {
			"number": 101,
			"ticks": 0,
			"time": 0,
			"value": 0
		  },
		  {
			"number": 101,
			"ticks": 0,
			"time": 0,
			"value": 1
		  },
		  {
			"number": 101,
			"ticks": 0,
			"time": 0,
			"value": 0
		  },
		  {
			"number": 101,
			"ticks": 0,
			"time": 0,
			"value": 1
		  }
		]
	  },
	  "pitchBends": [
		{
		  "ticks": 0,
		  "time": 0,
		  "value": 0
		}
	  ],
	  "instrument": {
		"family": "piano",
		"number": 0,
		"name": "acoustic grand piano"
	  },
	  "name": "Bass",
	  "notes": [],
	  "endOfTrackTicks": 199680
	},
	{
	  "channel": 0,
	  "controlChanges": {
		"6": [
		  {
			"number": 6,
			"ticks": 0,
			"time": 0,
			"value": 0.09448818897637795
		  },
		  {
			"number": 6,
			"ticks": 0,
			"time": 0,
			"value": 0.5039370078740157
		  },
		  {
			"number": 6,
			"ticks": 0,
			"time": 0,
			"value": 0.5039370078740157
		  }
		],
		"38": [
		  {
			"number": 38,
			"ticks": 0,
			"time": 0,
			"value": 0
		  }
		],
		"100": [
		  {
			"number": 100,
			"ticks": 0,
			"time": 0,
			"value": 0
		  },
		  {
			"number": 100,
			"ticks": 0,
			"time": 0,
			"value": 0.007874015748031496
		  },
		  {
			"number": 100,
			"ticks": 0,
			"time": 0,
			"value": 1
		  },
		  {
			"number": 100,
			"ticks": 0,
			"time": 0,
			"value": 0.015748031496062992
		  },
		  {
			"number": 100,
			"ticks": 0,
			"time": 0,
			"value": 1
		  }
		],
		"101": [
		  {
			"number": 101,
			"ticks": 0,
			"time": 0,
			"value": 0
		  },
		  {
			"number": 101,
			"ticks": 0,
			"time": 0,
			"value": 0
		  },
		  {
			"number": 101,
			"ticks": 0,
			"time": 0,
			"value": 1
		  },
		  {
			"number": 101,
			"ticks": 0,
			"time": 0,
			"value": 0
		  },
		  {
			"number": 101,
			"ticks": 0,
			"time": 0,
			"value": 1
		  }
		]
	  },
	  "pitchBends": [
		{
		  "ticks": 0,
		  "time": 0,
		  "value": 0
		}
	  ],
	  "instrument": {
		"family": "piano",
		"number": 0,
		"name": "acoustic grand piano"
	  },
	  "name": "",
	  "notes": []
	},
	{
	  "channel": 0,
	  "controlChanges": {
		"0": [
		  {
			"number": 0,
			"ticks": 0,
			"time": 0,
			"value": 0
		  }
		],
		"7": [
		  {
			"number": 7,
			"ticks": 0,
			"time": 0,
			"value": 0.8188976377952756
		  }
		],
		"10": [
		  {
			"number": 10,
			"ticks": 0,
			"time": 0,
			"value": 0.5039370078740157
		  }
		],
		"91": [
		  {
			"number": 91,
			"ticks": 0,
			"time": 0,
			"value": 0
		  }
		],
		"92": [
		  {
			"number": 92,
			"ticks": 0,
			"time": 0,
			"value": 0
		  }
		],
		"93": [
		  {
			"number": 93,
			"ticks": 0,
			"time": 0,
			"value": 0
		  }
		],
		"95": [
		  {
			"number": 95,
			"ticks": 0,
			"time": 0,
			"value": 0
		  }
		]
	  },
	  "pitchBends": [],
	  "instrument": {
		"family": "bass",
		"number": 36,
		"name": "slap bass 1"
	  },
	  "name": "",
	  "notes": []
	},
	{
	  "channel": 6,
	  "controlChanges": {
		"0": [
		  {
			"number": 0,
			"ticks": 0,
			"time": 0,
			"value": 0
		  }
		],
		"7": [
		  {
			"number": 7,
			"ticks": 0,
			"time": 0,
			"value": 0.8188976377952756
		  }
		],
		"10": [
		  {
			"number": 10,
			"ticks": 0,
			"time": 0,
			"value": 0.5039370078740157
		  }
		],
		"91": [
		  {
			"number": 91,
			"ticks": 0,
			"time": 0,
			"value": 0
		  }
		],
		"92": [
		  {
			"number": 92,
			"ticks": 0,
			"time": 0,
			"value": 0
		  }
		],
		"93": [
		  {
			"number": 93,
			"ticks": 0,
			"time": 0,
			"value": 0
		  }
		],
		"95": [
		  {
			"number": 95,
			"ticks": 0,
			"time": 0,
			"value": 0
		  }
		]
	  },
	  "pitchBends": [],
	  "instrument": {
		"family": "bass",
		"number": 36,
		"name": "slap bass 1"
	  },
	  "name": "",
	  "notes": [
		{
		  "duration": 0.193548,
		  "durationTicks": 240,
		  "midi": 32,
		  "name": "G#1",
		  "ticks": 0,
		  "time": 0,
		  "velocity": 0.7480314960629921
		},
		{
		  "duration": 0.193548,
		  "durationTicks": 240,
		  "midi": 34,
		  "name": "A#1",
		  "ticks": 240,
		  "time": 0.193548,
		  "velocity": 0.7480314960629921
		},
		{
		  "duration": 0.19354800000000005,
		  "durationTicks": 240,
		  "midi": 34,
		  "name": "A#1",
		  "ticks": 720,
		  "time": 0.5806439999999999,
		  "velocity": 0.7480314960629921
		},
		{
		  "duration": 0.19354799999999983,
		  "durationTicks": 240,
		  "midi": 34,
		  "name": "A#1",
		  "ticks": 1200,
		  "time": 0.96774,
		  "velocity": 0.7480314960629921
		},
		{
		  "duration": 0.19354800000000005,
		  "durationTicks": 240,
		  "midi": 34,
		  "name": "A#1",
		  "ticks": 1680,
		  "time": 1.354836,
		  "velocity": 0.7480314960629921
		},
		{
		  "duration": 0.19354800000000005,
		  "durationTicks": 240,
		  "midi": 34,
		  "name": "A#1",
		  "ticks": 1920,
		  "time": 1.548384,
		  "velocity": 0.7480314960629921
		},
		{
		  "duration": 0.19354800000000005,
		  "durationTicks": 240,
		  "midi": 34,
		  "name": "A#1",
		  "ticks": 2160,
		  "time": 1.741932,
		  "velocity": 0.7480314960629921
		},
		{
		  "duration": 0.19354799999999983,
		  "durationTicks": 240,
		  "midi": 34,
		  "name": "A#1",
		  "ticks": 2640,
		  "time": 2.129028,
		  "velocity": 0.7480314960629921
		},
		{
		  "duration": 0.19354799999999983,
		  "durationTicks": 240,
		  "midi": 34,
		  "name": "A#1",
		  "ticks": 3120,
		  "time": 2.516124,
		  "velocity": 0.7480314960629921
		},
		{
		  "duration": 0.19354799999999983,
		  "durationTicks": 240,
		  "midi": 34,
		  "name": "A#1",
		  "ticks": 3600,
		  "time": 2.90322,
		  "velocity": 0.7480314960629921
		},
		{
		  "duration": 0.19354799999999983,
		  "durationTicks": 240,
		  "midi": 30,
		  "name": "F#1",
		  "ticks": 3840,
		  "time": 3.096768,
		  "velocity": 0.7480314960629921
		},
		{
		  "duration": 0.19354800000000028,
		  "durationTicks": 240,
		  "midi": 30,
		  "name": "F#1",
		  "ticks": 4080,
		  "time": 3.290316,
		  "velocity": 0.7480314960629921
		},
		{
		  "duration": 0.19354800000000028,
		  "durationTicks": 240,
		  "midi": 30,
		  "name": "F#1",
		  "ticks": 4560,
		  "time": 3.677412,
		  "velocity": 0.7480314960629921
		},
		{
		  "duration": 0.19354799999999983,
		  "durationTicks": 240,
		  "midi": 30,
		  "name": "F#1",
		  "ticks": 5040,
		  "time": 4.064508,
		  "velocity": 0.7480314960629921
		},
		{
		  "duration": 0.19354799999999983,
		  "durationTicks": 240,
		  "midi": 30,
		  "name": "F#1",
		  "ticks": 5520,
		  "time": 4.451604,
		  "velocity": 0.7480314960629921
		},
		{
		  "duration": 0.19354800000000072,
		  "durationTicks": 240,
		  "midi": 37,
		  "name": "C#2",
		  "ticks": 5760,
		  "time": 4.6451519999999995,
		  "velocity": 0.7480314960629921
		},
		{
		  "duration": 0.19354799999999983,
		  "durationTicks": 240,
		  "midi": 37,
		  "name": "C#2",
		  "ticks": 6000,
		  "time": 4.8387,
		  "velocity": 0.7480314960629921
		},
		{
		  "duration": 0.19354799999999983,
		  "durationTicks": 240,
		  "midi": 37,
		  "name": "C#2",
		  "ticks": 6240,
		  "time": 5.032248,
		  "velocity": 0.7480314960629921
		},
		{
		  "duration": 0.19354799999999983,
		  "durationTicks": 240,
		  "midi": 32,
		  "name": "G#1",
		  "ticks": 6480,
		  "time": 5.225796,
		  "velocity": 0.7480314960629921
		},
		{
		  "duration": 0.19354799999999983,
		  "durationTicks": 240,
		  "midi": 32,
		  "name": "G#1",
		  "ticks": 6720,
		  "time": 5.419344,
		  "velocity": 0.7480314960629921
		},
		{
		  "duration": 0.19354800000000072,
		  "durationTicks": 240,
		  "midi": 32,
		  "name": "G#1",
		  "ticks": 6960,
		  "time": 5.6128919999999995,
		  "velocity": 0.7480314960629921
		},
		{
		  "duration": 0.19354799999999983,
		  "durationTicks": 240,
		  "midi": 32,
		  "name": "G#1",
		  "ticks": 7200,
		  "time": 5.80644,
		  "velocity": 0.7480314960629921
		},
		{
		  "duration": 0.19354799999999983,
		  "durationTicks": 240,
		  "midi": 32,
		  "name": "G#1",
		  "ticks": 7440,
		  "time": 5.999988,
		  "velocity": 0.7480314960629921
		},
		{
		  "duration": 0.19354799999999983,
		  "durationTicks": 240,
		  "midi": 32,
		  "name": "G#1",
		  "ticks": 7680,
		  "time": 6.193536,
		  "velocity": 0.7480314960629921
		},
		{
		  "duration": 0.19354799999999983,
		  "durationTicks": 240,
		  "midi": 34,
		  "name": "A#1",
		  "ticks": 7920,
		  "time": 6.387084,
		  "velocity": 0.7480314960629921
		},
		{
		  "duration": 0.19354799999999983,
		  "durationTicks": 240,
		  "midi": 34,
		  "name": "A#1",
		  "ticks": 8400,
		  "time": 6.77418,
		  "velocity": 0.7480314960629921
		},
		{
		  "duration": 0.19354799999999983,
		  "durationTicks": 240,
		  "midi": 34,
		  "name": "A#1",
		  "ticks": 8880,
		  "time": 7.161276,
		  "velocity": 0.7480314960629921
		},
		{
		  "duration": 0.19354800000000072,
		  "durationTicks": 240,
		  "midi": 34,
		  "name": "A#1",
		  "ticks": 9360,
		  "time": 7.548372,
		  "velocity": 0.7480314960629921
		},
		{
		  "duration": 0.19354799999999983,
		  "durationTicks": 240,
		  "midi": 34,
		  "name": "A#1",
		  "ticks": 9600,
		  "time": 7.74192,
		  "velocity": 0.7480314960629921
		},
		{
		  "duration": 0.19354799999999983,
		  "durationTicks": 240,
		  "midi": 34,
		  "name": "A#1",
		  "ticks": 9840,
		  "time": 7.935468,
		  "velocity": 0.7480314960629921
		},
		{
		  "duration": 0.19354799999999983,
		  "durationTicks": 240,
		  "midi": 34,
		  "name": "A#1",
		  "ticks": 10320,
		  "time": 8.322564,
		  "velocity": 0.7480314960629921
		},
		{
		  "duration": 0.19354799999999983,
		  "durationTicks": 240,
		  "midi": 34,
		  "name": "A#1",
		  "ticks": 10800,
		  "time": 8.70966,
		  "velocity": 0.7480314960629921
		},
		{
		  "duration": 0.19354799999999983,
		  "durationTicks": 240,
		  "midi": 34,
		  "name": "A#1",
		  "ticks": 11280,
		  "time": 9.096756,
		  "velocity": 0.7480314960629921
		},
		{
		  "duration": 0.1935480000000016,
		  "durationTicks": 240,
		  "midi": 30,
		  "name": "F#1",
		  "ticks": 11520,
		  "time": 9.290303999999999,
		  "velocity": 0.7480314960629921
		},
		{
		  "duration": 0.19354799999999983,
		  "durationTicks": 240,
		  "midi": 30,
		  "name": "F#1",
		  "ticks": 11760,
		  "time": 9.483852,
		  "velocity": 0.7480314960629921
		},
		{
		  "duration": 0.19354799999999983,
		  "durationTicks": 240,
		  "midi": 30,
		  "name": "F#1",
		  "ticks": 12240,
		  "time": 9.870948,
		  "velocity": 0.7480314960629921
		},
		{
		  "duration": 0.19354799999999983,
		  "durationTicks": 240,
		  "midi": 30,
		  "name": "F#1",
		  "ticks": 12720,
		  "time": 10.258044,
		  "velocity": 0.7480314960629921
		},
		{
		  "duration": 0.19354799999999983,
		  "durationTicks": 240,
		  "midi": 30,
		  "name": "F#1",
		  "ticks": 13200,
		  "time": 10.64514,
		  "velocity": 0.7480314960629921
		},
		{
		  "duration": 0.19354799999999983,
		  "durationTicks": 240,
		  "midi": 37,
		  "name": "C#2",
		  "ticks": 13440,
		  "time": 10.838688,
		  "velocity": 0.7480314960629921
		},
		{
		  "duration": 0.19354799999999983,
		  "durationTicks": 240,
		  "midi": 37,
		  "name": "C#2",
		  "ticks": 13680,
		  "time": 11.032236,
		  "velocity": 0.7480314960629921
		},
		{
		  "duration": 0.1935480000000016,
		  "durationTicks": 240,
		  "midi": 37,
		  "name": "C#2",
		  "ticks": 13920,
		  "time": 11.225783999999999,
		  "velocity": 0.7480314960629921
		},
		{
		  "duration": 0.19354799999999983,
		  "durationTicks": 240,
		  "midi": 32,
		  "name": "G#1",
		  "ticks": 14160,
		  "time": 11.419332,
		  "velocity": 0.7480314960629921
		},
		{
		  "duration": 0.19354799999999983,
		  "durationTicks": 240,
		  "midi": 32,
		  "name": "G#1",
		  "ticks": 14400,
		  "time": 11.61288,
		  "velocity": 0.7480314960629921
		},
		{
		  "duration": 0.19354799999999983,
		  "durationTicks": 240,
		  "midi": 32,
		  "name": "G#1",
		  "ticks": 14640,
		  "time": 11.806428,
		  "velocity": 0.7480314960629921
		},
		{
		  "duration": 0.19354799999999983,
		  "durationTicks": 240,
		  "midi": 32,
		  "name": "G#1",
		  "ticks": 14880,
		  "time": 11.999976,
		  "velocity": 0.7480314960629921
		},
		{
		  "duration": 0.19354799999999983,
		  "durationTicks": 240,
		  "midi": 32,
		  "name": "G#1",
		  "ticks": 15120,
		  "time": 12.193524,
		  "velocity": 0.7480314960629921
		},
		{
		  "duration": 0.19354799999999983,
		  "durationTicks": 240,
		  "midi": 32,
		  "name": "G#1",
		  "ticks": 15360,
		  "time": 12.387072,
		  "velocity": 0.7480314960629921
		},
		{
		  "duration": 0.19354799999999983,
		  "durationTicks": 240,
		  "midi": 34,
		  "name": "A#1",
		  "ticks": 15600,
		  "time": 12.58062,
		  "velocity": 0.7480314960629921
		},
		{
		  "duration": 0.19354799999999983,
		  "durationTicks": 240,
		  "midi": 34,
		  "name": "A#1",
		  "ticks": 16080,
		  "time": 12.967716,
		  "velocity": 0.7480314960629921
		},
		{
		  "duration": 0.1935480000000016,
		  "durationTicks": 240,
		  "midi": 34,
		  "name": "A#1",
		  "ticks": 16560,
		  "time": 13.354811999999999,
		  "velocity": 0.7480314960629921
		},
		{
		  "duration": 0.19354799999999983,
		  "durationTicks": 240,
		  "midi": 34,
		  "name": "A#1",
		  "ticks": 17040,
		  "time": 13.741908,
		  "velocity": 0.7480314960629921
		},
		{
		  "duration": 0.19354799999999983,
		  "durationTicks": 240,
		  "midi": 34,
		  "name": "A#1",
		  "ticks": 17280,
		  "time": 13.935456,
		  "velocity": 0.7480314960629921
		},
		{
		  "duration": 0.19354799999999983,
		  "durationTicks": 240,
		  "midi": 34,
		  "name": "A#1",
		  "ticks": 17520,
		  "time": 14.129004,
		  "velocity": 0.7480314960629921
		},
		{
		  "duration": 0.19354799999999983,
		  "durationTicks": 240,
		  "midi": 34,
		  "name": "A#1",
		  "ticks": 18000,
		  "time": 14.5161,
		  "velocity": 0.7480314960629921
		},
		{
		  "duration": 0.19354799999999983,
		  "durationTicks": 240,
		  "midi": 34,
		  "name": "A#1",
		  "ticks": 18480,
		  "time": 14.903196,
		  "velocity": 0.7480314960629921
		},
		{
		  "duration": 0.1935480000000016,
		  "durationTicks": 240,
		  "midi": 34,
		  "name": "A#1",
		  "ticks": 18960,
		  "time": 15.290291999999999,
		  "velocity": 0.7480314960629921
		},
		{
		  "duration": 0.19354799999999983,
		  "durationTicks": 240,
		  "midi": 30,
		  "name": "F#1",
		  "ticks": 19200,
		  "time": 15.48384,
		  "velocity": 0.7480314960629921
		},
		{
		  "duration": 0.19354799999999983,
		  "durationTicks": 240,
		  "midi": 30,
		  "name": "F#1",
		  "ticks": 19440,
		  "time": 15.677388,
		  "velocity": 0.7480314960629921
		},
		{
		  "duration": 0.19354799999999983,
		  "durationTicks": 240,
		  "midi": 30,
		  "name": "F#1",
		  "ticks": 19920,
		  "time": 16.064484,
		  "velocity": 0.7480314960629921
		},
		{
		  "duration": 0.19354799999999983,
		  "durationTicks": 240,
		  "midi": 30,
		  "name": "F#1",
		  "ticks": 20400,
		  "time": 16.45158,
		  "velocity": 0.7480314960629921
		},
		{
		  "duration": 0.19354799999999983,
		  "durationTicks": 240,
		  "midi": 30,
		  "name": "F#1",
		  "ticks": 20880,
		  "time": 16.838676,
		  "velocity": 0.7480314960629921
		},
		{
		  "duration": 0.19354799999999983,
		  "durationTicks": 240,
		  "midi": 37,
		  "name": "C#2",
		  "ticks": 21120,
		  "time": 17.032224,
		  "velocity": 0.7480314960629921
		},
		{
		  "duration": 0.19354799999999983,
		  "durationTicks": 240,
		  "midi": 37,
		  "name": "C#2",
		  "ticks": 21360,
		  "time": 17.225772,
		  "velocity": 0.7480314960629921
		},
		{
		  "duration": 0.19354799999999983,
		  "durationTicks": 240,
		  "midi": 37,
		  "name": "C#2",
		  "ticks": 21600,
		  "time": 17.41932,
		  "velocity": 0.7480314960629921
		},
		{
		  "duration": 0.19354799999999983,
		  "durationTicks": 240,
		  "midi": 32,
		  "name": "G#1",
		  "ticks": 21840,
		  "time": 17.612868,
		  "velocity": 0.7480314960629921
		},
		{
		  "duration": 0.19354799999999983,
		  "durationTicks": 240,
		  "midi": 32,
		  "name": "G#1",
		  "ticks": 22080,
		  "time": 17.806416,
		  "velocity": 0.7480314960629921
		},
		{
		  "duration": 0.19354799999999983,
		  "durationTicks": 240,
		  "midi": 32,
		  "name": "G#1",
		  "ticks": 22320,
		  "time": 17.999964,
		  "velocity": 0.7480314960629921
		},
		{
		  "duration": 0.19354799999999983,
		  "durationTicks": 240,
		  "midi": 32,
		  "name": "G#1",
		  "ticks": 22560,
		  "time": 18.193512,
		  "velocity": 0.7480314960629921
		},
		{
		  "duration": 0.19354799999999983,
		  "durationTicks": 240,
		  "midi": 32,
		  "name": "G#1",
		  "ticks": 22800,
		  "time": 18.387059999999998,
		  "velocity": 0.7480314960629921
		},
		{
		  "duration": 0.19354800000000338,
		  "durationTicks": 240,
		  "midi": 32,
		  "name": "G#1",
		  "ticks": 23040,
		  "time": 18.580607999999998,
		  "velocity": 0.7480314960629921
		},
		{
		  "duration": 0.19354799999999983,
		  "durationTicks": 240,
		  "midi": 34,
		  "name": "A#1",
		  "ticks": 23280,
		  "time": 18.774156,
		  "velocity": 0.7480314960629921
		},
		{
		  "duration": 0.19354799999999983,
		  "durationTicks": 240,
		  "midi": 34,
		  "name": "A#1",
		  "ticks": 23760,
		  "time": 19.161252,
		  "velocity": 0.7480314960629921
		},
		{
		  "duration": 0.19354799999999983,
		  "durationTicks": 240,
		  "midi": 34,
		  "name": "A#1",
		  "ticks": 24240,
		  "time": 19.548348,
		  "velocity": 0.7480314960629921
		},
		{
		  "duration": 0.19354799999999983,
		  "durationTicks": 240,
		  "midi": 34,
		  "name": "A#1",
		  "ticks": 24720,
		  "time": 19.935444,
		  "velocity": 0.7480314960629921
		},
		{
		  "duration": 0.19354799999999983,
		  "durationTicks": 240,
		  "midi": 34,
		  "name": "A#1",
		  "ticks": 24960,
		  "time": 20.128992,
		  "velocity": 0.7480314960629921
		},
		{
		  "duration": 0.19354799999999983,
		  "durationTicks": 240,
		  "midi": 34,
		  "name": "A#1",
		  "ticks": 25200,
		  "time": 20.32254,
		  "velocity": 0.7480314960629921
		},
		{
		  "duration": 0.19354799999999983,
		  "durationTicks": 240,
		  "midi": 34,
		  "name": "A#1",
		  "ticks": 25680,
		  "time": 20.709636,
		  "velocity": 0.7480314960629921
		},
		{
		  "duration": 0.19354799999999983,
		  "durationTicks": 240,
		  "midi": 34,
		  "name": "A#1",
		  "ticks": 26160,
		  "time": 21.096732,
		  "velocity": 0.7480314960629921
		},
		{
		  "duration": 0.19354799999999983,
		  "durationTicks": 240,
		  "midi": 34,
		  "name": "A#1",
		  "ticks": 26640,
		  "time": 21.483828,
		  "velocity": 0.7480314960629921
		},
		{
		  "duration": 0.19354799999999983,
		  "durationTicks": 240,
		  "midi": 30,
		  "name": "F#1",
		  "ticks": 26880,
		  "time": 21.677376,
		  "velocity": 0.7480314960629921
		},
		{
		  "duration": 0.19354799999999983,
		  "durationTicks": 240,
		  "midi": 30,
		  "name": "F#1",
		  "ticks": 27120,
		  "time": 21.870924,
		  "velocity": 0.7480314960629921
		},
		{
		  "duration": 0.19354799999999983,
		  "durationTicks": 240,
		  "midi": 30,
		  "name": "F#1",
		  "ticks": 27600,
		  "time": 22.25802,
		  "velocity": 0.7480314960629921
		},
		{
		  "duration": 0.19354800000000338,
		  "durationTicks": 240,
		  "midi": 30,
		  "name": "F#1",
		  "ticks": 28080,
		  "time": 22.645115999999998,
		  "velocity": 0.7480314960629921
		},
		{
		  "duration": 0.19354799999999983,
		  "durationTicks": 240,
		  "midi": 30,
		  "name": "F#1",
		  "ticks": 28560,
		  "time": 23.032212,
		  "velocity": 0.7480314960629921
		},
		{
		  "duration": 0.19354799999999983,
		  "durationTicks": 240,
		  "midi": 37,
		  "name": "C#2",
		  "ticks": 28800,
		  "time": 23.22576,
		  "velocity": 0.7480314960629921
		},
		{
		  "duration": 0.19354799999999983,
		  "durationTicks": 240,
		  "midi": 37,
		  "name": "C#2",
		  "ticks": 29040,
		  "time": 23.419308,
		  "velocity": 0.7480314960629921
		},
		{
		  "duration": 0.19354799999999983,
		  "durationTicks": 240,
		  "midi": 37,
		  "name": "C#2",
		  "ticks": 29280,
		  "time": 23.612856,
		  "velocity": 0.7480314960629921
		},
		{
		  "duration": 0.19354799999999983,
		  "durationTicks": 240,
		  "midi": 32,
		  "name": "G#1",
		  "ticks": 29520,
		  "time": 23.806404,
		  "velocity": 0.7480314960629921
		},
		{
		  "duration": 0.19354799999999983,
		  "durationTicks": 240,
		  "midi": 32,
		  "name": "G#1",
		  "ticks": 29760,
		  "time": 23.999952,
		  "velocity": 0.7480314960629921
		},
		{
		  "duration": 0.19354799999999983,
		  "durationTicks": 240,
		  "midi": 32,
		  "name": "G#1",
		  "ticks": 30000,
		  "time": 24.1935,
		  "velocity": 0.7480314960629921
		},
		{
		  "duration": 0.19354799999999983,
		  "durationTicks": 240,
		  "midi": 32,
		  "name": "G#1",
		  "ticks": 30240,
		  "time": 24.387048,
		  "velocity": 0.7480314960629921
		},
		{
		  "duration": 0.19354799999999983,
		  "durationTicks": 240,
		  "midi": 32,
		  "name": "G#1",
		  "ticks": 30480,
		  "time": 24.580596,
		  "velocity": 0.7480314960629921
		},
		{
		  "duration": 0.19354799999999983,
		  "durationTicks": 240,
		  "midi": 34,
		  "name": "A#1",
		  "ticks": 30720,
		  "time": 24.774144,
		  "velocity": 0.7480314960629921
		},
		{
		  "duration": 0.19354799999999983,
		  "durationTicks": 240,
		  "midi": 34,
		  "name": "A#1",
		  "ticks": 30960,
		  "time": 24.967692,
		  "velocity": 0.7480314960629921
		},
		{
		  "duration": 0.19354799999999983,
		  "durationTicks": 240,
		  "midi": 34,
		  "name": "A#1",
		  "ticks": 31200,
		  "time": 25.16124,
		  "velocity": 0.7480314960629921
		},
		{
		  "duration": 0.07258049999999727,
		  "durationTicks": 90,
		  "midi": 34,
		  "name": "A#1",
		  "ticks": 33840,
		  "time": 27.290268,
		  "velocity": 0.5984251968503937
		},
		{
		  "duration": 0.07258049999999727,
		  "durationTicks": 90,
		  "midi": 34,
		  "name": "A#1",
		  "ticks": 33960,
		  "time": 27.387042,
		  "velocity": 0.5984251968503937
		},
		{
		  "duration": 0.19354799999999983,
		  "durationTicks": 240,
		  "midi": 34,
		  "name": "A#1",
		  "ticks": 34080,
		  "time": 27.483816,
		  "velocity": 0.7480314960629921
		},
		{
		  "duration": 0.19354799999999983,
		  "durationTicks": 240,
		  "midi": 34,
		  "name": "A#1",
		  "ticks": 34320,
		  "time": 27.677364,
		  "velocity": 0.7480314960629921
		},
		{
		  "duration": 0.19354799999999983,
		  "durationTicks": 240,
		  "midi": 30,
		  "name": "F#1",
		  "ticks": 34560,
		  "time": 27.870912,
		  "velocity": 0.7480314960629921
		},
		{
		  "duration": 0.19354799999999983,
		  "durationTicks": 240,
		  "midi": 30,
		  "name": "F#1",
		  "ticks": 34800,
		  "time": 28.06446,
		  "velocity": 0.7480314960629921
		},
		{
		  "duration": 0.19354799999999983,
		  "durationTicks": 240,
		  "midi": 30,
		  "name": "F#1",
		  "ticks": 35040,
		  "time": 28.258008,
		  "velocity": 0.7480314960629921
		},
		{
		  "duration": 0.09677399999999992,
		  "durationTicks": 120,
		  "midi": 30,
		  "name": "F#1",
		  "ticks": 37200,
		  "time": 29.99994,
		  "velocity": 0.7480314960629921
		},
		{
		  "duration": 0.09677399999999992,
		  "durationTicks": 120,
		  "midi": 30,
		  "name": "F#1",
		  "ticks": 37320,
		  "time": 30.096714,
		  "velocity": 0.7480314960629921
		},
		{
		  "duration": 0.09677399999999992,
		  "durationTicks": 120,
		  "midi": 30,
		  "name": "F#1",
		  "ticks": 37440,
		  "time": 30.193488,
		  "velocity": 0.7480314960629921
		},
		{
		  "duration": 0.09677399999999992,
		  "durationTicks": 120,
		  "midi": 30,
		  "name": "F#1",
		  "ticks": 37680,
		  "time": 30.387036,
		  "velocity": 0.7480314960629921
		},
		{
		  "duration": 0.09677399999999992,
		  "durationTicks": 120,
		  "midi": 30,
		  "name": "F#1",
		  "ticks": 37800,
		  "time": 30.48381,
		  "velocity": 0.7480314960629921
		},
		{
		  "duration": 0.3870960000000032,
		  "durationTicks": 480,
		  "midi": 30,
		  "name": "F#1",
		  "ticks": 37920,
		  "time": 30.580583999999998,
		  "velocity": 0.7480314960629921
		},
		{
		  "duration": 0.19354799999999983,
		  "durationTicks": 240,
		  "midi": 34,
		  "name": "A#1",
		  "ticks": 38400,
		  "time": 30.96768,
		  "velocity": 0.7480314960629921
		},
		{
		  "duration": 0.19354799999999983,
		  "durationTicks": 240,
		  "midi": 34,
		  "name": "A#1",
		  "ticks": 38640,
		  "time": 31.161228,
		  "velocity": 0.7480314960629921
		},
		{
		  "duration": 0.19354799999999983,
		  "durationTicks": 240,
		  "midi": 34,
		  "name": "A#1",
		  "ticks": 38880,
		  "time": 31.354776,
		  "velocity": 0.7480314960629921
		},
		{
		  "duration": 0.19354799999999983,
		  "durationTicks": 240,
		  "midi": 34,
		  "name": "A#1",
		  "ticks": 39120,
		  "time": 31.548324,
		  "velocity": 0.7480314960629921
		},
		{
		  "duration": 0.19354799999999983,
		  "durationTicks": 240,
		  "midi": 34,
		  "name": "A#1",
		  "ticks": 39360,
		  "time": 31.741872,
		  "velocity": 0.7480314960629921
		},
		{
		  "duration": 0.19354799999999983,
		  "durationTicks": 240,
		  "midi": 34,
		  "name": "A#1",
		  "ticks": 39600,
		  "time": 31.93542,
		  "velocity": 0.7480314960629921
		},
		{
		  "duration": 0.19354799999999983,
		  "durationTicks": 240,
		  "midi": 34,
		  "name": "A#1",
		  "ticks": 39840,
		  "time": 32.128968,
		  "velocity": 0.7480314960629921
		},
		{
		  "duration": 0.19354799999999983,
		  "durationTicks": 240,
		  "midi": 34,
		  "name": "A#1",
		  "ticks": 40080,
		  "time": 32.322516,
		  "velocity": 0.7480314960629921
		},
		{
		  "duration": 0.19354799999999983,
		  "durationTicks": 240,
		  "midi": 32,
		  "name": "G#1",
		  "ticks": 40320,
		  "time": 32.516064,
		  "velocity": 0.7480314960629921
		},
		{
		  "duration": 0.19354799999999983,
		  "durationTicks": 240,
		  "midi": 32,
		  "name": "G#1",
		  "ticks": 40560,
		  "time": 32.709612,
		  "velocity": 0.7480314960629921
		},
		{
		  "duration": 0.19354799999999983,
		  "durationTicks": 240,
		  "midi": 32,
		  "name": "G#1",
		  "ticks": 40800,
		  "time": 32.90316,
		  "velocity": 0.7480314960629921
		},
		{
		  "duration": 0.19354799999999983,
		  "durationTicks": 240,
		  "midi": 32,
		  "name": "G#1",
		  "ticks": 41040,
		  "time": 33.096708,
		  "velocity": 0.7480314960629921
		},
		{
		  "duration": 0.19354799999999983,
		  "durationTicks": 240,
		  "midi": 32,
		  "name": "G#1",
		  "ticks": 41280,
		  "time": 33.290256,
		  "velocity": 0.7480314960629921
		},
		{
		  "duration": 0.19354799999999983,
		  "durationTicks": 240,
		  "midi": 32,
		  "name": "G#1",
		  "ticks": 41520,
		  "time": 33.483804,
		  "velocity": 0.7480314960629921
		},
		{
		  "duration": 0.19354799999999983,
		  "durationTicks": 240,
		  "midi": 32,
		  "name": "G#1",
		  "ticks": 41760,
		  "time": 33.677352,
		  "velocity": 0.7480314960629921
		},
		{
		  "duration": 0.19354799999999983,
		  "durationTicks": 240,
		  "midi": 32,
		  "name": "G#1",
		  "ticks": 42000,
		  "time": 33.8709,
		  "velocity": 0.7480314960629921
		},
		{
		  "duration": 0.19354799999999983,
		  "durationTicks": 240,
		  "midi": 29,
		  "name": "F1",
		  "ticks": 42240,
		  "time": 34.064448,
		  "velocity": 0.7480314960629921
		},
		{
		  "duration": 0.19354799999999983,
		  "durationTicks": 240,
		  "midi": 29,
		  "name": "F1",
		  "ticks": 42480,
		  "time": 34.257996,
		  "velocity": 0.7480314960629921
		},
		{
		  "duration": 0.19354799999999983,
		  "durationTicks": 240,
		  "midi": 29,
		  "name": "F1",
		  "ticks": 42720,
		  "time": 34.451544,
		  "velocity": 0.7480314960629921
		},
		{
		  "duration": 0.19354799999999983,
		  "durationTicks": 240,
		  "midi": 29,
		  "name": "F1",
		  "ticks": 42960,
		  "time": 34.645092,
		  "velocity": 0.7480314960629921
		},
		{
		  "duration": 0.19354799999999983,
		  "durationTicks": 240,
		  "midi": 29,
		  "name": "F1",
		  "ticks": 43200,
		  "time": 34.83864,
		  "velocity": 0.7480314960629921
		},
		{
		  "duration": 0.19354799999999983,
		  "durationTicks": 240,
		  "midi": 29,
		  "name": "F1",
		  "ticks": 43440,
		  "time": 35.032188,
		  "velocity": 0.7480314960629921
		},
		{
		  "duration": 0.19354799999999983,
		  "durationTicks": 240,
		  "midi": 29,
		  "name": "F1",
		  "ticks": 43680,
		  "time": 35.225736,
		  "velocity": 0.7480314960629921
		},
		{
		  "duration": 0.19354799999999983,
		  "durationTicks": 240,
		  "midi": 32,
		  "name": "G#1",
		  "ticks": 43920,
		  "time": 35.419284,
		  "velocity": 0.7480314960629921
		},
		{
		  "duration": 0.19354799999999983,
		  "durationTicks": 240,
		  "midi": 32,
		  "name": "G#1",
		  "ticks": 44160,
		  "time": 35.612832,
		  "velocity": 0.7480314960629921
		},
		{
		  "duration": 0.19354799999999983,
		  "durationTicks": 240,
		  "midi": 32,
		  "name": "G#1",
		  "ticks": 44400,
		  "time": 35.80638,
		  "velocity": 0.7480314960629921
		},
		{
		  "duration": 0.19354799999999983,
		  "durationTicks": 240,
		  "midi": 34,
		  "name": "A#1",
		  "ticks": 44640,
		  "time": 35.999928,
		  "velocity": 0.7480314960629921
		},
		{
		  "duration": 0.19354799999999983,
		  "durationTicks": 240,
		  "midi": 34,
		  "name": "A#1",
		  "ticks": 44880,
		  "time": 36.193476,
		  "velocity": 0.7480314960629921
		},
		{
		  "duration": 0.19354799999999983,
		  "durationTicks": 240,
		  "midi": 34,
		  "name": "A#1",
		  "ticks": 45120,
		  "time": 36.387024,
		  "velocity": 0.7480314960629921
		},
		{
		  "duration": 0.19354799999999983,
		  "durationTicks": 240,
		  "midi": 32,
		  "name": "G#1",
		  "ticks": 45360,
		  "time": 36.580572,
		  "velocity": 0.7480314960629921
		},
		{
		  "duration": 0.19354799999999983,
		  "durationTicks": 240,
		  "midi": 32,
		  "name": "G#1",
		  "ticks": 45600,
		  "time": 36.774119999999996,
		  "velocity": 0.7480314960629921
		},
		{
		  "duration": 0.19354799999999983,
		  "durationTicks": 240,
		  "midi": 32,
		  "name": "G#1",
		  "ticks": 45840,
		  "time": 36.967667999999996,
		  "velocity": 0.7480314960629921
		},
		{
		  "duration": 0.19354800000000694,
		  "durationTicks": 240,
		  "midi": 34,
		  "name": "A#1",
		  "ticks": 46080,
		  "time": 37.161215999999996,
		  "velocity": 0.7480314960629921
		},
		{
		  "duration": 0.19354799999999983,
		  "durationTicks": 240,
		  "midi": 34,
		  "name": "A#1",
		  "ticks": 46320,
		  "time": 37.354764,
		  "velocity": 0.7480314960629921
		},
		{
		  "duration": 0.19354799999999983,
		  "durationTicks": 240,
		  "midi": 34,
		  "name": "A#1",
		  "ticks": 46560,
		  "time": 37.548312,
		  "velocity": 0.7480314960629921
		},
		{
		  "duration": 0.07258050000000082,
		  "durationTicks": 90,
		  "midi": 34,
		  "name": "A#1",
		  "ticks": 49200,
		  "time": 39.67734,
		  "velocity": 0.5984251968503937
		},
		{
		  "duration": 0.07258050000000082,
		  "durationTicks": 90,
		  "midi": 34,
		  "name": "A#1",
		  "ticks": 49320,
		  "time": 39.774114,
		  "velocity": 0.5984251968503937
		},
		{
		  "duration": 0.19354799999999983,
		  "durationTicks": 240,
		  "midi": 34,
		  "name": "A#1",
		  "ticks": 49440,
		  "time": 39.870888,
		  "velocity": 0.7480314960629921
		},
		{
		  "duration": 0.19354799999999983,
		  "durationTicks": 240,
		  "midi": 34,
		  "name": "A#1",
		  "ticks": 49680,
		  "time": 40.064436,
		  "velocity": 0.7480314960629921
		},
		{
		  "duration": 0.19354799999999983,
		  "durationTicks": 240,
		  "midi": 30,
		  "name": "F#1",
		  "ticks": 49920,
		  "time": 40.257984,
		  "velocity": 0.7480314960629921
		},
		{
		  "duration": 0.19354799999999983,
		  "durationTicks": 240,
		  "midi": 30,
		  "name": "F#1",
		  "ticks": 50160,
		  "time": 40.451532,
		  "velocity": 0.7480314960629921
		},
		{
		  "duration": 0.19354799999999983,
		  "durationTicks": 240,
		  "midi": 30,
		  "name": "F#1",
		  "ticks": 50400,
		  "time": 40.64508,
		  "velocity": 0.7480314960629921
		},
		{
		  "duration": 0.09677400000000347,
		  "durationTicks": 120,
		  "midi": 30,
		  "name": "F#1",
		  "ticks": 52560,
		  "time": 42.387012,
		  "velocity": 0.7480314960629921
		},
		{
		  "duration": 0.09677399999999636,
		  "durationTicks": 120,
		  "midi": 30,
		  "name": "F#1",
		  "ticks": 52680,
		  "time": 42.483786,
		  "velocity": 0.7480314960629921
		},
		{
		  "duration": 0.09677400000000347,
		  "durationTicks": 120,
		  "midi": 30,
		  "name": "F#1",
		  "ticks": 52800,
		  "time": 42.58056,
		  "velocity": 0.7480314960629921
		},
		{
		  "duration": 0.09677400000000347,
		  "durationTicks": 120,
		  "midi": 30,
		  "name": "F#1",
		  "ticks": 53040,
		  "time": 42.774108,
		  "velocity": 0.7480314960629921
		},
		{
		  "duration": 0.09677399999999636,
		  "durationTicks": 120,
		  "midi": 30,
		  "name": "F#1",
		  "ticks": 53160,
		  "time": 42.870882,
		  "velocity": 0.7480314960629921
		},
		{
		  "duration": 0.19354799999999983,
		  "durationTicks": 240,
		  "midi": 34,
		  "name": "A#1",
		  "ticks": 53760,
		  "time": 43.354752,
		  "velocity": 0.7480314960629921
		},
		{
		  "duration": 0.19354799999999983,
		  "durationTicks": 240,
		  "midi": 34,
		  "name": "A#1",
		  "ticks": 54000,
		  "time": 43.5483,
		  "velocity": 0.7480314960629921
		},
		{
		  "duration": 0.19354799999999983,
		  "durationTicks": 240,
		  "midi": 34,
		  "name": "A#1",
		  "ticks": 54240,
		  "time": 43.741848,
		  "velocity": 0.7480314960629921
		},
		{
		  "duration": 0.19354799999999983,
		  "durationTicks": 240,
		  "midi": 34,
		  "name": "A#1",
		  "ticks": 54480,
		  "time": 43.935396,
		  "velocity": 0.7480314960629921
		},
		{
		  "duration": 0.19354799999999983,
		  "durationTicks": 240,
		  "midi": 34,
		  "name": "A#1",
		  "ticks": 54720,
		  "time": 44.128944,
		  "velocity": 0.7480314960629921
		},
		{
		  "duration": 0.19354799999999983,
		  "durationTicks": 240,
		  "midi": 34,
		  "name": "A#1",
		  "ticks": 54960,
		  "time": 44.322492,
		  "velocity": 0.7480314960629921
		},
		{
		  "duration": 0.19354799999999983,
		  "durationTicks": 240,
		  "midi": 34,
		  "name": "A#1",
		  "ticks": 55200,
		  "time": 44.51604,
		  "velocity": 0.7480314960629921
		},
		{
		  "duration": 0.19354799999999983,
		  "durationTicks": 240,
		  "midi": 34,
		  "name": "A#1",
		  "ticks": 55440,
		  "time": 44.709588,
		  "velocity": 0.7480314960629921
		},
		{
		  "duration": 0.19354799999999983,
		  "durationTicks": 240,
		  "midi": 32,
		  "name": "G#1",
		  "ticks": 55680,
		  "time": 44.903135999999996,
		  "velocity": 0.7480314960629921
		},
		{
		  "duration": 0.19354799999999983,
		  "durationTicks": 240,
		  "midi": 32,
		  "name": "G#1",
		  "ticks": 55920,
		  "time": 45.096683999999996,
		  "velocity": 0.7480314960629921
		},
		{
		  "duration": 0.19354800000000694,
		  "durationTicks": 240,
		  "midi": 32,
		  "name": "G#1",
		  "ticks": 56160,
		  "time": 45.290231999999996,
		  "velocity": 0.7480314960629921
		},
		{
		  "duration": 0.19354799999999983,
		  "durationTicks": 240,
		  "midi": 32,
		  "name": "G#1",
		  "ticks": 56400,
		  "time": 45.48378,
		  "velocity": 0.7480314960629921
		},
		{
		  "duration": 0.19354799999999983,
		  "durationTicks": 240,
		  "midi": 32,
		  "name": "G#1",
		  "ticks": 56640,
		  "time": 45.677328,
		  "velocity": 0.7480314960629921
		},
		{
		  "duration": 0.19354799999999983,
		  "durationTicks": 240,
		  "midi": 32,
		  "name": "G#1",
		  "ticks": 56880,
		  "time": 45.870876,
		  "velocity": 0.7480314960629921
		},
		{
		  "duration": 0.19354799999999983,
		  "durationTicks": 240,
		  "midi": 32,
		  "name": "G#1",
		  "ticks": 57120,
		  "time": 46.064424,
		  "velocity": 0.7480314960629921
		},
		{
		  "duration": 0.19354799999999983,
		  "durationTicks": 240,
		  "midi": 32,
		  "name": "G#1",
		  "ticks": 57360,
		  "time": 46.257972,
		  "velocity": 0.7480314960629921
		},
		{
		  "duration": 0.19354799999999983,
		  "durationTicks": 240,
		  "midi": 29,
		  "name": "F1",
		  "ticks": 57600,
		  "time": 46.45152,
		  "velocity": 0.7480314960629921
		},
		{
		  "duration": 0.19354799999999983,
		  "durationTicks": 240,
		  "midi": 29,
		  "name": "F1",
		  "ticks": 57840,
		  "time": 46.645068,
		  "velocity": 0.7480314960629921
		},
		{
		  "duration": 0.19354799999999983,
		  "durationTicks": 240,
		  "midi": 29,
		  "name": "F1",
		  "ticks": 58080,
		  "time": 46.838616,
		  "velocity": 0.7480314960629921
		},
		{
		  "duration": 0.19354799999999983,
		  "durationTicks": 240,
		  "midi": 29,
		  "name": "F1",
		  "ticks": 58320,
		  "time": 47.032164,
		  "velocity": 0.7480314960629921
		},
		{
		  "duration": 0.19354799999999983,
		  "durationTicks": 240,
		  "midi": 29,
		  "name": "F1",
		  "ticks": 58560,
		  "time": 47.225712,
		  "velocity": 0.7480314960629921
		},
		{
		  "duration": 0.19354799999999983,
		  "durationTicks": 240,
		  "midi": 29,
		  "name": "F1",
		  "ticks": 58800,
		  "time": 47.41926,
		  "velocity": 0.7480314960629921
		},
		{
		  "duration": 0.19354799999999983,
		  "durationTicks": 240,
		  "midi": 29,
		  "name": "F1",
		  "ticks": 59040,
		  "time": 47.612808,
		  "velocity": 0.7480314960629921
		},
		{
		  "duration": 0.19354799999999983,
		  "durationTicks": 240,
		  "midi": 29,
		  "name": "F1",
		  "ticks": 59280,
		  "time": 47.806356,
		  "velocity": 0.7480314960629921
		},
		{
		  "duration": 0.19354799999999983,
		  "durationTicks": 240,
		  "midi": 34,
		  "name": "A#1",
		  "ticks": 59520,
		  "time": 47.999904,
		  "velocity": 0.7480314960629921
		},
		{
		  "duration": 0.19354799999999983,
		  "durationTicks": 240,
		  "midi": 34,
		  "name": "A#1",
		  "ticks": 60000,
		  "time": 48.387,
		  "velocity": 0.7480314960629921
		},
		{
		  "duration": 0.19354799999999983,
		  "durationTicks": 240,
		  "midi": 34,
		  "name": "A#1",
		  "ticks": 60480,
		  "time": 48.774096,
		  "velocity": 0.7480314960629921
		},
		{
		  "duration": 0.19354799999999983,
		  "durationTicks": 240,
		  "midi": 34,
		  "name": "A#1",
		  "ticks": 60960,
		  "time": 49.161192,
		  "velocity": 0.7480314960629921
		},
		{
		  "duration": 0.19354799999999983,
		  "durationTicks": 240,
		  "midi": 32,
		  "name": "G#1",
		  "ticks": 61680,
		  "time": 49.741836,
		  "velocity": 0.7480314960629921
		},
		{
		  "duration": 0.19354799999999983,
		  "durationTicks": 240,
		  "midi": 32,
		  "name": "G#1",
		  "ticks": 61920,
		  "time": 49.935384,
		  "velocity": 0.7480314960629921
		},
		{
		  "duration": 0.19354799999999983,
		  "durationTicks": 240,
		  "midi": 34,
		  "name": "A#1",
		  "ticks": 62160,
		  "time": 50.128932,
		  "velocity": 0.7480314960629921
		},
		{
		  "duration": 0.19354799999999983,
		  "durationTicks": 240,
		  "midi": 34,
		  "name": "A#1",
		  "ticks": 63360,
		  "time": 51.096672,
		  "velocity": 0.7480314960629921
		},
		{
		  "duration": 0.19354799999999983,
		  "durationTicks": 240,
		  "midi": 34,
		  "name": "A#1",
		  "ticks": 63600,
		  "time": 51.29022,
		  "velocity": 0.7480314960629921
		},
		{
		  "duration": 0.19354799999999983,
		  "durationTicks": 240,
		  "midi": 34,
		  "name": "A#1",
		  "ticks": 63840,
		  "time": 51.483768,
		  "velocity": 0.7480314960629921
		},
		{
		  "duration": 0.19354799999999983,
		  "durationTicks": 240,
		  "midi": 34,
		  "name": "A#1",
		  "ticks": 64080,
		  "time": 51.677316,
		  "velocity": 0.7480314960629921
		},
		{
		  "duration": 0.19354799999999983,
		  "durationTicks": 240,
		  "midi": 34,
		  "name": "A#1",
		  "ticks": 64320,
		  "time": 51.870864,
		  "velocity": 0.7480314960629921
		},
		{
		  "duration": 0.19354799999999983,
		  "durationTicks": 240,
		  "midi": 34,
		  "name": "A#1",
		  "ticks": 64560,
		  "time": 52.064412,
		  "velocity": 0.7480314960629921
		},
		{
		  "duration": 0.19354799999999983,
		  "durationTicks": 240,
		  "midi": 34,
		  "name": "A#1",
		  "ticks": 64800,
		  "time": 52.25796,
		  "velocity": 0.7480314960629921
		},
		{
		  "duration": 0.19354799999999983,
		  "durationTicks": 240,
		  "midi": 34,
		  "name": "A#1",
		  "ticks": 65040,
		  "time": 52.451508,
		  "velocity": 0.7480314960629921
		},
		{
		  "duration": 0.19354799999999983,
		  "durationTicks": 240,
		  "midi": 34,
		  "name": "A#1",
		  "ticks": 65280,
		  "time": 52.645056,
		  "velocity": 0.7480314960629921
		},
		{
		  "duration": 0.19354799999999983,
		  "durationTicks": 240,
		  "midi": 34,
		  "name": "A#1",
		  "ticks": 65520,
		  "time": 52.838604,
		  "velocity": 0.7480314960629921
		},
		{
		  "duration": 0.19354799999999983,
		  "durationTicks": 240,
		  "midi": 34,
		  "name": "A#1",
		  "ticks": 65760,
		  "time": 53.032151999999996,
		  "velocity": 0.7480314960629921
		},
		{
		  "duration": 0.19354799999999983,
		  "durationTicks": 240,
		  "midi": 34,
		  "name": "A#1",
		  "ticks": 66000,
		  "time": 53.225699999999996,
		  "velocity": 0.7480314960629921
		},
		{
		  "duration": 0.19354799999999983,
		  "durationTicks": 240,
		  "midi": 34,
		  "name": "A#1",
		  "ticks": 66240,
		  "time": 53.419247999999996,
		  "velocity": 0.7480314960629921
		},
		{
		  "duration": 0.19354800000000694,
		  "durationTicks": 240,
		  "midi": 34,
		  "name": "A#1",
		  "ticks": 66480,
		  "time": 53.612795999999996,
		  "velocity": 0.7480314960629921
		},
		{
		  "duration": 0.19354799999999983,
		  "durationTicks": 240,
		  "midi": 34,
		  "name": "A#1",
		  "ticks": 66720,
		  "time": 53.806344,
		  "velocity": 0.7480314960629921
		},
		{
		  "duration": 0.19354799999999983,
		  "durationTicks": 240,
		  "midi": 34,
		  "name": "A#1",
		  "ticks": 66960,
		  "time": 53.999892,
		  "velocity": 0.7480314960629921
		},
		{
		  "duration": 0.19354799999999983,
		  "durationTicks": 240,
		  "midi": 32,
		  "name": "G#1",
		  "ticks": 67200,
		  "time": 54.19344,
		  "velocity": 0.7480314960629921
		},
		{
		  "duration": 0.19354799999999983,
		  "durationTicks": 240,
		  "midi": 32,
		  "name": "G#1",
		  "ticks": 67440,
		  "time": 54.386988,
		  "velocity": 0.7480314960629921
		},
		{
		  "duration": 0.19354799999999983,
		  "durationTicks": 240,
		  "midi": 32,
		  "name": "G#1",
		  "ticks": 67680,
		  "time": 54.580536,
		  "velocity": 0.7480314960629921
		},
		{
		  "duration": 0.19354799999999983,
		  "durationTicks": 240,
		  "midi": 32,
		  "name": "G#1",
		  "ticks": 67920,
		  "time": 54.774084,
		  "velocity": 0.7480314960629921
		},
		{
		  "duration": 0.19354799999999983,
		  "durationTicks": 240,
		  "midi": 32,
		  "name": "G#1",
		  "ticks": 68160,
		  "time": 54.967632,
		  "velocity": 0.7480314960629921
		},
		{
		  "duration": 0.19354799999999983,
		  "durationTicks": 240,
		  "midi": 32,
		  "name": "G#1",
		  "ticks": 68400,
		  "time": 55.16118,
		  "velocity": 0.7480314960629921
		},
		{
		  "duration": 0.19354799999999983,
		  "durationTicks": 240,
		  "midi": 32,
		  "name": "G#1",
		  "ticks": 68640,
		  "time": 55.354728,
		  "velocity": 0.7480314960629921
		},
		{
		  "duration": 0.19354799999999983,
		  "durationTicks": 240,
		  "midi": 32,
		  "name": "G#1",
		  "ticks": 68880,
		  "time": 55.548276,
		  "velocity": 0.7480314960629921
		},
		{
		  "duration": 0.19354799999999983,
		  "durationTicks": 240,
		  "midi": 34,
		  "name": "A#1",
		  "ticks": 69120,
		  "time": 55.741824,
		  "velocity": 0.7480314960629921
		},
		{
		  "duration": 0.19354799999999983,
		  "durationTicks": 240,
		  "midi": 34,
		  "name": "A#1",
		  "ticks": 69360,
		  "time": 55.935372,
		  "velocity": 0.7480314960629921
		},
		{
		  "duration": 0.19354799999999983,
		  "durationTicks": 240,
		  "midi": 34,
		  "name": "A#1",
		  "ticks": 69600,
		  "time": 56.12892,
		  "velocity": 0.7480314960629921
		},
		{
		  "duration": 0.19354799999999983,
		  "durationTicks": 240,
		  "midi": 34,
		  "name": "A#1",
		  "ticks": 69840,
		  "time": 56.322468,
		  "velocity": 0.7480314960629921
		},
		{
		  "duration": 0.19354799999999983,
		  "durationTicks": 240,
		  "midi": 34,
		  "name": "A#1",
		  "ticks": 70080,
		  "time": 56.516016,
		  "velocity": 0.7480314960629921
		},
		{
		  "duration": 0.19354799999999983,
		  "durationTicks": 240,
		  "midi": 34,
		  "name": "A#1",
		  "ticks": 70320,
		  "time": 56.709564,
		  "velocity": 0.7480314960629921
		},
		{
		  "duration": 0.19354799999999983,
		  "durationTicks": 240,
		  "midi": 34,
		  "name": "A#1",
		  "ticks": 70560,
		  "time": 56.903112,
		  "velocity": 0.7480314960629921
		},
		{
		  "duration": 0.19354799999999983,
		  "durationTicks": 240,
		  "midi": 34,
		  "name": "A#1",
		  "ticks": 70800,
		  "time": 57.09666,
		  "velocity": 0.7480314960629921
		},
		{
		  "duration": 0.19354799999999983,
		  "durationTicks": 240,
		  "midi": 32,
		  "name": "G#1",
		  "ticks": 71040,
		  "time": 57.290208,
		  "velocity": 0.7480314960629921
		},
		{
		  "duration": 0.19354799999999983,
		  "durationTicks": 240,
		  "midi": 32,
		  "name": "G#1",
		  "ticks": 71280,
		  "time": 57.483756,
		  "velocity": 0.7480314960629921
		},
		{
		  "duration": 0.19354799999999983,
		  "durationTicks": 240,
		  "midi": 32,
		  "name": "G#1",
		  "ticks": 71520,
		  "time": 57.677304,
		  "velocity": 0.7480314960629921
		},
		{
		  "duration": 0.19354799999999983,
		  "durationTicks": 240,
		  "midi": 32,
		  "name": "G#1",
		  "ticks": 71760,
		  "time": 57.870852,
		  "velocity": 0.7480314960629921
		},
		{
		  "duration": 0.19354799999999983,
		  "durationTicks": 240,
		  "midi": 32,
		  "name": "G#1",
		  "ticks": 72000,
		  "time": 58.0644,
		  "velocity": 0.7480314960629921
		},
		{
		  "duration": 0.19354799999999983,
		  "durationTicks": 240,
		  "midi": 32,
		  "name": "G#1",
		  "ticks": 72240,
		  "time": 58.257948,
		  "velocity": 0.7480314960629921
		},
		{
		  "duration": 0.19354799999999983,
		  "durationTicks": 240,
		  "midi": 32,
		  "name": "G#1",
		  "ticks": 72480,
		  "time": 58.451496,
		  "velocity": 0.7480314960629921
		},
		{
		  "duration": 0.19354799999999983,
		  "durationTicks": 240,
		  "midi": 32,
		  "name": "G#1",
		  "ticks": 72720,
		  "time": 58.645044,
		  "velocity": 0.7480314960629921
		},
		{
		  "duration": 0.19354799999999983,
		  "durationTicks": 240,
		  "midi": 30,
		  "name": "F#1",
		  "ticks": 72960,
		  "time": 58.838592,
		  "velocity": 0.7480314960629921
		},
		{
		  "duration": 0.19354799999999983,
		  "durationTicks": 240,
		  "midi": 30,
		  "name": "F#1",
		  "ticks": 73200,
		  "time": 59.03214,
		  "velocity": 0.7480314960629921
		},
		{
		  "duration": 0.19354799999999983,
		  "durationTicks": 240,
		  "midi": 30,
		  "name": "F#1",
		  "ticks": 73440,
		  "time": 59.225688,
		  "velocity": 0.7480314960629921
		},
		{
		  "duration": 0.19354799999999983,
		  "durationTicks": 240,
		  "midi": 30,
		  "name": "F#1",
		  "ticks": 73680,
		  "time": 59.419236,
		  "velocity": 0.7480314960629921
		},
		{
		  "duration": 0.19354799999999983,
		  "durationTicks": 240,
		  "midi": 30,
		  "name": "F#1",
		  "ticks": 73920,
		  "time": 59.612784,
		  "velocity": 0.7480314960629921
		},
		{
		  "duration": 0.19354799999999983,
		  "durationTicks": 240,
		  "midi": 30,
		  "name": "F#1",
		  "ticks": 74160,
		  "time": 59.806332,
		  "velocity": 0.7480314960629921
		},
		{
		  "duration": 0.19354799999999983,
		  "durationTicks": 240,
		  "midi": 30,
		  "name": "F#1",
		  "ticks": 74400,
		  "time": 59.99988,
		  "velocity": 0.7480314960629921
		},
		{
		  "duration": 0.19354799999999983,
		  "durationTicks": 240,
		  "midi": 30,
		  "name": "F#1",
		  "ticks": 74640,
		  "time": 60.193428,
		  "velocity": 0.7480314960629921
		},
		{
		  "duration": 0.19354799999999983,
		  "durationTicks": 240,
		  "midi": 29,
		  "name": "F1",
		  "ticks": 74880,
		  "time": 60.386976,
		  "velocity": 0.7480314960629921
		},
		{
		  "duration": 0.19354799999999983,
		  "durationTicks": 240,
		  "midi": 29,
		  "name": "F1",
		  "ticks": 75120,
		  "time": 60.580524,
		  "velocity": 0.7480314960629921
		},
		{
		  "duration": 0.19354799999999983,
		  "durationTicks": 240,
		  "midi": 29,
		  "name": "F1",
		  "ticks": 75360,
		  "time": 60.774072,
		  "velocity": 0.7480314960629921
		},
		{
		  "duration": 0.19354799999999983,
		  "durationTicks": 240,
		  "midi": 29,
		  "name": "F1",
		  "ticks": 75600,
		  "time": 60.96762,
		  "velocity": 0.7480314960629921
		},
		{
		  "duration": 0.19354799999999983,
		  "durationTicks": 240,
		  "midi": 29,
		  "name": "F1",
		  "ticks": 75840,
		  "time": 61.161167999999996,
		  "velocity": 0.7480314960629921
		},
		{
		  "duration": 0.19354799999999983,
		  "durationTicks": 240,
		  "midi": 29,
		  "name": "F1",
		  "ticks": 76080,
		  "time": 61.354715999999996,
		  "velocity": 0.7480314960629921
		},
		{
		  "duration": 0.19354799999999983,
		  "durationTicks": 240,
		  "midi": 29,
		  "name": "F1",
		  "ticks": 76320,
		  "time": 61.548263999999996,
		  "velocity": 0.7480314960629921
		},
		{
		  "duration": 0.19354800000000694,
		  "durationTicks": 240,
		  "midi": 29,
		  "name": "F1",
		  "ticks": 76560,
		  "time": 61.741811999999996,
		  "velocity": 0.7480314960629921
		},
		{
		  "duration": 0.19354799999999983,
		  "durationTicks": 240,
		  "midi": 34,
		  "name": "A#1",
		  "ticks": 76800,
		  "time": 61.93536,
		  "velocity": 0.7480314960629921
		},
		{
		  "duration": 0.19354799999999983,
		  "durationTicks": 240,
		  "midi": 34,
		  "name": "A#1",
		  "ticks": 77040,
		  "time": 62.128908,
		  "velocity": 0.7480314960629921
		},
		{
		  "duration": 0.19354799999999983,
		  "durationTicks": 240,
		  "midi": 34,
		  "name": "A#1",
		  "ticks": 77280,
		  "time": 62.322456,
		  "velocity": 0.7480314960629921
		},
		{
		  "duration": 0.19354799999999983,
		  "durationTicks": 240,
		  "midi": 34,
		  "name": "A#1",
		  "ticks": 77520,
		  "time": 62.516004,
		  "velocity": 0.7480314960629921
		},
		{
		  "duration": 0.19354799999999983,
		  "durationTicks": 240,
		  "midi": 34,
		  "name": "A#1",
		  "ticks": 77760,
		  "time": 62.709552,
		  "velocity": 0.7480314960629921
		},
		{
		  "duration": 0.19354799999999983,
		  "durationTicks": 240,
		  "midi": 32,
		  "name": "G#1",
		  "ticks": 78000,
		  "time": 62.9031,
		  "velocity": 0.7480314960629921
		},
		{
		  "duration": 0.19354799999999983,
		  "durationTicks": 240,
		  "midi": 32,
		  "name": "G#1",
		  "ticks": 78240,
		  "time": 63.096648,
		  "velocity": 0.7480314960629921
		},
		{
		  "duration": 0.19354799999999983,
		  "durationTicks": 240,
		  "midi": 32,
		  "name": "G#1",
		  "ticks": 78480,
		  "time": 63.290196,
		  "velocity": 0.7480314960629921
		},
		{
		  "duration": 0.19354799999999983,
		  "durationTicks": 240,
		  "midi": 34,
		  "name": "A#1",
		  "ticks": 78720,
		  "time": 63.483744,
		  "velocity": 0.7480314960629921
		},
		{
		  "duration": 0.19354799999999983,
		  "durationTicks": 240,
		  "midi": 34,
		  "name": "A#1",
		  "ticks": 78960,
		  "time": 63.677292,
		  "velocity": 0.7480314960629921
		},
		{
		  "duration": 0.19354799999999273,
		  "durationTicks": 240,
		  "midi": 34,
		  "name": "A#1",
		  "ticks": 79200,
		  "time": 63.87084,
		  "velocity": 0.7480314960629921
		},
		{
		  "duration": 0.19354800000000694,
		  "durationTicks": 240,
		  "midi": 34,
		  "name": "A#1",
		  "ticks": 79440,
		  "time": 64.064388,
		  "velocity": 0.7480314960629921
		},
		{
		  "duration": 0.19354799999999273,
		  "durationTicks": 240,
		  "midi": 34,
		  "name": "A#1",
		  "ticks": 79680,
		  "time": 64.257936,
		  "velocity": 0.7480314960629921
		},
		{
		  "duration": 0.19354800000000694,
		  "durationTicks": 240,
		  "midi": 34,
		  "name": "A#1",
		  "ticks": 79920,
		  "time": 64.451484,
		  "velocity": 0.7480314960629921
		},
		{
		  "duration": 0.19354799999999273,
		  "durationTicks": 240,
		  "midi": 34,
		  "name": "A#1",
		  "ticks": 80160,
		  "time": 64.645032,
		  "velocity": 0.7480314960629921
		},
		{
		  "duration": 0.19354800000000694,
		  "durationTicks": 240,
		  "midi": 34,
		  "name": "A#1",
		  "ticks": 80400,
		  "time": 64.83858,
		  "velocity": 0.7480314960629921
		},
		{
		  "duration": 0.19354799999999273,
		  "durationTicks": 240,
		  "midi": 34,
		  "name": "A#1",
		  "ticks": 80640,
		  "time": 65.032128,
		  "velocity": 0.7480314960629921
		},
		{
		  "duration": 0.19354800000000694,
		  "durationTicks": 240,
		  "midi": 34,
		  "name": "A#1",
		  "ticks": 80880,
		  "time": 65.22567599999999,
		  "velocity": 0.7480314960629921
		},
		{
		  "duration": 0.19354799999999273,
		  "durationTicks": 240,
		  "midi": 34,
		  "name": "A#1",
		  "ticks": 81120,
		  "time": 65.419224,
		  "velocity": 0.7480314960629921
		},
		{
		  "duration": 0.19354800000000694,
		  "durationTicks": 240,
		  "midi": 34,
		  "name": "A#1",
		  "ticks": 81360,
		  "time": 65.61277199999999,
		  "velocity": 0.7480314960629921
		},
		{
		  "duration": 0.19354799999999273,
		  "durationTicks": 240,
		  "midi": 34,
		  "name": "A#1",
		  "ticks": 81600,
		  "time": 65.80632,
		  "velocity": 0.7480314960629921
		},
		{
		  "duration": 0.19354800000000694,
		  "durationTicks": 240,
		  "midi": 34,
		  "name": "A#1",
		  "ticks": 81840,
		  "time": 65.99986799999999,
		  "velocity": 0.7480314960629921
		},
		{
		  "duration": 0.19354800000000694,
		  "durationTicks": 240,
		  "midi": 34,
		  "name": "A#1",
		  "ticks": 82080,
		  "time": 66.193416,
		  "velocity": 0.7480314960629921
		},
		{
		  "duration": 0.19354799999999273,
		  "durationTicks": 240,
		  "midi": 34,
		  "name": "A#1",
		  "ticks": 82320,
		  "time": 66.386964,
		  "velocity": 0.7480314960629921
		},
		{
		  "duration": 0.19354800000000694,
		  "durationTicks": 240,
		  "midi": 32,
		  "name": "G#1",
		  "ticks": 82560,
		  "time": 66.580512,
		  "velocity": 0.7480314960629921
		},
		{
		  "duration": 0.19354799999999273,
		  "durationTicks": 240,
		  "midi": 32,
		  "name": "G#1",
		  "ticks": 82800,
		  "time": 66.77406,
		  "velocity": 0.7480314960629921
		},
		{
		  "duration": 0.19354800000000694,
		  "durationTicks": 240,
		  "midi": 32,
		  "name": "G#1",
		  "ticks": 83040,
		  "time": 66.967608,
		  "velocity": 0.7480314960629921
		},
		{
		  "duration": 0.19354799999999273,
		  "durationTicks": 240,
		  "midi": 32,
		  "name": "G#1",
		  "ticks": 83280,
		  "time": 67.161156,
		  "velocity": 0.7480314960629921
		},
		{
		  "duration": 0.19354800000000694,
		  "durationTicks": 240,
		  "midi": 32,
		  "name": "G#1",
		  "ticks": 83520,
		  "time": 67.354704,
		  "velocity": 0.7480314960629921
		},
		{
		  "duration": 0.19354799999999273,
		  "durationTicks": 240,
		  "midi": 32,
		  "name": "G#1",
		  "ticks": 83760,
		  "time": 67.548252,
		  "velocity": 0.7480314960629921
		},
		{
		  "duration": 0.19354800000000694,
		  "durationTicks": 240,
		  "midi": 32,
		  "name": "G#1",
		  "ticks": 84000,
		  "time": 67.7418,
		  "velocity": 0.7480314960629921
		},
		{
		  "duration": 0.19354799999999273,
		  "durationTicks": 240,
		  "midi": 32,
		  "name": "G#1",
		  "ticks": 84240,
		  "time": 67.935348,
		  "velocity": 0.7480314960629921
		},
		{
		  "duration": 0.19354800000000694,
		  "durationTicks": 240,
		  "midi": 34,
		  "name": "A#1",
		  "ticks": 84480,
		  "time": 68.128896,
		  "velocity": 0.7480314960629921
		},
		{
		  "duration": 0.19354799999999273,
		  "durationTicks": 240,
		  "midi": 34,
		  "name": "A#1",
		  "ticks": 84720,
		  "time": 68.322444,
		  "velocity": 0.7480314960629921
		},
		{
		  "duration": 0.19354800000000694,
		  "durationTicks": 240,
		  "midi": 34,
		  "name": "A#1",
		  "ticks": 84960,
		  "time": 68.515992,
		  "velocity": 0.7480314960629921
		},
		{
		  "duration": 0.19354799999999273,
		  "durationTicks": 240,
		  "midi": 34,
		  "name": "A#1",
		  "ticks": 85200,
		  "time": 68.70954,
		  "velocity": 0.7480314960629921
		},
		{
		  "duration": 0.19354800000000694,
		  "durationTicks": 240,
		  "midi": 34,
		  "name": "A#1",
		  "ticks": 85440,
		  "time": 68.903088,
		  "velocity": 0.7480314960629921
		},
		{
		  "duration": 0.19354799999999273,
		  "durationTicks": 240,
		  "midi": 34,
		  "name": "A#1",
		  "ticks": 85680,
		  "time": 69.096636,
		  "velocity": 0.7480314960629921
		},
		{
		  "duration": 0.19354800000000694,
		  "durationTicks": 240,
		  "midi": 34,
		  "name": "A#1",
		  "ticks": 85920,
		  "time": 69.290184,
		  "velocity": 0.7480314960629921
		},
		{
		  "duration": 0.19354799999999273,
		  "durationTicks": 240,
		  "midi": 34,
		  "name": "A#1",
		  "ticks": 86160,
		  "time": 69.483732,
		  "velocity": 0.7480314960629921
		},
		{
		  "duration": 0.19354800000000694,
		  "durationTicks": 240,
		  "midi": 32,
		  "name": "G#1",
		  "ticks": 86400,
		  "time": 69.67728,
		  "velocity": 0.7480314960629921
		},
		{
		  "duration": 0.19354799999999273,
		  "durationTicks": 240,
		  "midi": 32,
		  "name": "G#1",
		  "ticks": 86640,
		  "time": 69.870828,
		  "velocity": 0.7480314960629921
		},
		{
		  "duration": 0.19354800000000694,
		  "durationTicks": 240,
		  "midi": 32,
		  "name": "G#1",
		  "ticks": 86880,
		  "time": 70.064376,
		  "velocity": 0.7480314960629921
		},
		{
		  "duration": 0.19354799999999273,
		  "durationTicks": 240,
		  "midi": 32,
		  "name": "G#1",
		  "ticks": 87120,
		  "time": 70.257924,
		  "velocity": 0.7480314960629921
		},
		{
		  "duration": 0.19354800000000694,
		  "durationTicks": 240,
		  "midi": 32,
		  "name": "G#1",
		  "ticks": 87360,
		  "time": 70.451472,
		  "velocity": 0.7480314960629921
		},
		{
		  "duration": 0.19354799999999273,
		  "durationTicks": 240,
		  "midi": 32,
		  "name": "G#1",
		  "ticks": 87600,
		  "time": 70.64502,
		  "velocity": 0.7480314960629921
		},
		{
		  "duration": 0.19354800000000694,
		  "durationTicks": 240,
		  "midi": 32,
		  "name": "G#1",
		  "ticks": 87840,
		  "time": 70.838568,
		  "velocity": 0.7480314960629921
		},
		{
		  "duration": 0.19354799999999273,
		  "durationTicks": 240,
		  "midi": 32,
		  "name": "G#1",
		  "ticks": 88080,
		  "time": 71.032116,
		  "velocity": 0.7480314960629921
		},
		{
		  "duration": 0.19354800000000694,
		  "durationTicks": 240,
		  "midi": 30,
		  "name": "F#1",
		  "ticks": 88320,
		  "time": 71.225664,
		  "velocity": 0.7480314960629921
		},
		{
		  "duration": 0.19354799999999273,
		  "durationTicks": 240,
		  "midi": 30,
		  "name": "F#1",
		  "ticks": 88560,
		  "time": 71.419212,
		  "velocity": 0.7480314960629921
		},
		{
		  "duration": 0.19354800000000694,
		  "durationTicks": 240,
		  "midi": 30,
		  "name": "F#1",
		  "ticks": 88800,
		  "time": 71.61276,
		  "velocity": 0.7480314960629921
		},
		{
		  "duration": 0.19354799999999273,
		  "durationTicks": 240,
		  "midi": 30,
		  "name": "F#1",
		  "ticks": 89040,
		  "time": 71.806308,
		  "velocity": 0.7480314960629921
		},
		{
		  "duration": 0.19354800000000694,
		  "durationTicks": 240,
		  "midi": 30,
		  "name": "F#1",
		  "ticks": 89280,
		  "time": 71.999856,
		  "velocity": 0.7480314960629921
		},
		{
		  "duration": 0.19354799999999273,
		  "durationTicks": 240,
		  "midi": 30,
		  "name": "F#1",
		  "ticks": 89520,
		  "time": 72.193404,
		  "velocity": 0.7480314960629921
		},
		{
		  "duration": 0.19354800000000694,
		  "durationTicks": 240,
		  "midi": 30,
		  "name": "F#1",
		  "ticks": 89760,
		  "time": 72.386952,
		  "velocity": 0.7480314960629921
		},
		{
		  "duration": 0.19354799999999273,
		  "durationTicks": 240,
		  "midi": 30,
		  "name": "F#1",
		  "ticks": 90000,
		  "time": 72.5805,
		  "velocity": 0.7480314960629921
		},
		{
		  "duration": 0.19354800000000694,
		  "durationTicks": 240,
		  "midi": 29,
		  "name": "F1",
		  "ticks": 90240,
		  "time": 72.774048,
		  "velocity": 0.7480314960629921
		},
		{
		  "duration": 0.19354799999999273,
		  "durationTicks": 240,
		  "midi": 29,
		  "name": "F1",
		  "ticks": 90480,
		  "time": 72.967596,
		  "velocity": 0.7480314960629921
		},
		{
		  "duration": 0.19354800000000694,
		  "durationTicks": 240,
		  "midi": 29,
		  "name": "F1",
		  "ticks": 90720,
		  "time": 73.161144,
		  "velocity": 0.7480314960629921
		},
		{
		  "duration": 0.19354799999999273,
		  "durationTicks": 240,
		  "midi": 29,
		  "name": "F1",
		  "ticks": 90960,
		  "time": 73.354692,
		  "velocity": 0.7480314960629921
		},
		{
		  "duration": 0.19354800000000694,
		  "durationTicks": 240,
		  "midi": 29,
		  "name": "F1",
		  "ticks": 91200,
		  "time": 73.54823999999999,
		  "velocity": 0.7480314960629921
		},
		{
		  "duration": 0.19354799999999273,
		  "durationTicks": 240,
		  "midi": 29,
		  "name": "F1",
		  "ticks": 91440,
		  "time": 73.741788,
		  "velocity": 0.7480314960629921
		},
		{
		  "duration": 0.19354800000000694,
		  "durationTicks": 240,
		  "midi": 29,
		  "name": "F1",
		  "ticks": 91680,
		  "time": 73.93533599999999,
		  "velocity": 0.7480314960629921
		},
		{
		  "duration": 0.19354799999999273,
		  "durationTicks": 240,
		  "midi": 29,
		  "name": "F1",
		  "ticks": 91920,
		  "time": 74.128884,
		  "velocity": 0.7480314960629921
		},
		{
		  "duration": 0.19354800000000694,
		  "durationTicks": 240,
		  "midi": 34,
		  "name": "A#1",
		  "ticks": 92160,
		  "time": 74.32243199999999,
		  "velocity": 0.7480314960629921
		},
		{
		  "duration": 0.19354800000000694,
		  "durationTicks": 240,
		  "midi": 34,
		  "name": "A#1",
		  "ticks": 92400,
		  "time": 74.51598,
		  "velocity": 0.7480314960629921
		},
		{
		  "duration": 0.19354800000000694,
		  "durationTicks": 240,
		  "midi": 34,
		  "name": "A#1",
		  "ticks": 92880,
		  "time": 74.903076,
		  "velocity": 0.7480314960629921
		},
		{
		  "duration": 0.19354799999999273,
		  "durationTicks": 240,
		  "midi": 34,
		  "name": "A#1",
		  "ticks": 93120,
		  "time": 75.096624,
		  "velocity": 0.7480314960629921
		},
		{
		  "duration": 0.19354799999999273,
		  "durationTicks": 240,
		  "midi": 34,
		  "name": "A#1",
		  "ticks": 93600,
		  "time": 75.48372,
		  "velocity": 0.7480314960629921
		},
		{
		  "duration": 0.19354800000000694,
		  "durationTicks": 240,
		  "midi": 34,
		  "name": "A#1",
		  "ticks": 93840,
		  "time": 75.677268,
		  "velocity": 0.7480314960629921
		},
		{
		  "duration": 0.19354800000000694,
		  "durationTicks": 240,
		  "midi": 34,
		  "name": "A#1",
		  "ticks": 94320,
		  "time": 76.064364,
		  "velocity": 0.7480314960629921
		},
		{
		  "duration": 0.19354799999999273,
		  "durationTicks": 240,
		  "midi": 34,
		  "name": "A#1",
		  "ticks": 94560,
		  "time": 76.257912,
		  "velocity": 0.7480314960629921
		},
		{
		  "duration": 0.19354799999999273,
		  "durationTicks": 240,
		  "midi": 34,
		  "name": "A#1",
		  "ticks": 95040,
		  "time": 76.645008,
		  "velocity": 0.7480314960629921
		},
		{
		  "duration": 0.07258050000000082,
		  "durationTicks": 90,
		  "midi": 34,
		  "name": "A#1",
		  "ticks": 95280,
		  "time": 76.838556,
		  "velocity": 0.5984251968503937
		},
		{
		  "duration": 0.07258050000000082,
		  "durationTicks": 90,
		  "midi": 34,
		  "name": "A#1",
		  "ticks": 95400,
		  "time": 76.93533,
		  "velocity": 0.5984251968503937
		},
		{
		  "duration": 0.38709599999999966,
		  "durationTicks": 480,
		  "midi": 32,
		  "name": "G#1",
		  "ticks": 95520,
		  "time": 77.032104,
		  "velocity": 0.7480314960629921
		},
		{
		  "duration": 0.19354799999999273,
		  "durationTicks": 240,
		  "midi": 34,
		  "name": "A#1",
		  "ticks": 96000,
		  "time": 77.4192,
		  "velocity": 0.7480314960629921
		},
		{
		  "duration": 0.19354800000000694,
		  "durationTicks": 240,
		  "midi": 34,
		  "name": "A#1",
		  "ticks": 96240,
		  "time": 77.612748,
		  "velocity": 0.7480314960629921
		},
		{
		  "duration": 0.19354800000000694,
		  "durationTicks": 240,
		  "midi": 34,
		  "name": "A#1",
		  "ticks": 96720,
		  "time": 77.999844,
		  "velocity": 0.7480314960629921
		},
		{
		  "duration": 0.19354799999999273,
		  "durationTicks": 240,
		  "midi": 34,
		  "name": "A#1",
		  "ticks": 96960,
		  "time": 78.193392,
		  "velocity": 0.7480314960629921
		},
		{
		  "duration": 0.19354799999999273,
		  "durationTicks": 240,
		  "midi": 34,
		  "name": "A#1",
		  "ticks": 97440,
		  "time": 78.580488,
		  "velocity": 0.7480314960629921
		},
		{
		  "duration": 0.19354800000000694,
		  "durationTicks": 240,
		  "midi": 34,
		  "name": "A#1",
		  "ticks": 97680,
		  "time": 78.774036,
		  "velocity": 0.7480314960629921
		},
		{
		  "duration": 0.19354800000000694,
		  "durationTicks": 240,
		  "midi": 34,
		  "name": "A#1",
		  "ticks": 98160,
		  "time": 79.161132,
		  "velocity": 0.7480314960629921
		},
		{
		  "duration": 0.19354799999999273,
		  "durationTicks": 240,
		  "midi": 34,
		  "name": "A#1",
		  "ticks": 98400,
		  "time": 79.35468,
		  "velocity": 0.7480314960629921
		},
		{
		  "duration": 0.07258050000000082,
		  "durationTicks": 90,
		  "midi": 34,
		  "name": "A#1",
		  "ticks": 98640,
		  "time": 79.548228,
		  "velocity": 0.5984251968503937
		},
		{
		  "duration": 0.07258050000000082,
		  "durationTicks": 90,
		  "midi": 34,
		  "name": "A#1",
		  "ticks": 98760,
		  "time": 79.645002,
		  "velocity": 0.5984251968503937
		},
		{
		  "duration": 0.38709599999999966,
		  "durationTicks": 480,
		  "midi": 37,
		  "name": "C#2",
		  "ticks": 98880,
		  "time": 79.741776,
		  "velocity": 0.7480314960629921
		},
		{
		  "duration": 0.38709599999999966,
		  "durationTicks": 480,
		  "midi": 32,
		  "name": "G#1",
		  "ticks": 99360,
		  "time": 80.128872,
		  "velocity": 0.7480314960629921
		},
		{
		  "duration": 0.19354799999999273,
		  "durationTicks": 240,
		  "midi": 32,
		  "name": "G#1",
		  "ticks": 99840,
		  "time": 80.515968,
		  "velocity": 0.7480314960629921
		},
		{
		  "duration": 0.19354800000000694,
		  "durationTicks": 240,
		  "midi": 34,
		  "name": "A#1",
		  "ticks": 100080,
		  "time": 80.709516,
		  "velocity": 0.7480314960629921
		},
		{
		  "duration": 0.19354800000000694,
		  "durationTicks": 240,
		  "midi": 34,
		  "name": "A#1",
		  "ticks": 100560,
		  "time": 81.096612,
		  "velocity": 0.7480314960629921
		},
		{
		  "duration": 0.19354800000000694,
		  "durationTicks": 240,
		  "midi": 34,
		  "name": "A#1",
		  "ticks": 101040,
		  "time": 81.483708,
		  "velocity": 0.7480314960629921
		},
		{
		  "duration": 0.19354800000000694,
		  "durationTicks": 240,
		  "midi": 34,
		  "name": "A#1",
		  "ticks": 101520,
		  "time": 81.87080399999999,
		  "velocity": 0.7480314960629921
		},
		{
		  "duration": 0.19354799999999273,
		  "durationTicks": 240,
		  "midi": 34,
		  "name": "A#1",
		  "ticks": 101760,
		  "time": 82.064352,
		  "velocity": 0.7480314960629921
		},
		{
		  "duration": 0.19354800000000694,
		  "durationTicks": 240,
		  "midi": 34,
		  "name": "A#1",
		  "ticks": 102000,
		  "time": 82.25789999999999,
		  "velocity": 0.7480314960629921
		},
		{
		  "duration": 0.19354799999999273,
		  "durationTicks": 240,
		  "midi": 34,
		  "name": "A#1",
		  "ticks": 102480,
		  "time": 82.644996,
		  "velocity": 0.7480314960629921
		},
		{
		  "duration": 0.19354799999999273,
		  "durationTicks": 240,
		  "midi": 34,
		  "name": "A#1",
		  "ticks": 102960,
		  "time": 83.032092,
		  "velocity": 0.7480314960629921
		},
		{
		  "duration": 0.19354799999999273,
		  "durationTicks": 240,
		  "midi": 34,
		  "name": "A#1",
		  "ticks": 103440,
		  "time": 83.419188,
		  "velocity": 0.7480314960629921
		},
		{
		  "duration": 0.19354800000000694,
		  "durationTicks": 240,
		  "midi": 30,
		  "name": "F#1",
		  "ticks": 103680,
		  "time": 83.612736,
		  "velocity": 0.7480314960629921
		},
		{
		  "duration": 0.19354799999999273,
		  "durationTicks": 240,
		  "midi": 30,
		  "name": "F#1",
		  "ticks": 103920,
		  "time": 83.806284,
		  "velocity": 0.7480314960629921
		},
		{
		  "duration": 0.19354799999999273,
		  "durationTicks": 240,
		  "midi": 30,
		  "name": "F#1",
		  "ticks": 104400,
		  "time": 84.19338,
		  "velocity": 0.7480314960629921
		},
		{
		  "duration": 0.19354799999999273,
		  "durationTicks": 240,
		  "midi": 30,
		  "name": "F#1",
		  "ticks": 104880,
		  "time": 84.580476,
		  "velocity": 0.7480314960629921
		},
		{
		  "duration": 0.19354799999999273,
		  "durationTicks": 240,
		  "midi": 30,
		  "name": "F#1",
		  "ticks": 105360,
		  "time": 84.967572,
		  "velocity": 0.7480314960629921
		},
		{
		  "duration": 0.19354800000000694,
		  "durationTicks": 240,
		  "midi": 37,
		  "name": "C#2",
		  "ticks": 105600,
		  "time": 85.16112,
		  "velocity": 0.7480314960629921
		},
		{
		  "duration": 0.19354799999999273,
		  "durationTicks": 240,
		  "midi": 37,
		  "name": "C#2",
		  "ticks": 105840,
		  "time": 85.354668,
		  "velocity": 0.7480314960629921
		},
		{
		  "duration": 0.19354800000000694,
		  "durationTicks": 240,
		  "midi": 37,
		  "name": "C#2",
		  "ticks": 106080,
		  "time": 85.548216,
		  "velocity": 0.7480314960629921
		},
		{
		  "duration": 0.19354799999999273,
		  "durationTicks": 240,
		  "midi": 32,
		  "name": "G#1",
		  "ticks": 106320,
		  "time": 85.741764,
		  "velocity": 0.7480314960629921
		},
		{
		  "duration": 0.19354800000000694,
		  "durationTicks": 240,
		  "midi": 32,
		  "name": "G#1",
		  "ticks": 106560,
		  "time": 85.935312,
		  "velocity": 0.7480314960629921
		},
		{
		  "duration": 0.19354799999999273,
		  "durationTicks": 240,
		  "midi": 32,
		  "name": "G#1",
		  "ticks": 106800,
		  "time": 86.12886,
		  "velocity": 0.7480314960629921
		},
		{
		  "duration": 0.19354800000000694,
		  "durationTicks": 240,
		  "midi": 32,
		  "name": "G#1",
		  "ticks": 107040,
		  "time": 86.322408,
		  "velocity": 0.7480314960629921
		},
		{
		  "duration": 0.19354799999999273,
		  "durationTicks": 240,
		  "midi": 32,
		  "name": "G#1",
		  "ticks": 107280,
		  "time": 86.515956,
		  "velocity": 0.7480314960629921
		},
		{
		  "duration": 0.19354800000000694,
		  "durationTicks": 240,
		  "midi": 32,
		  "name": "G#1",
		  "ticks": 107520,
		  "time": 86.709504,
		  "velocity": 0.7480314960629921
		},
		{
		  "duration": 0.19354799999999273,
		  "durationTicks": 240,
		  "midi": 34,
		  "name": "A#1",
		  "ticks": 107760,
		  "time": 86.903052,
		  "velocity": 0.7480314960629921
		},
		{
		  "duration": 0.19354799999999273,
		  "durationTicks": 240,
		  "midi": 34,
		  "name": "A#1",
		  "ticks": 108240,
		  "time": 87.290148,
		  "velocity": 0.7480314960629921
		},
		{
		  "duration": 0.19354799999999273,
		  "durationTicks": 240,
		  "midi": 34,
		  "name": "A#1",
		  "ticks": 108720,
		  "time": 87.677244,
		  "velocity": 0.7480314960629921
		},
		{
		  "duration": 0.19354799999999273,
		  "durationTicks": 240,
		  "midi": 34,
		  "name": "A#1",
		  "ticks": 109200,
		  "time": 88.06434,
		  "velocity": 0.7480314960629921
		},
		{
		  "duration": 0.19354800000000694,
		  "durationTicks": 240,
		  "midi": 34,
		  "name": "A#1",
		  "ticks": 109440,
		  "time": 88.257888,
		  "velocity": 0.7480314960629921
		},
		{
		  "duration": 0.19354799999999273,
		  "durationTicks": 240,
		  "midi": 34,
		  "name": "A#1",
		  "ticks": 109680,
		  "time": 88.451436,
		  "velocity": 0.7480314960629921
		},
		{
		  "duration": 0.19354799999999273,
		  "durationTicks": 240,
		  "midi": 34,
		  "name": "A#1",
		  "ticks": 110160,
		  "time": 88.838532,
		  "velocity": 0.7480314960629921
		},
		{
		  "duration": 0.19354799999999273,
		  "durationTicks": 240,
		  "midi": 34,
		  "name": "A#1",
		  "ticks": 110640,
		  "time": 89.225628,
		  "velocity": 0.7480314960629921
		},
		{
		  "duration": 0.19354799999999273,
		  "durationTicks": 240,
		  "midi": 34,
		  "name": "A#1",
		  "ticks": 111120,
		  "time": 89.612724,
		  "velocity": 0.7480314960629921
		},
		{
		  "duration": 0.19354800000000694,
		  "durationTicks": 240,
		  "midi": 30,
		  "name": "F#1",
		  "ticks": 111360,
		  "time": 89.80627199999999,
		  "velocity": 0.7480314960629921
		},
		{
		  "duration": 0.19354799999999273,
		  "durationTicks": 240,
		  "midi": 30,
		  "name": "F#1",
		  "ticks": 111600,
		  "time": 89.99982,
		  "velocity": 0.7480314960629921
		},
		{
		  "duration": 0.19354799999999273,
		  "durationTicks": 240,
		  "midi": 30,
		  "name": "F#1",
		  "ticks": 112080,
		  "time": 90.386916,
		  "velocity": 0.7480314960629921
		},
		{
		  "duration": 0.19354800000000694,
		  "durationTicks": 240,
		  "midi": 30,
		  "name": "F#1",
		  "ticks": 112560,
		  "time": 90.774012,
		  "velocity": 0.7480314960629921
		},
		{
		  "duration": 0.19354800000000694,
		  "durationTicks": 240,
		  "midi": 30,
		  "name": "F#1",
		  "ticks": 113040,
		  "time": 91.161108,
		  "velocity": 0.7480314960629921
		},
		{
		  "duration": 0.19354799999999273,
		  "durationTicks": 240,
		  "midi": 37,
		  "name": "C#2",
		  "ticks": 113280,
		  "time": 91.354656,
		  "velocity": 0.7480314960629921
		},
		{
		  "duration": 0.19354800000000694,
		  "durationTicks": 240,
		  "midi": 37,
		  "name": "C#2",
		  "ticks": 113520,
		  "time": 91.548204,
		  "velocity": 0.7480314960629921
		},
		{
		  "duration": 0.19354799999999273,
		  "durationTicks": 240,
		  "midi": 37,
		  "name": "C#2",
		  "ticks": 113760,
		  "time": 91.741752,
		  "velocity": 0.7480314960629921
		},
		{
		  "duration": 0.19354800000000694,
		  "durationTicks": 240,
		  "midi": 32,
		  "name": "G#1",
		  "ticks": 114000,
		  "time": 91.9353,
		  "velocity": 0.7480314960629921
		},
		{
		  "duration": 0.19354799999999273,
		  "durationTicks": 240,
		  "midi": 32,
		  "name": "G#1",
		  "ticks": 114240,
		  "time": 92.128848,
		  "velocity": 0.7480314960629921
		},
		{
		  "duration": 0.19354800000000694,
		  "durationTicks": 240,
		  "midi": 32,
		  "name": "G#1",
		  "ticks": 114480,
		  "time": 92.322396,
		  "velocity": 0.7480314960629921
		},
		{
		  "duration": 0.19354799999999273,
		  "durationTicks": 240,
		  "midi": 32,
		  "name": "G#1",
		  "ticks": 114720,
		  "time": 92.515944,
		  "velocity": 0.7480314960629921
		},
		{
		  "duration": 0.19354800000000694,
		  "durationTicks": 240,
		  "midi": 32,
		  "name": "G#1",
		  "ticks": 114960,
		  "time": 92.709492,
		  "velocity": 0.7480314960629921
		},
		{
		  "duration": 0.19354799999999273,
		  "durationTicks": 240,
		  "midi": 32,
		  "name": "G#1",
		  "ticks": 115200,
		  "time": 92.90304,
		  "velocity": 0.7480314960629921
		},
		{
		  "duration": 0.19354800000000694,
		  "durationTicks": 240,
		  "midi": 34,
		  "name": "A#1",
		  "ticks": 115440,
		  "time": 93.096588,
		  "velocity": 0.7480314960629921
		},
		{
		  "duration": 0.19354800000000694,
		  "durationTicks": 240,
		  "midi": 34,
		  "name": "A#1",
		  "ticks": 115920,
		  "time": 93.483684,
		  "velocity": 0.7480314960629921
		},
		{
		  "duration": 0.19354800000000694,
		  "durationTicks": 240,
		  "midi": 34,
		  "name": "A#1",
		  "ticks": 116400,
		  "time": 93.87078,
		  "velocity": 0.7480314960629921
		},
		{
		  "duration": 0.19354800000000694,
		  "durationTicks": 240,
		  "midi": 34,
		  "name": "A#1",
		  "ticks": 116880,
		  "time": 94.257876,
		  "velocity": 0.7480314960629921
		},
		{
		  "duration": 0.19354799999999273,
		  "durationTicks": 240,
		  "midi": 34,
		  "name": "A#1",
		  "ticks": 117120,
		  "time": 94.451424,
		  "velocity": 0.7480314960629921
		},
		{
		  "duration": 0.19354800000000694,
		  "durationTicks": 240,
		  "midi": 34,
		  "name": "A#1",
		  "ticks": 117360,
		  "time": 94.644972,
		  "velocity": 0.7480314960629921
		},
		{
		  "duration": 0.19354800000000694,
		  "durationTicks": 240,
		  "midi": 34,
		  "name": "A#1",
		  "ticks": 117840,
		  "time": 95.032068,
		  "velocity": 0.7480314960629921
		},
		{
		  "duration": 0.19354800000000694,
		  "durationTicks": 240,
		  "midi": 34,
		  "name": "A#1",
		  "ticks": 118320,
		  "time": 95.419164,
		  "velocity": 0.7480314960629921
		},
		{
		  "duration": 0.19354800000000694,
		  "durationTicks": 240,
		  "midi": 34,
		  "name": "A#1",
		  "ticks": 118800,
		  "time": 95.80626,
		  "velocity": 0.7480314960629921
		},
		{
		  "duration": 0.19354799999999273,
		  "durationTicks": 240,
		  "midi": 30,
		  "name": "F#1",
		  "ticks": 119040,
		  "time": 95.999808,
		  "velocity": 0.7480314960629921
		},
		{
		  "duration": 0.19354800000000694,
		  "durationTicks": 240,
		  "midi": 30,
		  "name": "F#1",
		  "ticks": 119280,
		  "time": 96.193356,
		  "velocity": 0.7480314960629921
		},
		{
		  "duration": 0.19354800000000694,
		  "durationTicks": 240,
		  "midi": 30,
		  "name": "F#1",
		  "ticks": 119760,
		  "time": 96.580452,
		  "velocity": 0.7480314960629921
		},
		{
		  "duration": 0.19354800000000694,
		  "durationTicks": 240,
		  "midi": 30,
		  "name": "F#1",
		  "ticks": 120240,
		  "time": 96.967548,
		  "velocity": 0.7480314960629921
		},
		{
		  "duration": 0.19354800000000694,
		  "durationTicks": 240,
		  "midi": 30,
		  "name": "F#1",
		  "ticks": 120720,
		  "time": 97.354644,
		  "velocity": 0.7480314960629921
		},
		{
		  "duration": 0.19354799999999273,
		  "durationTicks": 240,
		  "midi": 37,
		  "name": "C#2",
		  "ticks": 120960,
		  "time": 97.548192,
		  "velocity": 0.7480314960629921
		},
		{
		  "duration": 0.19354800000000694,
		  "durationTicks": 240,
		  "midi": 37,
		  "name": "C#2",
		  "ticks": 121200,
		  "time": 97.74174,
		  "velocity": 0.7480314960629921
		},
		{
		  "duration": 0.19354799999999273,
		  "durationTicks": 240,
		  "midi": 37,
		  "name": "C#2",
		  "ticks": 121440,
		  "time": 97.935288,
		  "velocity": 0.7480314960629921
		},
		{
		  "duration": 0.19354800000000694,
		  "durationTicks": 240,
		  "midi": 32,
		  "name": "G#1",
		  "ticks": 121680,
		  "time": 98.12883599999999,
		  "velocity": 0.7480314960629921
		},
		{
		  "duration": 0.19354799999999273,
		  "durationTicks": 240,
		  "midi": 32,
		  "name": "G#1",
		  "ticks": 121920,
		  "time": 98.322384,
		  "velocity": 0.7480314960629921
		},
		{
		  "duration": 0.19354800000000694,
		  "durationTicks": 240,
		  "midi": 32,
		  "name": "G#1",
		  "ticks": 122160,
		  "time": 98.51593199999999,
		  "velocity": 0.7480314960629921
		},
		{
		  "duration": 0.19354799999999273,
		  "durationTicks": 240,
		  "midi": 32,
		  "name": "G#1",
		  "ticks": 122400,
		  "time": 98.70948,
		  "velocity": 0.7480314960629921
		},
		{
		  "duration": 0.19354800000000694,
		  "durationTicks": 240,
		  "midi": 32,
		  "name": "G#1",
		  "ticks": 122640,
		  "time": 98.90302799999999,
		  "velocity": 0.7480314960629921
		},
		{
		  "duration": 0.19354800000000694,
		  "durationTicks": 240,
		  "midi": 32,
		  "name": "G#1",
		  "ticks": 122880,
		  "time": 99.096576,
		  "velocity": 0.7480314960629921
		},
		{
		  "duration": 0.19354799999999273,
		  "durationTicks": 240,
		  "midi": 34,
		  "name": "A#1",
		  "ticks": 123120,
		  "time": 99.290124,
		  "velocity": 0.7480314960629921
		},
		{
		  "duration": 0.19354799999999273,
		  "durationTicks": 240,
		  "midi": 34,
		  "name": "A#1",
		  "ticks": 123600,
		  "time": 99.67722,
		  "velocity": 0.7480314960629921
		},
		{
		  "duration": 0.19354799999999273,
		  "durationTicks": 240,
		  "midi": 34,
		  "name": "A#1",
		  "ticks": 124080,
		  "time": 100.064316,
		  "velocity": 0.7480314960629921
		},
		{
		  "duration": 0.19354799999999273,
		  "durationTicks": 240,
		  "midi": 34,
		  "name": "A#1",
		  "ticks": 124560,
		  "time": 100.451412,
		  "velocity": 0.7480314960629921
		},
		{
		  "duration": 0.19354800000000694,
		  "durationTicks": 240,
		  "midi": 34,
		  "name": "A#1",
		  "ticks": 124800,
		  "time": 100.64496,
		  "velocity": 0.7480314960629921
		},
		{
		  "duration": 0.19354799999999273,
		  "durationTicks": 240,
		  "midi": 34,
		  "name": "A#1",
		  "ticks": 125040,
		  "time": 100.838508,
		  "velocity": 0.7480314960629921
		},
		{
		  "duration": 0.19354799999999273,
		  "durationTicks": 240,
		  "midi": 34,
		  "name": "A#1",
		  "ticks": 125520,
		  "time": 101.225604,
		  "velocity": 0.7480314960629921
		},
		{
		  "duration": 0.19354799999999273,
		  "durationTicks": 240,
		  "midi": 34,
		  "name": "A#1",
		  "ticks": 126000,
		  "time": 101.6127,
		  "velocity": 0.7480314960629921
		},
		{
		  "duration": 0.19354799999999273,
		  "durationTicks": 240,
		  "midi": 34,
		  "name": "A#1",
		  "ticks": 126480,
		  "time": 101.999796,
		  "velocity": 0.7480314960629921
		},
		{
		  "duration": 0.19354800000000694,
		  "durationTicks": 240,
		  "midi": 30,
		  "name": "F#1",
		  "ticks": 126720,
		  "time": 102.193344,
		  "velocity": 0.7480314960629921
		},
		{
		  "duration": 0.19354799999999273,
		  "durationTicks": 240,
		  "midi": 30,
		  "name": "F#1",
		  "ticks": 126960,
		  "time": 102.386892,
		  "velocity": 0.7480314960629921
		},
		{
		  "duration": 0.19354799999999273,
		  "durationTicks": 240,
		  "midi": 30,
		  "name": "F#1",
		  "ticks": 127440,
		  "time": 102.773988,
		  "velocity": 0.7480314960629921
		},
		{
		  "duration": 0.19354799999999273,
		  "durationTicks": 240,
		  "midi": 30,
		  "name": "F#1",
		  "ticks": 127920,
		  "time": 103.161084,
		  "velocity": 0.7480314960629921
		},
		{
		  "duration": 0.19354799999999273,
		  "durationTicks": 240,
		  "midi": 30,
		  "name": "F#1",
		  "ticks": 128400,
		  "time": 103.54818,
		  "velocity": 0.7480314960629921
		},
		{
		  "duration": 0.19354800000000694,
		  "durationTicks": 240,
		  "midi": 37,
		  "name": "C#2",
		  "ticks": 128640,
		  "time": 103.741728,
		  "velocity": 0.7480314960629921
		},
		{
		  "duration": 0.19354799999999273,
		  "durationTicks": 240,
		  "midi": 37,
		  "name": "C#2",
		  "ticks": 128880,
		  "time": 103.935276,
		  "velocity": 0.7480314960629921
		},
		{
		  "duration": 0.19354800000000694,
		  "durationTicks": 240,
		  "midi": 37,
		  "name": "C#2",
		  "ticks": 129120,
		  "time": 104.128824,
		  "velocity": 0.7480314960629921
		},
		{
		  "duration": 0.19354799999999273,
		  "durationTicks": 240,
		  "midi": 32,
		  "name": "G#1",
		  "ticks": 129360,
		  "time": 104.322372,
		  "velocity": 0.7480314960629921
		},
		{
		  "duration": 0.19354800000000694,
		  "durationTicks": 240,
		  "midi": 32,
		  "name": "G#1",
		  "ticks": 129600,
		  "time": 104.51592,
		  "velocity": 0.7480314960629921
		},
		{
		  "duration": 0.19354799999999273,
		  "durationTicks": 240,
		  "midi": 32,
		  "name": "G#1",
		  "ticks": 129840,
		  "time": 104.709468,
		  "velocity": 0.7480314960629921
		},
		{
		  "duration": 0.19354800000000694,
		  "durationTicks": 240,
		  "midi": 32,
		  "name": "G#1",
		  "ticks": 130080,
		  "time": 104.903016,
		  "velocity": 0.7480314960629921
		},
		{
		  "duration": 0.19354799999999273,
		  "durationTicks": 240,
		  "midi": 32,
		  "name": "G#1",
		  "ticks": 130320,
		  "time": 105.096564,
		  "velocity": 0.7480314960629921
		},
		{
		  "duration": 0.19354800000000694,
		  "durationTicks": 240,
		  "midi": 34,
		  "name": "A#1",
		  "ticks": 130560,
		  "time": 105.290112,
		  "velocity": 0.7480314960629921
		},
		{
		  "duration": 0.19354799999999273,
		  "durationTicks": 240,
		  "midi": 34,
		  "name": "A#1",
		  "ticks": 130800,
		  "time": 105.48366,
		  "velocity": 0.7480314960629921
		},
		{
		  "duration": 0.19354800000000694,
		  "durationTicks": 240,
		  "midi": 34,
		  "name": "A#1",
		  "ticks": 131040,
		  "time": 105.677208,
		  "velocity": 0.7480314960629921
		},
		{
		  "duration": 0.07258050000000082,
		  "durationTicks": 90,
		  "midi": 34,
		  "name": "A#1",
		  "ticks": 133680,
		  "time": 107.806236,
		  "velocity": 0.5984251968503937
		},
		{
		  "duration": 0.07258050000000082,
		  "durationTicks": 90,
		  "midi": 34,
		  "name": "A#1",
		  "ticks": 133800,
		  "time": 107.90301,
		  "velocity": 0.5984251968503937
		},
		{
		  "duration": 0.19354799999999273,
		  "durationTicks": 240,
		  "midi": 34,
		  "name": "A#1",
		  "ticks": 133920,
		  "time": 107.999784,
		  "velocity": 0.7480314960629921
		},
		{
		  "duration": 0.19354800000000694,
		  "durationTicks": 240,
		  "midi": 34,
		  "name": "A#1",
		  "ticks": 134160,
		  "time": 108.193332,
		  "velocity": 0.7480314960629921
		},
		{
		  "duration": 0.19354799999999273,
		  "durationTicks": 240,
		  "midi": 30,
		  "name": "F#1",
		  "ticks": 134400,
		  "time": 108.38688,
		  "velocity": 0.7480314960629921
		},
		{
		  "duration": 0.19354800000000694,
		  "durationTicks": 240,
		  "midi": 30,
		  "name": "F#1",
		  "ticks": 134640,
		  "time": 108.580428,
		  "velocity": 0.7480314960629921
		},
		{
		  "duration": 0.19354799999999273,
		  "durationTicks": 240,
		  "midi": 30,
		  "name": "F#1",
		  "ticks": 134880,
		  "time": 108.773976,
		  "velocity": 0.7480314960629921
		},
		{
		  "duration": 0.09677399999999636,
		  "durationTicks": 120,
		  "midi": 30,
		  "name": "F#1",
		  "ticks": 137040,
		  "time": 110.515908,
		  "velocity": 0.7480314960629921
		},
		{
		  "duration": 0.09677400000001057,
		  "durationTicks": 120,
		  "midi": 30,
		  "name": "F#1",
		  "ticks": 137160,
		  "time": 110.61268199999999,
		  "velocity": 0.7480314960629921
		},
		{
		  "duration": 0.09677399999999636,
		  "durationTicks": 120,
		  "midi": 30,
		  "name": "F#1",
		  "ticks": 137280,
		  "time": 110.709456,
		  "velocity": 0.7480314960629921
		},
		{
		  "duration": 0.09677399999999636,
		  "durationTicks": 120,
		  "midi": 30,
		  "name": "F#1",
		  "ticks": 137520,
		  "time": 110.903004,
		  "velocity": 0.7480314960629921
		},
		{
		  "duration": 0.09677400000001057,
		  "durationTicks": 120,
		  "midi": 30,
		  "name": "F#1",
		  "ticks": 137640,
		  "time": 110.99977799999999,
		  "velocity": 0.7480314960629921
		},
		{
		  "duration": 0.38709599999999966,
		  "durationTicks": 480,
		  "midi": 30,
		  "name": "F#1",
		  "ticks": 137760,
		  "time": 111.096552,
		  "velocity": 0.7480314960629921
		},
		{
		  "duration": 0.19354799999999273,
		  "durationTicks": 240,
		  "midi": 34,
		  "name": "A#1",
		  "ticks": 138240,
		  "time": 111.483648,
		  "velocity": 0.7480314960629921
		},
		{
		  "duration": 0.19354800000000694,
		  "durationTicks": 240,
		  "midi": 34,
		  "name": "A#1",
		  "ticks": 138480,
		  "time": 111.677196,
		  "velocity": 0.7480314960629921
		},
		{
		  "duration": 0.19354799999999273,
		  "durationTicks": 240,
		  "midi": 34,
		  "name": "A#1",
		  "ticks": 138720,
		  "time": 111.870744,
		  "velocity": 0.7480314960629921
		},
		{
		  "duration": 0.19354800000000694,
		  "durationTicks": 240,
		  "midi": 34,
		  "name": "A#1",
		  "ticks": 138960,
		  "time": 112.064292,
		  "velocity": 0.7480314960629921
		},
		{
		  "duration": 0.19354799999999273,
		  "durationTicks": 240,
		  "midi": 34,
		  "name": "A#1",
		  "ticks": 139200,
		  "time": 112.25784,
		  "velocity": 0.7480314960629921
		},
		{
		  "duration": 0.19354800000000694,
		  "durationTicks": 240,
		  "midi": 34,
		  "name": "A#1",
		  "ticks": 139440,
		  "time": 112.451388,
		  "velocity": 0.7480314960629921
		},
		{
		  "duration": 0.19354799999999273,
		  "durationTicks": 240,
		  "midi": 34,
		  "name": "A#1",
		  "ticks": 139680,
		  "time": 112.644936,
		  "velocity": 0.7480314960629921
		},
		{
		  "duration": 0.19354800000000694,
		  "durationTicks": 240,
		  "midi": 34,
		  "name": "A#1",
		  "ticks": 139920,
		  "time": 112.838484,
		  "velocity": 0.7480314960629921
		},
		{
		  "duration": 0.19354799999999273,
		  "durationTicks": 240,
		  "midi": 32,
		  "name": "G#1",
		  "ticks": 140160,
		  "time": 113.032032,
		  "velocity": 0.7480314960629921
		},
		{
		  "duration": 0.19354800000000694,
		  "durationTicks": 240,
		  "midi": 32,
		  "name": "G#1",
		  "ticks": 140400,
		  "time": 113.22558,
		  "velocity": 0.7480314960629921
		},
		{
		  "duration": 0.19354799999999273,
		  "durationTicks": 240,
		  "midi": 32,
		  "name": "G#1",
		  "ticks": 140640,
		  "time": 113.419128,
		  "velocity": 0.7480314960629921
		},
		{
		  "duration": 0.19354800000000694,
		  "durationTicks": 240,
		  "midi": 32,
		  "name": "G#1",
		  "ticks": 140880,
		  "time": 113.612676,
		  "velocity": 0.7480314960629921
		},
		{
		  "duration": 0.19354799999999273,
		  "durationTicks": 240,
		  "midi": 32,
		  "name": "G#1",
		  "ticks": 141120,
		  "time": 113.806224,
		  "velocity": 0.7480314960629921
		},
		{
		  "duration": 0.19354800000000694,
		  "durationTicks": 240,
		  "midi": 32,
		  "name": "G#1",
		  "ticks": 141360,
		  "time": 113.999772,
		  "velocity": 0.7480314960629921
		},
		{
		  "duration": 0.19354799999999273,
		  "durationTicks": 240,
		  "midi": 32,
		  "name": "G#1",
		  "ticks": 141600,
		  "time": 114.19332,
		  "velocity": 0.7480314960629921
		},
		{
		  "duration": 0.19354800000000694,
		  "durationTicks": 240,
		  "midi": 32,
		  "name": "G#1",
		  "ticks": 141840,
		  "time": 114.38686799999999,
		  "velocity": 0.7480314960629921
		},
		{
		  "duration": 0.19354799999999273,
		  "durationTicks": 240,
		  "midi": 29,
		  "name": "F1",
		  "ticks": 142080,
		  "time": 114.580416,
		  "velocity": 0.7480314960629921
		},
		{
		  "duration": 0.19354800000000694,
		  "durationTicks": 240,
		  "midi": 29,
		  "name": "F1",
		  "ticks": 142320,
		  "time": 114.77396399999999,
		  "velocity": 0.7480314960629921
		},
		{
		  "duration": 0.19354799999999273,
		  "durationTicks": 240,
		  "midi": 29,
		  "name": "F1",
		  "ticks": 142560,
		  "time": 114.967512,
		  "velocity": 0.7480314960629921
		},
		{
		  "duration": 0.19354800000000694,
		  "durationTicks": 240,
		  "midi": 29,
		  "name": "F1",
		  "ticks": 142800,
		  "time": 115.16105999999999,
		  "velocity": 0.7480314960629921
		},
		{
		  "duration": 0.19354799999999273,
		  "durationTicks": 240,
		  "midi": 29,
		  "name": "F1",
		  "ticks": 143040,
		  "time": 115.354608,
		  "velocity": 0.7480314960629921
		},
		{
		  "duration": 0.19354800000000694,
		  "durationTicks": 240,
		  "midi": 29,
		  "name": "F1",
		  "ticks": 143280,
		  "time": 115.54815599999999,
		  "velocity": 0.7480314960629921
		},
		{
		  "duration": 0.19354800000000694,
		  "durationTicks": 240,
		  "midi": 29,
		  "name": "F1",
		  "ticks": 143520,
		  "time": 115.741704,
		  "velocity": 0.7480314960629921
		},
		{
		  "duration": 0.19354799999999273,
		  "durationTicks": 240,
		  "midi": 32,
		  "name": "G#1",
		  "ticks": 143760,
		  "time": 115.935252,
		  "velocity": 0.7480314960629921
		},
		{
		  "duration": 0.19354800000000694,
		  "durationTicks": 240,
		  "midi": 32,
		  "name": "G#1",
		  "ticks": 144000,
		  "time": 116.1288,
		  "velocity": 0.7480314960629921
		},
		{
		  "duration": 0.19354799999999273,
		  "durationTicks": 240,
		  "midi": 32,
		  "name": "G#1",
		  "ticks": 144240,
		  "time": 116.322348,
		  "velocity": 0.7480314960629921
		},
		{
		  "duration": 0.19354800000000694,
		  "durationTicks": 240,
		  "midi": 34,
		  "name": "A#1",
		  "ticks": 144480,
		  "time": 116.515896,
		  "velocity": 0.7480314960629921
		},
		{
		  "duration": 0.19354799999999273,
		  "durationTicks": 240,
		  "midi": 34,
		  "name": "A#1",
		  "ticks": 144720,
		  "time": 116.709444,
		  "velocity": 0.7480314960629921
		},
		{
		  "duration": 0.19354800000000694,
		  "durationTicks": 240,
		  "midi": 34,
		  "name": "A#1",
		  "ticks": 144960,
		  "time": 116.902992,
		  "velocity": 0.7480314960629921
		},
		{
		  "duration": 0.19354799999999273,
		  "durationTicks": 240,
		  "midi": 32,
		  "name": "G#1",
		  "ticks": 145200,
		  "time": 117.09654,
		  "velocity": 0.7480314960629921
		},
		{
		  "duration": 0.19354800000000694,
		  "durationTicks": 240,
		  "midi": 32,
		  "name": "G#1",
		  "ticks": 145440,
		  "time": 117.290088,
		  "velocity": 0.7480314960629921
		},
		{
		  "duration": 0.19354799999999273,
		  "durationTicks": 240,
		  "midi": 32,
		  "name": "G#1",
		  "ticks": 145680,
		  "time": 117.483636,
		  "velocity": 0.7480314960629921
		},
		{
		  "duration": 0.19354800000000694,
		  "durationTicks": 240,
		  "midi": 34,
		  "name": "A#1",
		  "ticks": 145920,
		  "time": 117.677184,
		  "velocity": 0.7480314960629921
		},
		{
		  "duration": 0.19354799999999273,
		  "durationTicks": 240,
		  "midi": 34,
		  "name": "A#1",
		  "ticks": 146160,
		  "time": 117.870732,
		  "velocity": 0.7480314960629921
		},
		{
		  "duration": 0.19354800000000694,
		  "durationTicks": 240,
		  "midi": 34,
		  "name": "A#1",
		  "ticks": 146400,
		  "time": 118.06428,
		  "velocity": 0.7480314960629921
		},
		{
		  "duration": 0.07258050000000082,
		  "durationTicks": 90,
		  "midi": 34,
		  "name": "A#1",
		  "ticks": 149040,
		  "time": 120.193308,
		  "velocity": 0.5984251968503937
		},
		{
		  "duration": 0.07258050000000082,
		  "durationTicks": 90,
		  "midi": 34,
		  "name": "A#1",
		  "ticks": 149160,
		  "time": 120.290082,
		  "velocity": 0.5984251968503937
		},
		{
		  "duration": 0.19354800000000694,
		  "durationTicks": 240,
		  "midi": 34,
		  "name": "A#1",
		  "ticks": 149280,
		  "time": 120.386856,
		  "velocity": 0.7480314960629921
		},
		{
		  "duration": 0.19354799999999273,
		  "durationTicks": 240,
		  "midi": 34,
		  "name": "A#1",
		  "ticks": 149520,
		  "time": 120.580404,
		  "velocity": 0.7480314960629921
		},
		{
		  "duration": 0.19354800000000694,
		  "durationTicks": 240,
		  "midi": 30,
		  "name": "F#1",
		  "ticks": 149760,
		  "time": 120.773952,
		  "velocity": 0.7480314960629921
		},
		{
		  "duration": 0.19354799999999273,
		  "durationTicks": 240,
		  "midi": 30,
		  "name": "F#1",
		  "ticks": 150000,
		  "time": 120.9675,
		  "velocity": 0.7480314960629921
		},
		{
		  "duration": 0.19354800000000694,
		  "durationTicks": 240,
		  "midi": 30,
		  "name": "F#1",
		  "ticks": 150240,
		  "time": 121.161048,
		  "velocity": 0.7480314960629921
		},
		{
		  "duration": 0.09677399999999636,
		  "durationTicks": 120,
		  "midi": 30,
		  "name": "F#1",
		  "ticks": 152400,
		  "time": 122.90298,
		  "velocity": 0.7480314960629921
		},
		{
		  "duration": 0.09677399999999636,
		  "durationTicks": 120,
		  "midi": 30,
		  "name": "F#1",
		  "ticks": 152520,
		  "time": 122.999754,
		  "velocity": 0.7480314960629921
		},
		{
		  "duration": 0.09677400000001057,
		  "durationTicks": 120,
		  "midi": 30,
		  "name": "F#1",
		  "ticks": 152640,
		  "time": 123.09652799999999,
		  "velocity": 0.7480314960629921
		},
		{
		  "duration": 0.09677399999999636,
		  "durationTicks": 120,
		  "midi": 30,
		  "name": "F#1",
		  "ticks": 152880,
		  "time": 123.290076,
		  "velocity": 0.7480314960629921
		},
		{
		  "duration": 0.09677399999999636,
		  "durationTicks": 120,
		  "midi": 30,
		  "name": "F#1",
		  "ticks": 153000,
		  "time": 123.38685,
		  "velocity": 0.7480314960629921
		},
		{
		  "duration": 0.19354799999999273,
		  "durationTicks": 240,
		  "midi": 34,
		  "name": "A#1",
		  "ticks": 153600,
		  "time": 123.87072,
		  "velocity": 0.7480314960629921
		},
		{
		  "duration": 0.19354800000000694,
		  "durationTicks": 240,
		  "midi": 34,
		  "name": "A#1",
		  "ticks": 153840,
		  "time": 124.064268,
		  "velocity": 0.7480314960629921
		},
		{
		  "duration": 0.19354799999999273,
		  "durationTicks": 240,
		  "midi": 34,
		  "name": "A#1",
		  "ticks": 154080,
		  "time": 124.257816,
		  "velocity": 0.7480314960629921
		},
		{
		  "duration": 0.19354800000000694,
		  "durationTicks": 240,
		  "midi": 34,
		  "name": "A#1",
		  "ticks": 154320,
		  "time": 124.451364,
		  "velocity": 0.7480314960629921
		},
		{
		  "duration": 0.19354799999999273,
		  "durationTicks": 240,
		  "midi": 34,
		  "name": "A#1",
		  "ticks": 154560,
		  "time": 124.644912,
		  "velocity": 0.7480314960629921
		},
		{
		  "duration": 0.19354800000000694,
		  "durationTicks": 240,
		  "midi": 34,
		  "name": "A#1",
		  "ticks": 154800,
		  "time": 124.83846,
		  "velocity": 0.7480314960629921
		},
		{
		  "duration": 0.19354799999999273,
		  "durationTicks": 240,
		  "midi": 34,
		  "name": "A#1",
		  "ticks": 155040,
		  "time": 125.032008,
		  "velocity": 0.7480314960629921
		},
		{
		  "duration": 0.19354800000000694,
		  "durationTicks": 240,
		  "midi": 34,
		  "name": "A#1",
		  "ticks": 155280,
		  "time": 125.225556,
		  "velocity": 0.7480314960629921
		},
		{
		  "duration": 0.19354799999999273,
		  "durationTicks": 240,
		  "midi": 32,
		  "name": "G#1",
		  "ticks": 155520,
		  "time": 125.419104,
		  "velocity": 0.7480314960629921
		},
		{
		  "duration": 0.19354800000000694,
		  "durationTicks": 240,
		  "midi": 32,
		  "name": "G#1",
		  "ticks": 155760,
		  "time": 125.612652,
		  "velocity": 0.7480314960629921
		},
		{
		  "duration": 0.19354799999999273,
		  "durationTicks": 240,
		  "midi": 32,
		  "name": "G#1",
		  "ticks": 156000,
		  "time": 125.8062,
		  "velocity": 0.7480314960629921
		},
		{
		  "duration": 0.19354800000000694,
		  "durationTicks": 240,
		  "midi": 32,
		  "name": "G#1",
		  "ticks": 156240,
		  "time": 125.999748,
		  "velocity": 0.7480314960629921
		},
		{
		  "duration": 0.19354799999999273,
		  "durationTicks": 240,
		  "midi": 32,
		  "name": "G#1",
		  "ticks": 156480,
		  "time": 126.193296,
		  "velocity": 0.7480314960629921
		},
		{
		  "duration": 0.19354800000000694,
		  "durationTicks": 240,
		  "midi": 32,
		  "name": "G#1",
		  "ticks": 156720,
		  "time": 126.386844,
		  "velocity": 0.7480314960629921
		},
		{
		  "duration": 0.19354799999999273,
		  "durationTicks": 240,
		  "midi": 32,
		  "name": "G#1",
		  "ticks": 156960,
		  "time": 126.580392,
		  "velocity": 0.7480314960629921
		},
		{
		  "duration": 0.19354800000000694,
		  "durationTicks": 240,
		  "midi": 32,
		  "name": "G#1",
		  "ticks": 157200,
		  "time": 126.77394,
		  "velocity": 0.7480314960629921
		},
		{
		  "duration": 0.19354799999999273,
		  "durationTicks": 240,
		  "midi": 29,
		  "name": "F1",
		  "ticks": 157440,
		  "time": 126.967488,
		  "velocity": 0.7480314960629921
		},
		{
		  "duration": 0.19354800000000694,
		  "durationTicks": 240,
		  "midi": 29,
		  "name": "F1",
		  "ticks": 157680,
		  "time": 127.161036,
		  "velocity": 0.7480314960629921
		},
		{
		  "duration": 0.19354799999999273,
		  "durationTicks": 240,
		  "midi": 29,
		  "name": "F1",
		  "ticks": 157920,
		  "time": 127.354584,
		  "velocity": 0.7480314960629921
		},
		{
		  "duration": 0.19354800000000694,
		  "durationTicks": 240,
		  "midi": 29,
		  "name": "F1",
		  "ticks": 158160,
		  "time": 127.548132,
		  "velocity": 0.7480314960629921
		},
		{
		  "duration": 0.19354799999999273,
		  "durationTicks": 240,
		  "midi": 29,
		  "name": "F1",
		  "ticks": 158400,
		  "time": 127.74168,
		  "velocity": 0.7480314960629921
		},
		{
		  "duration": 0.19354799999999273,
		  "durationTicks": 240,
		  "midi": 29,
		  "name": "F1",
		  "ticks": 158640,
		  "time": 127.935228,
		  "velocity": 0.7480314960629921
		},
		{
		  "duration": 0.19354800000002115,
		  "durationTicks": 240,
		  "midi": 29,
		  "name": "F1",
		  "ticks": 158880,
		  "time": 128.128776,
		  "velocity": 0.7480314960629921
		},
		{
		  "duration": 0.19354799999999273,
		  "durationTicks": 240,
		  "midi": 29,
		  "name": "F1",
		  "ticks": 159120,
		  "time": 128.322324,
		  "velocity": 0.7480314960629921
		},
		{
		  "duration": 0.19354799999999273,
		  "durationTicks": 240,
		  "midi": 34,
		  "name": "A#1",
		  "ticks": 159360,
		  "time": 128.515872,
		  "velocity": 0.7480314960629921
		},
		{
		  "duration": 0.19354800000002115,
		  "durationTicks": 240,
		  "midi": 34,
		  "name": "A#1",
		  "ticks": 159840,
		  "time": 128.902968,
		  "velocity": 0.7480314960629921
		},
		{
		  "duration": 0.19354799999999273,
		  "durationTicks": 240,
		  "midi": 34,
		  "name": "A#1",
		  "ticks": 160320,
		  "time": 129.290064,
		  "velocity": 0.7480314960629921
		},
		{
		  "duration": 0.19354800000002115,
		  "durationTicks": 240,
		  "midi": 34,
		  "name": "A#1",
		  "ticks": 160800,
		  "time": 129.67716,
		  "velocity": 0.7480314960629921
		},
		{
		  "duration": 0.19354799999999273,
		  "durationTicks": 240,
		  "midi": 32,
		  "name": "G#1",
		  "ticks": 161520,
		  "time": 130.257804,
		  "velocity": 0.7480314960629921
		},
		{
		  "duration": 0.19354800000002115,
		  "durationTicks": 240,
		  "midi": 32,
		  "name": "G#1",
		  "ticks": 161760,
		  "time": 130.45135199999999,
		  "velocity": 0.7480314960629921
		},
		{
		  "duration": 0.19354799999999273,
		  "durationTicks": 240,
		  "midi": 34,
		  "name": "A#1",
		  "ticks": 162000,
		  "time": 130.6449,
		  "velocity": 0.7480314960629921
		},
		{
		  "duration": 0.19354799999999273,
		  "durationTicks": 240,
		  "midi": 34,
		  "name": "A#1",
		  "ticks": 163200,
		  "time": 131.61264,
		  "velocity": 0.7480314960629921
		},
		{
		  "duration": 0.19354799999999273,
		  "durationTicks": 240,
		  "midi": 34,
		  "name": "A#1",
		  "ticks": 163440,
		  "time": 131.806188,
		  "velocity": 0.7480314960629921
		},
		{
		  "duration": 0.19354800000002115,
		  "durationTicks": 240,
		  "midi": 34,
		  "name": "A#1",
		  "ticks": 163680,
		  "time": 131.99973599999998,
		  "velocity": 0.7480314960629921
		},
		{
		  "duration": 0.19354799999999273,
		  "durationTicks": 240,
		  "midi": 34,
		  "name": "A#1",
		  "ticks": 163920,
		  "time": 132.193284,
		  "velocity": 0.7480314960629921
		},
		{
		  "duration": 0.19354799999999273,
		  "durationTicks": 240,
		  "midi": 34,
		  "name": "A#1",
		  "ticks": 164160,
		  "time": 132.386832,
		  "velocity": 0.7480314960629921
		},
		{
		  "duration": 0.19354800000002115,
		  "durationTicks": 240,
		  "midi": 34,
		  "name": "A#1",
		  "ticks": 164400,
		  "time": 132.58038,
		  "velocity": 0.7480314960629921
		},
		{
		  "duration": 0.19354799999999273,
		  "durationTicks": 240,
		  "midi": 34,
		  "name": "A#1",
		  "ticks": 164640,
		  "time": 132.773928,
		  "velocity": 0.7480314960629921
		},
		{
		  "duration": 0.19354799999999273,
		  "durationTicks": 240,
		  "midi": 34,
		  "name": "A#1",
		  "ticks": 164880,
		  "time": 132.967476,
		  "velocity": 0.7480314960629921
		},
		{
		  "duration": 0.19354799999999273,
		  "durationTicks": 240,
		  "midi": 34,
		  "name": "A#1",
		  "ticks": 165120,
		  "time": 133.161024,
		  "velocity": 0.7480314960629921
		},
		{
		  "duration": 0.19354800000002115,
		  "durationTicks": 240,
		  "midi": 34,
		  "name": "A#1",
		  "ticks": 165360,
		  "time": 133.354572,
		  "velocity": 0.7480314960629921
		},
		{
		  "duration": 0.19354799999999273,
		  "durationTicks": 240,
		  "midi": 34,
		  "name": "A#1",
		  "ticks": 165600,
		  "time": 133.54812,
		  "velocity": 0.7480314960629921
		},
		{
		  "duration": 0.19354799999999273,
		  "durationTicks": 240,
		  "midi": 34,
		  "name": "A#1",
		  "ticks": 165840,
		  "time": 133.741668,
		  "velocity": 0.7480314960629921
		},
		{
		  "duration": 0.19354799999999273,
		  "durationTicks": 240,
		  "midi": 34,
		  "name": "A#1",
		  "ticks": 166080,
		  "time": 133.935216,
		  "velocity": 0.7480314960629921
		},
		{
		  "duration": 0.19354800000002115,
		  "durationTicks": 240,
		  "midi": 34,
		  "name": "A#1",
		  "ticks": 166320,
		  "time": 134.128764,
		  "velocity": 0.7480314960629921
		},
		{
		  "duration": 0.19354799999999273,
		  "durationTicks": 240,
		  "midi": 34,
		  "name": "A#1",
		  "ticks": 166560,
		  "time": 134.322312,
		  "velocity": 0.7480314960629921
		},
		{
		  "duration": 0.19354799999999273,
		  "durationTicks": 240,
		  "midi": 34,
		  "name": "A#1",
		  "ticks": 166800,
		  "time": 134.51586,
		  "velocity": 0.7480314960629921
		},
		{
		  "duration": 0.19354799999999273,
		  "durationTicks": 240,
		  "midi": 32,
		  "name": "G#1",
		  "ticks": 167040,
		  "time": 134.709408,
		  "velocity": 0.7480314960629921
		},
		{
		  "duration": 0.19354800000002115,
		  "durationTicks": 240,
		  "midi": 32,
		  "name": "G#1",
		  "ticks": 167280,
		  "time": 134.902956,
		  "velocity": 0.7480314960629921
		},
		{
		  "duration": 0.19354799999999273,
		  "durationTicks": 240,
		  "midi": 32,
		  "name": "G#1",
		  "ticks": 167520,
		  "time": 135.096504,
		  "velocity": 0.7480314960629921
		},
		{
		  "duration": 0.19354799999999273,
		  "durationTicks": 240,
		  "midi": 32,
		  "name": "G#1",
		  "ticks": 167760,
		  "time": 135.290052,
		  "velocity": 0.7480314960629921
		},
		{
		  "duration": 0.19354799999999273,
		  "durationTicks": 240,
		  "midi": 32,
		  "name": "G#1",
		  "ticks": 168000,
		  "time": 135.4836,
		  "velocity": 0.7480314960629921
		},
		{
		  "duration": 0.19354800000002115,
		  "durationTicks": 240,
		  "midi": 32,
		  "name": "G#1",
		  "ticks": 168240,
		  "time": 135.677148,
		  "velocity": 0.7480314960629921
		},
		{
		  "duration": 0.19354799999999273,
		  "durationTicks": 240,
		  "midi": 32,
		  "name": "G#1",
		  "ticks": 168480,
		  "time": 135.870696,
		  "velocity": 0.7480314960629921
		},
		{
		  "duration": 0.19354799999999273,
		  "durationTicks": 240,
		  "midi": 32,
		  "name": "G#1",
		  "ticks": 168720,
		  "time": 136.064244,
		  "velocity": 0.7480314960629921
		},
		{
		  "duration": 0.19354799999999273,
		  "durationTicks": 240,
		  "midi": 34,
		  "name": "A#1",
		  "ticks": 168960,
		  "time": 136.257792,
		  "velocity": 0.7480314960629921
		},
		{
		  "duration": 0.19354800000002115,
		  "durationTicks": 240,
		  "midi": 34,
		  "name": "A#1",
		  "ticks": 169200,
		  "time": 136.45134,
		  "velocity": 0.7480314960629921
		},
		{
		  "duration": 0.19354799999999273,
		  "durationTicks": 240,
		  "midi": 34,
		  "name": "A#1",
		  "ticks": 169440,
		  "time": 136.644888,
		  "velocity": 0.7480314960629921
		},
		{
		  "duration": 0.19354799999999273,
		  "durationTicks": 240,
		  "midi": 34,
		  "name": "A#1",
		  "ticks": 169680,
		  "time": 136.838436,
		  "velocity": 0.7480314960629921
		},
		{
		  "duration": 0.19354799999999273,
		  "durationTicks": 240,
		  "midi": 34,
		  "name": "A#1",
		  "ticks": 169920,
		  "time": 137.031984,
		  "velocity": 0.7480314960629921
		},
		{
		  "duration": 0.19354800000002115,
		  "durationTicks": 240,
		  "midi": 34,
		  "name": "A#1",
		  "ticks": 170160,
		  "time": 137.225532,
		  "velocity": 0.7480314960629921
		},
		{
		  "duration": 0.19354799999999273,
		  "durationTicks": 240,
		  "midi": 34,
		  "name": "A#1",
		  "ticks": 170400,
		  "time": 137.41908,
		  "velocity": 0.7480314960629921
		},
		{
		  "duration": 0.19354799999999273,
		  "durationTicks": 240,
		  "midi": 34,
		  "name": "A#1",
		  "ticks": 170640,
		  "time": 137.612628,
		  "velocity": 0.7480314960629921
		},
		{
		  "duration": 0.19354799999999273,
		  "durationTicks": 240,
		  "midi": 32,
		  "name": "G#1",
		  "ticks": 170880,
		  "time": 137.806176,
		  "velocity": 0.7480314960629921
		},
		{
		  "duration": 0.19354800000002115,
		  "durationTicks": 240,
		  "midi": 32,
		  "name": "G#1",
		  "ticks": 171120,
		  "time": 137.999724,
		  "velocity": 0.7480314960629921
		},
		{
		  "duration": 0.19354799999999273,
		  "durationTicks": 240,
		  "midi": 32,
		  "name": "G#1",
		  "ticks": 171360,
		  "time": 138.193272,
		  "velocity": 0.7480314960629921
		},
		{
		  "duration": 0.19354799999999273,
		  "durationTicks": 240,
		  "midi": 32,
		  "name": "G#1",
		  "ticks": 171600,
		  "time": 138.38682,
		  "velocity": 0.7480314960629921
		},
		{
		  "duration": 0.19354799999999273,
		  "durationTicks": 240,
		  "midi": 32,
		  "name": "G#1",
		  "ticks": 171840,
		  "time": 138.580368,
		  "velocity": 0.7480314960629921
		},
		{
		  "duration": 0.19354800000002115,
		  "durationTicks": 240,
		  "midi": 32,
		  "name": "G#1",
		  "ticks": 172080,
		  "time": 138.77391599999999,
		  "velocity": 0.7480314960629921
		},
		{
		  "duration": 0.19354799999999273,
		  "durationTicks": 240,
		  "midi": 32,
		  "name": "G#1",
		  "ticks": 172320,
		  "time": 138.967464,
		  "velocity": 0.7480314960629921
		},
		{
		  "duration": 0.19354799999999273,
		  "durationTicks": 240,
		  "midi": 32,
		  "name": "G#1",
		  "ticks": 172560,
		  "time": 139.161012,
		  "velocity": 0.7480314960629921
		},
		{
		  "duration": 0.19354799999999273,
		  "durationTicks": 240,
		  "midi": 30,
		  "name": "F#1",
		  "ticks": 172800,
		  "time": 139.35456,
		  "velocity": 0.7480314960629921
		},
		{
		  "duration": 0.19354800000002115,
		  "durationTicks": 240,
		  "midi": 30,
		  "name": "F#1",
		  "ticks": 173040,
		  "time": 139.54810799999998,
		  "velocity": 0.7480314960629921
		},
		{
		  "duration": 0.19354799999999273,
		  "durationTicks": 240,
		  "midi": 30,
		  "name": "F#1",
		  "ticks": 173280,
		  "time": 139.741656,
		  "velocity": 0.7480314960629921
		},
		{
		  "duration": 0.19354799999999273,
		  "durationTicks": 240,
		  "midi": 30,
		  "name": "F#1",
		  "ticks": 173520,
		  "time": 139.935204,
		  "velocity": 0.7480314960629921
		},
		{
		  "duration": 0.19354799999999273,
		  "durationTicks": 240,
		  "midi": 30,
		  "name": "F#1",
		  "ticks": 173760,
		  "time": 140.128752,
		  "velocity": 0.7480314960629921
		},
		{
		  "duration": 0.19354800000002115,
		  "durationTicks": 240,
		  "midi": 30,
		  "name": "F#1",
		  "ticks": 174000,
		  "time": 140.32229999999998,
		  "velocity": 0.7480314960629921
		},
		{
		  "duration": 0.19354799999999273,
		  "durationTicks": 240,
		  "midi": 30,
		  "name": "F#1",
		  "ticks": 174240,
		  "time": 140.515848,
		  "velocity": 0.7480314960629921
		},
		{
		  "duration": 0.19354799999999273,
		  "durationTicks": 240,
		  "midi": 30,
		  "name": "F#1",
		  "ticks": 174480,
		  "time": 140.709396,
		  "velocity": 0.7480314960629921
		},
		{
		  "duration": 0.19354800000002115,
		  "durationTicks": 240,
		  "midi": 29,
		  "name": "F1",
		  "ticks": 174720,
		  "time": 140.902944,
		  "velocity": 0.7480314960629921
		},
		{
		  "duration": 0.19354799999999273,
		  "durationTicks": 240,
		  "midi": 29,
		  "name": "F1",
		  "ticks": 174960,
		  "time": 141.096492,
		  "velocity": 0.7480314960629921
		},
		{
		  "duration": 0.19354799999999273,
		  "durationTicks": 240,
		  "midi": 29,
		  "name": "F1",
		  "ticks": 175200,
		  "time": 141.29004,
		  "velocity": 0.7480314960629921
		},
		{
		  "duration": 0.19354799999999273,
		  "durationTicks": 240,
		  "midi": 29,
		  "name": "F1",
		  "ticks": 175440,
		  "time": 141.483588,
		  "velocity": 0.7480314960629921
		},
		{
		  "duration": 0.19354800000002115,
		  "durationTicks": 240,
		  "midi": 29,
		  "name": "F1",
		  "ticks": 175680,
		  "time": 141.677136,
		  "velocity": 0.7480314960629921
		},
		{
		  "duration": 0.19354799999999273,
		  "durationTicks": 240,
		  "midi": 29,
		  "name": "F1",
		  "ticks": 175920,
		  "time": 141.870684,
		  "velocity": 0.7480314960629921
		},
		{
		  "duration": 0.19354799999999273,
		  "durationTicks": 240,
		  "midi": 29,
		  "name": "F1",
		  "ticks": 176160,
		  "time": 142.064232,
		  "velocity": 0.7480314960629921
		},
		{
		  "duration": 0.19354799999999273,
		  "durationTicks": 240,
		  "midi": 29,
		  "name": "F1",
		  "ticks": 176400,
		  "time": 142.25778,
		  "velocity": 0.7480314960629921
		},
		{
		  "duration": 0.19354800000002115,
		  "durationTicks": 240,
		  "midi": 34,
		  "name": "A#1",
		  "ticks": 176640,
		  "time": 142.451328,
		  "velocity": 0.7480314960629921
		},
		{
		  "duration": 0.19354799999999273,
		  "durationTicks": 240,
		  "midi": 34,
		  "name": "A#1",
		  "ticks": 176880,
		  "time": 142.644876,
		  "velocity": 0.7480314960629921
		},
		{
		  "duration": 0.19354799999999273,
		  "durationTicks": 240,
		  "midi": 34,
		  "name": "A#1",
		  "ticks": 177120,
		  "time": 142.838424,
		  "velocity": 0.7480314960629921
		},
		{
		  "duration": 0.19354799999999273,
		  "durationTicks": 240,
		  "midi": 34,
		  "name": "A#1",
		  "ticks": 177360,
		  "time": 143.031972,
		  "velocity": 0.7480314960629921
		},
		{
		  "duration": 0.19354800000002115,
		  "durationTicks": 240,
		  "midi": 34,
		  "name": "A#1",
		  "ticks": 177600,
		  "time": 143.22552,
		  "velocity": 0.7480314960629921
		},
		{
		  "duration": 0.19354799999999273,
		  "durationTicks": 240,
		  "midi": 32,
		  "name": "G#1",
		  "ticks": 177840,
		  "time": 143.419068,
		  "velocity": 0.7480314960629921
		},
		{
		  "duration": 0.19354799999999273,
		  "durationTicks": 240,
		  "midi": 32,
		  "name": "G#1",
		  "ticks": 178080,
		  "time": 143.612616,
		  "velocity": 0.7480314960629921
		},
		{
		  "duration": 0.19354799999999273,
		  "durationTicks": 240,
		  "midi": 32,
		  "name": "G#1",
		  "ticks": 178320,
		  "time": 143.806164,
		  "velocity": 0.7480314960629921
		},
		{
		  "duration": 0.19354800000002115,
		  "durationTicks": 240,
		  "midi": 34,
		  "name": "A#1",
		  "ticks": 178560,
		  "time": 143.999712,
		  "velocity": 0.7480314960629921
		},
		{
		  "duration": 0.19354799999999273,
		  "durationTicks": 240,
		  "midi": 34,
		  "name": "A#1",
		  "ticks": 178800,
		  "time": 144.19326,
		  "velocity": 0.7480314960629921
		},
		{
		  "duration": 0.19354799999999273,
		  "durationTicks": 240,
		  "midi": 34,
		  "name": "A#1",
		  "ticks": 179040,
		  "time": 144.386808,
		  "velocity": 0.7480314960629921
		},
		{
		  "duration": 0.19354799999999273,
		  "durationTicks": 240,
		  "midi": 34,
		  "name": "A#1",
		  "ticks": 179280,
		  "time": 144.580356,
		  "velocity": 0.7480314960629921
		},
		{
		  "duration": 0.19354800000002115,
		  "durationTicks": 240,
		  "midi": 34,
		  "name": "A#1",
		  "ticks": 179520,
		  "time": 144.773904,
		  "velocity": 0.7480314960629921
		},
		{
		  "duration": 0.19354799999999273,
		  "durationTicks": 240,
		  "midi": 34,
		  "name": "A#1",
		  "ticks": 179760,
		  "time": 144.967452,
		  "velocity": 0.7480314960629921
		},
		{
		  "duration": 0.19354799999999273,
		  "durationTicks": 240,
		  "midi": 34,
		  "name": "A#1",
		  "ticks": 180000,
		  "time": 145.161,
		  "velocity": 0.7480314960629921
		},
		{
		  "duration": 0.19354799999999273,
		  "durationTicks": 240,
		  "midi": 34,
		  "name": "A#1",
		  "ticks": 180240,
		  "time": 145.354548,
		  "velocity": 0.7480314960629921
		},
		{
		  "duration": 0.19354800000002115,
		  "durationTicks": 240,
		  "midi": 34,
		  "name": "A#1",
		  "ticks": 180480,
		  "time": 145.548096,
		  "velocity": 0.7480314960629921
		},
		{
		  "duration": 0.19354799999999273,
		  "durationTicks": 240,
		  "midi": 34,
		  "name": "A#1",
		  "ticks": 180720,
		  "time": 145.741644,
		  "velocity": 0.7480314960629921
		},
		{
		  "duration": 0.19354799999999273,
		  "durationTicks": 240,
		  "midi": 34,
		  "name": "A#1",
		  "ticks": 180960,
		  "time": 145.935192,
		  "velocity": 0.7480314960629921
		},
		{
		  "duration": 0.19354799999999273,
		  "durationTicks": 240,
		  "midi": 34,
		  "name": "A#1",
		  "ticks": 181200,
		  "time": 146.12874,
		  "velocity": 0.7480314960629921
		},
		{
		  "duration": 0.19354800000002115,
		  "durationTicks": 240,
		  "midi": 34,
		  "name": "A#1",
		  "ticks": 181440,
		  "time": 146.322288,
		  "velocity": 0.7480314960629921
		},
		{
		  "duration": 0.19354799999999273,
		  "durationTicks": 240,
		  "midi": 34,
		  "name": "A#1",
		  "ticks": 181680,
		  "time": 146.515836,
		  "velocity": 0.7480314960629921
		},
		{
		  "duration": 0.19354799999999273,
		  "durationTicks": 240,
		  "midi": 34,
		  "name": "A#1",
		  "ticks": 181920,
		  "time": 146.709384,
		  "velocity": 0.7480314960629921
		},
		{
		  "duration": 0.19354799999999273,
		  "durationTicks": 240,
		  "midi": 34,
		  "name": "A#1",
		  "ticks": 182160,
		  "time": 146.902932,
		  "velocity": 0.7480314960629921
		},
		{
		  "duration": 0.19354800000002115,
		  "durationTicks": 240,
		  "midi": 32,
		  "name": "G#1",
		  "ticks": 182400,
		  "time": 147.09647999999999,
		  "velocity": 0.7480314960629921
		},
		{
		  "duration": 0.19354799999999273,
		  "durationTicks": 240,
		  "midi": 32,
		  "name": "G#1",
		  "ticks": 182640,
		  "time": 147.290028,
		  "velocity": 0.7480314960629921
		},
		{
		  "duration": 0.19354799999999273,
		  "durationTicks": 240,
		  "midi": 32,
		  "name": "G#1",
		  "ticks": 182880,
		  "time": 147.483576,
		  "velocity": 0.7480314960629921
		},
		{
		  "duration": 0.19354799999999273,
		  "durationTicks": 240,
		  "midi": 32,
		  "name": "G#1",
		  "ticks": 183120,
		  "time": 147.677124,
		  "velocity": 0.7480314960629921
		},
		{
		  "duration": 0.19354800000002115,
		  "durationTicks": 240,
		  "midi": 32,
		  "name": "G#1",
		  "ticks": 183360,
		  "time": 147.87067199999998,
		  "velocity": 0.7480314960629921
		},
		{
		  "duration": 0.19354799999999273,
		  "durationTicks": 240,
		  "midi": 32,
		  "name": "G#1",
		  "ticks": 183600,
		  "time": 148.06422,
		  "velocity": 0.7480314960629921
		},
		{
		  "duration": 0.19354799999999273,
		  "durationTicks": 240,
		  "midi": 32,
		  "name": "G#1",
		  "ticks": 183840,
		  "time": 148.257768,
		  "velocity": 0.7480314960629921
		},
		{
		  "duration": 0.19354799999999273,
		  "durationTicks": 240,
		  "midi": 32,
		  "name": "G#1",
		  "ticks": 184080,
		  "time": 148.451316,
		  "velocity": 0.7480314960629921
		},
		{
		  "duration": 0.19354800000002115,
		  "durationTicks": 240,
		  "midi": 34,
		  "name": "A#1",
		  "ticks": 184320,
		  "time": 148.64486399999998,
		  "velocity": 0.7480314960629921
		},
		{
		  "duration": 0.19354799999999273,
		  "durationTicks": 240,
		  "midi": 34,
		  "name": "A#1",
		  "ticks": 184560,
		  "time": 148.838412,
		  "velocity": 0.7480314960629921
		},
		{
		  "duration": 0.19354799999999273,
		  "durationTicks": 240,
		  "midi": 34,
		  "name": "A#1",
		  "ticks": 184800,
		  "time": 149.03196,
		  "velocity": 0.7480314960629921
		},
		{
		  "duration": 0.19354800000002115,
		  "durationTicks": 240,
		  "midi": 34,
		  "name": "A#1",
		  "ticks": 185040,
		  "time": 149.225508,
		  "velocity": 0.7480314960629921
		},
		{
		  "duration": 0.19354799999999273,
		  "durationTicks": 240,
		  "midi": 34,
		  "name": "A#1",
		  "ticks": 185280,
		  "time": 149.419056,
		  "velocity": 0.7480314960629921
		},
		{
		  "duration": 0.19354799999999273,
		  "durationTicks": 240,
		  "midi": 34,
		  "name": "A#1",
		  "ticks": 185520,
		  "time": 149.612604,
		  "velocity": 0.7480314960629921
		},
		{
		  "duration": 0.19354799999999273,
		  "durationTicks": 240,
		  "midi": 34,
		  "name": "A#1",
		  "ticks": 185760,
		  "time": 149.806152,
		  "velocity": 0.7480314960629921
		},
		{
		  "duration": 0.19354800000002115,
		  "durationTicks": 240,
		  "midi": 34,
		  "name": "A#1",
		  "ticks": 186000,
		  "time": 149.9997,
		  "velocity": 0.7480314960629921
		},
		{
		  "duration": 0.19354799999999273,
		  "durationTicks": 240,
		  "midi": 32,
		  "name": "G#1",
		  "ticks": 186240,
		  "time": 150.193248,
		  "velocity": 0.7480314960629921
		},
		{
		  "duration": 0.19354799999999273,
		  "durationTicks": 240,
		  "midi": 32,
		  "name": "G#1",
		  "ticks": 186480,
		  "time": 150.386796,
		  "velocity": 0.7480314960629921
		},
		{
		  "duration": 0.19354799999999273,
		  "durationTicks": 240,
		  "midi": 32,
		  "name": "G#1",
		  "ticks": 186720,
		  "time": 150.580344,
		  "velocity": 0.7480314960629921
		},
		{
		  "duration": 0.19354800000002115,
		  "durationTicks": 240,
		  "midi": 32,
		  "name": "G#1",
		  "ticks": 186960,
		  "time": 150.773892,
		  "velocity": 0.7480314960629921
		},
		{
		  "duration": 0.19354799999999273,
		  "durationTicks": 240,
		  "midi": 32,
		  "name": "G#1",
		  "ticks": 187200,
		  "time": 150.96744,
		  "velocity": 0.7480314960629921
		},
		{
		  "duration": 0.19354799999999273,
		  "durationTicks": 240,
		  "midi": 32,
		  "name": "G#1",
		  "ticks": 187440,
		  "time": 151.160988,
		  "velocity": 0.7480314960629921
		},
		{
		  "duration": 0.19354799999999273,
		  "durationTicks": 240,
		  "midi": 32,
		  "name": "G#1",
		  "ticks": 187680,
		  "time": 151.354536,
		  "velocity": 0.7480314960629921
		},
		{
		  "duration": 0.19354800000002115,
		  "durationTicks": 240,
		  "midi": 32,
		  "name": "G#1",
		  "ticks": 187920,
		  "time": 151.548084,
		  "velocity": 0.7480314960629921
		},
		{
		  "duration": 0.19354799999999273,
		  "durationTicks": 240,
		  "midi": 30,
		  "name": "F#1",
		  "ticks": 188160,
		  "time": 151.741632,
		  "velocity": 0.7480314960629921
		},
		{
		  "duration": 0.19354799999999273,
		  "durationTicks": 240,
		  "midi": 30,
		  "name": "F#1",
		  "ticks": 188400,
		  "time": 151.93518,
		  "velocity": 0.7480314960629921
		},
		{
		  "duration": 0.19354799999999273,
		  "durationTicks": 240,
		  "midi": 30,
		  "name": "F#1",
		  "ticks": 188640,
		  "time": 152.128728,
		  "velocity": 0.7480314960629921
		},
		{
		  "duration": 0.19354800000002115,
		  "durationTicks": 240,
		  "midi": 30,
		  "name": "F#1",
		  "ticks": 188880,
		  "time": 152.322276,
		  "velocity": 0.7480314960629921
		},
		{
		  "duration": 0.19354799999999273,
		  "durationTicks": 240,
		  "midi": 30,
		  "name": "F#1",
		  "ticks": 189120,
		  "time": 152.515824,
		  "velocity": 0.7480314960629921
		},
		{
		  "duration": 0.19354799999999273,
		  "durationTicks": 240,
		  "midi": 30,
		  "name": "F#1",
		  "ticks": 189360,
		  "time": 152.709372,
		  "velocity": 0.7480314960629921
		},
		{
		  "duration": 0.19354799999999273,
		  "durationTicks": 240,
		  "midi": 30,
		  "name": "F#1",
		  "ticks": 189600,
		  "time": 152.90292,
		  "velocity": 0.7480314960629921
		},
		{
		  "duration": 0.19354800000002115,
		  "durationTicks": 240,
		  "midi": 30,
		  "name": "F#1",
		  "ticks": 189840,
		  "time": 153.096468,
		  "velocity": 0.7480314960629921
		},
		{
		  "duration": 0.19354799999999273,
		  "durationTicks": 240,
		  "midi": 29,
		  "name": "F1",
		  "ticks": 190080,
		  "time": 153.290016,
		  "velocity": 0.7480314960629921
		},
		{
		  "duration": 0.19354799999999273,
		  "durationTicks": 240,
		  "midi": 29,
		  "name": "F1",
		  "ticks": 190320,
		  "time": 153.483564,
		  "velocity": 0.7480314960629921
		},
		{
		  "duration": 0.19354799999999273,
		  "durationTicks": 240,
		  "midi": 29,
		  "name": "F1",
		  "ticks": 190560,
		  "time": 153.677112,
		  "velocity": 0.7480314960629921
		},
		{
		  "duration": 0.19354800000002115,
		  "durationTicks": 240,
		  "midi": 29,
		  "name": "F1",
		  "ticks": 190800,
		  "time": 153.87066,
		  "velocity": 0.7480314960629921
		},
		{
		  "duration": 0.19354799999999273,
		  "durationTicks": 240,
		  "midi": 29,
		  "name": "F1",
		  "ticks": 191040,
		  "time": 154.064208,
		  "velocity": 0.7480314960629921
		},
		{
		  "duration": 0.19354799999999273,
		  "durationTicks": 240,
		  "midi": 29,
		  "name": "F1",
		  "ticks": 191280,
		  "time": 154.257756,
		  "velocity": 0.7480314960629921
		},
		{
		  "duration": 0.19354799999999273,
		  "durationTicks": 240,
		  "midi": 29,
		  "name": "F1",
		  "ticks": 191520,
		  "time": 154.451304,
		  "velocity": 0.7480314960629921
		},
		{
		  "duration": 0.19354800000002115,
		  "durationTicks": 240,
		  "midi": 29,
		  "name": "F1",
		  "ticks": 191760,
		  "time": 154.644852,
		  "velocity": 0.7480314960629921
		},
		{
		  "duration": 0.19354799999999273,
		  "durationTicks": 240,
		  "midi": 34,
		  "name": "A#1",
		  "ticks": 192000,
		  "time": 154.8384,
		  "velocity": 0.7480314960629921
		},
		{
		  "duration": 0.19354799999999273,
		  "durationTicks": 240,
		  "midi": 34,
		  "name": "A#1",
		  "ticks": 192240,
		  "time": 155.031948,
		  "velocity": 0.7480314960629921
		},
		{
		  "duration": 0.19354800000002115,
		  "durationTicks": 240,
		  "midi": 34,
		  "name": "A#1",
		  "ticks": 192720,
		  "time": 155.41904399999999,
		  "velocity": 0.7480314960629921
		},
		{
		  "duration": 0.19354799999999273,
		  "durationTicks": 240,
		  "midi": 34,
		  "name": "A#1",
		  "ticks": 192960,
		  "time": 155.612592,
		  "velocity": 0.7480314960629921
		},
		{
		  "duration": 0.19354799999999273,
		  "durationTicks": 240,
		  "midi": 34,
		  "name": "A#1",
		  "ticks": 193440,
		  "time": 155.999688,
		  "velocity": 0.7480314960629921
		},
		{
		  "duration": 0.19354800000002115,
		  "durationTicks": 240,
		  "midi": 34,
		  "name": "A#1",
		  "ticks": 193680,
		  "time": 156.19323599999998,
		  "velocity": 0.7480314960629921
		},
		{
		  "duration": 0.19354799999999273,
		  "durationTicks": 240,
		  "midi": 34,
		  "name": "A#1",
		  "ticks": 194160,
		  "time": 156.580332,
		  "velocity": 0.7480314960629921
		},
		{
		  "duration": 0.19354800000002115,
		  "durationTicks": 240,
		  "midi": 34,
		  "name": "A#1",
		  "ticks": 194400,
		  "time": 156.77388,
		  "velocity": 0.7480314960629921
		},
		{
		  "duration": 0.19354799999999273,
		  "durationTicks": 240,
		  "midi": 34,
		  "name": "A#1",
		  "ticks": 194880,
		  "time": 157.160976,
		  "velocity": 0.7480314960629921
		},
		{
		  "duration": 0.07258049999998661,
		  "durationTicks": 90,
		  "midi": 34,
		  "name": "A#1",
		  "ticks": 195120,
		  "time": 157.354524,
		  "velocity": 0.5984251968503937
		},
		{
		  "duration": 0.07258049999998661,
		  "durationTicks": 90,
		  "midi": 34,
		  "name": "A#1",
		  "ticks": 195240,
		  "time": 157.451298,
		  "velocity": 0.5984251968503937
		},
		{
		  "duration": 0.3870960000000139,
		  "durationTicks": 480,
		  "midi": 32,
		  "name": "G#1",
		  "ticks": 195360,
		  "time": 157.548072,
		  "velocity": 0.7480314960629921
		},
		{
		  "duration": 0.19354799999999273,
		  "durationTicks": 240,
		  "midi": 34,
		  "name": "A#1",
		  "ticks": 195840,
		  "time": 157.935168,
		  "velocity": 0.7480314960629921
		},
		{
		  "duration": 0.19354799999999273,
		  "durationTicks": 240,
		  "midi": 34,
		  "name": "A#1",
		  "ticks": 196080,
		  "time": 158.128716,
		  "velocity": 0.7480314960629921
		},
		{
		  "duration": 0.19354799999999273,
		  "durationTicks": 240,
		  "midi": 34,
		  "name": "A#1",
		  "ticks": 196560,
		  "time": 158.515812,
		  "velocity": 0.7480314960629921
		},
		{
		  "duration": 0.19354799999999273,
		  "durationTicks": 240,
		  "midi": 34,
		  "name": "A#1",
		  "ticks": 196800,
		  "time": 158.70936,
		  "velocity": 0.7480314960629921
		},
		{
		  "duration": 0.19354800000002115,
		  "durationTicks": 240,
		  "midi": 34,
		  "name": "A#1",
		  "ticks": 197280,
		  "time": 159.096456,
		  "velocity": 0.7480314960629921
		},
		{
		  "duration": 0.19354799999999273,
		  "durationTicks": 240,
		  "midi": 34,
		  "name": "A#1",
		  "ticks": 197520,
		  "time": 159.290004,
		  "velocity": 0.7480314960629921
		},
		{
		  "duration": 0.19354799999999273,
		  "durationTicks": 240,
		  "midi": 34,
		  "name": "A#1",
		  "ticks": 198000,
		  "time": 159.6771,
		  "velocity": 0.7480314960629921
		},
		{
		  "duration": 0.19354800000002115,
		  "durationTicks": 240,
		  "midi": 34,
		  "name": "A#1",
		  "ticks": 198240,
		  "time": 159.870648,
		  "velocity": 0.7480314960629921
		},
		{
		  "duration": 0.07258049999998661,
		  "durationTicks": 90,
		  "midi": 34,
		  "name": "A#1",
		  "ticks": 198480,
		  "time": 160.064196,
		  "velocity": 0.5984251968503937
		},
		{
		  "duration": 0.07258050000001504,
		  "durationTicks": 90,
		  "midi": 34,
		  "name": "A#1",
		  "ticks": 198600,
		  "time": 160.16097,
		  "velocity": 0.5984251968503937
		},
		{
		  "duration": 0.38709599999998545,
		  "durationTicks": 480,
		  "midi": 37,
		  "name": "C#2",
		  "ticks": 198720,
		  "time": 160.257744,
		  "velocity": 0.7480314960629921
		},
		{
		  "duration": 0.3870960000000139,
		  "durationTicks": 480,
		  "midi": 32,
		  "name": "G#1",
		  "ticks": 199200,
		  "time": 160.64484,
		  "velocity": 0.7480314960629921
		}
	  ]
	},
	{
	  "channel": 0,
	  "controlChanges": {
		"6": [
		  {
			"number": 6,
			"ticks": 0,
			"time": 0,
			"value": 0.09448818897637795
		  },
		  {
			"number": 6,
			"ticks": 0,
			"time": 0,
			"value": 0.5039370078740157
		  },
		  {
			"number": 6,
			"ticks": 0,
			"time": 0,
			"value": 0.5039370078740157
		  }
		],
		"38": [
		  {
			"number": 38,
			"ticks": 0,
			"time": 0,
			"value": 0
		  }
		],
		"100": [
		  {
			"number": 100,
			"ticks": 0,
			"time": 0,
			"value": 0
		  },
		  {
			"number": 100,
			"ticks": 0,
			"time": 0,
			"value": 0.007874015748031496
		  },
		  {
			"number": 100,
			"ticks": 0,
			"time": 0,
			"value": 1
		  },
		  {
			"number": 100,
			"ticks": 0,
			"time": 0,
			"value": 0.015748031496062992
		  },
		  {
			"number": 100,
			"ticks": 0,
			"time": 0,
			"value": 1
		  }
		],
		"101": [
		  {
			"number": 101,
			"ticks": 0,
			"time": 0,
			"value": 0
		  },
		  {
			"number": 101,
			"ticks": 0,
			"time": 0,
			"value": 0
		  },
		  {
			"number": 101,
			"ticks": 0,
			"time": 0,
			"value": 1
		  },
		  {
			"number": 101,
			"ticks": 0,
			"time": 0,
			"value": 0
		  },
		  {
			"number": 101,
			"ticks": 0,
			"time": 0,
			"value": 1
		  }
		]
	  },
	  "pitchBends": [
		{
		  "ticks": 0,
		  "time": 0,
		  "value": 0
		}
	  ],
	  "instrument": {
		"family": "piano",
		"number": 0,
		"name": "acoustic grand piano"
	  },
	  "name": "Rythm Guitar R",
	  "notes": [],
	  "endOfTrackTicks": 199680
	},
	{
	  "channel": 0,
	  "controlChanges": {
		"6": [
		  {
			"number": 6,
			"ticks": 0,
			"time": 0,
			"value": 0.09448818897637795
		  },
		  {
			"number": 6,
			"ticks": 0,
			"time": 0,
			"value": 0.5039370078740157
		  },
		  {
			"number": 6,
			"ticks": 0,
			"time": 0,
			"value": 0.5039370078740157
		  }
		],
		"38": [
		  {
			"number": 38,
			"ticks": 0,
			"time": 0,
			"value": 0
		  }
		],
		"100": [
		  {
			"number": 100,
			"ticks": 0,
			"time": 0,
			"value": 0
		  },
		  {
			"number": 100,
			"ticks": 0,
			"time": 0,
			"value": 0.007874015748031496
		  },
		  {
			"number": 100,
			"ticks": 0,
			"time": 0,
			"value": 1
		  },
		  {
			"number": 100,
			"ticks": 0,
			"time": 0,
			"value": 0.015748031496062992
		  },
		  {
			"number": 100,
			"ticks": 0,
			"time": 0,
			"value": 1
		  }
		],
		"101": [
		  {
			"number": 101,
			"ticks": 0,
			"time": 0,
			"value": 0
		  },
		  {
			"number": 101,
			"ticks": 0,
			"time": 0,
			"value": 0
		  },
		  {
			"number": 101,
			"ticks": 0,
			"time": 0,
			"value": 1
		  },
		  {
			"number": 101,
			"ticks": 0,
			"time": 0,
			"value": 0
		  },
		  {
			"number": 101,
			"ticks": 0,
			"time": 0,
			"value": 1
		  }
		]
	  },
	  "pitchBends": [
		{
		  "ticks": 0,
		  "time": 0,
		  "value": 0
		}
	  ],
	  "instrument": {
		"family": "piano",
		"number": 0,
		"name": "acoustic grand piano"
	  },
	  "name": "",
	  "notes": []
	},
	{
	  "channel": 0,
	  "controlChanges": {
		"0": [
		  {
			"number": 0,
			"ticks": 0,
			"time": 0,
			"value": 0
		  }
		],
		"7": [
		  {
			"number": 7,
			"ticks": 0,
			"time": 0,
			"value": 0.6929133858267716
		  },
		  {
			"number": 7,
			"ticks": 0,
			"time": 0,
			"value": 0.6929133858267716
		  },
		  {
			"number": 7,
			"ticks": 15360,
			"time": 12.387072,
			"value": 0.6929133858267716
		  },
		  {
			"number": 7,
			"ticks": 63360,
			"time": 51.096672,
			"value": 0.5039370078740157
		  },
		  {
			"number": 7,
			"ticks": 92160,
			"time": 74.32243199999999,
			"value": 0.6929133858267716
		  },
		  {
			"number": 7,
			"ticks": 99840,
			"time": 80.515968,
			"value": 0.6929133858267716
		  },
		  {
			"number": 7,
			"ticks": 115200,
			"time": 92.90304,
			"value": 0.6929133858267716
		  },
		  {
			"number": 7,
			"ticks": 163200,
			"time": 131.61264,
			"value": 0.5039370078740157
		  },
		  {
			"number": 7,
			"ticks": 192000,
			"time": 154.8384,
			"value": 0.6929133858267716
		  }
		],
		"10": [
		  {
			"number": 10,
			"ticks": 0,
			"time": 0,
			"value": 0
		  }
		],
		"91": [
		  {
			"number": 91,
			"ticks": 0,
			"time": 0,
			"value": 0
		  }
		],
		"92": [
		  {
			"number": 92,
			"ticks": 0,
			"time": 0,
			"value": 0
		  }
		],
		"93": [
		  {
			"number": 93,
			"ticks": 0,
			"time": 0,
			"value": 0
		  }
		],
		"95": [
		  {
			"number": 95,
			"ticks": 0,
			"time": 0,
			"value": 0
		  }
		]
	  },
	  "pitchBends": [],
	  "instrument": {
		"family": "guitar",
		"number": 29,
		"name": "overdriven guitar"
	  },
	  "name": "",
	  "notes": []
	},
	{
	  "channel": 8,
	  "controlChanges": {
		"0": [
		  {
			"number": 0,
			"ticks": 0,
			"time": 0,
			"value": 0
		  }
		],
		"7": [
		  {
			"number": 7,
			"ticks": 0,
			"time": 0,
			"value": 0.6929133858267716
		  },
		  {
			"number": 7,
			"ticks": 0,
			"time": 0,
			"value": 0.6929133858267716
		  },
		  {
			"number": 7,
			"ticks": 15360,
			"time": 12.387072,
			"value": 0.6929133858267716
		  },
		  {
			"number": 7,
			"ticks": 63360,
			"time": 51.096672,
			"value": 0.5039370078740157
		  },
		  {
			"number": 7,
			"ticks": 92160,
			"time": 74.32243199999999,
			"value": 0.6929133858267716
		  },
		  {
			"number": 7,
			"ticks": 99840,
			"time": 80.515968,
			"value": 0.6929133858267716
		  },
		  {
			"number": 7,
			"ticks": 115200,
			"time": 92.90304,
			"value": 0.6929133858267716
		  },
		  {
			"number": 7,
			"ticks": 163200,
			"time": 131.61264,
			"value": 0.5039370078740157
		  },
		  {
			"number": 7,
			"ticks": 192000,
			"time": 154.8384,
			"value": 0.6929133858267716
		  }
		],
		"10": [
		  {
			"number": 10,
			"ticks": 0,
			"time": 0,
			"value": 0
		  }
		],
		"91": [
		  {
			"number": 91,
			"ticks": 0,
			"time": 0,
			"value": 0
		  }
		],
		"92": [
		  {
			"number": 92,
			"ticks": 0,
			"time": 0,
			"value": 0
		  }
		],
		"93": [
		  {
			"number": 93,
			"ticks": 0,
			"time": 0,
			"value": 0
		  }
		],
		"95": [
		  {
			"number": 95,
			"ticks": 0,
			"time": 0,
			"value": 0
		  }
		]
	  },
	  "pitchBends": [],
	  "instrument": {
		"family": "guitar",
		"number": 29,
		"name": "overdriven guitar"
	  },
	  "name": "",
	  "notes": [
		{
		  "duration": 0.193548,
		  "durationTicks": 240,
		  "midi": 51,
		  "name": "D#3",
		  "ticks": 0,
		  "time": 0,
		  "velocity": 0.7480314960629921
		},
		{
		  "duration": 0.193548,
		  "durationTicks": 240,
		  "midi": 44,
		  "name": "G#2",
		  "ticks": 0,
		  "time": 0,
		  "velocity": 0.7480314960629921
		},
		{
		  "duration": 0.193548,
		  "durationTicks": 240,
		  "midi": 53,
		  "name": "F3",
		  "ticks": 240,
		  "time": 0.193548,
		  "velocity": 0.7480314960629921
		},
		{
		  "duration": 0.193548,
		  "durationTicks": 240,
		  "midi": 46,
		  "name": "A#2",
		  "ticks": 240,
		  "time": 0.193548,
		  "velocity": 0.7480314960629921
		},
		{
		  "duration": 0.19354800000000005,
		  "durationTicks": 240,
		  "midi": 53,
		  "name": "F3",
		  "ticks": 720,
		  "time": 0.5806439999999999,
		  "velocity": 0.7480314960629921
		},
		{
		  "duration": 0.19354800000000005,
		  "durationTicks": 240,
		  "midi": 46,
		  "name": "A#2",
		  "ticks": 720,
		  "time": 0.5806439999999999,
		  "velocity": 0.7480314960629921
		},
		{
		  "duration": 0.19354799999999983,
		  "durationTicks": 240,
		  "midi": 53,
		  "name": "F3",
		  "ticks": 1200,
		  "time": 0.96774,
		  "velocity": 0.7480314960629921
		},
		{
		  "duration": 0.19354799999999983,
		  "durationTicks": 240,
		  "midi": 46,
		  "name": "A#2",
		  "ticks": 1200,
		  "time": 0.96774,
		  "velocity": 0.7480314960629921
		},
		{
		  "duration": 0.19354800000000005,
		  "durationTicks": 240,
		  "midi": 53,
		  "name": "F3",
		  "ticks": 1680,
		  "time": 1.354836,
		  "velocity": 0.7480314960629921
		},
		{
		  "duration": 0.19354800000000005,
		  "durationTicks": 240,
		  "midi": 46,
		  "name": "A#2",
		  "ticks": 1680,
		  "time": 1.354836,
		  "velocity": 0.7480314960629921
		},
		{
		  "duration": 0.19354800000000005,
		  "durationTicks": 240,
		  "midi": 53,
		  "name": "F3",
		  "ticks": 1920,
		  "time": 1.548384,
		  "velocity": 0.7480314960629921
		},
		{
		  "duration": 0.19354800000000005,
		  "durationTicks": 240,
		  "midi": 46,
		  "name": "A#2",
		  "ticks": 1920,
		  "time": 1.548384,
		  "velocity": 0.7480314960629921
		},
		{
		  "duration": 0.19354800000000005,
		  "durationTicks": 240,
		  "midi": 54,
		  "name": "F#3",
		  "ticks": 2160,
		  "time": 1.741932,
		  "velocity": 0.7480314960629921
		},
		{
		  "duration": 0.19354800000000005,
		  "durationTicks": 240,
		  "midi": 46,
		  "name": "A#2",
		  "ticks": 2160,
		  "time": 1.741932,
		  "velocity": 0.7480314960629921
		},
		{
		  "duration": 0.19354799999999983,
		  "durationTicks": 240,
		  "midi": 54,
		  "name": "F#3",
		  "ticks": 2640,
		  "time": 2.129028,
		  "velocity": 0.7480314960629921
		},
		{
		  "duration": 0.19354799999999983,
		  "durationTicks": 240,
		  "midi": 46,
		  "name": "A#2",
		  "ticks": 2640,
		  "time": 2.129028,
		  "velocity": 0.7480314960629921
		},
		{
		  "duration": 0.19354799999999983,
		  "durationTicks": 240,
		  "midi": 53,
		  "name": "F3",
		  "ticks": 3120,
		  "time": 2.516124,
		  "velocity": 0.7480314960629921
		},
		{
		  "duration": 0.19354799999999983,
		  "durationTicks": 240,
		  "midi": 46,
		  "name": "A#2",
		  "ticks": 3120,
		  "time": 2.516124,
		  "velocity": 0.7480314960629921
		},
		{
		  "duration": 0.19354799999999983,
		  "durationTicks": 240,
		  "midi": 53,
		  "name": "F3",
		  "ticks": 3600,
		  "time": 2.90322,
		  "velocity": 0.7480314960629921
		},
		{
		  "duration": 0.19354799999999983,
		  "durationTicks": 240,
		  "midi": 46,
		  "name": "A#2",
		  "ticks": 3600,
		  "time": 2.90322,
		  "velocity": 0.7480314960629921
		},
		{
		  "duration": 0.19354799999999983,
		  "durationTicks": 240,
		  "midi": 49,
		  "name": "C#3",
		  "ticks": 3840,
		  "time": 3.096768,
		  "velocity": 0.7480314960629921
		},
		{
		  "duration": 0.19354799999999983,
		  "durationTicks": 240,
		  "midi": 42,
		  "name": "F#2",
		  "ticks": 3840,
		  "time": 3.096768,
		  "velocity": 0.7480314960629921
		},
		{
		  "duration": 0.19354800000000028,
		  "durationTicks": 240,
		  "midi": 49,
		  "name": "C#3",
		  "ticks": 4080,
		  "time": 3.290316,
		  "velocity": 0.7480314960629921
		},
		{
		  "duration": 0.19354800000000028,
		  "durationTicks": 240,
		  "midi": 42,
		  "name": "F#2",
		  "ticks": 4080,
		  "time": 3.290316,
		  "velocity": 0.7480314960629921
		},
		{
		  "duration": 0.19354800000000028,
		  "durationTicks": 240,
		  "midi": 49,
		  "name": "C#3",
		  "ticks": 4560,
		  "time": 3.677412,
		  "velocity": 0.7480314960629921
		},
		{
		  "duration": 0.19354800000000028,
		  "durationTicks": 240,
		  "midi": 42,
		  "name": "F#2",
		  "ticks": 4560,
		  "time": 3.677412,
		  "velocity": 0.7480314960629921
		},
		{
		  "duration": 0.19354799999999983,
		  "durationTicks": 240,
		  "midi": 49,
		  "name": "C#3",
		  "ticks": 5040,
		  "time": 4.064508,
		  "velocity": 0.7480314960629921
		},
		{
		  "duration": 0.19354799999999983,
		  "durationTicks": 240,
		  "midi": 42,
		  "name": "F#2",
		  "ticks": 5040,
		  "time": 4.064508,
		  "velocity": 0.7480314960629921
		},
		{
		  "duration": 0.19354799999999983,
		  "durationTicks": 240,
		  "midi": 49,
		  "name": "C#3",
		  "ticks": 5520,
		  "time": 4.451604,
		  "velocity": 0.7480314960629921
		},
		{
		  "duration": 0.19354799999999983,
		  "durationTicks": 240,
		  "midi": 42,
		  "name": "F#2",
		  "ticks": 5520,
		  "time": 4.451604,
		  "velocity": 0.7480314960629921
		},
		{
		  "duration": 0.19354800000000072,
		  "durationTicks": 240,
		  "midi": 56,
		  "name": "G#3",
		  "ticks": 5760,
		  "time": 4.6451519999999995,
		  "velocity": 0.7480314960629921
		},
		{
		  "duration": 0.19354800000000072,
		  "durationTicks": 240,
		  "midi": 49,
		  "name": "C#3",
		  "ticks": 5760,
		  "time": 4.6451519999999995,
		  "velocity": 0.7480314960629921
		},
		{
		  "duration": 0.19354799999999983,
		  "durationTicks": 240,
		  "midi": 56,
		  "name": "G#3",
		  "ticks": 6000,
		  "time": 4.8387,
		  "velocity": 0.7480314960629921
		},
		{
		  "duration": 0.19354799999999983,
		  "durationTicks": 240,
		  "midi": 49,
		  "name": "C#3",
		  "ticks": 6000,
		  "time": 4.8387,
		  "velocity": 0.7480314960629921
		},
		{
		  "duration": 0.19354799999999983,
		  "durationTicks": 240,
		  "midi": 56,
		  "name": "G#3",
		  "ticks": 6240,
		  "time": 5.032248,
		  "velocity": 0.7480314960629921
		},
		{
		  "duration": 0.19354799999999983,
		  "durationTicks": 240,
		  "midi": 49,
		  "name": "C#3",
		  "ticks": 6240,
		  "time": 5.032248,
		  "velocity": 0.7480314960629921
		},
		{
		  "duration": 0.19354799999999983,
		  "durationTicks": 240,
		  "midi": 51,
		  "name": "D#3",
		  "ticks": 6480,
		  "time": 5.225796,
		  "velocity": 0.7480314960629921
		},
		{
		  "duration": 0.19354799999999983,
		  "durationTicks": 240,
		  "midi": 44,
		  "name": "G#2",
		  "ticks": 6480,
		  "time": 5.225796,
		  "velocity": 0.7480314960629921
		},
		{
		  "duration": 0.19354799999999983,
		  "durationTicks": 240,
		  "midi": 51,
		  "name": "D#3",
		  "ticks": 6720,
		  "time": 5.419344,
		  "velocity": 0.7480314960629921
		},
		{
		  "duration": 0.19354799999999983,
		  "durationTicks": 240,
		  "midi": 44,
		  "name": "G#2",
		  "ticks": 6720,
		  "time": 5.419344,
		  "velocity": 0.7480314960629921
		},
		{
		  "duration": 0.19354800000000072,
		  "durationTicks": 240,
		  "midi": 51,
		  "name": "D#3",
		  "ticks": 6960,
		  "time": 5.6128919999999995,
		  "velocity": 0.7480314960629921
		},
		{
		  "duration": 0.19354800000000072,
		  "durationTicks": 240,
		  "midi": 44,
		  "name": "G#2",
		  "ticks": 6960,
		  "time": 5.6128919999999995,
		  "velocity": 0.7480314960629921
		},
		{
		  "duration": 0.19354799999999983,
		  "durationTicks": 240,
		  "midi": 51,
		  "name": "D#3",
		  "ticks": 7200,
		  "time": 5.80644,
		  "velocity": 0.7480314960629921
		},
		{
		  "duration": 0.19354799999999983,
		  "durationTicks": 240,
		  "midi": 44,
		  "name": "G#2",
		  "ticks": 7200,
		  "time": 5.80644,
		  "velocity": 0.7480314960629921
		},
		{
		  "duration": 0.19354799999999983,
		  "durationTicks": 240,
		  "midi": 51,
		  "name": "D#3",
		  "ticks": 7440,
		  "time": 5.999988,
		  "velocity": 0.7480314960629921
		},
		{
		  "duration": 0.19354799999999983,
		  "durationTicks": 240,
		  "midi": 44,
		  "name": "G#2",
		  "ticks": 7440,
		  "time": 5.999988,
		  "velocity": 0.7480314960629921
		},
		{
		  "duration": 0.19354799999999983,
		  "durationTicks": 240,
		  "midi": 51,
		  "name": "D#3",
		  "ticks": 7680,
		  "time": 6.193536,
		  "velocity": 0.7480314960629921
		},
		{
		  "duration": 0.19354799999999983,
		  "durationTicks": 240,
		  "midi": 44,
		  "name": "G#2",
		  "ticks": 7680,
		  "time": 6.193536,
		  "velocity": 0.7480314960629921
		},
		{
		  "duration": 0.19354799999999983,
		  "durationTicks": 240,
		  "midi": 53,
		  "name": "F3",
		  "ticks": 7920,
		  "time": 6.387084,
		  "velocity": 0.7480314960629921
		},
		{
		  "duration": 0.19354799999999983,
		  "durationTicks": 240,
		  "midi": 46,
		  "name": "A#2",
		  "ticks": 7920,
		  "time": 6.387084,
		  "velocity": 0.7480314960629921
		},
		{
		  "duration": 0.19354799999999983,
		  "durationTicks": 240,
		  "midi": 53,
		  "name": "F3",
		  "ticks": 8400,
		  "time": 6.77418,
		  "velocity": 0.7480314960629921
		},
		{
		  "duration": 0.19354799999999983,
		  "durationTicks": 240,
		  "midi": 46,
		  "name": "A#2",
		  "ticks": 8400,
		  "time": 6.77418,
		  "velocity": 0.7480314960629921
		},
		{
		  "duration": 0.19354799999999983,
		  "durationTicks": 240,
		  "midi": 53,
		  "name": "F3",
		  "ticks": 8880,
		  "time": 7.161276,
		  "velocity": 0.7480314960629921
		},
		{
		  "duration": 0.19354799999999983,
		  "durationTicks": 240,
		  "midi": 46,
		  "name": "A#2",
		  "ticks": 8880,
		  "time": 7.161276,
		  "velocity": 0.7480314960629921
		},
		{
		  "duration": 0.19354800000000072,
		  "durationTicks": 240,
		  "midi": 53,
		  "name": "F3",
		  "ticks": 9360,
		  "time": 7.548372,
		  "velocity": 0.7480314960629921
		},
		{
		  "duration": 0.19354800000000072,
		  "durationTicks": 240,
		  "midi": 46,
		  "name": "A#2",
		  "ticks": 9360,
		  "time": 7.548372,
		  "velocity": 0.7480314960629921
		},
		{
		  "duration": 0.19354799999999983,
		  "durationTicks": 240,
		  "midi": 53,
		  "name": "F3",
		  "ticks": 9600,
		  "time": 7.74192,
		  "velocity": 0.7480314960629921
		},
		{
		  "duration": 0.19354799999999983,
		  "durationTicks": 240,
		  "midi": 46,
		  "name": "A#2",
		  "ticks": 9600,
		  "time": 7.74192,
		  "velocity": 0.7480314960629921
		},
		{
		  "duration": 0.19354799999999983,
		  "durationTicks": 240,
		  "midi": 54,
		  "name": "F#3",
		  "ticks": 9840,
		  "time": 7.935468,
		  "velocity": 0.7480314960629921
		},
		{
		  "duration": 0.19354799999999983,
		  "durationTicks": 240,
		  "midi": 46,
		  "name": "A#2",
		  "ticks": 9840,
		  "time": 7.935468,
		  "velocity": 0.7480314960629921
		},
		{
		  "duration": 0.19354799999999983,
		  "durationTicks": 240,
		  "midi": 54,
		  "name": "F#3",
		  "ticks": 10320,
		  "time": 8.322564,
		  "velocity": 0.7480314960629921
		},
		{
		  "duration": 0.19354799999999983,
		  "durationTicks": 240,
		  "midi": 46,
		  "name": "A#2",
		  "ticks": 10320,
		  "time": 8.322564,
		  "velocity": 0.7480314960629921
		},
		{
		  "duration": 0.19354799999999983,
		  "durationTicks": 240,
		  "midi": 53,
		  "name": "F3",
		  "ticks": 10800,
		  "time": 8.70966,
		  "velocity": 0.7480314960629921
		},
		{
		  "duration": 0.19354799999999983,
		  "durationTicks": 240,
		  "midi": 46,
		  "name": "A#2",
		  "ticks": 10800,
		  "time": 8.70966,
		  "velocity": 0.7480314960629921
		},
		{
		  "duration": 0.19354799999999983,
		  "durationTicks": 240,
		  "midi": 53,
		  "name": "F3",
		  "ticks": 11280,
		  "time": 9.096756,
		  "velocity": 0.7480314960629921
		},
		{
		  "duration": 0.19354799999999983,
		  "durationTicks": 240,
		  "midi": 46,
		  "name": "A#2",
		  "ticks": 11280,
		  "time": 9.096756,
		  "velocity": 0.7480314960629921
		},
		{
		  "duration": 0.1935480000000016,
		  "durationTicks": 240,
		  "midi": 49,
		  "name": "C#3",
		  "ticks": 11520,
		  "time": 9.290303999999999,
		  "velocity": 0.7480314960629921
		},
		{
		  "duration": 0.1935480000000016,
		  "durationTicks": 240,
		  "midi": 42,
		  "name": "F#2",
		  "ticks": 11520,
		  "time": 9.290303999999999,
		  "velocity": 0.7480314960629921
		},
		{
		  "duration": 0.19354799999999983,
		  "durationTicks": 240,
		  "midi": 49,
		  "name": "C#3",
		  "ticks": 11760,
		  "time": 9.483852,
		  "velocity": 0.7480314960629921
		},
		{
		  "duration": 0.19354799999999983,
		  "durationTicks": 240,
		  "midi": 42,
		  "name": "F#2",
		  "ticks": 11760,
		  "time": 9.483852,
		  "velocity": 0.7480314960629921
		},
		{
		  "duration": 0.19354799999999983,
		  "durationTicks": 240,
		  "midi": 49,
		  "name": "C#3",
		  "ticks": 12240,
		  "time": 9.870948,
		  "velocity": 0.7480314960629921
		},
		{
		  "duration": 0.19354799999999983,
		  "durationTicks": 240,
		  "midi": 42,
		  "name": "F#2",
		  "ticks": 12240,
		  "time": 9.870948,
		  "velocity": 0.7480314960629921
		},
		{
		  "duration": 0.19354799999999983,
		  "durationTicks": 240,
		  "midi": 49,
		  "name": "C#3",
		  "ticks": 12720,
		  "time": 10.258044,
		  "velocity": 0.7480314960629921
		},
		{
		  "duration": 0.19354799999999983,
		  "durationTicks": 240,
		  "midi": 42,
		  "name": "F#2",
		  "ticks": 12720,
		  "time": 10.258044,
		  "velocity": 0.7480314960629921
		},
		{
		  "duration": 0.19354799999999983,
		  "durationTicks": 240,
		  "midi": 49,
		  "name": "C#3",
		  "ticks": 13200,
		  "time": 10.64514,
		  "velocity": 0.7480314960629921
		},
		{
		  "duration": 0.19354799999999983,
		  "durationTicks": 240,
		  "midi": 42,
		  "name": "F#2",
		  "ticks": 13200,
		  "time": 10.64514,
		  "velocity": 0.7480314960629921
		},
		{
		  "duration": 0.19354799999999983,
		  "durationTicks": 240,
		  "midi": 56,
		  "name": "G#3",
		  "ticks": 13440,
		  "time": 10.838688,
		  "velocity": 0.7480314960629921
		},
		{
		  "duration": 0.19354799999999983,
		  "durationTicks": 240,
		  "midi": 49,
		  "name": "C#3",
		  "ticks": 13440,
		  "time": 10.838688,
		  "velocity": 0.7480314960629921
		},
		{
		  "duration": 0.19354799999999983,
		  "durationTicks": 240,
		  "midi": 56,
		  "name": "G#3",
		  "ticks": 13680,
		  "time": 11.032236,
		  "velocity": 0.7480314960629921
		},
		{
		  "duration": 0.19354799999999983,
		  "durationTicks": 240,
		  "midi": 49,
		  "name": "C#3",
		  "ticks": 13680,
		  "time": 11.032236,
		  "velocity": 0.7480314960629921
		},
		{
		  "duration": 0.1935480000000016,
		  "durationTicks": 240,
		  "midi": 56,
		  "name": "G#3",
		  "ticks": 13920,
		  "time": 11.225783999999999,
		  "velocity": 0.7480314960629921
		},
		{
		  "duration": 0.1935480000000016,
		  "durationTicks": 240,
		  "midi": 49,
		  "name": "C#3",
		  "ticks": 13920,
		  "time": 11.225783999999999,
		  "velocity": 0.7480314960629921
		},
		{
		  "duration": 0.19354799999999983,
		  "durationTicks": 240,
		  "midi": 51,
		  "name": "D#3",
		  "ticks": 14160,
		  "time": 11.419332,
		  "velocity": 0.7480314960629921
		},
		{
		  "duration": 0.19354799999999983,
		  "durationTicks": 240,
		  "midi": 44,
		  "name": "G#2",
		  "ticks": 14160,
		  "time": 11.419332,
		  "velocity": 0.7480314960629921
		},
		{
		  "duration": 0.19354799999999983,
		  "durationTicks": 240,
		  "midi": 51,
		  "name": "D#3",
		  "ticks": 14400,
		  "time": 11.61288,
		  "velocity": 0.7480314960629921
		},
		{
		  "duration": 0.19354799999999983,
		  "durationTicks": 240,
		  "midi": 44,
		  "name": "G#2",
		  "ticks": 14400,
		  "time": 11.61288,
		  "velocity": 0.7480314960629921
		},
		{
		  "duration": 0.19354799999999983,
		  "durationTicks": 240,
		  "midi": 51,
		  "name": "D#3",
		  "ticks": 14640,
		  "time": 11.806428,
		  "velocity": 0.7480314960629921
		},
		{
		  "duration": 0.19354799999999983,
		  "durationTicks": 240,
		  "midi": 44,
		  "name": "G#2",
		  "ticks": 14640,
		  "time": 11.806428,
		  "velocity": 0.7480314960629921
		},
		{
		  "duration": 0.19354799999999983,
		  "durationTicks": 240,
		  "midi": 51,
		  "name": "D#3",
		  "ticks": 14880,
		  "time": 11.999976,
		  "velocity": 0.7480314960629921
		},
		{
		  "duration": 0.19354799999999983,
		  "durationTicks": 240,
		  "midi": 44,
		  "name": "G#2",
		  "ticks": 14880,
		  "time": 11.999976,
		  "velocity": 0.7480314960629921
		},
		{
		  "duration": 0.19354799999999983,
		  "durationTicks": 240,
		  "midi": 51,
		  "name": "D#3",
		  "ticks": 15120,
		  "time": 12.193524,
		  "velocity": 0.7480314960629921
		},
		{
		  "duration": 0.19354799999999983,
		  "durationTicks": 240,
		  "midi": 44,
		  "name": "G#2",
		  "ticks": 15120,
		  "time": 12.193524,
		  "velocity": 0.7480314960629921
		},
		{
		  "duration": 0.19354799999999983,
		  "durationTicks": 240,
		  "midi": 51,
		  "name": "D#3",
		  "ticks": 15360,
		  "time": 12.387072,
		  "velocity": 0.7480314960629921
		},
		{
		  "duration": 0.19354799999999983,
		  "durationTicks": 240,
		  "midi": 44,
		  "name": "G#2",
		  "ticks": 15360,
		  "time": 12.387072,
		  "velocity": 0.7480314960629921
		},
		{
		  "duration": 0.19354799999999983,
		  "durationTicks": 240,
		  "midi": 53,
		  "name": "F3",
		  "ticks": 15600,
		  "time": 12.58062,
		  "velocity": 0.7480314960629921
		},
		{
		  "duration": 0.19354799999999983,
		  "durationTicks": 240,
		  "midi": 46,
		  "name": "A#2",
		  "ticks": 15600,
		  "time": 12.58062,
		  "velocity": 0.7480314960629921
		},
		{
		  "duration": 0.19354799999999983,
		  "durationTicks": 240,
		  "midi": 53,
		  "name": "F3",
		  "ticks": 16080,
		  "time": 12.967716,
		  "velocity": 0.7480314960629921
		},
		{
		  "duration": 0.19354799999999983,
		  "durationTicks": 240,
		  "midi": 46,
		  "name": "A#2",
		  "ticks": 16080,
		  "time": 12.967716,
		  "velocity": 0.7480314960629921
		},
		{
		  "duration": 0.1935480000000016,
		  "durationTicks": 240,
		  "midi": 53,
		  "name": "F3",
		  "ticks": 16560,
		  "time": 13.354811999999999,
		  "velocity": 0.7480314960629921
		},
		{
		  "duration": 0.1935480000000016,
		  "durationTicks": 240,
		  "midi": 46,
		  "name": "A#2",
		  "ticks": 16560,
		  "time": 13.354811999999999,
		  "velocity": 0.7480314960629921
		},
		{
		  "duration": 0.19354799999999983,
		  "durationTicks": 240,
		  "midi": 53,
		  "name": "F3",
		  "ticks": 17040,
		  "time": 13.741908,
		  "velocity": 0.7480314960629921
		},
		{
		  "duration": 0.19354799999999983,
		  "durationTicks": 240,
		  "midi": 46,
		  "name": "A#2",
		  "ticks": 17040,
		  "time": 13.741908,
		  "velocity": 0.7480314960629921
		},
		{
		  "duration": 0.19354799999999983,
		  "durationTicks": 240,
		  "midi": 53,
		  "name": "F3",
		  "ticks": 17280,
		  "time": 13.935456,
		  "velocity": 0.7480314960629921
		},
		{
		  "duration": 0.19354799999999983,
		  "durationTicks": 240,
		  "midi": 46,
		  "name": "A#2",
		  "ticks": 17280,
		  "time": 13.935456,
		  "velocity": 0.7480314960629921
		},
		{
		  "duration": 0.19354799999999983,
		  "durationTicks": 240,
		  "midi": 54,
		  "name": "F#3",
		  "ticks": 17520,
		  "time": 14.129004,
		  "velocity": 0.7480314960629921
		},
		{
		  "duration": 0.19354799999999983,
		  "durationTicks": 240,
		  "midi": 46,
		  "name": "A#2",
		  "ticks": 17520,
		  "time": 14.129004,
		  "velocity": 0.7480314960629921
		},
		{
		  "duration": 0.19354799999999983,
		  "durationTicks": 240,
		  "midi": 54,
		  "name": "F#3",
		  "ticks": 18000,
		  "time": 14.5161,
		  "velocity": 0.7480314960629921
		},
		{
		  "duration": 0.19354799999999983,
		  "durationTicks": 240,
		  "midi": 46,
		  "name": "A#2",
		  "ticks": 18000,
		  "time": 14.5161,
		  "velocity": 0.7480314960629921
		},
		{
		  "duration": 0.19354799999999983,
		  "durationTicks": 240,
		  "midi": 53,
		  "name": "F3",
		  "ticks": 18480,
		  "time": 14.903196,
		  "velocity": 0.7480314960629921
		},
		{
		  "duration": 0.19354799999999983,
		  "durationTicks": 240,
		  "midi": 46,
		  "name": "A#2",
		  "ticks": 18480,
		  "time": 14.903196,
		  "velocity": 0.7480314960629921
		},
		{
		  "duration": 0.1935480000000016,
		  "durationTicks": 240,
		  "midi": 53,
		  "name": "F3",
		  "ticks": 18960,
		  "time": 15.290291999999999,
		  "velocity": 0.7480314960629921
		},
		{
		  "duration": 0.1935480000000016,
		  "durationTicks": 240,
		  "midi": 46,
		  "name": "A#2",
		  "ticks": 18960,
		  "time": 15.290291999999999,
		  "velocity": 0.7480314960629921
		},
		{
		  "duration": 0.19354799999999983,
		  "durationTicks": 240,
		  "midi": 49,
		  "name": "C#3",
		  "ticks": 19200,
		  "time": 15.48384,
		  "velocity": 0.7480314960629921
		},
		{
		  "duration": 0.19354799999999983,
		  "durationTicks": 240,
		  "midi": 42,
		  "name": "F#2",
		  "ticks": 19200,
		  "time": 15.48384,
		  "velocity": 0.7480314960629921
		},
		{
		  "duration": 0.19354799999999983,
		  "durationTicks": 240,
		  "midi": 49,
		  "name": "C#3",
		  "ticks": 19440,
		  "time": 15.677388,
		  "velocity": 0.7480314960629921
		},
		{
		  "duration": 0.19354799999999983,
		  "durationTicks": 240,
		  "midi": 42,
		  "name": "F#2",
		  "ticks": 19440,
		  "time": 15.677388,
		  "velocity": 0.7480314960629921
		},
		{
		  "duration": 0.19354799999999983,
		  "durationTicks": 240,
		  "midi": 49,
		  "name": "C#3",
		  "ticks": 19920,
		  "time": 16.064484,
		  "velocity": 0.7480314960629921
		},
		{
		  "duration": 0.19354799999999983,
		  "durationTicks": 240,
		  "midi": 42,
		  "name": "F#2",
		  "ticks": 19920,
		  "time": 16.064484,
		  "velocity": 0.7480314960629921
		},
		{
		  "duration": 0.19354799999999983,
		  "durationTicks": 240,
		  "midi": 49,
		  "name": "C#3",
		  "ticks": 20400,
		  "time": 16.45158,
		  "velocity": 0.7480314960629921
		},
		{
		  "duration": 0.19354799999999983,
		  "durationTicks": 240,
		  "midi": 42,
		  "name": "F#2",
		  "ticks": 20400,
		  "time": 16.45158,
		  "velocity": 0.7480314960629921
		},
		{
		  "duration": 0.19354799999999983,
		  "durationTicks": 240,
		  "midi": 49,
		  "name": "C#3",
		  "ticks": 20880,
		  "time": 16.838676,
		  "velocity": 0.7480314960629921
		},
		{
		  "duration": 0.19354799999999983,
		  "durationTicks": 240,
		  "midi": 42,
		  "name": "F#2",
		  "ticks": 20880,
		  "time": 16.838676,
		  "velocity": 0.7480314960629921
		},
		{
		  "duration": 0.19354799999999983,
		  "durationTicks": 240,
		  "midi": 56,
		  "name": "G#3",
		  "ticks": 21120,
		  "time": 17.032224,
		  "velocity": 0.7480314960629921
		},
		{
		  "duration": 0.19354799999999983,
		  "durationTicks": 240,
		  "midi": 49,
		  "name": "C#3",
		  "ticks": 21120,
		  "time": 17.032224,
		  "velocity": 0.7480314960629921
		},
		{
		  "duration": 0.19354799999999983,
		  "durationTicks": 240,
		  "midi": 56,
		  "name": "G#3",
		  "ticks": 21360,
		  "time": 17.225772,
		  "velocity": 0.7480314960629921
		},
		{
		  "duration": 0.19354799999999983,
		  "durationTicks": 240,
		  "midi": 49,
		  "name": "C#3",
		  "ticks": 21360,
		  "time": 17.225772,
		  "velocity": 0.7480314960629921
		},
		{
		  "duration": 0.19354799999999983,
		  "durationTicks": 240,
		  "midi": 56,
		  "name": "G#3",
		  "ticks": 21600,
		  "time": 17.41932,
		  "velocity": 0.7480314960629921
		},
		{
		  "duration": 0.19354799999999983,
		  "durationTicks": 240,
		  "midi": 49,
		  "name": "C#3",
		  "ticks": 21600,
		  "time": 17.41932,
		  "velocity": 0.7480314960629921
		},
		{
		  "duration": 0.19354799999999983,
		  "durationTicks": 240,
		  "midi": 51,
		  "name": "D#3",
		  "ticks": 21840,
		  "time": 17.612868,
		  "velocity": 0.7480314960629921
		},
		{
		  "duration": 0.19354799999999983,
		  "durationTicks": 240,
		  "midi": 44,
		  "name": "G#2",
		  "ticks": 21840,
		  "time": 17.612868,
		  "velocity": 0.7480314960629921
		},
		{
		  "duration": 0.19354799999999983,
		  "durationTicks": 240,
		  "midi": 51,
		  "name": "D#3",
		  "ticks": 22080,
		  "time": 17.806416,
		  "velocity": 0.7480314960629921
		},
		{
		  "duration": 0.19354799999999983,
		  "durationTicks": 240,
		  "midi": 44,
		  "name": "G#2",
		  "ticks": 22080,
		  "time": 17.806416,
		  "velocity": 0.7480314960629921
		},
		{
		  "duration": 0.19354799999999983,
		  "durationTicks": 240,
		  "midi": 51,
		  "name": "D#3",
		  "ticks": 22320,
		  "time": 17.999964,
		  "velocity": 0.7480314960629921
		},
		{
		  "duration": 0.19354799999999983,
		  "durationTicks": 240,
		  "midi": 44,
		  "name": "G#2",
		  "ticks": 22320,
		  "time": 17.999964,
		  "velocity": 0.7480314960629921
		},
		{
		  "duration": 0.19354799999999983,
		  "durationTicks": 240,
		  "midi": 51,
		  "name": "D#3",
		  "ticks": 22560,
		  "time": 18.193512,
		  "velocity": 0.7480314960629921
		},
		{
		  "duration": 0.19354799999999983,
		  "durationTicks": 240,
		  "midi": 44,
		  "name": "G#2",
		  "ticks": 22560,
		  "time": 18.193512,
		  "velocity": 0.7480314960629921
		},
		{
		  "duration": 0.19354799999999983,
		  "durationTicks": 240,
		  "midi": 51,
		  "name": "D#3",
		  "ticks": 22800,
		  "time": 18.387059999999998,
		  "velocity": 0.7480314960629921
		},
		{
		  "duration": 0.19354799999999983,
		  "durationTicks": 240,
		  "midi": 44,
		  "name": "G#2",
		  "ticks": 22800,
		  "time": 18.387059999999998,
		  "velocity": 0.7480314960629921
		},
		{
		  "duration": 0.19354800000000338,
		  "durationTicks": 240,
		  "midi": 51,
		  "name": "D#3",
		  "ticks": 23040,
		  "time": 18.580607999999998,
		  "velocity": 0.7480314960629921
		},
		{
		  "duration": 0.19354800000000338,
		  "durationTicks": 240,
		  "midi": 44,
		  "name": "G#2",
		  "ticks": 23040,
		  "time": 18.580607999999998,
		  "velocity": 0.7480314960629921
		},
		{
		  "duration": 0.19354799999999983,
		  "durationTicks": 240,
		  "midi": 53,
		  "name": "F3",
		  "ticks": 23280,
		  "time": 18.774156,
		  "velocity": 0.7480314960629921
		},
		{
		  "duration": 0.19354799999999983,
		  "durationTicks": 240,
		  "midi": 46,
		  "name": "A#2",
		  "ticks": 23280,
		  "time": 18.774156,
		  "velocity": 0.7480314960629921
		},
		{
		  "duration": 0.19354799999999983,
		  "durationTicks": 240,
		  "midi": 53,
		  "name": "F3",
		  "ticks": 23760,
		  "time": 19.161252,
		  "velocity": 0.7480314960629921
		},
		{
		  "duration": 0.19354799999999983,
		  "durationTicks": 240,
		  "midi": 46,
		  "name": "A#2",
		  "ticks": 23760,
		  "time": 19.161252,
		  "velocity": 0.7480314960629921
		},
		{
		  "duration": 0.19354799999999983,
		  "durationTicks": 240,
		  "midi": 53,
		  "name": "F3",
		  "ticks": 24240,
		  "time": 19.548348,
		  "velocity": 0.7480314960629921
		},
		{
		  "duration": 0.19354799999999983,
		  "durationTicks": 240,
		  "midi": 46,
		  "name": "A#2",
		  "ticks": 24240,
		  "time": 19.548348,
		  "velocity": 0.7480314960629921
		},
		{
		  "duration": 0.19354799999999983,
		  "durationTicks": 240,
		  "midi": 53,
		  "name": "F3",
		  "ticks": 24720,
		  "time": 19.935444,
		  "velocity": 0.7480314960629921
		},
		{
		  "duration": 0.19354799999999983,
		  "durationTicks": 240,
		  "midi": 46,
		  "name": "A#2",
		  "ticks": 24720,
		  "time": 19.935444,
		  "velocity": 0.7480314960629921
		},
		{
		  "duration": 0.19354799999999983,
		  "durationTicks": 240,
		  "midi": 53,
		  "name": "F3",
		  "ticks": 24960,
		  "time": 20.128992,
		  "velocity": 0.7480314960629921
		},
		{
		  "duration": 0.19354799999999983,
		  "durationTicks": 240,
		  "midi": 46,
		  "name": "A#2",
		  "ticks": 24960,
		  "time": 20.128992,
		  "velocity": 0.7480314960629921
		},
		{
		  "duration": 0.19354799999999983,
		  "durationTicks": 240,
		  "midi": 54,
		  "name": "F#3",
		  "ticks": 25200,
		  "time": 20.32254,
		  "velocity": 0.7480314960629921
		},
		{
		  "duration": 0.19354799999999983,
		  "durationTicks": 240,
		  "midi": 46,
		  "name": "A#2",
		  "ticks": 25200,
		  "time": 20.32254,
		  "velocity": 0.7480314960629921
		},
		{
		  "duration": 0.19354799999999983,
		  "durationTicks": 240,
		  "midi": 54,
		  "name": "F#3",
		  "ticks": 25680,
		  "time": 20.709636,
		  "velocity": 0.7480314960629921
		},
		{
		  "duration": 0.19354799999999983,
		  "durationTicks": 240,
		  "midi": 46,
		  "name": "A#2",
		  "ticks": 25680,
		  "time": 20.709636,
		  "velocity": 0.7480314960629921
		},
		{
		  "duration": 0.19354799999999983,
		  "durationTicks": 240,
		  "midi": 53,
		  "name": "F3",
		  "ticks": 26160,
		  "time": 21.096732,
		  "velocity": 0.7480314960629921
		},
		{
		  "duration": 0.19354799999999983,
		  "durationTicks": 240,
		  "midi": 46,
		  "name": "A#2",
		  "ticks": 26160,
		  "time": 21.096732,
		  "velocity": 0.7480314960629921
		},
		{
		  "duration": 0.19354799999999983,
		  "durationTicks": 240,
		  "midi": 53,
		  "name": "F3",
		  "ticks": 26640,
		  "time": 21.483828,
		  "velocity": 0.7480314960629921
		},
		{
		  "duration": 0.19354799999999983,
		  "durationTicks": 240,
		  "midi": 46,
		  "name": "A#2",
		  "ticks": 26640,
		  "time": 21.483828,
		  "velocity": 0.7480314960629921
		},
		{
		  "duration": 0.19354799999999983,
		  "durationTicks": 240,
		  "midi": 49,
		  "name": "C#3",
		  "ticks": 26880,
		  "time": 21.677376,
		  "velocity": 0.7480314960629921
		},
		{
		  "duration": 0.19354799999999983,
		  "durationTicks": 240,
		  "midi": 42,
		  "name": "F#2",
		  "ticks": 26880,
		  "time": 21.677376,
		  "velocity": 0.7480314960629921
		},
		{
		  "duration": 0.19354799999999983,
		  "durationTicks": 240,
		  "midi": 49,
		  "name": "C#3",
		  "ticks": 27120,
		  "time": 21.870924,
		  "velocity": 0.7480314960629921
		},
		{
		  "duration": 0.19354799999999983,
		  "durationTicks": 240,
		  "midi": 42,
		  "name": "F#2",
		  "ticks": 27120,
		  "time": 21.870924,
		  "velocity": 0.7480314960629921
		},
		{
		  "duration": 0.19354799999999983,
		  "durationTicks": 240,
		  "midi": 49,
		  "name": "C#3",
		  "ticks": 27600,
		  "time": 22.25802,
		  "velocity": 0.7480314960629921
		},
		{
		  "duration": 0.19354799999999983,
		  "durationTicks": 240,
		  "midi": 42,
		  "name": "F#2",
		  "ticks": 27600,
		  "time": 22.25802,
		  "velocity": 0.7480314960629921
		},
		{
		  "duration": 0.19354800000000338,
		  "durationTicks": 240,
		  "midi": 49,
		  "name": "C#3",
		  "ticks": 28080,
		  "time": 22.645115999999998,
		  "velocity": 0.7480314960629921
		},
		{
		  "duration": 0.19354800000000338,
		  "durationTicks": 240,
		  "midi": 42,
		  "name": "F#2",
		  "ticks": 28080,
		  "time": 22.645115999999998,
		  "velocity": 0.7480314960629921
		},
		{
		  "duration": 0.19354799999999983,
		  "durationTicks": 240,
		  "midi": 49,
		  "name": "C#3",
		  "ticks": 28560,
		  "time": 23.032212,
		  "velocity": 0.7480314960629921
		},
		{
		  "duration": 0.19354799999999983,
		  "durationTicks": 240,
		  "midi": 42,
		  "name": "F#2",
		  "ticks": 28560,
		  "time": 23.032212,
		  "velocity": 0.7480314960629921
		},
		{
		  "duration": 0.19354799999999983,
		  "durationTicks": 240,
		  "midi": 56,
		  "name": "G#3",
		  "ticks": 28800,
		  "time": 23.22576,
		  "velocity": 0.7480314960629921
		},
		{
		  "duration": 0.19354799999999983,
		  "durationTicks": 240,
		  "midi": 49,
		  "name": "C#3",
		  "ticks": 28800,
		  "time": 23.22576,
		  "velocity": 0.7480314960629921
		},
		{
		  "duration": 0.19354799999999983,
		  "durationTicks": 240,
		  "midi": 56,
		  "name": "G#3",
		  "ticks": 29040,
		  "time": 23.419308,
		  "velocity": 0.7480314960629921
		},
		{
		  "duration": 0.19354799999999983,
		  "durationTicks": 240,
		  "midi": 49,
		  "name": "C#3",
		  "ticks": 29040,
		  "time": 23.419308,
		  "velocity": 0.7480314960629921
		},
		{
		  "duration": 0.19354799999999983,
		  "durationTicks": 240,
		  "midi": 56,
		  "name": "G#3",
		  "ticks": 29280,
		  "time": 23.612856,
		  "velocity": 0.7480314960629921
		},
		{
		  "duration": 0.19354799999999983,
		  "durationTicks": 240,
		  "midi": 49,
		  "name": "C#3",
		  "ticks": 29280,
		  "time": 23.612856,
		  "velocity": 0.7480314960629921
		},
		{
		  "duration": 0.19354799999999983,
		  "durationTicks": 240,
		  "midi": 51,
		  "name": "D#3",
		  "ticks": 29520,
		  "time": 23.806404,
		  "velocity": 0.7480314960629921
		},
		{
		  "duration": 0.19354799999999983,
		  "durationTicks": 240,
		  "midi": 44,
		  "name": "G#2",
		  "ticks": 29520,
		  "time": 23.806404,
		  "velocity": 0.7480314960629921
		},
		{
		  "duration": 0.19354799999999983,
		  "durationTicks": 240,
		  "midi": 51,
		  "name": "D#3",
		  "ticks": 29760,
		  "time": 23.999952,
		  "velocity": 0.7480314960629921
		},
		{
		  "duration": 0.19354799999999983,
		  "durationTicks": 240,
		  "midi": 44,
		  "name": "G#2",
		  "ticks": 29760,
		  "time": 23.999952,
		  "velocity": 0.7480314960629921
		},
		{
		  "duration": 0.19354799999999983,
		  "durationTicks": 240,
		  "midi": 51,
		  "name": "D#3",
		  "ticks": 30000,
		  "time": 24.1935,
		  "velocity": 0.7480314960629921
		},
		{
		  "duration": 0.19354799999999983,
		  "durationTicks": 240,
		  "midi": 44,
		  "name": "G#2",
		  "ticks": 30000,
		  "time": 24.1935,
		  "velocity": 0.7480314960629921
		},
		{
		  "duration": 0.19354799999999983,
		  "durationTicks": 240,
		  "midi": 51,
		  "name": "D#3",
		  "ticks": 30240,
		  "time": 24.387048,
		  "velocity": 0.7480314960629921
		},
		{
		  "duration": 0.19354799999999983,
		  "durationTicks": 240,
		  "midi": 44,
		  "name": "G#2",
		  "ticks": 30240,
		  "time": 24.387048,
		  "velocity": 0.7480314960629921
		},
		{
		  "duration": 0.19354799999999983,
		  "durationTicks": 240,
		  "midi": 51,
		  "name": "D#3",
		  "ticks": 30480,
		  "time": 24.580596,
		  "velocity": 0.7480314960629921
		},
		{
		  "duration": 0.19354799999999983,
		  "durationTicks": 240,
		  "midi": 44,
		  "name": "G#2",
		  "ticks": 30480,
		  "time": 24.580596,
		  "velocity": 0.7480314960629921
		},
		{
		  "duration": 0.19354799999999983,
		  "durationTicks": 240,
		  "midi": 53,
		  "name": "F3",
		  "ticks": 30720,
		  "time": 24.774144,
		  "velocity": 0.7480314960629921
		},
		{
		  "duration": 0.19354799999999983,
		  "durationTicks": 240,
		  "midi": 46,
		  "name": "A#2",
		  "ticks": 30720,
		  "time": 24.774144,
		  "velocity": 0.7480314960629921
		},
		{
		  "duration": 0.19354799999999983,
		  "durationTicks": 240,
		  "midi": 53,
		  "name": "F3",
		  "ticks": 30960,
		  "time": 24.967692,
		  "velocity": 0.7480314960629921
		},
		{
		  "duration": 0.19354799999999983,
		  "durationTicks": 240,
		  "midi": 46,
		  "name": "A#2",
		  "ticks": 30960,
		  "time": 24.967692,
		  "velocity": 0.7480314960629921
		},
		{
		  "duration": 0.19354799999999983,
		  "durationTicks": 240,
		  "midi": 53,
		  "name": "F3",
		  "ticks": 31200,
		  "time": 25.16124,
		  "velocity": 0.7480314960629921
		},
		{
		  "duration": 0.19354799999999983,
		  "durationTicks": 240,
		  "midi": 46,
		  "name": "A#2",
		  "ticks": 31200,
		  "time": 25.16124,
		  "velocity": 0.7480314960629921
		},
		{
		  "duration": 0.07258049999999727,
		  "durationTicks": 90,
		  "midi": 46,
		  "name": "A#2",
		  "ticks": 33840,
		  "time": 27.290268,
		  "velocity": 0.5984251968503937
		},
		{
		  "duration": 0.07258049999999727,
		  "durationTicks": 90,
		  "midi": 46,
		  "name": "A#2",
		  "ticks": 33960,
		  "time": 27.387042,
		  "velocity": 0.5984251968503937
		},
		{
		  "duration": 0.19354799999999983,
		  "durationTicks": 240,
		  "midi": 53,
		  "name": "F3",
		  "ticks": 34080,
		  "time": 27.483816,
		  "velocity": 0.7480314960629921
		},
		{
		  "duration": 0.19354799999999983,
		  "durationTicks": 240,
		  "midi": 46,
		  "name": "A#2",
		  "ticks": 34080,
		  "time": 27.483816,
		  "velocity": 0.7480314960629921
		},
		{
		  "duration": 0.19354799999999983,
		  "durationTicks": 240,
		  "midi": 53,
		  "name": "F3",
		  "ticks": 34320,
		  "time": 27.677364,
		  "velocity": 0.7480314960629921
		},
		{
		  "duration": 0.19354799999999983,
		  "durationTicks": 240,
		  "midi": 46,
		  "name": "A#2",
		  "ticks": 34320,
		  "time": 27.677364,
		  "velocity": 0.7480314960629921
		},
		{
		  "duration": 0.19354799999999983,
		  "durationTicks": 240,
		  "midi": 49,
		  "name": "C#3",
		  "ticks": 34560,
		  "time": 27.870912,
		  "velocity": 0.7480314960629921
		},
		{
		  "duration": 0.19354799999999983,
		  "durationTicks": 240,
		  "midi": 42,
		  "name": "F#2",
		  "ticks": 34560,
		  "time": 27.870912,
		  "velocity": 0.7480314960629921
		},
		{
		  "duration": 0.19354799999999983,
		  "durationTicks": 240,
		  "midi": 49,
		  "name": "C#3",
		  "ticks": 34800,
		  "time": 28.06446,
		  "velocity": 0.7480314960629921
		},
		{
		  "duration": 0.19354799999999983,
		  "durationTicks": 240,
		  "midi": 42,
		  "name": "F#2",
		  "ticks": 34800,
		  "time": 28.06446,
		  "velocity": 0.7480314960629921
		},
		{
		  "duration": 0.19354799999999983,
		  "durationTicks": 240,
		  "midi": 49,
		  "name": "C#3",
		  "ticks": 35040,
		  "time": 28.258008,
		  "velocity": 0.7480314960629921
		},
		{
		  "duration": 0.19354799999999983,
		  "durationTicks": 240,
		  "midi": 42,
		  "name": "F#2",
		  "ticks": 35040,
		  "time": 28.258008,
		  "velocity": 0.7480314960629921
		},
		{
		  "duration": 0.07258050000000082,
		  "durationTicks": 90,
		  "midi": 42,
		  "name": "F#2",
		  "ticks": 37200,
		  "time": 29.99994,
		  "velocity": 0.5984251968503937
		},
		{
		  "duration": 0.07258050000000082,
		  "durationTicks": 90,
		  "midi": 42,
		  "name": "F#2",
		  "ticks": 37320,
		  "time": 30.096714,
		  "velocity": 0.5984251968503937
		},
		{
		  "duration": 0.14516100000000165,
		  "durationTicks": 180,
		  "midi": 42,
		  "name": "F#2",
		  "ticks": 37440,
		  "time": 30.193488,
		  "velocity": 0.5984251968503937
		},
		{
		  "duration": 0.07258050000000082,
		  "durationTicks": 90,
		  "midi": 42,
		  "name": "F#2",
		  "ticks": 37680,
		  "time": 30.387036,
		  "velocity": 0.5984251968503937
		},
		{
		  "duration": 0.07258050000000082,
		  "durationTicks": 90,
		  "midi": 42,
		  "name": "F#2",
		  "ticks": 37800,
		  "time": 30.48381,
		  "velocity": 0.5984251968503937
		},
		{
		  "duration": 0.3870960000000032,
		  "durationTicks": 480,
		  "midi": 49,
		  "name": "C#3",
		  "ticks": 37920,
		  "time": 30.580583999999998,
		  "velocity": 0.7480314960629921
		},
		{
		  "duration": 0.3870960000000032,
		  "durationTicks": 480,
		  "midi": 42,
		  "name": "F#2",
		  "ticks": 37920,
		  "time": 30.580583999999998,
		  "velocity": 0.7480314960629921
		},
		{
		  "duration": 0.19354799999999983,
		  "durationTicks": 240,
		  "midi": 53,
		  "name": "F3",
		  "ticks": 38400,
		  "time": 30.96768,
		  "velocity": 0.7480314960629921
		},
		{
		  "duration": 0.19354799999999983,
		  "durationTicks": 240,
		  "midi": 46,
		  "name": "A#2",
		  "ticks": 38400,
		  "time": 30.96768,
		  "velocity": 0.7480314960629921
		},
		{
		  "duration": 0.19354799999999983,
		  "durationTicks": 240,
		  "midi": 53,
		  "name": "F3",
		  "ticks": 38640,
		  "time": 31.161228,
		  "velocity": 0.7480314960629921
		},
		{
		  "duration": 0.19354799999999983,
		  "durationTicks": 240,
		  "midi": 46,
		  "name": "A#2",
		  "ticks": 38640,
		  "time": 31.161228,
		  "velocity": 0.7480314960629921
		},
		{
		  "duration": 0.19354799999999983,
		  "durationTicks": 240,
		  "midi": 53,
		  "name": "F3",
		  "ticks": 38880,
		  "time": 31.354776,
		  "velocity": 0.7480314960629921
		},
		{
		  "duration": 0.19354799999999983,
		  "durationTicks": 240,
		  "midi": 46,
		  "name": "A#2",
		  "ticks": 38880,
		  "time": 31.354776,
		  "velocity": 0.7480314960629921
		},
		{
		  "duration": 0.19354799999999983,
		  "durationTicks": 240,
		  "midi": 53,
		  "name": "F3",
		  "ticks": 39120,
		  "time": 31.548324,
		  "velocity": 0.7480314960629921
		},
		{
		  "duration": 0.19354799999999983,
		  "durationTicks": 240,
		  "midi": 46,
		  "name": "A#2",
		  "ticks": 39120,
		  "time": 31.548324,
		  "velocity": 0.7480314960629921
		},
		{
		  "duration": 0.19354799999999983,
		  "durationTicks": 240,
		  "midi": 53,
		  "name": "F3",
		  "ticks": 39360,
		  "time": 31.741872,
		  "velocity": 0.7480314960629921
		},
		{
		  "duration": 0.19354799999999983,
		  "durationTicks": 240,
		  "midi": 46,
		  "name": "A#2",
		  "ticks": 39360,
		  "time": 31.741872,
		  "velocity": 0.7480314960629921
		},
		{
		  "duration": 0.19354799999999983,
		  "durationTicks": 240,
		  "midi": 53,
		  "name": "F3",
		  "ticks": 39600,
		  "time": 31.93542,
		  "velocity": 0.7480314960629921
		},
		{
		  "duration": 0.19354799999999983,
		  "durationTicks": 240,
		  "midi": 46,
		  "name": "A#2",
		  "ticks": 39600,
		  "time": 31.93542,
		  "velocity": 0.7480314960629921
		},
		{
		  "duration": 0.19354799999999983,
		  "durationTicks": 240,
		  "midi": 53,
		  "name": "F3",
		  "ticks": 39840,
		  "time": 32.128968,
		  "velocity": 0.7480314960629921
		},
		{
		  "duration": 0.19354799999999983,
		  "durationTicks": 240,
		  "midi": 46,
		  "name": "A#2",
		  "ticks": 39840,
		  "time": 32.128968,
		  "velocity": 0.7480314960629921
		},
		{
		  "duration": 0.19354799999999983,
		  "durationTicks": 240,
		  "midi": 53,
		  "name": "F3",
		  "ticks": 40080,
		  "time": 32.322516,
		  "velocity": 0.7480314960629921
		},
		{
		  "duration": 0.19354799999999983,
		  "durationTicks": 240,
		  "midi": 46,
		  "name": "A#2",
		  "ticks": 40080,
		  "time": 32.322516,
		  "velocity": 0.7480314960629921
		},
		{
		  "duration": 0.19354799999999983,
		  "durationTicks": 240,
		  "midi": 51,
		  "name": "D#3",
		  "ticks": 40320,
		  "time": 32.516064,
		  "velocity": 0.7480314960629921
		},
		{
		  "duration": 0.19354799999999983,
		  "durationTicks": 240,
		  "midi": 44,
		  "name": "G#2",
		  "ticks": 40320,
		  "time": 32.516064,
		  "velocity": 0.7480314960629921
		},
		{
		  "duration": 0.19354799999999983,
		  "durationTicks": 240,
		  "midi": 51,
		  "name": "D#3",
		  "ticks": 40560,
		  "time": 32.709612,
		  "velocity": 0.7480314960629921
		},
		{
		  "duration": 0.19354799999999983,
		  "durationTicks": 240,
		  "midi": 44,
		  "name": "G#2",
		  "ticks": 40560,
		  "time": 32.709612,
		  "velocity": 0.7480314960629921
		},
		{
		  "duration": 0.19354799999999983,
		  "durationTicks": 240,
		  "midi": 51,
		  "name": "D#3",
		  "ticks": 40800,
		  "time": 32.90316,
		  "velocity": 0.7480314960629921
		},
		{
		  "duration": 0.19354799999999983,
		  "durationTicks": 240,
		  "midi": 44,
		  "name": "G#2",
		  "ticks": 40800,
		  "time": 32.90316,
		  "velocity": 0.7480314960629921
		},
		{
		  "duration": 0.19354799999999983,
		  "durationTicks": 240,
		  "midi": 51,
		  "name": "D#3",
		  "ticks": 41040,
		  "time": 33.096708,
		  "velocity": 0.7480314960629921
		},
		{
		  "duration": 0.19354799999999983,
		  "durationTicks": 240,
		  "midi": 44,
		  "name": "G#2",
		  "ticks": 41040,
		  "time": 33.096708,
		  "velocity": 0.7480314960629921
		},
		{
		  "duration": 0.19354799999999983,
		  "durationTicks": 240,
		  "midi": 51,
		  "name": "D#3",
		  "ticks": 41280,
		  "time": 33.290256,
		  "velocity": 0.7480314960629921
		},
		{
		  "duration": 0.19354799999999983,
		  "durationTicks": 240,
		  "midi": 44,
		  "name": "G#2",
		  "ticks": 41280,
		  "time": 33.290256,
		  "velocity": 0.7480314960629921
		},
		{
		  "duration": 0.19354799999999983,
		  "durationTicks": 240,
		  "midi": 51,
		  "name": "D#3",
		  "ticks": 41520,
		  "time": 33.483804,
		  "velocity": 0.7480314960629921
		},
		{
		  "duration": 0.19354799999999983,
		  "durationTicks": 240,
		  "midi": 44,
		  "name": "G#2",
		  "ticks": 41520,
		  "time": 33.483804,
		  "velocity": 0.7480314960629921
		},
		{
		  "duration": 0.19354799999999983,
		  "durationTicks": 240,
		  "midi": 51,
		  "name": "D#3",
		  "ticks": 41760,
		  "time": 33.677352,
		  "velocity": 0.7480314960629921
		},
		{
		  "duration": 0.19354799999999983,
		  "durationTicks": 240,
		  "midi": 44,
		  "name": "G#2",
		  "ticks": 41760,
		  "time": 33.677352,
		  "velocity": 0.7480314960629921
		},
		{
		  "duration": 0.19354799999999983,
		  "durationTicks": 240,
		  "midi": 51,
		  "name": "D#3",
		  "ticks": 42000,
		  "time": 33.8709,
		  "velocity": 0.7480314960629921
		},
		{
		  "duration": 0.19354799999999983,
		  "durationTicks": 240,
		  "midi": 44,
		  "name": "G#2",
		  "ticks": 42000,
		  "time": 33.8709,
		  "velocity": 0.7480314960629921
		},
		{
		  "duration": 0.19354799999999983,
		  "durationTicks": 240,
		  "midi": 48,
		  "name": "C3",
		  "ticks": 42240,
		  "time": 34.064448,
		  "velocity": 0.7480314960629921
		},
		{
		  "duration": 0.19354799999999983,
		  "durationTicks": 240,
		  "midi": 41,
		  "name": "F2",
		  "ticks": 42240,
		  "time": 34.064448,
		  "velocity": 0.7480314960629921
		},
		{
		  "duration": 0.19354799999999983,
		  "durationTicks": 240,
		  "midi": 48,
		  "name": "C3",
		  "ticks": 42480,
		  "time": 34.257996,
		  "velocity": 0.7480314960629921
		},
		{
		  "duration": 0.19354799999999983,
		  "durationTicks": 240,
		  "midi": 41,
		  "name": "F2",
		  "ticks": 42480,
		  "time": 34.257996,
		  "velocity": 0.7480314960629921
		},
		{
		  "duration": 0.19354799999999983,
		  "durationTicks": 240,
		  "midi": 48,
		  "name": "C3",
		  "ticks": 42720,
		  "time": 34.451544,
		  "velocity": 0.7480314960629921
		},
		{
		  "duration": 0.19354799999999983,
		  "durationTicks": 240,
		  "midi": 41,
		  "name": "F2",
		  "ticks": 42720,
		  "time": 34.451544,
		  "velocity": 0.7480314960629921
		},
		{
		  "duration": 0.19354799999999983,
		  "durationTicks": 240,
		  "midi": 48,
		  "name": "C3",
		  "ticks": 42960,
		  "time": 34.645092,
		  "velocity": 0.7480314960629921
		},
		{
		  "duration": 0.19354799999999983,
		  "durationTicks": 240,
		  "midi": 41,
		  "name": "F2",
		  "ticks": 42960,
		  "time": 34.645092,
		  "velocity": 0.7480314960629921
		},
		{
		  "duration": 0.19354799999999983,
		  "durationTicks": 240,
		  "midi": 48,
		  "name": "C3",
		  "ticks": 43200,
		  "time": 34.83864,
		  "velocity": 0.7480314960629921
		},
		{
		  "duration": 0.19354799999999983,
		  "durationTicks": 240,
		  "midi": 41,
		  "name": "F2",
		  "ticks": 43200,
		  "time": 34.83864,
		  "velocity": 0.7480314960629921
		},
		{
		  "duration": 0.19354799999999983,
		  "durationTicks": 240,
		  "midi": 48,
		  "name": "C3",
		  "ticks": 43440,
		  "time": 35.032188,
		  "velocity": 0.7480314960629921
		},
		{
		  "duration": 0.19354799999999983,
		  "durationTicks": 240,
		  "midi": 41,
		  "name": "F2",
		  "ticks": 43440,
		  "time": 35.032188,
		  "velocity": 0.7480314960629921
		},
		{
		  "duration": 0.19354799999999983,
		  "durationTicks": 240,
		  "midi": 48,
		  "name": "C3",
		  "ticks": 43680,
		  "time": 35.225736,
		  "velocity": 0.7480314960629921
		},
		{
		  "duration": 0.19354799999999983,
		  "durationTicks": 240,
		  "midi": 41,
		  "name": "F2",
		  "ticks": 43680,
		  "time": 35.225736,
		  "velocity": 0.7480314960629921
		},
		{
		  "duration": 0.19354799999999983,
		  "durationTicks": 240,
		  "midi": 51,
		  "name": "D#3",
		  "ticks": 43920,
		  "time": 35.419284,
		  "velocity": 0.7480314960629921
		},
		{
		  "duration": 0.19354799999999983,
		  "durationTicks": 240,
		  "midi": 44,
		  "name": "G#2",
		  "ticks": 43920,
		  "time": 35.419284,
		  "velocity": 0.7480314960629921
		},
		{
		  "duration": 0.19354799999999983,
		  "durationTicks": 240,
		  "midi": 51,
		  "name": "D#3",
		  "ticks": 44160,
		  "time": 35.612832,
		  "velocity": 0.7480314960629921
		},
		{
		  "duration": 0.19354799999999983,
		  "durationTicks": 240,
		  "midi": 44,
		  "name": "G#2",
		  "ticks": 44160,
		  "time": 35.612832,
		  "velocity": 0.7480314960629921
		},
		{
		  "duration": 0.19354799999999983,
		  "durationTicks": 240,
		  "midi": 51,
		  "name": "D#3",
		  "ticks": 44400,
		  "time": 35.80638,
		  "velocity": 0.7480314960629921
		},
		{
		  "duration": 0.19354799999999983,
		  "durationTicks": 240,
		  "midi": 44,
		  "name": "G#2",
		  "ticks": 44400,
		  "time": 35.80638,
		  "velocity": 0.7480314960629921
		},
		{
		  "duration": 0.19354799999999983,
		  "durationTicks": 240,
		  "midi": 53,
		  "name": "F3",
		  "ticks": 44640,
		  "time": 35.999928,
		  "velocity": 0.7480314960629921
		},
		{
		  "duration": 0.19354799999999983,
		  "durationTicks": 240,
		  "midi": 46,
		  "name": "A#2",
		  "ticks": 44640,
		  "time": 35.999928,
		  "velocity": 0.7480314960629921
		},
		{
		  "duration": 0.19354799999999983,
		  "durationTicks": 240,
		  "midi": 53,
		  "name": "F3",
		  "ticks": 44880,
		  "time": 36.193476,
		  "velocity": 0.7480314960629921
		},
		{
		  "duration": 0.19354799999999983,
		  "durationTicks": 240,
		  "midi": 46,
		  "name": "A#2",
		  "ticks": 44880,
		  "time": 36.193476,
		  "velocity": 0.7480314960629921
		},
		{
		  "duration": 0.19354799999999983,
		  "durationTicks": 240,
		  "midi": 53,
		  "name": "F3",
		  "ticks": 45120,
		  "time": 36.387024,
		  "velocity": 0.7480314960629921
		},
		{
		  "duration": 0.19354799999999983,
		  "durationTicks": 240,
		  "midi": 46,
		  "name": "A#2",
		  "ticks": 45120,
		  "time": 36.387024,
		  "velocity": 0.7480314960629921
		},
		{
		  "duration": 0.19354799999999983,
		  "durationTicks": 240,
		  "midi": 51,
		  "name": "D#3",
		  "ticks": 45360,
		  "time": 36.580572,
		  "velocity": 0.7480314960629921
		},
		{
		  "duration": 0.19354799999999983,
		  "durationTicks": 240,
		  "midi": 44,
		  "name": "G#2",
		  "ticks": 45360,
		  "time": 36.580572,
		  "velocity": 0.7480314960629921
		},
		{
		  "duration": 0.19354799999999983,
		  "durationTicks": 240,
		  "midi": 51,
		  "name": "D#3",
		  "ticks": 45600,
		  "time": 36.774119999999996,
		  "velocity": 0.7480314960629921
		},
		{
		  "duration": 0.19354799999999983,
		  "durationTicks": 240,
		  "midi": 44,
		  "name": "G#2",
		  "ticks": 45600,
		  "time": 36.774119999999996,
		  "velocity": 0.7480314960629921
		},
		{
		  "duration": 0.19354799999999983,
		  "durationTicks": 240,
		  "midi": 51,
		  "name": "D#3",
		  "ticks": 45840,
		  "time": 36.967667999999996,
		  "velocity": 0.7480314960629921
		},
		{
		  "duration": 0.19354799999999983,
		  "durationTicks": 240,
		  "midi": 44,
		  "name": "G#2",
		  "ticks": 45840,
		  "time": 36.967667999999996,
		  "velocity": 0.7480314960629921
		},
		{
		  "duration": 0.19354800000000694,
		  "durationTicks": 240,
		  "midi": 53,
		  "name": "F3",
		  "ticks": 46080,
		  "time": 37.161215999999996,
		  "velocity": 0.7480314960629921
		},
		{
		  "duration": 0.19354800000000694,
		  "durationTicks": 240,
		  "midi": 46,
		  "name": "A#2",
		  "ticks": 46080,
		  "time": 37.161215999999996,
		  "velocity": 0.7480314960629921
		},
		{
		  "duration": 0.19354799999999983,
		  "durationTicks": 240,
		  "midi": 53,
		  "name": "F3",
		  "ticks": 46320,
		  "time": 37.354764,
		  "velocity": 0.7480314960629921
		},
		{
		  "duration": 0.19354799999999983,
		  "durationTicks": 240,
		  "midi": 46,
		  "name": "A#2",
		  "ticks": 46320,
		  "time": 37.354764,
		  "velocity": 0.7480314960629921
		},
		{
		  "duration": 0.19354799999999983,
		  "durationTicks": 240,
		  "midi": 53,
		  "name": "F3",
		  "ticks": 46560,
		  "time": 37.548312,
		  "velocity": 0.7480314960629921
		},
		{
		  "duration": 0.19354799999999983,
		  "durationTicks": 240,
		  "midi": 46,
		  "name": "A#2",
		  "ticks": 46560,
		  "time": 37.548312,
		  "velocity": 0.7480314960629921
		},
		{
		  "duration": 0.07258050000000082,
		  "durationTicks": 90,
		  "midi": 46,
		  "name": "A#2",
		  "ticks": 49200,
		  "time": 39.67734,
		  "velocity": 0.5984251968503937
		},
		{
		  "duration": 0.07258050000000082,
		  "durationTicks": 90,
		  "midi": 46,
		  "name": "A#2",
		  "ticks": 49320,
		  "time": 39.774114,
		  "velocity": 0.5984251968503937
		},
		{
		  "duration": 0.19354799999999983,
		  "durationTicks": 240,
		  "midi": 53,
		  "name": "F3",
		  "ticks": 49440,
		  "time": 39.870888,
		  "velocity": 0.7480314960629921
		},
		{
		  "duration": 0.19354799999999983,
		  "durationTicks": 240,
		  "midi": 46,
		  "name": "A#2",
		  "ticks": 49440,
		  "time": 39.870888,
		  "velocity": 0.7480314960629921
		},
		{
		  "duration": 0.19354799999999983,
		  "durationTicks": 240,
		  "midi": 53,
		  "name": "F3",
		  "ticks": 49680,
		  "time": 40.064436,
		  "velocity": 0.7480314960629921
		},
		{
		  "duration": 0.19354799999999983,
		  "durationTicks": 240,
		  "midi": 46,
		  "name": "A#2",
		  "ticks": 49680,
		  "time": 40.064436,
		  "velocity": 0.7480314960629921
		},
		{
		  "duration": 0.19354799999999983,
		  "durationTicks": 240,
		  "midi": 49,
		  "name": "C#3",
		  "ticks": 49920,
		  "time": 40.257984,
		  "velocity": 0.7480314960629921
		},
		{
		  "duration": 0.19354799999999983,
		  "durationTicks": 240,
		  "midi": 42,
		  "name": "F#2",
		  "ticks": 49920,
		  "time": 40.257984,
		  "velocity": 0.7480314960629921
		},
		{
		  "duration": 0.19354799999999983,
		  "durationTicks": 240,
		  "midi": 49,
		  "name": "C#3",
		  "ticks": 50160,
		  "time": 40.451532,
		  "velocity": 0.7480314960629921
		},
		{
		  "duration": 0.19354799999999983,
		  "durationTicks": 240,
		  "midi": 42,
		  "name": "F#2",
		  "ticks": 50160,
		  "time": 40.451532,
		  "velocity": 0.7480314960629921
		},
		{
		  "duration": 0.19354799999999983,
		  "durationTicks": 240,
		  "midi": 49,
		  "name": "C#3",
		  "ticks": 50400,
		  "time": 40.64508,
		  "velocity": 0.7480314960629921
		},
		{
		  "duration": 0.19354799999999983,
		  "durationTicks": 240,
		  "midi": 42,
		  "name": "F#2",
		  "ticks": 50400,
		  "time": 40.64508,
		  "velocity": 0.7480314960629921
		},
		{
		  "duration": 0.07258050000000082,
		  "durationTicks": 90,
		  "midi": 42,
		  "name": "F#2",
		  "ticks": 52560,
		  "time": 42.387012,
		  "velocity": 0.5984251968503937
		},
		{
		  "duration": 0.07258050000000082,
		  "durationTicks": 90,
		  "midi": 42,
		  "name": "F#2",
		  "ticks": 52680,
		  "time": 42.483786,
		  "velocity": 0.5984251968503937
		},
		{
		  "duration": 0.14516100000000165,
		  "durationTicks": 180,
		  "midi": 42,
		  "name": "F#2",
		  "ticks": 52800,
		  "time": 42.58056,
		  "velocity": 0.5984251968503937
		},
		{
		  "duration": 0.07258050000000082,
		  "durationTicks": 90,
		  "midi": 42,
		  "name": "F#2",
		  "ticks": 53040,
		  "time": 42.774108,
		  "velocity": 0.5984251968503937
		},
		{
		  "duration": 0.07258050000000082,
		  "durationTicks": 90,
		  "midi": 42,
		  "name": "F#2",
		  "ticks": 53160,
		  "time": 42.870882,
		  "velocity": 0.5984251968503937
		},
		{
		  "duration": 0.38709599999999966,
		  "durationTicks": 480,
		  "midi": 49,
		  "name": "C#3",
		  "ticks": 53280,
		  "time": 42.967656,
		  "velocity": 0.7480314960629921
		},
		{
		  "duration": 0.38709599999999966,
		  "durationTicks": 480,
		  "midi": 42,
		  "name": "F#2",
		  "ticks": 53280,
		  "time": 42.967656,
		  "velocity": 0.7480314960629921
		},
		{
		  "duration": 0.19354799999999983,
		  "durationTicks": 240,
		  "midi": 53,
		  "name": "F3",
		  "ticks": 53760,
		  "time": 43.354752,
		  "velocity": 0.7480314960629921
		},
		{
		  "duration": 0.19354799999999983,
		  "durationTicks": 240,
		  "midi": 46,
		  "name": "A#2",
		  "ticks": 53760,
		  "time": 43.354752,
		  "velocity": 0.7480314960629921
		},
		{
		  "duration": 0.19354799999999983,
		  "durationTicks": 240,
		  "midi": 53,
		  "name": "F3",
		  "ticks": 54000,
		  "time": 43.5483,
		  "velocity": 0.7480314960629921
		},
		{
		  "duration": 0.19354799999999983,
		  "durationTicks": 240,
		  "midi": 46,
		  "name": "A#2",
		  "ticks": 54000,
		  "time": 43.5483,
		  "velocity": 0.7480314960629921
		},
		{
		  "duration": 0.19354799999999983,
		  "durationTicks": 240,
		  "midi": 53,
		  "name": "F3",
		  "ticks": 54240,
		  "time": 43.741848,
		  "velocity": 0.7480314960629921
		},
		{
		  "duration": 0.19354799999999983,
		  "durationTicks": 240,
		  "midi": 46,
		  "name": "A#2",
		  "ticks": 54240,
		  "time": 43.741848,
		  "velocity": 0.7480314960629921
		},
		{
		  "duration": 0.19354799999999983,
		  "durationTicks": 240,
		  "midi": 53,
		  "name": "F3",
		  "ticks": 54480,
		  "time": 43.935396,
		  "velocity": 0.7480314960629921
		},
		{
		  "duration": 0.19354799999999983,
		  "durationTicks": 240,
		  "midi": 46,
		  "name": "A#2",
		  "ticks": 54480,
		  "time": 43.935396,
		  "velocity": 0.7480314960629921
		},
		{
		  "duration": 0.19354799999999983,
		  "durationTicks": 240,
		  "midi": 53,
		  "name": "F3",
		  "ticks": 54720,
		  "time": 44.128944,
		  "velocity": 0.7480314960629921
		},
		{
		  "duration": 0.19354799999999983,
		  "durationTicks": 240,
		  "midi": 46,
		  "name": "A#2",
		  "ticks": 54720,
		  "time": 44.128944,
		  "velocity": 0.7480314960629921
		},
		{
		  "duration": 0.19354799999999983,
		  "durationTicks": 240,
		  "midi": 53,
		  "name": "F3",
		  "ticks": 54960,
		  "time": 44.322492,
		  "velocity": 0.7480314960629921
		},
		{
		  "duration": 0.19354799999999983,
		  "durationTicks": 240,
		  "midi": 46,
		  "name": "A#2",
		  "ticks": 54960,
		  "time": 44.322492,
		  "velocity": 0.7480314960629921
		},
		{
		  "duration": 0.19354799999999983,
		  "durationTicks": 240,
		  "midi": 53,
		  "name": "F3",
		  "ticks": 55200,
		  "time": 44.51604,
		  "velocity": 0.7480314960629921
		},
		{
		  "duration": 0.19354799999999983,
		  "durationTicks": 240,
		  "midi": 46,
		  "name": "A#2",
		  "ticks": 55200,
		  "time": 44.51604,
		  "velocity": 0.7480314960629921
		},
		{
		  "duration": 0.19354799999999983,
		  "durationTicks": 240,
		  "midi": 53,
		  "name": "F3",
		  "ticks": 55440,
		  "time": 44.709588,
		  "velocity": 0.7480314960629921
		},
		{
		  "duration": 0.19354799999999983,
		  "durationTicks": 240,
		  "midi": 46,
		  "name": "A#2",
		  "ticks": 55440,
		  "time": 44.709588,
		  "velocity": 0.7480314960629921
		},
		{
		  "duration": 0.19354799999999983,
		  "durationTicks": 240,
		  "midi": 51,
		  "name": "D#3",
		  "ticks": 55680,
		  "time": 44.903135999999996,
		  "velocity": 0.7480314960629921
		},
		{
		  "duration": 0.19354799999999983,
		  "durationTicks": 240,
		  "midi": 44,
		  "name": "G#2",
		  "ticks": 55680,
		  "time": 44.903135999999996,
		  "velocity": 0.7480314960629921
		},
		{
		  "duration": 0.19354799999999983,
		  "durationTicks": 240,
		  "midi": 51,
		  "name": "D#3",
		  "ticks": 55920,
		  "time": 45.096683999999996,
		  "velocity": 0.7480314960629921
		},
		{
		  "duration": 0.19354799999999983,
		  "durationTicks": 240,
		  "midi": 44,
		  "name": "G#2",
		  "ticks": 55920,
		  "time": 45.096683999999996,
		  "velocity": 0.7480314960629921
		},
		{
		  "duration": 0.19354800000000694,
		  "durationTicks": 240,
		  "midi": 51,
		  "name": "D#3",
		  "ticks": 56160,
		  "time": 45.290231999999996,
		  "velocity": 0.7480314960629921
		},
		{
		  "duration": 0.19354800000000694,
		  "durationTicks": 240,
		  "midi": 44,
		  "name": "G#2",
		  "ticks": 56160,
		  "time": 45.290231999999996,
		  "velocity": 0.7480314960629921
		},
		{
		  "duration": 0.19354799999999983,
		  "durationTicks": 240,
		  "midi": 51,
		  "name": "D#3",
		  "ticks": 56400,
		  "time": 45.48378,
		  "velocity": 0.7480314960629921
		},
		{
		  "duration": 0.19354799999999983,
		  "durationTicks": 240,
		  "midi": 44,
		  "name": "G#2",
		  "ticks": 56400,
		  "time": 45.48378,
		  "velocity": 0.7480314960629921
		},
		{
		  "duration": 0.19354799999999983,
		  "durationTicks": 240,
		  "midi": 51,
		  "name": "D#3",
		  "ticks": 56640,
		  "time": 45.677328,
		  "velocity": 0.7480314960629921
		},
		{
		  "duration": 0.19354799999999983,
		  "durationTicks": 240,
		  "midi": 44,
		  "name": "G#2",
		  "ticks": 56640,
		  "time": 45.677328,
		  "velocity": 0.7480314960629921
		},
		{
		  "duration": 0.19354799999999983,
		  "durationTicks": 240,
		  "midi": 51,
		  "name": "D#3",
		  "ticks": 56880,
		  "time": 45.870876,
		  "velocity": 0.7480314960629921
		},
		{
		  "duration": 0.19354799999999983,
		  "durationTicks": 240,
		  "midi": 44,
		  "name": "G#2",
		  "ticks": 56880,
		  "time": 45.870876,
		  "velocity": 0.7480314960629921
		},
		{
		  "duration": 0.19354799999999983,
		  "durationTicks": 240,
		  "midi": 51,
		  "name": "D#3",
		  "ticks": 57120,
		  "time": 46.064424,
		  "velocity": 0.7480314960629921
		},
		{
		  "duration": 0.19354799999999983,
		  "durationTicks": 240,
		  "midi": 44,
		  "name": "G#2",
		  "ticks": 57120,
		  "time": 46.064424,
		  "velocity": 0.7480314960629921
		},
		{
		  "duration": 0.19354799999999983,
		  "durationTicks": 240,
		  "midi": 51,
		  "name": "D#3",
		  "ticks": 57360,
		  "time": 46.257972,
		  "velocity": 0.7480314960629921
		},
		{
		  "duration": 0.19354799999999983,
		  "durationTicks": 240,
		  "midi": 44,
		  "name": "G#2",
		  "ticks": 57360,
		  "time": 46.257972,
		  "velocity": 0.7480314960629921
		},
		{
		  "duration": 0.19354799999999983,
		  "durationTicks": 240,
		  "midi": 48,
		  "name": "C3",
		  "ticks": 57600,
		  "time": 46.45152,
		  "velocity": 0.7480314960629921
		},
		{
		  "duration": 0.19354799999999983,
		  "durationTicks": 240,
		  "midi": 41,
		  "name": "F2",
		  "ticks": 57600,
		  "time": 46.45152,
		  "velocity": 0.7480314960629921
		},
		{
		  "duration": 0.19354799999999983,
		  "durationTicks": 240,
		  "midi": 48,
		  "name": "C3",
		  "ticks": 57840,
		  "time": 46.645068,
		  "velocity": 0.7480314960629921
		},
		{
		  "duration": 0.19354799999999983,
		  "durationTicks": 240,
		  "midi": 41,
		  "name": "F2",
		  "ticks": 57840,
		  "time": 46.645068,
		  "velocity": 0.7480314960629921
		},
		{
		  "duration": 0.19354799999999983,
		  "durationTicks": 240,
		  "midi": 48,
		  "name": "C3",
		  "ticks": 58080,
		  "time": 46.838616,
		  "velocity": 0.7480314960629921
		},
		{
		  "duration": 0.19354799999999983,
		  "durationTicks": 240,
		  "midi": 41,
		  "name": "F2",
		  "ticks": 58080,
		  "time": 46.838616,
		  "velocity": 0.7480314960629921
		},
		{
		  "duration": 0.19354799999999983,
		  "durationTicks": 240,
		  "midi": 48,
		  "name": "C3",
		  "ticks": 58320,
		  "time": 47.032164,
		  "velocity": 0.7480314960629921
		},
		{
		  "duration": 0.19354799999999983,
		  "durationTicks": 240,
		  "midi": 41,
		  "name": "F2",
		  "ticks": 58320,
		  "time": 47.032164,
		  "velocity": 0.7480314960629921
		},
		{
		  "duration": 0.19354799999999983,
		  "durationTicks": 240,
		  "midi": 48,
		  "name": "C3",
		  "ticks": 58560,
		  "time": 47.225712,
		  "velocity": 0.7480314960629921
		},
		{
		  "duration": 0.19354799999999983,
		  "durationTicks": 240,
		  "midi": 41,
		  "name": "F2",
		  "ticks": 58560,
		  "time": 47.225712,
		  "velocity": 0.7480314960629921
		},
		{
		  "duration": 0.19354799999999983,
		  "durationTicks": 240,
		  "midi": 48,
		  "name": "C3",
		  "ticks": 58800,
		  "time": 47.41926,
		  "velocity": 0.7480314960629921
		},
		{
		  "duration": 0.19354799999999983,
		  "durationTicks": 240,
		  "midi": 41,
		  "name": "F2",
		  "ticks": 58800,
		  "time": 47.41926,
		  "velocity": 0.7480314960629921
		},
		{
		  "duration": 0.19354799999999983,
		  "durationTicks": 240,
		  "midi": 48,
		  "name": "C3",
		  "ticks": 59040,
		  "time": 47.612808,
		  "velocity": 0.7480314960629921
		},
		{
		  "duration": 0.19354799999999983,
		  "durationTicks": 240,
		  "midi": 41,
		  "name": "F2",
		  "ticks": 59040,
		  "time": 47.612808,
		  "velocity": 0.7480314960629921
		},
		{
		  "duration": 0.19354799999999983,
		  "durationTicks": 240,
		  "midi": 48,
		  "name": "C3",
		  "ticks": 59280,
		  "time": 47.806356,
		  "velocity": 0.7480314960629921
		},
		{
		  "duration": 0.19354799999999983,
		  "durationTicks": 240,
		  "midi": 41,
		  "name": "F2",
		  "ticks": 59280,
		  "time": 47.806356,
		  "velocity": 0.7480314960629921
		},
		{
		  "duration": 0.2903219999999962,
		  "durationTicks": 360,
		  "midi": 53,
		  "name": "F3",
		  "ticks": 59520,
		  "time": 47.999904,
		  "velocity": 0.5984251968503937
		},
		{
		  "duration": 0.2903219999999962,
		  "durationTicks": 360,
		  "midi": 46,
		  "name": "A#2",
		  "ticks": 59520,
		  "time": 47.999904,
		  "velocity": 0.5984251968503937
		},
		{
		  "duration": 0.2903219999999962,
		  "durationTicks": 360,
		  "midi": 53,
		  "name": "F3",
		  "ticks": 60000,
		  "time": 48.387,
		  "velocity": 0.5984251968503937
		},
		{
		  "duration": 0.2903219999999962,
		  "durationTicks": 360,
		  "midi": 46,
		  "name": "A#2",
		  "ticks": 60000,
		  "time": 48.387,
		  "velocity": 0.5984251968503937
		},
		{
		  "duration": 0.2903219999999962,
		  "durationTicks": 360,
		  "midi": 53,
		  "name": "F3",
		  "ticks": 60480,
		  "time": 48.774096,
		  "velocity": 0.5984251968503937
		},
		{
		  "duration": 0.2903219999999962,
		  "durationTicks": 360,
		  "midi": 46,
		  "name": "A#2",
		  "ticks": 60480,
		  "time": 48.774096,
		  "velocity": 0.5984251968503937
		},
		{
		  "duration": 0.19354799999999983,
		  "durationTicks": 240,
		  "midi": 53,
		  "name": "F3",
		  "ticks": 60960,
		  "time": 49.161192,
		  "velocity": 0.7480314960629921
		},
		{
		  "duration": 0.19354799999999983,
		  "durationTicks": 240,
		  "midi": 46,
		  "name": "A#2",
		  "ticks": 60960,
		  "time": 49.161192,
		  "velocity": 0.7480314960629921
		},
		{
		  "duration": 0.19354799999999983,
		  "durationTicks": 240,
		  "midi": 51,
		  "name": "D#3",
		  "ticks": 61200,
		  "time": 49.35474,
		  "velocity": 0.7480314960629921
		},
		{
		  "duration": 0.19354799999999983,
		  "durationTicks": 240,
		  "midi": 44,
		  "name": "G#2",
		  "ticks": 61200,
		  "time": 49.35474,
		  "velocity": 0.7480314960629921
		},
		{
		  "duration": 0.19354799999999983,
		  "durationTicks": 240,
		  "midi": 51,
		  "name": "D#3",
		  "ticks": 61680,
		  "time": 49.741836,
		  "velocity": 0.7480314960629921
		},
		{
		  "duration": 0.19354799999999983,
		  "durationTicks": 240,
		  "midi": 44,
		  "name": "G#2",
		  "ticks": 61680,
		  "time": 49.741836,
		  "velocity": 0.7480314960629921
		},
		{
		  "duration": 0.19354799999999983,
		  "durationTicks": 240,
		  "midi": 51,
		  "name": "D#3",
		  "ticks": 61920,
		  "time": 49.935384,
		  "velocity": 0.7480314960629921
		},
		{
		  "duration": 0.19354799999999983,
		  "durationTicks": 240,
		  "midi": 44,
		  "name": "G#2",
		  "ticks": 61920,
		  "time": 49.935384,
		  "velocity": 0.7480314960629921
		},
		{
		  "duration": 0.19354799999999983,
		  "durationTicks": 240,
		  "midi": 53,
		  "name": "F3",
		  "ticks": 62160,
		  "time": 50.128932,
		  "velocity": 0.7480314960629921
		},
		{
		  "duration": 0.19354799999999983,
		  "durationTicks": 240,
		  "midi": 46,
		  "name": "A#2",
		  "ticks": 62160,
		  "time": 50.128932,
		  "velocity": 0.7480314960629921
		},
		{
		  "duration": 0.19354799999999983,
		  "durationTicks": 240,
		  "midi": 53,
		  "name": "F3",
		  "ticks": 63360,
		  "time": 51.096672,
		  "velocity": 0.7480314960629921
		},
		{
		  "duration": 0.19354799999999983,
		  "durationTicks": 240,
		  "midi": 46,
		  "name": "A#2",
		  "ticks": 63360,
		  "time": 51.096672,
		  "velocity": 0.7480314960629921
		},
		{
		  "duration": 0.19354799999999983,
		  "durationTicks": 240,
		  "midi": 53,
		  "name": "F3",
		  "ticks": 63600,
		  "time": 51.29022,
		  "velocity": 0.7480314960629921
		},
		{
		  "duration": 0.19354799999999983,
		  "durationTicks": 240,
		  "midi": 46,
		  "name": "A#2",
		  "ticks": 63600,
		  "time": 51.29022,
		  "velocity": 0.7480314960629921
		},
		{
		  "duration": 0.19354799999999983,
		  "durationTicks": 240,
		  "midi": 53,
		  "name": "F3",
		  "ticks": 63840,
		  "time": 51.483768,
		  "velocity": 0.7480314960629921
		},
		{
		  "duration": 0.19354799999999983,
		  "durationTicks": 240,
		  "midi": 46,
		  "name": "A#2",
		  "ticks": 63840,
		  "time": 51.483768,
		  "velocity": 0.7480314960629921
		},
		{
		  "duration": 0.19354799999999983,
		  "durationTicks": 240,
		  "midi": 53,
		  "name": "F3",
		  "ticks": 64080,
		  "time": 51.677316,
		  "velocity": 0.7480314960629921
		},
		{
		  "duration": 0.19354799999999983,
		  "durationTicks": 240,
		  "midi": 46,
		  "name": "A#2",
		  "ticks": 64080,
		  "time": 51.677316,
		  "velocity": 0.7480314960629921
		},
		{
		  "duration": 0.19354799999999983,
		  "durationTicks": 240,
		  "midi": 53,
		  "name": "F3",
		  "ticks": 64320,
		  "time": 51.870864,
		  "velocity": 0.7480314960629921
		},
		{
		  "duration": 0.19354799999999983,
		  "durationTicks": 240,
		  "midi": 46,
		  "name": "A#2",
		  "ticks": 64320,
		  "time": 51.870864,
		  "velocity": 0.7480314960629921
		},
		{
		  "duration": 0.19354799999999983,
		  "durationTicks": 240,
		  "midi": 53,
		  "name": "F3",
		  "ticks": 64560,
		  "time": 52.064412,
		  "velocity": 0.7480314960629921
		},
		{
		  "duration": 0.19354799999999983,
		  "durationTicks": 240,
		  "midi": 46,
		  "name": "A#2",
		  "ticks": 64560,
		  "time": 52.064412,
		  "velocity": 0.7480314960629921
		},
		{
		  "duration": 0.19354799999999983,
		  "durationTicks": 240,
		  "midi": 53,
		  "name": "F3",
		  "ticks": 64800,
		  "time": 52.25796,
		  "velocity": 0.7480314960629921
		},
		{
		  "duration": 0.19354799999999983,
		  "durationTicks": 240,
		  "midi": 46,
		  "name": "A#2",
		  "ticks": 64800,
		  "time": 52.25796,
		  "velocity": 0.7480314960629921
		},
		{
		  "duration": 0.19354799999999983,
		  "durationTicks": 240,
		  "midi": 53,
		  "name": "F3",
		  "ticks": 65040,
		  "time": 52.451508,
		  "velocity": 0.7480314960629921
		},
		{
		  "duration": 0.19354799999999983,
		  "durationTicks": 240,
		  "midi": 46,
		  "name": "A#2",
		  "ticks": 65040,
		  "time": 52.451508,
		  "velocity": 0.7480314960629921
		},
		{
		  "duration": 0.19354799999999983,
		  "durationTicks": 240,
		  "midi": 53,
		  "name": "F3",
		  "ticks": 65280,
		  "time": 52.645056,
		  "velocity": 0.7480314960629921
		},
		{
		  "duration": 0.19354799999999983,
		  "durationTicks": 240,
		  "midi": 46,
		  "name": "A#2",
		  "ticks": 65280,
		  "time": 52.645056,
		  "velocity": 0.7480314960629921
		},
		{
		  "duration": 0.19354799999999983,
		  "durationTicks": 240,
		  "midi": 53,
		  "name": "F3",
		  "ticks": 65520,
		  "time": 52.838604,
		  "velocity": 0.7480314960629921
		},
		{
		  "duration": 0.19354799999999983,
		  "durationTicks": 240,
		  "midi": 46,
		  "name": "A#2",
		  "ticks": 65520,
		  "time": 52.838604,
		  "velocity": 0.7480314960629921
		},
		{
		  "duration": 0.19354799999999983,
		  "durationTicks": 240,
		  "midi": 53,
		  "name": "F3",
		  "ticks": 65760,
		  "time": 53.032151999999996,
		  "velocity": 0.7480314960629921
		},
		{
		  "duration": 0.19354799999999983,
		  "durationTicks": 240,
		  "midi": 46,
		  "name": "A#2",
		  "ticks": 65760,
		  "time": 53.032151999999996,
		  "velocity": 0.7480314960629921
		},
		{
		  "duration": 0.19354799999999983,
		  "durationTicks": 240,
		  "midi": 53,
		  "name": "F3",
		  "ticks": 66000,
		  "time": 53.225699999999996,
		  "velocity": 0.7480314960629921
		},
		{
		  "duration": 0.19354799999999983,
		  "durationTicks": 240,
		  "midi": 46,
		  "name": "A#2",
		  "ticks": 66000,
		  "time": 53.225699999999996,
		  "velocity": 0.7480314960629921
		},
		{
		  "duration": 0.19354799999999983,
		  "durationTicks": 240,
		  "midi": 53,
		  "name": "F3",
		  "ticks": 66240,
		  "time": 53.419247999999996,
		  "velocity": 0.7480314960629921
		},
		{
		  "duration": 0.19354799999999983,
		  "durationTicks": 240,
		  "midi": 46,
		  "name": "A#2",
		  "ticks": 66240,
		  "time": 53.419247999999996,
		  "velocity": 0.7480314960629921
		},
		{
		  "duration": 0.19354800000000694,
		  "durationTicks": 240,
		  "midi": 53,
		  "name": "F3",
		  "ticks": 66480,
		  "time": 53.612795999999996,
		  "velocity": 0.7480314960629921
		},
		{
		  "duration": 0.19354800000000694,
		  "durationTicks": 240,
		  "midi": 46,
		  "name": "A#2",
		  "ticks": 66480,
		  "time": 53.612795999999996,
		  "velocity": 0.7480314960629921
		},
		{
		  "duration": 0.19354799999999983,
		  "durationTicks": 240,
		  "midi": 53,
		  "name": "F3",
		  "ticks": 66720,
		  "time": 53.806344,
		  "velocity": 0.7480314960629921
		},
		{
		  "duration": 0.19354799999999983,
		  "durationTicks": 240,
		  "midi": 46,
		  "name": "A#2",
		  "ticks": 66720,
		  "time": 53.806344,
		  "velocity": 0.7480314960629921
		},
		{
		  "duration": 0.19354799999999983,
		  "durationTicks": 240,
		  "midi": 53,
		  "name": "F3",
		  "ticks": 66960,
		  "time": 53.999892,
		  "velocity": 0.7480314960629921
		},
		{
		  "duration": 0.19354799999999983,
		  "durationTicks": 240,
		  "midi": 46,
		  "name": "A#2",
		  "ticks": 66960,
		  "time": 53.999892,
		  "velocity": 0.7480314960629921
		},
		{
		  "duration": 0.19354799999999983,
		  "durationTicks": 240,
		  "midi": 51,
		  "name": "D#3",
		  "ticks": 67200,
		  "time": 54.19344,
		  "velocity": 0.7480314960629921
		},
		{
		  "duration": 0.19354799999999983,
		  "durationTicks": 240,
		  "midi": 44,
		  "name": "G#2",
		  "ticks": 67200,
		  "time": 54.19344,
		  "velocity": 0.7480314960629921
		},
		{
		  "duration": 0.19354799999999983,
		  "durationTicks": 240,
		  "midi": 51,
		  "name": "D#3",
		  "ticks": 67440,
		  "time": 54.386988,
		  "velocity": 0.7480314960629921
		},
		{
		  "duration": 0.19354799999999983,
		  "durationTicks": 240,
		  "midi": 44,
		  "name": "G#2",
		  "ticks": 67440,
		  "time": 54.386988,
		  "velocity": 0.7480314960629921
		},
		{
		  "duration": 0.19354799999999983,
		  "durationTicks": 240,
		  "midi": 51,
		  "name": "D#3",
		  "ticks": 67680,
		  "time": 54.580536,
		  "velocity": 0.7480314960629921
		},
		{
		  "duration": 0.19354799999999983,
		  "durationTicks": 240,
		  "midi": 44,
		  "name": "G#2",
		  "ticks": 67680,
		  "time": 54.580536,
		  "velocity": 0.7480314960629921
		},
		{
		  "duration": 0.19354799999999983,
		  "durationTicks": 240,
		  "midi": 51,
		  "name": "D#3",
		  "ticks": 67920,
		  "time": 54.774084,
		  "velocity": 0.7480314960629921
		},
		{
		  "duration": 0.19354799999999983,
		  "durationTicks": 240,
		  "midi": 44,
		  "name": "G#2",
		  "ticks": 67920,
		  "time": 54.774084,
		  "velocity": 0.7480314960629921
		},
		{
		  "duration": 0.19354799999999983,
		  "durationTicks": 240,
		  "midi": 51,
		  "name": "D#3",
		  "ticks": 68160,
		  "time": 54.967632,
		  "velocity": 0.7480314960629921
		},
		{
		  "duration": 0.19354799999999983,
		  "durationTicks": 240,
		  "midi": 44,
		  "name": "G#2",
		  "ticks": 68160,
		  "time": 54.967632,
		  "velocity": 0.7480314960629921
		},
		{
		  "duration": 0.19354799999999983,
		  "durationTicks": 240,
		  "midi": 51,
		  "name": "D#3",
		  "ticks": 68400,
		  "time": 55.16118,
		  "velocity": 0.7480314960629921
		},
		{
		  "duration": 0.19354799999999983,
		  "durationTicks": 240,
		  "midi": 44,
		  "name": "G#2",
		  "ticks": 68400,
		  "time": 55.16118,
		  "velocity": 0.7480314960629921
		},
		{
		  "duration": 0.19354799999999983,
		  "durationTicks": 240,
		  "midi": 51,
		  "name": "D#3",
		  "ticks": 68640,
		  "time": 55.354728,
		  "velocity": 0.7480314960629921
		},
		{
		  "duration": 0.19354799999999983,
		  "durationTicks": 240,
		  "midi": 44,
		  "name": "G#2",
		  "ticks": 68640,
		  "time": 55.354728,
		  "velocity": 0.7480314960629921
		},
		{
		  "duration": 0.19354799999999983,
		  "durationTicks": 240,
		  "midi": 51,
		  "name": "D#3",
		  "ticks": 68880,
		  "time": 55.548276,
		  "velocity": 0.7480314960629921
		},
		{
		  "duration": 0.19354799999999983,
		  "durationTicks": 240,
		  "midi": 44,
		  "name": "G#2",
		  "ticks": 68880,
		  "time": 55.548276,
		  "velocity": 0.7480314960629921
		},
		{
		  "duration": 0.19354799999999983,
		  "durationTicks": 240,
		  "midi": 53,
		  "name": "F3",
		  "ticks": 69120,
		  "time": 55.741824,
		  "velocity": 0.7480314960629921
		},
		{
		  "duration": 0.19354799999999983,
		  "durationTicks": 240,
		  "midi": 46,
		  "name": "A#2",
		  "ticks": 69120,
		  "time": 55.741824,
		  "velocity": 0.7480314960629921
		},
		{
		  "duration": 0.19354799999999983,
		  "durationTicks": 240,
		  "midi": 53,
		  "name": "F3",
		  "ticks": 69360,
		  "time": 55.935372,
		  "velocity": 0.7480314960629921
		},
		{
		  "duration": 0.19354799999999983,
		  "durationTicks": 240,
		  "midi": 46,
		  "name": "A#2",
		  "ticks": 69360,
		  "time": 55.935372,
		  "velocity": 0.7480314960629921
		},
		{
		  "duration": 0.19354799999999983,
		  "durationTicks": 240,
		  "midi": 53,
		  "name": "F3",
		  "ticks": 69600,
		  "time": 56.12892,
		  "velocity": 0.7480314960629921
		},
		{
		  "duration": 0.19354799999999983,
		  "durationTicks": 240,
		  "midi": 46,
		  "name": "A#2",
		  "ticks": 69600,
		  "time": 56.12892,
		  "velocity": 0.7480314960629921
		},
		{
		  "duration": 0.19354799999999983,
		  "durationTicks": 240,
		  "midi": 53,
		  "name": "F3",
		  "ticks": 69840,
		  "time": 56.322468,
		  "velocity": 0.7480314960629921
		},
		{
		  "duration": 0.19354799999999983,
		  "durationTicks": 240,
		  "midi": 46,
		  "name": "A#2",
		  "ticks": 69840,
		  "time": 56.322468,
		  "velocity": 0.7480314960629921
		},
		{
		  "duration": 0.19354799999999983,
		  "durationTicks": 240,
		  "midi": 53,
		  "name": "F3",
		  "ticks": 70080,
		  "time": 56.516016,
		  "velocity": 0.7480314960629921
		},
		{
		  "duration": 0.19354799999999983,
		  "durationTicks": 240,
		  "midi": 46,
		  "name": "A#2",
		  "ticks": 70080,
		  "time": 56.516016,
		  "velocity": 0.7480314960629921
		},
		{
		  "duration": 0.19354799999999983,
		  "durationTicks": 240,
		  "midi": 53,
		  "name": "F3",
		  "ticks": 70320,
		  "time": 56.709564,
		  "velocity": 0.7480314960629921
		},
		{
		  "duration": 0.19354799999999983,
		  "durationTicks": 240,
		  "midi": 46,
		  "name": "A#2",
		  "ticks": 70320,
		  "time": 56.709564,
		  "velocity": 0.7480314960629921
		},
		{
		  "duration": 0.19354799999999983,
		  "durationTicks": 240,
		  "midi": 53,
		  "name": "F3",
		  "ticks": 70560,
		  "time": 56.903112,
		  "velocity": 0.7480314960629921
		},
		{
		  "duration": 0.19354799999999983,
		  "durationTicks": 240,
		  "midi": 46,
		  "name": "A#2",
		  "ticks": 70560,
		  "time": 56.903112,
		  "velocity": 0.7480314960629921
		},
		{
		  "duration": 0.19354799999999983,
		  "durationTicks": 240,
		  "midi": 53,
		  "name": "F3",
		  "ticks": 70800,
		  "time": 57.09666,
		  "velocity": 0.7480314960629921
		},
		{
		  "duration": 0.19354799999999983,
		  "durationTicks": 240,
		  "midi": 46,
		  "name": "A#2",
		  "ticks": 70800,
		  "time": 57.09666,
		  "velocity": 0.7480314960629921
		},
		{
		  "duration": 0.19354799999999983,
		  "durationTicks": 240,
		  "midi": 51,
		  "name": "D#3",
		  "ticks": 71040,
		  "time": 57.290208,
		  "velocity": 0.7480314960629921
		},
		{
		  "duration": 0.19354799999999983,
		  "durationTicks": 240,
		  "midi": 44,
		  "name": "G#2",
		  "ticks": 71040,
		  "time": 57.290208,
		  "velocity": 0.7480314960629921
		},
		{
		  "duration": 0.19354799999999983,
		  "durationTicks": 240,
		  "midi": 51,
		  "name": "D#3",
		  "ticks": 71280,
		  "time": 57.483756,
		  "velocity": 0.7480314960629921
		},
		{
		  "duration": 0.19354799999999983,
		  "durationTicks": 240,
		  "midi": 44,
		  "name": "G#2",
		  "ticks": 71280,
		  "time": 57.483756,
		  "velocity": 0.7480314960629921
		},
		{
		  "duration": 0.19354799999999983,
		  "durationTicks": 240,
		  "midi": 51,
		  "name": "D#3",
		  "ticks": 71520,
		  "time": 57.677304,
		  "velocity": 0.7480314960629921
		},
		{
		  "duration": 0.19354799999999983,
		  "durationTicks": 240,
		  "midi": 44,
		  "name": "G#2",
		  "ticks": 71520,
		  "time": 57.677304,
		  "velocity": 0.7480314960629921
		},
		{
		  "duration": 0.19354799999999983,
		  "durationTicks": 240,
		  "midi": 51,
		  "name": "D#3",
		  "ticks": 71760,
		  "time": 57.870852,
		  "velocity": 0.7480314960629921
		},
		{
		  "duration": 0.19354799999999983,
		  "durationTicks": 240,
		  "midi": 44,
		  "name": "G#2",
		  "ticks": 71760,
		  "time": 57.870852,
		  "velocity": 0.7480314960629921
		},
		{
		  "duration": 0.19354799999999983,
		  "durationTicks": 240,
		  "midi": 51,
		  "name": "D#3",
		  "ticks": 72000,
		  "time": 58.0644,
		  "velocity": 0.7480314960629921
		},
		{
		  "duration": 0.19354799999999983,
		  "durationTicks": 240,
		  "midi": 44,
		  "name": "G#2",
		  "ticks": 72000,
		  "time": 58.0644,
		  "velocity": 0.7480314960629921
		},
		{
		  "duration": 0.19354799999999983,
		  "durationTicks": 240,
		  "midi": 51,
		  "name": "D#3",
		  "ticks": 72240,
		  "time": 58.257948,
		  "velocity": 0.7480314960629921
		},
		{
		  "duration": 0.19354799999999983,
		  "durationTicks": 240,
		  "midi": 44,
		  "name": "G#2",
		  "ticks": 72240,
		  "time": 58.257948,
		  "velocity": 0.7480314960629921
		},
		{
		  "duration": 0.19354799999999983,
		  "durationTicks": 240,
		  "midi": 51,
		  "name": "D#3",
		  "ticks": 72480,
		  "time": 58.451496,
		  "velocity": 0.7480314960629921
		},
		{
		  "duration": 0.19354799999999983,
		  "durationTicks": 240,
		  "midi": 44,
		  "name": "G#2",
		  "ticks": 72480,
		  "time": 58.451496,
		  "velocity": 0.7480314960629921
		},
		{
		  "duration": 0.19354799999999983,
		  "durationTicks": 240,
		  "midi": 51,
		  "name": "D#3",
		  "ticks": 72720,
		  "time": 58.645044,
		  "velocity": 0.7480314960629921
		},
		{
		  "duration": 0.19354799999999983,
		  "durationTicks": 240,
		  "midi": 44,
		  "name": "G#2",
		  "ticks": 72720,
		  "time": 58.645044,
		  "velocity": 0.7480314960629921
		},
		{
		  "duration": 0.19354799999999983,
		  "durationTicks": 240,
		  "midi": 49,
		  "name": "C#3",
		  "ticks": 72960,
		  "time": 58.838592,
		  "velocity": 0.7480314960629921
		},
		{
		  "duration": 0.19354799999999983,
		  "durationTicks": 240,
		  "midi": 42,
		  "name": "F#2",
		  "ticks": 72960,
		  "time": 58.838592,
		  "velocity": 0.7480314960629921
		},
		{
		  "duration": 0.19354799999999983,
		  "durationTicks": 240,
		  "midi": 49,
		  "name": "C#3",
		  "ticks": 73200,
		  "time": 59.03214,
		  "velocity": 0.7480314960629921
		},
		{
		  "duration": 0.19354799999999983,
		  "durationTicks": 240,
		  "midi": 42,
		  "name": "F#2",
		  "ticks": 73200,
		  "time": 59.03214,
		  "velocity": 0.7480314960629921
		},
		{
		  "duration": 0.19354799999999983,
		  "durationTicks": 240,
		  "midi": 49,
		  "name": "C#3",
		  "ticks": 73440,
		  "time": 59.225688,
		  "velocity": 0.7480314960629921
		},
		{
		  "duration": 0.19354799999999983,
		  "durationTicks": 240,
		  "midi": 42,
		  "name": "F#2",
		  "ticks": 73440,
		  "time": 59.225688,
		  "velocity": 0.7480314960629921
		},
		{
		  "duration": 0.19354799999999983,
		  "durationTicks": 240,
		  "midi": 49,
		  "name": "C#3",
		  "ticks": 73680,
		  "time": 59.419236,
		  "velocity": 0.7480314960629921
		},
		{
		  "duration": 0.19354799999999983,
		  "durationTicks": 240,
		  "midi": 42,
		  "name": "F#2",
		  "ticks": 73680,
		  "time": 59.419236,
		  "velocity": 0.7480314960629921
		},
		{
		  "duration": 0.19354799999999983,
		  "durationTicks": 240,
		  "midi": 49,
		  "name": "C#3",
		  "ticks": 73920,
		  "time": 59.612784,
		  "velocity": 0.7480314960629921
		},
		{
		  "duration": 0.19354799999999983,
		  "durationTicks": 240,
		  "midi": 42,
		  "name": "F#2",
		  "ticks": 73920,
		  "time": 59.612784,
		  "velocity": 0.7480314960629921
		},
		{
		  "duration": 0.19354799999999983,
		  "durationTicks": 240,
		  "midi": 49,
		  "name": "C#3",
		  "ticks": 74160,
		  "time": 59.806332,
		  "velocity": 0.7480314960629921
		},
		{
		  "duration": 0.19354799999999983,
		  "durationTicks": 240,
		  "midi": 42,
		  "name": "F#2",
		  "ticks": 74160,
		  "time": 59.806332,
		  "velocity": 0.7480314960629921
		},
		{
		  "duration": 0.19354799999999983,
		  "durationTicks": 240,
		  "midi": 49,
		  "name": "C#3",
		  "ticks": 74400,
		  "time": 59.99988,
		  "velocity": 0.7480314960629921
		},
		{
		  "duration": 0.19354799999999983,
		  "durationTicks": 240,
		  "midi": 42,
		  "name": "F#2",
		  "ticks": 74400,
		  "time": 59.99988,
		  "velocity": 0.7480314960629921
		},
		{
		  "duration": 0.19354799999999983,
		  "durationTicks": 240,
		  "midi": 49,
		  "name": "C#3",
		  "ticks": 74640,
		  "time": 60.193428,
		  "velocity": 0.7480314960629921
		},
		{
		  "duration": 0.19354799999999983,
		  "durationTicks": 240,
		  "midi": 42,
		  "name": "F#2",
		  "ticks": 74640,
		  "time": 60.193428,
		  "velocity": 0.7480314960629921
		},
		{
		  "duration": 0.19354799999999983,
		  "durationTicks": 240,
		  "midi": 48,
		  "name": "C3",
		  "ticks": 74880,
		  "time": 60.386976,
		  "velocity": 0.7480314960629921
		},
		{
		  "duration": 0.19354799999999983,
		  "durationTicks": 240,
		  "midi": 41,
		  "name": "F2",
		  "ticks": 74880,
		  "time": 60.386976,
		  "velocity": 0.7480314960629921
		},
		{
		  "duration": 0.19354799999999983,
		  "durationTicks": 240,
		  "midi": 48,
		  "name": "C3",
		  "ticks": 75120,
		  "time": 60.580524,
		  "velocity": 0.7480314960629921
		},
		{
		  "duration": 0.19354799999999983,
		  "durationTicks": 240,
		  "midi": 41,
		  "name": "F2",
		  "ticks": 75120,
		  "time": 60.580524,
		  "velocity": 0.7480314960629921
		},
		{
		  "duration": 0.19354799999999983,
		  "durationTicks": 240,
		  "midi": 48,
		  "name": "C3",
		  "ticks": 75360,
		  "time": 60.774072,
		  "velocity": 0.7480314960629921
		},
		{
		  "duration": 0.19354799999999983,
		  "durationTicks": 240,
		  "midi": 41,
		  "name": "F2",
		  "ticks": 75360,
		  "time": 60.774072,
		  "velocity": 0.7480314960629921
		},
		{
		  "duration": 0.19354799999999983,
		  "durationTicks": 240,
		  "midi": 48,
		  "name": "C3",
		  "ticks": 75600,
		  "time": 60.96762,
		  "velocity": 0.7480314960629921
		},
		{
		  "duration": 0.19354799999999983,
		  "durationTicks": 240,
		  "midi": 41,
		  "name": "F2",
		  "ticks": 75600,
		  "time": 60.96762,
		  "velocity": 0.7480314960629921
		},
		{
		  "duration": 0.19354799999999983,
		  "durationTicks": 240,
		  "midi": 48,
		  "name": "C3",
		  "ticks": 75840,
		  "time": 61.161167999999996,
		  "velocity": 0.7480314960629921
		},
		{
		  "duration": 0.19354799999999983,
		  "durationTicks": 240,
		  "midi": 41,
		  "name": "F2",
		  "ticks": 75840,
		  "time": 61.161167999999996,
		  "velocity": 0.7480314960629921
		},
		{
		  "duration": 0.19354799999999983,
		  "durationTicks": 240,
		  "midi": 48,
		  "name": "C3",
		  "ticks": 76080,
		  "time": 61.354715999999996,
		  "velocity": 0.7480314960629921
		},
		{
		  "duration": 0.19354799999999983,
		  "durationTicks": 240,
		  "midi": 41,
		  "name": "F2",
		  "ticks": 76080,
		  "time": 61.354715999999996,
		  "velocity": 0.7480314960629921
		},
		{
		  "duration": 0.19354799999999983,
		  "durationTicks": 240,
		  "midi": 48,
		  "name": "C3",
		  "ticks": 76320,
		  "time": 61.548263999999996,
		  "velocity": 0.7480314960629921
		},
		{
		  "duration": 0.19354799999999983,
		  "durationTicks": 240,
		  "midi": 41,
		  "name": "F2",
		  "ticks": 76320,
		  "time": 61.548263999999996,
		  "velocity": 0.7480314960629921
		},
		{
		  "duration": 0.19354800000000694,
		  "durationTicks": 240,
		  "midi": 48,
		  "name": "C3",
		  "ticks": 76560,
		  "time": 61.741811999999996,
		  "velocity": 0.7480314960629921
		},
		{
		  "duration": 0.19354800000000694,
		  "durationTicks": 240,
		  "midi": 41,
		  "name": "F2",
		  "ticks": 76560,
		  "time": 61.741811999999996,
		  "velocity": 0.7480314960629921
		},
		{
		  "duration": 0.19354799999999983,
		  "durationTicks": 240,
		  "midi": 53,
		  "name": "F3",
		  "ticks": 76800,
		  "time": 61.93536,
		  "velocity": 0.7480314960629921
		},
		{
		  "duration": 0.19354799999999983,
		  "durationTicks": 240,
		  "midi": 46,
		  "name": "A#2",
		  "ticks": 76800,
		  "time": 61.93536,
		  "velocity": 0.7480314960629921
		},
		{
		  "duration": 0.19354799999999983,
		  "durationTicks": 240,
		  "midi": 53,
		  "name": "F3",
		  "ticks": 77040,
		  "time": 62.128908,
		  "velocity": 0.7480314960629921
		},
		{
		  "duration": 0.19354799999999983,
		  "durationTicks": 240,
		  "midi": 46,
		  "name": "A#2",
		  "ticks": 77040,
		  "time": 62.128908,
		  "velocity": 0.7480314960629921
		},
		{
		  "duration": 0.19354799999999983,
		  "durationTicks": 240,
		  "midi": 53,
		  "name": "F3",
		  "ticks": 77280,
		  "time": 62.322456,
		  "velocity": 0.7480314960629921
		},
		{
		  "duration": 0.19354799999999983,
		  "durationTicks": 240,
		  "midi": 46,
		  "name": "A#2",
		  "ticks": 77280,
		  "time": 62.322456,
		  "velocity": 0.7480314960629921
		},
		{
		  "duration": 0.19354799999999983,
		  "durationTicks": 240,
		  "midi": 53,
		  "name": "F3",
		  "ticks": 77520,
		  "time": 62.516004,
		  "velocity": 0.7480314960629921
		},
		{
		  "duration": 0.19354799999999983,
		  "durationTicks": 240,
		  "midi": 46,
		  "name": "A#2",
		  "ticks": 77520,
		  "time": 62.516004,
		  "velocity": 0.7480314960629921
		},
		{
		  "duration": 0.19354799999999983,
		  "durationTicks": 240,
		  "midi": 53,
		  "name": "F3",
		  "ticks": 77760,
		  "time": 62.709552,
		  "velocity": 0.7480314960629921
		},
		{
		  "duration": 0.19354799999999983,
		  "durationTicks": 240,
		  "midi": 46,
		  "name": "A#2",
		  "ticks": 77760,
		  "time": 62.709552,
		  "velocity": 0.7480314960629921
		},
		{
		  "duration": 0.19354799999999983,
		  "durationTicks": 240,
		  "midi": 51,
		  "name": "D#3",
		  "ticks": 78000,
		  "time": 62.9031,
		  "velocity": 0.7480314960629921
		},
		{
		  "duration": 0.19354799999999983,
		  "durationTicks": 240,
		  "midi": 44,
		  "name": "G#2",
		  "ticks": 78000,
		  "time": 62.9031,
		  "velocity": 0.7480314960629921
		},
		{
		  "duration": 0.19354799999999983,
		  "durationTicks": 240,
		  "midi": 51,
		  "name": "D#3",
		  "ticks": 78240,
		  "time": 63.096648,
		  "velocity": 0.7480314960629921
		},
		{
		  "duration": 0.19354799999999983,
		  "durationTicks": 240,
		  "midi": 44,
		  "name": "G#2",
		  "ticks": 78240,
		  "time": 63.096648,
		  "velocity": 0.7480314960629921
		},
		{
		  "duration": 0.19354799999999983,
		  "durationTicks": 240,
		  "midi": 51,
		  "name": "D#3",
		  "ticks": 78480,
		  "time": 63.290196,
		  "velocity": 0.7480314960629921
		},
		{
		  "duration": 0.19354799999999983,
		  "durationTicks": 240,
		  "midi": 44,
		  "name": "G#2",
		  "ticks": 78480,
		  "time": 63.290196,
		  "velocity": 0.7480314960629921
		},
		{
		  "duration": 0.19354799999999983,
		  "durationTicks": 240,
		  "midi": 53,
		  "name": "F3",
		  "ticks": 78720,
		  "time": 63.483744,
		  "velocity": 0.7480314960629921
		},
		{
		  "duration": 0.19354799999999983,
		  "durationTicks": 240,
		  "midi": 46,
		  "name": "A#2",
		  "ticks": 78720,
		  "time": 63.483744,
		  "velocity": 0.7480314960629921
		},
		{
		  "duration": 0.19354799999999983,
		  "durationTicks": 240,
		  "midi": 53,
		  "name": "F3",
		  "ticks": 78960,
		  "time": 63.677292,
		  "velocity": 0.7480314960629921
		},
		{
		  "duration": 0.19354799999999983,
		  "durationTicks": 240,
		  "midi": 46,
		  "name": "A#2",
		  "ticks": 78960,
		  "time": 63.677292,
		  "velocity": 0.7480314960629921
		},
		{
		  "duration": 0.19354799999999273,
		  "durationTicks": 240,
		  "midi": 53,
		  "name": "F3",
		  "ticks": 79200,
		  "time": 63.87084,
		  "velocity": 0.7480314960629921
		},
		{
		  "duration": 0.19354799999999273,
		  "durationTicks": 240,
		  "midi": 46,
		  "name": "A#2",
		  "ticks": 79200,
		  "time": 63.87084,
		  "velocity": 0.7480314960629921
		},
		{
		  "duration": 0.19354800000000694,
		  "durationTicks": 240,
		  "midi": 53,
		  "name": "F3",
		  "ticks": 79440,
		  "time": 64.064388,
		  "velocity": 0.7480314960629921
		},
		{
		  "duration": 0.19354800000000694,
		  "durationTicks": 240,
		  "midi": 46,
		  "name": "A#2",
		  "ticks": 79440,
		  "time": 64.064388,
		  "velocity": 0.7480314960629921
		},
		{
		  "duration": 0.19354799999999273,
		  "durationTicks": 240,
		  "midi": 53,
		  "name": "F3",
		  "ticks": 79680,
		  "time": 64.257936,
		  "velocity": 0.7480314960629921
		},
		{
		  "duration": 0.19354799999999273,
		  "durationTicks": 240,
		  "midi": 46,
		  "name": "A#2",
		  "ticks": 79680,
		  "time": 64.257936,
		  "velocity": 0.7480314960629921
		},
		{
		  "duration": 0.19354800000000694,
		  "durationTicks": 240,
		  "midi": 53,
		  "name": "F3",
		  "ticks": 79920,
		  "time": 64.451484,
		  "velocity": 0.7480314960629921
		},
		{
		  "duration": 0.19354800000000694,
		  "durationTicks": 240,
		  "midi": 46,
		  "name": "A#2",
		  "ticks": 79920,
		  "time": 64.451484,
		  "velocity": 0.7480314960629921
		},
		{
		  "duration": 0.19354799999999273,
		  "durationTicks": 240,
		  "midi": 53,
		  "name": "F3",
		  "ticks": 80160,
		  "time": 64.645032,
		  "velocity": 0.7480314960629921
		},
		{
		  "duration": 0.19354799999999273,
		  "durationTicks": 240,
		  "midi": 46,
		  "name": "A#2",
		  "ticks": 80160,
		  "time": 64.645032,
		  "velocity": 0.7480314960629921
		},
		{
		  "duration": 0.19354800000000694,
		  "durationTicks": 240,
		  "midi": 53,
		  "name": "F3",
		  "ticks": 80400,
		  "time": 64.83858,
		  "velocity": 0.7480314960629921
		},
		{
		  "duration": 0.19354800000000694,
		  "durationTicks": 240,
		  "midi": 46,
		  "name": "A#2",
		  "ticks": 80400,
		  "time": 64.83858,
		  "velocity": 0.7480314960629921
		},
		{
		  "duration": 0.19354799999999273,
		  "durationTicks": 240,
		  "midi": 53,
		  "name": "F3",
		  "ticks": 80640,
		  "time": 65.032128,
		  "velocity": 0.7480314960629921
		},
		{
		  "duration": 0.19354799999999273,
		  "durationTicks": 240,
		  "midi": 46,
		  "name": "A#2",
		  "ticks": 80640,
		  "time": 65.032128,
		  "velocity": 0.7480314960629921
		},
		{
		  "duration": 0.19354800000000694,
		  "durationTicks": 240,
		  "midi": 53,
		  "name": "F3",
		  "ticks": 80880,
		  "time": 65.22567599999999,
		  "velocity": 0.7480314960629921
		},
		{
		  "duration": 0.19354800000000694,
		  "durationTicks": 240,
		  "midi": 46,
		  "name": "A#2",
		  "ticks": 80880,
		  "time": 65.22567599999999,
		  "velocity": 0.7480314960629921
		},
		{
		  "duration": 0.19354799999999273,
		  "durationTicks": 240,
		  "midi": 53,
		  "name": "F3",
		  "ticks": 81120,
		  "time": 65.419224,
		  "velocity": 0.7480314960629921
		},
		{
		  "duration": 0.19354799999999273,
		  "durationTicks": 240,
		  "midi": 46,
		  "name": "A#2",
		  "ticks": 81120,
		  "time": 65.419224,
		  "velocity": 0.7480314960629921
		},
		{
		  "duration": 0.19354800000000694,
		  "durationTicks": 240,
		  "midi": 53,
		  "name": "F3",
		  "ticks": 81360,
		  "time": 65.61277199999999,
		  "velocity": 0.7480314960629921
		},
		{
		  "duration": 0.19354800000000694,
		  "durationTicks": 240,
		  "midi": 46,
		  "name": "A#2",
		  "ticks": 81360,
		  "time": 65.61277199999999,
		  "velocity": 0.7480314960629921
		},
		{
		  "duration": 0.19354799999999273,
		  "durationTicks": 240,
		  "midi": 53,
		  "name": "F3",
		  "ticks": 81600,
		  "time": 65.80632,
		  "velocity": 0.7480314960629921
		},
		{
		  "duration": 0.19354799999999273,
		  "durationTicks": 240,
		  "midi": 46,
		  "name": "A#2",
		  "ticks": 81600,
		  "time": 65.80632,
		  "velocity": 0.7480314960629921
		},
		{
		  "duration": 0.19354800000000694,
		  "durationTicks": 240,
		  "midi": 53,
		  "name": "F3",
		  "ticks": 81840,
		  "time": 65.99986799999999,
		  "velocity": 0.7480314960629921
		},
		{
		  "duration": 0.19354800000000694,
		  "durationTicks": 240,
		  "midi": 46,
		  "name": "A#2",
		  "ticks": 81840,
		  "time": 65.99986799999999,
		  "velocity": 0.7480314960629921
		},
		{
		  "duration": 0.19354800000000694,
		  "durationTicks": 240,
		  "midi": 53,
		  "name": "F3",
		  "ticks": 82080,
		  "time": 66.193416,
		  "velocity": 0.7480314960629921
		},
		{
		  "duration": 0.19354800000000694,
		  "durationTicks": 240,
		  "midi": 46,
		  "name": "A#2",
		  "ticks": 82080,
		  "time": 66.193416,
		  "velocity": 0.7480314960629921
		},
		{
		  "duration": 0.19354799999999273,
		  "durationTicks": 240,
		  "midi": 53,
		  "name": "F3",
		  "ticks": 82320,
		  "time": 66.386964,
		  "velocity": 0.7480314960629921
		},
		{
		  "duration": 0.19354799999999273,
		  "durationTicks": 240,
		  "midi": 46,
		  "name": "A#2",
		  "ticks": 82320,
		  "time": 66.386964,
		  "velocity": 0.7480314960629921
		},
		{
		  "duration": 0.19354800000000694,
		  "durationTicks": 240,
		  "midi": 51,
		  "name": "D#3",
		  "ticks": 82560,
		  "time": 66.580512,
		  "velocity": 0.7480314960629921
		},
		{
		  "duration": 0.19354800000000694,
		  "durationTicks": 240,
		  "midi": 44,
		  "name": "G#2",
		  "ticks": 82560,
		  "time": 66.580512,
		  "velocity": 0.7480314960629921
		},
		{
		  "duration": 0.19354799999999273,
		  "durationTicks": 240,
		  "midi": 51,
		  "name": "D#3",
		  "ticks": 82800,
		  "time": 66.77406,
		  "velocity": 0.7480314960629921
		},
		{
		  "duration": 0.19354799999999273,
		  "durationTicks": 240,
		  "midi": 44,
		  "name": "G#2",
		  "ticks": 82800,
		  "time": 66.77406,
		  "velocity": 0.7480314960629921
		},
		{
		  "duration": 0.19354800000000694,
		  "durationTicks": 240,
		  "midi": 51,
		  "name": "D#3",
		  "ticks": 83040,
		  "time": 66.967608,
		  "velocity": 0.7480314960629921
		},
		{
		  "duration": 0.19354800000000694,
		  "durationTicks": 240,
		  "midi": 44,
		  "name": "G#2",
		  "ticks": 83040,
		  "time": 66.967608,
		  "velocity": 0.7480314960629921
		},
		{
		  "duration": 0.19354799999999273,
		  "durationTicks": 240,
		  "midi": 51,
		  "name": "D#3",
		  "ticks": 83280,
		  "time": 67.161156,
		  "velocity": 0.7480314960629921
		},
		{
		  "duration": 0.19354799999999273,
		  "durationTicks": 240,
		  "midi": 44,
		  "name": "G#2",
		  "ticks": 83280,
		  "time": 67.161156,
		  "velocity": 0.7480314960629921
		},
		{
		  "duration": 0.19354800000000694,
		  "durationTicks": 240,
		  "midi": 51,
		  "name": "D#3",
		  "ticks": 83520,
		  "time": 67.354704,
		  "velocity": 0.7480314960629921
		},
		{
		  "duration": 0.19354800000000694,
		  "durationTicks": 240,
		  "midi": 44,
		  "name": "G#2",
		  "ticks": 83520,
		  "time": 67.354704,
		  "velocity": 0.7480314960629921
		},
		{
		  "duration": 0.19354799999999273,
		  "durationTicks": 240,
		  "midi": 51,
		  "name": "D#3",
		  "ticks": 83760,
		  "time": 67.548252,
		  "velocity": 0.7480314960629921
		},
		{
		  "duration": 0.19354799999999273,
		  "durationTicks": 240,
		  "midi": 44,
		  "name": "G#2",
		  "ticks": 83760,
		  "time": 67.548252,
		  "velocity": 0.7480314960629921
		},
		{
		  "duration": 0.19354800000000694,
		  "durationTicks": 240,
		  "midi": 51,
		  "name": "D#3",
		  "ticks": 84000,
		  "time": 67.7418,
		  "velocity": 0.7480314960629921
		},
		{
		  "duration": 0.19354800000000694,
		  "durationTicks": 240,
		  "midi": 44,
		  "name": "G#2",
		  "ticks": 84000,
		  "time": 67.7418,
		  "velocity": 0.7480314960629921
		},
		{
		  "duration": 0.19354799999999273,
		  "durationTicks": 240,
		  "midi": 51,
		  "name": "D#3",
		  "ticks": 84240,
		  "time": 67.935348,
		  "velocity": 0.7480314960629921
		},
		{
		  "duration": 0.19354799999999273,
		  "durationTicks": 240,
		  "midi": 44,
		  "name": "G#2",
		  "ticks": 84240,
		  "time": 67.935348,
		  "velocity": 0.7480314960629921
		},
		{
		  "duration": 0.19354800000000694,
		  "durationTicks": 240,
		  "midi": 53,
		  "name": "F3",
		  "ticks": 84480,
		  "time": 68.128896,
		  "velocity": 0.7480314960629921
		},
		{
		  "duration": 0.19354800000000694,
		  "durationTicks": 240,
		  "midi": 46,
		  "name": "A#2",
		  "ticks": 84480,
		  "time": 68.128896,
		  "velocity": 0.7480314960629921
		},
		{
		  "duration": 0.19354799999999273,
		  "durationTicks": 240,
		  "midi": 53,
		  "name": "F3",
		  "ticks": 84720,
		  "time": 68.322444,
		  "velocity": 0.7480314960629921
		},
		{
		  "duration": 0.19354799999999273,
		  "durationTicks": 240,
		  "midi": 46,
		  "name": "A#2",
		  "ticks": 84720,
		  "time": 68.322444,
		  "velocity": 0.7480314960629921
		},
		{
		  "duration": 0.19354800000000694,
		  "durationTicks": 240,
		  "midi": 53,
		  "name": "F3",
		  "ticks": 84960,
		  "time": 68.515992,
		  "velocity": 0.7480314960629921
		},
		{
		  "duration": 0.19354800000000694,
		  "durationTicks": 240,
		  "midi": 46,
		  "name": "A#2",
		  "ticks": 84960,
		  "time": 68.515992,
		  "velocity": 0.7480314960629921
		},
		{
		  "duration": 0.19354799999999273,
		  "durationTicks": 240,
		  "midi": 53,
		  "name": "F3",
		  "ticks": 85200,
		  "time": 68.70954,
		  "velocity": 0.7480314960629921
		},
		{
		  "duration": 0.19354799999999273,
		  "durationTicks": 240,
		  "midi": 46,
		  "name": "A#2",
		  "ticks": 85200,
		  "time": 68.70954,
		  "velocity": 0.7480314960629921
		},
		{
		  "duration": 0.19354800000000694,
		  "durationTicks": 240,
		  "midi": 53,
		  "name": "F3",
		  "ticks": 85440,
		  "time": 68.903088,
		  "velocity": 0.7480314960629921
		},
		{
		  "duration": 0.19354800000000694,
		  "durationTicks": 240,
		  "midi": 46,
		  "name": "A#2",
		  "ticks": 85440,
		  "time": 68.903088,
		  "velocity": 0.7480314960629921
		},
		{
		  "duration": 0.19354799999999273,
		  "durationTicks": 240,
		  "midi": 53,
		  "name": "F3",
		  "ticks": 85680,
		  "time": 69.096636,
		  "velocity": 0.7480314960629921
		},
		{
		  "duration": 0.19354799999999273,
		  "durationTicks": 240,
		  "midi": 46,
		  "name": "A#2",
		  "ticks": 85680,
		  "time": 69.096636,
		  "velocity": 0.7480314960629921
		},
		{
		  "duration": 0.19354800000000694,
		  "durationTicks": 240,
		  "midi": 53,
		  "name": "F3",
		  "ticks": 85920,
		  "time": 69.290184,
		  "velocity": 0.7480314960629921
		},
		{
		  "duration": 0.19354800000000694,
		  "durationTicks": 240,
		  "midi": 46,
		  "name": "A#2",
		  "ticks": 85920,
		  "time": 69.290184,
		  "velocity": 0.7480314960629921
		},
		{
		  "duration": 0.19354799999999273,
		  "durationTicks": 240,
		  "midi": 53,
		  "name": "F3",
		  "ticks": 86160,
		  "time": 69.483732,
		  "velocity": 0.7480314960629921
		},
		{
		  "duration": 0.19354799999999273,
		  "durationTicks": 240,
		  "midi": 46,
		  "name": "A#2",
		  "ticks": 86160,
		  "time": 69.483732,
		  "velocity": 0.7480314960629921
		},
		{
		  "duration": 0.19354800000000694,
		  "durationTicks": 240,
		  "midi": 51,
		  "name": "D#3",
		  "ticks": 86400,
		  "time": 69.67728,
		  "velocity": 0.7480314960629921
		},
		{
		  "duration": 0.19354800000000694,
		  "durationTicks": 240,
		  "midi": 44,
		  "name": "G#2",
		  "ticks": 86400,
		  "time": 69.67728,
		  "velocity": 0.7480314960629921
		},
		{
		  "duration": 0.19354799999999273,
		  "durationTicks": 240,
		  "midi": 51,
		  "name": "D#3",
		  "ticks": 86640,
		  "time": 69.870828,
		  "velocity": 0.7480314960629921
		},
		{
		  "duration": 0.19354799999999273,
		  "durationTicks": 240,
		  "midi": 44,
		  "name": "G#2",
		  "ticks": 86640,
		  "time": 69.870828,
		  "velocity": 0.7480314960629921
		},
		{
		  "duration": 0.19354800000000694,
		  "durationTicks": 240,
		  "midi": 51,
		  "name": "D#3",
		  "ticks": 86880,
		  "time": 70.064376,
		  "velocity": 0.7480314960629921
		},
		{
		  "duration": 0.19354800000000694,
		  "durationTicks": 240,
		  "midi": 44,
		  "name": "G#2",
		  "ticks": 86880,
		  "time": 70.064376,
		  "velocity": 0.7480314960629921
		},
		{
		  "duration": 0.19354799999999273,
		  "durationTicks": 240,
		  "midi": 51,
		  "name": "D#3",
		  "ticks": 87120,
		  "time": 70.257924,
		  "velocity": 0.7480314960629921
		},
		{
		  "duration": 0.19354799999999273,
		  "durationTicks": 240,
		  "midi": 44,
		  "name": "G#2",
		  "ticks": 87120,
		  "time": 70.257924,
		  "velocity": 0.7480314960629921
		},
		{
		  "duration": 0.19354800000000694,
		  "durationTicks": 240,
		  "midi": 51,
		  "name": "D#3",
		  "ticks": 87360,
		  "time": 70.451472,
		  "velocity": 0.7480314960629921
		},
		{
		  "duration": 0.19354800000000694,
		  "durationTicks": 240,
		  "midi": 44,
		  "name": "G#2",
		  "ticks": 87360,
		  "time": 70.451472,
		  "velocity": 0.7480314960629921
		},
		{
		  "duration": 0.19354799999999273,
		  "durationTicks": 240,
		  "midi": 51,
		  "name": "D#3",
		  "ticks": 87600,
		  "time": 70.64502,
		  "velocity": 0.7480314960629921
		},
		{
		  "duration": 0.19354799999999273,
		  "durationTicks": 240,
		  "midi": 44,
		  "name": "G#2",
		  "ticks": 87600,
		  "time": 70.64502,
		  "velocity": 0.7480314960629921
		},
		{
		  "duration": 0.19354800000000694,
		  "durationTicks": 240,
		  "midi": 51,
		  "name": "D#3",
		  "ticks": 87840,
		  "time": 70.838568,
		  "velocity": 0.7480314960629921
		},
		{
		  "duration": 0.19354800000000694,
		  "durationTicks": 240,
		  "midi": 44,
		  "name": "G#2",
		  "ticks": 87840,
		  "time": 70.838568,
		  "velocity": 0.7480314960629921
		},
		{
		  "duration": 0.19354799999999273,
		  "durationTicks": 240,
		  "midi": 51,
		  "name": "D#3",
		  "ticks": 88080,
		  "time": 71.032116,
		  "velocity": 0.7480314960629921
		},
		{
		  "duration": 0.19354799999999273,
		  "durationTicks": 240,
		  "midi": 44,
		  "name": "G#2",
		  "ticks": 88080,
		  "time": 71.032116,
		  "velocity": 0.7480314960629921
		},
		{
		  "duration": 0.19354800000000694,
		  "durationTicks": 240,
		  "midi": 49,
		  "name": "C#3",
		  "ticks": 88320,
		  "time": 71.225664,
		  "velocity": 0.7480314960629921
		},
		{
		  "duration": 0.19354800000000694,
		  "durationTicks": 240,
		  "midi": 42,
		  "name": "F#2",
		  "ticks": 88320,
		  "time": 71.225664,
		  "velocity": 0.7480314960629921
		},
		{
		  "duration": 0.19354799999999273,
		  "durationTicks": 240,
		  "midi": 49,
		  "name": "C#3",
		  "ticks": 88560,
		  "time": 71.419212,
		  "velocity": 0.7480314960629921
		},
		{
		  "duration": 0.19354799999999273,
		  "durationTicks": 240,
		  "midi": 42,
		  "name": "F#2",
		  "ticks": 88560,
		  "time": 71.419212,
		  "velocity": 0.7480314960629921
		},
		{
		  "duration": 0.19354800000000694,
		  "durationTicks": 240,
		  "midi": 49,
		  "name": "C#3",
		  "ticks": 88800,
		  "time": 71.61276,
		  "velocity": 0.7480314960629921
		},
		{
		  "duration": 0.19354800000000694,
		  "durationTicks": 240,
		  "midi": 42,
		  "name": "F#2",
		  "ticks": 88800,
		  "time": 71.61276,
		  "velocity": 0.7480314960629921
		},
		{
		  "duration": 0.19354799999999273,
		  "durationTicks": 240,
		  "midi": 49,
		  "name": "C#3",
		  "ticks": 89040,
		  "time": 71.806308,
		  "velocity": 0.7480314960629921
		},
		{
		  "duration": 0.19354799999999273,
		  "durationTicks": 240,
		  "midi": 42,
		  "name": "F#2",
		  "ticks": 89040,
		  "time": 71.806308,
		  "velocity": 0.7480314960629921
		},
		{
		  "duration": 0.19354800000000694,
		  "durationTicks": 240,
		  "midi": 49,
		  "name": "C#3",
		  "ticks": 89280,
		  "time": 71.999856,
		  "velocity": 0.7480314960629921
		},
		{
		  "duration": 0.19354800000000694,
		  "durationTicks": 240,
		  "midi": 42,
		  "name": "F#2",
		  "ticks": 89280,
		  "time": 71.999856,
		  "velocity": 0.7480314960629921
		},
		{
		  "duration": 0.19354799999999273,
		  "durationTicks": 240,
		  "midi": 49,
		  "name": "C#3",
		  "ticks": 89520,
		  "time": 72.193404,
		  "velocity": 0.7480314960629921
		},
		{
		  "duration": 0.19354799999999273,
		  "durationTicks": 240,
		  "midi": 42,
		  "name": "F#2",
		  "ticks": 89520,
		  "time": 72.193404,
		  "velocity": 0.7480314960629921
		},
		{
		  "duration": 0.19354800000000694,
		  "durationTicks": 240,
		  "midi": 49,
		  "name": "C#3",
		  "ticks": 89760,
		  "time": 72.386952,
		  "velocity": 0.7480314960629921
		},
		{
		  "duration": 0.19354800000000694,
		  "durationTicks": 240,
		  "midi": 42,
		  "name": "F#2",
		  "ticks": 89760,
		  "time": 72.386952,
		  "velocity": 0.7480314960629921
		},
		{
		  "duration": 0.19354799999999273,
		  "durationTicks": 240,
		  "midi": 49,
		  "name": "C#3",
		  "ticks": 90000,
		  "time": 72.5805,
		  "velocity": 0.7480314960629921
		},
		{
		  "duration": 0.19354799999999273,
		  "durationTicks": 240,
		  "midi": 42,
		  "name": "F#2",
		  "ticks": 90000,
		  "time": 72.5805,
		  "velocity": 0.7480314960629921
		},
		{
		  "duration": 0.19354800000000694,
		  "durationTicks": 240,
		  "midi": 48,
		  "name": "C3",
		  "ticks": 90240,
		  "time": 72.774048,
		  "velocity": 0.7480314960629921
		},
		{
		  "duration": 0.19354800000000694,
		  "durationTicks": 240,
		  "midi": 41,
		  "name": "F2",
		  "ticks": 90240,
		  "time": 72.774048,
		  "velocity": 0.7480314960629921
		},
		{
		  "duration": 0.19354799999999273,
		  "durationTicks": 240,
		  "midi": 48,
		  "name": "C3",
		  "ticks": 90480,
		  "time": 72.967596,
		  "velocity": 0.7480314960629921
		},
		{
		  "duration": 0.19354799999999273,
		  "durationTicks": 240,
		  "midi": 41,
		  "name": "F2",
		  "ticks": 90480,
		  "time": 72.967596,
		  "velocity": 0.7480314960629921
		},
		{
		  "duration": 0.19354800000000694,
		  "durationTicks": 240,
		  "midi": 48,
		  "name": "C3",
		  "ticks": 90720,
		  "time": 73.161144,
		  "velocity": 0.7480314960629921
		},
		{
		  "duration": 0.19354800000000694,
		  "durationTicks": 240,
		  "midi": 41,
		  "name": "F2",
		  "ticks": 90720,
		  "time": 73.161144,
		  "velocity": 0.7480314960629921
		},
		{
		  "duration": 0.19354799999999273,
		  "durationTicks": 240,
		  "midi": 48,
		  "name": "C3",
		  "ticks": 90960,
		  "time": 73.354692,
		  "velocity": 0.7480314960629921
		},
		{
		  "duration": 0.19354799999999273,
		  "durationTicks": 240,
		  "midi": 41,
		  "name": "F2",
		  "ticks": 90960,
		  "time": 73.354692,
		  "velocity": 0.7480314960629921
		},
		{
		  "duration": 0.19354800000000694,
		  "durationTicks": 240,
		  "midi": 48,
		  "name": "C3",
		  "ticks": 91200,
		  "time": 73.54823999999999,
		  "velocity": 0.7480314960629921
		},
		{
		  "duration": 0.19354800000000694,
		  "durationTicks": 240,
		  "midi": 41,
		  "name": "F2",
		  "ticks": 91200,
		  "time": 73.54823999999999,
		  "velocity": 0.7480314960629921
		},
		{
		  "duration": 0.19354799999999273,
		  "durationTicks": 240,
		  "midi": 48,
		  "name": "C3",
		  "ticks": 91440,
		  "time": 73.741788,
		  "velocity": 0.7480314960629921
		},
		{
		  "duration": 0.19354799999999273,
		  "durationTicks": 240,
		  "midi": 41,
		  "name": "F2",
		  "ticks": 91440,
		  "time": 73.741788,
		  "velocity": 0.7480314960629921
		},
		{
		  "duration": 0.19354800000000694,
		  "durationTicks": 240,
		  "midi": 48,
		  "name": "C3",
		  "ticks": 91680,
		  "time": 73.93533599999999,
		  "velocity": 0.7480314960629921
		},
		{
		  "duration": 0.19354800000000694,
		  "durationTicks": 240,
		  "midi": 41,
		  "name": "F2",
		  "ticks": 91680,
		  "time": 73.93533599999999,
		  "velocity": 0.7480314960629921
		},
		{
		  "duration": 0.19354799999999273,
		  "durationTicks": 240,
		  "midi": 48,
		  "name": "C3",
		  "ticks": 91920,
		  "time": 74.128884,
		  "velocity": 0.7480314960629921
		},
		{
		  "duration": 0.19354799999999273,
		  "durationTicks": 240,
		  "midi": 41,
		  "name": "F2",
		  "ticks": 91920,
		  "time": 74.128884,
		  "velocity": 0.7480314960629921
		},
		{
		  "duration": 0.19354800000000694,
		  "durationTicks": 240,
		  "midi": 53,
		  "name": "F3",
		  "ticks": 92160,
		  "time": 74.32243199999999,
		  "velocity": 0.7480314960629921
		},
		{
		  "duration": 0.19354800000000694,
		  "durationTicks": 240,
		  "midi": 46,
		  "name": "A#2",
		  "ticks": 92160,
		  "time": 74.32243199999999,
		  "velocity": 0.7480314960629921
		},
		{
		  "duration": 0.19354800000000694,
		  "durationTicks": 240,
		  "midi": 53,
		  "name": "F3",
		  "ticks": 92400,
		  "time": 74.51598,
		  "velocity": 0.7480314960629921
		},
		{
		  "duration": 0.19354800000000694,
		  "durationTicks": 240,
		  "midi": 46,
		  "name": "A#2",
		  "ticks": 92400,
		  "time": 74.51598,
		  "velocity": 0.7480314960629921
		},
		{
		  "duration": 0.19354800000000694,
		  "durationTicks": 240,
		  "midi": 53,
		  "name": "F3",
		  "ticks": 92880,
		  "time": 74.903076,
		  "velocity": 0.7480314960629921
		},
		{
		  "duration": 0.19354800000000694,
		  "durationTicks": 240,
		  "midi": 46,
		  "name": "A#2",
		  "ticks": 92880,
		  "time": 74.903076,
		  "velocity": 0.7480314960629921
		},
		{
		  "duration": 0.19354799999999273,
		  "durationTicks": 240,
		  "midi": 53,
		  "name": "F3",
		  "ticks": 93120,
		  "time": 75.096624,
		  "velocity": 0.7480314960629921
		},
		{
		  "duration": 0.19354799999999273,
		  "durationTicks": 240,
		  "midi": 46,
		  "name": "A#2",
		  "ticks": 93120,
		  "time": 75.096624,
		  "velocity": 0.7480314960629921
		},
		{
		  "duration": 0.19354799999999273,
		  "durationTicks": 240,
		  "midi": 53,
		  "name": "F3",
		  "ticks": 93600,
		  "time": 75.48372,
		  "velocity": 0.7480314960629921
		},
		{
		  "duration": 0.19354799999999273,
		  "durationTicks": 240,
		  "midi": 46,
		  "name": "A#2",
		  "ticks": 93600,
		  "time": 75.48372,
		  "velocity": 0.7480314960629921
		},
		{
		  "duration": 0.19354800000000694,
		  "durationTicks": 240,
		  "midi": 53,
		  "name": "F3",
		  "ticks": 93840,
		  "time": 75.677268,
		  "velocity": 0.7480314960629921
		},
		{
		  "duration": 0.19354800000000694,
		  "durationTicks": 240,
		  "midi": 46,
		  "name": "A#2",
		  "ticks": 93840,
		  "time": 75.677268,
		  "velocity": 0.7480314960629921
		},
		{
		  "duration": 0.19354800000000694,
		  "durationTicks": 240,
		  "midi": 53,
		  "name": "F3",
		  "ticks": 94320,
		  "time": 76.064364,
		  "velocity": 0.7480314960629921
		},
		{
		  "duration": 0.19354800000000694,
		  "durationTicks": 240,
		  "midi": 46,
		  "name": "A#2",
		  "ticks": 94320,
		  "time": 76.064364,
		  "velocity": 0.7480314960629921
		},
		{
		  "duration": 0.19354799999999273,
		  "durationTicks": 240,
		  "midi": 53,
		  "name": "F3",
		  "ticks": 94560,
		  "time": 76.257912,
		  "velocity": 0.7480314960629921
		},
		{
		  "duration": 0.19354799999999273,
		  "durationTicks": 240,
		  "midi": 46,
		  "name": "A#2",
		  "ticks": 94560,
		  "time": 76.257912,
		  "velocity": 0.7480314960629921
		},
		{
		  "duration": 0.19354799999999273,
		  "durationTicks": 240,
		  "midi": 53,
		  "name": "F3",
		  "ticks": 95040,
		  "time": 76.645008,
		  "velocity": 0.7480314960629921
		},
		{
		  "duration": 0.19354799999999273,
		  "durationTicks": 240,
		  "midi": 46,
		  "name": "A#2",
		  "ticks": 95040,
		  "time": 76.645008,
		  "velocity": 0.7480314960629921
		},
		{
		  "duration": 0.07258050000000082,
		  "durationTicks": 90,
		  "midi": 46,
		  "name": "A#2",
		  "ticks": 95280,
		  "time": 76.838556,
		  "velocity": 0.5984251968503937
		},
		{
		  "duration": 0.07258050000000082,
		  "durationTicks": 90,
		  "midi": 46,
		  "name": "A#2",
		  "ticks": 95400,
		  "time": 76.93533,
		  "velocity": 0.5984251968503937
		},
		{
		  "duration": 0.38709599999999966,
		  "durationTicks": 480,
		  "midi": 51,
		  "name": "D#3",
		  "ticks": 95520,
		  "time": 77.032104,
		  "velocity": 0.7480314960629921
		},
		{
		  "duration": 0.38709599999999966,
		  "durationTicks": 480,
		  "midi": 44,
		  "name": "G#2",
		  "ticks": 95520,
		  "time": 77.032104,
		  "velocity": 0.7480314960629921
		},
		{
		  "duration": 0.19354799999999273,
		  "durationTicks": 240,
		  "midi": 53,
		  "name": "F3",
		  "ticks": 96000,
		  "time": 77.4192,
		  "velocity": 0.7480314960629921
		},
		{
		  "duration": 0.19354799999999273,
		  "durationTicks": 240,
		  "midi": 46,
		  "name": "A#2",
		  "ticks": 96000,
		  "time": 77.4192,
		  "velocity": 0.7480314960629921
		},
		{
		  "duration": 0.19354800000000694,
		  "durationTicks": 240,
		  "midi": 53,
		  "name": "F3",
		  "ticks": 96240,
		  "time": 77.612748,
		  "velocity": 0.7480314960629921
		},
		{
		  "duration": 0.19354800000000694,
		  "durationTicks": 240,
		  "midi": 46,
		  "name": "A#2",
		  "ticks": 96240,
		  "time": 77.612748,
		  "velocity": 0.7480314960629921
		},
		{
		  "duration": 0.19354800000000694,
		  "durationTicks": 240,
		  "midi": 53,
		  "name": "F3",
		  "ticks": 96720,
		  "time": 77.999844,
		  "velocity": 0.7480314960629921
		},
		{
		  "duration": 0.19354800000000694,
		  "durationTicks": 240,
		  "midi": 46,
		  "name": "A#2",
		  "ticks": 96720,
		  "time": 77.999844,
		  "velocity": 0.7480314960629921
		},
		{
		  "duration": 0.19354799999999273,
		  "durationTicks": 240,
		  "midi": 53,
		  "name": "F3",
		  "ticks": 96960,
		  "time": 78.193392,
		  "velocity": 0.7480314960629921
		},
		{
		  "duration": 0.19354799999999273,
		  "durationTicks": 240,
		  "midi": 46,
		  "name": "A#2",
		  "ticks": 96960,
		  "time": 78.193392,
		  "velocity": 0.7480314960629921
		},
		{
		  "duration": 0.19354799999999273,
		  "durationTicks": 240,
		  "midi": 53,
		  "name": "F3",
		  "ticks": 97440,
		  "time": 78.580488,
		  "velocity": 0.7480314960629921
		},
		{
		  "duration": 0.19354799999999273,
		  "durationTicks": 240,
		  "midi": 46,
		  "name": "A#2",
		  "ticks": 97440,
		  "time": 78.580488,
		  "velocity": 0.7480314960629921
		},
		{
		  "duration": 0.19354800000000694,
		  "durationTicks": 240,
		  "midi": 53,
		  "name": "F3",
		  "ticks": 97680,
		  "time": 78.774036,
		  "velocity": 0.7480314960629921
		},
		{
		  "duration": 0.19354800000000694,
		  "durationTicks": 240,
		  "midi": 46,
		  "name": "A#2",
		  "ticks": 97680,
		  "time": 78.774036,
		  "velocity": 0.7480314960629921
		},
		{
		  "duration": 0.19354800000000694,
		  "durationTicks": 240,
		  "midi": 53,
		  "name": "F3",
		  "ticks": 98160,
		  "time": 79.161132,
		  "velocity": 0.7480314960629921
		},
		{
		  "duration": 0.19354800000000694,
		  "durationTicks": 240,
		  "midi": 46,
		  "name": "A#2",
		  "ticks": 98160,
		  "time": 79.161132,
		  "velocity": 0.7480314960629921
		},
		{
		  "duration": 0.19354799999999273,
		  "durationTicks": 240,
		  "midi": 53,
		  "name": "F3",
		  "ticks": 98400,
		  "time": 79.35468,
		  "velocity": 0.7480314960629921
		},
		{
		  "duration": 0.19354799999999273,
		  "durationTicks": 240,
		  "midi": 46,
		  "name": "A#2",
		  "ticks": 98400,
		  "time": 79.35468,
		  "velocity": 0.7480314960629921
		},
		{
		  "duration": 0.07258050000000082,
		  "durationTicks": 90,
		  "midi": 46,
		  "name": "A#2",
		  "ticks": 98640,
		  "time": 79.548228,
		  "velocity": 0.5984251968503937
		},
		{
		  "duration": 0.07258050000000082,
		  "durationTicks": 90,
		  "midi": 46,
		  "name": "A#2",
		  "ticks": 98760,
		  "time": 79.645002,
		  "velocity": 0.5984251968503937
		},
		{
		  "duration": 0.38709599999999966,
		  "durationTicks": 480,
		  "midi": 56,
		  "name": "G#3",
		  "ticks": 98880,
		  "time": 79.741776,
		  "velocity": 0.7480314960629921
		},
		{
		  "duration": 0.38709599999999966,
		  "durationTicks": 480,
		  "midi": 49,
		  "name": "C#3",
		  "ticks": 98880,
		  "time": 79.741776,
		  "velocity": 0.7480314960629921
		},
		{
		  "duration": 0.38709599999999966,
		  "durationTicks": 480,
		  "midi": 51,
		  "name": "D#3",
		  "ticks": 99360,
		  "time": 80.128872,
		  "velocity": 0.7480314960629921
		},
		{
		  "duration": 0.38709599999999966,
		  "durationTicks": 480,
		  "midi": 44,
		  "name": "G#2",
		  "ticks": 99360,
		  "time": 80.128872,
		  "velocity": 0.7480314960629921
		},
		{
		  "duration": 0.19354799999999273,
		  "durationTicks": 240,
		  "midi": 51,
		  "name": "D#3",
		  "ticks": 99840,
		  "time": 80.515968,
		  "velocity": 0.7480314960629921
		},
		{
		  "duration": 0.19354799999999273,
		  "durationTicks": 240,
		  "midi": 44,
		  "name": "G#2",
		  "ticks": 99840,
		  "time": 80.515968,
		  "velocity": 0.7480314960629921
		},
		{
		  "duration": 0.19354800000000694,
		  "durationTicks": 240,
		  "midi": 53,
		  "name": "F3",
		  "ticks": 100080,
		  "time": 80.709516,
		  "velocity": 0.7480314960629921
		},
		{
		  "duration": 0.19354800000000694,
		  "durationTicks": 240,
		  "midi": 46,
		  "name": "A#2",
		  "ticks": 100080,
		  "time": 80.709516,
		  "velocity": 0.7480314960629921
		},
		{
		  "duration": 0.19354800000000694,
		  "durationTicks": 240,
		  "midi": 53,
		  "name": "F3",
		  "ticks": 100560,
		  "time": 81.096612,
		  "velocity": 0.7480314960629921
		},
		{
		  "duration": 0.19354800000000694,
		  "durationTicks": 240,
		  "midi": 46,
		  "name": "A#2",
		  "ticks": 100560,
		  "time": 81.096612,
		  "velocity": 0.7480314960629921
		},
		{
		  "duration": 0.19354800000000694,
		  "durationTicks": 240,
		  "midi": 53,
		  "name": "F3",
		  "ticks": 101040,
		  "time": 81.483708,
		  "velocity": 0.7480314960629921
		},
		{
		  "duration": 0.19354800000000694,
		  "durationTicks": 240,
		  "midi": 46,
		  "name": "A#2",
		  "ticks": 101040,
		  "time": 81.483708,
		  "velocity": 0.7480314960629921
		},
		{
		  "duration": 0.19354800000000694,
		  "durationTicks": 240,
		  "midi": 53,
		  "name": "F3",
		  "ticks": 101520,
		  "time": 81.87080399999999,
		  "velocity": 0.7480314960629921
		},
		{
		  "duration": 0.19354800000000694,
		  "durationTicks": 240,
		  "midi": 46,
		  "name": "A#2",
		  "ticks": 101520,
		  "time": 81.87080399999999,
		  "velocity": 0.7480314960629921
		},
		{
		  "duration": 0.19354799999999273,
		  "durationTicks": 240,
		  "midi": 53,
		  "name": "F3",
		  "ticks": 101760,
		  "time": 82.064352,
		  "velocity": 0.7480314960629921
		},
		{
		  "duration": 0.19354799999999273,
		  "durationTicks": 240,
		  "midi": 46,
		  "name": "A#2",
		  "ticks": 101760,
		  "time": 82.064352,
		  "velocity": 0.7480314960629921
		},
		{
		  "duration": 0.19354800000000694,
		  "durationTicks": 240,
		  "midi": 54,
		  "name": "F#3",
		  "ticks": 102000,
		  "time": 82.25789999999999,
		  "velocity": 0.7480314960629921
		},
		{
		  "duration": 0.19354800000000694,
		  "durationTicks": 240,
		  "midi": 46,
		  "name": "A#2",
		  "ticks": 102000,
		  "time": 82.25789999999999,
		  "velocity": 0.7480314960629921
		},
		{
		  "duration": 0.19354799999999273,
		  "durationTicks": 240,
		  "midi": 54,
		  "name": "F#3",
		  "ticks": 102480,
		  "time": 82.644996,
		  "velocity": 0.7480314960629921
		},
		{
		  "duration": 0.19354799999999273,
		  "durationTicks": 240,
		  "midi": 46,
		  "name": "A#2",
		  "ticks": 102480,
		  "time": 82.644996,
		  "velocity": 0.7480314960629921
		},
		{
		  "duration": 0.19354799999999273,
		  "durationTicks": 240,
		  "midi": 53,
		  "name": "F3",
		  "ticks": 102960,
		  "time": 83.032092,
		  "velocity": 0.7480314960629921
		},
		{
		  "duration": 0.19354799999999273,
		  "durationTicks": 240,
		  "midi": 46,
		  "name": "A#2",
		  "ticks": 102960,
		  "time": 83.032092,
		  "velocity": 0.7480314960629921
		},
		{
		  "duration": 0.19354799999999273,
		  "durationTicks": 240,
		  "midi": 53,
		  "name": "F3",
		  "ticks": 103440,
		  "time": 83.419188,
		  "velocity": 0.7480314960629921
		},
		{
		  "duration": 0.19354799999999273,
		  "durationTicks": 240,
		  "midi": 46,
		  "name": "A#2",
		  "ticks": 103440,
		  "time": 83.419188,
		  "velocity": 0.7480314960629921
		},
		{
		  "duration": 0.19354800000000694,
		  "durationTicks": 240,
		  "midi": 49,
		  "name": "C#3",
		  "ticks": 103680,
		  "time": 83.612736,
		  "velocity": 0.7480314960629921
		},
		{
		  "duration": 0.19354800000000694,
		  "durationTicks": 240,
		  "midi": 42,
		  "name": "F#2",
		  "ticks": 103680,
		  "time": 83.612736,
		  "velocity": 0.7480314960629921
		},
		{
		  "duration": 0.19354799999999273,
		  "durationTicks": 240,
		  "midi": 49,
		  "name": "C#3",
		  "ticks": 103920,
		  "time": 83.806284,
		  "velocity": 0.7480314960629921
		},
		{
		  "duration": 0.19354799999999273,
		  "durationTicks": 240,
		  "midi": 42,
		  "name": "F#2",
		  "ticks": 103920,
		  "time": 83.806284,
		  "velocity": 0.7480314960629921
		},
		{
		  "duration": 0.19354799999999273,
		  "durationTicks": 240,
		  "midi": 49,
		  "name": "C#3",
		  "ticks": 104400,
		  "time": 84.19338,
		  "velocity": 0.7480314960629921
		},
		{
		  "duration": 0.19354799999999273,
		  "durationTicks": 240,
		  "midi": 42,
		  "name": "F#2",
		  "ticks": 104400,
		  "time": 84.19338,
		  "velocity": 0.7480314960629921
		},
		{
		  "duration": 0.19354799999999273,
		  "durationTicks": 240,
		  "midi": 49,
		  "name": "C#3",
		  "ticks": 104880,
		  "time": 84.580476,
		  "velocity": 0.7480314960629921
		},
		{
		  "duration": 0.19354799999999273,
		  "durationTicks": 240,
		  "midi": 42,
		  "name": "F#2",
		  "ticks": 104880,
		  "time": 84.580476,
		  "velocity": 0.7480314960629921
		},
		{
		  "duration": 0.19354799999999273,
		  "durationTicks": 240,
		  "midi": 49,
		  "name": "C#3",
		  "ticks": 105360,
		  "time": 84.967572,
		  "velocity": 0.7480314960629921
		},
		{
		  "duration": 0.19354799999999273,
		  "durationTicks": 240,
		  "midi": 42,
		  "name": "F#2",
		  "ticks": 105360,
		  "time": 84.967572,
		  "velocity": 0.7480314960629921
		},
		{
		  "duration": 0.19354800000000694,
		  "durationTicks": 240,
		  "midi": 56,
		  "name": "G#3",
		  "ticks": 105600,
		  "time": 85.16112,
		  "velocity": 0.7480314960629921
		},
		{
		  "duration": 0.19354800000000694,
		  "durationTicks": 240,
		  "midi": 49,
		  "name": "C#3",
		  "ticks": 105600,
		  "time": 85.16112,
		  "velocity": 0.7480314960629921
		},
		{
		  "duration": 0.19354799999999273,
		  "durationTicks": 240,
		  "midi": 56,
		  "name": "G#3",
		  "ticks": 105840,
		  "time": 85.354668,
		  "velocity": 0.7480314960629921
		},
		{
		  "duration": 0.19354799999999273,
		  "durationTicks": 240,
		  "midi": 49,
		  "name": "C#3",
		  "ticks": 105840,
		  "time": 85.354668,
		  "velocity": 0.7480314960629921
		},
		{
		  "duration": 0.19354800000000694,
		  "durationTicks": 240,
		  "midi": 56,
		  "name": "G#3",
		  "ticks": 106080,
		  "time": 85.548216,
		  "velocity": 0.7480314960629921
		},
		{
		  "duration": 0.19354800000000694,
		  "durationTicks": 240,
		  "midi": 49,
		  "name": "C#3",
		  "ticks": 106080,
		  "time": 85.548216,
		  "velocity": 0.7480314960629921
		},
		{
		  "duration": 0.19354799999999273,
		  "durationTicks": 240,
		  "midi": 51,
		  "name": "D#3",
		  "ticks": 106320,
		  "time": 85.741764,
		  "velocity": 0.7480314960629921
		},
		{
		  "duration": 0.19354799999999273,
		  "durationTicks": 240,
		  "midi": 44,
		  "name": "G#2",
		  "ticks": 106320,
		  "time": 85.741764,
		  "velocity": 0.7480314960629921
		},
		{
		  "duration": 0.19354800000000694,
		  "durationTicks": 240,
		  "midi": 51,
		  "name": "D#3",
		  "ticks": 106560,
		  "time": 85.935312,
		  "velocity": 0.7480314960629921
		},
		{
		  "duration": 0.19354800000000694,
		  "durationTicks": 240,
		  "midi": 44,
		  "name": "G#2",
		  "ticks": 106560,
		  "time": 85.935312,
		  "velocity": 0.7480314960629921
		},
		{
		  "duration": 0.19354799999999273,
		  "durationTicks": 240,
		  "midi": 51,
		  "name": "D#3",
		  "ticks": 106800,
		  "time": 86.12886,
		  "velocity": 0.7480314960629921
		},
		{
		  "duration": 0.19354799999999273,
		  "durationTicks": 240,
		  "midi": 44,
		  "name": "G#2",
		  "ticks": 106800,
		  "time": 86.12886,
		  "velocity": 0.7480314960629921
		},
		{
		  "duration": 0.19354800000000694,
		  "durationTicks": 240,
		  "midi": 51,
		  "name": "D#3",
		  "ticks": 107040,
		  "time": 86.322408,
		  "velocity": 0.7480314960629921
		},
		{
		  "duration": 0.19354800000000694,
		  "durationTicks": 240,
		  "midi": 44,
		  "name": "G#2",
		  "ticks": 107040,
		  "time": 86.322408,
		  "velocity": 0.7480314960629921
		},
		{
		  "duration": 0.19354799999999273,
		  "durationTicks": 240,
		  "midi": 51,
		  "name": "D#3",
		  "ticks": 107280,
		  "time": 86.515956,
		  "velocity": 0.7480314960629921
		},
		{
		  "duration": 0.19354799999999273,
		  "durationTicks": 240,
		  "midi": 44,
		  "name": "G#2",
		  "ticks": 107280,
		  "time": 86.515956,
		  "velocity": 0.7480314960629921
		},
		{
		  "duration": 0.19354800000000694,
		  "durationTicks": 240,
		  "midi": 51,
		  "name": "D#3",
		  "ticks": 107520,
		  "time": 86.709504,
		  "velocity": 0.7480314960629921
		},
		{
		  "duration": 0.19354800000000694,
		  "durationTicks": 240,
		  "midi": 44,
		  "name": "G#2",
		  "ticks": 107520,
		  "time": 86.709504,
		  "velocity": 0.7480314960629921
		},
		{
		  "duration": 0.19354799999999273,
		  "durationTicks": 240,
		  "midi": 53,
		  "name": "F3",
		  "ticks": 107760,
		  "time": 86.903052,
		  "velocity": 0.7480314960629921
		},
		{
		  "duration": 0.19354799999999273,
		  "durationTicks": 240,
		  "midi": 46,
		  "name": "A#2",
		  "ticks": 107760,
		  "time": 86.903052,
		  "velocity": 0.7480314960629921
		},
		{
		  "duration": 0.19354799999999273,
		  "durationTicks": 240,
		  "midi": 53,
		  "name": "F3",
		  "ticks": 108240,
		  "time": 87.290148,
		  "velocity": 0.7480314960629921
		},
		{
		  "duration": 0.19354799999999273,
		  "durationTicks": 240,
		  "midi": 46,
		  "name": "A#2",
		  "ticks": 108240,
		  "time": 87.290148,
		  "velocity": 0.7480314960629921
		},
		{
		  "duration": 0.19354799999999273,
		  "durationTicks": 240,
		  "midi": 53,
		  "name": "F3",
		  "ticks": 108720,
		  "time": 87.677244,
		  "velocity": 0.7480314960629921
		},
		{
		  "duration": 0.19354799999999273,
		  "durationTicks": 240,
		  "midi": 46,
		  "name": "A#2",
		  "ticks": 108720,
		  "time": 87.677244,
		  "velocity": 0.7480314960629921
		},
		{
		  "duration": 0.19354799999999273,
		  "durationTicks": 240,
		  "midi": 53,
		  "name": "F3",
		  "ticks": 109200,
		  "time": 88.06434,
		  "velocity": 0.7480314960629921
		},
		{
		  "duration": 0.19354799999999273,
		  "durationTicks": 240,
		  "midi": 46,
		  "name": "A#2",
		  "ticks": 109200,
		  "time": 88.06434,
		  "velocity": 0.7480314960629921
		},
		{
		  "duration": 0.19354800000000694,
		  "durationTicks": 240,
		  "midi": 53,
		  "name": "F3",
		  "ticks": 109440,
		  "time": 88.257888,
		  "velocity": 0.7480314960629921
		},
		{
		  "duration": 0.19354800000000694,
		  "durationTicks": 240,
		  "midi": 46,
		  "name": "A#2",
		  "ticks": 109440,
		  "time": 88.257888,
		  "velocity": 0.7480314960629921
		},
		{
		  "duration": 0.19354799999999273,
		  "durationTicks": 240,
		  "midi": 54,
		  "name": "F#3",
		  "ticks": 109680,
		  "time": 88.451436,
		  "velocity": 0.7480314960629921
		},
		{
		  "duration": 0.19354799999999273,
		  "durationTicks": 240,
		  "midi": 46,
		  "name": "A#2",
		  "ticks": 109680,
		  "time": 88.451436,
		  "velocity": 0.7480314960629921
		},
		{
		  "duration": 0.19354799999999273,
		  "durationTicks": 240,
		  "midi": 54,
		  "name": "F#3",
		  "ticks": 110160,
		  "time": 88.838532,
		  "velocity": 0.7480314960629921
		},
		{
		  "duration": 0.19354799999999273,
		  "durationTicks": 240,
		  "midi": 46,
		  "name": "A#2",
		  "ticks": 110160,
		  "time": 88.838532,
		  "velocity": 0.7480314960629921
		},
		{
		  "duration": 0.19354799999999273,
		  "durationTicks": 240,
		  "midi": 53,
		  "name": "F3",
		  "ticks": 110640,
		  "time": 89.225628,
		  "velocity": 0.7480314960629921
		},
		{
		  "duration": 0.19354799999999273,
		  "durationTicks": 240,
		  "midi": 46,
		  "name": "A#2",
		  "ticks": 110640,
		  "time": 89.225628,
		  "velocity": 0.7480314960629921
		},
		{
		  "duration": 0.19354799999999273,
		  "durationTicks": 240,
		  "midi": 53,
		  "name": "F3",
		  "ticks": 111120,
		  "time": 89.612724,
		  "velocity": 0.7480314960629921
		},
		{
		  "duration": 0.19354799999999273,
		  "durationTicks": 240,
		  "midi": 46,
		  "name": "A#2",
		  "ticks": 111120,
		  "time": 89.612724,
		  "velocity": 0.7480314960629921
		},
		{
		  "duration": 0.19354800000000694,
		  "durationTicks": 240,
		  "midi": 49,
		  "name": "C#3",
		  "ticks": 111360,
		  "time": 89.80627199999999,
		  "velocity": 0.7480314960629921
		},
		{
		  "duration": 0.19354800000000694,
		  "durationTicks": 240,
		  "midi": 42,
		  "name": "F#2",
		  "ticks": 111360,
		  "time": 89.80627199999999,
		  "velocity": 0.7480314960629921
		},
		{
		  "duration": 0.19354799999999273,
		  "durationTicks": 240,
		  "midi": 49,
		  "name": "C#3",
		  "ticks": 111600,
		  "time": 89.99982,
		  "velocity": 0.7480314960629921
		},
		{
		  "duration": 0.19354799999999273,
		  "durationTicks": 240,
		  "midi": 42,
		  "name": "F#2",
		  "ticks": 111600,
		  "time": 89.99982,
		  "velocity": 0.7480314960629921
		},
		{
		  "duration": 0.19354799999999273,
		  "durationTicks": 240,
		  "midi": 49,
		  "name": "C#3",
		  "ticks": 112080,
		  "time": 90.386916,
		  "velocity": 0.7480314960629921
		},
		{
		  "duration": 0.19354799999999273,
		  "durationTicks": 240,
		  "midi": 42,
		  "name": "F#2",
		  "ticks": 112080,
		  "time": 90.386916,
		  "velocity": 0.7480314960629921
		},
		{
		  "duration": 0.19354800000000694,
		  "durationTicks": 240,
		  "midi": 49,
		  "name": "C#3",
		  "ticks": 112560,
		  "time": 90.774012,
		  "velocity": 0.7480314960629921
		},
		{
		  "duration": 0.19354800000000694,
		  "durationTicks": 240,
		  "midi": 42,
		  "name": "F#2",
		  "ticks": 112560,
		  "time": 90.774012,
		  "velocity": 0.7480314960629921
		},
		{
		  "duration": 0.19354800000000694,
		  "durationTicks": 240,
		  "midi": 49,
		  "name": "C#3",
		  "ticks": 113040,
		  "time": 91.161108,
		  "velocity": 0.7480314960629921
		},
		{
		  "duration": 0.19354800000000694,
		  "durationTicks": 240,
		  "midi": 42,
		  "name": "F#2",
		  "ticks": 113040,
		  "time": 91.161108,
		  "velocity": 0.7480314960629921
		},
		{
		  "duration": 0.19354799999999273,
		  "durationTicks": 240,
		  "midi": 56,
		  "name": "G#3",
		  "ticks": 113280,
		  "time": 91.354656,
		  "velocity": 0.7480314960629921
		},
		{
		  "duration": 0.19354799999999273,
		  "durationTicks": 240,
		  "midi": 49,
		  "name": "C#3",
		  "ticks": 113280,
		  "time": 91.354656,
		  "velocity": 0.7480314960629921
		},
		{
		  "duration": 0.19354800000000694,
		  "durationTicks": 240,
		  "midi": 56,
		  "name": "G#3",
		  "ticks": 113520,
		  "time": 91.548204,
		  "velocity": 0.7480314960629921
		},
		{
		  "duration": 0.19354800000000694,
		  "durationTicks": 240,
		  "midi": 49,
		  "name": "C#3",
		  "ticks": 113520,
		  "time": 91.548204,
		  "velocity": 0.7480314960629921
		},
		{
		  "duration": 0.19354799999999273,
		  "durationTicks": 240,
		  "midi": 56,
		  "name": "G#3",
		  "ticks": 113760,
		  "time": 91.741752,
		  "velocity": 0.7480314960629921
		},
		{
		  "duration": 0.19354799999999273,
		  "durationTicks": 240,
		  "midi": 49,
		  "name": "C#3",
		  "ticks": 113760,
		  "time": 91.741752,
		  "velocity": 0.7480314960629921
		},
		{
		  "duration": 0.19354800000000694,
		  "durationTicks": 240,
		  "midi": 51,
		  "name": "D#3",
		  "ticks": 114000,
		  "time": 91.9353,
		  "velocity": 0.7480314960629921
		},
		{
		  "duration": 0.19354800000000694,
		  "durationTicks": 240,
		  "midi": 44,
		  "name": "G#2",
		  "ticks": 114000,
		  "time": 91.9353,
		  "velocity": 0.7480314960629921
		},
		{
		  "duration": 0.19354799999999273,
		  "durationTicks": 240,
		  "midi": 51,
		  "name": "D#3",
		  "ticks": 114240,
		  "time": 92.128848,
		  "velocity": 0.7480314960629921
		},
		{
		  "duration": 0.19354799999999273,
		  "durationTicks": 240,
		  "midi": 44,
		  "name": "G#2",
		  "ticks": 114240,
		  "time": 92.128848,
		  "velocity": 0.7480314960629921
		},
		{
		  "duration": 0.19354800000000694,
		  "durationTicks": 240,
		  "midi": 51,
		  "name": "D#3",
		  "ticks": 114480,
		  "time": 92.322396,
		  "velocity": 0.7480314960629921
		},
		{
		  "duration": 0.19354800000000694,
		  "durationTicks": 240,
		  "midi": 44,
		  "name": "G#2",
		  "ticks": 114480,
		  "time": 92.322396,
		  "velocity": 0.7480314960629921
		},
		{
		  "duration": 0.19354799999999273,
		  "durationTicks": 240,
		  "midi": 51,
		  "name": "D#3",
		  "ticks": 114720,
		  "time": 92.515944,
		  "velocity": 0.7480314960629921
		},
		{
		  "duration": 0.19354799999999273,
		  "durationTicks": 240,
		  "midi": 44,
		  "name": "G#2",
		  "ticks": 114720,
		  "time": 92.515944,
		  "velocity": 0.7480314960629921
		},
		{
		  "duration": 0.19354800000000694,
		  "durationTicks": 240,
		  "midi": 51,
		  "name": "D#3",
		  "ticks": 114960,
		  "time": 92.709492,
		  "velocity": 0.7480314960629921
		},
		{
		  "duration": 0.19354800000000694,
		  "durationTicks": 240,
		  "midi": 44,
		  "name": "G#2",
		  "ticks": 114960,
		  "time": 92.709492,
		  "velocity": 0.7480314960629921
		},
		{
		  "duration": 0.19354799999999273,
		  "durationTicks": 240,
		  "midi": 51,
		  "name": "D#3",
		  "ticks": 115200,
		  "time": 92.90304,
		  "velocity": 0.7480314960629921
		},
		{
		  "duration": 0.19354799999999273,
		  "durationTicks": 240,
		  "midi": 44,
		  "name": "G#2",
		  "ticks": 115200,
		  "time": 92.90304,
		  "velocity": 0.7480314960629921
		},
		{
		  "duration": 0.19354800000000694,
		  "durationTicks": 240,
		  "midi": 53,
		  "name": "F3",
		  "ticks": 115440,
		  "time": 93.096588,
		  "velocity": 0.7480314960629921
		},
		{
		  "duration": 0.19354800000000694,
		  "durationTicks": 240,
		  "midi": 46,
		  "name": "A#2",
		  "ticks": 115440,
		  "time": 93.096588,
		  "velocity": 0.7480314960629921
		},
		{
		  "duration": 0.19354800000000694,
		  "durationTicks": 240,
		  "midi": 53,
		  "name": "F3",
		  "ticks": 115920,
		  "time": 93.483684,
		  "velocity": 0.7480314960629921
		},
		{
		  "duration": 0.19354800000000694,
		  "durationTicks": 240,
		  "midi": 46,
		  "name": "A#2",
		  "ticks": 115920,
		  "time": 93.483684,
		  "velocity": 0.7480314960629921
		},
		{
		  "duration": 0.19354800000000694,
		  "durationTicks": 240,
		  "midi": 53,
		  "name": "F3",
		  "ticks": 116400,
		  "time": 93.87078,
		  "velocity": 0.7480314960629921
		},
		{
		  "duration": 0.19354800000000694,
		  "durationTicks": 240,
		  "midi": 46,
		  "name": "A#2",
		  "ticks": 116400,
		  "time": 93.87078,
		  "velocity": 0.7480314960629921
		},
		{
		  "duration": 0.19354800000000694,
		  "durationTicks": 240,
		  "midi": 53,
		  "name": "F3",
		  "ticks": 116880,
		  "time": 94.257876,
		  "velocity": 0.7480314960629921
		},
		{
		  "duration": 0.19354800000000694,
		  "durationTicks": 240,
		  "midi": 46,
		  "name": "A#2",
		  "ticks": 116880,
		  "time": 94.257876,
		  "velocity": 0.7480314960629921
		},
		{
		  "duration": 0.19354799999999273,
		  "durationTicks": 240,
		  "midi": 53,
		  "name": "F3",
		  "ticks": 117120,
		  "time": 94.451424,
		  "velocity": 0.7480314960629921
		},
		{
		  "duration": 0.19354799999999273,
		  "durationTicks": 240,
		  "midi": 46,
		  "name": "A#2",
		  "ticks": 117120,
		  "time": 94.451424,
		  "velocity": 0.7480314960629921
		},
		{
		  "duration": 0.19354800000000694,
		  "durationTicks": 240,
		  "midi": 54,
		  "name": "F#3",
		  "ticks": 117360,
		  "time": 94.644972,
		  "velocity": 0.7480314960629921
		},
		{
		  "duration": 0.19354800000000694,
		  "durationTicks": 240,
		  "midi": 46,
		  "name": "A#2",
		  "ticks": 117360,
		  "time": 94.644972,
		  "velocity": 0.7480314960629921
		},
		{
		  "duration": 0.19354800000000694,
		  "durationTicks": 240,
		  "midi": 54,
		  "name": "F#3",
		  "ticks": 117840,
		  "time": 95.032068,
		  "velocity": 0.7480314960629921
		},
		{
		  "duration": 0.19354800000000694,
		  "durationTicks": 240,
		  "midi": 46,
		  "name": "A#2",
		  "ticks": 117840,
		  "time": 95.032068,
		  "velocity": 0.7480314960629921
		},
		{
		  "duration": 0.19354800000000694,
		  "durationTicks": 240,
		  "midi": 53,
		  "name": "F3",
		  "ticks": 118320,
		  "time": 95.419164,
		  "velocity": 0.7480314960629921
		},
		{
		  "duration": 0.19354800000000694,
		  "durationTicks": 240,
		  "midi": 46,
		  "name": "A#2",
		  "ticks": 118320,
		  "time": 95.419164,
		  "velocity": 0.7480314960629921
		},
		{
		  "duration": 0.19354800000000694,
		  "durationTicks": 240,
		  "midi": 53,
		  "name": "F3",
		  "ticks": 118800,
		  "time": 95.80626,
		  "velocity": 0.7480314960629921
		},
		{
		  "duration": 0.19354800000000694,
		  "durationTicks": 240,
		  "midi": 46,
		  "name": "A#2",
		  "ticks": 118800,
		  "time": 95.80626,
		  "velocity": 0.7480314960629921
		},
		{
		  "duration": 0.19354799999999273,
		  "durationTicks": 240,
		  "midi": 49,
		  "name": "C#3",
		  "ticks": 119040,
		  "time": 95.999808,
		  "velocity": 0.7480314960629921
		},
		{
		  "duration": 0.19354799999999273,
		  "durationTicks": 240,
		  "midi": 42,
		  "name": "F#2",
		  "ticks": 119040,
		  "time": 95.999808,
		  "velocity": 0.7480314960629921
		},
		{
		  "duration": 0.19354800000000694,
		  "durationTicks": 240,
		  "midi": 49,
		  "name": "C#3",
		  "ticks": 119280,
		  "time": 96.193356,
		  "velocity": 0.7480314960629921
		},
		{
		  "duration": 0.19354800000000694,
		  "durationTicks": 240,
		  "midi": 42,
		  "name": "F#2",
		  "ticks": 119280,
		  "time": 96.193356,
		  "velocity": 0.7480314960629921
		},
		{
		  "duration": 0.19354800000000694,
		  "durationTicks": 240,
		  "midi": 49,
		  "name": "C#3",
		  "ticks": 119760,
		  "time": 96.580452,
		  "velocity": 0.7480314960629921
		},
		{
		  "duration": 0.19354800000000694,
		  "durationTicks": 240,
		  "midi": 42,
		  "name": "F#2",
		  "ticks": 119760,
		  "time": 96.580452,
		  "velocity": 0.7480314960629921
		},
		{
		  "duration": 0.19354800000000694,
		  "durationTicks": 240,
		  "midi": 49,
		  "name": "C#3",
		  "ticks": 120240,
		  "time": 96.967548,
		  "velocity": 0.7480314960629921
		},
		{
		  "duration": 0.19354800000000694,
		  "durationTicks": 240,
		  "midi": 42,
		  "name": "F#2",
		  "ticks": 120240,
		  "time": 96.967548,
		  "velocity": 0.7480314960629921
		},
		{
		  "duration": 0.19354800000000694,
		  "durationTicks": 240,
		  "midi": 49,
		  "name": "C#3",
		  "ticks": 120720,
		  "time": 97.354644,
		  "velocity": 0.7480314960629921
		},
		{
		  "duration": 0.19354800000000694,
		  "durationTicks": 240,
		  "midi": 42,
		  "name": "F#2",
		  "ticks": 120720,
		  "time": 97.354644,
		  "velocity": 0.7480314960629921
		},
		{
		  "duration": 0.19354799999999273,
		  "durationTicks": 240,
		  "midi": 56,
		  "name": "G#3",
		  "ticks": 120960,
		  "time": 97.548192,
		  "velocity": 0.7480314960629921
		},
		{
		  "duration": 0.19354799999999273,
		  "durationTicks": 240,
		  "midi": 49,
		  "name": "C#3",
		  "ticks": 120960,
		  "time": 97.548192,
		  "velocity": 0.7480314960629921
		},
		{
		  "duration": 0.19354800000000694,
		  "durationTicks": 240,
		  "midi": 56,
		  "name": "G#3",
		  "ticks": 121200,
		  "time": 97.74174,
		  "velocity": 0.7480314960629921
		},
		{
		  "duration": 0.19354800000000694,
		  "durationTicks": 240,
		  "midi": 49,
		  "name": "C#3",
		  "ticks": 121200,
		  "time": 97.74174,
		  "velocity": 0.7480314960629921
		},
		{
		  "duration": 0.19354799999999273,
		  "durationTicks": 240,
		  "midi": 56,
		  "name": "G#3",
		  "ticks": 121440,
		  "time": 97.935288,
		  "velocity": 0.7480314960629921
		},
		{
		  "duration": 0.19354799999999273,
		  "durationTicks": 240,
		  "midi": 49,
		  "name": "C#3",
		  "ticks": 121440,
		  "time": 97.935288,
		  "velocity": 0.7480314960629921
		},
		{
		  "duration": 0.19354800000000694,
		  "durationTicks": 240,
		  "midi": 51,
		  "name": "D#3",
		  "ticks": 121680,
		  "time": 98.12883599999999,
		  "velocity": 0.7480314960629921
		},
		{
		  "duration": 0.19354800000000694,
		  "durationTicks": 240,
		  "midi": 44,
		  "name": "G#2",
		  "ticks": 121680,
		  "time": 98.12883599999999,
		  "velocity": 0.7480314960629921
		},
		{
		  "duration": 0.19354799999999273,
		  "durationTicks": 240,
		  "midi": 51,
		  "name": "D#3",
		  "ticks": 121920,
		  "time": 98.322384,
		  "velocity": 0.7480314960629921
		},
		{
		  "duration": 0.19354799999999273,
		  "durationTicks": 240,
		  "midi": 44,
		  "name": "G#2",
		  "ticks": 121920,
		  "time": 98.322384,
		  "velocity": 0.7480314960629921
		},
		{
		  "duration": 0.19354800000000694,
		  "durationTicks": 240,
		  "midi": 51,
		  "name": "D#3",
		  "ticks": 122160,
		  "time": 98.51593199999999,
		  "velocity": 0.7480314960629921
		},
		{
		  "duration": 0.19354800000000694,
		  "durationTicks": 240,
		  "midi": 44,
		  "name": "G#2",
		  "ticks": 122160,
		  "time": 98.51593199999999,
		  "velocity": 0.7480314960629921
		},
		{
		  "duration": 0.19354799999999273,
		  "durationTicks": 240,
		  "midi": 51,
		  "name": "D#3",
		  "ticks": 122400,
		  "time": 98.70948,
		  "velocity": 0.7480314960629921
		},
		{
		  "duration": 0.19354799999999273,
		  "durationTicks": 240,
		  "midi": 44,
		  "name": "G#2",
		  "ticks": 122400,
		  "time": 98.70948,
		  "velocity": 0.7480314960629921
		},
		{
		  "duration": 0.19354800000000694,
		  "durationTicks": 240,
		  "midi": 51,
		  "name": "D#3",
		  "ticks": 122640,
		  "time": 98.90302799999999,
		  "velocity": 0.7480314960629921
		},
		{
		  "duration": 0.19354800000000694,
		  "durationTicks": 240,
		  "midi": 44,
		  "name": "G#2",
		  "ticks": 122640,
		  "time": 98.90302799999999,
		  "velocity": 0.7480314960629921
		},
		{
		  "duration": 0.19354800000000694,
		  "durationTicks": 240,
		  "midi": 51,
		  "name": "D#3",
		  "ticks": 122880,
		  "time": 99.096576,
		  "velocity": 0.7480314960629921
		},
		{
		  "duration": 0.19354800000000694,
		  "durationTicks": 240,
		  "midi": 44,
		  "name": "G#2",
		  "ticks": 122880,
		  "time": 99.096576,
		  "velocity": 0.7480314960629921
		},
		{
		  "duration": 0.19354799999999273,
		  "durationTicks": 240,
		  "midi": 53,
		  "name": "F3",
		  "ticks": 123120,
		  "time": 99.290124,
		  "velocity": 0.7480314960629921
		},
		{
		  "duration": 0.19354799999999273,
		  "durationTicks": 240,
		  "midi": 46,
		  "name": "A#2",
		  "ticks": 123120,
		  "time": 99.290124,
		  "velocity": 0.7480314960629921
		},
		{
		  "duration": 0.19354799999999273,
		  "durationTicks": 240,
		  "midi": 53,
		  "name": "F3",
		  "ticks": 123600,
		  "time": 99.67722,
		  "velocity": 0.7480314960629921
		},
		{
		  "duration": 0.19354799999999273,
		  "durationTicks": 240,
		  "midi": 46,
		  "name": "A#2",
		  "ticks": 123600,
		  "time": 99.67722,
		  "velocity": 0.7480314960629921
		},
		{
		  "duration": 0.19354799999999273,
		  "durationTicks": 240,
		  "midi": 53,
		  "name": "F3",
		  "ticks": 124080,
		  "time": 100.064316,
		  "velocity": 0.7480314960629921
		},
		{
		  "duration": 0.19354799999999273,
		  "durationTicks": 240,
		  "midi": 46,
		  "name": "A#2",
		  "ticks": 124080,
		  "time": 100.064316,
		  "velocity": 0.7480314960629921
		},
		{
		  "duration": 0.19354799999999273,
		  "durationTicks": 240,
		  "midi": 53,
		  "name": "F3",
		  "ticks": 124560,
		  "time": 100.451412,
		  "velocity": 0.7480314960629921
		},
		{
		  "duration": 0.19354799999999273,
		  "durationTicks": 240,
		  "midi": 46,
		  "name": "A#2",
		  "ticks": 124560,
		  "time": 100.451412,
		  "velocity": 0.7480314960629921
		},
		{
		  "duration": 0.19354800000000694,
		  "durationTicks": 240,
		  "midi": 53,
		  "name": "F3",
		  "ticks": 124800,
		  "time": 100.64496,
		  "velocity": 0.7480314960629921
		},
		{
		  "duration": 0.19354800000000694,
		  "durationTicks": 240,
		  "midi": 46,
		  "name": "A#2",
		  "ticks": 124800,
		  "time": 100.64496,
		  "velocity": 0.7480314960629921
		},
		{
		  "duration": 0.19354799999999273,
		  "durationTicks": 240,
		  "midi": 54,
		  "name": "F#3",
		  "ticks": 125040,
		  "time": 100.838508,
		  "velocity": 0.7480314960629921
		},
		{
		  "duration": 0.19354799999999273,
		  "durationTicks": 240,
		  "midi": 46,
		  "name": "A#2",
		  "ticks": 125040,
		  "time": 100.838508,
		  "velocity": 0.7480314960629921
		},
		{
		  "duration": 0.19354799999999273,
		  "durationTicks": 240,
		  "midi": 54,
		  "name": "F#3",
		  "ticks": 125520,
		  "time": 101.225604,
		  "velocity": 0.7480314960629921
		},
		{
		  "duration": 0.19354799999999273,
		  "durationTicks": 240,
		  "midi": 46,
		  "name": "A#2",
		  "ticks": 125520,
		  "time": 101.225604,
		  "velocity": 0.7480314960629921
		},
		{
		  "duration": 0.19354799999999273,
		  "durationTicks": 240,
		  "midi": 53,
		  "name": "F3",
		  "ticks": 126000,
		  "time": 101.6127,
		  "velocity": 0.7480314960629921
		},
		{
		  "duration": 0.19354799999999273,
		  "durationTicks": 240,
		  "midi": 46,
		  "name": "A#2",
		  "ticks": 126000,
		  "time": 101.6127,
		  "velocity": 0.7480314960629921
		},
		{
		  "duration": 0.19354799999999273,
		  "durationTicks": 240,
		  "midi": 53,
		  "name": "F3",
		  "ticks": 126480,
		  "time": 101.999796,
		  "velocity": 0.7480314960629921
		},
		{
		  "duration": 0.19354799999999273,
		  "durationTicks": 240,
		  "midi": 46,
		  "name": "A#2",
		  "ticks": 126480,
		  "time": 101.999796,
		  "velocity": 0.7480314960629921
		},
		{
		  "duration": 0.19354800000000694,
		  "durationTicks": 240,
		  "midi": 49,
		  "name": "C#3",
		  "ticks": 126720,
		  "time": 102.193344,
		  "velocity": 0.7480314960629921
		},
		{
		  "duration": 0.19354800000000694,
		  "durationTicks": 240,
		  "midi": 42,
		  "name": "F#2",
		  "ticks": 126720,
		  "time": 102.193344,
		  "velocity": 0.7480314960629921
		},
		{
		  "duration": 0.19354799999999273,
		  "durationTicks": 240,
		  "midi": 49,
		  "name": "C#3",
		  "ticks": 126960,
		  "time": 102.386892,
		  "velocity": 0.7480314960629921
		},
		{
		  "duration": 0.19354799999999273,
		  "durationTicks": 240,
		  "midi": 42,
		  "name": "F#2",
		  "ticks": 126960,
		  "time": 102.386892,
		  "velocity": 0.7480314960629921
		},
		{
		  "duration": 0.19354799999999273,
		  "durationTicks": 240,
		  "midi": 49,
		  "name": "C#3",
		  "ticks": 127440,
		  "time": 102.773988,
		  "velocity": 0.7480314960629921
		},
		{
		  "duration": 0.19354799999999273,
		  "durationTicks": 240,
		  "midi": 42,
		  "name": "F#2",
		  "ticks": 127440,
		  "time": 102.773988,
		  "velocity": 0.7480314960629921
		},
		{
		  "duration": 0.19354799999999273,
		  "durationTicks": 240,
		  "midi": 49,
		  "name": "C#3",
		  "ticks": 127920,
		  "time": 103.161084,
		  "velocity": 0.7480314960629921
		},
		{
		  "duration": 0.19354799999999273,
		  "durationTicks": 240,
		  "midi": 42,
		  "name": "F#2",
		  "ticks": 127920,
		  "time": 103.161084,
		  "velocity": 0.7480314960629921
		},
		{
		  "duration": 0.19354799999999273,
		  "durationTicks": 240,
		  "midi": 49,
		  "name": "C#3",
		  "ticks": 128400,
		  "time": 103.54818,
		  "velocity": 0.7480314960629921
		},
		{
		  "duration": 0.19354799999999273,
		  "durationTicks": 240,
		  "midi": 42,
		  "name": "F#2",
		  "ticks": 128400,
		  "time": 103.54818,
		  "velocity": 0.7480314960629921
		},
		{
		  "duration": 0.19354800000000694,
		  "durationTicks": 240,
		  "midi": 56,
		  "name": "G#3",
		  "ticks": 128640,
		  "time": 103.741728,
		  "velocity": 0.7480314960629921
		},
		{
		  "duration": 0.19354800000000694,
		  "durationTicks": 240,
		  "midi": 49,
		  "name": "C#3",
		  "ticks": 128640,
		  "time": 103.741728,
		  "velocity": 0.7480314960629921
		},
		{
		  "duration": 0.19354799999999273,
		  "durationTicks": 240,
		  "midi": 56,
		  "name": "G#3",
		  "ticks": 128880,
		  "time": 103.935276,
		  "velocity": 0.7480314960629921
		},
		{
		  "duration": 0.19354799999999273,
		  "durationTicks": 240,
		  "midi": 49,
		  "name": "C#3",
		  "ticks": 128880,
		  "time": 103.935276,
		  "velocity": 0.7480314960629921
		},
		{
		  "duration": 0.19354800000000694,
		  "durationTicks": 240,
		  "midi": 56,
		  "name": "G#3",
		  "ticks": 129120,
		  "time": 104.128824,
		  "velocity": 0.7480314960629921
		},
		{
		  "duration": 0.19354800000000694,
		  "durationTicks": 240,
		  "midi": 49,
		  "name": "C#3",
		  "ticks": 129120,
		  "time": 104.128824,
		  "velocity": 0.7480314960629921
		},
		{
		  "duration": 0.19354799999999273,
		  "durationTicks": 240,
		  "midi": 51,
		  "name": "D#3",
		  "ticks": 129360,
		  "time": 104.322372,
		  "velocity": 0.7480314960629921
		},
		{
		  "duration": 0.19354799999999273,
		  "durationTicks": 240,
		  "midi": 44,
		  "name": "G#2",
		  "ticks": 129360,
		  "time": 104.322372,
		  "velocity": 0.7480314960629921
		},
		{
		  "duration": 0.19354800000000694,
		  "durationTicks": 240,
		  "midi": 51,
		  "name": "D#3",
		  "ticks": 129600,
		  "time": 104.51592,
		  "velocity": 0.7480314960629921
		},
		{
		  "duration": 0.19354800000000694,
		  "durationTicks": 240,
		  "midi": 44,
		  "name": "G#2",
		  "ticks": 129600,
		  "time": 104.51592,
		  "velocity": 0.7480314960629921
		},
		{
		  "duration": 0.19354799999999273,
		  "durationTicks": 240,
		  "midi": 51,
		  "name": "D#3",
		  "ticks": 129840,
		  "time": 104.709468,
		  "velocity": 0.7480314960629921
		},
		{
		  "duration": 0.19354799999999273,
		  "durationTicks": 240,
		  "midi": 44,
		  "name": "G#2",
		  "ticks": 129840,
		  "time": 104.709468,
		  "velocity": 0.7480314960629921
		},
		{
		  "duration": 0.19354800000000694,
		  "durationTicks": 240,
		  "midi": 51,
		  "name": "D#3",
		  "ticks": 130080,
		  "time": 104.903016,
		  "velocity": 0.7480314960629921
		},
		{
		  "duration": 0.19354800000000694,
		  "durationTicks": 240,
		  "midi": 44,
		  "name": "G#2",
		  "ticks": 130080,
		  "time": 104.903016,
		  "velocity": 0.7480314960629921
		},
		{
		  "duration": 0.19354799999999273,
		  "durationTicks": 240,
		  "midi": 51,
		  "name": "D#3",
		  "ticks": 130320,
		  "time": 105.096564,
		  "velocity": 0.7480314960629921
		},
		{
		  "duration": 0.19354799999999273,
		  "durationTicks": 240,
		  "midi": 44,
		  "name": "G#2",
		  "ticks": 130320,
		  "time": 105.096564,
		  "velocity": 0.7480314960629921
		},
		{
		  "duration": 0.19354800000000694,
		  "durationTicks": 240,
		  "midi": 53,
		  "name": "F3",
		  "ticks": 130560,
		  "time": 105.290112,
		  "velocity": 0.7480314960629921
		},
		{
		  "duration": 0.19354800000000694,
		  "durationTicks": 240,
		  "midi": 46,
		  "name": "A#2",
		  "ticks": 130560,
		  "time": 105.290112,
		  "velocity": 0.7480314960629921
		},
		{
		  "duration": 0.19354799999999273,
		  "durationTicks": 240,
		  "midi": 53,
		  "name": "F3",
		  "ticks": 130800,
		  "time": 105.48366,
		  "velocity": 0.7480314960629921
		},
		{
		  "duration": 0.19354799999999273,
		  "durationTicks": 240,
		  "midi": 46,
		  "name": "A#2",
		  "ticks": 130800,
		  "time": 105.48366,
		  "velocity": 0.7480314960629921
		},
		{
		  "duration": 0.19354800000000694,
		  "durationTicks": 240,
		  "midi": 53,
		  "name": "F3",
		  "ticks": 131040,
		  "time": 105.677208,
		  "velocity": 0.7480314960629921
		},
		{
		  "duration": 0.19354800000000694,
		  "durationTicks": 240,
		  "midi": 46,
		  "name": "A#2",
		  "ticks": 131040,
		  "time": 105.677208,
		  "velocity": 0.7480314960629921
		},
		{
		  "duration": 0.07258050000000082,
		  "durationTicks": 90,
		  "midi": 46,
		  "name": "A#2",
		  "ticks": 133680,
		  "time": 107.806236,
		  "velocity": 0.5984251968503937
		},
		{
		  "duration": 0.07258050000000082,
		  "durationTicks": 90,
		  "midi": 46,
		  "name": "A#2",
		  "ticks": 133800,
		  "time": 107.90301,
		  "velocity": 0.5984251968503937
		},
		{
		  "duration": 0.19354799999999273,
		  "durationTicks": 240,
		  "midi": 53,
		  "name": "F3",
		  "ticks": 133920,
		  "time": 107.999784,
		  "velocity": 0.7480314960629921
		},
		{
		  "duration": 0.19354799999999273,
		  "durationTicks": 240,
		  "midi": 46,
		  "name": "A#2",
		  "ticks": 133920,
		  "time": 107.999784,
		  "velocity": 0.7480314960629921
		},
		{
		  "duration": 0.19354800000000694,
		  "durationTicks": 240,
		  "midi": 53,
		  "name": "F3",
		  "ticks": 134160,
		  "time": 108.193332,
		  "velocity": 0.7480314960629921
		},
		{
		  "duration": 0.19354800000000694,
		  "durationTicks": 240,
		  "midi": 46,
		  "name": "A#2",
		  "ticks": 134160,
		  "time": 108.193332,
		  "velocity": 0.7480314960629921
		},
		{
		  "duration": 0.19354799999999273,
		  "durationTicks": 240,
		  "midi": 49,
		  "name": "C#3",
		  "ticks": 134400,
		  "time": 108.38688,
		  "velocity": 0.7480314960629921
		},
		{
		  "duration": 0.19354799999999273,
		  "durationTicks": 240,
		  "midi": 42,
		  "name": "F#2",
		  "ticks": 134400,
		  "time": 108.38688,
		  "velocity": 0.7480314960629921
		},
		{
		  "duration": 0.19354800000000694,
		  "durationTicks": 240,
		  "midi": 49,
		  "name": "C#3",
		  "ticks": 134640,
		  "time": 108.580428,
		  "velocity": 0.7480314960629921
		},
		{
		  "duration": 0.19354800000000694,
		  "durationTicks": 240,
		  "midi": 42,
		  "name": "F#2",
		  "ticks": 134640,
		  "time": 108.580428,
		  "velocity": 0.7480314960629921
		},
		{
		  "duration": 0.19354799999999273,
		  "durationTicks": 240,
		  "midi": 49,
		  "name": "C#3",
		  "ticks": 134880,
		  "time": 108.773976,
		  "velocity": 0.7480314960629921
		},
		{
		  "duration": 0.19354799999999273,
		  "durationTicks": 240,
		  "midi": 42,
		  "name": "F#2",
		  "ticks": 134880,
		  "time": 108.773976,
		  "velocity": 0.7480314960629921
		},
		{
		  "duration": 0.07258050000000082,
		  "durationTicks": 90,
		  "midi": 42,
		  "name": "F#2",
		  "ticks": 137040,
		  "time": 110.515908,
		  "velocity": 0.5984251968503937
		},
		{
		  "duration": 0.07258050000000082,
		  "durationTicks": 90,
		  "midi": 42,
		  "name": "F#2",
		  "ticks": 137160,
		  "time": 110.61268199999999,
		  "velocity": 0.5984251968503937
		},
		{
		  "duration": 0.14516100000000165,
		  "durationTicks": 180,
		  "midi": 42,
		  "name": "F#2",
		  "ticks": 137280,
		  "time": 110.709456,
		  "velocity": 0.5984251968503937
		},
		{
		  "duration": 0.07258050000000082,
		  "durationTicks": 90,
		  "midi": 42,
		  "name": "F#2",
		  "ticks": 137520,
		  "time": 110.903004,
		  "velocity": 0.5984251968503937
		},
		{
		  "duration": 0.07258050000000082,
		  "durationTicks": 90,
		  "midi": 42,
		  "name": "F#2",
		  "ticks": 137640,
		  "time": 110.99977799999999,
		  "velocity": 0.5984251968503937
		},
		{
		  "duration": 0.38709599999999966,
		  "durationTicks": 480,
		  "midi": 49,
		  "name": "C#3",
		  "ticks": 137760,
		  "time": 111.096552,
		  "velocity": 0.7480314960629921
		},
		{
		  "duration": 0.38709599999999966,
		  "durationTicks": 480,
		  "midi": 42,
		  "name": "F#2",
		  "ticks": 137760,
		  "time": 111.096552,
		  "velocity": 0.7480314960629921
		},
		{
		  "duration": 0.19354799999999273,
		  "durationTicks": 240,
		  "midi": 53,
		  "name": "F3",
		  "ticks": 138240,
		  "time": 111.483648,
		  "velocity": 0.7480314960629921
		},
		{
		  "duration": 0.19354799999999273,
		  "durationTicks": 240,
		  "midi": 46,
		  "name": "A#2",
		  "ticks": 138240,
		  "time": 111.483648,
		  "velocity": 0.7480314960629921
		},
		{
		  "duration": 0.19354800000000694,
		  "durationTicks": 240,
		  "midi": 53,
		  "name": "F3",
		  "ticks": 138480,
		  "time": 111.677196,
		  "velocity": 0.7480314960629921
		},
		{
		  "duration": 0.19354800000000694,
		  "durationTicks": 240,
		  "midi": 46,
		  "name": "A#2",
		  "ticks": 138480,
		  "time": 111.677196,
		  "velocity": 0.7480314960629921
		},
		{
		  "duration": 0.19354799999999273,
		  "durationTicks": 240,
		  "midi": 53,
		  "name": "F3",
		  "ticks": 138720,
		  "time": 111.870744,
		  "velocity": 0.7480314960629921
		},
		{
		  "duration": 0.19354799999999273,
		  "durationTicks": 240,
		  "midi": 46,
		  "name": "A#2",
		  "ticks": 138720,
		  "time": 111.870744,
		  "velocity": 0.7480314960629921
		},
		{
		  "duration": 0.19354800000000694,
		  "durationTicks": 240,
		  "midi": 53,
		  "name": "F3",
		  "ticks": 138960,
		  "time": 112.064292,
		  "velocity": 0.7480314960629921
		},
		{
		  "duration": 0.19354800000000694,
		  "durationTicks": 240,
		  "midi": 46,
		  "name": "A#2",
		  "ticks": 138960,
		  "time": 112.064292,
		  "velocity": 0.7480314960629921
		},
		{
		  "duration": 0.19354799999999273,
		  "durationTicks": 240,
		  "midi": 53,
		  "name": "F3",
		  "ticks": 139200,
		  "time": 112.25784,
		  "velocity": 0.7480314960629921
		},
		{
		  "duration": 0.19354799999999273,
		  "durationTicks": 240,
		  "midi": 46,
		  "name": "A#2",
		  "ticks": 139200,
		  "time": 112.25784,
		  "velocity": 0.7480314960629921
		},
		{
		  "duration": 0.19354800000000694,
		  "durationTicks": 240,
		  "midi": 53,
		  "name": "F3",
		  "ticks": 139440,
		  "time": 112.451388,
		  "velocity": 0.7480314960629921
		},
		{
		  "duration": 0.19354800000000694,
		  "durationTicks": 240,
		  "midi": 46,
		  "name": "A#2",
		  "ticks": 139440,
		  "time": 112.451388,
		  "velocity": 0.7480314960629921
		},
		{
		  "duration": 0.19354799999999273,
		  "durationTicks": 240,
		  "midi": 53,
		  "name": "F3",
		  "ticks": 139680,
		  "time": 112.644936,
		  "velocity": 0.7480314960629921
		},
		{
		  "duration": 0.19354799999999273,
		  "durationTicks": 240,
		  "midi": 46,
		  "name": "A#2",
		  "ticks": 139680,
		  "time": 112.644936,
		  "velocity": 0.7480314960629921
		},
		{
		  "duration": 0.19354800000000694,
		  "durationTicks": 240,
		  "midi": 53,
		  "name": "F3",
		  "ticks": 139920,
		  "time": 112.838484,
		  "velocity": 0.7480314960629921
		},
		{
		  "duration": 0.19354800000000694,
		  "durationTicks": 240,
		  "midi": 46,
		  "name": "A#2",
		  "ticks": 139920,
		  "time": 112.838484,
		  "velocity": 0.7480314960629921
		},
		{
		  "duration": 0.19354799999999273,
		  "durationTicks": 240,
		  "midi": 51,
		  "name": "D#3",
		  "ticks": 140160,
		  "time": 113.032032,
		  "velocity": 0.7480314960629921
		},
		{
		  "duration": 0.19354799999999273,
		  "durationTicks": 240,
		  "midi": 44,
		  "name": "G#2",
		  "ticks": 140160,
		  "time": 113.032032,
		  "velocity": 0.7480314960629921
		},
		{
		  "duration": 0.19354800000000694,
		  "durationTicks": 240,
		  "midi": 51,
		  "name": "D#3",
		  "ticks": 140400,
		  "time": 113.22558,
		  "velocity": 0.7480314960629921
		},
		{
		  "duration": 0.19354800000000694,
		  "durationTicks": 240,
		  "midi": 44,
		  "name": "G#2",
		  "ticks": 140400,
		  "time": 113.22558,
		  "velocity": 0.7480314960629921
		},
		{
		  "duration": 0.19354799999999273,
		  "durationTicks": 240,
		  "midi": 51,
		  "name": "D#3",
		  "ticks": 140640,
		  "time": 113.419128,
		  "velocity": 0.7480314960629921
		},
		{
		  "duration": 0.19354799999999273,
		  "durationTicks": 240,
		  "midi": 44,
		  "name": "G#2",
		  "ticks": 140640,
		  "time": 113.419128,
		  "velocity": 0.7480314960629921
		},
		{
		  "duration": 0.19354800000000694,
		  "durationTicks": 240,
		  "midi": 51,
		  "name": "D#3",
		  "ticks": 140880,
		  "time": 113.612676,
		  "velocity": 0.7480314960629921
		},
		{
		  "duration": 0.19354800000000694,
		  "durationTicks": 240,
		  "midi": 44,
		  "name": "G#2",
		  "ticks": 140880,
		  "time": 113.612676,
		  "velocity": 0.7480314960629921
		},
		{
		  "duration": 0.19354799999999273,
		  "durationTicks": 240,
		  "midi": 51,
		  "name": "D#3",
		  "ticks": 141120,
		  "time": 113.806224,
		  "velocity": 0.7480314960629921
		},
		{
		  "duration": 0.19354799999999273,
		  "durationTicks": 240,
		  "midi": 44,
		  "name": "G#2",
		  "ticks": 141120,
		  "time": 113.806224,
		  "velocity": 0.7480314960629921
		},
		{
		  "duration": 0.19354800000000694,
		  "durationTicks": 240,
		  "midi": 51,
		  "name": "D#3",
		  "ticks": 141360,
		  "time": 113.999772,
		  "velocity": 0.7480314960629921
		},
		{
		  "duration": 0.19354800000000694,
		  "durationTicks": 240,
		  "midi": 44,
		  "name": "G#2",
		  "ticks": 141360,
		  "time": 113.999772,
		  "velocity": 0.7480314960629921
		},
		{
		  "duration": 0.19354799999999273,
		  "durationTicks": 240,
		  "midi": 51,
		  "name": "D#3",
		  "ticks": 141600,
		  "time": 114.19332,
		  "velocity": 0.7480314960629921
		},
		{
		  "duration": 0.19354799999999273,
		  "durationTicks": 240,
		  "midi": 44,
		  "name": "G#2",
		  "ticks": 141600,
		  "time": 114.19332,
		  "velocity": 0.7480314960629921
		},
		{
		  "duration": 0.19354800000000694,
		  "durationTicks": 240,
		  "midi": 51,
		  "name": "D#3",
		  "ticks": 141840,
		  "time": 114.38686799999999,
		  "velocity": 0.7480314960629921
		},
		{
		  "duration": 0.19354800000000694,
		  "durationTicks": 240,
		  "midi": 44,
		  "name": "G#2",
		  "ticks": 141840,
		  "time": 114.38686799999999,
		  "velocity": 0.7480314960629921
		},
		{
		  "duration": 0.19354799999999273,
		  "durationTicks": 240,
		  "midi": 48,
		  "name": "C3",
		  "ticks": 142080,
		  "time": 114.580416,
		  "velocity": 0.7480314960629921
		},
		{
		  "duration": 0.19354799999999273,
		  "durationTicks": 240,
		  "midi": 41,
		  "name": "F2",
		  "ticks": 142080,
		  "time": 114.580416,
		  "velocity": 0.7480314960629921
		},
		{
		  "duration": 0.19354800000000694,
		  "durationTicks": 240,
		  "midi": 48,
		  "name": "C3",
		  "ticks": 142320,
		  "time": 114.77396399999999,
		  "velocity": 0.7480314960629921
		},
		{
		  "duration": 0.19354800000000694,
		  "durationTicks": 240,
		  "midi": 41,
		  "name": "F2",
		  "ticks": 142320,
		  "time": 114.77396399999999,
		  "velocity": 0.7480314960629921
		},
		{
		  "duration": 0.19354799999999273,
		  "durationTicks": 240,
		  "midi": 48,
		  "name": "C3",
		  "ticks": 142560,
		  "time": 114.967512,
		  "velocity": 0.7480314960629921
		},
		{
		  "duration": 0.19354799999999273,
		  "durationTicks": 240,
		  "midi": 41,
		  "name": "F2",
		  "ticks": 142560,
		  "time": 114.967512,
		  "velocity": 0.7480314960629921
		},
		{
		  "duration": 0.19354800000000694,
		  "durationTicks": 240,
		  "midi": 48,
		  "name": "C3",
		  "ticks": 142800,
		  "time": 115.16105999999999,
		  "velocity": 0.7480314960629921
		},
		{
		  "duration": 0.19354800000000694,
		  "durationTicks": 240,
		  "midi": 41,
		  "name": "F2",
		  "ticks": 142800,
		  "time": 115.16105999999999,
		  "velocity": 0.7480314960629921
		},
		{
		  "duration": 0.19354799999999273,
		  "durationTicks": 240,
		  "midi": 48,
		  "name": "C3",
		  "ticks": 143040,
		  "time": 115.354608,
		  "velocity": 0.7480314960629921
		},
		{
		  "duration": 0.19354799999999273,
		  "durationTicks": 240,
		  "midi": 41,
		  "name": "F2",
		  "ticks": 143040,
		  "time": 115.354608,
		  "velocity": 0.7480314960629921
		},
		{
		  "duration": 0.19354800000000694,
		  "durationTicks": 240,
		  "midi": 48,
		  "name": "C3",
		  "ticks": 143280,
		  "time": 115.54815599999999,
		  "velocity": 0.7480314960629921
		},
		{
		  "duration": 0.19354800000000694,
		  "durationTicks": 240,
		  "midi": 41,
		  "name": "F2",
		  "ticks": 143280,
		  "time": 115.54815599999999,
		  "velocity": 0.7480314960629921
		},
		{
		  "duration": 0.19354800000000694,
		  "durationTicks": 240,
		  "midi": 48,
		  "name": "C3",
		  "ticks": 143520,
		  "time": 115.741704,
		  "velocity": 0.7480314960629921
		},
		{
		  "duration": 0.19354800000000694,
		  "durationTicks": 240,
		  "midi": 41,
		  "name": "F2",
		  "ticks": 143520,
		  "time": 115.741704,
		  "velocity": 0.7480314960629921
		},
		{
		  "duration": 0.19354799999999273,
		  "durationTicks": 240,
		  "midi": 51,
		  "name": "D#3",
		  "ticks": 143760,
		  "time": 115.935252,
		  "velocity": 0.7480314960629921
		},
		{
		  "duration": 0.19354799999999273,
		  "durationTicks": 240,
		  "midi": 44,
		  "name": "G#2",
		  "ticks": 143760,
		  "time": 115.935252,
		  "velocity": 0.7480314960629921
		},
		{
		  "duration": 0.19354800000000694,
		  "durationTicks": 240,
		  "midi": 51,
		  "name": "D#3",
		  "ticks": 144000,
		  "time": 116.1288,
		  "velocity": 0.7480314960629921
		},
		{
		  "duration": 0.19354800000000694,
		  "durationTicks": 240,
		  "midi": 44,
		  "name": "G#2",
		  "ticks": 144000,
		  "time": 116.1288,
		  "velocity": 0.7480314960629921
		},
		{
		  "duration": 0.19354799999999273,
		  "durationTicks": 240,
		  "midi": 51,
		  "name": "D#3",
		  "ticks": 144240,
		  "time": 116.322348,
		  "velocity": 0.7480314960629921
		},
		{
		  "duration": 0.19354799999999273,
		  "durationTicks": 240,
		  "midi": 44,
		  "name": "G#2",
		  "ticks": 144240,
		  "time": 116.322348,
		  "velocity": 0.7480314960629921
		},
		{
		  "duration": 0.19354800000000694,
		  "durationTicks": 240,
		  "midi": 53,
		  "name": "F3",
		  "ticks": 144480,
		  "time": 116.515896,
		  "velocity": 0.7480314960629921
		},
		{
		  "duration": 0.19354800000000694,
		  "durationTicks": 240,
		  "midi": 46,
		  "name": "A#2",
		  "ticks": 144480,
		  "time": 116.515896,
		  "velocity": 0.7480314960629921
		},
		{
		  "duration": 0.19354799999999273,
		  "durationTicks": 240,
		  "midi": 53,
		  "name": "F3",
		  "ticks": 144720,
		  "time": 116.709444,
		  "velocity": 0.7480314960629921
		},
		{
		  "duration": 0.19354799999999273,
		  "durationTicks": 240,
		  "midi": 46,
		  "name": "A#2",
		  "ticks": 144720,
		  "time": 116.709444,
		  "velocity": 0.7480314960629921
		},
		{
		  "duration": 0.19354800000000694,
		  "durationTicks": 240,
		  "midi": 53,
		  "name": "F3",
		  "ticks": 144960,
		  "time": 116.902992,
		  "velocity": 0.7480314960629921
		},
		{
		  "duration": 0.19354800000000694,
		  "durationTicks": 240,
		  "midi": 46,
		  "name": "A#2",
		  "ticks": 144960,
		  "time": 116.902992,
		  "velocity": 0.7480314960629921
		},
		{
		  "duration": 0.19354799999999273,
		  "durationTicks": 240,
		  "midi": 51,
		  "name": "D#3",
		  "ticks": 145200,
		  "time": 117.09654,
		  "velocity": 0.7480314960629921
		},
		{
		  "duration": 0.19354799999999273,
		  "durationTicks": 240,
		  "midi": 44,
		  "name": "G#2",
		  "ticks": 145200,
		  "time": 117.09654,
		  "velocity": 0.7480314960629921
		},
		{
		  "duration": 0.19354800000000694,
		  "durationTicks": 240,
		  "midi": 51,
		  "name": "D#3",
		  "ticks": 145440,
		  "time": 117.290088,
		  "velocity": 0.7480314960629921
		},
		{
		  "duration": 0.19354800000000694,
		  "durationTicks": 240,
		  "midi": 44,
		  "name": "G#2",
		  "ticks": 145440,
		  "time": 117.290088,
		  "velocity": 0.7480314960629921
		},
		{
		  "duration": 0.19354799999999273,
		  "durationTicks": 240,
		  "midi": 51,
		  "name": "D#3",
		  "ticks": 145680,
		  "time": 117.483636,
		  "velocity": 0.7480314960629921
		},
		{
		  "duration": 0.19354799999999273,
		  "durationTicks": 240,
		  "midi": 44,
		  "name": "G#2",
		  "ticks": 145680,
		  "time": 117.483636,
		  "velocity": 0.7480314960629921
		},
		{
		  "duration": 0.19354800000000694,
		  "durationTicks": 240,
		  "midi": 53,
		  "name": "F3",
		  "ticks": 145920,
		  "time": 117.677184,
		  "velocity": 0.7480314960629921
		},
		{
		  "duration": 0.19354800000000694,
		  "durationTicks": 240,
		  "midi": 46,
		  "name": "A#2",
		  "ticks": 145920,
		  "time": 117.677184,
		  "velocity": 0.7480314960629921
		},
		{
		  "duration": 0.19354799999999273,
		  "durationTicks": 240,
		  "midi": 53,
		  "name": "F3",
		  "ticks": 146160,
		  "time": 117.870732,
		  "velocity": 0.7480314960629921
		},
		{
		  "duration": 0.19354799999999273,
		  "durationTicks": 240,
		  "midi": 46,
		  "name": "A#2",
		  "ticks": 146160,
		  "time": 117.870732,
		  "velocity": 0.7480314960629921
		},
		{
		  "duration": 0.19354800000000694,
		  "durationTicks": 240,
		  "midi": 53,
		  "name": "F3",
		  "ticks": 146400,
		  "time": 118.06428,
		  "velocity": 0.7480314960629921
		},
		{
		  "duration": 0.19354800000000694,
		  "durationTicks": 240,
		  "midi": 46,
		  "name": "A#2",
		  "ticks": 146400,
		  "time": 118.06428,
		  "velocity": 0.7480314960629921
		},
		{
		  "duration": 0.07258050000000082,
		  "durationTicks": 90,
		  "midi": 46,
		  "name": "A#2",
		  "ticks": 149040,
		  "time": 120.193308,
		  "velocity": 0.5984251968503937
		},
		{
		  "duration": 0.07258050000000082,
		  "durationTicks": 90,
		  "midi": 46,
		  "name": "A#2",
		  "ticks": 149160,
		  "time": 120.290082,
		  "velocity": 0.5984251968503937
		},
		{
		  "duration": 0.19354800000000694,
		  "durationTicks": 240,
		  "midi": 53,
		  "name": "F3",
		  "ticks": 149280,
		  "time": 120.386856,
		  "velocity": 0.7480314960629921
		},
		{
		  "duration": 0.19354800000000694,
		  "durationTicks": 240,
		  "midi": 46,
		  "name": "A#2",
		  "ticks": 149280,
		  "time": 120.386856,
		  "velocity": 0.7480314960629921
		},
		{
		  "duration": 0.19354799999999273,
		  "durationTicks": 240,
		  "midi": 53,
		  "name": "F3",
		  "ticks": 149520,
		  "time": 120.580404,
		  "velocity": 0.7480314960629921
		},
		{
		  "duration": 0.19354799999999273,
		  "durationTicks": 240,
		  "midi": 46,
		  "name": "A#2",
		  "ticks": 149520,
		  "time": 120.580404,
		  "velocity": 0.7480314960629921
		},
		{
		  "duration": 0.19354800000000694,
		  "durationTicks": 240,
		  "midi": 49,
		  "name": "C#3",
		  "ticks": 149760,
		  "time": 120.773952,
		  "velocity": 0.7480314960629921
		},
		{
		  "duration": 0.19354800000000694,
		  "durationTicks": 240,
		  "midi": 42,
		  "name": "F#2",
		  "ticks": 149760,
		  "time": 120.773952,
		  "velocity": 0.7480314960629921
		},
		{
		  "duration": 0.19354799999999273,
		  "durationTicks": 240,
		  "midi": 49,
		  "name": "C#3",
		  "ticks": 150000,
		  "time": 120.9675,
		  "velocity": 0.7480314960629921
		},
		{
		  "duration": 0.19354799999999273,
		  "durationTicks": 240,
		  "midi": 42,
		  "name": "F#2",
		  "ticks": 150000,
		  "time": 120.9675,
		  "velocity": 0.7480314960629921
		},
		{
		  "duration": 0.19354800000000694,
		  "durationTicks": 240,
		  "midi": 49,
		  "name": "C#3",
		  "ticks": 150240,
		  "time": 121.161048,
		  "velocity": 0.7480314960629921
		},
		{
		  "duration": 0.19354800000000694,
		  "durationTicks": 240,
		  "midi": 42,
		  "name": "F#2",
		  "ticks": 150240,
		  "time": 121.161048,
		  "velocity": 0.7480314960629921
		},
		{
		  "duration": 0.07258050000000082,
		  "durationTicks": 90,
		  "midi": 42,
		  "name": "F#2",
		  "ticks": 152400,
		  "time": 122.90298,
		  "velocity": 0.5984251968503937
		},
		{
		  "duration": 0.07258050000000082,
		  "durationTicks": 90,
		  "midi": 42,
		  "name": "F#2",
		  "ticks": 152520,
		  "time": 122.999754,
		  "velocity": 0.5984251968503937
		},
		{
		  "duration": 0.14516100000000165,
		  "durationTicks": 180,
		  "midi": 42,
		  "name": "F#2",
		  "ticks": 152640,
		  "time": 123.09652799999999,
		  "velocity": 0.5984251968503937
		},
		{
		  "duration": 0.07258050000000082,
		  "durationTicks": 90,
		  "midi": 42,
		  "name": "F#2",
		  "ticks": 152880,
		  "time": 123.290076,
		  "velocity": 0.5984251968503937
		},
		{
		  "duration": 0.07258050000000082,
		  "durationTicks": 90,
		  "midi": 42,
		  "name": "F#2",
		  "ticks": 153000,
		  "time": 123.38685,
		  "velocity": 0.5984251968503937
		},
		{
		  "duration": 0.3870960000000139,
		  "durationTicks": 480,
		  "midi": 49,
		  "name": "C#3",
		  "ticks": 153120,
		  "time": 123.48362399999999,
		  "velocity": 0.7480314960629921
		},
		{
		  "duration": 0.3870960000000139,
		  "durationTicks": 480,
		  "midi": 42,
		  "name": "F#2",
		  "ticks": 153120,
		  "time": 123.48362399999999,
		  "velocity": 0.7480314960629921
		},
		{
		  "duration": 0.19354799999999273,
		  "durationTicks": 240,
		  "midi": 53,
		  "name": "F3",
		  "ticks": 153600,
		  "time": 123.87072,
		  "velocity": 0.7480314960629921
		},
		{
		  "duration": 0.19354799999999273,
		  "durationTicks": 240,
		  "midi": 46,
		  "name": "A#2",
		  "ticks": 153600,
		  "time": 123.87072,
		  "velocity": 0.7480314960629921
		},
		{
		  "duration": 0.19354800000000694,
		  "durationTicks": 240,
		  "midi": 53,
		  "name": "F3",
		  "ticks": 153840,
		  "time": 124.064268,
		  "velocity": 0.7480314960629921
		},
		{
		  "duration": 0.19354800000000694,
		  "durationTicks": 240,
		  "midi": 46,
		  "name": "A#2",
		  "ticks": 153840,
		  "time": 124.064268,
		  "velocity": 0.7480314960629921
		},
		{
		  "duration": 0.19354799999999273,
		  "durationTicks": 240,
		  "midi": 53,
		  "name": "F3",
		  "ticks": 154080,
		  "time": 124.257816,
		  "velocity": 0.7480314960629921
		},
		{
		  "duration": 0.19354799999999273,
		  "durationTicks": 240,
		  "midi": 46,
		  "name": "A#2",
		  "ticks": 154080,
		  "time": 124.257816,
		  "velocity": 0.7480314960629921
		},
		{
		  "duration": 0.19354800000000694,
		  "durationTicks": 240,
		  "midi": 53,
		  "name": "F3",
		  "ticks": 154320,
		  "time": 124.451364,
		  "velocity": 0.7480314960629921
		},
		{
		  "duration": 0.19354800000000694,
		  "durationTicks": 240,
		  "midi": 46,
		  "name": "A#2",
		  "ticks": 154320,
		  "time": 124.451364,
		  "velocity": 0.7480314960629921
		},
		{
		  "duration": 0.19354799999999273,
		  "durationTicks": 240,
		  "midi": 53,
		  "name": "F3",
		  "ticks": 154560,
		  "time": 124.644912,
		  "velocity": 0.7480314960629921
		},
		{
		  "duration": 0.19354799999999273,
		  "durationTicks": 240,
		  "midi": 46,
		  "name": "A#2",
		  "ticks": 154560,
		  "time": 124.644912,
		  "velocity": 0.7480314960629921
		},
		{
		  "duration": 0.19354800000000694,
		  "durationTicks": 240,
		  "midi": 53,
		  "name": "F3",
		  "ticks": 154800,
		  "time": 124.83846,
		  "velocity": 0.7480314960629921
		},
		{
		  "duration": 0.19354800000000694,
		  "durationTicks": 240,
		  "midi": 46,
		  "name": "A#2",
		  "ticks": 154800,
		  "time": 124.83846,
		  "velocity": 0.7480314960629921
		},
		{
		  "duration": 0.19354799999999273,
		  "durationTicks": 240,
		  "midi": 53,
		  "name": "F3",
		  "ticks": 155040,
		  "time": 125.032008,
		  "velocity": 0.7480314960629921
		},
		{
		  "duration": 0.19354799999999273,
		  "durationTicks": 240,
		  "midi": 46,
		  "name": "A#2",
		  "ticks": 155040,
		  "time": 125.032008,
		  "velocity": 0.7480314960629921
		},
		{
		  "duration": 0.19354800000000694,
		  "durationTicks": 240,
		  "midi": 53,
		  "name": "F3",
		  "ticks": 155280,
		  "time": 125.225556,
		  "velocity": 0.7480314960629921
		},
		{
		  "duration": 0.19354800000000694,
		  "durationTicks": 240,
		  "midi": 46,
		  "name": "A#2",
		  "ticks": 155280,
		  "time": 125.225556,
		  "velocity": 0.7480314960629921
		},
		{
		  "duration": 0.19354799999999273,
		  "durationTicks": 240,
		  "midi": 51,
		  "name": "D#3",
		  "ticks": 155520,
		  "time": 125.419104,
		  "velocity": 0.7480314960629921
		},
		{
		  "duration": 0.19354799999999273,
		  "durationTicks": 240,
		  "midi": 44,
		  "name": "G#2",
		  "ticks": 155520,
		  "time": 125.419104,
		  "velocity": 0.7480314960629921
		},
		{
		  "duration": 0.19354800000000694,
		  "durationTicks": 240,
		  "midi": 51,
		  "name": "D#3",
		  "ticks": 155760,
		  "time": 125.612652,
		  "velocity": 0.7480314960629921
		},
		{
		  "duration": 0.19354800000000694,
		  "durationTicks": 240,
		  "midi": 44,
		  "name": "G#2",
		  "ticks": 155760,
		  "time": 125.612652,
		  "velocity": 0.7480314960629921
		},
		{
		  "duration": 0.19354799999999273,
		  "durationTicks": 240,
		  "midi": 51,
		  "name": "D#3",
		  "ticks": 156000,
		  "time": 125.8062,
		  "velocity": 0.7480314960629921
		},
		{
		  "duration": 0.19354799999999273,
		  "durationTicks": 240,
		  "midi": 44,
		  "name": "G#2",
		  "ticks": 156000,
		  "time": 125.8062,
		  "velocity": 0.7480314960629921
		},
		{
		  "duration": 0.19354800000000694,
		  "durationTicks": 240,
		  "midi": 51,
		  "name": "D#3",
		  "ticks": 156240,
		  "time": 125.999748,
		  "velocity": 0.7480314960629921
		},
		{
		  "duration": 0.19354800000000694,
		  "durationTicks": 240,
		  "midi": 44,
		  "name": "G#2",
		  "ticks": 156240,
		  "time": 125.999748,
		  "velocity": 0.7480314960629921
		},
		{
		  "duration": 0.19354799999999273,
		  "durationTicks": 240,
		  "midi": 51,
		  "name": "D#3",
		  "ticks": 156480,
		  "time": 126.193296,
		  "velocity": 0.7480314960629921
		},
		{
		  "duration": 0.19354799999999273,
		  "durationTicks": 240,
		  "midi": 44,
		  "name": "G#2",
		  "ticks": 156480,
		  "time": 126.193296,
		  "velocity": 0.7480314960629921
		},
		{
		  "duration": 0.19354800000000694,
		  "durationTicks": 240,
		  "midi": 51,
		  "name": "D#3",
		  "ticks": 156720,
		  "time": 126.386844,
		  "velocity": 0.7480314960629921
		},
		{
		  "duration": 0.19354800000000694,
		  "durationTicks": 240,
		  "midi": 44,
		  "name": "G#2",
		  "ticks": 156720,
		  "time": 126.386844,
		  "velocity": 0.7480314960629921
		},
		{
		  "duration": 0.19354799999999273,
		  "durationTicks": 240,
		  "midi": 51,
		  "name": "D#3",
		  "ticks": 156960,
		  "time": 126.580392,
		  "velocity": 0.7480314960629921
		},
		{
		  "duration": 0.19354799999999273,
		  "durationTicks": 240,
		  "midi": 44,
		  "name": "G#2",
		  "ticks": 156960,
		  "time": 126.580392,
		  "velocity": 0.7480314960629921
		},
		{
		  "duration": 0.19354800000000694,
		  "durationTicks": 240,
		  "midi": 51,
		  "name": "D#3",
		  "ticks": 157200,
		  "time": 126.77394,
		  "velocity": 0.7480314960629921
		},
		{
		  "duration": 0.19354800000000694,
		  "durationTicks": 240,
		  "midi": 44,
		  "name": "G#2",
		  "ticks": 157200,
		  "time": 126.77394,
		  "velocity": 0.7480314960629921
		},
		{
		  "duration": 0.19354799999999273,
		  "durationTicks": 240,
		  "midi": 48,
		  "name": "C3",
		  "ticks": 157440,
		  "time": 126.967488,
		  "velocity": 0.7480314960629921
		},
		{
		  "duration": 0.19354799999999273,
		  "durationTicks": 240,
		  "midi": 41,
		  "name": "F2",
		  "ticks": 157440,
		  "time": 126.967488,
		  "velocity": 0.7480314960629921
		},
		{
		  "duration": 0.19354800000000694,
		  "durationTicks": 240,
		  "midi": 48,
		  "name": "C3",
		  "ticks": 157680,
		  "time": 127.161036,
		  "velocity": 0.7480314960629921
		},
		{
		  "duration": 0.19354800000000694,
		  "durationTicks": 240,
		  "midi": 41,
		  "name": "F2",
		  "ticks": 157680,
		  "time": 127.161036,
		  "velocity": 0.7480314960629921
		},
		{
		  "duration": 0.19354799999999273,
		  "durationTicks": 240,
		  "midi": 48,
		  "name": "C3",
		  "ticks": 157920,
		  "time": 127.354584,
		  "velocity": 0.7480314960629921
		},
		{
		  "duration": 0.19354799999999273,
		  "durationTicks": 240,
		  "midi": 41,
		  "name": "F2",
		  "ticks": 157920,
		  "time": 127.354584,
		  "velocity": 0.7480314960629921
		},
		{
		  "duration": 0.19354800000000694,
		  "durationTicks": 240,
		  "midi": 48,
		  "name": "C3",
		  "ticks": 158160,
		  "time": 127.548132,
		  "velocity": 0.7480314960629921
		},
		{
		  "duration": 0.19354800000000694,
		  "durationTicks": 240,
		  "midi": 41,
		  "name": "F2",
		  "ticks": 158160,
		  "time": 127.548132,
		  "velocity": 0.7480314960629921
		},
		{
		  "duration": 0.19354799999999273,
		  "durationTicks": 240,
		  "midi": 48,
		  "name": "C3",
		  "ticks": 158400,
		  "time": 127.74168,
		  "velocity": 0.7480314960629921
		},
		{
		  "duration": 0.19354799999999273,
		  "durationTicks": 240,
		  "midi": 41,
		  "name": "F2",
		  "ticks": 158400,
		  "time": 127.74168,
		  "velocity": 0.7480314960629921
		},
		{
		  "duration": 0.19354799999999273,
		  "durationTicks": 240,
		  "midi": 48,
		  "name": "C3",
		  "ticks": 158640,
		  "time": 127.935228,
		  "velocity": 0.7480314960629921
		},
		{
		  "duration": 0.19354799999999273,
		  "durationTicks": 240,
		  "midi": 41,
		  "name": "F2",
		  "ticks": 158640,
		  "time": 127.935228,
		  "velocity": 0.7480314960629921
		},
		{
		  "duration": 0.19354800000002115,
		  "durationTicks": 240,
		  "midi": 48,
		  "name": "C3",
		  "ticks": 158880,
		  "time": 128.128776,
		  "velocity": 0.7480314960629921
		},
		{
		  "duration": 0.19354800000002115,
		  "durationTicks": 240,
		  "midi": 41,
		  "name": "F2",
		  "ticks": 158880,
		  "time": 128.128776,
		  "velocity": 0.7480314960629921
		},
		{
		  "duration": 0.19354799999999273,
		  "durationTicks": 240,
		  "midi": 48,
		  "name": "C3",
		  "ticks": 159120,
		  "time": 128.322324,
		  "velocity": 0.7480314960629921
		},
		{
		  "duration": 0.19354799999999273,
		  "durationTicks": 240,
		  "midi": 41,
		  "name": "F2",
		  "ticks": 159120,
		  "time": 128.322324,
		  "velocity": 0.7480314960629921
		},
		{
		  "duration": 0.2903220000000033,
		  "durationTicks": 360,
		  "midi": 53,
		  "name": "F3",
		  "ticks": 159360,
		  "time": 128.515872,
		  "velocity": 0.5984251968503937
		},
		{
		  "duration": 0.2903220000000033,
		  "durationTicks": 360,
		  "midi": 46,
		  "name": "A#2",
		  "ticks": 159360,
		  "time": 128.515872,
		  "velocity": 0.5984251968503937
		},
		{
		  "duration": 0.2903220000000033,
		  "durationTicks": 360,
		  "midi": 53,
		  "name": "F3",
		  "ticks": 159840,
		  "time": 128.902968,
		  "velocity": 0.5984251968503937
		},
		{
		  "duration": 0.2903220000000033,
		  "durationTicks": 360,
		  "midi": 46,
		  "name": "A#2",
		  "ticks": 159840,
		  "time": 128.902968,
		  "velocity": 0.5984251968503937
		},
		{
		  "duration": 0.2903220000000033,
		  "durationTicks": 360,
		  "midi": 53,
		  "name": "F3",
		  "ticks": 160320,
		  "time": 129.290064,
		  "velocity": 0.5984251968503937
		},
		{
		  "duration": 0.2903220000000033,
		  "durationTicks": 360,
		  "midi": 46,
		  "name": "A#2",
		  "ticks": 160320,
		  "time": 129.290064,
		  "velocity": 0.5984251968503937
		},
		{
		  "duration": 0.19354800000002115,
		  "durationTicks": 240,
		  "midi": 53,
		  "name": "F3",
		  "ticks": 160800,
		  "time": 129.67716,
		  "velocity": 0.7480314960629921
		},
		{
		  "duration": 0.19354800000002115,
		  "durationTicks": 240,
		  "midi": 46,
		  "name": "A#2",
		  "ticks": 160800,
		  "time": 129.67716,
		  "velocity": 0.7480314960629921
		},
		{
		  "duration": 0.19354799999999273,
		  "durationTicks": 240,
		  "midi": 51,
		  "name": "D#3",
		  "ticks": 161040,
		  "time": 129.870708,
		  "velocity": 0.7480314960629921
		},
		{
		  "duration": 0.19354799999999273,
		  "durationTicks": 240,
		  "midi": 44,
		  "name": "G#2",
		  "ticks": 161040,
		  "time": 129.870708,
		  "velocity": 0.7480314960629921
		},
		{
		  "duration": 0.19354799999999273,
		  "durationTicks": 240,
		  "midi": 51,
		  "name": "D#3",
		  "ticks": 161520,
		  "time": 130.257804,
		  "velocity": 0.7480314960629921
		},
		{
		  "duration": 0.19354799999999273,
		  "durationTicks": 240,
		  "midi": 44,
		  "name": "G#2",
		  "ticks": 161520,
		  "time": 130.257804,
		  "velocity": 0.7480314960629921
		},
		{
		  "duration": 0.19354800000002115,
		  "durationTicks": 240,
		  "midi": 51,
		  "name": "D#3",
		  "ticks": 161760,
		  "time": 130.45135199999999,
		  "velocity": 0.7480314960629921
		},
		{
		  "duration": 0.19354800000002115,
		  "durationTicks": 240,
		  "midi": 44,
		  "name": "G#2",
		  "ticks": 161760,
		  "time": 130.45135199999999,
		  "velocity": 0.7480314960629921
		},
		{
		  "duration": 0.19354799999999273,
		  "durationTicks": 240,
		  "midi": 53,
		  "name": "F3",
		  "ticks": 162000,
		  "time": 130.6449,
		  "velocity": 0.7480314960629921
		},
		{
		  "duration": 0.19354799999999273,
		  "durationTicks": 240,
		  "midi": 46,
		  "name": "A#2",
		  "ticks": 162000,
		  "time": 130.6449,
		  "velocity": 0.7480314960629921
		},
		{
		  "duration": 0.19354799999999273,
		  "durationTicks": 240,
		  "midi": 53,
		  "name": "F3",
		  "ticks": 163200,
		  "time": 131.61264,
		  "velocity": 0.7480314960629921
		},
		{
		  "duration": 0.19354799999999273,
		  "durationTicks": 240,
		  "midi": 46,
		  "name": "A#2",
		  "ticks": 163200,
		  "time": 131.61264,
		  "velocity": 0.7480314960629921
		},
		{
		  "duration": 0.19354799999999273,
		  "durationTicks": 240,
		  "midi": 53,
		  "name": "F3",
		  "ticks": 163440,
		  "time": 131.806188,
		  "velocity": 0.7480314960629921
		},
		{
		  "duration": 0.19354799999999273,
		  "durationTicks": 240,
		  "midi": 46,
		  "name": "A#2",
		  "ticks": 163440,
		  "time": 131.806188,
		  "velocity": 0.7480314960629921
		},
		{
		  "duration": 0.19354800000002115,
		  "durationTicks": 240,
		  "midi": 53,
		  "name": "F3",
		  "ticks": 163680,
		  "time": 131.99973599999998,
		  "velocity": 0.7480314960629921
		},
		{
		  "duration": 0.19354800000002115,
		  "durationTicks": 240,
		  "midi": 46,
		  "name": "A#2",
		  "ticks": 163680,
		  "time": 131.99973599999998,
		  "velocity": 0.7480314960629921
		},
		{
		  "duration": 0.19354799999999273,
		  "durationTicks": 240,
		  "midi": 53,
		  "name": "F3",
		  "ticks": 163920,
		  "time": 132.193284,
		  "velocity": 0.7480314960629921
		},
		{
		  "duration": 0.19354799999999273,
		  "durationTicks": 240,
		  "midi": 46,
		  "name": "A#2",
		  "ticks": 163920,
		  "time": 132.193284,
		  "velocity": 0.7480314960629921
		},
		{
		  "duration": 0.19354799999999273,
		  "durationTicks": 240,
		  "midi": 53,
		  "name": "F3",
		  "ticks": 164160,
		  "time": 132.386832,
		  "velocity": 0.7480314960629921
		},
		{
		  "duration": 0.19354799999999273,
		  "durationTicks": 240,
		  "midi": 46,
		  "name": "A#2",
		  "ticks": 164160,
		  "time": 132.386832,
		  "velocity": 0.7480314960629921
		},
		{
		  "duration": 0.19354800000002115,
		  "durationTicks": 240,
		  "midi": 53,
		  "name": "F3",
		  "ticks": 164400,
		  "time": 132.58038,
		  "velocity": 0.7480314960629921
		},
		{
		  "duration": 0.19354800000002115,
		  "durationTicks": 240,
		  "midi": 46,
		  "name": "A#2",
		  "ticks": 164400,
		  "time": 132.58038,
		  "velocity": 0.7480314960629921
		},
		{
		  "duration": 0.19354799999999273,
		  "durationTicks": 240,
		  "midi": 53,
		  "name": "F3",
		  "ticks": 164640,
		  "time": 132.773928,
		  "velocity": 0.7480314960629921
		},
		{
		  "duration": 0.19354799999999273,
		  "durationTicks": 240,
		  "midi": 46,
		  "name": "A#2",
		  "ticks": 164640,
		  "time": 132.773928,
		  "velocity": 0.7480314960629921
		},
		{
		  "duration": 0.19354799999999273,
		  "durationTicks": 240,
		  "midi": 53,
		  "name": "F3",
		  "ticks": 164880,
		  "time": 132.967476,
		  "velocity": 0.7480314960629921
		},
		{
		  "duration": 0.19354799999999273,
		  "durationTicks": 240,
		  "midi": 46,
		  "name": "A#2",
		  "ticks": 164880,
		  "time": 132.967476,
		  "velocity": 0.7480314960629921
		},
		{
		  "duration": 0.19354799999999273,
		  "durationTicks": 240,
		  "midi": 53,
		  "name": "F3",
		  "ticks": 165120,
		  "time": 133.161024,
		  "velocity": 0.7480314960629921
		},
		{
		  "duration": 0.19354799999999273,
		  "durationTicks": 240,
		  "midi": 46,
		  "name": "A#2",
		  "ticks": 165120,
		  "time": 133.161024,
		  "velocity": 0.7480314960629921
		},
		{
		  "duration": 0.19354800000002115,
		  "durationTicks": 240,
		  "midi": 53,
		  "name": "F3",
		  "ticks": 165360,
		  "time": 133.354572,
		  "velocity": 0.7480314960629921
		},
		{
		  "duration": 0.19354800000002115,
		  "durationTicks": 240,
		  "midi": 46,
		  "name": "A#2",
		  "ticks": 165360,
		  "time": 133.354572,
		  "velocity": 0.7480314960629921
		},
		{
		  "duration": 0.19354799999999273,
		  "durationTicks": 240,
		  "midi": 53,
		  "name": "F3",
		  "ticks": 165600,
		  "time": 133.54812,
		  "velocity": 0.7480314960629921
		},
		{
		  "duration": 0.19354799999999273,
		  "durationTicks": 240,
		  "midi": 46,
		  "name": "A#2",
		  "ticks": 165600,
		  "time": 133.54812,
		  "velocity": 0.7480314960629921
		},
		{
		  "duration": 0.19354799999999273,
		  "durationTicks": 240,
		  "midi": 53,
		  "name": "F3",
		  "ticks": 165840,
		  "time": 133.741668,
		  "velocity": 0.7480314960629921
		},
		{
		  "duration": 0.19354799999999273,
		  "durationTicks": 240,
		  "midi": 46,
		  "name": "A#2",
		  "ticks": 165840,
		  "time": 133.741668,
		  "velocity": 0.7480314960629921
		},
		{
		  "duration": 0.19354799999999273,
		  "durationTicks": 240,
		  "midi": 53,
		  "name": "F3",
		  "ticks": 166080,
		  "time": 133.935216,
		  "velocity": 0.7480314960629921
		},
		{
		  "duration": 0.19354799999999273,
		  "durationTicks": 240,
		  "midi": 46,
		  "name": "A#2",
		  "ticks": 166080,
		  "time": 133.935216,
		  "velocity": 0.7480314960629921
		},
		{
		  "duration": 0.19354800000002115,
		  "durationTicks": 240,
		  "midi": 53,
		  "name": "F3",
		  "ticks": 166320,
		  "time": 134.128764,
		  "velocity": 0.7480314960629921
		},
		{
		  "duration": 0.19354800000002115,
		  "durationTicks": 240,
		  "midi": 46,
		  "name": "A#2",
		  "ticks": 166320,
		  "time": 134.128764,
		  "velocity": 0.7480314960629921
		},
		{
		  "duration": 0.19354799999999273,
		  "durationTicks": 240,
		  "midi": 53,
		  "name": "F3",
		  "ticks": 166560,
		  "time": 134.322312,
		  "velocity": 0.7480314960629921
		},
		{
		  "duration": 0.19354799999999273,
		  "durationTicks": 240,
		  "midi": 46,
		  "name": "A#2",
		  "ticks": 166560,
		  "time": 134.322312,
		  "velocity": 0.7480314960629921
		},
		{
		  "duration": 0.19354799999999273,
		  "durationTicks": 240,
		  "midi": 53,
		  "name": "F3",
		  "ticks": 166800,
		  "time": 134.51586,
		  "velocity": 0.7480314960629921
		},
		{
		  "duration": 0.19354799999999273,
		  "durationTicks": 240,
		  "midi": 46,
		  "name": "A#2",
		  "ticks": 166800,
		  "time": 134.51586,
		  "velocity": 0.7480314960629921
		},
		{
		  "duration": 0.19354799999999273,
		  "durationTicks": 240,
		  "midi": 51,
		  "name": "D#3",
		  "ticks": 167040,
		  "time": 134.709408,
		  "velocity": 0.7480314960629921
		},
		{
		  "duration": 0.19354799999999273,
		  "durationTicks": 240,
		  "midi": 44,
		  "name": "G#2",
		  "ticks": 167040,
		  "time": 134.709408,
		  "velocity": 0.7480314960629921
		},
		{
		  "duration": 0.19354800000002115,
		  "durationTicks": 240,
		  "midi": 51,
		  "name": "D#3",
		  "ticks": 167280,
		  "time": 134.902956,
		  "velocity": 0.7480314960629921
		},
		{
		  "duration": 0.19354800000002115,
		  "durationTicks": 240,
		  "midi": 44,
		  "name": "G#2",
		  "ticks": 167280,
		  "time": 134.902956,
		  "velocity": 0.7480314960629921
		},
		{
		  "duration": 0.19354799999999273,
		  "durationTicks": 240,
		  "midi": 51,
		  "name": "D#3",
		  "ticks": 167520,
		  "time": 135.096504,
		  "velocity": 0.7480314960629921
		},
		{
		  "duration": 0.19354799999999273,
		  "durationTicks": 240,
		  "midi": 44,
		  "name": "G#2",
		  "ticks": 167520,
		  "time": 135.096504,
		  "velocity": 0.7480314960629921
		},
		{
		  "duration": 0.19354799999999273,
		  "durationTicks": 240,
		  "midi": 51,
		  "name": "D#3",
		  "ticks": 167760,
		  "time": 135.290052,
		  "velocity": 0.7480314960629921
		},
		{
		  "duration": 0.19354799999999273,
		  "durationTicks": 240,
		  "midi": 44,
		  "name": "G#2",
		  "ticks": 167760,
		  "time": 135.290052,
		  "velocity": 0.7480314960629921
		},
		{
		  "duration": 0.19354799999999273,
		  "durationTicks": 240,
		  "midi": 51,
		  "name": "D#3",
		  "ticks": 168000,
		  "time": 135.4836,
		  "velocity": 0.7480314960629921
		},
		{
		  "duration": 0.19354799999999273,
		  "durationTicks": 240,
		  "midi": 44,
		  "name": "G#2",
		  "ticks": 168000,
		  "time": 135.4836,
		  "velocity": 0.7480314960629921
		},
		{
		  "duration": 0.19354800000002115,
		  "durationTicks": 240,
		  "midi": 51,
		  "name": "D#3",
		  "ticks": 168240,
		  "time": 135.677148,
		  "velocity": 0.7480314960629921
		},
		{
		  "duration": 0.19354800000002115,
		  "durationTicks": 240,
		  "midi": 44,
		  "name": "G#2",
		  "ticks": 168240,
		  "time": 135.677148,
		  "velocity": 0.7480314960629921
		},
		{
		  "duration": 0.19354799999999273,
		  "durationTicks": 240,
		  "midi": 51,
		  "name": "D#3",
		  "ticks": 168480,
		  "time": 135.870696,
		  "velocity": 0.7480314960629921
		},
		{
		  "duration": 0.19354799999999273,
		  "durationTicks": 240,
		  "midi": 44,
		  "name": "G#2",
		  "ticks": 168480,
		  "time": 135.870696,
		  "velocity": 0.7480314960629921
		},
		{
		  "duration": 0.19354799999999273,
		  "durationTicks": 240,
		  "midi": 51,
		  "name": "D#3",
		  "ticks": 168720,
		  "time": 136.064244,
		  "velocity": 0.7480314960629921
		},
		{
		  "duration": 0.19354799999999273,
		  "durationTicks": 240,
		  "midi": 44,
		  "name": "G#2",
		  "ticks": 168720,
		  "time": 136.064244,
		  "velocity": 0.7480314960629921
		},
		{
		  "duration": 0.19354799999999273,
		  "durationTicks": 240,
		  "midi": 53,
		  "name": "F3",
		  "ticks": 168960,
		  "time": 136.257792,
		  "velocity": 0.7480314960629921
		},
		{
		  "duration": 0.19354799999999273,
		  "durationTicks": 240,
		  "midi": 46,
		  "name": "A#2",
		  "ticks": 168960,
		  "time": 136.257792,
		  "velocity": 0.7480314960629921
		},
		{
		  "duration": 0.19354800000002115,
		  "durationTicks": 240,
		  "midi": 53,
		  "name": "F3",
		  "ticks": 169200,
		  "time": 136.45134,
		  "velocity": 0.7480314960629921
		},
		{
		  "duration": 0.19354800000002115,
		  "durationTicks": 240,
		  "midi": 46,
		  "name": "A#2",
		  "ticks": 169200,
		  "time": 136.45134,
		  "velocity": 0.7480314960629921
		},
		{
		  "duration": 0.19354799999999273,
		  "durationTicks": 240,
		  "midi": 53,
		  "name": "F3",
		  "ticks": 169440,
		  "time": 136.644888,
		  "velocity": 0.7480314960629921
		},
		{
		  "duration": 0.19354799999999273,
		  "durationTicks": 240,
		  "midi": 46,
		  "name": "A#2",
		  "ticks": 169440,
		  "time": 136.644888,
		  "velocity": 0.7480314960629921
		},
		{
		  "duration": 0.19354799999999273,
		  "durationTicks": 240,
		  "midi": 53,
		  "name": "F3",
		  "ticks": 169680,
		  "time": 136.838436,
		  "velocity": 0.7480314960629921
		},
		{
		  "duration": 0.19354799999999273,
		  "durationTicks": 240,
		  "midi": 46,
		  "name": "A#2",
		  "ticks": 169680,
		  "time": 136.838436,
		  "velocity": 0.7480314960629921
		},
		{
		  "duration": 0.19354799999999273,
		  "durationTicks": 240,
		  "midi": 53,
		  "name": "F3",
		  "ticks": 169920,
		  "time": 137.031984,
		  "velocity": 0.7480314960629921
		},
		{
		  "duration": 0.19354799999999273,
		  "durationTicks": 240,
		  "midi": 46,
		  "name": "A#2",
		  "ticks": 169920,
		  "time": 137.031984,
		  "velocity": 0.7480314960629921
		},
		{
		  "duration": 0.19354800000002115,
		  "durationTicks": 240,
		  "midi": 53,
		  "name": "F3",
		  "ticks": 170160,
		  "time": 137.225532,
		  "velocity": 0.7480314960629921
		},
		{
		  "duration": 0.19354800000002115,
		  "durationTicks": 240,
		  "midi": 46,
		  "name": "A#2",
		  "ticks": 170160,
		  "time": 137.225532,
		  "velocity": 0.7480314960629921
		},
		{
		  "duration": 0.19354799999999273,
		  "durationTicks": 240,
		  "midi": 53,
		  "name": "F3",
		  "ticks": 170400,
		  "time": 137.41908,
		  "velocity": 0.7480314960629921
		},
		{
		  "duration": 0.19354799999999273,
		  "durationTicks": 240,
		  "midi": 46,
		  "name": "A#2",
		  "ticks": 170400,
		  "time": 137.41908,
		  "velocity": 0.7480314960629921
		},
		{
		  "duration": 0.19354799999999273,
		  "durationTicks": 240,
		  "midi": 53,
		  "name": "F3",
		  "ticks": 170640,
		  "time": 137.612628,
		  "velocity": 0.7480314960629921
		},
		{
		  "duration": 0.19354799999999273,
		  "durationTicks": 240,
		  "midi": 46,
		  "name": "A#2",
		  "ticks": 170640,
		  "time": 137.612628,
		  "velocity": 0.7480314960629921
		},
		{
		  "duration": 0.19354799999999273,
		  "durationTicks": 240,
		  "midi": 51,
		  "name": "D#3",
		  "ticks": 170880,
		  "time": 137.806176,
		  "velocity": 0.7480314960629921
		},
		{
		  "duration": 0.19354799999999273,
		  "durationTicks": 240,
		  "midi": 44,
		  "name": "G#2",
		  "ticks": 170880,
		  "time": 137.806176,
		  "velocity": 0.7480314960629921
		},
		{
		  "duration": 0.19354800000002115,
		  "durationTicks": 240,
		  "midi": 51,
		  "name": "D#3",
		  "ticks": 171120,
		  "time": 137.999724,
		  "velocity": 0.7480314960629921
		},
		{
		  "duration": 0.19354800000002115,
		  "durationTicks": 240,
		  "midi": 44,
		  "name": "G#2",
		  "ticks": 171120,
		  "time": 137.999724,
		  "velocity": 0.7480314960629921
		},
		{
		  "duration": 0.19354799999999273,
		  "durationTicks": 240,
		  "midi": 51,
		  "name": "D#3",
		  "ticks": 171360,
		  "time": 138.193272,
		  "velocity": 0.7480314960629921
		},
		{
		  "duration": 0.19354799999999273,
		  "durationTicks": 240,
		  "midi": 44,
		  "name": "G#2",
		  "ticks": 171360,
		  "time": 138.193272,
		  "velocity": 0.7480314960629921
		},
		{
		  "duration": 0.19354799999999273,
		  "durationTicks": 240,
		  "midi": 51,
		  "name": "D#3",
		  "ticks": 171600,
		  "time": 138.38682,
		  "velocity": 0.7480314960629921
		},
		{
		  "duration": 0.19354799999999273,
		  "durationTicks": 240,
		  "midi": 44,
		  "name": "G#2",
		  "ticks": 171600,
		  "time": 138.38682,
		  "velocity": 0.7480314960629921
		},
		{
		  "duration": 0.19354799999999273,
		  "durationTicks": 240,
		  "midi": 51,
		  "name": "D#3",
		  "ticks": 171840,
		  "time": 138.580368,
		  "velocity": 0.7480314960629921
		},
		{
		  "duration": 0.19354799999999273,
		  "durationTicks": 240,
		  "midi": 44,
		  "name": "G#2",
		  "ticks": 171840,
		  "time": 138.580368,
		  "velocity": 0.7480314960629921
		},
		{
		  "duration": 0.19354800000002115,
		  "durationTicks": 240,
		  "midi": 51,
		  "name": "D#3",
		  "ticks": 172080,
		  "time": 138.77391599999999,
		  "velocity": 0.7480314960629921
		},
		{
		  "duration": 0.19354800000002115,
		  "durationTicks": 240,
		  "midi": 44,
		  "name": "G#2",
		  "ticks": 172080,
		  "time": 138.77391599999999,
		  "velocity": 0.7480314960629921
		},
		{
		  "duration": 0.19354799999999273,
		  "durationTicks": 240,
		  "midi": 51,
		  "name": "D#3",
		  "ticks": 172320,
		  "time": 138.967464,
		  "velocity": 0.7480314960629921
		},
		{
		  "duration": 0.19354799999999273,
		  "durationTicks": 240,
		  "midi": 44,
		  "name": "G#2",
		  "ticks": 172320,
		  "time": 138.967464,
		  "velocity": 0.7480314960629921
		},
		{
		  "duration": 0.19354799999999273,
		  "durationTicks": 240,
		  "midi": 51,
		  "name": "D#3",
		  "ticks": 172560,
		  "time": 139.161012,
		  "velocity": 0.7480314960629921
		},
		{
		  "duration": 0.19354799999999273,
		  "durationTicks": 240,
		  "midi": 44,
		  "name": "G#2",
		  "ticks": 172560,
		  "time": 139.161012,
		  "velocity": 0.7480314960629921
		},
		{
		  "duration": 0.19354799999999273,
		  "durationTicks": 240,
		  "midi": 49,
		  "name": "C#3",
		  "ticks": 172800,
		  "time": 139.35456,
		  "velocity": 0.7480314960629921
		},
		{
		  "duration": 0.19354799999999273,
		  "durationTicks": 240,
		  "midi": 42,
		  "name": "F#2",
		  "ticks": 172800,
		  "time": 139.35456,
		  "velocity": 0.7480314960629921
		},
		{
		  "duration": 0.19354800000002115,
		  "durationTicks": 240,
		  "midi": 49,
		  "name": "C#3",
		  "ticks": 173040,
		  "time": 139.54810799999998,
		  "velocity": 0.7480314960629921
		},
		{
		  "duration": 0.19354800000002115,
		  "durationTicks": 240,
		  "midi": 42,
		  "name": "F#2",
		  "ticks": 173040,
		  "time": 139.54810799999998,
		  "velocity": 0.7480314960629921
		},
		{
		  "duration": 0.19354799999999273,
		  "durationTicks": 240,
		  "midi": 49,
		  "name": "C#3",
		  "ticks": 173280,
		  "time": 139.741656,
		  "velocity": 0.7480314960629921
		},
		{
		  "duration": 0.19354799999999273,
		  "durationTicks": 240,
		  "midi": 42,
		  "name": "F#2",
		  "ticks": 173280,
		  "time": 139.741656,
		  "velocity": 0.7480314960629921
		},
		{
		  "duration": 0.19354799999999273,
		  "durationTicks": 240,
		  "midi": 49,
		  "name": "C#3",
		  "ticks": 173520,
		  "time": 139.935204,
		  "velocity": 0.7480314960629921
		},
		{
		  "duration": 0.19354799999999273,
		  "durationTicks": 240,
		  "midi": 42,
		  "name": "F#2",
		  "ticks": 173520,
		  "time": 139.935204,
		  "velocity": 0.7480314960629921
		},
		{
		  "duration": 0.19354799999999273,
		  "durationTicks": 240,
		  "midi": 49,
		  "name": "C#3",
		  "ticks": 173760,
		  "time": 140.128752,
		  "velocity": 0.7480314960629921
		},
		{
		  "duration": 0.19354799999999273,
		  "durationTicks": 240,
		  "midi": 42,
		  "name": "F#2",
		  "ticks": 173760,
		  "time": 140.128752,
		  "velocity": 0.7480314960629921
		},
		{
		  "duration": 0.19354800000002115,
		  "durationTicks": 240,
		  "midi": 49,
		  "name": "C#3",
		  "ticks": 174000,
		  "time": 140.32229999999998,
		  "velocity": 0.7480314960629921
		},
		{
		  "duration": 0.19354800000002115,
		  "durationTicks": 240,
		  "midi": 42,
		  "name": "F#2",
		  "ticks": 174000,
		  "time": 140.32229999999998,
		  "velocity": 0.7480314960629921
		},
		{
		  "duration": 0.19354799999999273,
		  "durationTicks": 240,
		  "midi": 49,
		  "name": "C#3",
		  "ticks": 174240,
		  "time": 140.515848,
		  "velocity": 0.7480314960629921
		},
		{
		  "duration": 0.19354799999999273,
		  "durationTicks": 240,
		  "midi": 42,
		  "name": "F#2",
		  "ticks": 174240,
		  "time": 140.515848,
		  "velocity": 0.7480314960629921
		},
		{
		  "duration": 0.19354799999999273,
		  "durationTicks": 240,
		  "midi": 49,
		  "name": "C#3",
		  "ticks": 174480,
		  "time": 140.709396,
		  "velocity": 0.7480314960629921
		},
		{
		  "duration": 0.19354799999999273,
		  "durationTicks": 240,
		  "midi": 42,
		  "name": "F#2",
		  "ticks": 174480,
		  "time": 140.709396,
		  "velocity": 0.7480314960629921
		},
		{
		  "duration": 0.19354800000002115,
		  "durationTicks": 240,
		  "midi": 48,
		  "name": "C3",
		  "ticks": 174720,
		  "time": 140.902944,
		  "velocity": 0.7480314960629921
		},
		{
		  "duration": 0.19354800000002115,
		  "durationTicks": 240,
		  "midi": 41,
		  "name": "F2",
		  "ticks": 174720,
		  "time": 140.902944,
		  "velocity": 0.7480314960629921
		},
		{
		  "duration": 0.19354799999999273,
		  "durationTicks": 240,
		  "midi": 48,
		  "name": "C3",
		  "ticks": 174960,
		  "time": 141.096492,
		  "velocity": 0.7480314960629921
		},
		{
		  "duration": 0.19354799999999273,
		  "durationTicks": 240,
		  "midi": 41,
		  "name": "F2",
		  "ticks": 174960,
		  "time": 141.096492,
		  "velocity": 0.7480314960629921
		},
		{
		  "duration": 0.19354799999999273,
		  "durationTicks": 240,
		  "midi": 48,
		  "name": "C3",
		  "ticks": 175200,
		  "time": 141.29004,
		  "velocity": 0.7480314960629921
		},
		{
		  "duration": 0.19354799999999273,
		  "durationTicks": 240,
		  "midi": 41,
		  "name": "F2",
		  "ticks": 175200,
		  "time": 141.29004,
		  "velocity": 0.7480314960629921
		},
		{
		  "duration": 0.19354799999999273,
		  "durationTicks": 240,
		  "midi": 48,
		  "name": "C3",
		  "ticks": 175440,
		  "time": 141.483588,
		  "velocity": 0.7480314960629921
		},
		{
		  "duration": 0.19354799999999273,
		  "durationTicks": 240,
		  "midi": 41,
		  "name": "F2",
		  "ticks": 175440,
		  "time": 141.483588,
		  "velocity": 0.7480314960629921
		},
		{
		  "duration": 0.19354800000002115,
		  "durationTicks": 240,
		  "midi": 48,
		  "name": "C3",
		  "ticks": 175680,
		  "time": 141.677136,
		  "velocity": 0.7480314960629921
		},
		{
		  "duration": 0.19354800000002115,
		  "durationTicks": 240,
		  "midi": 41,
		  "name": "F2",
		  "ticks": 175680,
		  "time": 141.677136,
		  "velocity": 0.7480314960629921
		},
		{
		  "duration": 0.19354799999999273,
		  "durationTicks": 240,
		  "midi": 48,
		  "name": "C3",
		  "ticks": 175920,
		  "time": 141.870684,
		  "velocity": 0.7480314960629921
		},
		{
		  "duration": 0.19354799999999273,
		  "durationTicks": 240,
		  "midi": 41,
		  "name": "F2",
		  "ticks": 175920,
		  "time": 141.870684,
		  "velocity": 0.7480314960629921
		},
		{
		  "duration": 0.19354799999999273,
		  "durationTicks": 240,
		  "midi": 48,
		  "name": "C3",
		  "ticks": 176160,
		  "time": 142.064232,
		  "velocity": 0.7480314960629921
		},
		{
		  "duration": 0.19354799999999273,
		  "durationTicks": 240,
		  "midi": 41,
		  "name": "F2",
		  "ticks": 176160,
		  "time": 142.064232,
		  "velocity": 0.7480314960629921
		},
		{
		  "duration": 0.19354799999999273,
		  "durationTicks": 240,
		  "midi": 48,
		  "name": "C3",
		  "ticks": 176400,
		  "time": 142.25778,
		  "velocity": 0.7480314960629921
		},
		{
		  "duration": 0.19354799999999273,
		  "durationTicks": 240,
		  "midi": 41,
		  "name": "F2",
		  "ticks": 176400,
		  "time": 142.25778,
		  "velocity": 0.7480314960629921
		},
		{
		  "duration": 0.19354800000002115,
		  "durationTicks": 240,
		  "midi": 53,
		  "name": "F3",
		  "ticks": 176640,
		  "time": 142.451328,
		  "velocity": 0.7480314960629921
		},
		{
		  "duration": 0.19354800000002115,
		  "durationTicks": 240,
		  "midi": 46,
		  "name": "A#2",
		  "ticks": 176640,
		  "time": 142.451328,
		  "velocity": 0.7480314960629921
		},
		{
		  "duration": 0.19354799999999273,
		  "durationTicks": 240,
		  "midi": 53,
		  "name": "F3",
		  "ticks": 176880,
		  "time": 142.644876,
		  "velocity": 0.7480314960629921
		},
		{
		  "duration": 0.19354799999999273,
		  "durationTicks": 240,
		  "midi": 46,
		  "name": "A#2",
		  "ticks": 176880,
		  "time": 142.644876,
		  "velocity": 0.7480314960629921
		},
		{
		  "duration": 0.19354799999999273,
		  "durationTicks": 240,
		  "midi": 53,
		  "name": "F3",
		  "ticks": 177120,
		  "time": 142.838424,
		  "velocity": 0.7480314960629921
		},
		{
		  "duration": 0.19354799999999273,
		  "durationTicks": 240,
		  "midi": 46,
		  "name": "A#2",
		  "ticks": 177120,
		  "time": 142.838424,
		  "velocity": 0.7480314960629921
		},
		{
		  "duration": 0.19354799999999273,
		  "durationTicks": 240,
		  "midi": 53,
		  "name": "F3",
		  "ticks": 177360,
		  "time": 143.031972,
		  "velocity": 0.7480314960629921
		},
		{
		  "duration": 0.19354799999999273,
		  "durationTicks": 240,
		  "midi": 46,
		  "name": "A#2",
		  "ticks": 177360,
		  "time": 143.031972,
		  "velocity": 0.7480314960629921
		},
		{
		  "duration": 0.19354800000002115,
		  "durationTicks": 240,
		  "midi": 53,
		  "name": "F3",
		  "ticks": 177600,
		  "time": 143.22552,
		  "velocity": 0.7480314960629921
		},
		{
		  "duration": 0.19354800000002115,
		  "durationTicks": 240,
		  "midi": 46,
		  "name": "A#2",
		  "ticks": 177600,
		  "time": 143.22552,
		  "velocity": 0.7480314960629921
		},
		{
		  "duration": 0.19354799999999273,
		  "durationTicks": 240,
		  "midi": 51,
		  "name": "D#3",
		  "ticks": 177840,
		  "time": 143.419068,
		  "velocity": 0.7480314960629921
		},
		{
		  "duration": 0.19354799999999273,
		  "durationTicks": 240,
		  "midi": 44,
		  "name": "G#2",
		  "ticks": 177840,
		  "time": 143.419068,
		  "velocity": 0.7480314960629921
		},
		{
		  "duration": 0.19354799999999273,
		  "durationTicks": 240,
		  "midi": 51,
		  "name": "D#3",
		  "ticks": 178080,
		  "time": 143.612616,
		  "velocity": 0.7480314960629921
		},
		{
		  "duration": 0.19354799999999273,
		  "durationTicks": 240,
		  "midi": 44,
		  "name": "G#2",
		  "ticks": 178080,
		  "time": 143.612616,
		  "velocity": 0.7480314960629921
		},
		{
		  "duration": 0.19354799999999273,
		  "durationTicks": 240,
		  "midi": 51,
		  "name": "D#3",
		  "ticks": 178320,
		  "time": 143.806164,
		  "velocity": 0.7480314960629921
		},
		{
		  "duration": 0.19354799999999273,
		  "durationTicks": 240,
		  "midi": 44,
		  "name": "G#2",
		  "ticks": 178320,
		  "time": 143.806164,
		  "velocity": 0.7480314960629921
		},
		{
		  "duration": 0.19354800000002115,
		  "durationTicks": 240,
		  "midi": 53,
		  "name": "F3",
		  "ticks": 178560,
		  "time": 143.999712,
		  "velocity": 0.7480314960629921
		},
		{
		  "duration": 0.19354800000002115,
		  "durationTicks": 240,
		  "midi": 46,
		  "name": "A#2",
		  "ticks": 178560,
		  "time": 143.999712,
		  "velocity": 0.7480314960629921
		},
		{
		  "duration": 0.19354799999999273,
		  "durationTicks": 240,
		  "midi": 53,
		  "name": "F3",
		  "ticks": 178800,
		  "time": 144.19326,
		  "velocity": 0.7480314960629921
		},
		{
		  "duration": 0.19354799999999273,
		  "durationTicks": 240,
		  "midi": 46,
		  "name": "A#2",
		  "ticks": 178800,
		  "time": 144.19326,
		  "velocity": 0.7480314960629921
		},
		{
		  "duration": 0.19354799999999273,
		  "durationTicks": 240,
		  "midi": 53,
		  "name": "F3",
		  "ticks": 179040,
		  "time": 144.386808,
		  "velocity": 0.7480314960629921
		},
		{
		  "duration": 0.19354799999999273,
		  "durationTicks": 240,
		  "midi": 46,
		  "name": "A#2",
		  "ticks": 179040,
		  "time": 144.386808,
		  "velocity": 0.7480314960629921
		},
		{
		  "duration": 0.19354799999999273,
		  "durationTicks": 240,
		  "midi": 53,
		  "name": "F3",
		  "ticks": 179280,
		  "time": 144.580356,
		  "velocity": 0.7480314960629921
		},
		{
		  "duration": 0.19354799999999273,
		  "durationTicks": 240,
		  "midi": 46,
		  "name": "A#2",
		  "ticks": 179280,
		  "time": 144.580356,
		  "velocity": 0.7480314960629921
		},
		{
		  "duration": 0.19354800000002115,
		  "durationTicks": 240,
		  "midi": 53,
		  "name": "F3",
		  "ticks": 179520,
		  "time": 144.773904,
		  "velocity": 0.7480314960629921
		},
		{
		  "duration": 0.19354800000002115,
		  "durationTicks": 240,
		  "midi": 46,
		  "name": "A#2",
		  "ticks": 179520,
		  "time": 144.773904,
		  "velocity": 0.7480314960629921
		},
		{
		  "duration": 0.19354799999999273,
		  "durationTicks": 240,
		  "midi": 53,
		  "name": "F3",
		  "ticks": 179760,
		  "time": 144.967452,
		  "velocity": 0.7480314960629921
		},
		{
		  "duration": 0.19354799999999273,
		  "durationTicks": 240,
		  "midi": 46,
		  "name": "A#2",
		  "ticks": 179760,
		  "time": 144.967452,
		  "velocity": 0.7480314960629921
		},
		{
		  "duration": 0.19354799999999273,
		  "durationTicks": 240,
		  "midi": 53,
		  "name": "F3",
		  "ticks": 180000,
		  "time": 145.161,
		  "velocity": 0.7480314960629921
		},
		{
		  "duration": 0.19354799999999273,
		  "durationTicks": 240,
		  "midi": 46,
		  "name": "A#2",
		  "ticks": 180000,
		  "time": 145.161,
		  "velocity": 0.7480314960629921
		},
		{
		  "duration": 0.19354799999999273,
		  "durationTicks": 240,
		  "midi": 53,
		  "name": "F3",
		  "ticks": 180240,
		  "time": 145.354548,
		  "velocity": 0.7480314960629921
		},
		{
		  "duration": 0.19354799999999273,
		  "durationTicks": 240,
		  "midi": 46,
		  "name": "A#2",
		  "ticks": 180240,
		  "time": 145.354548,
		  "velocity": 0.7480314960629921
		},
		{
		  "duration": 0.19354800000002115,
		  "durationTicks": 240,
		  "midi": 53,
		  "name": "F3",
		  "ticks": 180480,
		  "time": 145.548096,
		  "velocity": 0.7480314960629921
		},
		{
		  "duration": 0.19354800000002115,
		  "durationTicks": 240,
		  "midi": 46,
		  "name": "A#2",
		  "ticks": 180480,
		  "time": 145.548096,
		  "velocity": 0.7480314960629921
		},
		{
		  "duration": 0.19354799999999273,
		  "durationTicks": 240,
		  "midi": 53,
		  "name": "F3",
		  "ticks": 180720,
		  "time": 145.741644,
		  "velocity": 0.7480314960629921
		},
		{
		  "duration": 0.19354799999999273,
		  "durationTicks": 240,
		  "midi": 46,
		  "name": "A#2",
		  "ticks": 180720,
		  "time": 145.741644,
		  "velocity": 0.7480314960629921
		},
		{
		  "duration": 0.19354799999999273,
		  "durationTicks": 240,
		  "midi": 53,
		  "name": "F3",
		  "ticks": 180960,
		  "time": 145.935192,
		  "velocity": 0.7480314960629921
		},
		{
		  "duration": 0.19354799999999273,
		  "durationTicks": 240,
		  "midi": 46,
		  "name": "A#2",
		  "ticks": 180960,
		  "time": 145.935192,
		  "velocity": 0.7480314960629921
		},
		{
		  "duration": 0.19354799999999273,
		  "durationTicks": 240,
		  "midi": 53,
		  "name": "F3",
		  "ticks": 181200,
		  "time": 146.12874,
		  "velocity": 0.7480314960629921
		},
		{
		  "duration": 0.19354799999999273,
		  "durationTicks": 240,
		  "midi": 46,
		  "name": "A#2",
		  "ticks": 181200,
		  "time": 146.12874,
		  "velocity": 0.7480314960629921
		},
		{
		  "duration": 0.19354800000002115,
		  "durationTicks": 240,
		  "midi": 53,
		  "name": "F3",
		  "ticks": 181440,
		  "time": 146.322288,
		  "velocity": 0.7480314960629921
		},
		{
		  "duration": 0.19354800000002115,
		  "durationTicks": 240,
		  "midi": 46,
		  "name": "A#2",
		  "ticks": 181440,
		  "time": 146.322288,
		  "velocity": 0.7480314960629921
		},
		{
		  "duration": 0.19354799999999273,
		  "durationTicks": 240,
		  "midi": 53,
		  "name": "F3",
		  "ticks": 181680,
		  "time": 146.515836,
		  "velocity": 0.7480314960629921
		},
		{
		  "duration": 0.19354799999999273,
		  "durationTicks": 240,
		  "midi": 46,
		  "name": "A#2",
		  "ticks": 181680,
		  "time": 146.515836,
		  "velocity": 0.7480314960629921
		},
		{
		  "duration": 0.19354799999999273,
		  "durationTicks": 240,
		  "midi": 53,
		  "name": "F3",
		  "ticks": 181920,
		  "time": 146.709384,
		  "velocity": 0.7480314960629921
		},
		{
		  "duration": 0.19354799999999273,
		  "durationTicks": 240,
		  "midi": 46,
		  "name": "A#2",
		  "ticks": 181920,
		  "time": 146.709384,
		  "velocity": 0.7480314960629921
		},
		{
		  "duration": 0.19354799999999273,
		  "durationTicks": 240,
		  "midi": 53,
		  "name": "F3",
		  "ticks": 182160,
		  "time": 146.902932,
		  "velocity": 0.7480314960629921
		},
		{
		  "duration": 0.19354799999999273,
		  "durationTicks": 240,
		  "midi": 46,
		  "name": "A#2",
		  "ticks": 182160,
		  "time": 146.902932,
		  "velocity": 0.7480314960629921
		},
		{
		  "duration": 0.19354800000002115,
		  "durationTicks": 240,
		  "midi": 51,
		  "name": "D#3",
		  "ticks": 182400,
		  "time": 147.09647999999999,
		  "velocity": 0.7480314960629921
		},
		{
		  "duration": 0.19354800000002115,
		  "durationTicks": 240,
		  "midi": 44,
		  "name": "G#2",
		  "ticks": 182400,
		  "time": 147.09647999999999,
		  "velocity": 0.7480314960629921
		},
		{
		  "duration": 0.19354799999999273,
		  "durationTicks": 240,
		  "midi": 51,
		  "name": "D#3",
		  "ticks": 182640,
		  "time": 147.290028,
		  "velocity": 0.7480314960629921
		},
		{
		  "duration": 0.19354799999999273,
		  "durationTicks": 240,
		  "midi": 44,
		  "name": "G#2",
		  "ticks": 182640,
		  "time": 147.290028,
		  "velocity": 0.7480314960629921
		},
		{
		  "duration": 0.19354799999999273,
		  "durationTicks": 240,
		  "midi": 51,
		  "name": "D#3",
		  "ticks": 182880,
		  "time": 147.483576,
		  "velocity": 0.7480314960629921
		},
		{
		  "duration": 0.19354799999999273,
		  "durationTicks": 240,
		  "midi": 44,
		  "name": "G#2",
		  "ticks": 182880,
		  "time": 147.483576,
		  "velocity": 0.7480314960629921
		},
		{
		  "duration": 0.19354799999999273,
		  "durationTicks": 240,
		  "midi": 51,
		  "name": "D#3",
		  "ticks": 183120,
		  "time": 147.677124,
		  "velocity": 0.7480314960629921
		},
		{
		  "duration": 0.19354799999999273,
		  "durationTicks": 240,
		  "midi": 44,
		  "name": "G#2",
		  "ticks": 183120,
		  "time": 147.677124,
		  "velocity": 0.7480314960629921
		},
		{
		  "duration": 0.19354800000002115,
		  "durationTicks": 240,
		  "midi": 51,
		  "name": "D#3",
		  "ticks": 183360,
		  "time": 147.87067199999998,
		  "velocity": 0.7480314960629921
		},
		{
		  "duration": 0.19354800000002115,
		  "durationTicks": 240,
		  "midi": 44,
		  "name": "G#2",
		  "ticks": 183360,
		  "time": 147.87067199999998,
		  "velocity": 0.7480314960629921
		},
		{
		  "duration": 0.19354799999999273,
		  "durationTicks": 240,
		  "midi": 51,
		  "name": "D#3",
		  "ticks": 183600,
		  "time": 148.06422,
		  "velocity": 0.7480314960629921
		},
		{
		  "duration": 0.19354799999999273,
		  "durationTicks": 240,
		  "midi": 44,
		  "name": "G#2",
		  "ticks": 183600,
		  "time": 148.06422,
		  "velocity": 0.7480314960629921
		},
		{
		  "duration": 0.19354799999999273,
		  "durationTicks": 240,
		  "midi": 51,
		  "name": "D#3",
		  "ticks": 183840,
		  "time": 148.257768,
		  "velocity": 0.7480314960629921
		},
		{
		  "duration": 0.19354799999999273,
		  "durationTicks": 240,
		  "midi": 44,
		  "name": "G#2",
		  "ticks": 183840,
		  "time": 148.257768,
		  "velocity": 0.7480314960629921
		},
		{
		  "duration": 0.19354799999999273,
		  "durationTicks": 240,
		  "midi": 51,
		  "name": "D#3",
		  "ticks": 184080,
		  "time": 148.451316,
		  "velocity": 0.7480314960629921
		},
		{
		  "duration": 0.19354799999999273,
		  "durationTicks": 240,
		  "midi": 44,
		  "name": "G#2",
		  "ticks": 184080,
		  "time": 148.451316,
		  "velocity": 0.7480314960629921
		},
		{
		  "duration": 0.19354800000002115,
		  "durationTicks": 240,
		  "midi": 53,
		  "name": "F3",
		  "ticks": 184320,
		  "time": 148.64486399999998,
		  "velocity": 0.7480314960629921
		},
		{
		  "duration": 0.19354800000002115,
		  "durationTicks": 240,
		  "midi": 46,
		  "name": "A#2",
		  "ticks": 184320,
		  "time": 148.64486399999998,
		  "velocity": 0.7480314960629921
		},
		{
		  "duration": 0.19354799999999273,
		  "durationTicks": 240,
		  "midi": 53,
		  "name": "F3",
		  "ticks": 184560,
		  "time": 148.838412,
		  "velocity": 0.7480314960629921
		},
		{
		  "duration": 0.19354799999999273,
		  "durationTicks": 240,
		  "midi": 46,
		  "name": "A#2",
		  "ticks": 184560,
		  "time": 148.838412,
		  "velocity": 0.7480314960629921
		},
		{
		  "duration": 0.19354799999999273,
		  "durationTicks": 240,
		  "midi": 53,
		  "name": "F3",
		  "ticks": 184800,
		  "time": 149.03196,
		  "velocity": 0.7480314960629921
		},
		{
		  "duration": 0.19354799999999273,
		  "durationTicks": 240,
		  "midi": 46,
		  "name": "A#2",
		  "ticks": 184800,
		  "time": 149.03196,
		  "velocity": 0.7480314960629921
		},
		{
		  "duration": 0.19354800000002115,
		  "durationTicks": 240,
		  "midi": 53,
		  "name": "F3",
		  "ticks": 185040,
		  "time": 149.225508,
		  "velocity": 0.7480314960629921
		},
		{
		  "duration": 0.19354800000002115,
		  "durationTicks": 240,
		  "midi": 46,
		  "name": "A#2",
		  "ticks": 185040,
		  "time": 149.225508,
		  "velocity": 0.7480314960629921
		},
		{
		  "duration": 0.19354799999999273,
		  "durationTicks": 240,
		  "midi": 53,
		  "name": "F3",
		  "ticks": 185280,
		  "time": 149.419056,
		  "velocity": 0.7480314960629921
		},
		{
		  "duration": 0.19354799999999273,
		  "durationTicks": 240,
		  "midi": 46,
		  "name": "A#2",
		  "ticks": 185280,
		  "time": 149.419056,
		  "velocity": 0.7480314960629921
		},
		{
		  "duration": 0.19354799999999273,
		  "durationTicks": 240,
		  "midi": 53,
		  "name": "F3",
		  "ticks": 185520,
		  "time": 149.612604,
		  "velocity": 0.7480314960629921
		},
		{
		  "duration": 0.19354799999999273,
		  "durationTicks": 240,
		  "midi": 46,
		  "name": "A#2",
		  "ticks": 185520,
		  "time": 149.612604,
		  "velocity": 0.7480314960629921
		},
		{
		  "duration": 0.19354799999999273,
		  "durationTicks": 240,
		  "midi": 53,
		  "name": "F3",
		  "ticks": 185760,
		  "time": 149.806152,
		  "velocity": 0.7480314960629921
		},
		{
		  "duration": 0.19354799999999273,
		  "durationTicks": 240,
		  "midi": 46,
		  "name": "A#2",
		  "ticks": 185760,
		  "time": 149.806152,
		  "velocity": 0.7480314960629921
		},
		{
		  "duration": 0.19354800000002115,
		  "durationTicks": 240,
		  "midi": 53,
		  "name": "F3",
		  "ticks": 186000,
		  "time": 149.9997,
		  "velocity": 0.7480314960629921
		},
		{
		  "duration": 0.19354800000002115,
		  "durationTicks": 240,
		  "midi": 46,
		  "name": "A#2",
		  "ticks": 186000,
		  "time": 149.9997,
		  "velocity": 0.7480314960629921
		},
		{
		  "duration": 0.19354799999999273,
		  "durationTicks": 240,
		  "midi": 51,
		  "name": "D#3",
		  "ticks": 186240,
		  "time": 150.193248,
		  "velocity": 0.7480314960629921
		},
		{
		  "duration": 0.19354799999999273,
		  "durationTicks": 240,
		  "midi": 44,
		  "name": "G#2",
		  "ticks": 186240,
		  "time": 150.193248,
		  "velocity": 0.7480314960629921
		},
		{
		  "duration": 0.19354799999999273,
		  "durationTicks": 240,
		  "midi": 51,
		  "name": "D#3",
		  "ticks": 186480,
		  "time": 150.386796,
		  "velocity": 0.7480314960629921
		},
		{
		  "duration": 0.19354799999999273,
		  "durationTicks": 240,
		  "midi": 44,
		  "name": "G#2",
		  "ticks": 186480,
		  "time": 150.386796,
		  "velocity": 0.7480314960629921
		},
		{
		  "duration": 0.19354799999999273,
		  "durationTicks": 240,
		  "midi": 51,
		  "name": "D#3",
		  "ticks": 186720,
		  "time": 150.580344,
		  "velocity": 0.7480314960629921
		},
		{
		  "duration": 0.19354799999999273,
		  "durationTicks": 240,
		  "midi": 44,
		  "name": "G#2",
		  "ticks": 186720,
		  "time": 150.580344,
		  "velocity": 0.7480314960629921
		},
		{
		  "duration": 0.19354800000002115,
		  "durationTicks": 240,
		  "midi": 51,
		  "name": "D#3",
		  "ticks": 186960,
		  "time": 150.773892,
		  "velocity": 0.7480314960629921
		},
		{
		  "duration": 0.19354800000002115,
		  "durationTicks": 240,
		  "midi": 44,
		  "name": "G#2",
		  "ticks": 186960,
		  "time": 150.773892,
		  "velocity": 0.7480314960629921
		},
		{
		  "duration": 0.19354799999999273,
		  "durationTicks": 240,
		  "midi": 51,
		  "name": "D#3",
		  "ticks": 187200,
		  "time": 150.96744,
		  "velocity": 0.7480314960629921
		},
		{
		  "duration": 0.19354799999999273,
		  "durationTicks": 240,
		  "midi": 44,
		  "name": "G#2",
		  "ticks": 187200,
		  "time": 150.96744,
		  "velocity": 0.7480314960629921
		},
		{
		  "duration": 0.19354799999999273,
		  "durationTicks": 240,
		  "midi": 51,
		  "name": "D#3",
		  "ticks": 187440,
		  "time": 151.160988,
		  "velocity": 0.7480314960629921
		},
		{
		  "duration": 0.19354799999999273,
		  "durationTicks": 240,
		  "midi": 44,
		  "name": "G#2",
		  "ticks": 187440,
		  "time": 151.160988,
		  "velocity": 0.7480314960629921
		},
		{
		  "duration": 0.19354799999999273,
		  "durationTicks": 240,
		  "midi": 51,
		  "name": "D#3",
		  "ticks": 187680,
		  "time": 151.354536,
		  "velocity": 0.7480314960629921
		},
		{
		  "duration": 0.19354799999999273,
		  "durationTicks": 240,
		  "midi": 44,
		  "name": "G#2",
		  "ticks": 187680,
		  "time": 151.354536,
		  "velocity": 0.7480314960629921
		},
		{
		  "duration": 0.19354800000002115,
		  "durationTicks": 240,
		  "midi": 51,
		  "name": "D#3",
		  "ticks": 187920,
		  "time": 151.548084,
		  "velocity": 0.7480314960629921
		},
		{
		  "duration": 0.19354800000002115,
		  "durationTicks": 240,
		  "midi": 44,
		  "name": "G#2",
		  "ticks": 187920,
		  "time": 151.548084,
		  "velocity": 0.7480314960629921
		},
		{
		  "duration": 0.19354799999999273,
		  "durationTicks": 240,
		  "midi": 49,
		  "name": "C#3",
		  "ticks": 188160,
		  "time": 151.741632,
		  "velocity": 0.7480314960629921
		},
		{
		  "duration": 0.19354799999999273,
		  "durationTicks": 240,
		  "midi": 42,
		  "name": "F#2",
		  "ticks": 188160,
		  "time": 151.741632,
		  "velocity": 0.7480314960629921
		},
		{
		  "duration": 0.19354799999999273,
		  "durationTicks": 240,
		  "midi": 49,
		  "name": "C#3",
		  "ticks": 188400,
		  "time": 151.93518,
		  "velocity": 0.7480314960629921
		},
		{
		  "duration": 0.19354799999999273,
		  "durationTicks": 240,
		  "midi": 42,
		  "name": "F#2",
		  "ticks": 188400,
		  "time": 151.93518,
		  "velocity": 0.7480314960629921
		},
		{
		  "duration": 0.19354799999999273,
		  "durationTicks": 240,
		  "midi": 49,
		  "name": "C#3",
		  "ticks": 188640,
		  "time": 152.128728,
		  "velocity": 0.7480314960629921
		},
		{
		  "duration": 0.19354799999999273,
		  "durationTicks": 240,
		  "midi": 42,
		  "name": "F#2",
		  "ticks": 188640,
		  "time": 152.128728,
		  "velocity": 0.7480314960629921
		},
		{
		  "duration": 0.19354800000002115,
		  "durationTicks": 240,
		  "midi": 49,
		  "name": "C#3",
		  "ticks": 188880,
		  "time": 152.322276,
		  "velocity": 0.7480314960629921
		},
		{
		  "duration": 0.19354800000002115,
		  "durationTicks": 240,
		  "midi": 42,
		  "name": "F#2",
		  "ticks": 188880,
		  "time": 152.322276,
		  "velocity": 0.7480314960629921
		},
		{
		  "duration": 0.19354799999999273,
		  "durationTicks": 240,
		  "midi": 49,
		  "name": "C#3",
		  "ticks": 189120,
		  "time": 152.515824,
		  "velocity": 0.7480314960629921
		},
		{
		  "duration": 0.19354799999999273,
		  "durationTicks": 240,
		  "midi": 42,
		  "name": "F#2",
		  "ticks": 189120,
		  "time": 152.515824,
		  "velocity": 0.7480314960629921
		},
		{
		  "duration": 0.19354799999999273,
		  "durationTicks": 240,
		  "midi": 49,
		  "name": "C#3",
		  "ticks": 189360,
		  "time": 152.709372,
		  "velocity": 0.7480314960629921
		},
		{
		  "duration": 0.19354799999999273,
		  "durationTicks": 240,
		  "midi": 42,
		  "name": "F#2",
		  "ticks": 189360,
		  "time": 152.709372,
		  "velocity": 0.7480314960629921
		},
		{
		  "duration": 0.19354799999999273,
		  "durationTicks": 240,
		  "midi": 49,
		  "name": "C#3",
		  "ticks": 189600,
		  "time": 152.90292,
		  "velocity": 0.7480314960629921
		},
		{
		  "duration": 0.19354799999999273,
		  "durationTicks": 240,
		  "midi": 42,
		  "name": "F#2",
		  "ticks": 189600,
		  "time": 152.90292,
		  "velocity": 0.7480314960629921
		},
		{
		  "duration": 0.19354800000002115,
		  "durationTicks": 240,
		  "midi": 49,
		  "name": "C#3",
		  "ticks": 189840,
		  "time": 153.096468,
		  "velocity": 0.7480314960629921
		},
		{
		  "duration": 0.19354800000002115,
		  "durationTicks": 240,
		  "midi": 42,
		  "name": "F#2",
		  "ticks": 189840,
		  "time": 153.096468,
		  "velocity": 0.7480314960629921
		},
		{
		  "duration": 0.19354799999999273,
		  "durationTicks": 240,
		  "midi": 48,
		  "name": "C3",
		  "ticks": 190080,
		  "time": 153.290016,
		  "velocity": 0.7480314960629921
		},
		{
		  "duration": 0.19354799999999273,
		  "durationTicks": 240,
		  "midi": 41,
		  "name": "F2",
		  "ticks": 190080,
		  "time": 153.290016,
		  "velocity": 0.7480314960629921
		},
		{
		  "duration": 0.19354799999999273,
		  "durationTicks": 240,
		  "midi": 48,
		  "name": "C3",
		  "ticks": 190320,
		  "time": 153.483564,
		  "velocity": 0.7480314960629921
		},
		{
		  "duration": 0.19354799999999273,
		  "durationTicks": 240,
		  "midi": 41,
		  "name": "F2",
		  "ticks": 190320,
		  "time": 153.483564,
		  "velocity": 0.7480314960629921
		},
		{
		  "duration": 0.19354799999999273,
		  "durationTicks": 240,
		  "midi": 48,
		  "name": "C3",
		  "ticks": 190560,
		  "time": 153.677112,
		  "velocity": 0.7480314960629921
		},
		{
		  "duration": 0.19354799999999273,
		  "durationTicks": 240,
		  "midi": 41,
		  "name": "F2",
		  "ticks": 190560,
		  "time": 153.677112,
		  "velocity": 0.7480314960629921
		},
		{
		  "duration": 0.19354800000002115,
		  "durationTicks": 240,
		  "midi": 48,
		  "name": "C3",
		  "ticks": 190800,
		  "time": 153.87066,
		  "velocity": 0.7480314960629921
		},
		{
		  "duration": 0.19354800000002115,
		  "durationTicks": 240,
		  "midi": 41,
		  "name": "F2",
		  "ticks": 190800,
		  "time": 153.87066,
		  "velocity": 0.7480314960629921
		},
		{
		  "duration": 0.19354799999999273,
		  "durationTicks": 240,
		  "midi": 48,
		  "name": "C3",
		  "ticks": 191040,
		  "time": 154.064208,
		  "velocity": 0.7480314960629921
		},
		{
		  "duration": 0.19354799999999273,
		  "durationTicks": 240,
		  "midi": 41,
		  "name": "F2",
		  "ticks": 191040,
		  "time": 154.064208,
		  "velocity": 0.7480314960629921
		},
		{
		  "duration": 0.19354799999999273,
		  "durationTicks": 240,
		  "midi": 48,
		  "name": "C3",
		  "ticks": 191280,
		  "time": 154.257756,
		  "velocity": 0.7480314960629921
		},
		{
		  "duration": 0.19354799999999273,
		  "durationTicks": 240,
		  "midi": 41,
		  "name": "F2",
		  "ticks": 191280,
		  "time": 154.257756,
		  "velocity": 0.7480314960629921
		},
		{
		  "duration": 0.19354799999999273,
		  "durationTicks": 240,
		  "midi": 48,
		  "name": "C3",
		  "ticks": 191520,
		  "time": 154.451304,
		  "velocity": 0.7480314960629921
		},
		{
		  "duration": 0.19354799999999273,
		  "durationTicks": 240,
		  "midi": 41,
		  "name": "F2",
		  "ticks": 191520,
		  "time": 154.451304,
		  "velocity": 0.7480314960629921
		},
		{
		  "duration": 0.19354800000002115,
		  "durationTicks": 240,
		  "midi": 48,
		  "name": "C3",
		  "ticks": 191760,
		  "time": 154.644852,
		  "velocity": 0.7480314960629921
		},
		{
		  "duration": 0.19354800000002115,
		  "durationTicks": 240,
		  "midi": 41,
		  "name": "F2",
		  "ticks": 191760,
		  "time": 154.644852,
		  "velocity": 0.7480314960629921
		},
		{
		  "duration": 0.19354799999999273,
		  "durationTicks": 240,
		  "midi": 53,
		  "name": "F3",
		  "ticks": 192000,
		  "time": 154.8384,
		  "velocity": 0.7480314960629921
		},
		{
		  "duration": 0.19354799999999273,
		  "durationTicks": 240,
		  "midi": 46,
		  "name": "A#2",
		  "ticks": 192000,
		  "time": 154.8384,
		  "velocity": 0.7480314960629921
		},
		{
		  "duration": 0.19354799999999273,
		  "durationTicks": 240,
		  "midi": 53,
		  "name": "F3",
		  "ticks": 192240,
		  "time": 155.031948,
		  "velocity": 0.7480314960629921
		},
		{
		  "duration": 0.19354799999999273,
		  "durationTicks": 240,
		  "midi": 46,
		  "name": "A#2",
		  "ticks": 192240,
		  "time": 155.031948,
		  "velocity": 0.7480314960629921
		},
		{
		  "duration": 0.19354800000002115,
		  "durationTicks": 240,
		  "midi": 53,
		  "name": "F3",
		  "ticks": 192720,
		  "time": 155.41904399999999,
		  "velocity": 0.7480314960629921
		},
		{
		  "duration": 0.19354800000002115,
		  "durationTicks": 240,
		  "midi": 46,
		  "name": "A#2",
		  "ticks": 192720,
		  "time": 155.41904399999999,
		  "velocity": 0.7480314960629921
		},
		{
		  "duration": 0.19354799999999273,
		  "durationTicks": 240,
		  "midi": 53,
		  "name": "F3",
		  "ticks": 192960,
		  "time": 155.612592,
		  "velocity": 0.7480314960629921
		},
		{
		  "duration": 0.19354799999999273,
		  "durationTicks": 240,
		  "midi": 46,
		  "name": "A#2",
		  "ticks": 192960,
		  "time": 155.612592,
		  "velocity": 0.7480314960629921
		},
		{
		  "duration": 0.19354799999999273,
		  "durationTicks": 240,
		  "midi": 53,
		  "name": "F3",
		  "ticks": 193440,
		  "time": 155.999688,
		  "velocity": 0.7480314960629921
		},
		{
		  "duration": 0.19354799999999273,
		  "durationTicks": 240,
		  "midi": 46,
		  "name": "A#2",
		  "ticks": 193440,
		  "time": 155.999688,
		  "velocity": 0.7480314960629921
		},
		{
		  "duration": 0.19354800000002115,
		  "durationTicks": 240,
		  "midi": 53,
		  "name": "F3",
		  "ticks": 193680,
		  "time": 156.19323599999998,
		  "velocity": 0.7480314960629921
		},
		{
		  "duration": 0.19354800000002115,
		  "durationTicks": 240,
		  "midi": 46,
		  "name": "A#2",
		  "ticks": 193680,
		  "time": 156.19323599999998,
		  "velocity": 0.7480314960629921
		},
		{
		  "duration": 0.19354799999999273,
		  "durationTicks": 240,
		  "midi": 53,
		  "name": "F3",
		  "ticks": 194160,
		  "time": 156.580332,
		  "velocity": 0.7480314960629921
		},
		{
		  "duration": 0.19354799999999273,
		  "durationTicks": 240,
		  "midi": 46,
		  "name": "A#2",
		  "ticks": 194160,
		  "time": 156.580332,
		  "velocity": 0.7480314960629921
		},
		{
		  "duration": 0.19354800000002115,
		  "durationTicks": 240,
		  "midi": 53,
		  "name": "F3",
		  "ticks": 194400,
		  "time": 156.77388,
		  "velocity": 0.7480314960629921
		},
		{
		  "duration": 0.19354800000002115,
		  "durationTicks": 240,
		  "midi": 46,
		  "name": "A#2",
		  "ticks": 194400,
		  "time": 156.77388,
		  "velocity": 0.7480314960629921
		},
		{
		  "duration": 0.19354799999999273,
		  "durationTicks": 240,
		  "midi": 53,
		  "name": "F3",
		  "ticks": 194880,
		  "time": 157.160976,
		  "velocity": 0.7480314960629921
		},
		{
		  "duration": 0.19354799999999273,
		  "durationTicks": 240,
		  "midi": 46,
		  "name": "A#2",
		  "ticks": 194880,
		  "time": 157.160976,
		  "velocity": 0.7480314960629921
		},
		{
		  "duration": 0.07258049999998661,
		  "durationTicks": 90,
		  "midi": 46,
		  "name": "A#2",
		  "ticks": 195120,
		  "time": 157.354524,
		  "velocity": 0.5984251968503937
		},
		{
		  "duration": 0.07258049999998661,
		  "durationTicks": 90,
		  "midi": 46,
		  "name": "A#2",
		  "ticks": 195240,
		  "time": 157.451298,
		  "velocity": 0.5984251968503937
		},
		{
		  "duration": 0.3870960000000139,
		  "durationTicks": 480,
		  "midi": 51,
		  "name": "D#3",
		  "ticks": 195360,
		  "time": 157.548072,
		  "velocity": 0.7480314960629921
		},
		{
		  "duration": 0.3870960000000139,
		  "durationTicks": 480,
		  "midi": 44,
		  "name": "G#2",
		  "ticks": 195360,
		  "time": 157.548072,
		  "velocity": 0.7480314960629921
		},
		{
		  "duration": 0.19354799999999273,
		  "durationTicks": 240,
		  "midi": 53,
		  "name": "F3",
		  "ticks": 195840,
		  "time": 157.935168,
		  "velocity": 0.7480314960629921
		},
		{
		  "duration": 0.19354799999999273,
		  "durationTicks": 240,
		  "midi": 46,
		  "name": "A#2",
		  "ticks": 195840,
		  "time": 157.935168,
		  "velocity": 0.7480314960629921
		},
		{
		  "duration": 0.19354799999999273,
		  "durationTicks": 240,
		  "midi": 53,
		  "name": "F3",
		  "ticks": 196080,
		  "time": 158.128716,
		  "velocity": 0.7480314960629921
		},
		{
		  "duration": 0.19354799999999273,
		  "durationTicks": 240,
		  "midi": 46,
		  "name": "A#2",
		  "ticks": 196080,
		  "time": 158.128716,
		  "velocity": 0.7480314960629921
		},
		{
		  "duration": 0.19354799999999273,
		  "durationTicks": 240,
		  "midi": 53,
		  "name": "F3",
		  "ticks": 196560,
		  "time": 158.515812,
		  "velocity": 0.7480314960629921
		},
		{
		  "duration": 0.19354799999999273,
		  "durationTicks": 240,
		  "midi": 46,
		  "name": "A#2",
		  "ticks": 196560,
		  "time": 158.515812,
		  "velocity": 0.7480314960629921
		},
		{
		  "duration": 0.19354799999999273,
		  "durationTicks": 240,
		  "midi": 53,
		  "name": "F3",
		  "ticks": 196800,
		  "time": 158.70936,
		  "velocity": 0.7480314960629921
		},
		{
		  "duration": 0.19354799999999273,
		  "durationTicks": 240,
		  "midi": 46,
		  "name": "A#2",
		  "ticks": 196800,
		  "time": 158.70936,
		  "velocity": 0.7480314960629921
		},
		{
		  "duration": 0.19354800000002115,
		  "durationTicks": 240,
		  "midi": 53,
		  "name": "F3",
		  "ticks": 197280,
		  "time": 159.096456,
		  "velocity": 0.7480314960629921
		},
		{
		  "duration": 0.19354800000002115,
		  "durationTicks": 240,
		  "midi": 46,
		  "name": "A#2",
		  "ticks": 197280,
		  "time": 159.096456,
		  "velocity": 0.7480314960629921
		},
		{
		  "duration": 0.19354799999999273,
		  "durationTicks": 240,
		  "midi": 53,
		  "name": "F3",
		  "ticks": 197520,
		  "time": 159.290004,
		  "velocity": 0.7480314960629921
		},
		{
		  "duration": 0.19354799999999273,
		  "durationTicks": 240,
		  "midi": 46,
		  "name": "A#2",
		  "ticks": 197520,
		  "time": 159.290004,
		  "velocity": 0.7480314960629921
		},
		{
		  "duration": 0.19354799999999273,
		  "durationTicks": 240,
		  "midi": 53,
		  "name": "F3",
		  "ticks": 198000,
		  "time": 159.6771,
		  "velocity": 0.7480314960629921
		},
		{
		  "duration": 0.19354799999999273,
		  "durationTicks": 240,
		  "midi": 46,
		  "name": "A#2",
		  "ticks": 198000,
		  "time": 159.6771,
		  "velocity": 0.7480314960629921
		},
		{
		  "duration": 0.19354800000002115,
		  "durationTicks": 240,
		  "midi": 53,
		  "name": "F3",
		  "ticks": 198240,
		  "time": 159.870648,
		  "velocity": 0.7480314960629921
		},
		{
		  "duration": 0.19354800000002115,
		  "durationTicks": 240,
		  "midi": 46,
		  "name": "A#2",
		  "ticks": 198240,
		  "time": 159.870648,
		  "velocity": 0.7480314960629921
		},
		{
		  "duration": 0.07258049999998661,
		  "durationTicks": 90,
		  "midi": 46,
		  "name": "A#2",
		  "ticks": 198480,
		  "time": 160.064196,
		  "velocity": 0.5984251968503937
		},
		{
		  "duration": 0.07258050000001504,
		  "durationTicks": 90,
		  "midi": 46,
		  "name": "A#2",
		  "ticks": 198600,
		  "time": 160.16097,
		  "velocity": 0.5984251968503937
		},
		{
		  "duration": 0.38709599999998545,
		  "durationTicks": 480,
		  "midi": 56,
		  "name": "G#3",
		  "ticks": 198720,
		  "time": 160.257744,
		  "velocity": 0.7480314960629921
		},
		{
		  "duration": 0.38709599999998545,
		  "durationTicks": 480,
		  "midi": 49,
		  "name": "C#3",
		  "ticks": 198720,
		  "time": 160.257744,
		  "velocity": 0.7480314960629921
		},
		{
		  "duration": 0.3870960000000139,
		  "durationTicks": 480,
		  "midi": 51,
		  "name": "D#3",
		  "ticks": 199200,
		  "time": 160.64484,
		  "velocity": 0.7480314960629921
		},
		{
		  "duration": 0.3870960000000139,
		  "durationTicks": 480,
		  "midi": 44,
		  "name": "G#2",
		  "ticks": 199200,
		  "time": 160.64484,
		  "velocity": 0.7480314960629921
		}
	  ]
	},
	{
	  "channel": 0,
	  "controlChanges": {
		"6": [
		  {
			"number": 6,
			"ticks": 0,
			"time": 0,
			"value": 0.09448818897637795
		  },
		  {
			"number": 6,
			"ticks": 0,
			"time": 0,
			"value": 0.5039370078740157
		  },
		  {
			"number": 6,
			"ticks": 0,
			"time": 0,
			"value": 0.5039370078740157
		  }
		],
		"38": [
		  {
			"number": 38,
			"ticks": 0,
			"time": 0,
			"value": 0
		  }
		],
		"100": [
		  {
			"number": 100,
			"ticks": 0,
			"time": 0,
			"value": 0
		  },
		  {
			"number": 100,
			"ticks": 0,
			"time": 0,
			"value": 0.007874015748031496
		  },
		  {
			"number": 100,
			"ticks": 0,
			"time": 0,
			"value": 1
		  },
		  {
			"number": 100,
			"ticks": 0,
			"time": 0,
			"value": 0.015748031496062992
		  },
		  {
			"number": 100,
			"ticks": 0,
			"time": 0,
			"value": 1
		  }
		],
		"101": [
		  {
			"number": 101,
			"ticks": 0,
			"time": 0,
			"value": 0
		  },
		  {
			"number": 101,
			"ticks": 0,
			"time": 0,
			"value": 0
		  },
		  {
			"number": 101,
			"ticks": 0,
			"time": 0,
			"value": 1
		  },
		  {
			"number": 101,
			"ticks": 0,
			"time": 0,
			"value": 0
		  },
		  {
			"number": 101,
			"ticks": 0,
			"time": 0,
			"value": 1
		  }
		]
	  },
	  "pitchBends": [
		{
		  "ticks": 0,
		  "time": 0,
		  "value": 0
		}
	  ],
	  "instrument": {
		"family": "piano",
		"number": 0,
		"name": "acoustic grand piano"
	  },
	  "name": "Rythm Guitar L",
	  "notes": [],
	  "endOfTrackTicks": 199680
	},
	{
	  "channel": 0,
	  "controlChanges": {
		"6": [
		  {
			"number": 6,
			"ticks": 0,
			"time": 0,
			"value": 0.09448818897637795
		  },
		  {
			"number": 6,
			"ticks": 0,
			"time": 0,
			"value": 0.5039370078740157
		  },
		  {
			"number": 6,
			"ticks": 0,
			"time": 0,
			"value": 0.5039370078740157
		  }
		],
		"38": [
		  {
			"number": 38,
			"ticks": 0,
			"time": 0,
			"value": 0
		  }
		],
		"100": [
		  {
			"number": 100,
			"ticks": 0,
			"time": 0,
			"value": 0
		  },
		  {
			"number": 100,
			"ticks": 0,
			"time": 0,
			"value": 0.007874015748031496
		  },
		  {
			"number": 100,
			"ticks": 0,
			"time": 0,
			"value": 1
		  },
		  {
			"number": 100,
			"ticks": 0,
			"time": 0,
			"value": 0.015748031496062992
		  },
		  {
			"number": 100,
			"ticks": 0,
			"time": 0,
			"value": 1
		  }
		],
		"101": [
		  {
			"number": 101,
			"ticks": 0,
			"time": 0,
			"value": 0
		  },
		  {
			"number": 101,
			"ticks": 0,
			"time": 0,
			"value": 0
		  },
		  {
			"number": 101,
			"ticks": 0,
			"time": 0,
			"value": 1
		  },
		  {
			"number": 101,
			"ticks": 0,
			"time": 0,
			"value": 0
		  },
		  {
			"number": 101,
			"ticks": 0,
			"time": 0,
			"value": 1
		  }
		]
	  },
	  "pitchBends": [
		{
		  "ticks": 0,
		  "time": 0,
		  "value": 0
		}
	  ],
	  "instrument": {
		"family": "piano",
		"number": 0,
		"name": "acoustic grand piano"
	  },
	  "name": "",
	  "notes": []
	},
	{
	  "channel": 0,
	  "controlChanges": {
		"0": [
		  {
			"number": 0,
			"ticks": 0,
			"time": 0,
			"value": 0
		  }
		],
		"7": [
		  {
			"number": 7,
			"ticks": 0,
			"time": 0,
			"value": 0.6929133858267716
		  },
		  {
			"number": 7,
			"ticks": 0,
			"time": 0,
			"value": 0.6929133858267716
		  },
		  {
			"number": 7,
			"ticks": 15360,
			"time": 12.387072,
			"value": 0.6929133858267716
		  },
		  {
			"number": 7,
			"ticks": 63360,
			"time": 51.096672,
			"value": 0.5039370078740157
		  },
		  {
			"number": 7,
			"ticks": 92160,
			"time": 74.32243199999999,
			"value": 0.6929133858267716
		  },
		  {
			"number": 7,
			"ticks": 99840,
			"time": 80.515968,
			"value": 0.6929133858267716
		  },
		  {
			"number": 7,
			"ticks": 115200,
			"time": 92.90304,
			"value": 0.6929133858267716
		  },
		  {
			"number": 7,
			"ticks": 163200,
			"time": 131.61264,
			"value": 0.5039370078740157
		  },
		  {
			"number": 7,
			"ticks": 192000,
			"time": 154.8384,
			"value": 0.6929133858267716
		  }
		],
		"10": [
		  {
			"number": 10,
			"ticks": 0,
			"time": 0,
			"value": 1
		  }
		],
		"91": [
		  {
			"number": 91,
			"ticks": 0,
			"time": 0,
			"value": 0
		  }
		],
		"92": [
		  {
			"number": 92,
			"ticks": 0,
			"time": 0,
			"value": 0
		  }
		],
		"93": [
		  {
			"number": 93,
			"ticks": 0,
			"time": 0,
			"value": 0
		  }
		],
		"95": [
		  {
			"number": 95,
			"ticks": 0,
			"time": 0,
			"value": 0
		  }
		]
	  },
	  "pitchBends": [],
	  "instrument": {
		"family": "guitar",
		"number": 30,
		"name": "distortion guitar"
	  },
	  "name": "",
	  "notes": []
	},
	{
	  "channel": 11,
	  "controlChanges": {
		"0": [
		  {
			"number": 0,
			"ticks": 0,
			"time": 0,
			"value": 0
		  }
		],
		"7": [
		  {
			"number": 7,
			"ticks": 0,
			"time": 0,
			"value": 0.6929133858267716
		  },
		  {
			"number": 7,
			"ticks": 0,
			"time": 0,
			"value": 0.6929133858267716
		  },
		  {
			"number": 7,
			"ticks": 15360,
			"time": 12.387072,
			"value": 0.6929133858267716
		  },
		  {
			"number": 7,
			"ticks": 63360,
			"time": 51.096672,
			"value": 0.5039370078740157
		  },
		  {
			"number": 7,
			"ticks": 92160,
			"time": 74.32243199999999,
			"value": 0.6929133858267716
		  },
		  {
			"number": 7,
			"ticks": 99840,
			"time": 80.515968,
			"value": 0.6929133858267716
		  },
		  {
			"number": 7,
			"ticks": 115200,
			"time": 92.90304,
			"value": 0.6929133858267716
		  },
		  {
			"number": 7,
			"ticks": 163200,
			"time": 131.61264,
			"value": 0.5039370078740157
		  },
		  {
			"number": 7,
			"ticks": 192000,
			"time": 154.8384,
			"value": 0.6929133858267716
		  }
		],
		"10": [
		  {
			"number": 10,
			"ticks": 0,
			"time": 0,
			"value": 1
		  }
		],
		"91": [
		  {
			"number": 91,
			"ticks": 0,
			"time": 0,
			"value": 0
		  }
		],
		"92": [
		  {
			"number": 92,
			"ticks": 0,
			"time": 0,
			"value": 0
		  }
		],
		"93": [
		  {
			"number": 93,
			"ticks": 0,
			"time": 0,
			"value": 0
		  }
		],
		"95": [
		  {
			"number": 95,
			"ticks": 0,
			"time": 0,
			"value": 0
		  }
		]
	  },
	  "pitchBends": [],
	  "instrument": {
		"family": "guitar",
		"number": 30,
		"name": "distortion guitar"
	  },
	  "name": "",
	  "notes": [
		{
		  "duration": 0.193548,
		  "durationTicks": 240,
		  "midi": 51,
		  "name": "D#3",
		  "ticks": 0,
		  "time": 0,
		  "velocity": 0.7480314960629921
		},
		{
		  "duration": 0.193548,
		  "durationTicks": 240,
		  "midi": 44,
		  "name": "G#2",
		  "ticks": 0,
		  "time": 0,
		  "velocity": 0.7480314960629921
		},
		{
		  "duration": 0.193548,
		  "durationTicks": 240,
		  "midi": 53,
		  "name": "F3",
		  "ticks": 240,
		  "time": 0.193548,
		  "velocity": 0.7480314960629921
		},
		{
		  "duration": 0.193548,
		  "durationTicks": 240,
		  "midi": 46,
		  "name": "A#2",
		  "ticks": 240,
		  "time": 0.193548,
		  "velocity": 0.7480314960629921
		},
		{
		  "duration": 0.19354800000000005,
		  "durationTicks": 240,
		  "midi": 53,
		  "name": "F3",
		  "ticks": 720,
		  "time": 0.5806439999999999,
		  "velocity": 0.7480314960629921
		},
		{
		  "duration": 0.19354800000000005,
		  "durationTicks": 240,
		  "midi": 46,
		  "name": "A#2",
		  "ticks": 720,
		  "time": 0.5806439999999999,
		  "velocity": 0.7480314960629921
		},
		{
		  "duration": 0.19354799999999983,
		  "durationTicks": 240,
		  "midi": 53,
		  "name": "F3",
		  "ticks": 1200,
		  "time": 0.96774,
		  "velocity": 0.7480314960629921
		},
		{
		  "duration": 0.19354799999999983,
		  "durationTicks": 240,
		  "midi": 46,
		  "name": "A#2",
		  "ticks": 1200,
		  "time": 0.96774,
		  "velocity": 0.7480314960629921
		},
		{
		  "duration": 0.19354800000000005,
		  "durationTicks": 240,
		  "midi": 53,
		  "name": "F3",
		  "ticks": 1680,
		  "time": 1.354836,
		  "velocity": 0.7480314960629921
		},
		{
		  "duration": 0.19354800000000005,
		  "durationTicks": 240,
		  "midi": 46,
		  "name": "A#2",
		  "ticks": 1680,
		  "time": 1.354836,
		  "velocity": 0.7480314960629921
		},
		{
		  "duration": 0.19354800000000005,
		  "durationTicks": 240,
		  "midi": 53,
		  "name": "F3",
		  "ticks": 1920,
		  "time": 1.548384,
		  "velocity": 0.7480314960629921
		},
		{
		  "duration": 0.19354800000000005,
		  "durationTicks": 240,
		  "midi": 46,
		  "name": "A#2",
		  "ticks": 1920,
		  "time": 1.548384,
		  "velocity": 0.7480314960629921
		},
		{
		  "duration": 0.19354800000000005,
		  "durationTicks": 240,
		  "midi": 54,
		  "name": "F#3",
		  "ticks": 2160,
		  "time": 1.741932,
		  "velocity": 0.7480314960629921
		},
		{
		  "duration": 0.19354800000000005,
		  "durationTicks": 240,
		  "midi": 46,
		  "name": "A#2",
		  "ticks": 2160,
		  "time": 1.741932,
		  "velocity": 0.7480314960629921
		},
		{
		  "duration": 0.19354799999999983,
		  "durationTicks": 240,
		  "midi": 54,
		  "name": "F#3",
		  "ticks": 2640,
		  "time": 2.129028,
		  "velocity": 0.7480314960629921
		},
		{
		  "duration": 0.19354799999999983,
		  "durationTicks": 240,
		  "midi": 46,
		  "name": "A#2",
		  "ticks": 2640,
		  "time": 2.129028,
		  "velocity": 0.7480314960629921
		},
		{
		  "duration": 0.19354799999999983,
		  "durationTicks": 240,
		  "midi": 53,
		  "name": "F3",
		  "ticks": 3120,
		  "time": 2.516124,
		  "velocity": 0.7480314960629921
		},
		{
		  "duration": 0.19354799999999983,
		  "durationTicks": 240,
		  "midi": 46,
		  "name": "A#2",
		  "ticks": 3120,
		  "time": 2.516124,
		  "velocity": 0.7480314960629921
		},
		{
		  "duration": 0.19354799999999983,
		  "durationTicks": 240,
		  "midi": 53,
		  "name": "F3",
		  "ticks": 3600,
		  "time": 2.90322,
		  "velocity": 0.7480314960629921
		},
		{
		  "duration": 0.19354799999999983,
		  "durationTicks": 240,
		  "midi": 46,
		  "name": "A#2",
		  "ticks": 3600,
		  "time": 2.90322,
		  "velocity": 0.7480314960629921
		},
		{
		  "duration": 0.19354799999999983,
		  "durationTicks": 240,
		  "midi": 49,
		  "name": "C#3",
		  "ticks": 3840,
		  "time": 3.096768,
		  "velocity": 0.7480314960629921
		},
		{
		  "duration": 0.19354799999999983,
		  "durationTicks": 240,
		  "midi": 42,
		  "name": "F#2",
		  "ticks": 3840,
		  "time": 3.096768,
		  "velocity": 0.7480314960629921
		},
		{
		  "duration": 0.19354800000000028,
		  "durationTicks": 240,
		  "midi": 49,
		  "name": "C#3",
		  "ticks": 4080,
		  "time": 3.290316,
		  "velocity": 0.7480314960629921
		},
		{
		  "duration": 0.19354800000000028,
		  "durationTicks": 240,
		  "midi": 42,
		  "name": "F#2",
		  "ticks": 4080,
		  "time": 3.290316,
		  "velocity": 0.7480314960629921
		},
		{
		  "duration": 0.19354800000000028,
		  "durationTicks": 240,
		  "midi": 49,
		  "name": "C#3",
		  "ticks": 4560,
		  "time": 3.677412,
		  "velocity": 0.7480314960629921
		},
		{
		  "duration": 0.19354800000000028,
		  "durationTicks": 240,
		  "midi": 42,
		  "name": "F#2",
		  "ticks": 4560,
		  "time": 3.677412,
		  "velocity": 0.7480314960629921
		},
		{
		  "duration": 0.19354799999999983,
		  "durationTicks": 240,
		  "midi": 49,
		  "name": "C#3",
		  "ticks": 5040,
		  "time": 4.064508,
		  "velocity": 0.7480314960629921
		},
		{
		  "duration": 0.19354799999999983,
		  "durationTicks": 240,
		  "midi": 42,
		  "name": "F#2",
		  "ticks": 5040,
		  "time": 4.064508,
		  "velocity": 0.7480314960629921
		},
		{
		  "duration": 0.19354799999999983,
		  "durationTicks": 240,
		  "midi": 49,
		  "name": "C#3",
		  "ticks": 5520,
		  "time": 4.451604,
		  "velocity": 0.7480314960629921
		},
		{
		  "duration": 0.19354799999999983,
		  "durationTicks": 240,
		  "midi": 42,
		  "name": "F#2",
		  "ticks": 5520,
		  "time": 4.451604,
		  "velocity": 0.7480314960629921
		},
		{
		  "duration": 0.19354800000000072,
		  "durationTicks": 240,
		  "midi": 56,
		  "name": "G#3",
		  "ticks": 5760,
		  "time": 4.6451519999999995,
		  "velocity": 0.7480314960629921
		},
		{
		  "duration": 0.19354800000000072,
		  "durationTicks": 240,
		  "midi": 49,
		  "name": "C#3",
		  "ticks": 5760,
		  "time": 4.6451519999999995,
		  "velocity": 0.7480314960629921
		},
		{
		  "duration": 0.19354799999999983,
		  "durationTicks": 240,
		  "midi": 56,
		  "name": "G#3",
		  "ticks": 6000,
		  "time": 4.8387,
		  "velocity": 0.7480314960629921
		},
		{
		  "duration": 0.19354799999999983,
		  "durationTicks": 240,
		  "midi": 49,
		  "name": "C#3",
		  "ticks": 6000,
		  "time": 4.8387,
		  "velocity": 0.7480314960629921
		},
		{
		  "duration": 0.19354799999999983,
		  "durationTicks": 240,
		  "midi": 56,
		  "name": "G#3",
		  "ticks": 6240,
		  "time": 5.032248,
		  "velocity": 0.7480314960629921
		},
		{
		  "duration": 0.19354799999999983,
		  "durationTicks": 240,
		  "midi": 49,
		  "name": "C#3",
		  "ticks": 6240,
		  "time": 5.032248,
		  "velocity": 0.7480314960629921
		},
		{
		  "duration": 0.19354799999999983,
		  "durationTicks": 240,
		  "midi": 51,
		  "name": "D#3",
		  "ticks": 6480,
		  "time": 5.225796,
		  "velocity": 0.7480314960629921
		},
		{
		  "duration": 0.19354799999999983,
		  "durationTicks": 240,
		  "midi": 44,
		  "name": "G#2",
		  "ticks": 6480,
		  "time": 5.225796,
		  "velocity": 0.7480314960629921
		},
		{
		  "duration": 0.19354799999999983,
		  "durationTicks": 240,
		  "midi": 51,
		  "name": "D#3",
		  "ticks": 6720,
		  "time": 5.419344,
		  "velocity": 0.7480314960629921
		},
		{
		  "duration": 0.19354799999999983,
		  "durationTicks": 240,
		  "midi": 44,
		  "name": "G#2",
		  "ticks": 6720,
		  "time": 5.419344,
		  "velocity": 0.7480314960629921
		},
		{
		  "duration": 0.19354800000000072,
		  "durationTicks": 240,
		  "midi": 51,
		  "name": "D#3",
		  "ticks": 6960,
		  "time": 5.6128919999999995,
		  "velocity": 0.7480314960629921
		},
		{
		  "duration": 0.19354800000000072,
		  "durationTicks": 240,
		  "midi": 44,
		  "name": "G#2",
		  "ticks": 6960,
		  "time": 5.6128919999999995,
		  "velocity": 0.7480314960629921
		},
		{
		  "duration": 0.19354799999999983,
		  "durationTicks": 240,
		  "midi": 51,
		  "name": "D#3",
		  "ticks": 7200,
		  "time": 5.80644,
		  "velocity": 0.7480314960629921
		},
		{
		  "duration": 0.19354799999999983,
		  "durationTicks": 240,
		  "midi": 44,
		  "name": "G#2",
		  "ticks": 7200,
		  "time": 5.80644,
		  "velocity": 0.7480314960629921
		},
		{
		  "duration": 0.19354799999999983,
		  "durationTicks": 240,
		  "midi": 51,
		  "name": "D#3",
		  "ticks": 7440,
		  "time": 5.999988,
		  "velocity": 0.7480314960629921
		},
		{
		  "duration": 0.19354799999999983,
		  "durationTicks": 240,
		  "midi": 44,
		  "name": "G#2",
		  "ticks": 7440,
		  "time": 5.999988,
		  "velocity": 0.7480314960629921
		},
		{
		  "duration": 0.19354799999999983,
		  "durationTicks": 240,
		  "midi": 51,
		  "name": "D#3",
		  "ticks": 7680,
		  "time": 6.193536,
		  "velocity": 0.7480314960629921
		},
		{
		  "duration": 0.19354799999999983,
		  "durationTicks": 240,
		  "midi": 44,
		  "name": "G#2",
		  "ticks": 7680,
		  "time": 6.193536,
		  "velocity": 0.7480314960629921
		},
		{
		  "duration": 0.19354799999999983,
		  "durationTicks": 240,
		  "midi": 53,
		  "name": "F3",
		  "ticks": 7920,
		  "time": 6.387084,
		  "velocity": 0.7480314960629921
		},
		{
		  "duration": 0.19354799999999983,
		  "durationTicks": 240,
		  "midi": 46,
		  "name": "A#2",
		  "ticks": 7920,
		  "time": 6.387084,
		  "velocity": 0.7480314960629921
		},
		{
		  "duration": 0.19354799999999983,
		  "durationTicks": 240,
		  "midi": 53,
		  "name": "F3",
		  "ticks": 8400,
		  "time": 6.77418,
		  "velocity": 0.7480314960629921
		},
		{
		  "duration": 0.19354799999999983,
		  "durationTicks": 240,
		  "midi": 46,
		  "name": "A#2",
		  "ticks": 8400,
		  "time": 6.77418,
		  "velocity": 0.7480314960629921
		},
		{
		  "duration": 0.19354799999999983,
		  "durationTicks": 240,
		  "midi": 53,
		  "name": "F3",
		  "ticks": 8880,
		  "time": 7.161276,
		  "velocity": 0.7480314960629921
		},
		{
		  "duration": 0.19354799999999983,
		  "durationTicks": 240,
		  "midi": 46,
		  "name": "A#2",
		  "ticks": 8880,
		  "time": 7.161276,
		  "velocity": 0.7480314960629921
		},
		{
		  "duration": 0.19354800000000072,
		  "durationTicks": 240,
		  "midi": 53,
		  "name": "F3",
		  "ticks": 9360,
		  "time": 7.548372,
		  "velocity": 0.7480314960629921
		},
		{
		  "duration": 0.19354800000000072,
		  "durationTicks": 240,
		  "midi": 46,
		  "name": "A#2",
		  "ticks": 9360,
		  "time": 7.548372,
		  "velocity": 0.7480314960629921
		},
		{
		  "duration": 0.19354799999999983,
		  "durationTicks": 240,
		  "midi": 53,
		  "name": "F3",
		  "ticks": 9600,
		  "time": 7.74192,
		  "velocity": 0.7480314960629921
		},
		{
		  "duration": 0.19354799999999983,
		  "durationTicks": 240,
		  "midi": 46,
		  "name": "A#2",
		  "ticks": 9600,
		  "time": 7.74192,
		  "velocity": 0.7480314960629921
		},
		{
		  "duration": 0.19354799999999983,
		  "durationTicks": 240,
		  "midi": 54,
		  "name": "F#3",
		  "ticks": 9840,
		  "time": 7.935468,
		  "velocity": 0.7480314960629921
		},
		{
		  "duration": 0.19354799999999983,
		  "durationTicks": 240,
		  "midi": 46,
		  "name": "A#2",
		  "ticks": 9840,
		  "time": 7.935468,
		  "velocity": 0.7480314960629921
		},
		{
		  "duration": 0.19354799999999983,
		  "durationTicks": 240,
		  "midi": 54,
		  "name": "F#3",
		  "ticks": 10320,
		  "time": 8.322564,
		  "velocity": 0.7480314960629921
		},
		{
		  "duration": 0.19354799999999983,
		  "durationTicks": 240,
		  "midi": 46,
		  "name": "A#2",
		  "ticks": 10320,
		  "time": 8.322564,
		  "velocity": 0.7480314960629921
		},
		{
		  "duration": 0.19354799999999983,
		  "durationTicks": 240,
		  "midi": 53,
		  "name": "F3",
		  "ticks": 10800,
		  "time": 8.70966,
		  "velocity": 0.7480314960629921
		},
		{
		  "duration": 0.19354799999999983,
		  "durationTicks": 240,
		  "midi": 46,
		  "name": "A#2",
		  "ticks": 10800,
		  "time": 8.70966,
		  "velocity": 0.7480314960629921
		},
		{
		  "duration": 0.19354799999999983,
		  "durationTicks": 240,
		  "midi": 53,
		  "name": "F3",
		  "ticks": 11280,
		  "time": 9.096756,
		  "velocity": 0.7480314960629921
		},
		{
		  "duration": 0.19354799999999983,
		  "durationTicks": 240,
		  "midi": 46,
		  "name": "A#2",
		  "ticks": 11280,
		  "time": 9.096756,
		  "velocity": 0.7480314960629921
		},
		{
		  "duration": 0.1935480000000016,
		  "durationTicks": 240,
		  "midi": 49,
		  "name": "C#3",
		  "ticks": 11520,
		  "time": 9.290303999999999,
		  "velocity": 0.7480314960629921
		},
		{
		  "duration": 0.1935480000000016,
		  "durationTicks": 240,
		  "midi": 42,
		  "name": "F#2",
		  "ticks": 11520,
		  "time": 9.290303999999999,
		  "velocity": 0.7480314960629921
		},
		{
		  "duration": 0.19354799999999983,
		  "durationTicks": 240,
		  "midi": 49,
		  "name": "C#3",
		  "ticks": 11760,
		  "time": 9.483852,
		  "velocity": 0.7480314960629921
		},
		{
		  "duration": 0.19354799999999983,
		  "durationTicks": 240,
		  "midi": 42,
		  "name": "F#2",
		  "ticks": 11760,
		  "time": 9.483852,
		  "velocity": 0.7480314960629921
		},
		{
		  "duration": 0.19354799999999983,
		  "durationTicks": 240,
		  "midi": 49,
		  "name": "C#3",
		  "ticks": 12240,
		  "time": 9.870948,
		  "velocity": 0.7480314960629921
		},
		{
		  "duration": 0.19354799999999983,
		  "durationTicks": 240,
		  "midi": 42,
		  "name": "F#2",
		  "ticks": 12240,
		  "time": 9.870948,
		  "velocity": 0.7480314960629921
		},
		{
		  "duration": 0.19354799999999983,
		  "durationTicks": 240,
		  "midi": 49,
		  "name": "C#3",
		  "ticks": 12720,
		  "time": 10.258044,
		  "velocity": 0.7480314960629921
		},
		{
		  "duration": 0.19354799999999983,
		  "durationTicks": 240,
		  "midi": 42,
		  "name": "F#2",
		  "ticks": 12720,
		  "time": 10.258044,
		  "velocity": 0.7480314960629921
		},
		{
		  "duration": 0.19354799999999983,
		  "durationTicks": 240,
		  "midi": 49,
		  "name": "C#3",
		  "ticks": 13200,
		  "time": 10.64514,
		  "velocity": 0.7480314960629921
		},
		{
		  "duration": 0.19354799999999983,
		  "durationTicks": 240,
		  "midi": 42,
		  "name": "F#2",
		  "ticks": 13200,
		  "time": 10.64514,
		  "velocity": 0.7480314960629921
		},
		{
		  "duration": 0.19354799999999983,
		  "durationTicks": 240,
		  "midi": 56,
		  "name": "G#3",
		  "ticks": 13440,
		  "time": 10.838688,
		  "velocity": 0.7480314960629921
		},
		{
		  "duration": 0.19354799999999983,
		  "durationTicks": 240,
		  "midi": 49,
		  "name": "C#3",
		  "ticks": 13440,
		  "time": 10.838688,
		  "velocity": 0.7480314960629921
		},
		{
		  "duration": 0.19354799999999983,
		  "durationTicks": 240,
		  "midi": 56,
		  "name": "G#3",
		  "ticks": 13680,
		  "time": 11.032236,
		  "velocity": 0.7480314960629921
		},
		{
		  "duration": 0.19354799999999983,
		  "durationTicks": 240,
		  "midi": 49,
		  "name": "C#3",
		  "ticks": 13680,
		  "time": 11.032236,
		  "velocity": 0.7480314960629921
		},
		{
		  "duration": 0.1935480000000016,
		  "durationTicks": 240,
		  "midi": 56,
		  "name": "G#3",
		  "ticks": 13920,
		  "time": 11.225783999999999,
		  "velocity": 0.7480314960629921
		},
		{
		  "duration": 0.1935480000000016,
		  "durationTicks": 240,
		  "midi": 49,
		  "name": "C#3",
		  "ticks": 13920,
		  "time": 11.225783999999999,
		  "velocity": 0.7480314960629921
		},
		{
		  "duration": 0.19354799999999983,
		  "durationTicks": 240,
		  "midi": 51,
		  "name": "D#3",
		  "ticks": 14160,
		  "time": 11.419332,
		  "velocity": 0.7480314960629921
		},
		{
		  "duration": 0.19354799999999983,
		  "durationTicks": 240,
		  "midi": 44,
		  "name": "G#2",
		  "ticks": 14160,
		  "time": 11.419332,
		  "velocity": 0.7480314960629921
		},
		{
		  "duration": 0.19354799999999983,
		  "durationTicks": 240,
		  "midi": 51,
		  "name": "D#3",
		  "ticks": 14400,
		  "time": 11.61288,
		  "velocity": 0.7480314960629921
		},
		{
		  "duration": 0.19354799999999983,
		  "durationTicks": 240,
		  "midi": 44,
		  "name": "G#2",
		  "ticks": 14400,
		  "time": 11.61288,
		  "velocity": 0.7480314960629921
		},
		{
		  "duration": 0.19354799999999983,
		  "durationTicks": 240,
		  "midi": 51,
		  "name": "D#3",
		  "ticks": 14640,
		  "time": 11.806428,
		  "velocity": 0.7480314960629921
		},
		{
		  "duration": 0.19354799999999983,
		  "durationTicks": 240,
		  "midi": 44,
		  "name": "G#2",
		  "ticks": 14640,
		  "time": 11.806428,
		  "velocity": 0.7480314960629921
		},
		{
		  "duration": 0.19354799999999983,
		  "durationTicks": 240,
		  "midi": 51,
		  "name": "D#3",
		  "ticks": 14880,
		  "time": 11.999976,
		  "velocity": 0.7480314960629921
		},
		{
		  "duration": 0.19354799999999983,
		  "durationTicks": 240,
		  "midi": 44,
		  "name": "G#2",
		  "ticks": 14880,
		  "time": 11.999976,
		  "velocity": 0.7480314960629921
		},
		{
		  "duration": 0.19354799999999983,
		  "durationTicks": 240,
		  "midi": 51,
		  "name": "D#3",
		  "ticks": 15120,
		  "time": 12.193524,
		  "velocity": 0.7480314960629921
		},
		{
		  "duration": 0.19354799999999983,
		  "durationTicks": 240,
		  "midi": 44,
		  "name": "G#2",
		  "ticks": 15120,
		  "time": 12.193524,
		  "velocity": 0.7480314960629921
		},
		{
		  "duration": 0.19354799999999983,
		  "durationTicks": 240,
		  "midi": 51,
		  "name": "D#3",
		  "ticks": 15360,
		  "time": 12.387072,
		  "velocity": 0.7480314960629921
		},
		{
		  "duration": 0.19354799999999983,
		  "durationTicks": 240,
		  "midi": 44,
		  "name": "G#2",
		  "ticks": 15360,
		  "time": 12.387072,
		  "velocity": 0.7480314960629921
		},
		{
		  "duration": 0.19354799999999983,
		  "durationTicks": 240,
		  "midi": 53,
		  "name": "F3",
		  "ticks": 15600,
		  "time": 12.58062,
		  "velocity": 0.7480314960629921
		},
		{
		  "duration": 0.19354799999999983,
		  "durationTicks": 240,
		  "midi": 46,
		  "name": "A#2",
		  "ticks": 15600,
		  "time": 12.58062,
		  "velocity": 0.7480314960629921
		},
		{
		  "duration": 0.19354799999999983,
		  "durationTicks": 240,
		  "midi": 53,
		  "name": "F3",
		  "ticks": 16080,
		  "time": 12.967716,
		  "velocity": 0.7480314960629921
		},
		{
		  "duration": 0.19354799999999983,
		  "durationTicks": 240,
		  "midi": 46,
		  "name": "A#2",
		  "ticks": 16080,
		  "time": 12.967716,
		  "velocity": 0.7480314960629921
		},
		{
		  "duration": 0.1935480000000016,
		  "durationTicks": 240,
		  "midi": 53,
		  "name": "F3",
		  "ticks": 16560,
		  "time": 13.354811999999999,
		  "velocity": 0.7480314960629921
		},
		{
		  "duration": 0.1935480000000016,
		  "durationTicks": 240,
		  "midi": 46,
		  "name": "A#2",
		  "ticks": 16560,
		  "time": 13.354811999999999,
		  "velocity": 0.7480314960629921
		},
		{
		  "duration": 0.19354799999999983,
		  "durationTicks": 240,
		  "midi": 53,
		  "name": "F3",
		  "ticks": 17040,
		  "time": 13.741908,
		  "velocity": 0.7480314960629921
		},
		{
		  "duration": 0.19354799999999983,
		  "durationTicks": 240,
		  "midi": 46,
		  "name": "A#2",
		  "ticks": 17040,
		  "time": 13.741908,
		  "velocity": 0.7480314960629921
		},
		{
		  "duration": 0.19354799999999983,
		  "durationTicks": 240,
		  "midi": 53,
		  "name": "F3",
		  "ticks": 17280,
		  "time": 13.935456,
		  "velocity": 0.7480314960629921
		},
		{
		  "duration": 0.19354799999999983,
		  "durationTicks": 240,
		  "midi": 46,
		  "name": "A#2",
		  "ticks": 17280,
		  "time": 13.935456,
		  "velocity": 0.7480314960629921
		},
		{
		  "duration": 0.19354799999999983,
		  "durationTicks": 240,
		  "midi": 54,
		  "name": "F#3",
		  "ticks": 17520,
		  "time": 14.129004,
		  "velocity": 0.7480314960629921
		},
		{
		  "duration": 0.19354799999999983,
		  "durationTicks": 240,
		  "midi": 46,
		  "name": "A#2",
		  "ticks": 17520,
		  "time": 14.129004,
		  "velocity": 0.7480314960629921
		},
		{
		  "duration": 0.19354799999999983,
		  "durationTicks": 240,
		  "midi": 54,
		  "name": "F#3",
		  "ticks": 18000,
		  "time": 14.5161,
		  "velocity": 0.7480314960629921
		},
		{
		  "duration": 0.19354799999999983,
		  "durationTicks": 240,
		  "midi": 46,
		  "name": "A#2",
		  "ticks": 18000,
		  "time": 14.5161,
		  "velocity": 0.7480314960629921
		},
		{
		  "duration": 0.19354799999999983,
		  "durationTicks": 240,
		  "midi": 53,
		  "name": "F3",
		  "ticks": 18480,
		  "time": 14.903196,
		  "velocity": 0.7480314960629921
		},
		{
		  "duration": 0.19354799999999983,
		  "durationTicks": 240,
		  "midi": 46,
		  "name": "A#2",
		  "ticks": 18480,
		  "time": 14.903196,
		  "velocity": 0.7480314960629921
		},
		{
		  "duration": 0.1935480000000016,
		  "durationTicks": 240,
		  "midi": 53,
		  "name": "F3",
		  "ticks": 18960,
		  "time": 15.290291999999999,
		  "velocity": 0.7480314960629921
		},
		{
		  "duration": 0.1935480000000016,
		  "durationTicks": 240,
		  "midi": 46,
		  "name": "A#2",
		  "ticks": 18960,
		  "time": 15.290291999999999,
		  "velocity": 0.7480314960629921
		},
		{
		  "duration": 0.19354799999999983,
		  "durationTicks": 240,
		  "midi": 49,
		  "name": "C#3",
		  "ticks": 19200,
		  "time": 15.48384,
		  "velocity": 0.7480314960629921
		},
		{
		  "duration": 0.19354799999999983,
		  "durationTicks": 240,
		  "midi": 42,
		  "name": "F#2",
		  "ticks": 19200,
		  "time": 15.48384,
		  "velocity": 0.7480314960629921
		},
		{
		  "duration": 0.19354799999999983,
		  "durationTicks": 240,
		  "midi": 49,
		  "name": "C#3",
		  "ticks": 19440,
		  "time": 15.677388,
		  "velocity": 0.7480314960629921
		},
		{
		  "duration": 0.19354799999999983,
		  "durationTicks": 240,
		  "midi": 42,
		  "name": "F#2",
		  "ticks": 19440,
		  "time": 15.677388,
		  "velocity": 0.7480314960629921
		},
		{
		  "duration": 0.19354799999999983,
		  "durationTicks": 240,
		  "midi": 49,
		  "name": "C#3",
		  "ticks": 19920,
		  "time": 16.064484,
		  "velocity": 0.7480314960629921
		},
		{
		  "duration": 0.19354799999999983,
		  "durationTicks": 240,
		  "midi": 42,
		  "name": "F#2",
		  "ticks": 19920,
		  "time": 16.064484,
		  "velocity": 0.7480314960629921
		},
		{
		  "duration": 0.19354799999999983,
		  "durationTicks": 240,
		  "midi": 49,
		  "name": "C#3",
		  "ticks": 20400,
		  "time": 16.45158,
		  "velocity": 0.7480314960629921
		},
		{
		  "duration": 0.19354799999999983,
		  "durationTicks": 240,
		  "midi": 42,
		  "name": "F#2",
		  "ticks": 20400,
		  "time": 16.45158,
		  "velocity": 0.7480314960629921
		},
		{
		  "duration": 0.19354799999999983,
		  "durationTicks": 240,
		  "midi": 49,
		  "name": "C#3",
		  "ticks": 20880,
		  "time": 16.838676,
		  "velocity": 0.7480314960629921
		},
		{
		  "duration": 0.19354799999999983,
		  "durationTicks": 240,
		  "midi": 42,
		  "name": "F#2",
		  "ticks": 20880,
		  "time": 16.838676,
		  "velocity": 0.7480314960629921
		},
		{
		  "duration": 0.19354799999999983,
		  "durationTicks": 240,
		  "midi": 56,
		  "name": "G#3",
		  "ticks": 21120,
		  "time": 17.032224,
		  "velocity": 0.7480314960629921
		},
		{
		  "duration": 0.19354799999999983,
		  "durationTicks": 240,
		  "midi": 49,
		  "name": "C#3",
		  "ticks": 21120,
		  "time": 17.032224,
		  "velocity": 0.7480314960629921
		},
		{
		  "duration": 0.19354799999999983,
		  "durationTicks": 240,
		  "midi": 56,
		  "name": "G#3",
		  "ticks": 21360,
		  "time": 17.225772,
		  "velocity": 0.7480314960629921
		},
		{
		  "duration": 0.19354799999999983,
		  "durationTicks": 240,
		  "midi": 49,
		  "name": "C#3",
		  "ticks": 21360,
		  "time": 17.225772,
		  "velocity": 0.7480314960629921
		},
		{
		  "duration": 0.19354799999999983,
		  "durationTicks": 240,
		  "midi": 56,
		  "name": "G#3",
		  "ticks": 21600,
		  "time": 17.41932,
		  "velocity": 0.7480314960629921
		},
		{
		  "duration": 0.19354799999999983,
		  "durationTicks": 240,
		  "midi": 49,
		  "name": "C#3",
		  "ticks": 21600,
		  "time": 17.41932,
		  "velocity": 0.7480314960629921
		},
		{
		  "duration": 0.19354799999999983,
		  "durationTicks": 240,
		  "midi": 51,
		  "name": "D#3",
		  "ticks": 21840,
		  "time": 17.612868,
		  "velocity": 0.7480314960629921
		},
		{
		  "duration": 0.19354799999999983,
		  "durationTicks": 240,
		  "midi": 44,
		  "name": "G#2",
		  "ticks": 21840,
		  "time": 17.612868,
		  "velocity": 0.7480314960629921
		},
		{
		  "duration": 0.19354799999999983,
		  "durationTicks": 240,
		  "midi": 51,
		  "name": "D#3",
		  "ticks": 22080,
		  "time": 17.806416,
		  "velocity": 0.7480314960629921
		},
		{
		  "duration": 0.19354799999999983,
		  "durationTicks": 240,
		  "midi": 44,
		  "name": "G#2",
		  "ticks": 22080,
		  "time": 17.806416,
		  "velocity": 0.7480314960629921
		},
		{
		  "duration": 0.19354799999999983,
		  "durationTicks": 240,
		  "midi": 51,
		  "name": "D#3",
		  "ticks": 22320,
		  "time": 17.999964,
		  "velocity": 0.7480314960629921
		},
		{
		  "duration": 0.19354799999999983,
		  "durationTicks": 240,
		  "midi": 44,
		  "name": "G#2",
		  "ticks": 22320,
		  "time": 17.999964,
		  "velocity": 0.7480314960629921
		},
		{
		  "duration": 0.19354799999999983,
		  "durationTicks": 240,
		  "midi": 51,
		  "name": "D#3",
		  "ticks": 22560,
		  "time": 18.193512,
		  "velocity": 0.7480314960629921
		},
		{
		  "duration": 0.19354799999999983,
		  "durationTicks": 240,
		  "midi": 44,
		  "name": "G#2",
		  "ticks": 22560,
		  "time": 18.193512,
		  "velocity": 0.7480314960629921
		},
		{
		  "duration": 0.19354799999999983,
		  "durationTicks": 240,
		  "midi": 51,
		  "name": "D#3",
		  "ticks": 22800,
		  "time": 18.387059999999998,
		  "velocity": 0.7480314960629921
		},
		{
		  "duration": 0.19354799999999983,
		  "durationTicks": 240,
		  "midi": 44,
		  "name": "G#2",
		  "ticks": 22800,
		  "time": 18.387059999999998,
		  "velocity": 0.7480314960629921
		},
		{
		  "duration": 0.19354800000000338,
		  "durationTicks": 240,
		  "midi": 51,
		  "name": "D#3",
		  "ticks": 23040,
		  "time": 18.580607999999998,
		  "velocity": 0.7480314960629921
		},
		{
		  "duration": 0.19354800000000338,
		  "durationTicks": 240,
		  "midi": 44,
		  "name": "G#2",
		  "ticks": 23040,
		  "time": 18.580607999999998,
		  "velocity": 0.7480314960629921
		},
		{
		  "duration": 0.19354799999999983,
		  "durationTicks": 240,
		  "midi": 53,
		  "name": "F3",
		  "ticks": 23280,
		  "time": 18.774156,
		  "velocity": 0.7480314960629921
		},
		{
		  "duration": 0.19354799999999983,
		  "durationTicks": 240,
		  "midi": 46,
		  "name": "A#2",
		  "ticks": 23280,
		  "time": 18.774156,
		  "velocity": 0.7480314960629921
		},
		{
		  "duration": 0.19354799999999983,
		  "durationTicks": 240,
		  "midi": 53,
		  "name": "F3",
		  "ticks": 23760,
		  "time": 19.161252,
		  "velocity": 0.7480314960629921
		},
		{
		  "duration": 0.19354799999999983,
		  "durationTicks": 240,
		  "midi": 46,
		  "name": "A#2",
		  "ticks": 23760,
		  "time": 19.161252,
		  "velocity": 0.7480314960629921
		},
		{
		  "duration": 0.19354799999999983,
		  "durationTicks": 240,
		  "midi": 53,
		  "name": "F3",
		  "ticks": 24240,
		  "time": 19.548348,
		  "velocity": 0.7480314960629921
		},
		{
		  "duration": 0.19354799999999983,
		  "durationTicks": 240,
		  "midi": 46,
		  "name": "A#2",
		  "ticks": 24240,
		  "time": 19.548348,
		  "velocity": 0.7480314960629921
		},
		{
		  "duration": 0.19354799999999983,
		  "durationTicks": 240,
		  "midi": 53,
		  "name": "F3",
		  "ticks": 24720,
		  "time": 19.935444,
		  "velocity": 0.7480314960629921
		},
		{
		  "duration": 0.19354799999999983,
		  "durationTicks": 240,
		  "midi": 46,
		  "name": "A#2",
		  "ticks": 24720,
		  "time": 19.935444,
		  "velocity": 0.7480314960629921
		},
		{
		  "duration": 0.19354799999999983,
		  "durationTicks": 240,
		  "midi": 53,
		  "name": "F3",
		  "ticks": 24960,
		  "time": 20.128992,
		  "velocity": 0.7480314960629921
		},
		{
		  "duration": 0.19354799999999983,
		  "durationTicks": 240,
		  "midi": 46,
		  "name": "A#2",
		  "ticks": 24960,
		  "time": 20.128992,
		  "velocity": 0.7480314960629921
		},
		{
		  "duration": 0.19354799999999983,
		  "durationTicks": 240,
		  "midi": 54,
		  "name": "F#3",
		  "ticks": 25200,
		  "time": 20.32254,
		  "velocity": 0.7480314960629921
		},
		{
		  "duration": 0.19354799999999983,
		  "durationTicks": 240,
		  "midi": 46,
		  "name": "A#2",
		  "ticks": 25200,
		  "time": 20.32254,
		  "velocity": 0.7480314960629921
		},
		{
		  "duration": 0.19354799999999983,
		  "durationTicks": 240,
		  "midi": 54,
		  "name": "F#3",
		  "ticks": 25680,
		  "time": 20.709636,
		  "velocity": 0.7480314960629921
		},
		{
		  "duration": 0.19354799999999983,
		  "durationTicks": 240,
		  "midi": 46,
		  "name": "A#2",
		  "ticks": 25680,
		  "time": 20.709636,
		  "velocity": 0.7480314960629921
		},
		{
		  "duration": 0.19354799999999983,
		  "durationTicks": 240,
		  "midi": 53,
		  "name": "F3",
		  "ticks": 26160,
		  "time": 21.096732,
		  "velocity": 0.7480314960629921
		},
		{
		  "duration": 0.19354799999999983,
		  "durationTicks": 240,
		  "midi": 46,
		  "name": "A#2",
		  "ticks": 26160,
		  "time": 21.096732,
		  "velocity": 0.7480314960629921
		},
		{
		  "duration": 0.19354799999999983,
		  "durationTicks": 240,
		  "midi": 53,
		  "name": "F3",
		  "ticks": 26640,
		  "time": 21.483828,
		  "velocity": 0.7480314960629921
		},
		{
		  "duration": 0.19354799999999983,
		  "durationTicks": 240,
		  "midi": 46,
		  "name": "A#2",
		  "ticks": 26640,
		  "time": 21.483828,
		  "velocity": 0.7480314960629921
		},
		{
		  "duration": 0.19354799999999983,
		  "durationTicks": 240,
		  "midi": 49,
		  "name": "C#3",
		  "ticks": 26880,
		  "time": 21.677376,
		  "velocity": 0.7480314960629921
		},
		{
		  "duration": 0.19354799999999983,
		  "durationTicks": 240,
		  "midi": 42,
		  "name": "F#2",
		  "ticks": 26880,
		  "time": 21.677376,
		  "velocity": 0.7480314960629921
		},
		{
		  "duration": 0.19354799999999983,
		  "durationTicks": 240,
		  "midi": 49,
		  "name": "C#3",
		  "ticks": 27120,
		  "time": 21.870924,
		  "velocity": 0.7480314960629921
		},
		{
		  "duration": 0.19354799999999983,
		  "durationTicks": 240,
		  "midi": 42,
		  "name": "F#2",
		  "ticks": 27120,
		  "time": 21.870924,
		  "velocity": 0.7480314960629921
		},
		{
		  "duration": 0.19354799999999983,
		  "durationTicks": 240,
		  "midi": 49,
		  "name": "C#3",
		  "ticks": 27600,
		  "time": 22.25802,
		  "velocity": 0.7480314960629921
		},
		{
		  "duration": 0.19354799999999983,
		  "durationTicks": 240,
		  "midi": 42,
		  "name": "F#2",
		  "ticks": 27600,
		  "time": 22.25802,
		  "velocity": 0.7480314960629921
		},
		{
		  "duration": 0.19354800000000338,
		  "durationTicks": 240,
		  "midi": 49,
		  "name": "C#3",
		  "ticks": 28080,
		  "time": 22.645115999999998,
		  "velocity": 0.7480314960629921
		},
		{
		  "duration": 0.19354800000000338,
		  "durationTicks": 240,
		  "midi": 42,
		  "name": "F#2",
		  "ticks": 28080,
		  "time": 22.645115999999998,
		  "velocity": 0.7480314960629921
		},
		{
		  "duration": 0.19354799999999983,
		  "durationTicks": 240,
		  "midi": 49,
		  "name": "C#3",
		  "ticks": 28560,
		  "time": 23.032212,
		  "velocity": 0.7480314960629921
		},
		{
		  "duration": 0.19354799999999983,
		  "durationTicks": 240,
		  "midi": 42,
		  "name": "F#2",
		  "ticks": 28560,
		  "time": 23.032212,
		  "velocity": 0.7480314960629921
		},
		{
		  "duration": 0.19354799999999983,
		  "durationTicks": 240,
		  "midi": 56,
		  "name": "G#3",
		  "ticks": 28800,
		  "time": 23.22576,
		  "velocity": 0.7480314960629921
		},
		{
		  "duration": 0.19354799999999983,
		  "durationTicks": 240,
		  "midi": 49,
		  "name": "C#3",
		  "ticks": 28800,
		  "time": 23.22576,
		  "velocity": 0.7480314960629921
		},
		{
		  "duration": 0.19354799999999983,
		  "durationTicks": 240,
		  "midi": 56,
		  "name": "G#3",
		  "ticks": 29040,
		  "time": 23.419308,
		  "velocity": 0.7480314960629921
		},
		{
		  "duration": 0.19354799999999983,
		  "durationTicks": 240,
		  "midi": 49,
		  "name": "C#3",
		  "ticks": 29040,
		  "time": 23.419308,
		  "velocity": 0.7480314960629921
		},
		{
		  "duration": 0.19354799999999983,
		  "durationTicks": 240,
		  "midi": 56,
		  "name": "G#3",
		  "ticks": 29280,
		  "time": 23.612856,
		  "velocity": 0.7480314960629921
		},
		{
		  "duration": 0.19354799999999983,
		  "durationTicks": 240,
		  "midi": 49,
		  "name": "C#3",
		  "ticks": 29280,
		  "time": 23.612856,
		  "velocity": 0.7480314960629921
		},
		{
		  "duration": 0.19354799999999983,
		  "durationTicks": 240,
		  "midi": 51,
		  "name": "D#3",
		  "ticks": 29520,
		  "time": 23.806404,
		  "velocity": 0.7480314960629921
		},
		{
		  "duration": 0.19354799999999983,
		  "durationTicks": 240,
		  "midi": 44,
		  "name": "G#2",
		  "ticks": 29520,
		  "time": 23.806404,
		  "velocity": 0.7480314960629921
		},
		{
		  "duration": 0.19354799999999983,
		  "durationTicks": 240,
		  "midi": 51,
		  "name": "D#3",
		  "ticks": 29760,
		  "time": 23.999952,
		  "velocity": 0.7480314960629921
		},
		{
		  "duration": 0.19354799999999983,
		  "durationTicks": 240,
		  "midi": 44,
		  "name": "G#2",
		  "ticks": 29760,
		  "time": 23.999952,
		  "velocity": 0.7480314960629921
		},
		{
		  "duration": 0.19354799999999983,
		  "durationTicks": 240,
		  "midi": 51,
		  "name": "D#3",
		  "ticks": 30000,
		  "time": 24.1935,
		  "velocity": 0.7480314960629921
		},
		{
		  "duration": 0.19354799999999983,
		  "durationTicks": 240,
		  "midi": 44,
		  "name": "G#2",
		  "ticks": 30000,
		  "time": 24.1935,
		  "velocity": 0.7480314960629921
		},
		{
		  "duration": 0.19354799999999983,
		  "durationTicks": 240,
		  "midi": 51,
		  "name": "D#3",
		  "ticks": 30240,
		  "time": 24.387048,
		  "velocity": 0.7480314960629921
		},
		{
		  "duration": 0.19354799999999983,
		  "durationTicks": 240,
		  "midi": 44,
		  "name": "G#2",
		  "ticks": 30240,
		  "time": 24.387048,
		  "velocity": 0.7480314960629921
		},
		{
		  "duration": 0.19354799999999983,
		  "durationTicks": 240,
		  "midi": 51,
		  "name": "D#3",
		  "ticks": 30480,
		  "time": 24.580596,
		  "velocity": 0.7480314960629921
		},
		{
		  "duration": 0.19354799999999983,
		  "durationTicks": 240,
		  "midi": 44,
		  "name": "G#2",
		  "ticks": 30480,
		  "time": 24.580596,
		  "velocity": 0.7480314960629921
		},
		{
		  "duration": 0.19354799999999983,
		  "durationTicks": 240,
		  "midi": 53,
		  "name": "F3",
		  "ticks": 30720,
		  "time": 24.774144,
		  "velocity": 0.7480314960629921
		},
		{
		  "duration": 0.19354799999999983,
		  "durationTicks": 240,
		  "midi": 46,
		  "name": "A#2",
		  "ticks": 30720,
		  "time": 24.774144,
		  "velocity": 0.7480314960629921
		},
		{
		  "duration": 0.19354799999999983,
		  "durationTicks": 240,
		  "midi": 53,
		  "name": "F3",
		  "ticks": 30960,
		  "time": 24.967692,
		  "velocity": 0.7480314960629921
		},
		{
		  "duration": 0.19354799999999983,
		  "durationTicks": 240,
		  "midi": 46,
		  "name": "A#2",
		  "ticks": 30960,
		  "time": 24.967692,
		  "velocity": 0.7480314960629921
		},
		{
		  "duration": 0.19354799999999983,
		  "durationTicks": 240,
		  "midi": 53,
		  "name": "F3",
		  "ticks": 31200,
		  "time": 25.16124,
		  "velocity": 0.7480314960629921
		},
		{
		  "duration": 0.19354799999999983,
		  "durationTicks": 240,
		  "midi": 46,
		  "name": "A#2",
		  "ticks": 31200,
		  "time": 25.16124,
		  "velocity": 0.7480314960629921
		},
		{
		  "duration": 0.07258049999999727,
		  "durationTicks": 90,
		  "midi": 46,
		  "name": "A#2",
		  "ticks": 33840,
		  "time": 27.290268,
		  "velocity": 0.5984251968503937
		},
		{
		  "duration": 0.07258049999999727,
		  "durationTicks": 90,
		  "midi": 46,
		  "name": "A#2",
		  "ticks": 33960,
		  "time": 27.387042,
		  "velocity": 0.5984251968503937
		},
		{
		  "duration": 0.19354799999999983,
		  "durationTicks": 240,
		  "midi": 53,
		  "name": "F3",
		  "ticks": 34080,
		  "time": 27.483816,
		  "velocity": 0.7480314960629921
		},
		{
		  "duration": 0.19354799999999983,
		  "durationTicks": 240,
		  "midi": 46,
		  "name": "A#2",
		  "ticks": 34080,
		  "time": 27.483816,
		  "velocity": 0.7480314960629921
		},
		{
		  "duration": 0.19354799999999983,
		  "durationTicks": 240,
		  "midi": 53,
		  "name": "F3",
		  "ticks": 34320,
		  "time": 27.677364,
		  "velocity": 0.7480314960629921
		},
		{
		  "duration": 0.19354799999999983,
		  "durationTicks": 240,
		  "midi": 46,
		  "name": "A#2",
		  "ticks": 34320,
		  "time": 27.677364,
		  "velocity": 0.7480314960629921
		},
		{
		  "duration": 0.19354799999999983,
		  "durationTicks": 240,
		  "midi": 49,
		  "name": "C#3",
		  "ticks": 34560,
		  "time": 27.870912,
		  "velocity": 0.7480314960629921
		},
		{
		  "duration": 0.19354799999999983,
		  "durationTicks": 240,
		  "midi": 42,
		  "name": "F#2",
		  "ticks": 34560,
		  "time": 27.870912,
		  "velocity": 0.7480314960629921
		},
		{
		  "duration": 0.19354799999999983,
		  "durationTicks": 240,
		  "midi": 49,
		  "name": "C#3",
		  "ticks": 34800,
		  "time": 28.06446,
		  "velocity": 0.7480314960629921
		},
		{
		  "duration": 0.19354799999999983,
		  "durationTicks": 240,
		  "midi": 42,
		  "name": "F#2",
		  "ticks": 34800,
		  "time": 28.06446,
		  "velocity": 0.7480314960629921
		},
		{
		  "duration": 0.19354799999999983,
		  "durationTicks": 240,
		  "midi": 49,
		  "name": "C#3",
		  "ticks": 35040,
		  "time": 28.258008,
		  "velocity": 0.7480314960629921
		},
		{
		  "duration": 0.19354799999999983,
		  "durationTicks": 240,
		  "midi": 42,
		  "name": "F#2",
		  "ticks": 35040,
		  "time": 28.258008,
		  "velocity": 0.7480314960629921
		},
		{
		  "duration": 0.07258050000000082,
		  "durationTicks": 90,
		  "midi": 42,
		  "name": "F#2",
		  "ticks": 37200,
		  "time": 29.99994,
		  "velocity": 0.5984251968503937
		},
		{
		  "duration": 0.07258050000000082,
		  "durationTicks": 90,
		  "midi": 42,
		  "name": "F#2",
		  "ticks": 37320,
		  "time": 30.096714,
		  "velocity": 0.5984251968503937
		},
		{
		  "duration": 0.14516100000000165,
		  "durationTicks": 180,
		  "midi": 42,
		  "name": "F#2",
		  "ticks": 37440,
		  "time": 30.193488,
		  "velocity": 0.5984251968503937
		},
		{
		  "duration": 0.07258050000000082,
		  "durationTicks": 90,
		  "midi": 42,
		  "name": "F#2",
		  "ticks": 37680,
		  "time": 30.387036,
		  "velocity": 0.5984251968503937
		},
		{
		  "duration": 0.07258050000000082,
		  "durationTicks": 90,
		  "midi": 42,
		  "name": "F#2",
		  "ticks": 37800,
		  "time": 30.48381,
		  "velocity": 0.5984251968503937
		},
		{
		  "duration": 0.3870960000000032,
		  "durationTicks": 480,
		  "midi": 49,
		  "name": "C#3",
		  "ticks": 37920,
		  "time": 30.580583999999998,
		  "velocity": 0.7480314960629921
		},
		{
		  "duration": 0.3870960000000032,
		  "durationTicks": 480,
		  "midi": 42,
		  "name": "F#2",
		  "ticks": 37920,
		  "time": 30.580583999999998,
		  "velocity": 0.7480314960629921
		},
		{
		  "duration": 0.19354799999999983,
		  "durationTicks": 240,
		  "midi": 53,
		  "name": "F3",
		  "ticks": 38400,
		  "time": 30.96768,
		  "velocity": 0.7480314960629921
		},
		{
		  "duration": 0.19354799999999983,
		  "durationTicks": 240,
		  "midi": 46,
		  "name": "A#2",
		  "ticks": 38400,
		  "time": 30.96768,
		  "velocity": 0.7480314960629921
		},
		{
		  "duration": 0.19354799999999983,
		  "durationTicks": 240,
		  "midi": 53,
		  "name": "F3",
		  "ticks": 38640,
		  "time": 31.161228,
		  "velocity": 0.7480314960629921
		},
		{
		  "duration": 0.19354799999999983,
		  "durationTicks": 240,
		  "midi": 46,
		  "name": "A#2",
		  "ticks": 38640,
		  "time": 31.161228,
		  "velocity": 0.7480314960629921
		},
		{
		  "duration": 0.19354799999999983,
		  "durationTicks": 240,
		  "midi": 53,
		  "name": "F3",
		  "ticks": 38880,
		  "time": 31.354776,
		  "velocity": 0.7480314960629921
		},
		{
		  "duration": 0.19354799999999983,
		  "durationTicks": 240,
		  "midi": 46,
		  "name": "A#2",
		  "ticks": 38880,
		  "time": 31.354776,
		  "velocity": 0.7480314960629921
		},
		{
		  "duration": 0.19354799999999983,
		  "durationTicks": 240,
		  "midi": 53,
		  "name": "F3",
		  "ticks": 39120,
		  "time": 31.548324,
		  "velocity": 0.7480314960629921
		},
		{
		  "duration": 0.19354799999999983,
		  "durationTicks": 240,
		  "midi": 46,
		  "name": "A#2",
		  "ticks": 39120,
		  "time": 31.548324,
		  "velocity": 0.7480314960629921
		},
		{
		  "duration": 0.19354799999999983,
		  "durationTicks": 240,
		  "midi": 53,
		  "name": "F3",
		  "ticks": 39360,
		  "time": 31.741872,
		  "velocity": 0.7480314960629921
		},
		{
		  "duration": 0.19354799999999983,
		  "durationTicks": 240,
		  "midi": 46,
		  "name": "A#2",
		  "ticks": 39360,
		  "time": 31.741872,
		  "velocity": 0.7480314960629921
		},
		{
		  "duration": 0.19354799999999983,
		  "durationTicks": 240,
		  "midi": 53,
		  "name": "F3",
		  "ticks": 39600,
		  "time": 31.93542,
		  "velocity": 0.7480314960629921
		},
		{
		  "duration": 0.19354799999999983,
		  "durationTicks": 240,
		  "midi": 46,
		  "name": "A#2",
		  "ticks": 39600,
		  "time": 31.93542,
		  "velocity": 0.7480314960629921
		},
		{
		  "duration": 0.19354799999999983,
		  "durationTicks": 240,
		  "midi": 53,
		  "name": "F3",
		  "ticks": 39840,
		  "time": 32.128968,
		  "velocity": 0.7480314960629921
		},
		{
		  "duration": 0.19354799999999983,
		  "durationTicks": 240,
		  "midi": 46,
		  "name": "A#2",
		  "ticks": 39840,
		  "time": 32.128968,
		  "velocity": 0.7480314960629921
		},
		{
		  "duration": 0.19354799999999983,
		  "durationTicks": 240,
		  "midi": 53,
		  "name": "F3",
		  "ticks": 40080,
		  "time": 32.322516,
		  "velocity": 0.7480314960629921
		},
		{
		  "duration": 0.19354799999999983,
		  "durationTicks": 240,
		  "midi": 46,
		  "name": "A#2",
		  "ticks": 40080,
		  "time": 32.322516,
		  "velocity": 0.7480314960629921
		},
		{
		  "duration": 0.19354799999999983,
		  "durationTicks": 240,
		  "midi": 51,
		  "name": "D#3",
		  "ticks": 40320,
		  "time": 32.516064,
		  "velocity": 0.7480314960629921
		},
		{
		  "duration": 0.19354799999999983,
		  "durationTicks": 240,
		  "midi": 44,
		  "name": "G#2",
		  "ticks": 40320,
		  "time": 32.516064,
		  "velocity": 0.7480314960629921
		},
		{
		  "duration": 0.19354799999999983,
		  "durationTicks": 240,
		  "midi": 51,
		  "name": "D#3",
		  "ticks": 40560,
		  "time": 32.709612,
		  "velocity": 0.7480314960629921
		},
		{
		  "duration": 0.19354799999999983,
		  "durationTicks": 240,
		  "midi": 44,
		  "name": "G#2",
		  "ticks": 40560,
		  "time": 32.709612,
		  "velocity": 0.7480314960629921
		},
		{
		  "duration": 0.19354799999999983,
		  "durationTicks": 240,
		  "midi": 51,
		  "name": "D#3",
		  "ticks": 40800,
		  "time": 32.90316,
		  "velocity": 0.7480314960629921
		},
		{
		  "duration": 0.19354799999999983,
		  "durationTicks": 240,
		  "midi": 44,
		  "name": "G#2",
		  "ticks": 40800,
		  "time": 32.90316,
		  "velocity": 0.7480314960629921
		},
		{
		  "duration": 0.19354799999999983,
		  "durationTicks": 240,
		  "midi": 51,
		  "name": "D#3",
		  "ticks": 41040,
		  "time": 33.096708,
		  "velocity": 0.7480314960629921
		},
		{
		  "duration": 0.19354799999999983,
		  "durationTicks": 240,
		  "midi": 44,
		  "name": "G#2",
		  "ticks": 41040,
		  "time": 33.096708,
		  "velocity": 0.7480314960629921
		},
		{
		  "duration": 0.19354799999999983,
		  "durationTicks": 240,
		  "midi": 51,
		  "name": "D#3",
		  "ticks": 41280,
		  "time": 33.290256,
		  "velocity": 0.7480314960629921
		},
		{
		  "duration": 0.19354799999999983,
		  "durationTicks": 240,
		  "midi": 44,
		  "name": "G#2",
		  "ticks": 41280,
		  "time": 33.290256,
		  "velocity": 0.7480314960629921
		},
		{
		  "duration": 0.19354799999999983,
		  "durationTicks": 240,
		  "midi": 51,
		  "name": "D#3",
		  "ticks": 41520,
		  "time": 33.483804,
		  "velocity": 0.7480314960629921
		},
		{
		  "duration": 0.19354799999999983,
		  "durationTicks": 240,
		  "midi": 44,
		  "name": "G#2",
		  "ticks": 41520,
		  "time": 33.483804,
		  "velocity": 0.7480314960629921
		},
		{
		  "duration": 0.19354799999999983,
		  "durationTicks": 240,
		  "midi": 51,
		  "name": "D#3",
		  "ticks": 41760,
		  "time": 33.677352,
		  "velocity": 0.7480314960629921
		},
		{
		  "duration": 0.19354799999999983,
		  "durationTicks": 240,
		  "midi": 44,
		  "name": "G#2",
		  "ticks": 41760,
		  "time": 33.677352,
		  "velocity": 0.7480314960629921
		},
		{
		  "duration": 0.19354799999999983,
		  "durationTicks": 240,
		  "midi": 51,
		  "name": "D#3",
		  "ticks": 42000,
		  "time": 33.8709,
		  "velocity": 0.7480314960629921
		},
		{
		  "duration": 0.19354799999999983,
		  "durationTicks": 240,
		  "midi": 44,
		  "name": "G#2",
		  "ticks": 42000,
		  "time": 33.8709,
		  "velocity": 0.7480314960629921
		},
		{
		  "duration": 0.19354799999999983,
		  "durationTicks": 240,
		  "midi": 48,
		  "name": "C3",
		  "ticks": 42240,
		  "time": 34.064448,
		  "velocity": 0.7480314960629921
		},
		{
		  "duration": 0.19354799999999983,
		  "durationTicks": 240,
		  "midi": 41,
		  "name": "F2",
		  "ticks": 42240,
		  "time": 34.064448,
		  "velocity": 0.7480314960629921
		},
		{
		  "duration": 0.19354799999999983,
		  "durationTicks": 240,
		  "midi": 48,
		  "name": "C3",
		  "ticks": 42480,
		  "time": 34.257996,
		  "velocity": 0.7480314960629921
		},
		{
		  "duration": 0.19354799999999983,
		  "durationTicks": 240,
		  "midi": 41,
		  "name": "F2",
		  "ticks": 42480,
		  "time": 34.257996,
		  "velocity": 0.7480314960629921
		},
		{
		  "duration": 0.19354799999999983,
		  "durationTicks": 240,
		  "midi": 48,
		  "name": "C3",
		  "ticks": 42720,
		  "time": 34.451544,
		  "velocity": 0.7480314960629921
		},
		{
		  "duration": 0.19354799999999983,
		  "durationTicks": 240,
		  "midi": 41,
		  "name": "F2",
		  "ticks": 42720,
		  "time": 34.451544,
		  "velocity": 0.7480314960629921
		},
		{
		  "duration": 0.19354799999999983,
		  "durationTicks": 240,
		  "midi": 48,
		  "name": "C3",
		  "ticks": 42960,
		  "time": 34.645092,
		  "velocity": 0.7480314960629921
		},
		{
		  "duration": 0.19354799999999983,
		  "durationTicks": 240,
		  "midi": 41,
		  "name": "F2",
		  "ticks": 42960,
		  "time": 34.645092,
		  "velocity": 0.7480314960629921
		},
		{
		  "duration": 0.19354799999999983,
		  "durationTicks": 240,
		  "midi": 48,
		  "name": "C3",
		  "ticks": 43200,
		  "time": 34.83864,
		  "velocity": 0.7480314960629921
		},
		{
		  "duration": 0.19354799999999983,
		  "durationTicks": 240,
		  "midi": 41,
		  "name": "F2",
		  "ticks": 43200,
		  "time": 34.83864,
		  "velocity": 0.7480314960629921
		},
		{
		  "duration": 0.19354799999999983,
		  "durationTicks": 240,
		  "midi": 48,
		  "name": "C3",
		  "ticks": 43440,
		  "time": 35.032188,
		  "velocity": 0.7480314960629921
		},
		{
		  "duration": 0.19354799999999983,
		  "durationTicks": 240,
		  "midi": 41,
		  "name": "F2",
		  "ticks": 43440,
		  "time": 35.032188,
		  "velocity": 0.7480314960629921
		},
		{
		  "duration": 0.19354799999999983,
		  "durationTicks": 240,
		  "midi": 48,
		  "name": "C3",
		  "ticks": 43680,
		  "time": 35.225736,
		  "velocity": 0.7480314960629921
		},
		{
		  "duration": 0.19354799999999983,
		  "durationTicks": 240,
		  "midi": 41,
		  "name": "F2",
		  "ticks": 43680,
		  "time": 35.225736,
		  "velocity": 0.7480314960629921
		},
		{
		  "duration": 0.19354799999999983,
		  "durationTicks": 240,
		  "midi": 51,
		  "name": "D#3",
		  "ticks": 43920,
		  "time": 35.419284,
		  "velocity": 0.7480314960629921
		},
		{
		  "duration": 0.19354799999999983,
		  "durationTicks": 240,
		  "midi": 44,
		  "name": "G#2",
		  "ticks": 43920,
		  "time": 35.419284,
		  "velocity": 0.7480314960629921
		},
		{
		  "duration": 0.19354799999999983,
		  "durationTicks": 240,
		  "midi": 51,
		  "name": "D#3",
		  "ticks": 44160,
		  "time": 35.612832,
		  "velocity": 0.7480314960629921
		},
		{
		  "duration": 0.19354799999999983,
		  "durationTicks": 240,
		  "midi": 44,
		  "name": "G#2",
		  "ticks": 44160,
		  "time": 35.612832,
		  "velocity": 0.7480314960629921
		},
		{
		  "duration": 0.19354799999999983,
		  "durationTicks": 240,
		  "midi": 51,
		  "name": "D#3",
		  "ticks": 44400,
		  "time": 35.80638,
		  "velocity": 0.7480314960629921
		},
		{
		  "duration": 0.19354799999999983,
		  "durationTicks": 240,
		  "midi": 44,
		  "name": "G#2",
		  "ticks": 44400,
		  "time": 35.80638,
		  "velocity": 0.7480314960629921
		},
		{
		  "duration": 0.19354799999999983,
		  "durationTicks": 240,
		  "midi": 53,
		  "name": "F3",
		  "ticks": 44640,
		  "time": 35.999928,
		  "velocity": 0.7480314960629921
		},
		{
		  "duration": 0.19354799999999983,
		  "durationTicks": 240,
		  "midi": 46,
		  "name": "A#2",
		  "ticks": 44640,
		  "time": 35.999928,
		  "velocity": 0.7480314960629921
		},
		{
		  "duration": 0.19354799999999983,
		  "durationTicks": 240,
		  "midi": 53,
		  "name": "F3",
		  "ticks": 44880,
		  "time": 36.193476,
		  "velocity": 0.7480314960629921
		},
		{
		  "duration": 0.19354799999999983,
		  "durationTicks": 240,
		  "midi": 46,
		  "name": "A#2",
		  "ticks": 44880,
		  "time": 36.193476,
		  "velocity": 0.7480314960629921
		},
		{
		  "duration": 0.19354799999999983,
		  "durationTicks": 240,
		  "midi": 53,
		  "name": "F3",
		  "ticks": 45120,
		  "time": 36.387024,
		  "velocity": 0.7480314960629921
		},
		{
		  "duration": 0.19354799999999983,
		  "durationTicks": 240,
		  "midi": 46,
		  "name": "A#2",
		  "ticks": 45120,
		  "time": 36.387024,
		  "velocity": 0.7480314960629921
		},
		{
		  "duration": 0.19354799999999983,
		  "durationTicks": 240,
		  "midi": 51,
		  "name": "D#3",
		  "ticks": 45360,
		  "time": 36.580572,
		  "velocity": 0.7480314960629921
		},
		{
		  "duration": 0.19354799999999983,
		  "durationTicks": 240,
		  "midi": 44,
		  "name": "G#2",
		  "ticks": 45360,
		  "time": 36.580572,
		  "velocity": 0.7480314960629921
		},
		{
		  "duration": 0.19354799999999983,
		  "durationTicks": 240,
		  "midi": 51,
		  "name": "D#3",
		  "ticks": 45600,
		  "time": 36.774119999999996,
		  "velocity": 0.7480314960629921
		},
		{
		  "duration": 0.19354799999999983,
		  "durationTicks": 240,
		  "midi": 44,
		  "name": "G#2",
		  "ticks": 45600,
		  "time": 36.774119999999996,
		  "velocity": 0.7480314960629921
		},
		{
		  "duration": 0.19354799999999983,
		  "durationTicks": 240,
		  "midi": 51,
		  "name": "D#3",
		  "ticks": 45840,
		  "time": 36.967667999999996,
		  "velocity": 0.7480314960629921
		},
		{
		  "duration": 0.19354799999999983,
		  "durationTicks": 240,
		  "midi": 44,
		  "name": "G#2",
		  "ticks": 45840,
		  "time": 36.967667999999996,
		  "velocity": 0.7480314960629921
		},
		{
		  "duration": 0.19354800000000694,
		  "durationTicks": 240,
		  "midi": 53,
		  "name": "F3",
		  "ticks": 46080,
		  "time": 37.161215999999996,
		  "velocity": 0.7480314960629921
		},
		{
		  "duration": 0.19354800000000694,
		  "durationTicks": 240,
		  "midi": 46,
		  "name": "A#2",
		  "ticks": 46080,
		  "time": 37.161215999999996,
		  "velocity": 0.7480314960629921
		},
		{
		  "duration": 0.19354799999999983,
		  "durationTicks": 240,
		  "midi": 53,
		  "name": "F3",
		  "ticks": 46320,
		  "time": 37.354764,
		  "velocity": 0.7480314960629921
		},
		{
		  "duration": 0.19354799999999983,
		  "durationTicks": 240,
		  "midi": 46,
		  "name": "A#2",
		  "ticks": 46320,
		  "time": 37.354764,
		  "velocity": 0.7480314960629921
		},
		{
		  "duration": 0.19354799999999983,
		  "durationTicks": 240,
		  "midi": 53,
		  "name": "F3",
		  "ticks": 46560,
		  "time": 37.548312,
		  "velocity": 0.7480314960629921
		},
		{
		  "duration": 0.19354799999999983,
		  "durationTicks": 240,
		  "midi": 46,
		  "name": "A#2",
		  "ticks": 46560,
		  "time": 37.548312,
		  "velocity": 0.7480314960629921
		},
		{
		  "duration": 0.07258050000000082,
		  "durationTicks": 90,
		  "midi": 46,
		  "name": "A#2",
		  "ticks": 49200,
		  "time": 39.67734,
		  "velocity": 0.5984251968503937
		},
		{
		  "duration": 0.07258050000000082,
		  "durationTicks": 90,
		  "midi": 46,
		  "name": "A#2",
		  "ticks": 49320,
		  "time": 39.774114,
		  "velocity": 0.5984251968503937
		},
		{
		  "duration": 0.19354799999999983,
		  "durationTicks": 240,
		  "midi": 53,
		  "name": "F3",
		  "ticks": 49440,
		  "time": 39.870888,
		  "velocity": 0.7480314960629921
		},
		{
		  "duration": 0.19354799999999983,
		  "durationTicks": 240,
		  "midi": 46,
		  "name": "A#2",
		  "ticks": 49440,
		  "time": 39.870888,
		  "velocity": 0.7480314960629921
		},
		{
		  "duration": 0.19354799999999983,
		  "durationTicks": 240,
		  "midi": 53,
		  "name": "F3",
		  "ticks": 49680,
		  "time": 40.064436,
		  "velocity": 0.7480314960629921
		},
		{
		  "duration": 0.19354799999999983,
		  "durationTicks": 240,
		  "midi": 46,
		  "name": "A#2",
		  "ticks": 49680,
		  "time": 40.064436,
		  "velocity": 0.7480314960629921
		},
		{
		  "duration": 0.19354799999999983,
		  "durationTicks": 240,
		  "midi": 49,
		  "name": "C#3",
		  "ticks": 49920,
		  "time": 40.257984,
		  "velocity": 0.7480314960629921
		},
		{
		  "duration": 0.19354799999999983,
		  "durationTicks": 240,
		  "midi": 42,
		  "name": "F#2",
		  "ticks": 49920,
		  "time": 40.257984,
		  "velocity": 0.7480314960629921
		},
		{
		  "duration": 0.19354799999999983,
		  "durationTicks": 240,
		  "midi": 49,
		  "name": "C#3",
		  "ticks": 50160,
		  "time": 40.451532,
		  "velocity": 0.7480314960629921
		},
		{
		  "duration": 0.19354799999999983,
		  "durationTicks": 240,
		  "midi": 42,
		  "name": "F#2",
		  "ticks": 50160,
		  "time": 40.451532,
		  "velocity": 0.7480314960629921
		},
		{
		  "duration": 0.19354799999999983,
		  "durationTicks": 240,
		  "midi": 49,
		  "name": "C#3",
		  "ticks": 50400,
		  "time": 40.64508,
		  "velocity": 0.7480314960629921
		},
		{
		  "duration": 0.19354799999999983,
		  "durationTicks": 240,
		  "midi": 42,
		  "name": "F#2",
		  "ticks": 50400,
		  "time": 40.64508,
		  "velocity": 0.7480314960629921
		},
		{
		  "duration": 0.07258050000000082,
		  "durationTicks": 90,
		  "midi": 42,
		  "name": "F#2",
		  "ticks": 52560,
		  "time": 42.387012,
		  "velocity": 0.5984251968503937
		},
		{
		  "duration": 0.07258050000000082,
		  "durationTicks": 90,
		  "midi": 42,
		  "name": "F#2",
		  "ticks": 52680,
		  "time": 42.483786,
		  "velocity": 0.5984251968503937
		},
		{
		  "duration": 0.14516100000000165,
		  "durationTicks": 180,
		  "midi": 42,
		  "name": "F#2",
		  "ticks": 52800,
		  "time": 42.58056,
		  "velocity": 0.5984251968503937
		},
		{
		  "duration": 0.07258050000000082,
		  "durationTicks": 90,
		  "midi": 42,
		  "name": "F#2",
		  "ticks": 53040,
		  "time": 42.774108,
		  "velocity": 0.5984251968503937
		},
		{
		  "duration": 0.07258050000000082,
		  "durationTicks": 90,
		  "midi": 42,
		  "name": "F#2",
		  "ticks": 53160,
		  "time": 42.870882,
		  "velocity": 0.5984251968503937
		},
		{
		  "duration": 0.38709599999999966,
		  "durationTicks": 480,
		  "midi": 49,
		  "name": "C#3",
		  "ticks": 53280,
		  "time": 42.967656,
		  "velocity": 0.7480314960629921
		},
		{
		  "duration": 0.38709599999999966,
		  "durationTicks": 480,
		  "midi": 42,
		  "name": "F#2",
		  "ticks": 53280,
		  "time": 42.967656,
		  "velocity": 0.7480314960629921
		},
		{
		  "duration": 0.19354799999999983,
		  "durationTicks": 240,
		  "midi": 53,
		  "name": "F3",
		  "ticks": 53760,
		  "time": 43.354752,
		  "velocity": 0.7480314960629921
		},
		{
		  "duration": 0.19354799999999983,
		  "durationTicks": 240,
		  "midi": 46,
		  "name": "A#2",
		  "ticks": 53760,
		  "time": 43.354752,
		  "velocity": 0.7480314960629921
		},
		{
		  "duration": 0.19354799999999983,
		  "durationTicks": 240,
		  "midi": 53,
		  "name": "F3",
		  "ticks": 54000,
		  "time": 43.5483,
		  "velocity": 0.7480314960629921
		},
		{
		  "duration": 0.19354799999999983,
		  "durationTicks": 240,
		  "midi": 46,
		  "name": "A#2",
		  "ticks": 54000,
		  "time": 43.5483,
		  "velocity": 0.7480314960629921
		},
		{
		  "duration": 0.19354799999999983,
		  "durationTicks": 240,
		  "midi": 53,
		  "name": "F3",
		  "ticks": 54240,
		  "time": 43.741848,
		  "velocity": 0.7480314960629921
		},
		{
		  "duration": 0.19354799999999983,
		  "durationTicks": 240,
		  "midi": 46,
		  "name": "A#2",
		  "ticks": 54240,
		  "time": 43.741848,
		  "velocity": 0.7480314960629921
		},
		{
		  "duration": 0.19354799999999983,
		  "durationTicks": 240,
		  "midi": 53,
		  "name": "F3",
		  "ticks": 54480,
		  "time": 43.935396,
		  "velocity": 0.7480314960629921
		},
		{
		  "duration": 0.19354799999999983,
		  "durationTicks": 240,
		  "midi": 46,
		  "name": "A#2",
		  "ticks": 54480,
		  "time": 43.935396,
		  "velocity": 0.7480314960629921
		},
		{
		  "duration": 0.19354799999999983,
		  "durationTicks": 240,
		  "midi": 53,
		  "name": "F3",
		  "ticks": 54720,
		  "time": 44.128944,
		  "velocity": 0.7480314960629921
		},
		{
		  "duration": 0.19354799999999983,
		  "durationTicks": 240,
		  "midi": 46,
		  "name": "A#2",
		  "ticks": 54720,
		  "time": 44.128944,
		  "velocity": 0.7480314960629921
		},
		{
		  "duration": 0.19354799999999983,
		  "durationTicks": 240,
		  "midi": 53,
		  "name": "F3",
		  "ticks": 54960,
		  "time": 44.322492,
		  "velocity": 0.7480314960629921
		},
		{
		  "duration": 0.19354799999999983,
		  "durationTicks": 240,
		  "midi": 46,
		  "name": "A#2",
		  "ticks": 54960,
		  "time": 44.322492,
		  "velocity": 0.7480314960629921
		},
		{
		  "duration": 0.19354799999999983,
		  "durationTicks": 240,
		  "midi": 53,
		  "name": "F3",
		  "ticks": 55200,
		  "time": 44.51604,
		  "velocity": 0.7480314960629921
		},
		{
		  "duration": 0.19354799999999983,
		  "durationTicks": 240,
		  "midi": 46,
		  "name": "A#2",
		  "ticks": 55200,
		  "time": 44.51604,
		  "velocity": 0.7480314960629921
		},
		{
		  "duration": 0.19354799999999983,
		  "durationTicks": 240,
		  "midi": 53,
		  "name": "F3",
		  "ticks": 55440,
		  "time": 44.709588,
		  "velocity": 0.7480314960629921
		},
		{
		  "duration": 0.19354799999999983,
		  "durationTicks": 240,
		  "midi": 46,
		  "name": "A#2",
		  "ticks": 55440,
		  "time": 44.709588,
		  "velocity": 0.7480314960629921
		},
		{
		  "duration": 0.19354799999999983,
		  "durationTicks": 240,
		  "midi": 51,
		  "name": "D#3",
		  "ticks": 55680,
		  "time": 44.903135999999996,
		  "velocity": 0.7480314960629921
		},
		{
		  "duration": 0.19354799999999983,
		  "durationTicks": 240,
		  "midi": 44,
		  "name": "G#2",
		  "ticks": 55680,
		  "time": 44.903135999999996,
		  "velocity": 0.7480314960629921
		},
		{
		  "duration": 0.19354799999999983,
		  "durationTicks": 240,
		  "midi": 51,
		  "name": "D#3",
		  "ticks": 55920,
		  "time": 45.096683999999996,
		  "velocity": 0.7480314960629921
		},
		{
		  "duration": 0.19354799999999983,
		  "durationTicks": 240,
		  "midi": 44,
		  "name": "G#2",
		  "ticks": 55920,
		  "time": 45.096683999999996,
		  "velocity": 0.7480314960629921
		},
		{
		  "duration": 0.19354800000000694,
		  "durationTicks": 240,
		  "midi": 51,
		  "name": "D#3",
		  "ticks": 56160,
		  "time": 45.290231999999996,
		  "velocity": 0.7480314960629921
		},
		{
		  "duration": 0.19354800000000694,
		  "durationTicks": 240,
		  "midi": 44,
		  "name": "G#2",
		  "ticks": 56160,
		  "time": 45.290231999999996,
		  "velocity": 0.7480314960629921
		},
		{
		  "duration": 0.19354799999999983,
		  "durationTicks": 240,
		  "midi": 51,
		  "name": "D#3",
		  "ticks": 56400,
		  "time": 45.48378,
		  "velocity": 0.7480314960629921
		},
		{
		  "duration": 0.19354799999999983,
		  "durationTicks": 240,
		  "midi": 44,
		  "name": "G#2",
		  "ticks": 56400,
		  "time": 45.48378,
		  "velocity": 0.7480314960629921
		},
		{
		  "duration": 0.19354799999999983,
		  "durationTicks": 240,
		  "midi": 51,
		  "name": "D#3",
		  "ticks": 56640,
		  "time": 45.677328,
		  "velocity": 0.7480314960629921
		},
		{
		  "duration": 0.19354799999999983,
		  "durationTicks": 240,
		  "midi": 44,
		  "name": "G#2",
		  "ticks": 56640,
		  "time": 45.677328,
		  "velocity": 0.7480314960629921
		},
		{
		  "duration": 0.19354799999999983,
		  "durationTicks": 240,
		  "midi": 51,
		  "name": "D#3",
		  "ticks": 56880,
		  "time": 45.870876,
		  "velocity": 0.7480314960629921
		},
		{
		  "duration": 0.19354799999999983,
		  "durationTicks": 240,
		  "midi": 44,
		  "name": "G#2",
		  "ticks": 56880,
		  "time": 45.870876,
		  "velocity": 0.7480314960629921
		},
		{
		  "duration": 0.19354799999999983,
		  "durationTicks": 240,
		  "midi": 51,
		  "name": "D#3",
		  "ticks": 57120,
		  "time": 46.064424,
		  "velocity": 0.7480314960629921
		},
		{
		  "duration": 0.19354799999999983,
		  "durationTicks": 240,
		  "midi": 44,
		  "name": "G#2",
		  "ticks": 57120,
		  "time": 46.064424,
		  "velocity": 0.7480314960629921
		},
		{
		  "duration": 0.19354799999999983,
		  "durationTicks": 240,
		  "midi": 51,
		  "name": "D#3",
		  "ticks": 57360,
		  "time": 46.257972,
		  "velocity": 0.7480314960629921
		},
		{
		  "duration": 0.19354799999999983,
		  "durationTicks": 240,
		  "midi": 44,
		  "name": "G#2",
		  "ticks": 57360,
		  "time": 46.257972,
		  "velocity": 0.7480314960629921
		},
		{
		  "duration": 0.19354799999999983,
		  "durationTicks": 240,
		  "midi": 48,
		  "name": "C3",
		  "ticks": 57600,
		  "time": 46.45152,
		  "velocity": 0.7480314960629921
		},
		{
		  "duration": 0.19354799999999983,
		  "durationTicks": 240,
		  "midi": 41,
		  "name": "F2",
		  "ticks": 57600,
		  "time": 46.45152,
		  "velocity": 0.7480314960629921
		},
		{
		  "duration": 0.19354799999999983,
		  "durationTicks": 240,
		  "midi": 48,
		  "name": "C3",
		  "ticks": 57840,
		  "time": 46.645068,
		  "velocity": 0.7480314960629921
		},
		{
		  "duration": 0.19354799999999983,
		  "durationTicks": 240,
		  "midi": 41,
		  "name": "F2",
		  "ticks": 57840,
		  "time": 46.645068,
		  "velocity": 0.7480314960629921
		},
		{
		  "duration": 0.19354799999999983,
		  "durationTicks": 240,
		  "midi": 48,
		  "name": "C3",
		  "ticks": 58080,
		  "time": 46.838616,
		  "velocity": 0.7480314960629921
		},
		{
		  "duration": 0.19354799999999983,
		  "durationTicks": 240,
		  "midi": 41,
		  "name": "F2",
		  "ticks": 58080,
		  "time": 46.838616,
		  "velocity": 0.7480314960629921
		},
		{
		  "duration": 0.19354799999999983,
		  "durationTicks": 240,
		  "midi": 48,
		  "name": "C3",
		  "ticks": 58320,
		  "time": 47.032164,
		  "velocity": 0.7480314960629921
		},
		{
		  "duration": 0.19354799999999983,
		  "durationTicks": 240,
		  "midi": 41,
		  "name": "F2",
		  "ticks": 58320,
		  "time": 47.032164,
		  "velocity": 0.7480314960629921
		},
		{
		  "duration": 0.19354799999999983,
		  "durationTicks": 240,
		  "midi": 48,
		  "name": "C3",
		  "ticks": 58560,
		  "time": 47.225712,
		  "velocity": 0.7480314960629921
		},
		{
		  "duration": 0.19354799999999983,
		  "durationTicks": 240,
		  "midi": 41,
		  "name": "F2",
		  "ticks": 58560,
		  "time": 47.225712,
		  "velocity": 0.7480314960629921
		},
		{
		  "duration": 0.19354799999999983,
		  "durationTicks": 240,
		  "midi": 48,
		  "name": "C3",
		  "ticks": 58800,
		  "time": 47.41926,
		  "velocity": 0.7480314960629921
		},
		{
		  "duration": 0.19354799999999983,
		  "durationTicks": 240,
		  "midi": 41,
		  "name": "F2",
		  "ticks": 58800,
		  "time": 47.41926,
		  "velocity": 0.7480314960629921
		},
		{
		  "duration": 0.19354799999999983,
		  "durationTicks": 240,
		  "midi": 48,
		  "name": "C3",
		  "ticks": 59040,
		  "time": 47.612808,
		  "velocity": 0.7480314960629921
		},
		{
		  "duration": 0.19354799999999983,
		  "durationTicks": 240,
		  "midi": 41,
		  "name": "F2",
		  "ticks": 59040,
		  "time": 47.612808,
		  "velocity": 0.7480314960629921
		},
		{
		  "duration": 0.19354799999999983,
		  "durationTicks": 240,
		  "midi": 48,
		  "name": "C3",
		  "ticks": 59280,
		  "time": 47.806356,
		  "velocity": 0.7480314960629921
		},
		{
		  "duration": 0.19354799999999983,
		  "durationTicks": 240,
		  "midi": 41,
		  "name": "F2",
		  "ticks": 59280,
		  "time": 47.806356,
		  "velocity": 0.7480314960629921
		},
		{
		  "duration": 0.2903219999999962,
		  "durationTicks": 360,
		  "midi": 53,
		  "name": "F3",
		  "ticks": 59520,
		  "time": 47.999904,
		  "velocity": 0.5984251968503937
		},
		{
		  "duration": 0.2903219999999962,
		  "durationTicks": 360,
		  "midi": 46,
		  "name": "A#2",
		  "ticks": 59520,
		  "time": 47.999904,
		  "velocity": 0.5984251968503937
		},
		{
		  "duration": 0.2903219999999962,
		  "durationTicks": 360,
		  "midi": 53,
		  "name": "F3",
		  "ticks": 60000,
		  "time": 48.387,
		  "velocity": 0.5984251968503937
		},
		{
		  "duration": 0.2903219999999962,
		  "durationTicks": 360,
		  "midi": 46,
		  "name": "A#2",
		  "ticks": 60000,
		  "time": 48.387,
		  "velocity": 0.5984251968503937
		},
		{
		  "duration": 0.2903219999999962,
		  "durationTicks": 360,
		  "midi": 53,
		  "name": "F3",
		  "ticks": 60480,
		  "time": 48.774096,
		  "velocity": 0.5984251968503937
		},
		{
		  "duration": 0.2903219999999962,
		  "durationTicks": 360,
		  "midi": 46,
		  "name": "A#2",
		  "ticks": 60480,
		  "time": 48.774096,
		  "velocity": 0.5984251968503937
		},
		{
		  "duration": 0.19354799999999983,
		  "durationTicks": 240,
		  "midi": 53,
		  "name": "F3",
		  "ticks": 60960,
		  "time": 49.161192,
		  "velocity": 0.7480314960629921
		},
		{
		  "duration": 0.19354799999999983,
		  "durationTicks": 240,
		  "midi": 46,
		  "name": "A#2",
		  "ticks": 60960,
		  "time": 49.161192,
		  "velocity": 0.7480314960629921
		},
		{
		  "duration": 0.19354799999999983,
		  "durationTicks": 240,
		  "midi": 51,
		  "name": "D#3",
		  "ticks": 61200,
		  "time": 49.35474,
		  "velocity": 0.7480314960629921
		},
		{
		  "duration": 0.19354799999999983,
		  "durationTicks": 240,
		  "midi": 44,
		  "name": "G#2",
		  "ticks": 61200,
		  "time": 49.35474,
		  "velocity": 0.7480314960629921
		},
		{
		  "duration": 0.19354799999999983,
		  "durationTicks": 240,
		  "midi": 51,
		  "name": "D#3",
		  "ticks": 61680,
		  "time": 49.741836,
		  "velocity": 0.7480314960629921
		},
		{
		  "duration": 0.19354799999999983,
		  "durationTicks": 240,
		  "midi": 44,
		  "name": "G#2",
		  "ticks": 61680,
		  "time": 49.741836,
		  "velocity": 0.7480314960629921
		},
		{
		  "duration": 0.19354799999999983,
		  "durationTicks": 240,
		  "midi": 51,
		  "name": "D#3",
		  "ticks": 61920,
		  "time": 49.935384,
		  "velocity": 0.7480314960629921
		},
		{
		  "duration": 0.19354799999999983,
		  "durationTicks": 240,
		  "midi": 44,
		  "name": "G#2",
		  "ticks": 61920,
		  "time": 49.935384,
		  "velocity": 0.7480314960629921
		},
		{
		  "duration": 0.19354799999999983,
		  "durationTicks": 240,
		  "midi": 53,
		  "name": "F3",
		  "ticks": 62160,
		  "time": 50.128932,
		  "velocity": 0.7480314960629921
		},
		{
		  "duration": 0.19354799999999983,
		  "durationTicks": 240,
		  "midi": 46,
		  "name": "A#2",
		  "ticks": 62160,
		  "time": 50.128932,
		  "velocity": 0.7480314960629921
		},
		{
		  "duration": 0.19354799999999983,
		  "durationTicks": 240,
		  "midi": 53,
		  "name": "F3",
		  "ticks": 63360,
		  "time": 51.096672,
		  "velocity": 0.7480314960629921
		},
		{
		  "duration": 0.19354799999999983,
		  "durationTicks": 240,
		  "midi": 46,
		  "name": "A#2",
		  "ticks": 63360,
		  "time": 51.096672,
		  "velocity": 0.7480314960629921
		},
		{
		  "duration": 0.19354799999999983,
		  "durationTicks": 240,
		  "midi": 53,
		  "name": "F3",
		  "ticks": 63600,
		  "time": 51.29022,
		  "velocity": 0.7480314960629921
		},
		{
		  "duration": 0.19354799999999983,
		  "durationTicks": 240,
		  "midi": 46,
		  "name": "A#2",
		  "ticks": 63600,
		  "time": 51.29022,
		  "velocity": 0.7480314960629921
		},
		{
		  "duration": 0.19354799999999983,
		  "durationTicks": 240,
		  "midi": 53,
		  "name": "F3",
		  "ticks": 63840,
		  "time": 51.483768,
		  "velocity": 0.7480314960629921
		},
		{
		  "duration": 0.19354799999999983,
		  "durationTicks": 240,
		  "midi": 46,
		  "name": "A#2",
		  "ticks": 63840,
		  "time": 51.483768,
		  "velocity": 0.7480314960629921
		},
		{
		  "duration": 0.19354799999999983,
		  "durationTicks": 240,
		  "midi": 53,
		  "name": "F3",
		  "ticks": 64080,
		  "time": 51.677316,
		  "velocity": 0.7480314960629921
		},
		{
		  "duration": 0.19354799999999983,
		  "durationTicks": 240,
		  "midi": 46,
		  "name": "A#2",
		  "ticks": 64080,
		  "time": 51.677316,
		  "velocity": 0.7480314960629921
		},
		{
		  "duration": 0.19354799999999983,
		  "durationTicks": 240,
		  "midi": 53,
		  "name": "F3",
		  "ticks": 64320,
		  "time": 51.870864,
		  "velocity": 0.7480314960629921
		},
		{
		  "duration": 0.19354799999999983,
		  "durationTicks": 240,
		  "midi": 46,
		  "name": "A#2",
		  "ticks": 64320,
		  "time": 51.870864,
		  "velocity": 0.7480314960629921
		},
		{
		  "duration": 0.19354799999999983,
		  "durationTicks": 240,
		  "midi": 53,
		  "name": "F3",
		  "ticks": 64560,
		  "time": 52.064412,
		  "velocity": 0.7480314960629921
		},
		{
		  "duration": 0.19354799999999983,
		  "durationTicks": 240,
		  "midi": 46,
		  "name": "A#2",
		  "ticks": 64560,
		  "time": 52.064412,
		  "velocity": 0.7480314960629921
		},
		{
		  "duration": 0.19354799999999983,
		  "durationTicks": 240,
		  "midi": 53,
		  "name": "F3",
		  "ticks": 64800,
		  "time": 52.25796,
		  "velocity": 0.7480314960629921
		},
		{
		  "duration": 0.19354799999999983,
		  "durationTicks": 240,
		  "midi": 46,
		  "name": "A#2",
		  "ticks": 64800,
		  "time": 52.25796,
		  "velocity": 0.7480314960629921
		},
		{
		  "duration": 0.19354799999999983,
		  "durationTicks": 240,
		  "midi": 53,
		  "name": "F3",
		  "ticks": 65040,
		  "time": 52.451508,
		  "velocity": 0.7480314960629921
		},
		{
		  "duration": 0.19354799999999983,
		  "durationTicks": 240,
		  "midi": 46,
		  "name": "A#2",
		  "ticks": 65040,
		  "time": 52.451508,
		  "velocity": 0.7480314960629921
		},
		{
		  "duration": 0.19354799999999983,
		  "durationTicks": 240,
		  "midi": 53,
		  "name": "F3",
		  "ticks": 65280,
		  "time": 52.645056,
		  "velocity": 0.7480314960629921
		},
		{
		  "duration": 0.19354799999999983,
		  "durationTicks": 240,
		  "midi": 46,
		  "name": "A#2",
		  "ticks": 65280,
		  "time": 52.645056,
		  "velocity": 0.7480314960629921
		},
		{
		  "duration": 0.19354799999999983,
		  "durationTicks": 240,
		  "midi": 53,
		  "name": "F3",
		  "ticks": 65520,
		  "time": 52.838604,
		  "velocity": 0.7480314960629921
		},
		{
		  "duration": 0.19354799999999983,
		  "durationTicks": 240,
		  "midi": 46,
		  "name": "A#2",
		  "ticks": 65520,
		  "time": 52.838604,
		  "velocity": 0.7480314960629921
		},
		{
		  "duration": 0.19354799999999983,
		  "durationTicks": 240,
		  "midi": 53,
		  "name": "F3",
		  "ticks": 65760,
		  "time": 53.032151999999996,
		  "velocity": 0.7480314960629921
		},
		{
		  "duration": 0.19354799999999983,
		  "durationTicks": 240,
		  "midi": 46,
		  "name": "A#2",
		  "ticks": 65760,
		  "time": 53.032151999999996,
		  "velocity": 0.7480314960629921
		},
		{
		  "duration": 0.19354799999999983,
		  "durationTicks": 240,
		  "midi": 53,
		  "name": "F3",
		  "ticks": 66000,
		  "time": 53.225699999999996,
		  "velocity": 0.7480314960629921
		},
		{
		  "duration": 0.19354799999999983,
		  "durationTicks": 240,
		  "midi": 46,
		  "name": "A#2",
		  "ticks": 66000,
		  "time": 53.225699999999996,
		  "velocity": 0.7480314960629921
		},
		{
		  "duration": 0.19354799999999983,
		  "durationTicks": 240,
		  "midi": 53,
		  "name": "F3",
		  "ticks": 66240,
		  "time": 53.419247999999996,
		  "velocity": 0.7480314960629921
		},
		{
		  "duration": 0.19354799999999983,
		  "durationTicks": 240,
		  "midi": 46,
		  "name": "A#2",
		  "ticks": 66240,
		  "time": 53.419247999999996,
		  "velocity": 0.7480314960629921
		},
		{
		  "duration": 0.19354800000000694,
		  "durationTicks": 240,
		  "midi": 53,
		  "name": "F3",
		  "ticks": 66480,
		  "time": 53.612795999999996,
		  "velocity": 0.7480314960629921
		},
		{
		  "duration": 0.19354800000000694,
		  "durationTicks": 240,
		  "midi": 46,
		  "name": "A#2",
		  "ticks": 66480,
		  "time": 53.612795999999996,
		  "velocity": 0.7480314960629921
		},
		{
		  "duration": 0.19354799999999983,
		  "durationTicks": 240,
		  "midi": 53,
		  "name": "F3",
		  "ticks": 66720,
		  "time": 53.806344,
		  "velocity": 0.7480314960629921
		},
		{
		  "duration": 0.19354799999999983,
		  "durationTicks": 240,
		  "midi": 46,
		  "name": "A#2",
		  "ticks": 66720,
		  "time": 53.806344,
		  "velocity": 0.7480314960629921
		},
		{
		  "duration": 0.19354799999999983,
		  "durationTicks": 240,
		  "midi": 53,
		  "name": "F3",
		  "ticks": 66960,
		  "time": 53.999892,
		  "velocity": 0.7480314960629921
		},
		{
		  "duration": 0.19354799999999983,
		  "durationTicks": 240,
		  "midi": 46,
		  "name": "A#2",
		  "ticks": 66960,
		  "time": 53.999892,
		  "velocity": 0.7480314960629921
		},
		{
		  "duration": 0.19354799999999983,
		  "durationTicks": 240,
		  "midi": 51,
		  "name": "D#3",
		  "ticks": 67200,
		  "time": 54.19344,
		  "velocity": 0.7480314960629921
		},
		{
		  "duration": 0.19354799999999983,
		  "durationTicks": 240,
		  "midi": 44,
		  "name": "G#2",
		  "ticks": 67200,
		  "time": 54.19344,
		  "velocity": 0.7480314960629921
		},
		{
		  "duration": 0.19354799999999983,
		  "durationTicks": 240,
		  "midi": 51,
		  "name": "D#3",
		  "ticks": 67440,
		  "time": 54.386988,
		  "velocity": 0.7480314960629921
		},
		{
		  "duration": 0.19354799999999983,
		  "durationTicks": 240,
		  "midi": 44,
		  "name": "G#2",
		  "ticks": 67440,
		  "time": 54.386988,
		  "velocity": 0.7480314960629921
		},
		{
		  "duration": 0.19354799999999983,
		  "durationTicks": 240,
		  "midi": 51,
		  "name": "D#3",
		  "ticks": 67680,
		  "time": 54.580536,
		  "velocity": 0.7480314960629921
		},
		{
		  "duration": 0.19354799999999983,
		  "durationTicks": 240,
		  "midi": 44,
		  "name": "G#2",
		  "ticks": 67680,
		  "time": 54.580536,
		  "velocity": 0.7480314960629921
		},
		{
		  "duration": 0.19354799999999983,
		  "durationTicks": 240,
		  "midi": 51,
		  "name": "D#3",
		  "ticks": 67920,
		  "time": 54.774084,
		  "velocity": 0.7480314960629921
		},
		{
		  "duration": 0.19354799999999983,
		  "durationTicks": 240,
		  "midi": 44,
		  "name": "G#2",
		  "ticks": 67920,
		  "time": 54.774084,
		  "velocity": 0.7480314960629921
		},
		{
		  "duration": 0.19354799999999983,
		  "durationTicks": 240,
		  "midi": 51,
		  "name": "D#3",
		  "ticks": 68160,
		  "time": 54.967632,
		  "velocity": 0.7480314960629921
		},
		{
		  "duration": 0.19354799999999983,
		  "durationTicks": 240,
		  "midi": 44,
		  "name": "G#2",
		  "ticks": 68160,
		  "time": 54.967632,
		  "velocity": 0.7480314960629921
		},
		{
		  "duration": 0.19354799999999983,
		  "durationTicks": 240,
		  "midi": 51,
		  "name": "D#3",
		  "ticks": 68400,
		  "time": 55.16118,
		  "velocity": 0.7480314960629921
		},
		{
		  "duration": 0.19354799999999983,
		  "durationTicks": 240,
		  "midi": 44,
		  "name": "G#2",
		  "ticks": 68400,
		  "time": 55.16118,
		  "velocity": 0.7480314960629921
		},
		{
		  "duration": 0.19354799999999983,
		  "durationTicks": 240,
		  "midi": 51,
		  "name": "D#3",
		  "ticks": 68640,
		  "time": 55.354728,
		  "velocity": 0.7480314960629921
		},
		{
		  "duration": 0.19354799999999983,
		  "durationTicks": 240,
		  "midi": 44,
		  "name": "G#2",
		  "ticks": 68640,
		  "time": 55.354728,
		  "velocity": 0.7480314960629921
		},
		{
		  "duration": 0.19354799999999983,
		  "durationTicks": 240,
		  "midi": 51,
		  "name": "D#3",
		  "ticks": 68880,
		  "time": 55.548276,
		  "velocity": 0.7480314960629921
		},
		{
		  "duration": 0.19354799999999983,
		  "durationTicks": 240,
		  "midi": 44,
		  "name": "G#2",
		  "ticks": 68880,
		  "time": 55.548276,
		  "velocity": 0.7480314960629921
		},
		{
		  "duration": 0.19354799999999983,
		  "durationTicks": 240,
		  "midi": 53,
		  "name": "F3",
		  "ticks": 69120,
		  "time": 55.741824,
		  "velocity": 0.7480314960629921
		},
		{
		  "duration": 0.19354799999999983,
		  "durationTicks": 240,
		  "midi": 46,
		  "name": "A#2",
		  "ticks": 69120,
		  "time": 55.741824,
		  "velocity": 0.7480314960629921
		},
		{
		  "duration": 0.19354799999999983,
		  "durationTicks": 240,
		  "midi": 53,
		  "name": "F3",
		  "ticks": 69360,
		  "time": 55.935372,
		  "velocity": 0.7480314960629921
		},
		{
		  "duration": 0.19354799999999983,
		  "durationTicks": 240,
		  "midi": 46,
		  "name": "A#2",
		  "ticks": 69360,
		  "time": 55.935372,
		  "velocity": 0.7480314960629921
		},
		{
		  "duration": 0.19354799999999983,
		  "durationTicks": 240,
		  "midi": 53,
		  "name": "F3",
		  "ticks": 69600,
		  "time": 56.12892,
		  "velocity": 0.7480314960629921
		},
		{
		  "duration": 0.19354799999999983,
		  "durationTicks": 240,
		  "midi": 46,
		  "name": "A#2",
		  "ticks": 69600,
		  "time": 56.12892,
		  "velocity": 0.7480314960629921
		},
		{
		  "duration": 0.19354799999999983,
		  "durationTicks": 240,
		  "midi": 53,
		  "name": "F3",
		  "ticks": 69840,
		  "time": 56.322468,
		  "velocity": 0.7480314960629921
		},
		{
		  "duration": 0.19354799999999983,
		  "durationTicks": 240,
		  "midi": 46,
		  "name": "A#2",
		  "ticks": 69840,
		  "time": 56.322468,
		  "velocity": 0.7480314960629921
		},
		{
		  "duration": 0.19354799999999983,
		  "durationTicks": 240,
		  "midi": 53,
		  "name": "F3",
		  "ticks": 70080,
		  "time": 56.516016,
		  "velocity": 0.7480314960629921
		},
		{
		  "duration": 0.19354799999999983,
		  "durationTicks": 240,
		  "midi": 46,
		  "name": "A#2",
		  "ticks": 70080,
		  "time": 56.516016,
		  "velocity": 0.7480314960629921
		},
		{
		  "duration": 0.19354799999999983,
		  "durationTicks": 240,
		  "midi": 53,
		  "name": "F3",
		  "ticks": 70320,
		  "time": 56.709564,
		  "velocity": 0.7480314960629921
		},
		{
		  "duration": 0.19354799999999983,
		  "durationTicks": 240,
		  "midi": 46,
		  "name": "A#2",
		  "ticks": 70320,
		  "time": 56.709564,
		  "velocity": 0.7480314960629921
		},
		{
		  "duration": 0.19354799999999983,
		  "durationTicks": 240,
		  "midi": 53,
		  "name": "F3",
		  "ticks": 70560,
		  "time": 56.903112,
		  "velocity": 0.7480314960629921
		},
		{
		  "duration": 0.19354799999999983,
		  "durationTicks": 240,
		  "midi": 46,
		  "name": "A#2",
		  "ticks": 70560,
		  "time": 56.903112,
		  "velocity": 0.7480314960629921
		},
		{
		  "duration": 0.19354799999999983,
		  "durationTicks": 240,
		  "midi": 53,
		  "name": "F3",
		  "ticks": 70800,
		  "time": 57.09666,
		  "velocity": 0.7480314960629921
		},
		{
		  "duration": 0.19354799999999983,
		  "durationTicks": 240,
		  "midi": 46,
		  "name": "A#2",
		  "ticks": 70800,
		  "time": 57.09666,
		  "velocity": 0.7480314960629921
		},
		{
		  "duration": 0.19354799999999983,
		  "durationTicks": 240,
		  "midi": 51,
		  "name": "D#3",
		  "ticks": 71040,
		  "time": 57.290208,
		  "velocity": 0.7480314960629921
		},
		{
		  "duration": 0.19354799999999983,
		  "durationTicks": 240,
		  "midi": 44,
		  "name": "G#2",
		  "ticks": 71040,
		  "time": 57.290208,
		  "velocity": 0.7480314960629921
		},
		{
		  "duration": 0.19354799999999983,
		  "durationTicks": 240,
		  "midi": 51,
		  "name": "D#3",
		  "ticks": 71280,
		  "time": 57.483756,
		  "velocity": 0.7480314960629921
		},
		{
		  "duration": 0.19354799999999983,
		  "durationTicks": 240,
		  "midi": 44,
		  "name": "G#2",
		  "ticks": 71280,
		  "time": 57.483756,
		  "velocity": 0.7480314960629921
		},
		{
		  "duration": 0.19354799999999983,
		  "durationTicks": 240,
		  "midi": 51,
		  "name": "D#3",
		  "ticks": 71520,
		  "time": 57.677304,
		  "velocity": 0.7480314960629921
		},
		{
		  "duration": 0.19354799999999983,
		  "durationTicks": 240,
		  "midi": 44,
		  "name": "G#2",
		  "ticks": 71520,
		  "time": 57.677304,
		  "velocity": 0.7480314960629921
		},
		{
		  "duration": 0.19354799999999983,
		  "durationTicks": 240,
		  "midi": 51,
		  "name": "D#3",
		  "ticks": 71760,
		  "time": 57.870852,
		  "velocity": 0.7480314960629921
		},
		{
		  "duration": 0.19354799999999983,
		  "durationTicks": 240,
		  "midi": 44,
		  "name": "G#2",
		  "ticks": 71760,
		  "time": 57.870852,
		  "velocity": 0.7480314960629921
		},
		{
		  "duration": 0.19354799999999983,
		  "durationTicks": 240,
		  "midi": 51,
		  "name": "D#3",
		  "ticks": 72000,
		  "time": 58.0644,
		  "velocity": 0.7480314960629921
		},
		{
		  "duration": 0.19354799999999983,
		  "durationTicks": 240,
		  "midi": 44,
		  "name": "G#2",
		  "ticks": 72000,
		  "time": 58.0644,
		  "velocity": 0.7480314960629921
		},
		{
		  "duration": 0.19354799999999983,
		  "durationTicks": 240,
		  "midi": 51,
		  "name": "D#3",
		  "ticks": 72240,
		  "time": 58.257948,
		  "velocity": 0.7480314960629921
		},
		{
		  "duration": 0.19354799999999983,
		  "durationTicks": 240,
		  "midi": 44,
		  "name": "G#2",
		  "ticks": 72240,
		  "time": 58.257948,
		  "velocity": 0.7480314960629921
		},
		{
		  "duration": 0.19354799999999983,
		  "durationTicks": 240,
		  "midi": 51,
		  "name": "D#3",
		  "ticks": 72480,
		  "time": 58.451496,
		  "velocity": 0.7480314960629921
		},
		{
		  "duration": 0.19354799999999983,
		  "durationTicks": 240,
		  "midi": 44,
		  "name": "G#2",
		  "ticks": 72480,
		  "time": 58.451496,
		  "velocity": 0.7480314960629921
		},
		{
		  "duration": 0.19354799999999983,
		  "durationTicks": 240,
		  "midi": 51,
		  "name": "D#3",
		  "ticks": 72720,
		  "time": 58.645044,
		  "velocity": 0.7480314960629921
		},
		{
		  "duration": 0.19354799999999983,
		  "durationTicks": 240,
		  "midi": 44,
		  "name": "G#2",
		  "ticks": 72720,
		  "time": 58.645044,
		  "velocity": 0.7480314960629921
		},
		{
		  "duration": 0.19354799999999983,
		  "durationTicks": 240,
		  "midi": 49,
		  "name": "C#3",
		  "ticks": 72960,
		  "time": 58.838592,
		  "velocity": 0.7480314960629921
		},
		{
		  "duration": 0.19354799999999983,
		  "durationTicks": 240,
		  "midi": 42,
		  "name": "F#2",
		  "ticks": 72960,
		  "time": 58.838592,
		  "velocity": 0.7480314960629921
		},
		{
		  "duration": 0.19354799999999983,
		  "durationTicks": 240,
		  "midi": 49,
		  "name": "C#3",
		  "ticks": 73200,
		  "time": 59.03214,
		  "velocity": 0.7480314960629921
		},
		{
		  "duration": 0.19354799999999983,
		  "durationTicks": 240,
		  "midi": 42,
		  "name": "F#2",
		  "ticks": 73200,
		  "time": 59.03214,
		  "velocity": 0.7480314960629921
		},
		{
		  "duration": 0.19354799999999983,
		  "durationTicks": 240,
		  "midi": 49,
		  "name": "C#3",
		  "ticks": 73440,
		  "time": 59.225688,
		  "velocity": 0.7480314960629921
		},
		{
		  "duration": 0.19354799999999983,
		  "durationTicks": 240,
		  "midi": 42,
		  "name": "F#2",
		  "ticks": 73440,
		  "time": 59.225688,
		  "velocity": 0.7480314960629921
		},
		{
		  "duration": 0.19354799999999983,
		  "durationTicks": 240,
		  "midi": 49,
		  "name": "C#3",
		  "ticks": 73680,
		  "time": 59.419236,
		  "velocity": 0.7480314960629921
		},
		{
		  "duration": 0.19354799999999983,
		  "durationTicks": 240,
		  "midi": 42,
		  "name": "F#2",
		  "ticks": 73680,
		  "time": 59.419236,
		  "velocity": 0.7480314960629921
		},
		{
		  "duration": 0.19354799999999983,
		  "durationTicks": 240,
		  "midi": 49,
		  "name": "C#3",
		  "ticks": 73920,
		  "time": 59.612784,
		  "velocity": 0.7480314960629921
		},
		{
		  "duration": 0.19354799999999983,
		  "durationTicks": 240,
		  "midi": 42,
		  "name": "F#2",
		  "ticks": 73920,
		  "time": 59.612784,
		  "velocity": 0.7480314960629921
		},
		{
		  "duration": 0.19354799999999983,
		  "durationTicks": 240,
		  "midi": 49,
		  "name": "C#3",
		  "ticks": 74160,
		  "time": 59.806332,
		  "velocity": 0.7480314960629921
		},
		{
		  "duration": 0.19354799999999983,
		  "durationTicks": 240,
		  "midi": 42,
		  "name": "F#2",
		  "ticks": 74160,
		  "time": 59.806332,
		  "velocity": 0.7480314960629921
		},
		{
		  "duration": 0.19354799999999983,
		  "durationTicks": 240,
		  "midi": 49,
		  "name": "C#3",
		  "ticks": 74400,
		  "time": 59.99988,
		  "velocity": 0.7480314960629921
		},
		{
		  "duration": 0.19354799999999983,
		  "durationTicks": 240,
		  "midi": 42,
		  "name": "F#2",
		  "ticks": 74400,
		  "time": 59.99988,
		  "velocity": 0.7480314960629921
		},
		{
		  "duration": 0.19354799999999983,
		  "durationTicks": 240,
		  "midi": 49,
		  "name": "C#3",
		  "ticks": 74640,
		  "time": 60.193428,
		  "velocity": 0.7480314960629921
		},
		{
		  "duration": 0.19354799999999983,
		  "durationTicks": 240,
		  "midi": 42,
		  "name": "F#2",
		  "ticks": 74640,
		  "time": 60.193428,
		  "velocity": 0.7480314960629921
		},
		{
		  "duration": 0.19354799999999983,
		  "durationTicks": 240,
		  "midi": 48,
		  "name": "C3",
		  "ticks": 74880,
		  "time": 60.386976,
		  "velocity": 0.7480314960629921
		},
		{
		  "duration": 0.19354799999999983,
		  "durationTicks": 240,
		  "midi": 41,
		  "name": "F2",
		  "ticks": 74880,
		  "time": 60.386976,
		  "velocity": 0.7480314960629921
		},
		{
		  "duration": 0.19354799999999983,
		  "durationTicks": 240,
		  "midi": 48,
		  "name": "C3",
		  "ticks": 75120,
		  "time": 60.580524,
		  "velocity": 0.7480314960629921
		},
		{
		  "duration": 0.19354799999999983,
		  "durationTicks": 240,
		  "midi": 41,
		  "name": "F2",
		  "ticks": 75120,
		  "time": 60.580524,
		  "velocity": 0.7480314960629921
		},
		{
		  "duration": 0.19354799999999983,
		  "durationTicks": 240,
		  "midi": 48,
		  "name": "C3",
		  "ticks": 75360,
		  "time": 60.774072,
		  "velocity": 0.7480314960629921
		},
		{
		  "duration": 0.19354799999999983,
		  "durationTicks": 240,
		  "midi": 41,
		  "name": "F2",
		  "ticks": 75360,
		  "time": 60.774072,
		  "velocity": 0.7480314960629921
		},
		{
		  "duration": 0.19354799999999983,
		  "durationTicks": 240,
		  "midi": 48,
		  "name": "C3",
		  "ticks": 75600,
		  "time": 60.96762,
		  "velocity": 0.7480314960629921
		},
		{
		  "duration": 0.19354799999999983,
		  "durationTicks": 240,
		  "midi": 41,
		  "name": "F2",
		  "ticks": 75600,
		  "time": 60.96762,
		  "velocity": 0.7480314960629921
		},
		{
		  "duration": 0.19354799999999983,
		  "durationTicks": 240,
		  "midi": 48,
		  "name": "C3",
		  "ticks": 75840,
		  "time": 61.161167999999996,
		  "velocity": 0.7480314960629921
		},
		{
		  "duration": 0.19354799999999983,
		  "durationTicks": 240,
		  "midi": 41,
		  "name": "F2",
		  "ticks": 75840,
		  "time": 61.161167999999996,
		  "velocity": 0.7480314960629921
		},
		{
		  "duration": 0.19354799999999983,
		  "durationTicks": 240,
		  "midi": 48,
		  "name": "C3",
		  "ticks": 76080,
		  "time": 61.354715999999996,
		  "velocity": 0.7480314960629921
		},
		{
		  "duration": 0.19354799999999983,
		  "durationTicks": 240,
		  "midi": 41,
		  "name": "F2",
		  "ticks": 76080,
		  "time": 61.354715999999996,
		  "velocity": 0.7480314960629921
		},
		{
		  "duration": 0.19354799999999983,
		  "durationTicks": 240,
		  "midi": 48,
		  "name": "C3",
		  "ticks": 76320,
		  "time": 61.548263999999996,
		  "velocity": 0.7480314960629921
		},
		{
		  "duration": 0.19354799999999983,
		  "durationTicks": 240,
		  "midi": 41,
		  "name": "F2",
		  "ticks": 76320,
		  "time": 61.548263999999996,
		  "velocity": 0.7480314960629921
		},
		{
		  "duration": 0.19354800000000694,
		  "durationTicks": 240,
		  "midi": 48,
		  "name": "C3",
		  "ticks": 76560,
		  "time": 61.741811999999996,
		  "velocity": 0.7480314960629921
		},
		{
		  "duration": 0.19354800000000694,
		  "durationTicks": 240,
		  "midi": 41,
		  "name": "F2",
		  "ticks": 76560,
		  "time": 61.741811999999996,
		  "velocity": 0.7480314960629921
		},
		{
		  "duration": 0.19354799999999983,
		  "durationTicks": 240,
		  "midi": 53,
		  "name": "F3",
		  "ticks": 76800,
		  "time": 61.93536,
		  "velocity": 0.7480314960629921
		},
		{
		  "duration": 0.19354799999999983,
		  "durationTicks": 240,
		  "midi": 46,
		  "name": "A#2",
		  "ticks": 76800,
		  "time": 61.93536,
		  "velocity": 0.7480314960629921
		},
		{
		  "duration": 0.19354799999999983,
		  "durationTicks": 240,
		  "midi": 53,
		  "name": "F3",
		  "ticks": 77040,
		  "time": 62.128908,
		  "velocity": 0.7480314960629921
		},
		{
		  "duration": 0.19354799999999983,
		  "durationTicks": 240,
		  "midi": 46,
		  "name": "A#2",
		  "ticks": 77040,
		  "time": 62.128908,
		  "velocity": 0.7480314960629921
		},
		{
		  "duration": 0.19354799999999983,
		  "durationTicks": 240,
		  "midi": 53,
		  "name": "F3",
		  "ticks": 77280,
		  "time": 62.322456,
		  "velocity": 0.7480314960629921
		},
		{
		  "duration": 0.19354799999999983,
		  "durationTicks": 240,
		  "midi": 46,
		  "name": "A#2",
		  "ticks": 77280,
		  "time": 62.322456,
		  "velocity": 0.7480314960629921
		},
		{
		  "duration": 0.19354799999999983,
		  "durationTicks": 240,
		  "midi": 53,
		  "name": "F3",
		  "ticks": 77520,
		  "time": 62.516004,
		  "velocity": 0.7480314960629921
		},
		{
		  "duration": 0.19354799999999983,
		  "durationTicks": 240,
		  "midi": 46,
		  "name": "A#2",
		  "ticks": 77520,
		  "time": 62.516004,
		  "velocity": 0.7480314960629921
		},
		{
		  "duration": 0.19354799999999983,
		  "durationTicks": 240,
		  "midi": 53,
		  "name": "F3",
		  "ticks": 77760,
		  "time": 62.709552,
		  "velocity": 0.7480314960629921
		},
		{
		  "duration": 0.19354799999999983,
		  "durationTicks": 240,
		  "midi": 46,
		  "name": "A#2",
		  "ticks": 77760,
		  "time": 62.709552,
		  "velocity": 0.7480314960629921
		},
		{
		  "duration": 0.19354799999999983,
		  "durationTicks": 240,
		  "midi": 51,
		  "name": "D#3",
		  "ticks": 78000,
		  "time": 62.9031,
		  "velocity": 0.7480314960629921
		},
		{
		  "duration": 0.19354799999999983,
		  "durationTicks": 240,
		  "midi": 44,
		  "name": "G#2",
		  "ticks": 78000,
		  "time": 62.9031,
		  "velocity": 0.7480314960629921
		},
		{
		  "duration": 0.19354799999999983,
		  "durationTicks": 240,
		  "midi": 51,
		  "name": "D#3",
		  "ticks": 78240,
		  "time": 63.096648,
		  "velocity": 0.7480314960629921
		},
		{
		  "duration": 0.19354799999999983,
		  "durationTicks": 240,
		  "midi": 44,
		  "name": "G#2",
		  "ticks": 78240,
		  "time": 63.096648,
		  "velocity": 0.7480314960629921
		},
		{
		  "duration": 0.19354799999999983,
		  "durationTicks": 240,
		  "midi": 51,
		  "name": "D#3",
		  "ticks": 78480,
		  "time": 63.290196,
		  "velocity": 0.7480314960629921
		},
		{
		  "duration": 0.19354799999999983,
		  "durationTicks": 240,
		  "midi": 44,
		  "name": "G#2",
		  "ticks": 78480,
		  "time": 63.290196,
		  "velocity": 0.7480314960629921
		},
		{
		  "duration": 0.19354799999999983,
		  "durationTicks": 240,
		  "midi": 53,
		  "name": "F3",
		  "ticks": 78720,
		  "time": 63.483744,
		  "velocity": 0.7480314960629921
		},
		{
		  "duration": 0.19354799999999983,
		  "durationTicks": 240,
		  "midi": 46,
		  "name": "A#2",
		  "ticks": 78720,
		  "time": 63.483744,
		  "velocity": 0.7480314960629921
		},
		{
		  "duration": 0.19354799999999983,
		  "durationTicks": 240,
		  "midi": 53,
		  "name": "F3",
		  "ticks": 78960,
		  "time": 63.677292,
		  "velocity": 0.7480314960629921
		},
		{
		  "duration": 0.19354799999999983,
		  "durationTicks": 240,
		  "midi": 46,
		  "name": "A#2",
		  "ticks": 78960,
		  "time": 63.677292,
		  "velocity": 0.7480314960629921
		},
		{
		  "duration": 0.19354799999999273,
		  "durationTicks": 240,
		  "midi": 53,
		  "name": "F3",
		  "ticks": 79200,
		  "time": 63.87084,
		  "velocity": 0.7480314960629921
		},
		{
		  "duration": 0.19354799999999273,
		  "durationTicks": 240,
		  "midi": 46,
		  "name": "A#2",
		  "ticks": 79200,
		  "time": 63.87084,
		  "velocity": 0.7480314960629921
		},
		{
		  "duration": 0.19354800000000694,
		  "durationTicks": 240,
		  "midi": 53,
		  "name": "F3",
		  "ticks": 79440,
		  "time": 64.064388,
		  "velocity": 0.7480314960629921
		},
		{
		  "duration": 0.19354800000000694,
		  "durationTicks": 240,
		  "midi": 46,
		  "name": "A#2",
		  "ticks": 79440,
		  "time": 64.064388,
		  "velocity": 0.7480314960629921
		},
		{
		  "duration": 0.19354799999999273,
		  "durationTicks": 240,
		  "midi": 53,
		  "name": "F3",
		  "ticks": 79680,
		  "time": 64.257936,
		  "velocity": 0.7480314960629921
		},
		{
		  "duration": 0.19354799999999273,
		  "durationTicks": 240,
		  "midi": 46,
		  "name": "A#2",
		  "ticks": 79680,
		  "time": 64.257936,
		  "velocity": 0.7480314960629921
		},
		{
		  "duration": 0.19354800000000694,
		  "durationTicks": 240,
		  "midi": 53,
		  "name": "F3",
		  "ticks": 79920,
		  "time": 64.451484,
		  "velocity": 0.7480314960629921
		},
		{
		  "duration": 0.19354800000000694,
		  "durationTicks": 240,
		  "midi": 46,
		  "name": "A#2",
		  "ticks": 79920,
		  "time": 64.451484,
		  "velocity": 0.7480314960629921
		},
		{
		  "duration": 0.19354799999999273,
		  "durationTicks": 240,
		  "midi": 53,
		  "name": "F3",
		  "ticks": 80160,
		  "time": 64.645032,
		  "velocity": 0.7480314960629921
		},
		{
		  "duration": 0.19354799999999273,
		  "durationTicks": 240,
		  "midi": 46,
		  "name": "A#2",
		  "ticks": 80160,
		  "time": 64.645032,
		  "velocity": 0.7480314960629921
		},
		{
		  "duration": 0.19354800000000694,
		  "durationTicks": 240,
		  "midi": 53,
		  "name": "F3",
		  "ticks": 80400,
		  "time": 64.83858,
		  "velocity": 0.7480314960629921
		},
		{
		  "duration": 0.19354800000000694,
		  "durationTicks": 240,
		  "midi": 46,
		  "name": "A#2",
		  "ticks": 80400,
		  "time": 64.83858,
		  "velocity": 0.7480314960629921
		},
		{
		  "duration": 0.19354799999999273,
		  "durationTicks": 240,
		  "midi": 53,
		  "name": "F3",
		  "ticks": 80640,
		  "time": 65.032128,
		  "velocity": 0.7480314960629921
		},
		{
		  "duration": 0.19354799999999273,
		  "durationTicks": 240,
		  "midi": 46,
		  "name": "A#2",
		  "ticks": 80640,
		  "time": 65.032128,
		  "velocity": 0.7480314960629921
		},
		{
		  "duration": 0.19354800000000694,
		  "durationTicks": 240,
		  "midi": 53,
		  "name": "F3",
		  "ticks": 80880,
		  "time": 65.22567599999999,
		  "velocity": 0.7480314960629921
		},
		{
		  "duration": 0.19354800000000694,
		  "durationTicks": 240,
		  "midi": 46,
		  "name": "A#2",
		  "ticks": 80880,
		  "time": 65.22567599999999,
		  "velocity": 0.7480314960629921
		},
		{
		  "duration": 0.19354799999999273,
		  "durationTicks": 240,
		  "midi": 53,
		  "name": "F3",
		  "ticks": 81120,
		  "time": 65.419224,
		  "velocity": 0.7480314960629921
		},
		{
		  "duration": 0.19354799999999273,
		  "durationTicks": 240,
		  "midi": 46,
		  "name": "A#2",
		  "ticks": 81120,
		  "time": 65.419224,
		  "velocity": 0.7480314960629921
		},
		{
		  "duration": 0.19354800000000694,
		  "durationTicks": 240,
		  "midi": 53,
		  "name": "F3",
		  "ticks": 81360,
		  "time": 65.61277199999999,
		  "velocity": 0.7480314960629921
		},
		{
		  "duration": 0.19354800000000694,
		  "durationTicks": 240,
		  "midi": 46,
		  "name": "A#2",
		  "ticks": 81360,
		  "time": 65.61277199999999,
		  "velocity": 0.7480314960629921
		},
		{
		  "duration": 0.19354799999999273,
		  "durationTicks": 240,
		  "midi": 53,
		  "name": "F3",
		  "ticks": 81600,
		  "time": 65.80632,
		  "velocity": 0.7480314960629921
		},
		{
		  "duration": 0.19354799999999273,
		  "durationTicks": 240,
		  "midi": 46,
		  "name": "A#2",
		  "ticks": 81600,
		  "time": 65.80632,
		  "velocity": 0.7480314960629921
		},
		{
		  "duration": 0.19354800000000694,
		  "durationTicks": 240,
		  "midi": 53,
		  "name": "F3",
		  "ticks": 81840,
		  "time": 65.99986799999999,
		  "velocity": 0.7480314960629921
		},
		{
		  "duration": 0.19354800000000694,
		  "durationTicks": 240,
		  "midi": 46,
		  "name": "A#2",
		  "ticks": 81840,
		  "time": 65.99986799999999,
		  "velocity": 0.7480314960629921
		},
		{
		  "duration": 0.19354800000000694,
		  "durationTicks": 240,
		  "midi": 53,
		  "name": "F3",
		  "ticks": 82080,
		  "time": 66.193416,
		  "velocity": 0.7480314960629921
		},
		{
		  "duration": 0.19354800000000694,
		  "durationTicks": 240,
		  "midi": 46,
		  "name": "A#2",
		  "ticks": 82080,
		  "time": 66.193416,
		  "velocity": 0.7480314960629921
		},
		{
		  "duration": 0.19354799999999273,
		  "durationTicks": 240,
		  "midi": 53,
		  "name": "F3",
		  "ticks": 82320,
		  "time": 66.386964,
		  "velocity": 0.7480314960629921
		},
		{
		  "duration": 0.19354799999999273,
		  "durationTicks": 240,
		  "midi": 46,
		  "name": "A#2",
		  "ticks": 82320,
		  "time": 66.386964,
		  "velocity": 0.7480314960629921
		},
		{
		  "duration": 0.19354800000000694,
		  "durationTicks": 240,
		  "midi": 51,
		  "name": "D#3",
		  "ticks": 82560,
		  "time": 66.580512,
		  "velocity": 0.7480314960629921
		},
		{
		  "duration": 0.19354800000000694,
		  "durationTicks": 240,
		  "midi": 44,
		  "name": "G#2",
		  "ticks": 82560,
		  "time": 66.580512,
		  "velocity": 0.7480314960629921
		},
		{
		  "duration": 0.19354799999999273,
		  "durationTicks": 240,
		  "midi": 51,
		  "name": "D#3",
		  "ticks": 82800,
		  "time": 66.77406,
		  "velocity": 0.7480314960629921
		},
		{
		  "duration": 0.19354799999999273,
		  "durationTicks": 240,
		  "midi": 44,
		  "name": "G#2",
		  "ticks": 82800,
		  "time": 66.77406,
		  "velocity": 0.7480314960629921
		},
		{
		  "duration": 0.19354800000000694,
		  "durationTicks": 240,
		  "midi": 51,
		  "name": "D#3",
		  "ticks": 83040,
		  "time": 66.967608,
		  "velocity": 0.7480314960629921
		},
		{
		  "duration": 0.19354800000000694,
		  "durationTicks": 240,
		  "midi": 44,
		  "name": "G#2",
		  "ticks": 83040,
		  "time": 66.967608,
		  "velocity": 0.7480314960629921
		},
		{
		  "duration": 0.19354799999999273,
		  "durationTicks": 240,
		  "midi": 51,
		  "name": "D#3",
		  "ticks": 83280,
		  "time": 67.161156,
		  "velocity": 0.7480314960629921
		},
		{
		  "duration": 0.19354799999999273,
		  "durationTicks": 240,
		  "midi": 44,
		  "name": "G#2",
		  "ticks": 83280,
		  "time": 67.161156,
		  "velocity": 0.7480314960629921
		},
		{
		  "duration": 0.19354800000000694,
		  "durationTicks": 240,
		  "midi": 51,
		  "name": "D#3",
		  "ticks": 83520,
		  "time": 67.354704,
		  "velocity": 0.7480314960629921
		},
		{
		  "duration": 0.19354800000000694,
		  "durationTicks": 240,
		  "midi": 44,
		  "name": "G#2",
		  "ticks": 83520,
		  "time": 67.354704,
		  "velocity": 0.7480314960629921
		},
		{
		  "duration": 0.19354799999999273,
		  "durationTicks": 240,
		  "midi": 51,
		  "name": "D#3",
		  "ticks": 83760,
		  "time": 67.548252,
		  "velocity": 0.7480314960629921
		},
		{
		  "duration": 0.19354799999999273,
		  "durationTicks": 240,
		  "midi": 44,
		  "name": "G#2",
		  "ticks": 83760,
		  "time": 67.548252,
		  "velocity": 0.7480314960629921
		},
		{
		  "duration": 0.19354800000000694,
		  "durationTicks": 240,
		  "midi": 51,
		  "name": "D#3",
		  "ticks": 84000,
		  "time": 67.7418,
		  "velocity": 0.7480314960629921
		},
		{
		  "duration": 0.19354800000000694,
		  "durationTicks": 240,
		  "midi": 44,
		  "name": "G#2",
		  "ticks": 84000,
		  "time": 67.7418,
		  "velocity": 0.7480314960629921
		},
		{
		  "duration": 0.19354799999999273,
		  "durationTicks": 240,
		  "midi": 51,
		  "name": "D#3",
		  "ticks": 84240,
		  "time": 67.935348,
		  "velocity": 0.7480314960629921
		},
		{
		  "duration": 0.19354799999999273,
		  "durationTicks": 240,
		  "midi": 44,
		  "name": "G#2",
		  "ticks": 84240,
		  "time": 67.935348,
		  "velocity": 0.7480314960629921
		},
		{
		  "duration": 0.19354800000000694,
		  "durationTicks": 240,
		  "midi": 53,
		  "name": "F3",
		  "ticks": 84480,
		  "time": 68.128896,
		  "velocity": 0.7480314960629921
		},
		{
		  "duration": 0.19354800000000694,
		  "durationTicks": 240,
		  "midi": 46,
		  "name": "A#2",
		  "ticks": 84480,
		  "time": 68.128896,
		  "velocity": 0.7480314960629921
		},
		{
		  "duration": 0.19354799999999273,
		  "durationTicks": 240,
		  "midi": 53,
		  "name": "F3",
		  "ticks": 84720,
		  "time": 68.322444,
		  "velocity": 0.7480314960629921
		},
		{
		  "duration": 0.19354799999999273,
		  "durationTicks": 240,
		  "midi": 46,
		  "name": "A#2",
		  "ticks": 84720,
		  "time": 68.322444,
		  "velocity": 0.7480314960629921
		},
		{
		  "duration": 0.19354800000000694,
		  "durationTicks": 240,
		  "midi": 53,
		  "name": "F3",
		  "ticks": 84960,
		  "time": 68.515992,
		  "velocity": 0.7480314960629921
		},
		{
		  "duration": 0.19354800000000694,
		  "durationTicks": 240,
		  "midi": 46,
		  "name": "A#2",
		  "ticks": 84960,
		  "time": 68.515992,
		  "velocity": 0.7480314960629921
		},
		{
		  "duration": 0.19354799999999273,
		  "durationTicks": 240,
		  "midi": 53,
		  "name": "F3",
		  "ticks": 85200,
		  "time": 68.70954,
		  "velocity": 0.7480314960629921
		},
		{
		  "duration": 0.19354799999999273,
		  "durationTicks": 240,
		  "midi": 46,
		  "name": "A#2",
		  "ticks": 85200,
		  "time": 68.70954,
		  "velocity": 0.7480314960629921
		},
		{
		  "duration": 0.19354800000000694,
		  "durationTicks": 240,
		  "midi": 53,
		  "name": "F3",
		  "ticks": 85440,
		  "time": 68.903088,
		  "velocity": 0.7480314960629921
		},
		{
		  "duration": 0.19354800000000694,
		  "durationTicks": 240,
		  "midi": 46,
		  "name": "A#2",
		  "ticks": 85440,
		  "time": 68.903088,
		  "velocity": 0.7480314960629921
		},
		{
		  "duration": 0.19354799999999273,
		  "durationTicks": 240,
		  "midi": 53,
		  "name": "F3",
		  "ticks": 85680,
		  "time": 69.096636,
		  "velocity": 0.7480314960629921
		},
		{
		  "duration": 0.19354799999999273,
		  "durationTicks": 240,
		  "midi": 46,
		  "name": "A#2",
		  "ticks": 85680,
		  "time": 69.096636,
		  "velocity": 0.7480314960629921
		},
		{
		  "duration": 0.19354800000000694,
		  "durationTicks": 240,
		  "midi": 53,
		  "name": "F3",
		  "ticks": 85920,
		  "time": 69.290184,
		  "velocity": 0.7480314960629921
		},
		{
		  "duration": 0.19354800000000694,
		  "durationTicks": 240,
		  "midi": 46,
		  "name": "A#2",
		  "ticks": 85920,
		  "time": 69.290184,
		  "velocity": 0.7480314960629921
		},
		{
		  "duration": 0.19354799999999273,
		  "durationTicks": 240,
		  "midi": 53,
		  "name": "F3",
		  "ticks": 86160,
		  "time": 69.483732,
		  "velocity": 0.7480314960629921
		},
		{
		  "duration": 0.19354799999999273,
		  "durationTicks": 240,
		  "midi": 46,
		  "name": "A#2",
		  "ticks": 86160,
		  "time": 69.483732,
		  "velocity": 0.7480314960629921
		},
		{
		  "duration": 0.19354800000000694,
		  "durationTicks": 240,
		  "midi": 51,
		  "name": "D#3",
		  "ticks": 86400,
		  "time": 69.67728,
		  "velocity": 0.7480314960629921
		},
		{
		  "duration": 0.19354800000000694,
		  "durationTicks": 240,
		  "midi": 44,
		  "name": "G#2",
		  "ticks": 86400,
		  "time": 69.67728,
		  "velocity": 0.7480314960629921
		},
		{
		  "duration": 0.19354799999999273,
		  "durationTicks": 240,
		  "midi": 51,
		  "name": "D#3",
		  "ticks": 86640,
		  "time": 69.870828,
		  "velocity": 0.7480314960629921
		},
		{
		  "duration": 0.19354799999999273,
		  "durationTicks": 240,
		  "midi": 44,
		  "name": "G#2",
		  "ticks": 86640,
		  "time": 69.870828,
		  "velocity": 0.7480314960629921
		},
		{
		  "duration": 0.19354800000000694,
		  "durationTicks": 240,
		  "midi": 51,
		  "name": "D#3",
		  "ticks": 86880,
		  "time": 70.064376,
		  "velocity": 0.7480314960629921
		},
		{
		  "duration": 0.19354800000000694,
		  "durationTicks": 240,
		  "midi": 44,
		  "name": "G#2",
		  "ticks": 86880,
		  "time": 70.064376,
		  "velocity": 0.7480314960629921
		},
		{
		  "duration": 0.19354799999999273,
		  "durationTicks": 240,
		  "midi": 51,
		  "name": "D#3",
		  "ticks": 87120,
		  "time": 70.257924,
		  "velocity": 0.7480314960629921
		},
		{
		  "duration": 0.19354799999999273,
		  "durationTicks": 240,
		  "midi": 44,
		  "name": "G#2",
		  "ticks": 87120,
		  "time": 70.257924,
		  "velocity": 0.7480314960629921
		},
		{
		  "duration": 0.19354800000000694,
		  "durationTicks": 240,
		  "midi": 51,
		  "name": "D#3",
		  "ticks": 87360,
		  "time": 70.451472,
		  "velocity": 0.7480314960629921
		},
		{
		  "duration": 0.19354800000000694,
		  "durationTicks": 240,
		  "midi": 44,
		  "name": "G#2",
		  "ticks": 87360,
		  "time": 70.451472,
		  "velocity": 0.7480314960629921
		},
		{
		  "duration": 0.19354799999999273,
		  "durationTicks": 240,
		  "midi": 51,
		  "name": "D#3",
		  "ticks": 87600,
		  "time": 70.64502,
		  "velocity": 0.7480314960629921
		},
		{
		  "duration": 0.19354799999999273,
		  "durationTicks": 240,
		  "midi": 44,
		  "name": "G#2",
		  "ticks": 87600,
		  "time": 70.64502,
		  "velocity": 0.7480314960629921
		},
		{
		  "duration": 0.19354800000000694,
		  "durationTicks": 240,
		  "midi": 51,
		  "name": "D#3",
		  "ticks": 87840,
		  "time": 70.838568,
		  "velocity": 0.7480314960629921
		},
		{
		  "duration": 0.19354800000000694,
		  "durationTicks": 240,
		  "midi": 44,
		  "name": "G#2",
		  "ticks": 87840,
		  "time": 70.838568,
		  "velocity": 0.7480314960629921
		},
		{
		  "duration": 0.19354799999999273,
		  "durationTicks": 240,
		  "midi": 51,
		  "name": "D#3",
		  "ticks": 88080,
		  "time": 71.032116,
		  "velocity": 0.7480314960629921
		},
		{
		  "duration": 0.19354799999999273,
		  "durationTicks": 240,
		  "midi": 44,
		  "name": "G#2",
		  "ticks": 88080,
		  "time": 71.032116,
		  "velocity": 0.7480314960629921
		},
		{
		  "duration": 0.19354800000000694,
		  "durationTicks": 240,
		  "midi": 49,
		  "name": "C#3",
		  "ticks": 88320,
		  "time": 71.225664,
		  "velocity": 0.7480314960629921
		},
		{
		  "duration": 0.19354800000000694,
		  "durationTicks": 240,
		  "midi": 42,
		  "name": "F#2",
		  "ticks": 88320,
		  "time": 71.225664,
		  "velocity": 0.7480314960629921
		},
		{
		  "duration": 0.19354799999999273,
		  "durationTicks": 240,
		  "midi": 49,
		  "name": "C#3",
		  "ticks": 88560,
		  "time": 71.419212,
		  "velocity": 0.7480314960629921
		},
		{
		  "duration": 0.19354799999999273,
		  "durationTicks": 240,
		  "midi": 42,
		  "name": "F#2",
		  "ticks": 88560,
		  "time": 71.419212,
		  "velocity": 0.7480314960629921
		},
		{
		  "duration": 0.19354800000000694,
		  "durationTicks": 240,
		  "midi": 49,
		  "name": "C#3",
		  "ticks": 88800,
		  "time": 71.61276,
		  "velocity": 0.7480314960629921
		},
		{
		  "duration": 0.19354800000000694,
		  "durationTicks": 240,
		  "midi": 42,
		  "name": "F#2",
		  "ticks": 88800,
		  "time": 71.61276,
		  "velocity": 0.7480314960629921
		},
		{
		  "duration": 0.19354799999999273,
		  "durationTicks": 240,
		  "midi": 49,
		  "name": "C#3",
		  "ticks": 89040,
		  "time": 71.806308,
		  "velocity": 0.7480314960629921
		},
		{
		  "duration": 0.19354799999999273,
		  "durationTicks": 240,
		  "midi": 42,
		  "name": "F#2",
		  "ticks": 89040,
		  "time": 71.806308,
		  "velocity": 0.7480314960629921
		},
		{
		  "duration": 0.19354800000000694,
		  "durationTicks": 240,
		  "midi": 49,
		  "name": "C#3",
		  "ticks": 89280,
		  "time": 71.999856,
		  "velocity": 0.7480314960629921
		},
		{
		  "duration": 0.19354800000000694,
		  "durationTicks": 240,
		  "midi": 42,
		  "name": "F#2",
		  "ticks": 89280,
		  "time": 71.999856,
		  "velocity": 0.7480314960629921
		},
		{
		  "duration": 0.19354799999999273,
		  "durationTicks": 240,
		  "midi": 49,
		  "name": "C#3",
		  "ticks": 89520,
		  "time": 72.193404,
		  "velocity": 0.7480314960629921
		},
		{
		  "duration": 0.19354799999999273,
		  "durationTicks": 240,
		  "midi": 42,
		  "name": "F#2",
		  "ticks": 89520,
		  "time": 72.193404,
		  "velocity": 0.7480314960629921
		},
		{
		  "duration": 0.19354800000000694,
		  "durationTicks": 240,
		  "midi": 49,
		  "name": "C#3",
		  "ticks": 89760,
		  "time": 72.386952,
		  "velocity": 0.7480314960629921
		},
		{
		  "duration": 0.19354800000000694,
		  "durationTicks": 240,
		  "midi": 42,
		  "name": "F#2",
		  "ticks": 89760,
		  "time": 72.386952,
		  "velocity": 0.7480314960629921
		},
		{
		  "duration": 0.19354799999999273,
		  "durationTicks": 240,
		  "midi": 49,
		  "name": "C#3",
		  "ticks": 90000,
		  "time": 72.5805,
		  "velocity": 0.7480314960629921
		},
		{
		  "duration": 0.19354799999999273,
		  "durationTicks": 240,
		  "midi": 42,
		  "name": "F#2",
		  "ticks": 90000,
		  "time": 72.5805,
		  "velocity": 0.7480314960629921
		},
		{
		  "duration": 0.19354800000000694,
		  "durationTicks": 240,
		  "midi": 48,
		  "name": "C3",
		  "ticks": 90240,
		  "time": 72.774048,
		  "velocity": 0.7480314960629921
		},
		{
		  "duration": 0.19354800000000694,
		  "durationTicks": 240,
		  "midi": 41,
		  "name": "F2",
		  "ticks": 90240,
		  "time": 72.774048,
		  "velocity": 0.7480314960629921
		},
		{
		  "duration": 0.19354799999999273,
		  "durationTicks": 240,
		  "midi": 48,
		  "name": "C3",
		  "ticks": 90480,
		  "time": 72.967596,
		  "velocity": 0.7480314960629921
		},
		{
		  "duration": 0.19354799999999273,
		  "durationTicks": 240,
		  "midi": 41,
		  "name": "F2",
		  "ticks": 90480,
		  "time": 72.967596,
		  "velocity": 0.7480314960629921
		},
		{
		  "duration": 0.19354800000000694,
		  "durationTicks": 240,
		  "midi": 48,
		  "name": "C3",
		  "ticks": 90720,
		  "time": 73.161144,
		  "velocity": 0.7480314960629921
		},
		{
		  "duration": 0.19354800000000694,
		  "durationTicks": 240,
		  "midi": 41,
		  "name": "F2",
		  "ticks": 90720,
		  "time": 73.161144,
		  "velocity": 0.7480314960629921
		},
		{
		  "duration": 0.19354799999999273,
		  "durationTicks": 240,
		  "midi": 48,
		  "name": "C3",
		  "ticks": 90960,
		  "time": 73.354692,
		  "velocity": 0.7480314960629921
		},
		{
		  "duration": 0.19354799999999273,
		  "durationTicks": 240,
		  "midi": 41,
		  "name": "F2",
		  "ticks": 90960,
		  "time": 73.354692,
		  "velocity": 0.7480314960629921
		},
		{
		  "duration": 0.19354800000000694,
		  "durationTicks": 240,
		  "midi": 48,
		  "name": "C3",
		  "ticks": 91200,
		  "time": 73.54823999999999,
		  "velocity": 0.7480314960629921
		},
		{
		  "duration": 0.19354800000000694,
		  "durationTicks": 240,
		  "midi": 41,
		  "name": "F2",
		  "ticks": 91200,
		  "time": 73.54823999999999,
		  "velocity": 0.7480314960629921
		},
		{
		  "duration": 0.19354799999999273,
		  "durationTicks": 240,
		  "midi": 48,
		  "name": "C3",
		  "ticks": 91440,
		  "time": 73.741788,
		  "velocity": 0.7480314960629921
		},
		{
		  "duration": 0.19354799999999273,
		  "durationTicks": 240,
		  "midi": 41,
		  "name": "F2",
		  "ticks": 91440,
		  "time": 73.741788,
		  "velocity": 0.7480314960629921
		},
		{
		  "duration": 0.19354800000000694,
		  "durationTicks": 240,
		  "midi": 48,
		  "name": "C3",
		  "ticks": 91680,
		  "time": 73.93533599999999,
		  "velocity": 0.7480314960629921
		},
		{
		  "duration": 0.19354800000000694,
		  "durationTicks": 240,
		  "midi": 41,
		  "name": "F2",
		  "ticks": 91680,
		  "time": 73.93533599999999,
		  "velocity": 0.7480314960629921
		},
		{
		  "duration": 0.19354799999999273,
		  "durationTicks": 240,
		  "midi": 48,
		  "name": "C3",
		  "ticks": 91920,
		  "time": 74.128884,
		  "velocity": 0.7480314960629921
		},
		{
		  "duration": 0.19354799999999273,
		  "durationTicks": 240,
		  "midi": 41,
		  "name": "F2",
		  "ticks": 91920,
		  "time": 74.128884,
		  "velocity": 0.7480314960629921
		},
		{
		  "duration": 0.19354800000000694,
		  "durationTicks": 240,
		  "midi": 53,
		  "name": "F3",
		  "ticks": 92160,
		  "time": 74.32243199999999,
		  "velocity": 0.7480314960629921
		},
		{
		  "duration": 0.19354800000000694,
		  "durationTicks": 240,
		  "midi": 46,
		  "name": "A#2",
		  "ticks": 92160,
		  "time": 74.32243199999999,
		  "velocity": 0.7480314960629921
		},
		{
		  "duration": 0.19354800000000694,
		  "durationTicks": 240,
		  "midi": 53,
		  "name": "F3",
		  "ticks": 92400,
		  "time": 74.51598,
		  "velocity": 0.7480314960629921
		},
		{
		  "duration": 0.19354800000000694,
		  "durationTicks": 240,
		  "midi": 46,
		  "name": "A#2",
		  "ticks": 92400,
		  "time": 74.51598,
		  "velocity": 0.7480314960629921
		},
		{
		  "duration": 0.19354800000000694,
		  "durationTicks": 240,
		  "midi": 53,
		  "name": "F3",
		  "ticks": 92880,
		  "time": 74.903076,
		  "velocity": 0.7480314960629921
		},
		{
		  "duration": 0.19354800000000694,
		  "durationTicks": 240,
		  "midi": 46,
		  "name": "A#2",
		  "ticks": 92880,
		  "time": 74.903076,
		  "velocity": 0.7480314960629921
		},
		{
		  "duration": 0.19354799999999273,
		  "durationTicks": 240,
		  "midi": 53,
		  "name": "F3",
		  "ticks": 93120,
		  "time": 75.096624,
		  "velocity": 0.7480314960629921
		},
		{
		  "duration": 0.19354799999999273,
		  "durationTicks": 240,
		  "midi": 46,
		  "name": "A#2",
		  "ticks": 93120,
		  "time": 75.096624,
		  "velocity": 0.7480314960629921
		},
		{
		  "duration": 0.19354799999999273,
		  "durationTicks": 240,
		  "midi": 53,
		  "name": "F3",
		  "ticks": 93600,
		  "time": 75.48372,
		  "velocity": 0.7480314960629921
		},
		{
		  "duration": 0.19354799999999273,
		  "durationTicks": 240,
		  "midi": 46,
		  "name": "A#2",
		  "ticks": 93600,
		  "time": 75.48372,
		  "velocity": 0.7480314960629921
		},
		{
		  "duration": 0.19354800000000694,
		  "durationTicks": 240,
		  "midi": 53,
		  "name": "F3",
		  "ticks": 93840,
		  "time": 75.677268,
		  "velocity": 0.7480314960629921
		},
		{
		  "duration": 0.19354800000000694,
		  "durationTicks": 240,
		  "midi": 46,
		  "name": "A#2",
		  "ticks": 93840,
		  "time": 75.677268,
		  "velocity": 0.7480314960629921
		},
		{
		  "duration": 0.19354800000000694,
		  "durationTicks": 240,
		  "midi": 53,
		  "name": "F3",
		  "ticks": 94320,
		  "time": 76.064364,
		  "velocity": 0.7480314960629921
		},
		{
		  "duration": 0.19354800000000694,
		  "durationTicks": 240,
		  "midi": 46,
		  "name": "A#2",
		  "ticks": 94320,
		  "time": 76.064364,
		  "velocity": 0.7480314960629921
		},
		{
		  "duration": 0.19354799999999273,
		  "durationTicks": 240,
		  "midi": 53,
		  "name": "F3",
		  "ticks": 94560,
		  "time": 76.257912,
		  "velocity": 0.7480314960629921
		},
		{
		  "duration": 0.19354799999999273,
		  "durationTicks": 240,
		  "midi": 46,
		  "name": "A#2",
		  "ticks": 94560,
		  "time": 76.257912,
		  "velocity": 0.7480314960629921
		},
		{
		  "duration": 0.19354799999999273,
		  "durationTicks": 240,
		  "midi": 53,
		  "name": "F3",
		  "ticks": 95040,
		  "time": 76.645008,
		  "velocity": 0.7480314960629921
		},
		{
		  "duration": 0.19354799999999273,
		  "durationTicks": 240,
		  "midi": 46,
		  "name": "A#2",
		  "ticks": 95040,
		  "time": 76.645008,
		  "velocity": 0.7480314960629921
		},
		{
		  "duration": 0.07258050000000082,
		  "durationTicks": 90,
		  "midi": 46,
		  "name": "A#2",
		  "ticks": 95280,
		  "time": 76.838556,
		  "velocity": 0.5984251968503937
		},
		{
		  "duration": 0.07258050000000082,
		  "durationTicks": 90,
		  "midi": 46,
		  "name": "A#2",
		  "ticks": 95400,
		  "time": 76.93533,
		  "velocity": 0.5984251968503937
		},
		{
		  "duration": 0.38709599999999966,
		  "durationTicks": 480,
		  "midi": 51,
		  "name": "D#3",
		  "ticks": 95520,
		  "time": 77.032104,
		  "velocity": 0.7480314960629921
		},
		{
		  "duration": 0.38709599999999966,
		  "durationTicks": 480,
		  "midi": 44,
		  "name": "G#2",
		  "ticks": 95520,
		  "time": 77.032104,
		  "velocity": 0.7480314960629921
		},
		{
		  "duration": 0.19354799999999273,
		  "durationTicks": 240,
		  "midi": 53,
		  "name": "F3",
		  "ticks": 96000,
		  "time": 77.4192,
		  "velocity": 0.7480314960629921
		},
		{
		  "duration": 0.19354799999999273,
		  "durationTicks": 240,
		  "midi": 46,
		  "name": "A#2",
		  "ticks": 96000,
		  "time": 77.4192,
		  "velocity": 0.7480314960629921
		},
		{
		  "duration": 0.19354800000000694,
		  "durationTicks": 240,
		  "midi": 53,
		  "name": "F3",
		  "ticks": 96240,
		  "time": 77.612748,
		  "velocity": 0.7480314960629921
		},
		{
		  "duration": 0.19354800000000694,
		  "durationTicks": 240,
		  "midi": 46,
		  "name": "A#2",
		  "ticks": 96240,
		  "time": 77.612748,
		  "velocity": 0.7480314960629921
		},
		{
		  "duration": 0.19354800000000694,
		  "durationTicks": 240,
		  "midi": 53,
		  "name": "F3",
		  "ticks": 96720,
		  "time": 77.999844,
		  "velocity": 0.7480314960629921
		},
		{
		  "duration": 0.19354800000000694,
		  "durationTicks": 240,
		  "midi": 46,
		  "name": "A#2",
		  "ticks": 96720,
		  "time": 77.999844,
		  "velocity": 0.7480314960629921
		},
		{
		  "duration": 0.19354799999999273,
		  "durationTicks": 240,
		  "midi": 53,
		  "name": "F3",
		  "ticks": 96960,
		  "time": 78.193392,
		  "velocity": 0.7480314960629921
		},
		{
		  "duration": 0.19354799999999273,
		  "durationTicks": 240,
		  "midi": 46,
		  "name": "A#2",
		  "ticks": 96960,
		  "time": 78.193392,
		  "velocity": 0.7480314960629921
		},
		{
		  "duration": 0.19354799999999273,
		  "durationTicks": 240,
		  "midi": 53,
		  "name": "F3",
		  "ticks": 97440,
		  "time": 78.580488,
		  "velocity": 0.7480314960629921
		},
		{
		  "duration": 0.19354799999999273,
		  "durationTicks": 240,
		  "midi": 46,
		  "name": "A#2",
		  "ticks": 97440,
		  "time": 78.580488,
		  "velocity": 0.7480314960629921
		},
		{
		  "duration": 0.19354800000000694,
		  "durationTicks": 240,
		  "midi": 53,
		  "name": "F3",
		  "ticks": 97680,
		  "time": 78.774036,
		  "velocity": 0.7480314960629921
		},
		{
		  "duration": 0.19354800000000694,
		  "durationTicks": 240,
		  "midi": 46,
		  "name": "A#2",
		  "ticks": 97680,
		  "time": 78.774036,
		  "velocity": 0.7480314960629921
		},
		{
		  "duration": 0.19354800000000694,
		  "durationTicks": 240,
		  "midi": 53,
		  "name": "F3",
		  "ticks": 98160,
		  "time": 79.161132,
		  "velocity": 0.7480314960629921
		},
		{
		  "duration": 0.19354800000000694,
		  "durationTicks": 240,
		  "midi": 46,
		  "name": "A#2",
		  "ticks": 98160,
		  "time": 79.161132,
		  "velocity": 0.7480314960629921
		},
		{
		  "duration": 0.19354799999999273,
		  "durationTicks": 240,
		  "midi": 53,
		  "name": "F3",
		  "ticks": 98400,
		  "time": 79.35468,
		  "velocity": 0.7480314960629921
		},
		{
		  "duration": 0.19354799999999273,
		  "durationTicks": 240,
		  "midi": 46,
		  "name": "A#2",
		  "ticks": 98400,
		  "time": 79.35468,
		  "velocity": 0.7480314960629921
		},
		{
		  "duration": 0.07258050000000082,
		  "durationTicks": 90,
		  "midi": 46,
		  "name": "A#2",
		  "ticks": 98640,
		  "time": 79.548228,
		  "velocity": 0.5984251968503937
		},
		{
		  "duration": 0.07258050000000082,
		  "durationTicks": 90,
		  "midi": 46,
		  "name": "A#2",
		  "ticks": 98760,
		  "time": 79.645002,
		  "velocity": 0.5984251968503937
		},
		{
		  "duration": 0.38709599999999966,
		  "durationTicks": 480,
		  "midi": 56,
		  "name": "G#3",
		  "ticks": 98880,
		  "time": 79.741776,
		  "velocity": 0.7480314960629921
		},
		{
		  "duration": 0.38709599999999966,
		  "durationTicks": 480,
		  "midi": 49,
		  "name": "C#3",
		  "ticks": 98880,
		  "time": 79.741776,
		  "velocity": 0.7480314960629921
		},
		{
		  "duration": 0.38709599999999966,
		  "durationTicks": 480,
		  "midi": 51,
		  "name": "D#3",
		  "ticks": 99360,
		  "time": 80.128872,
		  "velocity": 0.7480314960629921
		},
		{
		  "duration": 0.38709599999999966,
		  "durationTicks": 480,
		  "midi": 44,
		  "name": "G#2",
		  "ticks": 99360,
		  "time": 80.128872,
		  "velocity": 0.7480314960629921
		},
		{
		  "duration": 0.19354799999999273,
		  "durationTicks": 240,
		  "midi": 51,
		  "name": "D#3",
		  "ticks": 99840,
		  "time": 80.515968,
		  "velocity": 0.7480314960629921
		},
		{
		  "duration": 0.19354799999999273,
		  "durationTicks": 240,
		  "midi": 44,
		  "name": "G#2",
		  "ticks": 99840,
		  "time": 80.515968,
		  "velocity": 0.7480314960629921
		},
		{
		  "duration": 0.19354800000000694,
		  "durationTicks": 240,
		  "midi": 53,
		  "name": "F3",
		  "ticks": 100080,
		  "time": 80.709516,
		  "velocity": 0.7480314960629921
		},
		{
		  "duration": 0.19354800000000694,
		  "durationTicks": 240,
		  "midi": 46,
		  "name": "A#2",
		  "ticks": 100080,
		  "time": 80.709516,
		  "velocity": 0.7480314960629921
		},
		{
		  "duration": 0.19354800000000694,
		  "durationTicks": 240,
		  "midi": 53,
		  "name": "F3",
		  "ticks": 100560,
		  "time": 81.096612,
		  "velocity": 0.7480314960629921
		},
		{
		  "duration": 0.19354800000000694,
		  "durationTicks": 240,
		  "midi": 46,
		  "name": "A#2",
		  "ticks": 100560,
		  "time": 81.096612,
		  "velocity": 0.7480314960629921
		},
		{
		  "duration": 0.19354800000000694,
		  "durationTicks": 240,
		  "midi": 53,
		  "name": "F3",
		  "ticks": 101040,
		  "time": 81.483708,
		  "velocity": 0.7480314960629921
		},
		{
		  "duration": 0.19354800000000694,
		  "durationTicks": 240,
		  "midi": 46,
		  "name": "A#2",
		  "ticks": 101040,
		  "time": 81.483708,
		  "velocity": 0.7480314960629921
		},
		{
		  "duration": 0.19354800000000694,
		  "durationTicks": 240,
		  "midi": 53,
		  "name": "F3",
		  "ticks": 101520,
		  "time": 81.87080399999999,
		  "velocity": 0.7480314960629921
		},
		{
		  "duration": 0.19354800000000694,
		  "durationTicks": 240,
		  "midi": 46,
		  "name": "A#2",
		  "ticks": 101520,
		  "time": 81.87080399999999,
		  "velocity": 0.7480314960629921
		},
		{
		  "duration": 0.19354799999999273,
		  "durationTicks": 240,
		  "midi": 53,
		  "name": "F3",
		  "ticks": 101760,
		  "time": 82.064352,
		  "velocity": 0.7480314960629921
		},
		{
		  "duration": 0.19354799999999273,
		  "durationTicks": 240,
		  "midi": 46,
		  "name": "A#2",
		  "ticks": 101760,
		  "time": 82.064352,
		  "velocity": 0.7480314960629921
		},
		{
		  "duration": 0.19354800000000694,
		  "durationTicks": 240,
		  "midi": 54,
		  "name": "F#3",
		  "ticks": 102000,
		  "time": 82.25789999999999,
		  "velocity": 0.7480314960629921
		},
		{
		  "duration": 0.19354800000000694,
		  "durationTicks": 240,
		  "midi": 46,
		  "name": "A#2",
		  "ticks": 102000,
		  "time": 82.25789999999999,
		  "velocity": 0.7480314960629921
		},
		{
		  "duration": 0.19354799999999273,
		  "durationTicks": 240,
		  "midi": 54,
		  "name": "F#3",
		  "ticks": 102480,
		  "time": 82.644996,
		  "velocity": 0.7480314960629921
		},
		{
		  "duration": 0.19354799999999273,
		  "durationTicks": 240,
		  "midi": 46,
		  "name": "A#2",
		  "ticks": 102480,
		  "time": 82.644996,
		  "velocity": 0.7480314960629921
		},
		{
		  "duration": 0.19354799999999273,
		  "durationTicks": 240,
		  "midi": 53,
		  "name": "F3",
		  "ticks": 102960,
		  "time": 83.032092,
		  "velocity": 0.7480314960629921
		},
		{
		  "duration": 0.19354799999999273,
		  "durationTicks": 240,
		  "midi": 46,
		  "name": "A#2",
		  "ticks": 102960,
		  "time": 83.032092,
		  "velocity": 0.7480314960629921
		},
		{
		  "duration": 0.19354799999999273,
		  "durationTicks": 240,
		  "midi": 53,
		  "name": "F3",
		  "ticks": 103440,
		  "time": 83.419188,
		  "velocity": 0.7480314960629921
		},
		{
		  "duration": 0.19354799999999273,
		  "durationTicks": 240,
		  "midi": 46,
		  "name": "A#2",
		  "ticks": 103440,
		  "time": 83.419188,
		  "velocity": 0.7480314960629921
		},
		{
		  "duration": 0.19354800000000694,
		  "durationTicks": 240,
		  "midi": 49,
		  "name": "C#3",
		  "ticks": 103680,
		  "time": 83.612736,
		  "velocity": 0.7480314960629921
		},
		{
		  "duration": 0.19354800000000694,
		  "durationTicks": 240,
		  "midi": 42,
		  "name": "F#2",
		  "ticks": 103680,
		  "time": 83.612736,
		  "velocity": 0.7480314960629921
		},
		{
		  "duration": 0.19354799999999273,
		  "durationTicks": 240,
		  "midi": 49,
		  "name": "C#3",
		  "ticks": 103920,
		  "time": 83.806284,
		  "velocity": 0.7480314960629921
		},
		{
		  "duration": 0.19354799999999273,
		  "durationTicks": 240,
		  "midi": 42,
		  "name": "F#2",
		  "ticks": 103920,
		  "time": 83.806284,
		  "velocity": 0.7480314960629921
		},
		{
		  "duration": 0.19354799999999273,
		  "durationTicks": 240,
		  "midi": 49,
		  "name": "C#3",
		  "ticks": 104400,
		  "time": 84.19338,
		  "velocity": 0.7480314960629921
		},
		{
		  "duration": 0.19354799999999273,
		  "durationTicks": 240,
		  "midi": 42,
		  "name": "F#2",
		  "ticks": 104400,
		  "time": 84.19338,
		  "velocity": 0.7480314960629921
		},
		{
		  "duration": 0.19354799999999273,
		  "durationTicks": 240,
		  "midi": 49,
		  "name": "C#3",
		  "ticks": 104880,
		  "time": 84.580476,
		  "velocity": 0.7480314960629921
		},
		{
		  "duration": 0.19354799999999273,
		  "durationTicks": 240,
		  "midi": 42,
		  "name": "F#2",
		  "ticks": 104880,
		  "time": 84.580476,
		  "velocity": 0.7480314960629921
		},
		{
		  "duration": 0.19354799999999273,
		  "durationTicks": 240,
		  "midi": 49,
		  "name": "C#3",
		  "ticks": 105360,
		  "time": 84.967572,
		  "velocity": 0.7480314960629921
		},
		{
		  "duration": 0.19354799999999273,
		  "durationTicks": 240,
		  "midi": 42,
		  "name": "F#2",
		  "ticks": 105360,
		  "time": 84.967572,
		  "velocity": 0.7480314960629921
		},
		{
		  "duration": 0.19354800000000694,
		  "durationTicks": 240,
		  "midi": 56,
		  "name": "G#3",
		  "ticks": 105600,
		  "time": 85.16112,
		  "velocity": 0.7480314960629921
		},
		{
		  "duration": 0.19354800000000694,
		  "durationTicks": 240,
		  "midi": 49,
		  "name": "C#3",
		  "ticks": 105600,
		  "time": 85.16112,
		  "velocity": 0.7480314960629921
		},
		{
		  "duration": 0.19354799999999273,
		  "durationTicks": 240,
		  "midi": 56,
		  "name": "G#3",
		  "ticks": 105840,
		  "time": 85.354668,
		  "velocity": 0.7480314960629921
		},
		{
		  "duration": 0.19354799999999273,
		  "durationTicks": 240,
		  "midi": 49,
		  "name": "C#3",
		  "ticks": 105840,
		  "time": 85.354668,
		  "velocity": 0.7480314960629921
		},
		{
		  "duration": 0.19354800000000694,
		  "durationTicks": 240,
		  "midi": 56,
		  "name": "G#3",
		  "ticks": 106080,
		  "time": 85.548216,
		  "velocity": 0.7480314960629921
		},
		{
		  "duration": 0.19354800000000694,
		  "durationTicks": 240,
		  "midi": 49,
		  "name": "C#3",
		  "ticks": 106080,
		  "time": 85.548216,
		  "velocity": 0.7480314960629921
		},
		{
		  "duration": 0.19354799999999273,
		  "durationTicks": 240,
		  "midi": 51,
		  "name": "D#3",
		  "ticks": 106320,
		  "time": 85.741764,
		  "velocity": 0.7480314960629921
		},
		{
		  "duration": 0.19354799999999273,
		  "durationTicks": 240,
		  "midi": 44,
		  "name": "G#2",
		  "ticks": 106320,
		  "time": 85.741764,
		  "velocity": 0.7480314960629921
		},
		{
		  "duration": 0.19354800000000694,
		  "durationTicks": 240,
		  "midi": 51,
		  "name": "D#3",
		  "ticks": 106560,
		  "time": 85.935312,
		  "velocity": 0.7480314960629921
		},
		{
		  "duration": 0.19354800000000694,
		  "durationTicks": 240,
		  "midi": 44,
		  "name": "G#2",
		  "ticks": 106560,
		  "time": 85.935312,
		  "velocity": 0.7480314960629921
		},
		{
		  "duration": 0.19354799999999273,
		  "durationTicks": 240,
		  "midi": 51,
		  "name": "D#3",
		  "ticks": 106800,
		  "time": 86.12886,
		  "velocity": 0.7480314960629921
		},
		{
		  "duration": 0.19354799999999273,
		  "durationTicks": 240,
		  "midi": 44,
		  "name": "G#2",
		  "ticks": 106800,
		  "time": 86.12886,
		  "velocity": 0.7480314960629921
		},
		{
		  "duration": 0.19354800000000694,
		  "durationTicks": 240,
		  "midi": 51,
		  "name": "D#3",
		  "ticks": 107040,
		  "time": 86.322408,
		  "velocity": 0.7480314960629921
		},
		{
		  "duration": 0.19354800000000694,
		  "durationTicks": 240,
		  "midi": 44,
		  "name": "G#2",
		  "ticks": 107040,
		  "time": 86.322408,
		  "velocity": 0.7480314960629921
		},
		{
		  "duration": 0.19354799999999273,
		  "durationTicks": 240,
		  "midi": 51,
		  "name": "D#3",
		  "ticks": 107280,
		  "time": 86.515956,
		  "velocity": 0.7480314960629921
		},
		{
		  "duration": 0.19354799999999273,
		  "durationTicks": 240,
		  "midi": 44,
		  "name": "G#2",
		  "ticks": 107280,
		  "time": 86.515956,
		  "velocity": 0.7480314960629921
		},
		{
		  "duration": 0.19354800000000694,
		  "durationTicks": 240,
		  "midi": 51,
		  "name": "D#3",
		  "ticks": 107520,
		  "time": 86.709504,
		  "velocity": 0.7480314960629921
		},
		{
		  "duration": 0.19354800000000694,
		  "durationTicks": 240,
		  "midi": 44,
		  "name": "G#2",
		  "ticks": 107520,
		  "time": 86.709504,
		  "velocity": 0.7480314960629921
		},
		{
		  "duration": 0.19354799999999273,
		  "durationTicks": 240,
		  "midi": 53,
		  "name": "F3",
		  "ticks": 107760,
		  "time": 86.903052,
		  "velocity": 0.7480314960629921
		},
		{
		  "duration": 0.19354799999999273,
		  "durationTicks": 240,
		  "midi": 46,
		  "name": "A#2",
		  "ticks": 107760,
		  "time": 86.903052,
		  "velocity": 0.7480314960629921
		},
		{
		  "duration": 0.19354799999999273,
		  "durationTicks": 240,
		  "midi": 53,
		  "name": "F3",
		  "ticks": 108240,
		  "time": 87.290148,
		  "velocity": 0.7480314960629921
		},
		{
		  "duration": 0.19354799999999273,
		  "durationTicks": 240,
		  "midi": 46,
		  "name": "A#2",
		  "ticks": 108240,
		  "time": 87.290148,
		  "velocity": 0.7480314960629921
		},
		{
		  "duration": 0.19354799999999273,
		  "durationTicks": 240,
		  "midi": 53,
		  "name": "F3",
		  "ticks": 108720,
		  "time": 87.677244,
		  "velocity": 0.7480314960629921
		},
		{
		  "duration": 0.19354799999999273,
		  "durationTicks": 240,
		  "midi": 46,
		  "name": "A#2",
		  "ticks": 108720,
		  "time": 87.677244,
		  "velocity": 0.7480314960629921
		},
		{
		  "duration": 0.19354799999999273,
		  "durationTicks": 240,
		  "midi": 53,
		  "name": "F3",
		  "ticks": 109200,
		  "time": 88.06434,
		  "velocity": 0.7480314960629921
		},
		{
		  "duration": 0.19354799999999273,
		  "durationTicks": 240,
		  "midi": 46,
		  "name": "A#2",
		  "ticks": 109200,
		  "time": 88.06434,
		  "velocity": 0.7480314960629921
		},
		{
		  "duration": 0.19354800000000694,
		  "durationTicks": 240,
		  "midi": 53,
		  "name": "F3",
		  "ticks": 109440,
		  "time": 88.257888,
		  "velocity": 0.7480314960629921
		},
		{
		  "duration": 0.19354800000000694,
		  "durationTicks": 240,
		  "midi": 46,
		  "name": "A#2",
		  "ticks": 109440,
		  "time": 88.257888,
		  "velocity": 0.7480314960629921
		},
		{
		  "duration": 0.19354799999999273,
		  "durationTicks": 240,
		  "midi": 54,
		  "name": "F#3",
		  "ticks": 109680,
		  "time": 88.451436,
		  "velocity": 0.7480314960629921
		},
		{
		  "duration": 0.19354799999999273,
		  "durationTicks": 240,
		  "midi": 46,
		  "name": "A#2",
		  "ticks": 109680,
		  "time": 88.451436,
		  "velocity": 0.7480314960629921
		},
		{
		  "duration": 0.19354799999999273,
		  "durationTicks": 240,
		  "midi": 54,
		  "name": "F#3",
		  "ticks": 110160,
		  "time": 88.838532,
		  "velocity": 0.7480314960629921
		},
		{
		  "duration": 0.19354799999999273,
		  "durationTicks": 240,
		  "midi": 46,
		  "name": "A#2",
		  "ticks": 110160,
		  "time": 88.838532,
		  "velocity": 0.7480314960629921
		},
		{
		  "duration": 0.19354799999999273,
		  "durationTicks": 240,
		  "midi": 53,
		  "name": "F3",
		  "ticks": 110640,
		  "time": 89.225628,
		  "velocity": 0.7480314960629921
		},
		{
		  "duration": 0.19354799999999273,
		  "durationTicks": 240,
		  "midi": 46,
		  "name": "A#2",
		  "ticks": 110640,
		  "time": 89.225628,
		  "velocity": 0.7480314960629921
		},
		{
		  "duration": 0.19354799999999273,
		  "durationTicks": 240,
		  "midi": 53,
		  "name": "F3",
		  "ticks": 111120,
		  "time": 89.612724,
		  "velocity": 0.7480314960629921
		},
		{
		  "duration": 0.19354799999999273,
		  "durationTicks": 240,
		  "midi": 46,
		  "name": "A#2",
		  "ticks": 111120,
		  "time": 89.612724,
		  "velocity": 0.7480314960629921
		},
		{
		  "duration": 0.19354800000000694,
		  "durationTicks": 240,
		  "midi": 49,
		  "name": "C#3",
		  "ticks": 111360,
		  "time": 89.80627199999999,
		  "velocity": 0.7480314960629921
		},
		{
		  "duration": 0.19354800000000694,
		  "durationTicks": 240,
		  "midi": 42,
		  "name": "F#2",
		  "ticks": 111360,
		  "time": 89.80627199999999,
		  "velocity": 0.7480314960629921
		},
		{
		  "duration": 0.19354799999999273,
		  "durationTicks": 240,
		  "midi": 49,
		  "name": "C#3",
		  "ticks": 111600,
		  "time": 89.99982,
		  "velocity": 0.7480314960629921
		},
		{
		  "duration": 0.19354799999999273,
		  "durationTicks": 240,
		  "midi": 42,
		  "name": "F#2",
		  "ticks": 111600,
		  "time": 89.99982,
		  "velocity": 0.7480314960629921
		},
		{
		  "duration": 0.19354799999999273,
		  "durationTicks": 240,
		  "midi": 49,
		  "name": "C#3",
		  "ticks": 112080,
		  "time": 90.386916,
		  "velocity": 0.7480314960629921
		},
		{
		  "duration": 0.19354799999999273,
		  "durationTicks": 240,
		  "midi": 42,
		  "name": "F#2",
		  "ticks": 112080,
		  "time": 90.386916,
		  "velocity": 0.7480314960629921
		},
		{
		  "duration": 0.19354800000000694,
		  "durationTicks": 240,
		  "midi": 49,
		  "name": "C#3",
		  "ticks": 112560,
		  "time": 90.774012,
		  "velocity": 0.7480314960629921
		},
		{
		  "duration": 0.19354800000000694,
		  "durationTicks": 240,
		  "midi": 42,
		  "name": "F#2",
		  "ticks": 112560,
		  "time": 90.774012,
		  "velocity": 0.7480314960629921
		},
		{
		  "duration": 0.19354800000000694,
		  "durationTicks": 240,
		  "midi": 49,
		  "name": "C#3",
		  "ticks": 113040,
		  "time": 91.161108,
		  "velocity": 0.7480314960629921
		},
		{
		  "duration": 0.19354800000000694,
		  "durationTicks": 240,
		  "midi": 42,
		  "name": "F#2",
		  "ticks": 113040,
		  "time": 91.161108,
		  "velocity": 0.7480314960629921
		},
		{
		  "duration": 0.19354799999999273,
		  "durationTicks": 240,
		  "midi": 56,
		  "name": "G#3",
		  "ticks": 113280,
		  "time": 91.354656,
		  "velocity": 0.7480314960629921
		},
		{
		  "duration": 0.19354799999999273,
		  "durationTicks": 240,
		  "midi": 49,
		  "name": "C#3",
		  "ticks": 113280,
		  "time": 91.354656,
		  "velocity": 0.7480314960629921
		},
		{
		  "duration": 0.19354800000000694,
		  "durationTicks": 240,
		  "midi": 56,
		  "name": "G#3",
		  "ticks": 113520,
		  "time": 91.548204,
		  "velocity": 0.7480314960629921
		},
		{
		  "duration": 0.19354800000000694,
		  "durationTicks": 240,
		  "midi": 49,
		  "name": "C#3",
		  "ticks": 113520,
		  "time": 91.548204,
		  "velocity": 0.7480314960629921
		},
		{
		  "duration": 0.19354799999999273,
		  "durationTicks": 240,
		  "midi": 56,
		  "name": "G#3",
		  "ticks": 113760,
		  "time": 91.741752,
		  "velocity": 0.7480314960629921
		},
		{
		  "duration": 0.19354799999999273,
		  "durationTicks": 240,
		  "midi": 49,
		  "name": "C#3",
		  "ticks": 113760,
		  "time": 91.741752,
		  "velocity": 0.7480314960629921
		},
		{
		  "duration": 0.19354800000000694,
		  "durationTicks": 240,
		  "midi": 51,
		  "name": "D#3",
		  "ticks": 114000,
		  "time": 91.9353,
		  "velocity": 0.7480314960629921
		},
		{
		  "duration": 0.19354800000000694,
		  "durationTicks": 240,
		  "midi": 44,
		  "name": "G#2",
		  "ticks": 114000,
		  "time": 91.9353,
		  "velocity": 0.7480314960629921
		},
		{
		  "duration": 0.19354799999999273,
		  "durationTicks": 240,
		  "midi": 51,
		  "name": "D#3",
		  "ticks": 114240,
		  "time": 92.128848,
		  "velocity": 0.7480314960629921
		},
		{
		  "duration": 0.19354799999999273,
		  "durationTicks": 240,
		  "midi": 44,
		  "name": "G#2",
		  "ticks": 114240,
		  "time": 92.128848,
		  "velocity": 0.7480314960629921
		},
		{
		  "duration": 0.19354800000000694,
		  "durationTicks": 240,
		  "midi": 51,
		  "name": "D#3",
		  "ticks": 114480,
		  "time": 92.322396,
		  "velocity": 0.7480314960629921
		},
		{
		  "duration": 0.19354800000000694,
		  "durationTicks": 240,
		  "midi": 44,
		  "name": "G#2",
		  "ticks": 114480,
		  "time": 92.322396,
		  "velocity": 0.7480314960629921
		},
		{
		  "duration": 0.19354799999999273,
		  "durationTicks": 240,
		  "midi": 51,
		  "name": "D#3",
		  "ticks": 114720,
		  "time": 92.515944,
		  "velocity": 0.7480314960629921
		},
		{
		  "duration": 0.19354799999999273,
		  "durationTicks": 240,
		  "midi": 44,
		  "name": "G#2",
		  "ticks": 114720,
		  "time": 92.515944,
		  "velocity": 0.7480314960629921
		},
		{
		  "duration": 0.19354800000000694,
		  "durationTicks": 240,
		  "midi": 51,
		  "name": "D#3",
		  "ticks": 114960,
		  "time": 92.709492,
		  "velocity": 0.7480314960629921
		},
		{
		  "duration": 0.19354800000000694,
		  "durationTicks": 240,
		  "midi": 44,
		  "name": "G#2",
		  "ticks": 114960,
		  "time": 92.709492,
		  "velocity": 0.7480314960629921
		},
		{
		  "duration": 0.19354799999999273,
		  "durationTicks": 240,
		  "midi": 51,
		  "name": "D#3",
		  "ticks": 115200,
		  "time": 92.90304,
		  "velocity": 0.7480314960629921
		},
		{
		  "duration": 0.19354799999999273,
		  "durationTicks": 240,
		  "midi": 44,
		  "name": "G#2",
		  "ticks": 115200,
		  "time": 92.90304,
		  "velocity": 0.7480314960629921
		},
		{
		  "duration": 0.19354800000000694,
		  "durationTicks": 240,
		  "midi": 53,
		  "name": "F3",
		  "ticks": 115440,
		  "time": 93.096588,
		  "velocity": 0.7480314960629921
		},
		{
		  "duration": 0.19354800000000694,
		  "durationTicks": 240,
		  "midi": 46,
		  "name": "A#2",
		  "ticks": 115440,
		  "time": 93.096588,
		  "velocity": 0.7480314960629921
		},
		{
		  "duration": 0.19354800000000694,
		  "durationTicks": 240,
		  "midi": 53,
		  "name": "F3",
		  "ticks": 115920,
		  "time": 93.483684,
		  "velocity": 0.7480314960629921
		},
		{
		  "duration": 0.19354800000000694,
		  "durationTicks": 240,
		  "midi": 46,
		  "name": "A#2",
		  "ticks": 115920,
		  "time": 93.483684,
		  "velocity": 0.7480314960629921
		},
		{
		  "duration": 0.19354800000000694,
		  "durationTicks": 240,
		  "midi": 53,
		  "name": "F3",
		  "ticks": 116400,
		  "time": 93.87078,
		  "velocity": 0.7480314960629921
		},
		{
		  "duration": 0.19354800000000694,
		  "durationTicks": 240,
		  "midi": 46,
		  "name": "A#2",
		  "ticks": 116400,
		  "time": 93.87078,
		  "velocity": 0.7480314960629921
		},
		{
		  "duration": 0.19354800000000694,
		  "durationTicks": 240,
		  "midi": 53,
		  "name": "F3",
		  "ticks": 116880,
		  "time": 94.257876,
		  "velocity": 0.7480314960629921
		},
		{
		  "duration": 0.19354800000000694,
		  "durationTicks": 240,
		  "midi": 46,
		  "name": "A#2",
		  "ticks": 116880,
		  "time": 94.257876,
		  "velocity": 0.7480314960629921
		},
		{
		  "duration": 0.19354799999999273,
		  "durationTicks": 240,
		  "midi": 53,
		  "name": "F3",
		  "ticks": 117120,
		  "time": 94.451424,
		  "velocity": 0.7480314960629921
		},
		{
		  "duration": 0.19354799999999273,
		  "durationTicks": 240,
		  "midi": 46,
		  "name": "A#2",
		  "ticks": 117120,
		  "time": 94.451424,
		  "velocity": 0.7480314960629921
		},
		{
		  "duration": 0.19354800000000694,
		  "durationTicks": 240,
		  "midi": 54,
		  "name": "F#3",
		  "ticks": 117360,
		  "time": 94.644972,
		  "velocity": 0.7480314960629921
		},
		{
		  "duration": 0.19354800000000694,
		  "durationTicks": 240,
		  "midi": 46,
		  "name": "A#2",
		  "ticks": 117360,
		  "time": 94.644972,
		  "velocity": 0.7480314960629921
		},
		{
		  "duration": 0.19354800000000694,
		  "durationTicks": 240,
		  "midi": 54,
		  "name": "F#3",
		  "ticks": 117840,
		  "time": 95.032068,
		  "velocity": 0.7480314960629921
		},
		{
		  "duration": 0.19354800000000694,
		  "durationTicks": 240,
		  "midi": 46,
		  "name": "A#2",
		  "ticks": 117840,
		  "time": 95.032068,
		  "velocity": 0.7480314960629921
		},
		{
		  "duration": 0.19354800000000694,
		  "durationTicks": 240,
		  "midi": 53,
		  "name": "F3",
		  "ticks": 118320,
		  "time": 95.419164,
		  "velocity": 0.7480314960629921
		},
		{
		  "duration": 0.19354800000000694,
		  "durationTicks": 240,
		  "midi": 46,
		  "name": "A#2",
		  "ticks": 118320,
		  "time": 95.419164,
		  "velocity": 0.7480314960629921
		},
		{
		  "duration": 0.19354800000000694,
		  "durationTicks": 240,
		  "midi": 53,
		  "name": "F3",
		  "ticks": 118800,
		  "time": 95.80626,
		  "velocity": 0.7480314960629921
		},
		{
		  "duration": 0.19354800000000694,
		  "durationTicks": 240,
		  "midi": 46,
		  "name": "A#2",
		  "ticks": 118800,
		  "time": 95.80626,
		  "velocity": 0.7480314960629921
		},
		{
		  "duration": 0.19354799999999273,
		  "durationTicks": 240,
		  "midi": 49,
		  "name": "C#3",
		  "ticks": 119040,
		  "time": 95.999808,
		  "velocity": 0.7480314960629921
		},
		{
		  "duration": 0.19354799999999273,
		  "durationTicks": 240,
		  "midi": 42,
		  "name": "F#2",
		  "ticks": 119040,
		  "time": 95.999808,
		  "velocity": 0.7480314960629921
		},
		{
		  "duration": 0.19354800000000694,
		  "durationTicks": 240,
		  "midi": 49,
		  "name": "C#3",
		  "ticks": 119280,
		  "time": 96.193356,
		  "velocity": 0.7480314960629921
		},
		{
		  "duration": 0.19354800000000694,
		  "durationTicks": 240,
		  "midi": 42,
		  "name": "F#2",
		  "ticks": 119280,
		  "time": 96.193356,
		  "velocity": 0.7480314960629921
		},
		{
		  "duration": 0.19354800000000694,
		  "durationTicks": 240,
		  "midi": 49,
		  "name": "C#3",
		  "ticks": 119760,
		  "time": 96.580452,
		  "velocity": 0.7480314960629921
		},
		{
		  "duration": 0.19354800000000694,
		  "durationTicks": 240,
		  "midi": 42,
		  "name": "F#2",
		  "ticks": 119760,
		  "time": 96.580452,
		  "velocity": 0.7480314960629921
		},
		{
		  "duration": 0.19354800000000694,
		  "durationTicks": 240,
		  "midi": 49,
		  "name": "C#3",
		  "ticks": 120240,
		  "time": 96.967548,
		  "velocity": 0.7480314960629921
		},
		{
		  "duration": 0.19354800000000694,
		  "durationTicks": 240,
		  "midi": 42,
		  "name": "F#2",
		  "ticks": 120240,
		  "time": 96.967548,
		  "velocity": 0.7480314960629921
		},
		{
		  "duration": 0.19354800000000694,
		  "durationTicks": 240,
		  "midi": 49,
		  "name": "C#3",
		  "ticks": 120720,
		  "time": 97.354644,
		  "velocity": 0.7480314960629921
		},
		{
		  "duration": 0.19354800000000694,
		  "durationTicks": 240,
		  "midi": 42,
		  "name": "F#2",
		  "ticks": 120720,
		  "time": 97.354644,
		  "velocity": 0.7480314960629921
		},
		{
		  "duration": 0.19354799999999273,
		  "durationTicks": 240,
		  "midi": 56,
		  "name": "G#3",
		  "ticks": 120960,
		  "time": 97.548192,
		  "velocity": 0.7480314960629921
		},
		{
		  "duration": 0.19354799999999273,
		  "durationTicks": 240,
		  "midi": 49,
		  "name": "C#3",
		  "ticks": 120960,
		  "time": 97.548192,
		  "velocity": 0.7480314960629921
		},
		{
		  "duration": 0.19354800000000694,
		  "durationTicks": 240,
		  "midi": 56,
		  "name": "G#3",
		  "ticks": 121200,
		  "time": 97.74174,
		  "velocity": 0.7480314960629921
		},
		{
		  "duration": 0.19354800000000694,
		  "durationTicks": 240,
		  "midi": 49,
		  "name": "C#3",
		  "ticks": 121200,
		  "time": 97.74174,
		  "velocity": 0.7480314960629921
		},
		{
		  "duration": 0.19354799999999273,
		  "durationTicks": 240,
		  "midi": 56,
		  "name": "G#3",
		  "ticks": 121440,
		  "time": 97.935288,
		  "velocity": 0.7480314960629921
		},
		{
		  "duration": 0.19354799999999273,
		  "durationTicks": 240,
		  "midi": 49,
		  "name": "C#3",
		  "ticks": 121440,
		  "time": 97.935288,
		  "velocity": 0.7480314960629921
		},
		{
		  "duration": 0.19354800000000694,
		  "durationTicks": 240,
		  "midi": 51,
		  "name": "D#3",
		  "ticks": 121680,
		  "time": 98.12883599999999,
		  "velocity": 0.7480314960629921
		},
		{
		  "duration": 0.19354800000000694,
		  "durationTicks": 240,
		  "midi": 44,
		  "name": "G#2",
		  "ticks": 121680,
		  "time": 98.12883599999999,
		  "velocity": 0.7480314960629921
		},
		{
		  "duration": 0.19354799999999273,
		  "durationTicks": 240,
		  "midi": 51,
		  "name": "D#3",
		  "ticks": 121920,
		  "time": 98.322384,
		  "velocity": 0.7480314960629921
		},
		{
		  "duration": 0.19354799999999273,
		  "durationTicks": 240,
		  "midi": 44,
		  "name": "G#2",
		  "ticks": 121920,
		  "time": 98.322384,
		  "velocity": 0.7480314960629921
		},
		{
		  "duration": 0.19354800000000694,
		  "durationTicks": 240,
		  "midi": 51,
		  "name": "D#3",
		  "ticks": 122160,
		  "time": 98.51593199999999,
		  "velocity": 0.7480314960629921
		},
		{
		  "duration": 0.19354800000000694,
		  "durationTicks": 240,
		  "midi": 44,
		  "name": "G#2",
		  "ticks": 122160,
		  "time": 98.51593199999999,
		  "velocity": 0.7480314960629921
		},
		{
		  "duration": 0.19354799999999273,
		  "durationTicks": 240,
		  "midi": 51,
		  "name": "D#3",
		  "ticks": 122400,
		  "time": 98.70948,
		  "velocity": 0.7480314960629921
		},
		{
		  "duration": 0.19354799999999273,
		  "durationTicks": 240,
		  "midi": 44,
		  "name": "G#2",
		  "ticks": 122400,
		  "time": 98.70948,
		  "velocity": 0.7480314960629921
		},
		{
		  "duration": 0.19354800000000694,
		  "durationTicks": 240,
		  "midi": 51,
		  "name": "D#3",
		  "ticks": 122640,
		  "time": 98.90302799999999,
		  "velocity": 0.7480314960629921
		},
		{
		  "duration": 0.19354800000000694,
		  "durationTicks": 240,
		  "midi": 44,
		  "name": "G#2",
		  "ticks": 122640,
		  "time": 98.90302799999999,
		  "velocity": 0.7480314960629921
		},
		{
		  "duration": 0.19354800000000694,
		  "durationTicks": 240,
		  "midi": 51,
		  "name": "D#3",
		  "ticks": 122880,
		  "time": 99.096576,
		  "velocity": 0.7480314960629921
		},
		{
		  "duration": 0.19354800000000694,
		  "durationTicks": 240,
		  "midi": 44,
		  "name": "G#2",
		  "ticks": 122880,
		  "time": 99.096576,
		  "velocity": 0.7480314960629921
		},
		{
		  "duration": 0.19354799999999273,
		  "durationTicks": 240,
		  "midi": 53,
		  "name": "F3",
		  "ticks": 123120,
		  "time": 99.290124,
		  "velocity": 0.7480314960629921
		},
		{
		  "duration": 0.19354799999999273,
		  "durationTicks": 240,
		  "midi": 46,
		  "name": "A#2",
		  "ticks": 123120,
		  "time": 99.290124,
		  "velocity": 0.7480314960629921
		},
		{
		  "duration": 0.19354799999999273,
		  "durationTicks": 240,
		  "midi": 53,
		  "name": "F3",
		  "ticks": 123600,
		  "time": 99.67722,
		  "velocity": 0.7480314960629921
		},
		{
		  "duration": 0.19354799999999273,
		  "durationTicks": 240,
		  "midi": 46,
		  "name": "A#2",
		  "ticks": 123600,
		  "time": 99.67722,
		  "velocity": 0.7480314960629921
		},
		{
		  "duration": 0.19354799999999273,
		  "durationTicks": 240,
		  "midi": 53,
		  "name": "F3",
		  "ticks": 124080,
		  "time": 100.064316,
		  "velocity": 0.7480314960629921
		},
		{
		  "duration": 0.19354799999999273,
		  "durationTicks": 240,
		  "midi": 46,
		  "name": "A#2",
		  "ticks": 124080,
		  "time": 100.064316,
		  "velocity": 0.7480314960629921
		},
		{
		  "duration": 0.19354799999999273,
		  "durationTicks": 240,
		  "midi": 53,
		  "name": "F3",
		  "ticks": 124560,
		  "time": 100.451412,
		  "velocity": 0.7480314960629921
		},
		{
		  "duration": 0.19354799999999273,
		  "durationTicks": 240,
		  "midi": 46,
		  "name": "A#2",
		  "ticks": 124560,
		  "time": 100.451412,
		  "velocity": 0.7480314960629921
		},
		{
		  "duration": 0.19354800000000694,
		  "durationTicks": 240,
		  "midi": 53,
		  "name": "F3",
		  "ticks": 124800,
		  "time": 100.64496,
		  "velocity": 0.7480314960629921
		},
		{
		  "duration": 0.19354800000000694,
		  "durationTicks": 240,
		  "midi": 46,
		  "name": "A#2",
		  "ticks": 124800,
		  "time": 100.64496,
		  "velocity": 0.7480314960629921
		},
		{
		  "duration": 0.19354799999999273,
		  "durationTicks": 240,
		  "midi": 54,
		  "name": "F#3",
		  "ticks": 125040,
		  "time": 100.838508,
		  "velocity": 0.7480314960629921
		},
		{
		  "duration": 0.19354799999999273,
		  "durationTicks": 240,
		  "midi": 46,
		  "name": "A#2",
		  "ticks": 125040,
		  "time": 100.838508,
		  "velocity": 0.7480314960629921
		},
		{
		  "duration": 0.19354799999999273,
		  "durationTicks": 240,
		  "midi": 54,
		  "name": "F#3",
		  "ticks": 125520,
		  "time": 101.225604,
		  "velocity": 0.7480314960629921
		},
		{
		  "duration": 0.19354799999999273,
		  "durationTicks": 240,
		  "midi": 46,
		  "name": "A#2",
		  "ticks": 125520,
		  "time": 101.225604,
		  "velocity": 0.7480314960629921
		},
		{
		  "duration": 0.19354799999999273,
		  "durationTicks": 240,
		  "midi": 53,
		  "name": "F3",
		  "ticks": 126000,
		  "time": 101.6127,
		  "velocity": 0.7480314960629921
		},
		{
		  "duration": 0.19354799999999273,
		  "durationTicks": 240,
		  "midi": 46,
		  "name": "A#2",
		  "ticks": 126000,
		  "time": 101.6127,
		  "velocity": 0.7480314960629921
		},
		{
		  "duration": 0.19354799999999273,
		  "durationTicks": 240,
		  "midi": 53,
		  "name": "F3",
		  "ticks": 126480,
		  "time": 101.999796,
		  "velocity": 0.7480314960629921
		},
		{
		  "duration": 0.19354799999999273,
		  "durationTicks": 240,
		  "midi": 46,
		  "name": "A#2",
		  "ticks": 126480,
		  "time": 101.999796,
		  "velocity": 0.7480314960629921
		},
		{
		  "duration": 0.19354800000000694,
		  "durationTicks": 240,
		  "midi": 49,
		  "name": "C#3",
		  "ticks": 126720,
		  "time": 102.193344,
		  "velocity": 0.7480314960629921
		},
		{
		  "duration": 0.19354800000000694,
		  "durationTicks": 240,
		  "midi": 42,
		  "name": "F#2",
		  "ticks": 126720,
		  "time": 102.193344,
		  "velocity": 0.7480314960629921
		},
		{
		  "duration": 0.19354799999999273,
		  "durationTicks": 240,
		  "midi": 49,
		  "name": "C#3",
		  "ticks": 126960,
		  "time": 102.386892,
		  "velocity": 0.7480314960629921
		},
		{
		  "duration": 0.19354799999999273,
		  "durationTicks": 240,
		  "midi": 42,
		  "name": "F#2",
		  "ticks": 126960,
		  "time": 102.386892,
		  "velocity": 0.7480314960629921
		},
		{
		  "duration": 0.19354799999999273,
		  "durationTicks": 240,
		  "midi": 49,
		  "name": "C#3",
		  "ticks": 127440,
		  "time": 102.773988,
		  "velocity": 0.7480314960629921
		},
		{
		  "duration": 0.19354799999999273,
		  "durationTicks": 240,
		  "midi": 42,
		  "name": "F#2",
		  "ticks": 127440,
		  "time": 102.773988,
		  "velocity": 0.7480314960629921
		},
		{
		  "duration": 0.19354799999999273,
		  "durationTicks": 240,
		  "midi": 49,
		  "name": "C#3",
		  "ticks": 127920,
		  "time": 103.161084,
		  "velocity": 0.7480314960629921
		},
		{
		  "duration": 0.19354799999999273,
		  "durationTicks": 240,
		  "midi": 42,
		  "name": "F#2",
		  "ticks": 127920,
		  "time": 103.161084,
		  "velocity": 0.7480314960629921
		},
		{
		  "duration": 0.19354799999999273,
		  "durationTicks": 240,
		  "midi": 49,
		  "name": "C#3",
		  "ticks": 128400,
		  "time": 103.54818,
		  "velocity": 0.7480314960629921
		},
		{
		  "duration": 0.19354799999999273,
		  "durationTicks": 240,
		  "midi": 42,
		  "name": "F#2",
		  "ticks": 128400,
		  "time": 103.54818,
		  "velocity": 0.7480314960629921
		},
		{
		  "duration": 0.19354800000000694,
		  "durationTicks": 240,
		  "midi": 56,
		  "name": "G#3",
		  "ticks": 128640,
		  "time": 103.741728,
		  "velocity": 0.7480314960629921
		},
		{
		  "duration": 0.19354800000000694,
		  "durationTicks": 240,
		  "midi": 49,
		  "name": "C#3",
		  "ticks": 128640,
		  "time": 103.741728,
		  "velocity": 0.7480314960629921
		},
		{
		  "duration": 0.19354799999999273,
		  "durationTicks": 240,
		  "midi": 56,
		  "name": "G#3",
		  "ticks": 128880,
		  "time": 103.935276,
		  "velocity": 0.7480314960629921
		},
		{
		  "duration": 0.19354799999999273,
		  "durationTicks": 240,
		  "midi": 49,
		  "name": "C#3",
		  "ticks": 128880,
		  "time": 103.935276,
		  "velocity": 0.7480314960629921
		},
		{
		  "duration": 0.19354800000000694,
		  "durationTicks": 240,
		  "midi": 56,
		  "name": "G#3",
		  "ticks": 129120,
		  "time": 104.128824,
		  "velocity": 0.7480314960629921
		},
		{
		  "duration": 0.19354800000000694,
		  "durationTicks": 240,
		  "midi": 49,
		  "name": "C#3",
		  "ticks": 129120,
		  "time": 104.128824,
		  "velocity": 0.7480314960629921
		},
		{
		  "duration": 0.19354799999999273,
		  "durationTicks": 240,
		  "midi": 51,
		  "name": "D#3",
		  "ticks": 129360,
		  "time": 104.322372,
		  "velocity": 0.7480314960629921
		},
		{
		  "duration": 0.19354799999999273,
		  "durationTicks": 240,
		  "midi": 44,
		  "name": "G#2",
		  "ticks": 129360,
		  "time": 104.322372,
		  "velocity": 0.7480314960629921
		},
		{
		  "duration": 0.19354800000000694,
		  "durationTicks": 240,
		  "midi": 51,
		  "name": "D#3",
		  "ticks": 129600,
		  "time": 104.51592,
		  "velocity": 0.7480314960629921
		},
		{
		  "duration": 0.19354800000000694,
		  "durationTicks": 240,
		  "midi": 44,
		  "name": "G#2",
		  "ticks": 129600,
		  "time": 104.51592,
		  "velocity": 0.7480314960629921
		},
		{
		  "duration": 0.19354799999999273,
		  "durationTicks": 240,
		  "midi": 51,
		  "name": "D#3",
		  "ticks": 129840,
		  "time": 104.709468,
		  "velocity": 0.7480314960629921
		},
		{
		  "duration": 0.19354799999999273,
		  "durationTicks": 240,
		  "midi": 44,
		  "name": "G#2",
		  "ticks": 129840,
		  "time": 104.709468,
		  "velocity": 0.7480314960629921
		},
		{
		  "duration": 0.19354800000000694,
		  "durationTicks": 240,
		  "midi": 51,
		  "name": "D#3",
		  "ticks": 130080,
		  "time": 104.903016,
		  "velocity": 0.7480314960629921
		},
		{
		  "duration": 0.19354800000000694,
		  "durationTicks": 240,
		  "midi": 44,
		  "name": "G#2",
		  "ticks": 130080,
		  "time": 104.903016,
		  "velocity": 0.7480314960629921
		},
		{
		  "duration": 0.19354799999999273,
		  "durationTicks": 240,
		  "midi": 51,
		  "name": "D#3",
		  "ticks": 130320,
		  "time": 105.096564,
		  "velocity": 0.7480314960629921
		},
		{
		  "duration": 0.19354799999999273,
		  "durationTicks": 240,
		  "midi": 44,
		  "name": "G#2",
		  "ticks": 130320,
		  "time": 105.096564,
		  "velocity": 0.7480314960629921
		},
		{
		  "duration": 0.19354800000000694,
		  "durationTicks": 240,
		  "midi": 53,
		  "name": "F3",
		  "ticks": 130560,
		  "time": 105.290112,
		  "velocity": 0.7480314960629921
		},
		{
		  "duration": 0.19354800000000694,
		  "durationTicks": 240,
		  "midi": 46,
		  "name": "A#2",
		  "ticks": 130560,
		  "time": 105.290112,
		  "velocity": 0.7480314960629921
		},
		{
		  "duration": 0.19354799999999273,
		  "durationTicks": 240,
		  "midi": 53,
		  "name": "F3",
		  "ticks": 130800,
		  "time": 105.48366,
		  "velocity": 0.7480314960629921
		},
		{
		  "duration": 0.19354799999999273,
		  "durationTicks": 240,
		  "midi": 46,
		  "name": "A#2",
		  "ticks": 130800,
		  "time": 105.48366,
		  "velocity": 0.7480314960629921
		},
		{
		  "duration": 0.19354800000000694,
		  "durationTicks": 240,
		  "midi": 53,
		  "name": "F3",
		  "ticks": 131040,
		  "time": 105.677208,
		  "velocity": 0.7480314960629921
		},
		{
		  "duration": 0.19354800000000694,
		  "durationTicks": 240,
		  "midi": 46,
		  "name": "A#2",
		  "ticks": 131040,
		  "time": 105.677208,
		  "velocity": 0.7480314960629921
		},
		{
		  "duration": 0.07258050000000082,
		  "durationTicks": 90,
		  "midi": 46,
		  "name": "A#2",
		  "ticks": 133680,
		  "time": 107.806236,
		  "velocity": 0.5984251968503937
		},
		{
		  "duration": 0.07258050000000082,
		  "durationTicks": 90,
		  "midi": 46,
		  "name": "A#2",
		  "ticks": 133800,
		  "time": 107.90301,
		  "velocity": 0.5984251968503937
		},
		{
		  "duration": 0.19354799999999273,
		  "durationTicks": 240,
		  "midi": 53,
		  "name": "F3",
		  "ticks": 133920,
		  "time": 107.999784,
		  "velocity": 0.7480314960629921
		},
		{
		  "duration": 0.19354799999999273,
		  "durationTicks": 240,
		  "midi": 46,
		  "name": "A#2",
		  "ticks": 133920,
		  "time": 107.999784,
		  "velocity": 0.7480314960629921
		},
		{
		  "duration": 0.19354800000000694,
		  "durationTicks": 240,
		  "midi": 53,
		  "name": "F3",
		  "ticks": 134160,
		  "time": 108.193332,
		  "velocity": 0.7480314960629921
		},
		{
		  "duration": 0.19354800000000694,
		  "durationTicks": 240,
		  "midi": 46,
		  "name": "A#2",
		  "ticks": 134160,
		  "time": 108.193332,
		  "velocity": 0.7480314960629921
		},
		{
		  "duration": 0.19354799999999273,
		  "durationTicks": 240,
		  "midi": 49,
		  "name": "C#3",
		  "ticks": 134400,
		  "time": 108.38688,
		  "velocity": 0.7480314960629921
		},
		{
		  "duration": 0.19354799999999273,
		  "durationTicks": 240,
		  "midi": 42,
		  "name": "F#2",
		  "ticks": 134400,
		  "time": 108.38688,
		  "velocity": 0.7480314960629921
		},
		{
		  "duration": 0.19354800000000694,
		  "durationTicks": 240,
		  "midi": 49,
		  "name": "C#3",
		  "ticks": 134640,
		  "time": 108.580428,
		  "velocity": 0.7480314960629921
		},
		{
		  "duration": 0.19354800000000694,
		  "durationTicks": 240,
		  "midi": 42,
		  "name": "F#2",
		  "ticks": 134640,
		  "time": 108.580428,
		  "velocity": 0.7480314960629921
		},
		{
		  "duration": 0.19354799999999273,
		  "durationTicks": 240,
		  "midi": 49,
		  "name": "C#3",
		  "ticks": 134880,
		  "time": 108.773976,
		  "velocity": 0.7480314960629921
		},
		{
		  "duration": 0.19354799999999273,
		  "durationTicks": 240,
		  "midi": 42,
		  "name": "F#2",
		  "ticks": 134880,
		  "time": 108.773976,
		  "velocity": 0.7480314960629921
		},
		{
		  "duration": 0.07258050000000082,
		  "durationTicks": 90,
		  "midi": 42,
		  "name": "F#2",
		  "ticks": 137040,
		  "time": 110.515908,
		  "velocity": 0.5984251968503937
		},
		{
		  "duration": 0.07258050000000082,
		  "durationTicks": 90,
		  "midi": 42,
		  "name": "F#2",
		  "ticks": 137160,
		  "time": 110.61268199999999,
		  "velocity": 0.5984251968503937
		},
		{
		  "duration": 0.14516100000000165,
		  "durationTicks": 180,
		  "midi": 42,
		  "name": "F#2",
		  "ticks": 137280,
		  "time": 110.709456,
		  "velocity": 0.5984251968503937
		},
		{
		  "duration": 0.07258050000000082,
		  "durationTicks": 90,
		  "midi": 42,
		  "name": "F#2",
		  "ticks": 137520,
		  "time": 110.903004,
		  "velocity": 0.5984251968503937
		},
		{
		  "duration": 0.07258050000000082,
		  "durationTicks": 90,
		  "midi": 42,
		  "name": "F#2",
		  "ticks": 137640,
		  "time": 110.99977799999999,
		  "velocity": 0.5984251968503937
		},
		{
		  "duration": 0.38709599999999966,
		  "durationTicks": 480,
		  "midi": 49,
		  "name": "C#3",
		  "ticks": 137760,
		  "time": 111.096552,
		  "velocity": 0.7480314960629921
		},
		{
		  "duration": 0.38709599999999966,
		  "durationTicks": 480,
		  "midi": 42,
		  "name": "F#2",
		  "ticks": 137760,
		  "time": 111.096552,
		  "velocity": 0.7480314960629921
		},
		{
		  "duration": 0.19354799999999273,
		  "durationTicks": 240,
		  "midi": 53,
		  "name": "F3",
		  "ticks": 138240,
		  "time": 111.483648,
		  "velocity": 0.7480314960629921
		},
		{
		  "duration": 0.19354799999999273,
		  "durationTicks": 240,
		  "midi": 46,
		  "name": "A#2",
		  "ticks": 138240,
		  "time": 111.483648,
		  "velocity": 0.7480314960629921
		},
		{
		  "duration": 0.19354800000000694,
		  "durationTicks": 240,
		  "midi": 53,
		  "name": "F3",
		  "ticks": 138480,
		  "time": 111.677196,
		  "velocity": 0.7480314960629921
		},
		{
		  "duration": 0.19354800000000694,
		  "durationTicks": 240,
		  "midi": 46,
		  "name": "A#2",
		  "ticks": 138480,
		  "time": 111.677196,
		  "velocity": 0.7480314960629921
		},
		{
		  "duration": 0.19354799999999273,
		  "durationTicks": 240,
		  "midi": 53,
		  "name": "F3",
		  "ticks": 138720,
		  "time": 111.870744,
		  "velocity": 0.7480314960629921
		},
		{
		  "duration": 0.19354799999999273,
		  "durationTicks": 240,
		  "midi": 46,
		  "name": "A#2",
		  "ticks": 138720,
		  "time": 111.870744,
		  "velocity": 0.7480314960629921
		},
		{
		  "duration": 0.19354800000000694,
		  "durationTicks": 240,
		  "midi": 53,
		  "name": "F3",
		  "ticks": 138960,
		  "time": 112.064292,
		  "velocity": 0.7480314960629921
		},
		{
		  "duration": 0.19354800000000694,
		  "durationTicks": 240,
		  "midi": 46,
		  "name": "A#2",
		  "ticks": 138960,
		  "time": 112.064292,
		  "velocity": 0.7480314960629921
		},
		{
		  "duration": 0.19354799999999273,
		  "durationTicks": 240,
		  "midi": 53,
		  "name": "F3",
		  "ticks": 139200,
		  "time": 112.25784,
		  "velocity": 0.7480314960629921
		},
		{
		  "duration": 0.19354799999999273,
		  "durationTicks": 240,
		  "midi": 46,
		  "name": "A#2",
		  "ticks": 139200,
		  "time": 112.25784,
		  "velocity": 0.7480314960629921
		},
		{
		  "duration": 0.19354800000000694,
		  "durationTicks": 240,
		  "midi": 53,
		  "name": "F3",
		  "ticks": 139440,
		  "time": 112.451388,
		  "velocity": 0.7480314960629921
		},
		{
		  "duration": 0.19354800000000694,
		  "durationTicks": 240,
		  "midi": 46,
		  "name": "A#2",
		  "ticks": 139440,
		  "time": 112.451388,
		  "velocity": 0.7480314960629921
		},
		{
		  "duration": 0.19354799999999273,
		  "durationTicks": 240,
		  "midi": 53,
		  "name": "F3",
		  "ticks": 139680,
		  "time": 112.644936,
		  "velocity": 0.7480314960629921
		},
		{
		  "duration": 0.19354799999999273,
		  "durationTicks": 240,
		  "midi": 46,
		  "name": "A#2",
		  "ticks": 139680,
		  "time": 112.644936,
		  "velocity": 0.7480314960629921
		},
		{
		  "duration": 0.19354800000000694,
		  "durationTicks": 240,
		  "midi": 53,
		  "name": "F3",
		  "ticks": 139920,
		  "time": 112.838484,
		  "velocity": 0.7480314960629921
		},
		{
		  "duration": 0.19354800000000694,
		  "durationTicks": 240,
		  "midi": 46,
		  "name": "A#2",
		  "ticks": 139920,
		  "time": 112.838484,
		  "velocity": 0.7480314960629921
		},
		{
		  "duration": 0.19354799999999273,
		  "durationTicks": 240,
		  "midi": 51,
		  "name": "D#3",
		  "ticks": 140160,
		  "time": 113.032032,
		  "velocity": 0.7480314960629921
		},
		{
		  "duration": 0.19354799999999273,
		  "durationTicks": 240,
		  "midi": 44,
		  "name": "G#2",
		  "ticks": 140160,
		  "time": 113.032032,
		  "velocity": 0.7480314960629921
		},
		{
		  "duration": 0.19354800000000694,
		  "durationTicks": 240,
		  "midi": 51,
		  "name": "D#3",
		  "ticks": 140400,
		  "time": 113.22558,
		  "velocity": 0.7480314960629921
		},
		{
		  "duration": 0.19354800000000694,
		  "durationTicks": 240,
		  "midi": 44,
		  "name": "G#2",
		  "ticks": 140400,
		  "time": 113.22558,
		  "velocity": 0.7480314960629921
		},
		{
		  "duration": 0.19354799999999273,
		  "durationTicks": 240,
		  "midi": 51,
		  "name": "D#3",
		  "ticks": 140640,
		  "time": 113.419128,
		  "velocity": 0.7480314960629921
		},
		{
		  "duration": 0.19354799999999273,
		  "durationTicks": 240,
		  "midi": 44,
		  "name": "G#2",
		  "ticks": 140640,
		  "time": 113.419128,
		  "velocity": 0.7480314960629921
		},
		{
		  "duration": 0.19354800000000694,
		  "durationTicks": 240,
		  "midi": 51,
		  "name": "D#3",
		  "ticks": 140880,
		  "time": 113.612676,
		  "velocity": 0.7480314960629921
		},
		{
		  "duration": 0.19354800000000694,
		  "durationTicks": 240,
		  "midi": 44,
		  "name": "G#2",
		  "ticks": 140880,
		  "time": 113.612676,
		  "velocity": 0.7480314960629921
		},
		{
		  "duration": 0.19354799999999273,
		  "durationTicks": 240,
		  "midi": 51,
		  "name": "D#3",
		  "ticks": 141120,
		  "time": 113.806224,
		  "velocity": 0.7480314960629921
		},
		{
		  "duration": 0.19354799999999273,
		  "durationTicks": 240,
		  "midi": 44,
		  "name": "G#2",
		  "ticks": 141120,
		  "time": 113.806224,
		  "velocity": 0.7480314960629921
		},
		{
		  "duration": 0.19354800000000694,
		  "durationTicks": 240,
		  "midi": 51,
		  "name": "D#3",
		  "ticks": 141360,
		  "time": 113.999772,
		  "velocity": 0.7480314960629921
		},
		{
		  "duration": 0.19354800000000694,
		  "durationTicks": 240,
		  "midi": 44,
		  "name": "G#2",
		  "ticks": 141360,
		  "time": 113.999772,
		  "velocity": 0.7480314960629921
		},
		{
		  "duration": 0.19354799999999273,
		  "durationTicks": 240,
		  "midi": 51,
		  "name": "D#3",
		  "ticks": 141600,
		  "time": 114.19332,
		  "velocity": 0.7480314960629921
		},
		{
		  "duration": 0.19354799999999273,
		  "durationTicks": 240,
		  "midi": 44,
		  "name": "G#2",
		  "ticks": 141600,
		  "time": 114.19332,
		  "velocity": 0.7480314960629921
		},
		{
		  "duration": 0.19354800000000694,
		  "durationTicks": 240,
		  "midi": 51,
		  "name": "D#3",
		  "ticks": 141840,
		  "time": 114.38686799999999,
		  "velocity": 0.7480314960629921
		},
		{
		  "duration": 0.19354800000000694,
		  "durationTicks": 240,
		  "midi": 44,
		  "name": "G#2",
		  "ticks": 141840,
		  "time": 114.38686799999999,
		  "velocity": 0.7480314960629921
		},
		{
		  "duration": 0.19354799999999273,
		  "durationTicks": 240,
		  "midi": 48,
		  "name": "C3",
		  "ticks": 142080,
		  "time": 114.580416,
		  "velocity": 0.7480314960629921
		},
		{
		  "duration": 0.19354799999999273,
		  "durationTicks": 240,
		  "midi": 41,
		  "name": "F2",
		  "ticks": 142080,
		  "time": 114.580416,
		  "velocity": 0.7480314960629921
		},
		{
		  "duration": 0.19354800000000694,
		  "durationTicks": 240,
		  "midi": 48,
		  "name": "C3",
		  "ticks": 142320,
		  "time": 114.77396399999999,
		  "velocity": 0.7480314960629921
		},
		{
		  "duration": 0.19354800000000694,
		  "durationTicks": 240,
		  "midi": 41,
		  "name": "F2",
		  "ticks": 142320,
		  "time": 114.77396399999999,
		  "velocity": 0.7480314960629921
		},
		{
		  "duration": 0.19354799999999273,
		  "durationTicks": 240,
		  "midi": 48,
		  "name": "C3",
		  "ticks": 142560,
		  "time": 114.967512,
		  "velocity": 0.7480314960629921
		},
		{
		  "duration": 0.19354799999999273,
		  "durationTicks": 240,
		  "midi": 41,
		  "name": "F2",
		  "ticks": 142560,
		  "time": 114.967512,
		  "velocity": 0.7480314960629921
		},
		{
		  "duration": 0.19354800000000694,
		  "durationTicks": 240,
		  "midi": 48,
		  "name": "C3",
		  "ticks": 142800,
		  "time": 115.16105999999999,
		  "velocity": 0.7480314960629921
		},
		{
		  "duration": 0.19354800000000694,
		  "durationTicks": 240,
		  "midi": 41,
		  "name": "F2",
		  "ticks": 142800,
		  "time": 115.16105999999999,
		  "velocity": 0.7480314960629921
		},
		{
		  "duration": 0.19354799999999273,
		  "durationTicks": 240,
		  "midi": 48,
		  "name": "C3",
		  "ticks": 143040,
		  "time": 115.354608,
		  "velocity": 0.7480314960629921
		},
		{
		  "duration": 0.19354799999999273,
		  "durationTicks": 240,
		  "midi": 41,
		  "name": "F2",
		  "ticks": 143040,
		  "time": 115.354608,
		  "velocity": 0.7480314960629921
		},
		{
		  "duration": 0.19354800000000694,
		  "durationTicks": 240,
		  "midi": 48,
		  "name": "C3",
		  "ticks": 143280,
		  "time": 115.54815599999999,
		  "velocity": 0.7480314960629921
		},
		{
		  "duration": 0.19354800000000694,
		  "durationTicks": 240,
		  "midi": 41,
		  "name": "F2",
		  "ticks": 143280,
		  "time": 115.54815599999999,
		  "velocity": 0.7480314960629921
		},
		{
		  "duration": 0.19354800000000694,
		  "durationTicks": 240,
		  "midi": 48,
		  "name": "C3",
		  "ticks": 143520,
		  "time": 115.741704,
		  "velocity": 0.7480314960629921
		},
		{
		  "duration": 0.19354800000000694,
		  "durationTicks": 240,
		  "midi": 41,
		  "name": "F2",
		  "ticks": 143520,
		  "time": 115.741704,
		  "velocity": 0.7480314960629921
		},
		{
		  "duration": 0.19354799999999273,
		  "durationTicks": 240,
		  "midi": 51,
		  "name": "D#3",
		  "ticks": 143760,
		  "time": 115.935252,
		  "velocity": 0.7480314960629921
		},
		{
		  "duration": 0.19354799999999273,
		  "durationTicks": 240,
		  "midi": 44,
		  "name": "G#2",
		  "ticks": 143760,
		  "time": 115.935252,
		  "velocity": 0.7480314960629921
		},
		{
		  "duration": 0.19354800000000694,
		  "durationTicks": 240,
		  "midi": 51,
		  "name": "D#3",
		  "ticks": 144000,
		  "time": 116.1288,
		  "velocity": 0.7480314960629921
		},
		{
		  "duration": 0.19354800000000694,
		  "durationTicks": 240,
		  "midi": 44,
		  "name": "G#2",
		  "ticks": 144000,
		  "time": 116.1288,
		  "velocity": 0.7480314960629921
		},
		{
		  "duration": 0.19354799999999273,
		  "durationTicks": 240,
		  "midi": 51,
		  "name": "D#3",
		  "ticks": 144240,
		  "time": 116.322348,
		  "velocity": 0.7480314960629921
		},
		{
		  "duration": 0.19354799999999273,
		  "durationTicks": 240,
		  "midi": 44,
		  "name": "G#2",
		  "ticks": 144240,
		  "time": 116.322348,
		  "velocity": 0.7480314960629921
		},
		{
		  "duration": 0.19354800000000694,
		  "durationTicks": 240,
		  "midi": 53,
		  "name": "F3",
		  "ticks": 144480,
		  "time": 116.515896,
		  "velocity": 0.7480314960629921
		},
		{
		  "duration": 0.19354800000000694,
		  "durationTicks": 240,
		  "midi": 46,
		  "name": "A#2",
		  "ticks": 144480,
		  "time": 116.515896,
		  "velocity": 0.7480314960629921
		},
		{
		  "duration": 0.19354799999999273,
		  "durationTicks": 240,
		  "midi": 53,
		  "name": "F3",
		  "ticks": 144720,
		  "time": 116.709444,
		  "velocity": 0.7480314960629921
		},
		{
		  "duration": 0.19354799999999273,
		  "durationTicks": 240,
		  "midi": 46,
		  "name": "A#2",
		  "ticks": 144720,
		  "time": 116.709444,
		  "velocity": 0.7480314960629921
		},
		{
		  "duration": 0.19354800000000694,
		  "durationTicks": 240,
		  "midi": 53,
		  "name": "F3",
		  "ticks": 144960,
		  "time": 116.902992,
		  "velocity": 0.7480314960629921
		},
		{
		  "duration": 0.19354800000000694,
		  "durationTicks": 240,
		  "midi": 46,
		  "name": "A#2",
		  "ticks": 144960,
		  "time": 116.902992,
		  "velocity": 0.7480314960629921
		},
		{
		  "duration": 0.19354799999999273,
		  "durationTicks": 240,
		  "midi": 51,
		  "name": "D#3",
		  "ticks": 145200,
		  "time": 117.09654,
		  "velocity": 0.7480314960629921
		},
		{
		  "duration": 0.19354799999999273,
		  "durationTicks": 240,
		  "midi": 44,
		  "name": "G#2",
		  "ticks": 145200,
		  "time": 117.09654,
		  "velocity": 0.7480314960629921
		},
		{
		  "duration": 0.19354800000000694,
		  "durationTicks": 240,
		  "midi": 51,
		  "name": "D#3",
		  "ticks": 145440,
		  "time": 117.290088,
		  "velocity": 0.7480314960629921
		},
		{
		  "duration": 0.19354800000000694,
		  "durationTicks": 240,
		  "midi": 44,
		  "name": "G#2",
		  "ticks": 145440,
		  "time": 117.290088,
		  "velocity": 0.7480314960629921
		},
		{
		  "duration": 0.19354799999999273,
		  "durationTicks": 240,
		  "midi": 51,
		  "name": "D#3",
		  "ticks": 145680,
		  "time": 117.483636,
		  "velocity": 0.7480314960629921
		},
		{
		  "duration": 0.19354799999999273,
		  "durationTicks": 240,
		  "midi": 44,
		  "name": "G#2",
		  "ticks": 145680,
		  "time": 117.483636,
		  "velocity": 0.7480314960629921
		},
		{
		  "duration": 0.19354800000000694,
		  "durationTicks": 240,
		  "midi": 53,
		  "name": "F3",
		  "ticks": 145920,
		  "time": 117.677184,
		  "velocity": 0.7480314960629921
		},
		{
		  "duration": 0.19354800000000694,
		  "durationTicks": 240,
		  "midi": 46,
		  "name": "A#2",
		  "ticks": 145920,
		  "time": 117.677184,
		  "velocity": 0.7480314960629921
		},
		{
		  "duration": 0.19354799999999273,
		  "durationTicks": 240,
		  "midi": 53,
		  "name": "F3",
		  "ticks": 146160,
		  "time": 117.870732,
		  "velocity": 0.7480314960629921
		},
		{
		  "duration": 0.19354799999999273,
		  "durationTicks": 240,
		  "midi": 46,
		  "name": "A#2",
		  "ticks": 146160,
		  "time": 117.870732,
		  "velocity": 0.7480314960629921
		},
		{
		  "duration": 0.19354800000000694,
		  "durationTicks": 240,
		  "midi": 53,
		  "name": "F3",
		  "ticks": 146400,
		  "time": 118.06428,
		  "velocity": 0.7480314960629921
		},
		{
		  "duration": 0.19354800000000694,
		  "durationTicks": 240,
		  "midi": 46,
		  "name": "A#2",
		  "ticks": 146400,
		  "time": 118.06428,
		  "velocity": 0.7480314960629921
		},
		{
		  "duration": 0.07258050000000082,
		  "durationTicks": 90,
		  "midi": 46,
		  "name": "A#2",
		  "ticks": 149040,
		  "time": 120.193308,
		  "velocity": 0.5984251968503937
		},
		{
		  "duration": 0.07258050000000082,
		  "durationTicks": 90,
		  "midi": 46,
		  "name": "A#2",
		  "ticks": 149160,
		  "time": 120.290082,
		  "velocity": 0.5984251968503937
		},
		{
		  "duration": 0.19354800000000694,
		  "durationTicks": 240,
		  "midi": 53,
		  "name": "F3",
		  "ticks": 149280,
		  "time": 120.386856,
		  "velocity": 0.7480314960629921
		},
		{
		  "duration": 0.19354800000000694,
		  "durationTicks": 240,
		  "midi": 46,
		  "name": "A#2",
		  "ticks": 149280,
		  "time": 120.386856,
		  "velocity": 0.7480314960629921
		},
		{
		  "duration": 0.19354799999999273,
		  "durationTicks": 240,
		  "midi": 53,
		  "name": "F3",
		  "ticks": 149520,
		  "time": 120.580404,
		  "velocity": 0.7480314960629921
		},
		{
		  "duration": 0.19354799999999273,
		  "durationTicks": 240,
		  "midi": 46,
		  "name": "A#2",
		  "ticks": 149520,
		  "time": 120.580404,
		  "velocity": 0.7480314960629921
		},
		{
		  "duration": 0.19354800000000694,
		  "durationTicks": 240,
		  "midi": 49,
		  "name": "C#3",
		  "ticks": 149760,
		  "time": 120.773952,
		  "velocity": 0.7480314960629921
		},
		{
		  "duration": 0.19354800000000694,
		  "durationTicks": 240,
		  "midi": 42,
		  "name": "F#2",
		  "ticks": 149760,
		  "time": 120.773952,
		  "velocity": 0.7480314960629921
		},
		{
		  "duration": 0.19354799999999273,
		  "durationTicks": 240,
		  "midi": 49,
		  "name": "C#3",
		  "ticks": 150000,
		  "time": 120.9675,
		  "velocity": 0.7480314960629921
		},
		{
		  "duration": 0.19354799999999273,
		  "durationTicks": 240,
		  "midi": 42,
		  "name": "F#2",
		  "ticks": 150000,
		  "time": 120.9675,
		  "velocity": 0.7480314960629921
		},
		{
		  "duration": 0.19354800000000694,
		  "durationTicks": 240,
		  "midi": 49,
		  "name": "C#3",
		  "ticks": 150240,
		  "time": 121.161048,
		  "velocity": 0.7480314960629921
		},
		{
		  "duration": 0.19354800000000694,
		  "durationTicks": 240,
		  "midi": 42,
		  "name": "F#2",
		  "ticks": 150240,
		  "time": 121.161048,
		  "velocity": 0.7480314960629921
		},
		{
		  "duration": 0.07258050000000082,
		  "durationTicks": 90,
		  "midi": 42,
		  "name": "F#2",
		  "ticks": 152400,
		  "time": 122.90298,
		  "velocity": 0.5984251968503937
		},
		{
		  "duration": 0.07258050000000082,
		  "durationTicks": 90,
		  "midi": 42,
		  "name": "F#2",
		  "ticks": 152520,
		  "time": 122.999754,
		  "velocity": 0.5984251968503937
		},
		{
		  "duration": 0.14516100000000165,
		  "durationTicks": 180,
		  "midi": 42,
		  "name": "F#2",
		  "ticks": 152640,
		  "time": 123.09652799999999,
		  "velocity": 0.5984251968503937
		},
		{
		  "duration": 0.07258050000000082,
		  "durationTicks": 90,
		  "midi": 42,
		  "name": "F#2",
		  "ticks": 152880,
		  "time": 123.290076,
		  "velocity": 0.5984251968503937
		},
		{
		  "duration": 0.07258050000000082,
		  "durationTicks": 90,
		  "midi": 42,
		  "name": "F#2",
		  "ticks": 153000,
		  "time": 123.38685,
		  "velocity": 0.5984251968503937
		},
		{
		  "duration": 0.3870960000000139,
		  "durationTicks": 480,
		  "midi": 49,
		  "name": "C#3",
		  "ticks": 153120,
		  "time": 123.48362399999999,
		  "velocity": 0.7480314960629921
		},
		{
		  "duration": 0.3870960000000139,
		  "durationTicks": 480,
		  "midi": 42,
		  "name": "F#2",
		  "ticks": 153120,
		  "time": 123.48362399999999,
		  "velocity": 0.7480314960629921
		},
		{
		  "duration": 0.19354799999999273,
		  "durationTicks": 240,
		  "midi": 53,
		  "name": "F3",
		  "ticks": 153600,
		  "time": 123.87072,
		  "velocity": 0.7480314960629921
		},
		{
		  "duration": 0.19354799999999273,
		  "durationTicks": 240,
		  "midi": 46,
		  "name": "A#2",
		  "ticks": 153600,
		  "time": 123.87072,
		  "velocity": 0.7480314960629921
		},
		{
		  "duration": 0.19354800000000694,
		  "durationTicks": 240,
		  "midi": 53,
		  "name": "F3",
		  "ticks": 153840,
		  "time": 124.064268,
		  "velocity": 0.7480314960629921
		},
		{
		  "duration": 0.19354800000000694,
		  "durationTicks": 240,
		  "midi": 46,
		  "name": "A#2",
		  "ticks": 153840,
		  "time": 124.064268,
		  "velocity": 0.7480314960629921
		},
		{
		  "duration": 0.19354799999999273,
		  "durationTicks": 240,
		  "midi": 53,
		  "name": "F3",
		  "ticks": 154080,
		  "time": 124.257816,
		  "velocity": 0.7480314960629921
		},
		{
		  "duration": 0.19354799999999273,
		  "durationTicks": 240,
		  "midi": 46,
		  "name": "A#2",
		  "ticks": 154080,
		  "time": 124.257816,
		  "velocity": 0.7480314960629921
		},
		{
		  "duration": 0.19354800000000694,
		  "durationTicks": 240,
		  "midi": 53,
		  "name": "F3",
		  "ticks": 154320,
		  "time": 124.451364,
		  "velocity": 0.7480314960629921
		},
		{
		  "duration": 0.19354800000000694,
		  "durationTicks": 240,
		  "midi": 46,
		  "name": "A#2",
		  "ticks": 154320,
		  "time": 124.451364,
		  "velocity": 0.7480314960629921
		},
		{
		  "duration": 0.19354799999999273,
		  "durationTicks": 240,
		  "midi": 53,
		  "name": "F3",
		  "ticks": 154560,
		  "time": 124.644912,
		  "velocity": 0.7480314960629921
		},
		{
		  "duration": 0.19354799999999273,
		  "durationTicks": 240,
		  "midi": 46,
		  "name": "A#2",
		  "ticks": 154560,
		  "time": 124.644912,
		  "velocity": 0.7480314960629921
		},
		{
		  "duration": 0.19354800000000694,
		  "durationTicks": 240,
		  "midi": 53,
		  "name": "F3",
		  "ticks": 154800,
		  "time": 124.83846,
		  "velocity": 0.7480314960629921
		},
		{
		  "duration": 0.19354800000000694,
		  "durationTicks": 240,
		  "midi": 46,
		  "name": "A#2",
		  "ticks": 154800,
		  "time": 124.83846,
		  "velocity": 0.7480314960629921
		},
		{
		  "duration": 0.19354799999999273,
		  "durationTicks": 240,
		  "midi": 53,
		  "name": "F3",
		  "ticks": 155040,
		  "time": 125.032008,
		  "velocity": 0.7480314960629921
		},
		{
		  "duration": 0.19354799999999273,
		  "durationTicks": 240,
		  "midi": 46,
		  "name": "A#2",
		  "ticks": 155040,
		  "time": 125.032008,
		  "velocity": 0.7480314960629921
		},
		{
		  "duration": 0.19354800000000694,
		  "durationTicks": 240,
		  "midi": 53,
		  "name": "F3",
		  "ticks": 155280,
		  "time": 125.225556,
		  "velocity": 0.7480314960629921
		},
		{
		  "duration": 0.19354800000000694,
		  "durationTicks": 240,
		  "midi": 46,
		  "name": "A#2",
		  "ticks": 155280,
		  "time": 125.225556,
		  "velocity": 0.7480314960629921
		},
		{
		  "duration": 0.19354799999999273,
		  "durationTicks": 240,
		  "midi": 51,
		  "name": "D#3",
		  "ticks": 155520,
		  "time": 125.419104,
		  "velocity": 0.7480314960629921
		},
		{
		  "duration": 0.19354799999999273,
		  "durationTicks": 240,
		  "midi": 44,
		  "name": "G#2",
		  "ticks": 155520,
		  "time": 125.419104,
		  "velocity": 0.7480314960629921
		},
		{
		  "duration": 0.19354800000000694,
		  "durationTicks": 240,
		  "midi": 51,
		  "name": "D#3",
		  "ticks": 155760,
		  "time": 125.612652,
		  "velocity": 0.7480314960629921
		},
		{
		  "duration": 0.19354800000000694,
		  "durationTicks": 240,
		  "midi": 44,
		  "name": "G#2",
		  "ticks": 155760,
		  "time": 125.612652,
		  "velocity": 0.7480314960629921
		},
		{
		  "duration": 0.19354799999999273,
		  "durationTicks": 240,
		  "midi": 51,
		  "name": "D#3",
		  "ticks": 156000,
		  "time": 125.8062,
		  "velocity": 0.7480314960629921
		},
		{
		  "duration": 0.19354799999999273,
		  "durationTicks": 240,
		  "midi": 44,
		  "name": "G#2",
		  "ticks": 156000,
		  "time": 125.8062,
		  "velocity": 0.7480314960629921
		},
		{
		  "duration": 0.19354800000000694,
		  "durationTicks": 240,
		  "midi": 51,
		  "name": "D#3",
		  "ticks": 156240,
		  "time": 125.999748,
		  "velocity": 0.7480314960629921
		},
		{
		  "duration": 0.19354800000000694,
		  "durationTicks": 240,
		  "midi": 44,
		  "name": "G#2",
		  "ticks": 156240,
		  "time": 125.999748,
		  "velocity": 0.7480314960629921
		},
		{
		  "duration": 0.19354799999999273,
		  "durationTicks": 240,
		  "midi": 51,
		  "name": "D#3",
		  "ticks": 156480,
		  "time": 126.193296,
		  "velocity": 0.7480314960629921
		},
		{
		  "duration": 0.19354799999999273,
		  "durationTicks": 240,
		  "midi": 44,
		  "name": "G#2",
		  "ticks": 156480,
		  "time": 126.193296,
		  "velocity": 0.7480314960629921
		},
		{
		  "duration": 0.19354800000000694,
		  "durationTicks": 240,
		  "midi": 51,
		  "name": "D#3",
		  "ticks": 156720,
		  "time": 126.386844,
		  "velocity": 0.7480314960629921
		},
		{
		  "duration": 0.19354800000000694,
		  "durationTicks": 240,
		  "midi": 44,
		  "name": "G#2",
		  "ticks": 156720,
		  "time": 126.386844,
		  "velocity": 0.7480314960629921
		},
		{
		  "duration": 0.19354799999999273,
		  "durationTicks": 240,
		  "midi": 51,
		  "name": "D#3",
		  "ticks": 156960,
		  "time": 126.580392,
		  "velocity": 0.7480314960629921
		},
		{
		  "duration": 0.19354799999999273,
		  "durationTicks": 240,
		  "midi": 44,
		  "name": "G#2",
		  "ticks": 156960,
		  "time": 126.580392,
		  "velocity": 0.7480314960629921
		},
		{
		  "duration": 0.19354800000000694,
		  "durationTicks": 240,
		  "midi": 51,
		  "name": "D#3",
		  "ticks": 157200,
		  "time": 126.77394,
		  "velocity": 0.7480314960629921
		},
		{
		  "duration": 0.19354800000000694,
		  "durationTicks": 240,
		  "midi": 44,
		  "name": "G#2",
		  "ticks": 157200,
		  "time": 126.77394,
		  "velocity": 0.7480314960629921
		},
		{
		  "duration": 0.19354799999999273,
		  "durationTicks": 240,
		  "midi": 48,
		  "name": "C3",
		  "ticks": 157440,
		  "time": 126.967488,
		  "velocity": 0.7480314960629921
		},
		{
		  "duration": 0.19354799999999273,
		  "durationTicks": 240,
		  "midi": 41,
		  "name": "F2",
		  "ticks": 157440,
		  "time": 126.967488,
		  "velocity": 0.7480314960629921
		},
		{
		  "duration": 0.19354800000000694,
		  "durationTicks": 240,
		  "midi": 48,
		  "name": "C3",
		  "ticks": 157680,
		  "time": 127.161036,
		  "velocity": 0.7480314960629921
		},
		{
		  "duration": 0.19354800000000694,
		  "durationTicks": 240,
		  "midi": 41,
		  "name": "F2",
		  "ticks": 157680,
		  "time": 127.161036,
		  "velocity": 0.7480314960629921
		},
		{
		  "duration": 0.19354799999999273,
		  "durationTicks": 240,
		  "midi": 48,
		  "name": "C3",
		  "ticks": 157920,
		  "time": 127.354584,
		  "velocity": 0.7480314960629921
		},
		{
		  "duration": 0.19354799999999273,
		  "durationTicks": 240,
		  "midi": 41,
		  "name": "F2",
		  "ticks": 157920,
		  "time": 127.354584,
		  "velocity": 0.7480314960629921
		},
		{
		  "duration": 0.19354800000000694,
		  "durationTicks": 240,
		  "midi": 48,
		  "name": "C3",
		  "ticks": 158160,
		  "time": 127.548132,
		  "velocity": 0.7480314960629921
		},
		{
		  "duration": 0.19354800000000694,
		  "durationTicks": 240,
		  "midi": 41,
		  "name": "F2",
		  "ticks": 158160,
		  "time": 127.548132,
		  "velocity": 0.7480314960629921
		},
		{
		  "duration": 0.19354799999999273,
		  "durationTicks": 240,
		  "midi": 48,
		  "name": "C3",
		  "ticks": 158400,
		  "time": 127.74168,
		  "velocity": 0.7480314960629921
		},
		{
		  "duration": 0.19354799999999273,
		  "durationTicks": 240,
		  "midi": 41,
		  "name": "F2",
		  "ticks": 158400,
		  "time": 127.74168,
		  "velocity": 0.7480314960629921
		},
		{
		  "duration": 0.19354799999999273,
		  "durationTicks": 240,
		  "midi": 48,
		  "name": "C3",
		  "ticks": 158640,
		  "time": 127.935228,
		  "velocity": 0.7480314960629921
		},
		{
		  "duration": 0.19354799999999273,
		  "durationTicks": 240,
		  "midi": 41,
		  "name": "F2",
		  "ticks": 158640,
		  "time": 127.935228,
		  "velocity": 0.7480314960629921
		},
		{
		  "duration": 0.19354800000002115,
		  "durationTicks": 240,
		  "midi": 48,
		  "name": "C3",
		  "ticks": 158880,
		  "time": 128.128776,
		  "velocity": 0.7480314960629921
		},
		{
		  "duration": 0.19354800000002115,
		  "durationTicks": 240,
		  "midi": 41,
		  "name": "F2",
		  "ticks": 158880,
		  "time": 128.128776,
		  "velocity": 0.7480314960629921
		},
		{
		  "duration": 0.19354799999999273,
		  "durationTicks": 240,
		  "midi": 48,
		  "name": "C3",
		  "ticks": 159120,
		  "time": 128.322324,
		  "velocity": 0.7480314960629921
		},
		{
		  "duration": 0.19354799999999273,
		  "durationTicks": 240,
		  "midi": 41,
		  "name": "F2",
		  "ticks": 159120,
		  "time": 128.322324,
		  "velocity": 0.7480314960629921
		},
		{
		  "duration": 0.2903220000000033,
		  "durationTicks": 360,
		  "midi": 53,
		  "name": "F3",
		  "ticks": 159360,
		  "time": 128.515872,
		  "velocity": 0.5984251968503937
		},
		{
		  "duration": 0.2903220000000033,
		  "durationTicks": 360,
		  "midi": 46,
		  "name": "A#2",
		  "ticks": 159360,
		  "time": 128.515872,
		  "velocity": 0.5984251968503937
		},
		{
		  "duration": 0.2903220000000033,
		  "durationTicks": 360,
		  "midi": 53,
		  "name": "F3",
		  "ticks": 159840,
		  "time": 128.902968,
		  "velocity": 0.5984251968503937
		},
		{
		  "duration": 0.2903220000000033,
		  "durationTicks": 360,
		  "midi": 46,
		  "name": "A#2",
		  "ticks": 159840,
		  "time": 128.902968,
		  "velocity": 0.5984251968503937
		},
		{
		  "duration": 0.2903220000000033,
		  "durationTicks": 360,
		  "midi": 53,
		  "name": "F3",
		  "ticks": 160320,
		  "time": 129.290064,
		  "velocity": 0.5984251968503937
		},
		{
		  "duration": 0.2903220000000033,
		  "durationTicks": 360,
		  "midi": 46,
		  "name": "A#2",
		  "ticks": 160320,
		  "time": 129.290064,
		  "velocity": 0.5984251968503937
		},
		{
		  "duration": 0.19354800000002115,
		  "durationTicks": 240,
		  "midi": 53,
		  "name": "F3",
		  "ticks": 160800,
		  "time": 129.67716,
		  "velocity": 0.7480314960629921
		},
		{
		  "duration": 0.19354800000002115,
		  "durationTicks": 240,
		  "midi": 46,
		  "name": "A#2",
		  "ticks": 160800,
		  "time": 129.67716,
		  "velocity": 0.7480314960629921
		},
		{
		  "duration": 0.19354799999999273,
		  "durationTicks": 240,
		  "midi": 51,
		  "name": "D#3",
		  "ticks": 161040,
		  "time": 129.870708,
		  "velocity": 0.7480314960629921
		},
		{
		  "duration": 0.19354799999999273,
		  "durationTicks": 240,
		  "midi": 44,
		  "name": "G#2",
		  "ticks": 161040,
		  "time": 129.870708,
		  "velocity": 0.7480314960629921
		},
		{
		  "duration": 0.19354799999999273,
		  "durationTicks": 240,
		  "midi": 51,
		  "name": "D#3",
		  "ticks": 161520,
		  "time": 130.257804,
		  "velocity": 0.7480314960629921
		},
		{
		  "duration": 0.19354799999999273,
		  "durationTicks": 240,
		  "midi": 44,
		  "name": "G#2",
		  "ticks": 161520,
		  "time": 130.257804,
		  "velocity": 0.7480314960629921
		},
		{
		  "duration": 0.19354800000002115,
		  "durationTicks": 240,
		  "midi": 51,
		  "name": "D#3",
		  "ticks": 161760,
		  "time": 130.45135199999999,
		  "velocity": 0.7480314960629921
		},
		{
		  "duration": 0.19354800000002115,
		  "durationTicks": 240,
		  "midi": 44,
		  "name": "G#2",
		  "ticks": 161760,
		  "time": 130.45135199999999,
		  "velocity": 0.7480314960629921
		},
		{
		  "duration": 0.19354799999999273,
		  "durationTicks": 240,
		  "midi": 53,
		  "name": "F3",
		  "ticks": 162000,
		  "time": 130.6449,
		  "velocity": 0.7480314960629921
		},
		{
		  "duration": 0.19354799999999273,
		  "durationTicks": 240,
		  "midi": 46,
		  "name": "A#2",
		  "ticks": 162000,
		  "time": 130.6449,
		  "velocity": 0.7480314960629921
		},
		{
		  "duration": 0.19354799999999273,
		  "durationTicks": 240,
		  "midi": 53,
		  "name": "F3",
		  "ticks": 163200,
		  "time": 131.61264,
		  "velocity": 0.7480314960629921
		},
		{
		  "duration": 0.19354799999999273,
		  "durationTicks": 240,
		  "midi": 46,
		  "name": "A#2",
		  "ticks": 163200,
		  "time": 131.61264,
		  "velocity": 0.7480314960629921
		},
		{
		  "duration": 0.19354799999999273,
		  "durationTicks": 240,
		  "midi": 53,
		  "name": "F3",
		  "ticks": 163440,
		  "time": 131.806188,
		  "velocity": 0.7480314960629921
		},
		{
		  "duration": 0.19354799999999273,
		  "durationTicks": 240,
		  "midi": 46,
		  "name": "A#2",
		  "ticks": 163440,
		  "time": 131.806188,
		  "velocity": 0.7480314960629921
		},
		{
		  "duration": 0.19354800000002115,
		  "durationTicks": 240,
		  "midi": 53,
		  "name": "F3",
		  "ticks": 163680,
		  "time": 131.99973599999998,
		  "velocity": 0.7480314960629921
		},
		{
		  "duration": 0.19354800000002115,
		  "durationTicks": 240,
		  "midi": 46,
		  "name": "A#2",
		  "ticks": 163680,
		  "time": 131.99973599999998,
		  "velocity": 0.7480314960629921
		},
		{
		  "duration": 0.19354799999999273,
		  "durationTicks": 240,
		  "midi": 53,
		  "name": "F3",
		  "ticks": 163920,
		  "time": 132.193284,
		  "velocity": 0.7480314960629921
		},
		{
		  "duration": 0.19354799999999273,
		  "durationTicks": 240,
		  "midi": 46,
		  "name": "A#2",
		  "ticks": 163920,
		  "time": 132.193284,
		  "velocity": 0.7480314960629921
		},
		{
		  "duration": 0.19354799999999273,
		  "durationTicks": 240,
		  "midi": 53,
		  "name": "F3",
		  "ticks": 164160,
		  "time": 132.386832,
		  "velocity": 0.7480314960629921
		},
		{
		  "duration": 0.19354799999999273,
		  "durationTicks": 240,
		  "midi": 46,
		  "name": "A#2",
		  "ticks": 164160,
		  "time": 132.386832,
		  "velocity": 0.7480314960629921
		},
		{
		  "duration": 0.19354800000002115,
		  "durationTicks": 240,
		  "midi": 53,
		  "name": "F3",
		  "ticks": 164400,
		  "time": 132.58038,
		  "velocity": 0.7480314960629921
		},
		{
		  "duration": 0.19354800000002115,
		  "durationTicks": 240,
		  "midi": 46,
		  "name": "A#2",
		  "ticks": 164400,
		  "time": 132.58038,
		  "velocity": 0.7480314960629921
		},
		{
		  "duration": 0.19354799999999273,
		  "durationTicks": 240,
		  "midi": 53,
		  "name": "F3",
		  "ticks": 164640,
		  "time": 132.773928,
		  "velocity": 0.7480314960629921
		},
		{
		  "duration": 0.19354799999999273,
		  "durationTicks": 240,
		  "midi": 46,
		  "name": "A#2",
		  "ticks": 164640,
		  "time": 132.773928,
		  "velocity": 0.7480314960629921
		},
		{
		  "duration": 0.19354799999999273,
		  "durationTicks": 240,
		  "midi": 53,
		  "name": "F3",
		  "ticks": 164880,
		  "time": 132.967476,
		  "velocity": 0.7480314960629921
		},
		{
		  "duration": 0.19354799999999273,
		  "durationTicks": 240,
		  "midi": 46,
		  "name": "A#2",
		  "ticks": 164880,
		  "time": 132.967476,
		  "velocity": 0.7480314960629921
		},
		{
		  "duration": 0.19354799999999273,
		  "durationTicks": 240,
		  "midi": 53,
		  "name": "F3",
		  "ticks": 165120,
		  "time": 133.161024,
		  "velocity": 0.7480314960629921
		},
		{
		  "duration": 0.19354799999999273,
		  "durationTicks": 240,
		  "midi": 46,
		  "name": "A#2",
		  "ticks": 165120,
		  "time": 133.161024,
		  "velocity": 0.7480314960629921
		},
		{
		  "duration": 0.19354800000002115,
		  "durationTicks": 240,
		  "midi": 53,
		  "name": "F3",
		  "ticks": 165360,
		  "time": 133.354572,
		  "velocity": 0.7480314960629921
		},
		{
		  "duration": 0.19354800000002115,
		  "durationTicks": 240,
		  "midi": 46,
		  "name": "A#2",
		  "ticks": 165360,
		  "time": 133.354572,
		  "velocity": 0.7480314960629921
		},
		{
		  "duration": 0.19354799999999273,
		  "durationTicks": 240,
		  "midi": 53,
		  "name": "F3",
		  "ticks": 165600,
		  "time": 133.54812,
		  "velocity": 0.7480314960629921
		},
		{
		  "duration": 0.19354799999999273,
		  "durationTicks": 240,
		  "midi": 46,
		  "name": "A#2",
		  "ticks": 165600,
		  "time": 133.54812,
		  "velocity": 0.7480314960629921
		},
		{
		  "duration": 0.19354799999999273,
		  "durationTicks": 240,
		  "midi": 53,
		  "name": "F3",
		  "ticks": 165840,
		  "time": 133.741668,
		  "velocity": 0.7480314960629921
		},
		{
		  "duration": 0.19354799999999273,
		  "durationTicks": 240,
		  "midi": 46,
		  "name": "A#2",
		  "ticks": 165840,
		  "time": 133.741668,
		  "velocity": 0.7480314960629921
		},
		{
		  "duration": 0.19354799999999273,
		  "durationTicks": 240,
		  "midi": 53,
		  "name": "F3",
		  "ticks": 166080,
		  "time": 133.935216,
		  "velocity": 0.7480314960629921
		},
		{
		  "duration": 0.19354799999999273,
		  "durationTicks": 240,
		  "midi": 46,
		  "name": "A#2",
		  "ticks": 166080,
		  "time": 133.935216,
		  "velocity": 0.7480314960629921
		},
		{
		  "duration": 0.19354800000002115,
		  "durationTicks": 240,
		  "midi": 53,
		  "name": "F3",
		  "ticks": 166320,
		  "time": 134.128764,
		  "velocity": 0.7480314960629921
		},
		{
		  "duration": 0.19354800000002115,
		  "durationTicks": 240,
		  "midi": 46,
		  "name": "A#2",
		  "ticks": 166320,
		  "time": 134.128764,
		  "velocity": 0.7480314960629921
		},
		{
		  "duration": 0.19354799999999273,
		  "durationTicks": 240,
		  "midi": 53,
		  "name": "F3",
		  "ticks": 166560,
		  "time": 134.322312,
		  "velocity": 0.7480314960629921
		},
		{
		  "duration": 0.19354799999999273,
		  "durationTicks": 240,
		  "midi": 46,
		  "name": "A#2",
		  "ticks": 166560,
		  "time": 134.322312,
		  "velocity": 0.7480314960629921
		},
		{
		  "duration": 0.19354799999999273,
		  "durationTicks": 240,
		  "midi": 53,
		  "name": "F3",
		  "ticks": 166800,
		  "time": 134.51586,
		  "velocity": 0.7480314960629921
		},
		{
		  "duration": 0.19354799999999273,
		  "durationTicks": 240,
		  "midi": 46,
		  "name": "A#2",
		  "ticks": 166800,
		  "time": 134.51586,
		  "velocity": 0.7480314960629921
		},
		{
		  "duration": 0.19354799999999273,
		  "durationTicks": 240,
		  "midi": 51,
		  "name": "D#3",
		  "ticks": 167040,
		  "time": 134.709408,
		  "velocity": 0.7480314960629921
		},
		{
		  "duration": 0.19354799999999273,
		  "durationTicks": 240,
		  "midi": 44,
		  "name": "G#2",
		  "ticks": 167040,
		  "time": 134.709408,
		  "velocity": 0.7480314960629921
		},
		{
		  "duration": 0.19354800000002115,
		  "durationTicks": 240,
		  "midi": 51,
		  "name": "D#3",
		  "ticks": 167280,
		  "time": 134.902956,
		  "velocity": 0.7480314960629921
		},
		{
		  "duration": 0.19354800000002115,
		  "durationTicks": 240,
		  "midi": 44,
		  "name": "G#2",
		  "ticks": 167280,
		  "time": 134.902956,
		  "velocity": 0.7480314960629921
		},
		{
		  "duration": 0.19354799999999273,
		  "durationTicks": 240,
		  "midi": 51,
		  "name": "D#3",
		  "ticks": 167520,
		  "time": 135.096504,
		  "velocity": 0.7480314960629921
		},
		{
		  "duration": 0.19354799999999273,
		  "durationTicks": 240,
		  "midi": 44,
		  "name": "G#2",
		  "ticks": 167520,
		  "time": 135.096504,
		  "velocity": 0.7480314960629921
		},
		{
		  "duration": 0.19354799999999273,
		  "durationTicks": 240,
		  "midi": 51,
		  "name": "D#3",
		  "ticks": 167760,
		  "time": 135.290052,
		  "velocity": 0.7480314960629921
		},
		{
		  "duration": 0.19354799999999273,
		  "durationTicks": 240,
		  "midi": 44,
		  "name": "G#2",
		  "ticks": 167760,
		  "time": 135.290052,
		  "velocity": 0.7480314960629921
		},
		{
		  "duration": 0.19354799999999273,
		  "durationTicks": 240,
		  "midi": 51,
		  "name": "D#3",
		  "ticks": 168000,
		  "time": 135.4836,
		  "velocity": 0.7480314960629921
		},
		{
		  "duration": 0.19354799999999273,
		  "durationTicks": 240,
		  "midi": 44,
		  "name": "G#2",
		  "ticks": 168000,
		  "time": 135.4836,
		  "velocity": 0.7480314960629921
		},
		{
		  "duration": 0.19354800000002115,
		  "durationTicks": 240,
		  "midi": 51,
		  "name": "D#3",
		  "ticks": 168240,
		  "time": 135.677148,
		  "velocity": 0.7480314960629921
		},
		{
		  "duration": 0.19354800000002115,
		  "durationTicks": 240,
		  "midi": 44,
		  "name": "G#2",
		  "ticks": 168240,
		  "time": 135.677148,
		  "velocity": 0.7480314960629921
		},
		{
		  "duration": 0.19354799999999273,
		  "durationTicks": 240,
		  "midi": 51,
		  "name": "D#3",
		  "ticks": 168480,
		  "time": 135.870696,
		  "velocity": 0.7480314960629921
		},
		{
		  "duration": 0.19354799999999273,
		  "durationTicks": 240,
		  "midi": 44,
		  "name": "G#2",
		  "ticks": 168480,
		  "time": 135.870696,
		  "velocity": 0.7480314960629921
		},
		{
		  "duration": 0.19354799999999273,
		  "durationTicks": 240,
		  "midi": 51,
		  "name": "D#3",
		  "ticks": 168720,
		  "time": 136.064244,
		  "velocity": 0.7480314960629921
		},
		{
		  "duration": 0.19354799999999273,
		  "durationTicks": 240,
		  "midi": 44,
		  "name": "G#2",
		  "ticks": 168720,
		  "time": 136.064244,
		  "velocity": 0.7480314960629921
		},
		{
		  "duration": 0.19354799999999273,
		  "durationTicks": 240,
		  "midi": 53,
		  "name": "F3",
		  "ticks": 168960,
		  "time": 136.257792,
		  "velocity": 0.7480314960629921
		},
		{
		  "duration": 0.19354799999999273,
		  "durationTicks": 240,
		  "midi": 46,
		  "name": "A#2",
		  "ticks": 168960,
		  "time": 136.257792,
		  "velocity": 0.7480314960629921
		},
		{
		  "duration": 0.19354800000002115,
		  "durationTicks": 240,
		  "midi": 53,
		  "name": "F3",
		  "ticks": 169200,
		  "time": 136.45134,
		  "velocity": 0.7480314960629921
		},
		{
		  "duration": 0.19354800000002115,
		  "durationTicks": 240,
		  "midi": 46,
		  "name": "A#2",
		  "ticks": 169200,
		  "time": 136.45134,
		  "velocity": 0.7480314960629921
		},
		{
		  "duration": 0.19354799999999273,
		  "durationTicks": 240,
		  "midi": 53,
		  "name": "F3",
		  "ticks": 169440,
		  "time": 136.644888,
		  "velocity": 0.7480314960629921
		},
		{
		  "duration": 0.19354799999999273,
		  "durationTicks": 240,
		  "midi": 46,
		  "name": "A#2",
		  "ticks": 169440,
		  "time": 136.644888,
		  "velocity": 0.7480314960629921
		},
		{
		  "duration": 0.19354799999999273,
		  "durationTicks": 240,
		  "midi": 53,
		  "name": "F3",
		  "ticks": 169680,
		  "time": 136.838436,
		  "velocity": 0.7480314960629921
		},
		{
		  "duration": 0.19354799999999273,
		  "durationTicks": 240,
		  "midi": 46,
		  "name": "A#2",
		  "ticks": 169680,
		  "time": 136.838436,
		  "velocity": 0.7480314960629921
		},
		{
		  "duration": 0.19354799999999273,
		  "durationTicks": 240,
		  "midi": 53,
		  "name": "F3",
		  "ticks": 169920,
		  "time": 137.031984,
		  "velocity": 0.7480314960629921
		},
		{
		  "duration": 0.19354799999999273,
		  "durationTicks": 240,
		  "midi": 46,
		  "name": "A#2",
		  "ticks": 169920,
		  "time": 137.031984,
		  "velocity": 0.7480314960629921
		},
		{
		  "duration": 0.19354800000002115,
		  "durationTicks": 240,
		  "midi": 53,
		  "name": "F3",
		  "ticks": 170160,
		  "time": 137.225532,
		  "velocity": 0.7480314960629921
		},
		{
		  "duration": 0.19354800000002115,
		  "durationTicks": 240,
		  "midi": 46,
		  "name": "A#2",
		  "ticks": 170160,
		  "time": 137.225532,
		  "velocity": 0.7480314960629921
		},
		{
		  "duration": 0.19354799999999273,
		  "durationTicks": 240,
		  "midi": 53,
		  "name": "F3",
		  "ticks": 170400,
		  "time": 137.41908,
		  "velocity": 0.7480314960629921
		},
		{
		  "duration": 0.19354799999999273,
		  "durationTicks": 240,
		  "midi": 46,
		  "name": "A#2",
		  "ticks": 170400,
		  "time": 137.41908,
		  "velocity": 0.7480314960629921
		},
		{
		  "duration": 0.19354799999999273,
		  "durationTicks": 240,
		  "midi": 53,
		  "name": "F3",
		  "ticks": 170640,
		  "time": 137.612628,
		  "velocity": 0.7480314960629921
		},
		{
		  "duration": 0.19354799999999273,
		  "durationTicks": 240,
		  "midi": 46,
		  "name": "A#2",
		  "ticks": 170640,
		  "time": 137.612628,
		  "velocity": 0.7480314960629921
		},
		{
		  "duration": 0.19354799999999273,
		  "durationTicks": 240,
		  "midi": 51,
		  "name": "D#3",
		  "ticks": 170880,
		  "time": 137.806176,
		  "velocity": 0.7480314960629921
		},
		{
		  "duration": 0.19354799999999273,
		  "durationTicks": 240,
		  "midi": 44,
		  "name": "G#2",
		  "ticks": 170880,
		  "time": 137.806176,
		  "velocity": 0.7480314960629921
		},
		{
		  "duration": 0.19354800000002115,
		  "durationTicks": 240,
		  "midi": 51,
		  "name": "D#3",
		  "ticks": 171120,
		  "time": 137.999724,
		  "velocity": 0.7480314960629921
		},
		{
		  "duration": 0.19354800000002115,
		  "durationTicks": 240,
		  "midi": 44,
		  "name": "G#2",
		  "ticks": 171120,
		  "time": 137.999724,
		  "velocity": 0.7480314960629921
		},
		{
		  "duration": 0.19354799999999273,
		  "durationTicks": 240,
		  "midi": 51,
		  "name": "D#3",
		  "ticks": 171360,
		  "time": 138.193272,
		  "velocity": 0.7480314960629921
		},
		{
		  "duration": 0.19354799999999273,
		  "durationTicks": 240,
		  "midi": 44,
		  "name": "G#2",
		  "ticks": 171360,
		  "time": 138.193272,
		  "velocity": 0.7480314960629921
		},
		{
		  "duration": 0.19354799999999273,
		  "durationTicks": 240,
		  "midi": 51,
		  "name": "D#3",
		  "ticks": 171600,
		  "time": 138.38682,
		  "velocity": 0.7480314960629921
		},
		{
		  "duration": 0.19354799999999273,
		  "durationTicks": 240,
		  "midi": 44,
		  "name": "G#2",
		  "ticks": 171600,
		  "time": 138.38682,
		  "velocity": 0.7480314960629921
		},
		{
		  "duration": 0.19354799999999273,
		  "durationTicks": 240,
		  "midi": 51,
		  "name": "D#3",
		  "ticks": 171840,
		  "time": 138.580368,
		  "velocity": 0.7480314960629921
		},
		{
		  "duration": 0.19354799999999273,
		  "durationTicks": 240,
		  "midi": 44,
		  "name": "G#2",
		  "ticks": 171840,
		  "time": 138.580368,
		  "velocity": 0.7480314960629921
		},
		{
		  "duration": 0.19354800000002115,
		  "durationTicks": 240,
		  "midi": 51,
		  "name": "D#3",
		  "ticks": 172080,
		  "time": 138.77391599999999,
		  "velocity": 0.7480314960629921
		},
		{
		  "duration": 0.19354800000002115,
		  "durationTicks": 240,
		  "midi": 44,
		  "name": "G#2",
		  "ticks": 172080,
		  "time": 138.77391599999999,
		  "velocity": 0.7480314960629921
		},
		{
		  "duration": 0.19354799999999273,
		  "durationTicks": 240,
		  "midi": 51,
		  "name": "D#3",
		  "ticks": 172320,
		  "time": 138.967464,
		  "velocity": 0.7480314960629921
		},
		{
		  "duration": 0.19354799999999273,
		  "durationTicks": 240,
		  "midi": 44,
		  "name": "G#2",
		  "ticks": 172320,
		  "time": 138.967464,
		  "velocity": 0.7480314960629921
		},
		{
		  "duration": 0.19354799999999273,
		  "durationTicks": 240,
		  "midi": 51,
		  "name": "D#3",
		  "ticks": 172560,
		  "time": 139.161012,
		  "velocity": 0.7480314960629921
		},
		{
		  "duration": 0.19354799999999273,
		  "durationTicks": 240,
		  "midi": 44,
		  "name": "G#2",
		  "ticks": 172560,
		  "time": 139.161012,
		  "velocity": 0.7480314960629921
		},
		{
		  "duration": 0.19354799999999273,
		  "durationTicks": 240,
		  "midi": 49,
		  "name": "C#3",
		  "ticks": 172800,
		  "time": 139.35456,
		  "velocity": 0.7480314960629921
		},
		{
		  "duration": 0.19354799999999273,
		  "durationTicks": 240,
		  "midi": 42,
		  "name": "F#2",
		  "ticks": 172800,
		  "time": 139.35456,
		  "velocity": 0.7480314960629921
		},
		{
		  "duration": 0.19354800000002115,
		  "durationTicks": 240,
		  "midi": 49,
		  "name": "C#3",
		  "ticks": 173040,
		  "time": 139.54810799999998,
		  "velocity": 0.7480314960629921
		},
		{
		  "duration": 0.19354800000002115,
		  "durationTicks": 240,
		  "midi": 42,
		  "name": "F#2",
		  "ticks": 173040,
		  "time": 139.54810799999998,
		  "velocity": 0.7480314960629921
		},
		{
		  "duration": 0.19354799999999273,
		  "durationTicks": 240,
		  "midi": 49,
		  "name": "C#3",
		  "ticks": 173280,
		  "time": 139.741656,
		  "velocity": 0.7480314960629921
		},
		{
		  "duration": 0.19354799999999273,
		  "durationTicks": 240,
		  "midi": 42,
		  "name": "F#2",
		  "ticks": 173280,
		  "time": 139.741656,
		  "velocity": 0.7480314960629921
		},
		{
		  "duration": 0.19354799999999273,
		  "durationTicks": 240,
		  "midi": 49,
		  "name": "C#3",
		  "ticks": 173520,
		  "time": 139.935204,
		  "velocity": 0.7480314960629921
		},
		{
		  "duration": 0.19354799999999273,
		  "durationTicks": 240,
		  "midi": 42,
		  "name": "F#2",
		  "ticks": 173520,
		  "time": 139.935204,
		  "velocity": 0.7480314960629921
		},
		{
		  "duration": 0.19354799999999273,
		  "durationTicks": 240,
		  "midi": 49,
		  "name": "C#3",
		  "ticks": 173760,
		  "time": 140.128752,
		  "velocity": 0.7480314960629921
		},
		{
		  "duration": 0.19354799999999273,
		  "durationTicks": 240,
		  "midi": 42,
		  "name": "F#2",
		  "ticks": 173760,
		  "time": 140.128752,
		  "velocity": 0.7480314960629921
		},
		{
		  "duration": 0.19354800000002115,
		  "durationTicks": 240,
		  "midi": 49,
		  "name": "C#3",
		  "ticks": 174000,
		  "time": 140.32229999999998,
		  "velocity": 0.7480314960629921
		},
		{
		  "duration": 0.19354800000002115,
		  "durationTicks": 240,
		  "midi": 42,
		  "name": "F#2",
		  "ticks": 174000,
		  "time": 140.32229999999998,
		  "velocity": 0.7480314960629921
		},
		{
		  "duration": 0.19354799999999273,
		  "durationTicks": 240,
		  "midi": 49,
		  "name": "C#3",
		  "ticks": 174240,
		  "time": 140.515848,
		  "velocity": 0.7480314960629921
		},
		{
		  "duration": 0.19354799999999273,
		  "durationTicks": 240,
		  "midi": 42,
		  "name": "F#2",
		  "ticks": 174240,
		  "time": 140.515848,
		  "velocity": 0.7480314960629921
		},
		{
		  "duration": 0.19354799999999273,
		  "durationTicks": 240,
		  "midi": 49,
		  "name": "C#3",
		  "ticks": 174480,
		  "time": 140.709396,
		  "velocity": 0.7480314960629921
		},
		{
		  "duration": 0.19354799999999273,
		  "durationTicks": 240,
		  "midi": 42,
		  "name": "F#2",
		  "ticks": 174480,
		  "time": 140.709396,
		  "velocity": 0.7480314960629921
		},
		{
		  "duration": 0.19354800000002115,
		  "durationTicks": 240,
		  "midi": 48,
		  "name": "C3",
		  "ticks": 174720,
		  "time": 140.902944,
		  "velocity": 0.7480314960629921
		},
		{
		  "duration": 0.19354800000002115,
		  "durationTicks": 240,
		  "midi": 41,
		  "name": "F2",
		  "ticks": 174720,
		  "time": 140.902944,
		  "velocity": 0.7480314960629921
		},
		{
		  "duration": 0.19354799999999273,
		  "durationTicks": 240,
		  "midi": 48,
		  "name": "C3",
		  "ticks": 174960,
		  "time": 141.096492,
		  "velocity": 0.7480314960629921
		},
		{
		  "duration": 0.19354799999999273,
		  "durationTicks": 240,
		  "midi": 41,
		  "name": "F2",
		  "ticks": 174960,
		  "time": 141.096492,
		  "velocity": 0.7480314960629921
		},
		{
		  "duration": 0.19354799999999273,
		  "durationTicks": 240,
		  "midi": 48,
		  "name": "C3",
		  "ticks": 175200,
		  "time": 141.29004,
		  "velocity": 0.7480314960629921
		},
		{
		  "duration": 0.19354799999999273,
		  "durationTicks": 240,
		  "midi": 41,
		  "name": "F2",
		  "ticks": 175200,
		  "time": 141.29004,
		  "velocity": 0.7480314960629921
		},
		{
		  "duration": 0.19354799999999273,
		  "durationTicks": 240,
		  "midi": 48,
		  "name": "C3",
		  "ticks": 175440,
		  "time": 141.483588,
		  "velocity": 0.7480314960629921
		},
		{
		  "duration": 0.19354799999999273,
		  "durationTicks": 240,
		  "midi": 41,
		  "name": "F2",
		  "ticks": 175440,
		  "time": 141.483588,
		  "velocity": 0.7480314960629921
		},
		{
		  "duration": 0.19354800000002115,
		  "durationTicks": 240,
		  "midi": 48,
		  "name": "C3",
		  "ticks": 175680,
		  "time": 141.677136,
		  "velocity": 0.7480314960629921
		},
		{
		  "duration": 0.19354800000002115,
		  "durationTicks": 240,
		  "midi": 41,
		  "name": "F2",
		  "ticks": 175680,
		  "time": 141.677136,
		  "velocity": 0.7480314960629921
		},
		{
		  "duration": 0.19354799999999273,
		  "durationTicks": 240,
		  "midi": 48,
		  "name": "C3",
		  "ticks": 175920,
		  "time": 141.870684,
		  "velocity": 0.7480314960629921
		},
		{
		  "duration": 0.19354799999999273,
		  "durationTicks": 240,
		  "midi": 41,
		  "name": "F2",
		  "ticks": 175920,
		  "time": 141.870684,
		  "velocity": 0.7480314960629921
		},
		{
		  "duration": 0.19354799999999273,
		  "durationTicks": 240,
		  "midi": 48,
		  "name": "C3",
		  "ticks": 176160,
		  "time": 142.064232,
		  "velocity": 0.7480314960629921
		},
		{
		  "duration": 0.19354799999999273,
		  "durationTicks": 240,
		  "midi": 41,
		  "name": "F2",
		  "ticks": 176160,
		  "time": 142.064232,
		  "velocity": 0.7480314960629921
		},
		{
		  "duration": 0.19354799999999273,
		  "durationTicks": 240,
		  "midi": 48,
		  "name": "C3",
		  "ticks": 176400,
		  "time": 142.25778,
		  "velocity": 0.7480314960629921
		},
		{
		  "duration": 0.19354799999999273,
		  "durationTicks": 240,
		  "midi": 41,
		  "name": "F2",
		  "ticks": 176400,
		  "time": 142.25778,
		  "velocity": 0.7480314960629921
		},
		{
		  "duration": 0.19354800000002115,
		  "durationTicks": 240,
		  "midi": 53,
		  "name": "F3",
		  "ticks": 176640,
		  "time": 142.451328,
		  "velocity": 0.7480314960629921
		},
		{
		  "duration": 0.19354800000002115,
		  "durationTicks": 240,
		  "midi": 46,
		  "name": "A#2",
		  "ticks": 176640,
		  "time": 142.451328,
		  "velocity": 0.7480314960629921
		},
		{
		  "duration": 0.19354799999999273,
		  "durationTicks": 240,
		  "midi": 53,
		  "name": "F3",
		  "ticks": 176880,
		  "time": 142.644876,
		  "velocity": 0.7480314960629921
		},
		{
		  "duration": 0.19354799999999273,
		  "durationTicks": 240,
		  "midi": 46,
		  "name": "A#2",
		  "ticks": 176880,
		  "time": 142.644876,
		  "velocity": 0.7480314960629921
		},
		{
		  "duration": 0.19354799999999273,
		  "durationTicks": 240,
		  "midi": 53,
		  "name": "F3",
		  "ticks": 177120,
		  "time": 142.838424,
		  "velocity": 0.7480314960629921
		},
		{
		  "duration": 0.19354799999999273,
		  "durationTicks": 240,
		  "midi": 46,
		  "name": "A#2",
		  "ticks": 177120,
		  "time": 142.838424,
		  "velocity": 0.7480314960629921
		},
		{
		  "duration": 0.19354799999999273,
		  "durationTicks": 240,
		  "midi": 53,
		  "name": "F3",
		  "ticks": 177360,
		  "time": 143.031972,
		  "velocity": 0.7480314960629921
		},
		{
		  "duration": 0.19354799999999273,
		  "durationTicks": 240,
		  "midi": 46,
		  "name": "A#2",
		  "ticks": 177360,
		  "time": 143.031972,
		  "velocity": 0.7480314960629921
		},
		{
		  "duration": 0.19354800000002115,
		  "durationTicks": 240,
		  "midi": 53,
		  "name": "F3",
		  "ticks": 177600,
		  "time": 143.22552,
		  "velocity": 0.7480314960629921
		},
		{
		  "duration": 0.19354800000002115,
		  "durationTicks": 240,
		  "midi": 46,
		  "name": "A#2",
		  "ticks": 177600,
		  "time": 143.22552,
		  "velocity": 0.7480314960629921
		},
		{
		  "duration": 0.19354799999999273,
		  "durationTicks": 240,
		  "midi": 51,
		  "name": "D#3",
		  "ticks": 177840,
		  "time": 143.419068,
		  "velocity": 0.7480314960629921
		},
		{
		  "duration": 0.19354799999999273,
		  "durationTicks": 240,
		  "midi": 44,
		  "name": "G#2",
		  "ticks": 177840,
		  "time": 143.419068,
		  "velocity": 0.7480314960629921
		},
		{
		  "duration": 0.19354799999999273,
		  "durationTicks": 240,
		  "midi": 51,
		  "name": "D#3",
		  "ticks": 178080,
		  "time": 143.612616,
		  "velocity": 0.7480314960629921
		},
		{
		  "duration": 0.19354799999999273,
		  "durationTicks": 240,
		  "midi": 44,
		  "name": "G#2",
		  "ticks": 178080,
		  "time": 143.612616,
		  "velocity": 0.7480314960629921
		},
		{
		  "duration": 0.19354799999999273,
		  "durationTicks": 240,
		  "midi": 51,
		  "name": "D#3",
		  "ticks": 178320,
		  "time": 143.806164,
		  "velocity": 0.7480314960629921
		},
		{
		  "duration": 0.19354799999999273,
		  "durationTicks": 240,
		  "midi": 44,
		  "name": "G#2",
		  "ticks": 178320,
		  "time": 143.806164,
		  "velocity": 0.7480314960629921
		},
		{
		  "duration": 0.19354800000002115,
		  "durationTicks": 240,
		  "midi": 53,
		  "name": "F3",
		  "ticks": 178560,
		  "time": 143.999712,
		  "velocity": 0.7480314960629921
		},
		{
		  "duration": 0.19354800000002115,
		  "durationTicks": 240,
		  "midi": 46,
		  "name": "A#2",
		  "ticks": 178560,
		  "time": 143.999712,
		  "velocity": 0.7480314960629921
		},
		{
		  "duration": 0.19354799999999273,
		  "durationTicks": 240,
		  "midi": 53,
		  "name": "F3",
		  "ticks": 178800,
		  "time": 144.19326,
		  "velocity": 0.7480314960629921
		},
		{
		  "duration": 0.19354799999999273,
		  "durationTicks": 240,
		  "midi": 46,
		  "name": "A#2",
		  "ticks": 178800,
		  "time": 144.19326,
		  "velocity": 0.7480314960629921
		},
		{
		  "duration": 0.19354799999999273,
		  "durationTicks": 240,
		  "midi": 53,
		  "name": "F3",
		  "ticks": 179040,
		  "time": 144.386808,
		  "velocity": 0.7480314960629921
		},
		{
		  "duration": 0.19354799999999273,
		  "durationTicks": 240,
		  "midi": 46,
		  "name": "A#2",
		  "ticks": 179040,
		  "time": 144.386808,
		  "velocity": 0.7480314960629921
		},
		{
		  "duration": 0.19354799999999273,
		  "durationTicks": 240,
		  "midi": 53,
		  "name": "F3",
		  "ticks": 179280,
		  "time": 144.580356,
		  "velocity": 0.7480314960629921
		},
		{
		  "duration": 0.19354799999999273,
		  "durationTicks": 240,
		  "midi": 46,
		  "name": "A#2",
		  "ticks": 179280,
		  "time": 144.580356,
		  "velocity": 0.7480314960629921
		},
		{
		  "duration": 0.19354800000002115,
		  "durationTicks": 240,
		  "midi": 53,
		  "name": "F3",
		  "ticks": 179520,
		  "time": 144.773904,
		  "velocity": 0.7480314960629921
		},
		{
		  "duration": 0.19354800000002115,
		  "durationTicks": 240,
		  "midi": 46,
		  "name": "A#2",
		  "ticks": 179520,
		  "time": 144.773904,
		  "velocity": 0.7480314960629921
		},
		{
		  "duration": 0.19354799999999273,
		  "durationTicks": 240,
		  "midi": 53,
		  "name": "F3",
		  "ticks": 179760,
		  "time": 144.967452,
		  "velocity": 0.7480314960629921
		},
		{
		  "duration": 0.19354799999999273,
		  "durationTicks": 240,
		  "midi": 46,
		  "name": "A#2",
		  "ticks": 179760,
		  "time": 144.967452,
		  "velocity": 0.7480314960629921
		},
		{
		  "duration": 0.19354799999999273,
		  "durationTicks": 240,
		  "midi": 53,
		  "name": "F3",
		  "ticks": 180000,
		  "time": 145.161,
		  "velocity": 0.7480314960629921
		},
		{
		  "duration": 0.19354799999999273,
		  "durationTicks": 240,
		  "midi": 46,
		  "name": "A#2",
		  "ticks": 180000,
		  "time": 145.161,
		  "velocity": 0.7480314960629921
		},
		{
		  "duration": 0.19354799999999273,
		  "durationTicks": 240,
		  "midi": 53,
		  "name": "F3",
		  "ticks": 180240,
		  "time": 145.354548,
		  "velocity": 0.7480314960629921
		},
		{
		  "duration": 0.19354799999999273,
		  "durationTicks": 240,
		  "midi": 46,
		  "name": "A#2",
		  "ticks": 180240,
		  "time": 145.354548,
		  "velocity": 0.7480314960629921
		},
		{
		  "duration": 0.19354800000002115,
		  "durationTicks": 240,
		  "midi": 53,
		  "name": "F3",
		  "ticks": 180480,
		  "time": 145.548096,
		  "velocity": 0.7480314960629921
		},
		{
		  "duration": 0.19354800000002115,
		  "durationTicks": 240,
		  "midi": 46,
		  "name": "A#2",
		  "ticks": 180480,
		  "time": 145.548096,
		  "velocity": 0.7480314960629921
		},
		{
		  "duration": 0.19354799999999273,
		  "durationTicks": 240,
		  "midi": 53,
		  "name": "F3",
		  "ticks": 180720,
		  "time": 145.741644,
		  "velocity": 0.7480314960629921
		},
		{
		  "duration": 0.19354799999999273,
		  "durationTicks": 240,
		  "midi": 46,
		  "name": "A#2",
		  "ticks": 180720,
		  "time": 145.741644,
		  "velocity": 0.7480314960629921
		},
		{
		  "duration": 0.19354799999999273,
		  "durationTicks": 240,
		  "midi": 53,
		  "name": "F3",
		  "ticks": 180960,
		  "time": 145.935192,
		  "velocity": 0.7480314960629921
		},
		{
		  "duration": 0.19354799999999273,
		  "durationTicks": 240,
		  "midi": 46,
		  "name": "A#2",
		  "ticks": 180960,
		  "time": 145.935192,
		  "velocity": 0.7480314960629921
		},
		{
		  "duration": 0.19354799999999273,
		  "durationTicks": 240,
		  "midi": 53,
		  "name": "F3",
		  "ticks": 181200,
		  "time": 146.12874,
		  "velocity": 0.7480314960629921
		},
		{
		  "duration": 0.19354799999999273,
		  "durationTicks": 240,
		  "midi": 46,
		  "name": "A#2",
		  "ticks": 181200,
		  "time": 146.12874,
		  "velocity": 0.7480314960629921
		},
		{
		  "duration": 0.19354800000002115,
		  "durationTicks": 240,
		  "midi": 53,
		  "name": "F3",
		  "ticks": 181440,
		  "time": 146.322288,
		  "velocity": 0.7480314960629921
		},
		{
		  "duration": 0.19354800000002115,
		  "durationTicks": 240,
		  "midi": 46,
		  "name": "A#2",
		  "ticks": 181440,
		  "time": 146.322288,
		  "velocity": 0.7480314960629921
		},
		{
		  "duration": 0.19354799999999273,
		  "durationTicks": 240,
		  "midi": 53,
		  "name": "F3",
		  "ticks": 181680,
		  "time": 146.515836,
		  "velocity": 0.7480314960629921
		},
		{
		  "duration": 0.19354799999999273,
		  "durationTicks": 240,
		  "midi": 46,
		  "name": "A#2",
		  "ticks": 181680,
		  "time": 146.515836,
		  "velocity": 0.7480314960629921
		},
		{
		  "duration": 0.19354799999999273,
		  "durationTicks": 240,
		  "midi": 53,
		  "name": "F3",
		  "ticks": 181920,
		  "time": 146.709384,
		  "velocity": 0.7480314960629921
		},
		{
		  "duration": 0.19354799999999273,
		  "durationTicks": 240,
		  "midi": 46,
		  "name": "A#2",
		  "ticks": 181920,
		  "time": 146.709384,
		  "velocity": 0.7480314960629921
		},
		{
		  "duration": 0.19354799999999273,
		  "durationTicks": 240,
		  "midi": 53,
		  "name": "F3",
		  "ticks": 182160,
		  "time": 146.902932,
		  "velocity": 0.7480314960629921
		},
		{
		  "duration": 0.19354799999999273,
		  "durationTicks": 240,
		  "midi": 46,
		  "name": "A#2",
		  "ticks": 182160,
		  "time": 146.902932,
		  "velocity": 0.7480314960629921
		},
		{
		  "duration": 0.19354800000002115,
		  "durationTicks": 240,
		  "midi": 51,
		  "name": "D#3",
		  "ticks": 182400,
		  "time": 147.09647999999999,
		  "velocity": 0.7480314960629921
		},
		{
		  "duration": 0.19354800000002115,
		  "durationTicks": 240,
		  "midi": 44,
		  "name": "G#2",
		  "ticks": 182400,
		  "time": 147.09647999999999,
		  "velocity": 0.7480314960629921
		},
		{
		  "duration": 0.19354799999999273,
		  "durationTicks": 240,
		  "midi": 51,
		  "name": "D#3",
		  "ticks": 182640,
		  "time": 147.290028,
		  "velocity": 0.7480314960629921
		},
		{
		  "duration": 0.19354799999999273,
		  "durationTicks": 240,
		  "midi": 44,
		  "name": "G#2",
		  "ticks": 182640,
		  "time": 147.290028,
		  "velocity": 0.7480314960629921
		},
		{
		  "duration": 0.19354799999999273,
		  "durationTicks": 240,
		  "midi": 51,
		  "name": "D#3",
		  "ticks": 182880,
		  "time": 147.483576,
		  "velocity": 0.7480314960629921
		},
		{
		  "duration": 0.19354799999999273,
		  "durationTicks": 240,
		  "midi": 44,
		  "name": "G#2",
		  "ticks": 182880,
		  "time": 147.483576,
		  "velocity": 0.7480314960629921
		},
		{
		  "duration": 0.19354799999999273,
		  "durationTicks": 240,
		  "midi": 51,
		  "name": "D#3",
		  "ticks": 183120,
		  "time": 147.677124,
		  "velocity": 0.7480314960629921
		},
		{
		  "duration": 0.19354799999999273,
		  "durationTicks": 240,
		  "midi": 44,
		  "name": "G#2",
		  "ticks": 183120,
		  "time": 147.677124,
		  "velocity": 0.7480314960629921
		},
		{
		  "duration": 0.19354800000002115,
		  "durationTicks": 240,
		  "midi": 51,
		  "name": "D#3",
		  "ticks": 183360,
		  "time": 147.87067199999998,
		  "velocity": 0.7480314960629921
		},
		{
		  "duration": 0.19354800000002115,
		  "durationTicks": 240,
		  "midi": 44,
		  "name": "G#2",
		  "ticks": 183360,
		  "time": 147.87067199999998,
		  "velocity": 0.7480314960629921
		},
		{
		  "duration": 0.19354799999999273,
		  "durationTicks": 240,
		  "midi": 51,
		  "name": "D#3",
		  "ticks": 183600,
		  "time": 148.06422,
		  "velocity": 0.7480314960629921
		},
		{
		  "duration": 0.19354799999999273,
		  "durationTicks": 240,
		  "midi": 44,
		  "name": "G#2",
		  "ticks": 183600,
		  "time": 148.06422,
		  "velocity": 0.7480314960629921
		},
		{
		  "duration": 0.19354799999999273,
		  "durationTicks": 240,
		  "midi": 51,
		  "name": "D#3",
		  "ticks": 183840,
		  "time": 148.257768,
		  "velocity": 0.7480314960629921
		},
		{
		  "duration": 0.19354799999999273,
		  "durationTicks": 240,
		  "midi": 44,
		  "name": "G#2",
		  "ticks": 183840,
		  "time": 148.257768,
		  "velocity": 0.7480314960629921
		},
		{
		  "duration": 0.19354799999999273,
		  "durationTicks": 240,
		  "midi": 51,
		  "name": "D#3",
		  "ticks": 184080,
		  "time": 148.451316,
		  "velocity": 0.7480314960629921
		},
		{
		  "duration": 0.19354799999999273,
		  "durationTicks": 240,
		  "midi": 44,
		  "name": "G#2",
		  "ticks": 184080,
		  "time": 148.451316,
		  "velocity": 0.7480314960629921
		},
		{
		  "duration": 0.19354800000002115,
		  "durationTicks": 240,
		  "midi": 53,
		  "name": "F3",
		  "ticks": 184320,
		  "time": 148.64486399999998,
		  "velocity": 0.7480314960629921
		},
		{
		  "duration": 0.19354800000002115,
		  "durationTicks": 240,
		  "midi": 46,
		  "name": "A#2",
		  "ticks": 184320,
		  "time": 148.64486399999998,
		  "velocity": 0.7480314960629921
		},
		{
		  "duration": 0.19354799999999273,
		  "durationTicks": 240,
		  "midi": 53,
		  "name": "F3",
		  "ticks": 184560,
		  "time": 148.838412,
		  "velocity": 0.7480314960629921
		},
		{
		  "duration": 0.19354799999999273,
		  "durationTicks": 240,
		  "midi": 46,
		  "name": "A#2",
		  "ticks": 184560,
		  "time": 148.838412,
		  "velocity": 0.7480314960629921
		},
		{
		  "duration": 0.19354799999999273,
		  "durationTicks": 240,
		  "midi": 53,
		  "name": "F3",
		  "ticks": 184800,
		  "time": 149.03196,
		  "velocity": 0.7480314960629921
		},
		{
		  "duration": 0.19354799999999273,
		  "durationTicks": 240,
		  "midi": 46,
		  "name": "A#2",
		  "ticks": 184800,
		  "time": 149.03196,
		  "velocity": 0.7480314960629921
		},
		{
		  "duration": 0.19354800000002115,
		  "durationTicks": 240,
		  "midi": 53,
		  "name": "F3",
		  "ticks": 185040,
		  "time": 149.225508,
		  "velocity": 0.7480314960629921
		},
		{
		  "duration": 0.19354800000002115,
		  "durationTicks": 240,
		  "midi": 46,
		  "name": "A#2",
		  "ticks": 185040,
		  "time": 149.225508,
		  "velocity": 0.7480314960629921
		},
		{
		  "duration": 0.19354799999999273,
		  "durationTicks": 240,
		  "midi": 53,
		  "name": "F3",
		  "ticks": 185280,
		  "time": 149.419056,
		  "velocity": 0.7480314960629921
		},
		{
		  "duration": 0.19354799999999273,
		  "durationTicks": 240,
		  "midi": 46,
		  "name": "A#2",
		  "ticks": 185280,
		  "time": 149.419056,
		  "velocity": 0.7480314960629921
		},
		{
		  "duration": 0.19354799999999273,
		  "durationTicks": 240,
		  "midi": 53,
		  "name": "F3",
		  "ticks": 185520,
		  "time": 149.612604,
		  "velocity": 0.7480314960629921
		},
		{
		  "duration": 0.19354799999999273,
		  "durationTicks": 240,
		  "midi": 46,
		  "name": "A#2",
		  "ticks": 185520,
		  "time": 149.612604,
		  "velocity": 0.7480314960629921
		},
		{
		  "duration": 0.19354799999999273,
		  "durationTicks": 240,
		  "midi": 53,
		  "name": "F3",
		  "ticks": 185760,
		  "time": 149.806152,
		  "velocity": 0.7480314960629921
		},
		{
		  "duration": 0.19354799999999273,
		  "durationTicks": 240,
		  "midi": 46,
		  "name": "A#2",
		  "ticks": 185760,
		  "time": 149.806152,
		  "velocity": 0.7480314960629921
		},
		{
		  "duration": 0.19354800000002115,
		  "durationTicks": 240,
		  "midi": 53,
		  "name": "F3",
		  "ticks": 186000,
		  "time": 149.9997,
		  "velocity": 0.7480314960629921
		},
		{
		  "duration": 0.19354800000002115,
		  "durationTicks": 240,
		  "midi": 46,
		  "name": "A#2",
		  "ticks": 186000,
		  "time": 149.9997,
		  "velocity": 0.7480314960629921
		},
		{
		  "duration": 0.19354799999999273,
		  "durationTicks": 240,
		  "midi": 51,
		  "name": "D#3",
		  "ticks": 186240,
		  "time": 150.193248,
		  "velocity": 0.7480314960629921
		},
		{
		  "duration": 0.19354799999999273,
		  "durationTicks": 240,
		  "midi": 44,
		  "name": "G#2",
		  "ticks": 186240,
		  "time": 150.193248,
		  "velocity": 0.7480314960629921
		},
		{
		  "duration": 0.19354799999999273,
		  "durationTicks": 240,
		  "midi": 51,
		  "name": "D#3",
		  "ticks": 186480,
		  "time": 150.386796,
		  "velocity": 0.7480314960629921
		},
		{
		  "duration": 0.19354799999999273,
		  "durationTicks": 240,
		  "midi": 44,
		  "name": "G#2",
		  "ticks": 186480,
		  "time": 150.386796,
		  "velocity": 0.7480314960629921
		},
		{
		  "duration": 0.19354799999999273,
		  "durationTicks": 240,
		  "midi": 51,
		  "name": "D#3",
		  "ticks": 186720,
		  "time": 150.580344,
		  "velocity": 0.7480314960629921
		},
		{
		  "duration": 0.19354799999999273,
		  "durationTicks": 240,
		  "midi": 44,
		  "name": "G#2",
		  "ticks": 186720,
		  "time": 150.580344,
		  "velocity": 0.7480314960629921
		},
		{
		  "duration": 0.19354800000002115,
		  "durationTicks": 240,
		  "midi": 51,
		  "name": "D#3",
		  "ticks": 186960,
		  "time": 150.773892,
		  "velocity": 0.7480314960629921
		},
		{
		  "duration": 0.19354800000002115,
		  "durationTicks": 240,
		  "midi": 44,
		  "name": "G#2",
		  "ticks": 186960,
		  "time": 150.773892,
		  "velocity": 0.7480314960629921
		},
		{
		  "duration": 0.19354799999999273,
		  "durationTicks": 240,
		  "midi": 51,
		  "name": "D#3",
		  "ticks": 187200,
		  "time": 150.96744,
		  "velocity": 0.7480314960629921
		},
		{
		  "duration": 0.19354799999999273,
		  "durationTicks": 240,
		  "midi": 44,
		  "name": "G#2",
		  "ticks": 187200,
		  "time": 150.96744,
		  "velocity": 0.7480314960629921
		},
		{
		  "duration": 0.19354799999999273,
		  "durationTicks": 240,
		  "midi": 51,
		  "name": "D#3",
		  "ticks": 187440,
		  "time": 151.160988,
		  "velocity": 0.7480314960629921
		},
		{
		  "duration": 0.19354799999999273,
		  "durationTicks": 240,
		  "midi": 44,
		  "name": "G#2",
		  "ticks": 187440,
		  "time": 151.160988,
		  "velocity": 0.7480314960629921
		},
		{
		  "duration": 0.19354799999999273,
		  "durationTicks": 240,
		  "midi": 51,
		  "name": "D#3",
		  "ticks": 187680,
		  "time": 151.354536,
		  "velocity": 0.7480314960629921
		},
		{
		  "duration": 0.19354799999999273,
		  "durationTicks": 240,
		  "midi": 44,
		  "name": "G#2",
		  "ticks": 187680,
		  "time": 151.354536,
		  "velocity": 0.7480314960629921
		},
		{
		  "duration": 0.19354800000002115,
		  "durationTicks": 240,
		  "midi": 51,
		  "name": "D#3",
		  "ticks": 187920,
		  "time": 151.548084,
		  "velocity": 0.7480314960629921
		},
		{
		  "duration": 0.19354800000002115,
		  "durationTicks": 240,
		  "midi": 44,
		  "name": "G#2",
		  "ticks": 187920,
		  "time": 151.548084,
		  "velocity": 0.7480314960629921
		},
		{
		  "duration": 0.19354799999999273,
		  "durationTicks": 240,
		  "midi": 49,
		  "name": "C#3",
		  "ticks": 188160,
		  "time": 151.741632,
		  "velocity": 0.7480314960629921
		},
		{
		  "duration": 0.19354799999999273,
		  "durationTicks": 240,
		  "midi": 42,
		  "name": "F#2",
		  "ticks": 188160,
		  "time": 151.741632,
		  "velocity": 0.7480314960629921
		},
		{
		  "duration": 0.19354799999999273,
		  "durationTicks": 240,
		  "midi": 49,
		  "name": "C#3",
		  "ticks": 188400,
		  "time": 151.93518,
		  "velocity": 0.7480314960629921
		},
		{
		  "duration": 0.19354799999999273,
		  "durationTicks": 240,
		  "midi": 42,
		  "name": "F#2",
		  "ticks": 188400,
		  "time": 151.93518,
		  "velocity": 0.7480314960629921
		},
		{
		  "duration": 0.19354799999999273,
		  "durationTicks": 240,
		  "midi": 49,
		  "name": "C#3",
		  "ticks": 188640,
		  "time": 152.128728,
		  "velocity": 0.7480314960629921
		},
		{
		  "duration": 0.19354799999999273,
		  "durationTicks": 240,
		  "midi": 42,
		  "name": "F#2",
		  "ticks": 188640,
		  "time": 152.128728,
		  "velocity": 0.7480314960629921
		},
		{
		  "duration": 0.19354800000002115,
		  "durationTicks": 240,
		  "midi": 49,
		  "name": "C#3",
		  "ticks": 188880,
		  "time": 152.322276,
		  "velocity": 0.7480314960629921
		},
		{
		  "duration": 0.19354800000002115,
		  "durationTicks": 240,
		  "midi": 42,
		  "name": "F#2",
		  "ticks": 188880,
		  "time": 152.322276,
		  "velocity": 0.7480314960629921
		},
		{
		  "duration": 0.19354799999999273,
		  "durationTicks": 240,
		  "midi": 49,
		  "name": "C#3",
		  "ticks": 189120,
		  "time": 152.515824,
		  "velocity": 0.7480314960629921
		},
		{
		  "duration": 0.19354799999999273,
		  "durationTicks": 240,
		  "midi": 42,
		  "name": "F#2",
		  "ticks": 189120,
		  "time": 152.515824,
		  "velocity": 0.7480314960629921
		},
		{
		  "duration": 0.19354799999999273,
		  "durationTicks": 240,
		  "midi": 49,
		  "name": "C#3",
		  "ticks": 189360,
		  "time": 152.709372,
		  "velocity": 0.7480314960629921
		},
		{
		  "duration": 0.19354799999999273,
		  "durationTicks": 240,
		  "midi": 42,
		  "name": "F#2",
		  "ticks": 189360,
		  "time": 152.709372,
		  "velocity": 0.7480314960629921
		},
		{
		  "duration": 0.19354799999999273,
		  "durationTicks": 240,
		  "midi": 49,
		  "name": "C#3",
		  "ticks": 189600,
		  "time": 152.90292,
		  "velocity": 0.7480314960629921
		},
		{
		  "duration": 0.19354799999999273,
		  "durationTicks": 240,
		  "midi": 42,
		  "name": "F#2",
		  "ticks": 189600,
		  "time": 152.90292,
		  "velocity": 0.7480314960629921
		},
		{
		  "duration": 0.19354800000002115,
		  "durationTicks": 240,
		  "midi": 49,
		  "name": "C#3",
		  "ticks": 189840,
		  "time": 153.096468,
		  "velocity": 0.7480314960629921
		},
		{
		  "duration": 0.19354800000002115,
		  "durationTicks": 240,
		  "midi": 42,
		  "name": "F#2",
		  "ticks": 189840,
		  "time": 153.096468,
		  "velocity": 0.7480314960629921
		},
		{
		  "duration": 0.19354799999999273,
		  "durationTicks": 240,
		  "midi": 48,
		  "name": "C3",
		  "ticks": 190080,
		  "time": 153.290016,
		  "velocity": 0.7480314960629921
		},
		{
		  "duration": 0.19354799999999273,
		  "durationTicks": 240,
		  "midi": 41,
		  "name": "F2",
		  "ticks": 190080,
		  "time": 153.290016,
		  "velocity": 0.7480314960629921
		},
		{
		  "duration": 0.19354799999999273,
		  "durationTicks": 240,
		  "midi": 48,
		  "name": "C3",
		  "ticks": 190320,
		  "time": 153.483564,
		  "velocity": 0.7480314960629921
		},
		{
		  "duration": 0.19354799999999273,
		  "durationTicks": 240,
		  "midi": 41,
		  "name": "F2",
		  "ticks": 190320,
		  "time": 153.483564,
		  "velocity": 0.7480314960629921
		},
		{
		  "duration": 0.19354799999999273,
		  "durationTicks": 240,
		  "midi": 48,
		  "name": "C3",
		  "ticks": 190560,
		  "time": 153.677112,
		  "velocity": 0.7480314960629921
		},
		{
		  "duration": 0.19354799999999273,
		  "durationTicks": 240,
		  "midi": 41,
		  "name": "F2",
		  "ticks": 190560,
		  "time": 153.677112,
		  "velocity": 0.7480314960629921
		},
		{
		  "duration": 0.19354800000002115,
		  "durationTicks": 240,
		  "midi": 48,
		  "name": "C3",
		  "ticks": 190800,
		  "time": 153.87066,
		  "velocity": 0.7480314960629921
		},
		{
		  "duration": 0.19354800000002115,
		  "durationTicks": 240,
		  "midi": 41,
		  "name": "F2",
		  "ticks": 190800,
		  "time": 153.87066,
		  "velocity": 0.7480314960629921
		},
		{
		  "duration": 0.19354799999999273,
		  "durationTicks": 240,
		  "midi": 48,
		  "name": "C3",
		  "ticks": 191040,
		  "time": 154.064208,
		  "velocity": 0.7480314960629921
		},
		{
		  "duration": 0.19354799999999273,
		  "durationTicks": 240,
		  "midi": 41,
		  "name": "F2",
		  "ticks": 191040,
		  "time": 154.064208,
		  "velocity": 0.7480314960629921
		},
		{
		  "duration": 0.19354799999999273,
		  "durationTicks": 240,
		  "midi": 48,
		  "name": "C3",
		  "ticks": 191280,
		  "time": 154.257756,
		  "velocity": 0.7480314960629921
		},
		{
		  "duration": 0.19354799999999273,
		  "durationTicks": 240,
		  "midi": 41,
		  "name": "F2",
		  "ticks": 191280,
		  "time": 154.257756,
		  "velocity": 0.7480314960629921
		},
		{
		  "duration": 0.19354799999999273,
		  "durationTicks": 240,
		  "midi": 48,
		  "name": "C3",
		  "ticks": 191520,
		  "time": 154.451304,
		  "velocity": 0.7480314960629921
		},
		{
		  "duration": 0.19354799999999273,
		  "durationTicks": 240,
		  "midi": 41,
		  "name": "F2",
		  "ticks": 191520,
		  "time": 154.451304,
		  "velocity": 0.7480314960629921
		},
		{
		  "duration": 0.19354800000002115,
		  "durationTicks": 240,
		  "midi": 48,
		  "name": "C3",
		  "ticks": 191760,
		  "time": 154.644852,
		  "velocity": 0.7480314960629921
		},
		{
		  "duration": 0.19354800000002115,
		  "durationTicks": 240,
		  "midi": 41,
		  "name": "F2",
		  "ticks": 191760,
		  "time": 154.644852,
		  "velocity": 0.7480314960629921
		},
		{
		  "duration": 0.19354799999999273,
		  "durationTicks": 240,
		  "midi": 53,
		  "name": "F3",
		  "ticks": 192000,
		  "time": 154.8384,
		  "velocity": 0.7480314960629921
		},
		{
		  "duration": 0.19354799999999273,
		  "durationTicks": 240,
		  "midi": 46,
		  "name": "A#2",
		  "ticks": 192000,
		  "time": 154.8384,
		  "velocity": 0.7480314960629921
		},
		{
		  "duration": 0.19354799999999273,
		  "durationTicks": 240,
		  "midi": 53,
		  "name": "F3",
		  "ticks": 192240,
		  "time": 155.031948,
		  "velocity": 0.7480314960629921
		},
		{
		  "duration": 0.19354799999999273,
		  "durationTicks": 240,
		  "midi": 46,
		  "name": "A#2",
		  "ticks": 192240,
		  "time": 155.031948,
		  "velocity": 0.7480314960629921
		},
		{
		  "duration": 0.19354800000002115,
		  "durationTicks": 240,
		  "midi": 53,
		  "name": "F3",
		  "ticks": 192720,
		  "time": 155.41904399999999,
		  "velocity": 0.7480314960629921
		},
		{
		  "duration": 0.19354800000002115,
		  "durationTicks": 240,
		  "midi": 46,
		  "name": "A#2",
		  "ticks": 192720,
		  "time": 155.41904399999999,
		  "velocity": 0.7480314960629921
		},
		{
		  "duration": 0.19354799999999273,
		  "durationTicks": 240,
		  "midi": 53,
		  "name": "F3",
		  "ticks": 192960,
		  "time": 155.612592,
		  "velocity": 0.7480314960629921
		},
		{
		  "duration": 0.19354799999999273,
		  "durationTicks": 240,
		  "midi": 46,
		  "name": "A#2",
		  "ticks": 192960,
		  "time": 155.612592,
		  "velocity": 0.7480314960629921
		},
		{
		  "duration": 0.19354799999999273,
		  "durationTicks": 240,
		  "midi": 53,
		  "name": "F3",
		  "ticks": 193440,
		  "time": 155.999688,
		  "velocity": 0.7480314960629921
		},
		{
		  "duration": 0.19354799999999273,
		  "durationTicks": 240,
		  "midi": 46,
		  "name": "A#2",
		  "ticks": 193440,
		  "time": 155.999688,
		  "velocity": 0.7480314960629921
		},
		{
		  "duration": 0.19354800000002115,
		  "durationTicks": 240,
		  "midi": 53,
		  "name": "F3",
		  "ticks": 193680,
		  "time": 156.19323599999998,
		  "velocity": 0.7480314960629921
		},
		{
		  "duration": 0.19354800000002115,
		  "durationTicks": 240,
		  "midi": 46,
		  "name": "A#2",
		  "ticks": 193680,
		  "time": 156.19323599999998,
		  "velocity": 0.7480314960629921
		},
		{
		  "duration": 0.19354799999999273,
		  "durationTicks": 240,
		  "midi": 53,
		  "name": "F3",
		  "ticks": 194160,
		  "time": 156.580332,
		  "velocity": 0.7480314960629921
		},
		{
		  "duration": 0.19354799999999273,
		  "durationTicks": 240,
		  "midi": 46,
		  "name": "A#2",
		  "ticks": 194160,
		  "time": 156.580332,
		  "velocity": 0.7480314960629921
		},
		{
		  "duration": 0.19354800000002115,
		  "durationTicks": 240,
		  "midi": 53,
		  "name": "F3",
		  "ticks": 194400,
		  "time": 156.77388,
		  "velocity": 0.7480314960629921
		},
		{
		  "duration": 0.19354800000002115,
		  "durationTicks": 240,
		  "midi": 46,
		  "name": "A#2",
		  "ticks": 194400,
		  "time": 156.77388,
		  "velocity": 0.7480314960629921
		},
		{
		  "duration": 0.19354799999999273,
		  "durationTicks": 240,
		  "midi": 53,
		  "name": "F3",
		  "ticks": 194880,
		  "time": 157.160976,
		  "velocity": 0.7480314960629921
		},
		{
		  "duration": 0.19354799999999273,
		  "durationTicks": 240,
		  "midi": 46,
		  "name": "A#2",
		  "ticks": 194880,
		  "time": 157.160976,
		  "velocity": 0.7480314960629921
		},
		{
		  "duration": 0.07258049999998661,
		  "durationTicks": 90,
		  "midi": 46,
		  "name": "A#2",
		  "ticks": 195120,
		  "time": 157.354524,
		  "velocity": 0.5984251968503937
		},
		{
		  "duration": 0.07258049999998661,
		  "durationTicks": 90,
		  "midi": 46,
		  "name": "A#2",
		  "ticks": 195240,
		  "time": 157.451298,
		  "velocity": 0.5984251968503937
		},
		{
		  "duration": 0.3870960000000139,
		  "durationTicks": 480,
		  "midi": 51,
		  "name": "D#3",
		  "ticks": 195360,
		  "time": 157.548072,
		  "velocity": 0.7480314960629921
		},
		{
		  "duration": 0.3870960000000139,
		  "durationTicks": 480,
		  "midi": 44,
		  "name": "G#2",
		  "ticks": 195360,
		  "time": 157.548072,
		  "velocity": 0.7480314960629921
		},
		{
		  "duration": 0.19354799999999273,
		  "durationTicks": 240,
		  "midi": 53,
		  "name": "F3",
		  "ticks": 195840,
		  "time": 157.935168,
		  "velocity": 0.7480314960629921
		},
		{
		  "duration": 0.19354799999999273,
		  "durationTicks": 240,
		  "midi": 46,
		  "name": "A#2",
		  "ticks": 195840,
		  "time": 157.935168,
		  "velocity": 0.7480314960629921
		},
		{
		  "duration": 0.19354799999999273,
		  "durationTicks": 240,
		  "midi": 53,
		  "name": "F3",
		  "ticks": 196080,
		  "time": 158.128716,
		  "velocity": 0.7480314960629921
		},
		{
		  "duration": 0.19354799999999273,
		  "durationTicks": 240,
		  "midi": 46,
		  "name": "A#2",
		  "ticks": 196080,
		  "time": 158.128716,
		  "velocity": 0.7480314960629921
		},
		{
		  "duration": 0.19354799999999273,
		  "durationTicks": 240,
		  "midi": 53,
		  "name": "F3",
		  "ticks": 196560,
		  "time": 158.515812,
		  "velocity": 0.7480314960629921
		},
		{
		  "duration": 0.19354799999999273,
		  "durationTicks": 240,
		  "midi": 46,
		  "name": "A#2",
		  "ticks": 196560,
		  "time": 158.515812,
		  "velocity": 0.7480314960629921
		},
		{
		  "duration": 0.19354799999999273,
		  "durationTicks": 240,
		  "midi": 53,
		  "name": "F3",
		  "ticks": 196800,
		  "time": 158.70936,
		  "velocity": 0.7480314960629921
		},
		{
		  "duration": 0.19354799999999273,
		  "durationTicks": 240,
		  "midi": 46,
		  "name": "A#2",
		  "ticks": 196800,
		  "time": 158.70936,
		  "velocity": 0.7480314960629921
		},
		{
		  "duration": 0.19354800000002115,
		  "durationTicks": 240,
		  "midi": 53,
		  "name": "F3",
		  "ticks": 197280,
		  "time": 159.096456,
		  "velocity": 0.7480314960629921
		},
		{
		  "duration": 0.19354800000002115,
		  "durationTicks": 240,
		  "midi": 46,
		  "name": "A#2",
		  "ticks": 197280,
		  "time": 159.096456,
		  "velocity": 0.7480314960629921
		},
		{
		  "duration": 0.19354799999999273,
		  "durationTicks": 240,
		  "midi": 53,
		  "name": "F3",
		  "ticks": 197520,
		  "time": 159.290004,
		  "velocity": 0.7480314960629921
		},
		{
		  "duration": 0.19354799999999273,
		  "durationTicks": 240,
		  "midi": 46,
		  "name": "A#2",
		  "ticks": 197520,
		  "time": 159.290004,
		  "velocity": 0.7480314960629921
		},
		{
		  "duration": 0.19354799999999273,
		  "durationTicks": 240,
		  "midi": 53,
		  "name": "F3",
		  "ticks": 198000,
		  "time": 159.6771,
		  "velocity": 0.7480314960629921
		},
		{
		  "duration": 0.19354799999999273,
		  "durationTicks": 240,
		  "midi": 46,
		  "name": "A#2",
		  "ticks": 198000,
		  "time": 159.6771,
		  "velocity": 0.7480314960629921
		},
		{
		  "duration": 0.19354800000002115,
		  "durationTicks": 240,
		  "midi": 53,
		  "name": "F3",
		  "ticks": 198240,
		  "time": 159.870648,
		  "velocity": 0.7480314960629921
		},
		{
		  "duration": 0.19354800000002115,
		  "durationTicks": 240,
		  "midi": 46,
		  "name": "A#2",
		  "ticks": 198240,
		  "time": 159.870648,
		  "velocity": 0.7480314960629921
		},
		{
		  "duration": 0.07258049999998661,
		  "durationTicks": 90,
		  "midi": 46,
		  "name": "A#2",
		  "ticks": 198480,
		  "time": 160.064196,
		  "velocity": 0.5984251968503937
		},
		{
		  "duration": 0.07258050000001504,
		  "durationTicks": 90,
		  "midi": 46,
		  "name": "A#2",
		  "ticks": 198600,
		  "time": 160.16097,
		  "velocity": 0.5984251968503937
		},
		{
		  "duration": 0.38709599999998545,
		  "durationTicks": 480,
		  "midi": 56,
		  "name": "G#3",
		  "ticks": 198720,
		  "time": 160.257744,
		  "velocity": 0.7480314960629921
		},
		{
		  "duration": 0.38709599999998545,
		  "durationTicks": 480,
		  "midi": 49,
		  "name": "C#3",
		  "ticks": 198720,
		  "time": 160.257744,
		  "velocity": 0.7480314960629921
		},
		{
		  "duration": 0.3870960000000139,
		  "durationTicks": 480,
		  "midi": 51,
		  "name": "D#3",
		  "ticks": 199200,
		  "time": 160.64484,
		  "velocity": 0.7480314960629921
		},
		{
		  "duration": 0.3870960000000139,
		  "durationTicks": 480,
		  "midi": 44,
		  "name": "G#2",
		  "ticks": 199200,
		  "time": 160.64484,
		  "velocity": 0.7480314960629921
		}
	  ]
	},
	{
	  "channel": 0,
	  "controlChanges": {
		"6": [
		  {
			"number": 6,
			"ticks": 0,
			"time": 0,
			"value": 0.09448818897637795
		  },
		  {
			"number": 6,
			"ticks": 0,
			"time": 0,
			"value": 0.5039370078740157
		  }
		],
		"38": [
		  {
			"number": 38,
			"ticks": 0,
			"time": 0,
			"value": 0
		  }
		],
		"100": [
		  {
			"number": 100,
			"ticks": 0,
			"time": 0,
			"value": 0
		  },
		  {
			"number": 100,
			"ticks": 0,
			"time": 0,
			"value": 0.007874015748031496
		  },
		  {
			"number": 100,
			"ticks": 0,
			"time": 0,
			"value": 1
		  }
		],
		"101": [
		  {
			"number": 101,
			"ticks": 0,
			"time": 0,
			"value": 0
		  },
		  {
			"number": 101,
			"ticks": 0,
			"time": 0,
			"value": 0
		  },
		  {
			"number": 101,
			"ticks": 0,
			"time": 0,
			"value": 1
		  }
		]
	  },
	  "pitchBends": [
		{
		  "ticks": 0,
		  "time": 0,
		  "value": 0
		}
	  ],
	  "instrument": {
		"family": "piano",
		"number": 0,
		"name": "acoustic grand piano"
	  },
	  "name": "Drums",
	  "notes": [],
	  "endOfTrackTicks": 198960
	},
	{
	  "channel": 9,
	  "controlChanges": {
		"0": [
		  {
			"number": 0,
			"ticks": 0,
			"time": 0,
			"value": 0
		  }
		],
		"7": [
		  {
			"number": 7,
			"ticks": 0,
			"time": 0,
			"value": 0.8188976377952756
		  }
		],
		"10": [
		  {
			"number": 10,
			"ticks": 0,
			"time": 0,
			"value": 0.5039370078740157
		  }
		],
		"91": [
		  {
			"number": 91,
			"ticks": 0,
			"time": 0,
			"value": 0
		  }
		],
		"92": [
		  {
			"number": 92,
			"ticks": 0,
			"time": 0,
			"value": 0
		  }
		],
		"93": [
		  {
			"number": 93,
			"ticks": 0,
			"time": 0,
			"value": 0
		  }
		],
		"95": [
		  {
			"number": 95,
			"ticks": 0,
			"time": 0,
			"value": 0
		  }
		]
	  },
	  "pitchBends": [],
	  "instrument": {
		"family": "drums",
		"number": 10
	  },
	  "name": "",
	  "notes": [
		{
		  "duration": 0.193548,
		  "durationTicks": 240,
		  "midi": 49,
		  "name": "C#3",
		  "ticks": 0,
		  "time": 0,
		  "velocity": 0.7480314960629921
		},
		{
		  "duration": 0.193548,
		  "durationTicks": 240,
		  "midi": 36,
		  "name": "C2",
		  "ticks": 0,
		  "time": 0,
		  "velocity": 0.7480314960629921
		},
		{
		  "duration": 0.193548,
		  "durationTicks": 240,
		  "midi": 36,
		  "name": "C2",
		  "ticks": 240,
		  "time": 0.193548,
		  "velocity": 0.7480314960629921
		},
		{
		  "duration": 0.19354799999999994,
		  "durationTicks": 240,
		  "midi": 55,
		  "name": "G3",
		  "ticks": 480,
		  "time": 0.387096,
		  "velocity": 0.7480314960629921
		},
		{
		  "duration": 0.19354799999999994,
		  "durationTicks": 240,
		  "midi": 38,
		  "name": "D2",
		  "ticks": 480,
		  "time": 0.387096,
		  "velocity": 0.7480314960629921
		},
		{
		  "duration": 0.19354800000000005,
		  "durationTicks": 240,
		  "midi": 36,
		  "name": "C2",
		  "ticks": 720,
		  "time": 0.5806439999999999,
		  "velocity": 0.7480314960629921
		},
		{
		  "duration": 0.19354800000000005,
		  "durationTicks": 240,
		  "midi": 55,
		  "name": "G3",
		  "ticks": 960,
		  "time": 0.774192,
		  "velocity": 0.7480314960629921
		},
		{
		  "duration": 0.19354799999999983,
		  "durationTicks": 240,
		  "midi": 36,
		  "name": "C2",
		  "ticks": 1200,
		  "time": 0.96774,
		  "velocity": 0.7480314960629921
		},
		{
		  "duration": 0.19354800000000005,
		  "durationTicks": 240,
		  "midi": 55,
		  "name": "G3",
		  "ticks": 1440,
		  "time": 1.1612879999999999,
		  "velocity": 0.7480314960629921
		},
		{
		  "duration": 0.19354800000000005,
		  "durationTicks": 240,
		  "midi": 38,
		  "name": "D2",
		  "ticks": 1440,
		  "time": 1.1612879999999999,
		  "velocity": 0.7480314960629921
		},
		{
		  "duration": 0.19354800000000005,
		  "durationTicks": 240,
		  "midi": 36,
		  "name": "C2",
		  "ticks": 1680,
		  "time": 1.354836,
		  "velocity": 0.7480314960629921
		},
		{
		  "duration": 0.19354800000000005,
		  "durationTicks": 240,
		  "midi": 55,
		  "name": "G3",
		  "ticks": 1920,
		  "time": 1.548384,
		  "velocity": 0.7480314960629921
		},
		{
		  "duration": 0.19354800000000005,
		  "durationTicks": 240,
		  "midi": 36,
		  "name": "C2",
		  "ticks": 1920,
		  "time": 1.548384,
		  "velocity": 0.7480314960629921
		},
		{
		  "duration": 0.19354800000000005,
		  "durationTicks": 240,
		  "midi": 36,
		  "name": "C2",
		  "ticks": 2160,
		  "time": 1.741932,
		  "velocity": 0.7480314960629921
		},
		{
		  "duration": 0.19354799999999983,
		  "durationTicks": 240,
		  "midi": 55,
		  "name": "G3",
		  "ticks": 2400,
		  "time": 1.93548,
		  "velocity": 0.7480314960629921
		},
		{
		  "duration": 0.19354799999999983,
		  "durationTicks": 240,
		  "midi": 38,
		  "name": "D2",
		  "ticks": 2400,
		  "time": 1.93548,
		  "velocity": 0.7480314960629921
		},
		{
		  "duration": 0.19354799999999983,
		  "durationTicks": 240,
		  "midi": 36,
		  "name": "C2",
		  "ticks": 2640,
		  "time": 2.129028,
		  "velocity": 0.7480314960629921
		},
		{
		  "duration": 0.19354800000000028,
		  "durationTicks": 240,
		  "midi": 55,
		  "name": "G3",
		  "ticks": 2880,
		  "time": 2.3225759999999998,
		  "velocity": 0.7480314960629921
		},
		{
		  "duration": 0.09677399999999992,
		  "durationTicks": 120,
		  "midi": 36,
		  "name": "C2",
		  "ticks": 3120,
		  "time": 2.516124,
		  "velocity": 0.7480314960629921
		},
		{
		  "duration": 0.09677399999999992,
		  "durationTicks": 120,
		  "midi": 36,
		  "name": "C2",
		  "ticks": 3240,
		  "time": 2.612898,
		  "velocity": 0.7480314960629921
		},
		{
		  "duration": 0.19354800000000028,
		  "durationTicks": 240,
		  "midi": 55,
		  "name": "G3",
		  "ticks": 3360,
		  "time": 2.709672,
		  "velocity": 0.7480314960629921
		},
		{
		  "duration": 0.19354800000000028,
		  "durationTicks": 240,
		  "midi": 38,
		  "name": "D2",
		  "ticks": 3360,
		  "time": 2.709672,
		  "velocity": 0.7480314960629921
		},
		{
		  "duration": 0.19354799999999983,
		  "durationTicks": 240,
		  "midi": 36,
		  "name": "C2",
		  "ticks": 3600,
		  "time": 2.90322,
		  "velocity": 0.7480314960629921
		},
		{
		  "duration": 0.19354799999999983,
		  "durationTicks": 240,
		  "midi": 55,
		  "name": "G3",
		  "ticks": 3840,
		  "time": 3.096768,
		  "velocity": 0.7480314960629921
		},
		{
		  "duration": 0.19354799999999983,
		  "durationTicks": 240,
		  "midi": 36,
		  "name": "C2",
		  "ticks": 3840,
		  "time": 3.096768,
		  "velocity": 0.7480314960629921
		},
		{
		  "duration": 0.19354800000000028,
		  "durationTicks": 240,
		  "midi": 36,
		  "name": "C2",
		  "ticks": 4080,
		  "time": 3.290316,
		  "velocity": 0.7480314960629921
		},
		{
		  "duration": 0.19354799999999983,
		  "durationTicks": 240,
		  "midi": 55,
		  "name": "G3",
		  "ticks": 4320,
		  "time": 3.483864,
		  "velocity": 0.7480314960629921
		},
		{
		  "duration": 0.19354799999999983,
		  "durationTicks": 240,
		  "midi": 38,
		  "name": "D2",
		  "ticks": 4320,
		  "time": 3.483864,
		  "velocity": 0.7480314960629921
		},
		{
		  "duration": 0.19354800000000028,
		  "durationTicks": 240,
		  "midi": 36,
		  "name": "C2",
		  "ticks": 4560,
		  "time": 3.677412,
		  "velocity": 0.7480314960629921
		},
		{
		  "duration": 0.19354799999999983,
		  "durationTicks": 240,
		  "midi": 55,
		  "name": "G3",
		  "ticks": 4800,
		  "time": 3.87096,
		  "velocity": 0.7480314960629921
		},
		{
		  "duration": 0.19354799999999983,
		  "durationTicks": 240,
		  "midi": 36,
		  "name": "C2",
		  "ticks": 5040,
		  "time": 4.064508,
		  "velocity": 0.7480314960629921
		},
		{
		  "duration": 0.19354799999999983,
		  "durationTicks": 240,
		  "midi": 55,
		  "name": "G3",
		  "ticks": 5280,
		  "time": 4.258056,
		  "velocity": 0.7480314960629921
		},
		{
		  "duration": 0.19354799999999983,
		  "durationTicks": 240,
		  "midi": 38,
		  "name": "D2",
		  "ticks": 5280,
		  "time": 4.258056,
		  "velocity": 0.7480314960629921
		},
		{
		  "duration": 0.19354799999999983,
		  "durationTicks": 240,
		  "midi": 36,
		  "name": "C2",
		  "ticks": 5520,
		  "time": 4.451604,
		  "velocity": 0.7480314960629921
		},
		{
		  "duration": 0.19354800000000072,
		  "durationTicks": 240,
		  "midi": 55,
		  "name": "G3",
		  "ticks": 5760,
		  "time": 4.6451519999999995,
		  "velocity": 0.7480314960629921
		},
		{
		  "duration": 0.19354800000000072,
		  "durationTicks": 240,
		  "midi": 36,
		  "name": "C2",
		  "ticks": 5760,
		  "time": 4.6451519999999995,
		  "velocity": 0.7480314960629921
		},
		{
		  "duration": 0.19354799999999983,
		  "durationTicks": 240,
		  "midi": 36,
		  "name": "C2",
		  "ticks": 6000,
		  "time": 4.8387,
		  "velocity": 0.7480314960629921
		},
		{
		  "duration": 0.19354799999999983,
		  "durationTicks": 240,
		  "midi": 55,
		  "name": "G3",
		  "ticks": 6240,
		  "time": 5.032248,
		  "velocity": 0.7480314960629921
		},
		{
		  "duration": 0.19354799999999983,
		  "durationTicks": 240,
		  "midi": 38,
		  "name": "D2",
		  "ticks": 6240,
		  "time": 5.032248,
		  "velocity": 0.7480314960629921
		},
		{
		  "duration": 0.19354799999999983,
		  "durationTicks": 240,
		  "midi": 36,
		  "name": "C2",
		  "ticks": 6480,
		  "time": 5.225796,
		  "velocity": 0.7480314960629921
		},
		{
		  "duration": 0.09677399999999992,
		  "durationTicks": 120,
		  "midi": 47,
		  "name": "B2",
		  "ticks": 6720,
		  "time": 5.419344,
		  "velocity": 0.7480314960629921
		},
		{
		  "duration": 0.09677399999999992,
		  "durationTicks": 120,
		  "midi": 36,
		  "name": "C2",
		  "ticks": 6720,
		  "time": 5.419344,
		  "velocity": 0.7480314960629921
		},
		{
		  "duration": 0.09677399999999992,
		  "durationTicks": 120,
		  "midi": 47,
		  "name": "B2",
		  "ticks": 6840,
		  "time": 5.516118,
		  "velocity": 0.7480314960629921
		},
		{
		  "duration": 0.0967740000000008,
		  "durationTicks": 120,
		  "midi": 45,
		  "name": "A2",
		  "ticks": 6960,
		  "time": 5.6128919999999995,
		  "velocity": 0.7480314960629921
		},
		{
		  "duration": 0.0967740000000008,
		  "durationTicks": 120,
		  "midi": 36,
		  "name": "C2",
		  "ticks": 6960,
		  "time": 5.6128919999999995,
		  "velocity": 0.7480314960629921
		},
		{
		  "duration": 0.09677399999999992,
		  "durationTicks": 120,
		  "midi": 43,
		  "name": "G2",
		  "ticks": 7080,
		  "time": 5.709666,
		  "velocity": 0.7480314960629921
		},
		{
		  "duration": 0.09677399999999992,
		  "durationTicks": 120,
		  "midi": 52,
		  "name": "E3",
		  "ticks": 7200,
		  "time": 5.80644,
		  "velocity": 0.7480314960629921
		},
		{
		  "duration": 0.09677399999999992,
		  "durationTicks": 120,
		  "midi": 38,
		  "name": "D2",
		  "ticks": 7200,
		  "time": 5.80644,
		  "velocity": 0.7480314960629921
		},
		{
		  "duration": 0.19354799999999983,
		  "durationTicks": 240,
		  "midi": 41,
		  "name": "F2",
		  "ticks": 7440,
		  "time": 5.999988,
		  "velocity": 0.7480314960629921
		},
		{
		  "duration": 0.19354799999999983,
		  "durationTicks": 240,
		  "midi": 36,
		  "name": "C2",
		  "ticks": 7440,
		  "time": 5.999988,
		  "velocity": 0.7480314960629921
		},
		{
		  "duration": 0.19354799999999983,
		  "durationTicks": 240,
		  "midi": 49,
		  "name": "C#3",
		  "ticks": 7680,
		  "time": 6.193536,
		  "velocity": 0.7480314960629921
		},
		{
		  "duration": 0.19354799999999983,
		  "durationTicks": 240,
		  "midi": 36,
		  "name": "C2",
		  "ticks": 7680,
		  "time": 6.193536,
		  "velocity": 0.7480314960629921
		},
		{
		  "duration": 0.19354799999999983,
		  "durationTicks": 240,
		  "midi": 36,
		  "name": "C2",
		  "ticks": 7920,
		  "time": 6.387084,
		  "velocity": 0.7480314960629921
		},
		{
		  "duration": 0.19354800000000072,
		  "durationTicks": 240,
		  "midi": 55,
		  "name": "G3",
		  "ticks": 8160,
		  "time": 6.580632,
		  "velocity": 0.7480314960629921
		},
		{
		  "duration": 0.19354800000000072,
		  "durationTicks": 240,
		  "midi": 38,
		  "name": "D2",
		  "ticks": 8160,
		  "time": 6.580632,
		  "velocity": 0.7480314960629921
		},
		{
		  "duration": 0.19354799999999983,
		  "durationTicks": 240,
		  "midi": 36,
		  "name": "C2",
		  "ticks": 8400,
		  "time": 6.77418,
		  "velocity": 0.7480314960629921
		},
		{
		  "duration": 0.19354799999999983,
		  "durationTicks": 240,
		  "midi": 55,
		  "name": "G3",
		  "ticks": 8640,
		  "time": 6.967728,
		  "velocity": 0.7480314960629921
		},
		{
		  "duration": 0.19354799999999983,
		  "durationTicks": 240,
		  "midi": 36,
		  "name": "C2",
		  "ticks": 8880,
		  "time": 7.161276,
		  "velocity": 0.7480314960629921
		},
		{
		  "duration": 0.19354799999999983,
		  "durationTicks": 240,
		  "midi": 55,
		  "name": "G3",
		  "ticks": 9120,
		  "time": 7.354824,
		  "velocity": 0.7480314960629921
		},
		{
		  "duration": 0.19354799999999983,
		  "durationTicks": 240,
		  "midi": 38,
		  "name": "D2",
		  "ticks": 9120,
		  "time": 7.354824,
		  "velocity": 0.7480314960629921
		},
		{
		  "duration": 0.19354800000000072,
		  "durationTicks": 240,
		  "midi": 36,
		  "name": "C2",
		  "ticks": 9360,
		  "time": 7.548372,
		  "velocity": 0.7480314960629921
		},
		{
		  "duration": 0.19354799999999983,
		  "durationTicks": 240,
		  "midi": 55,
		  "name": "G3",
		  "ticks": 9600,
		  "time": 7.74192,
		  "velocity": 0.7480314960629921
		},
		{
		  "duration": 0.19354799999999983,
		  "durationTicks": 240,
		  "midi": 36,
		  "name": "C2",
		  "ticks": 9600,
		  "time": 7.74192,
		  "velocity": 0.7480314960629921
		},
		{
		  "duration": 0.19354799999999983,
		  "durationTicks": 240,
		  "midi": 36,
		  "name": "C2",
		  "ticks": 9840,
		  "time": 7.935468,
		  "velocity": 0.7480314960629921
		},
		{
		  "duration": 0.19354799999999983,
		  "durationTicks": 240,
		  "midi": 55,
		  "name": "G3",
		  "ticks": 10080,
		  "time": 8.129016,
		  "velocity": 0.7480314960629921
		},
		{
		  "duration": 0.19354799999999983,
		  "durationTicks": 240,
		  "midi": 38,
		  "name": "D2",
		  "ticks": 10080,
		  "time": 8.129016,
		  "velocity": 0.7480314960629921
		},
		{
		  "duration": 0.19354799999999983,
		  "durationTicks": 240,
		  "midi": 36,
		  "name": "C2",
		  "ticks": 10320,
		  "time": 8.322564,
		  "velocity": 0.7480314960629921
		},
		{
		  "duration": 0.19354799999999983,
		  "durationTicks": 240,
		  "midi": 55,
		  "name": "G3",
		  "ticks": 10560,
		  "time": 8.516112,
		  "velocity": 0.7480314960629921
		},
		{
		  "duration": 0.09677399999999992,
		  "durationTicks": 120,
		  "midi": 36,
		  "name": "C2",
		  "ticks": 10800,
		  "time": 8.70966,
		  "velocity": 0.7480314960629921
		},
		{
		  "duration": 0.09677399999999992,
		  "durationTicks": 120,
		  "midi": 36,
		  "name": "C2",
		  "ticks": 10920,
		  "time": 8.806434,
		  "velocity": 0.7480314960629921
		},
		{
		  "duration": 0.19354799999999983,
		  "durationTicks": 240,
		  "midi": 55,
		  "name": "G3",
		  "ticks": 11040,
		  "time": 8.903208,
		  "velocity": 0.7480314960629921
		},
		{
		  "duration": 0.19354799999999983,
		  "durationTicks": 240,
		  "midi": 38,
		  "name": "D2",
		  "ticks": 11040,
		  "time": 8.903208,
		  "velocity": 0.7480314960629921
		},
		{
		  "duration": 0.19354799999999983,
		  "durationTicks": 240,
		  "midi": 36,
		  "name": "C2",
		  "ticks": 11280,
		  "time": 9.096756,
		  "velocity": 0.7480314960629921
		},
		{
		  "duration": 0.1935480000000016,
		  "durationTicks": 240,
		  "midi": 55,
		  "name": "G3",
		  "ticks": 11520,
		  "time": 9.290303999999999,
		  "velocity": 0.7480314960629921
		},
		{
		  "duration": 0.1935480000000016,
		  "durationTicks": 240,
		  "midi": 36,
		  "name": "C2",
		  "ticks": 11520,
		  "time": 9.290303999999999,
		  "velocity": 0.7480314960629921
		},
		{
		  "duration": 0.19354799999999983,
		  "durationTicks": 240,
		  "midi": 36,
		  "name": "C2",
		  "ticks": 11760,
		  "time": 9.483852,
		  "velocity": 0.7480314960629921
		},
		{
		  "duration": 0.19354799999999983,
		  "durationTicks": 240,
		  "midi": 55,
		  "name": "G3",
		  "ticks": 12000,
		  "time": 9.6774,
		  "velocity": 0.7480314960629921
		},
		{
		  "duration": 0.19354799999999983,
		  "durationTicks": 240,
		  "midi": 38,
		  "name": "D2",
		  "ticks": 12000,
		  "time": 9.6774,
		  "velocity": 0.7480314960629921
		},
		{
		  "duration": 0.19354799999999983,
		  "durationTicks": 240,
		  "midi": 36,
		  "name": "C2",
		  "ticks": 12240,
		  "time": 9.870948,
		  "velocity": 0.7480314960629921
		},
		{
		  "duration": 0.19354799999999983,
		  "durationTicks": 240,
		  "midi": 55,
		  "name": "G3",
		  "ticks": 12480,
		  "time": 10.064496,
		  "velocity": 0.7480314960629921
		},
		{
		  "duration": 0.19354799999999983,
		  "durationTicks": 240,
		  "midi": 36,
		  "name": "C2",
		  "ticks": 12720,
		  "time": 10.258044,
		  "velocity": 0.7480314960629921
		},
		{
		  "duration": 0.19354799999999983,
		  "durationTicks": 240,
		  "midi": 55,
		  "name": "G3",
		  "ticks": 12960,
		  "time": 10.451592,
		  "velocity": 0.7480314960629921
		},
		{
		  "duration": 0.19354799999999983,
		  "durationTicks": 240,
		  "midi": 38,
		  "name": "D2",
		  "ticks": 12960,
		  "time": 10.451592,
		  "velocity": 0.7480314960629921
		},
		{
		  "duration": 0.19354799999999983,
		  "durationTicks": 240,
		  "midi": 36,
		  "name": "C2",
		  "ticks": 13200,
		  "time": 10.64514,
		  "velocity": 0.7480314960629921
		},
		{
		  "duration": 0.19354799999999983,
		  "durationTicks": 240,
		  "midi": 55,
		  "name": "G3",
		  "ticks": 13440,
		  "time": 10.838688,
		  "velocity": 0.7480314960629921
		},
		{
		  "duration": 0.19354799999999983,
		  "durationTicks": 240,
		  "midi": 36,
		  "name": "C2",
		  "ticks": 13440,
		  "time": 10.838688,
		  "velocity": 0.7480314960629921
		},
		{
		  "duration": 0.19354799999999983,
		  "durationTicks": 240,
		  "midi": 36,
		  "name": "C2",
		  "ticks": 13680,
		  "time": 11.032236,
		  "velocity": 0.7480314960629921
		},
		{
		  "duration": 0.1935480000000016,
		  "durationTicks": 240,
		  "midi": 55,
		  "name": "G3",
		  "ticks": 13920,
		  "time": 11.225783999999999,
		  "velocity": 0.7480314960629921
		},
		{
		  "duration": 0.1935480000000016,
		  "durationTicks": 240,
		  "midi": 38,
		  "name": "D2",
		  "ticks": 13920,
		  "time": 11.225783999999999,
		  "velocity": 0.7480314960629921
		},
		{
		  "duration": 0.19354799999999983,
		  "durationTicks": 240,
		  "midi": 36,
		  "name": "C2",
		  "ticks": 14160,
		  "time": 11.419332,
		  "velocity": 0.7480314960629921
		},
		{
		  "duration": 0.09677399999999992,
		  "durationTicks": 120,
		  "midi": 47,
		  "name": "B2",
		  "ticks": 14400,
		  "time": 11.61288,
		  "velocity": 0.7480314960629921
		},
		{
		  "duration": 0.09677399999999992,
		  "durationTicks": 120,
		  "midi": 36,
		  "name": "C2",
		  "ticks": 14400,
		  "time": 11.61288,
		  "velocity": 0.7480314960629921
		},
		{
		  "duration": 0.09677399999999992,
		  "durationTicks": 120,
		  "midi": 47,
		  "name": "B2",
		  "ticks": 14520,
		  "time": 11.709654,
		  "velocity": 0.7480314960629921
		},
		{
		  "duration": 0.09677399999999992,
		  "durationTicks": 120,
		  "midi": 45,
		  "name": "A2",
		  "ticks": 14640,
		  "time": 11.806428,
		  "velocity": 0.7480314960629921
		},
		{
		  "duration": 0.09677399999999992,
		  "durationTicks": 120,
		  "midi": 36,
		  "name": "C2",
		  "ticks": 14640,
		  "time": 11.806428,
		  "velocity": 0.7480314960629921
		},
		{
		  "duration": 0.09677399999999992,
		  "durationTicks": 120,
		  "midi": 43,
		  "name": "G2",
		  "ticks": 14760,
		  "time": 11.903202,
		  "velocity": 0.7480314960629921
		},
		{
		  "duration": 0.09677399999999992,
		  "durationTicks": 120,
		  "midi": 52,
		  "name": "E3",
		  "ticks": 14880,
		  "time": 11.999976,
		  "velocity": 0.7480314960629921
		},
		{
		  "duration": 0.09677399999999992,
		  "durationTicks": 120,
		  "midi": 38,
		  "name": "D2",
		  "ticks": 14880,
		  "time": 11.999976,
		  "velocity": 0.7480314960629921
		},
		{
		  "duration": 0.19354799999999983,
		  "durationTicks": 240,
		  "midi": 41,
		  "name": "F2",
		  "ticks": 15120,
		  "time": 12.193524,
		  "velocity": 0.7480314960629921
		},
		{
		  "duration": 0.19354799999999983,
		  "durationTicks": 240,
		  "midi": 36,
		  "name": "C2",
		  "ticks": 15120,
		  "time": 12.193524,
		  "velocity": 0.7480314960629921
		},
		{
		  "duration": 0.19354799999999983,
		  "durationTicks": 240,
		  "midi": 49,
		  "name": "C#3",
		  "ticks": 15360,
		  "time": 12.387072,
		  "velocity": 0.7480314960629921
		},
		{
		  "duration": 0.19354799999999983,
		  "durationTicks": 240,
		  "midi": 36,
		  "name": "C2",
		  "ticks": 15360,
		  "time": 12.387072,
		  "velocity": 0.7480314960629921
		},
		{
		  "duration": 0.19354799999999983,
		  "durationTicks": 240,
		  "midi": 36,
		  "name": "C2",
		  "ticks": 15600,
		  "time": 12.58062,
		  "velocity": 0.7480314960629921
		},
		{
		  "duration": 0.19354799999999983,
		  "durationTicks": 240,
		  "midi": 55,
		  "name": "G3",
		  "ticks": 15840,
		  "time": 12.774168,
		  "velocity": 0.7480314960629921
		},
		{
		  "duration": 0.19354799999999983,
		  "durationTicks": 240,
		  "midi": 38,
		  "name": "D2",
		  "ticks": 15840,
		  "time": 12.774168,
		  "velocity": 0.7480314960629921
		},
		{
		  "duration": 0.19354799999999983,
		  "durationTicks": 240,
		  "midi": 36,
		  "name": "C2",
		  "ticks": 16080,
		  "time": 12.967716,
		  "velocity": 0.7480314960629921
		},
		{
		  "duration": 0.19354799999999983,
		  "durationTicks": 240,
		  "midi": 55,
		  "name": "G3",
		  "ticks": 16320,
		  "time": 13.161264,
		  "velocity": 0.7480314960629921
		},
		{
		  "duration": 0.1935480000000016,
		  "durationTicks": 240,
		  "midi": 36,
		  "name": "C2",
		  "ticks": 16560,
		  "time": 13.354811999999999,
		  "velocity": 0.7480314960629921
		},
		{
		  "duration": 0.19354799999999983,
		  "durationTicks": 240,
		  "midi": 55,
		  "name": "G3",
		  "ticks": 16800,
		  "time": 13.54836,
		  "velocity": 0.7480314960629921
		},
		{
		  "duration": 0.19354799999999983,
		  "durationTicks": 240,
		  "midi": 38,
		  "name": "D2",
		  "ticks": 16800,
		  "time": 13.54836,
		  "velocity": 0.7480314960629921
		},
		{
		  "duration": 0.19354799999999983,
		  "durationTicks": 240,
		  "midi": 36,
		  "name": "C2",
		  "ticks": 17040,
		  "time": 13.741908,
		  "velocity": 0.7480314960629921
		},
		{
		  "duration": 0.19354799999999983,
		  "durationTicks": 240,
		  "midi": 55,
		  "name": "G3",
		  "ticks": 17280,
		  "time": 13.935456,
		  "velocity": 0.7480314960629921
		},
		{
		  "duration": 0.19354799999999983,
		  "durationTicks": 240,
		  "midi": 36,
		  "name": "C2",
		  "ticks": 17280,
		  "time": 13.935456,
		  "velocity": 0.7480314960629921
		},
		{
		  "duration": 0.19354799999999983,
		  "durationTicks": 240,
		  "midi": 36,
		  "name": "C2",
		  "ticks": 17520,
		  "time": 14.129004,
		  "velocity": 0.7480314960629921
		},
		{
		  "duration": 0.19354799999999983,
		  "durationTicks": 240,
		  "midi": 55,
		  "name": "G3",
		  "ticks": 17760,
		  "time": 14.322552,
		  "velocity": 0.7480314960629921
		},
		{
		  "duration": 0.19354799999999983,
		  "durationTicks": 240,
		  "midi": 38,
		  "name": "D2",
		  "ticks": 17760,
		  "time": 14.322552,
		  "velocity": 0.7480314960629921
		},
		{
		  "duration": 0.19354799999999983,
		  "durationTicks": 240,
		  "midi": 36,
		  "name": "C2",
		  "ticks": 18000,
		  "time": 14.5161,
		  "velocity": 0.7480314960629921
		},
		{
		  "duration": 0.19354799999999983,
		  "durationTicks": 240,
		  "midi": 55,
		  "name": "G3",
		  "ticks": 18240,
		  "time": 14.709648,
		  "velocity": 0.7480314960629921
		},
		{
		  "duration": 0.09677399999999992,
		  "durationTicks": 120,
		  "midi": 36,
		  "name": "C2",
		  "ticks": 18480,
		  "time": 14.903196,
		  "velocity": 0.7480314960629921
		},
		{
		  "duration": 0.09677399999999992,
		  "durationTicks": 120,
		  "midi": 36,
		  "name": "C2",
		  "ticks": 18600,
		  "time": 14.99997,
		  "velocity": 0.7480314960629921
		},
		{
		  "duration": 0.19354799999999983,
		  "durationTicks": 240,
		  "midi": 55,
		  "name": "G3",
		  "ticks": 18720,
		  "time": 15.096744,
		  "velocity": 0.7480314960629921
		},
		{
		  "duration": 0.19354799999999983,
		  "durationTicks": 240,
		  "midi": 38,
		  "name": "D2",
		  "ticks": 18720,
		  "time": 15.096744,
		  "velocity": 0.7480314960629921
		},
		{
		  "duration": 0.1935480000000016,
		  "durationTicks": 240,
		  "midi": 36,
		  "name": "C2",
		  "ticks": 18960,
		  "time": 15.290291999999999,
		  "velocity": 0.7480314960629921
		},
		{
		  "duration": 0.19354799999999983,
		  "durationTicks": 240,
		  "midi": 55,
		  "name": "G3",
		  "ticks": 19200,
		  "time": 15.48384,
		  "velocity": 0.7480314960629921
		},
		{
		  "duration": 0.19354799999999983,
		  "durationTicks": 240,
		  "midi": 36,
		  "name": "C2",
		  "ticks": 19200,
		  "time": 15.48384,
		  "velocity": 0.7480314960629921
		},
		{
		  "duration": 0.19354799999999983,
		  "durationTicks": 240,
		  "midi": 36,
		  "name": "C2",
		  "ticks": 19440,
		  "time": 15.677388,
		  "velocity": 0.7480314960629921
		},
		{
		  "duration": 0.19354799999999983,
		  "durationTicks": 240,
		  "midi": 55,
		  "name": "G3",
		  "ticks": 19680,
		  "time": 15.870936,
		  "velocity": 0.7480314960629921
		},
		{
		  "duration": 0.19354799999999983,
		  "durationTicks": 240,
		  "midi": 38,
		  "name": "D2",
		  "ticks": 19680,
		  "time": 15.870936,
		  "velocity": 0.7480314960629921
		},
		{
		  "duration": 0.19354799999999983,
		  "durationTicks": 240,
		  "midi": 36,
		  "name": "C2",
		  "ticks": 19920,
		  "time": 16.064484,
		  "velocity": 0.7480314960629921
		},
		{
		  "duration": 0.19354799999999983,
		  "durationTicks": 240,
		  "midi": 55,
		  "name": "G3",
		  "ticks": 20160,
		  "time": 16.258032,
		  "velocity": 0.7480314960629921
		},
		{
		  "duration": 0.19354799999999983,
		  "durationTicks": 240,
		  "midi": 36,
		  "name": "C2",
		  "ticks": 20400,
		  "time": 16.45158,
		  "velocity": 0.7480314960629921
		},
		{
		  "duration": 0.19354799999999983,
		  "durationTicks": 240,
		  "midi": 55,
		  "name": "G3",
		  "ticks": 20640,
		  "time": 16.645128,
		  "velocity": 0.7480314960629921
		},
		{
		  "duration": 0.19354799999999983,
		  "durationTicks": 240,
		  "midi": 38,
		  "name": "D2",
		  "ticks": 20640,
		  "time": 16.645128,
		  "velocity": 0.7480314960629921
		},
		{
		  "duration": 0.19354799999999983,
		  "durationTicks": 240,
		  "midi": 36,
		  "name": "C2",
		  "ticks": 20880,
		  "time": 16.838676,
		  "velocity": 0.7480314960629921
		},
		{
		  "duration": 0.19354799999999983,
		  "durationTicks": 240,
		  "midi": 55,
		  "name": "G3",
		  "ticks": 21120,
		  "time": 17.032224,
		  "velocity": 0.7480314960629921
		},
		{
		  "duration": 0.19354799999999983,
		  "durationTicks": 240,
		  "midi": 36,
		  "name": "C2",
		  "ticks": 21120,
		  "time": 17.032224,
		  "velocity": 0.7480314960629921
		},
		{
		  "duration": 0.19354799999999983,
		  "durationTicks": 240,
		  "midi": 36,
		  "name": "C2",
		  "ticks": 21360,
		  "time": 17.225772,
		  "velocity": 0.7480314960629921
		},
		{
		  "duration": 0.19354799999999983,
		  "durationTicks": 240,
		  "midi": 55,
		  "name": "G3",
		  "ticks": 21600,
		  "time": 17.41932,
		  "velocity": 0.7480314960629921
		},
		{
		  "duration": 0.19354799999999983,
		  "durationTicks": 240,
		  "midi": 38,
		  "name": "D2",
		  "ticks": 21600,
		  "time": 17.41932,
		  "velocity": 0.7480314960629921
		},
		{
		  "duration": 0.19354799999999983,
		  "durationTicks": 240,
		  "midi": 36,
		  "name": "C2",
		  "ticks": 21840,
		  "time": 17.612868,
		  "velocity": 0.7480314960629921
		},
		{
		  "duration": 0.09677399999999992,
		  "durationTicks": 120,
		  "midi": 47,
		  "name": "B2",
		  "ticks": 22080,
		  "time": 17.806416,
		  "velocity": 0.7480314960629921
		},
		{
		  "duration": 0.09677399999999992,
		  "durationTicks": 120,
		  "midi": 36,
		  "name": "C2",
		  "ticks": 22080,
		  "time": 17.806416,
		  "velocity": 0.7480314960629921
		},
		{
		  "duration": 0.09677399999999992,
		  "durationTicks": 120,
		  "midi": 47,
		  "name": "B2",
		  "ticks": 22200,
		  "time": 17.90319,
		  "velocity": 0.7480314960629921
		},
		{
		  "duration": 0.09677399999999992,
		  "durationTicks": 120,
		  "midi": 45,
		  "name": "A2",
		  "ticks": 22320,
		  "time": 17.999964,
		  "velocity": 0.7480314960629921
		},
		{
		  "duration": 0.09677399999999992,
		  "durationTicks": 120,
		  "midi": 36,
		  "name": "C2",
		  "ticks": 22320,
		  "time": 17.999964,
		  "velocity": 0.7480314960629921
		},
		{
		  "duration": 0.09677399999999992,
		  "durationTicks": 120,
		  "midi": 43,
		  "name": "G2",
		  "ticks": 22440,
		  "time": 18.096738,
		  "velocity": 0.7480314960629921
		},
		{
		  "duration": 0.09677399999999992,
		  "durationTicks": 120,
		  "midi": 52,
		  "name": "E3",
		  "ticks": 22560,
		  "time": 18.193512,
		  "velocity": 0.7480314960629921
		},
		{
		  "duration": 0.09677399999999992,
		  "durationTicks": 120,
		  "midi": 38,
		  "name": "D2",
		  "ticks": 22560,
		  "time": 18.193512,
		  "velocity": 0.7480314960629921
		},
		{
		  "duration": 0.19354799999999983,
		  "durationTicks": 240,
		  "midi": 41,
		  "name": "F2",
		  "ticks": 22800,
		  "time": 18.387059999999998,
		  "velocity": 0.7480314960629921
		},
		{
		  "duration": 0.19354799999999983,
		  "durationTicks": 240,
		  "midi": 36,
		  "name": "C2",
		  "ticks": 22800,
		  "time": 18.387059999999998,
		  "velocity": 0.7480314960629921
		},
		{
		  "duration": 0.19354800000000338,
		  "durationTicks": 240,
		  "midi": 49,
		  "name": "C#3",
		  "ticks": 23040,
		  "time": 18.580607999999998,
		  "velocity": 0.7480314960629921
		},
		{
		  "duration": 0.19354800000000338,
		  "durationTicks": 240,
		  "midi": 36,
		  "name": "C2",
		  "ticks": 23040,
		  "time": 18.580607999999998,
		  "velocity": 0.7480314960629921
		},
		{
		  "duration": 0.19354799999999983,
		  "durationTicks": 240,
		  "midi": 36,
		  "name": "C2",
		  "ticks": 23280,
		  "time": 18.774156,
		  "velocity": 0.7480314960629921
		},
		{
		  "duration": 0.19354799999999983,
		  "durationTicks": 240,
		  "midi": 55,
		  "name": "G3",
		  "ticks": 23520,
		  "time": 18.967704,
		  "velocity": 0.7480314960629921
		},
		{
		  "duration": 0.19354799999999983,
		  "durationTicks": 240,
		  "midi": 38,
		  "name": "D2",
		  "ticks": 23520,
		  "time": 18.967704,
		  "velocity": 0.7480314960629921
		},
		{
		  "duration": 0.19354799999999983,
		  "durationTicks": 240,
		  "midi": 36,
		  "name": "C2",
		  "ticks": 23760,
		  "time": 19.161252,
		  "velocity": 0.7480314960629921
		},
		{
		  "duration": 0.19354799999999983,
		  "durationTicks": 240,
		  "midi": 55,
		  "name": "G3",
		  "ticks": 24000,
		  "time": 19.3548,
		  "velocity": 0.7480314960629921
		},
		{
		  "duration": 0.19354799999999983,
		  "durationTicks": 240,
		  "midi": 36,
		  "name": "C2",
		  "ticks": 24240,
		  "time": 19.548348,
		  "velocity": 0.7480314960629921
		},
		{
		  "duration": 0.19354799999999983,
		  "durationTicks": 240,
		  "midi": 55,
		  "name": "G3",
		  "ticks": 24480,
		  "time": 19.741896,
		  "velocity": 0.7480314960629921
		},
		{
		  "duration": 0.19354799999999983,
		  "durationTicks": 240,
		  "midi": 38,
		  "name": "D2",
		  "ticks": 24480,
		  "time": 19.741896,
		  "velocity": 0.7480314960629921
		},
		{
		  "duration": 0.19354799999999983,
		  "durationTicks": 240,
		  "midi": 36,
		  "name": "C2",
		  "ticks": 24720,
		  "time": 19.935444,
		  "velocity": 0.7480314960629921
		},
		{
		  "duration": 0.19354799999999983,
		  "durationTicks": 240,
		  "midi": 55,
		  "name": "G3",
		  "ticks": 24960,
		  "time": 20.128992,
		  "velocity": 0.7480314960629921
		},
		{
		  "duration": 0.19354799999999983,
		  "durationTicks": 240,
		  "midi": 36,
		  "name": "C2",
		  "ticks": 24960,
		  "time": 20.128992,
		  "velocity": 0.7480314960629921
		},
		{
		  "duration": 0.19354799999999983,
		  "durationTicks": 240,
		  "midi": 36,
		  "name": "C2",
		  "ticks": 25200,
		  "time": 20.32254,
		  "velocity": 0.7480314960629921
		},
		{
		  "duration": 0.19354799999999983,
		  "durationTicks": 240,
		  "midi": 55,
		  "name": "G3",
		  "ticks": 25440,
		  "time": 20.516088,
		  "velocity": 0.7480314960629921
		},
		{
		  "duration": 0.19354799999999983,
		  "durationTicks": 240,
		  "midi": 38,
		  "name": "D2",
		  "ticks": 25440,
		  "time": 20.516088,
		  "velocity": 0.7480314960629921
		},
		{
		  "duration": 0.19354799999999983,
		  "durationTicks": 240,
		  "midi": 36,
		  "name": "C2",
		  "ticks": 25680,
		  "time": 20.709636,
		  "velocity": 0.7480314960629921
		},
		{
		  "duration": 0.19354799999999983,
		  "durationTicks": 240,
		  "midi": 55,
		  "name": "G3",
		  "ticks": 25920,
		  "time": 20.903184,
		  "velocity": 0.7480314960629921
		},
		{
		  "duration": 0.09677399999999992,
		  "durationTicks": 120,
		  "midi": 36,
		  "name": "C2",
		  "ticks": 26160,
		  "time": 21.096732,
		  "velocity": 0.7480314960629921
		},
		{
		  "duration": 0.09677399999999992,
		  "durationTicks": 120,
		  "midi": 36,
		  "name": "C2",
		  "ticks": 26280,
		  "time": 21.193506,
		  "velocity": 0.7480314960629921
		},
		{
		  "duration": 0.19354799999999983,
		  "durationTicks": 240,
		  "midi": 55,
		  "name": "G3",
		  "ticks": 26400,
		  "time": 21.29028,
		  "velocity": 0.7480314960629921
		},
		{
		  "duration": 0.19354799999999983,
		  "durationTicks": 240,
		  "midi": 38,
		  "name": "D2",
		  "ticks": 26400,
		  "time": 21.29028,
		  "velocity": 0.7480314960629921
		},
		{
		  "duration": 0.19354799999999983,
		  "durationTicks": 240,
		  "midi": 36,
		  "name": "C2",
		  "ticks": 26640,
		  "time": 21.483828,
		  "velocity": 0.7480314960629921
		},
		{
		  "duration": 0.19354799999999983,
		  "durationTicks": 240,
		  "midi": 55,
		  "name": "G3",
		  "ticks": 26880,
		  "time": 21.677376,
		  "velocity": 0.7480314960629921
		},
		{
		  "duration": 0.19354799999999983,
		  "durationTicks": 240,
		  "midi": 36,
		  "name": "C2",
		  "ticks": 26880,
		  "time": 21.677376,
		  "velocity": 0.7480314960629921
		},
		{
		  "duration": 0.19354799999999983,
		  "durationTicks": 240,
		  "midi": 36,
		  "name": "C2",
		  "ticks": 27120,
		  "time": 21.870924,
		  "velocity": 0.7480314960629921
		},
		{
		  "duration": 0.19354799999999983,
		  "durationTicks": 240,
		  "midi": 55,
		  "name": "G3",
		  "ticks": 27360,
		  "time": 22.064472,
		  "velocity": 0.7480314960629921
		},
		{
		  "duration": 0.19354799999999983,
		  "durationTicks": 240,
		  "midi": 38,
		  "name": "D2",
		  "ticks": 27360,
		  "time": 22.064472,
		  "velocity": 0.7480314960629921
		},
		{
		  "duration": 0.19354799999999983,
		  "durationTicks": 240,
		  "midi": 36,
		  "name": "C2",
		  "ticks": 27600,
		  "time": 22.25802,
		  "velocity": 0.7480314960629921
		},
		{
		  "duration": 0.19354799999999983,
		  "durationTicks": 240,
		  "midi": 55,
		  "name": "G3",
		  "ticks": 27840,
		  "time": 22.451567999999998,
		  "velocity": 0.7480314960629921
		},
		{
		  "duration": 0.19354800000000338,
		  "durationTicks": 240,
		  "midi": 36,
		  "name": "C2",
		  "ticks": 28080,
		  "time": 22.645115999999998,
		  "velocity": 0.7480314960629921
		},
		{
		  "duration": 0.19354799999999983,
		  "durationTicks": 240,
		  "midi": 55,
		  "name": "G3",
		  "ticks": 28320,
		  "time": 22.838664,
		  "velocity": 0.7480314960629921
		},
		{
		  "duration": 0.19354799999999983,
		  "durationTicks": 240,
		  "midi": 38,
		  "name": "D2",
		  "ticks": 28320,
		  "time": 22.838664,
		  "velocity": 0.7480314960629921
		},
		{
		  "duration": 0.19354799999999983,
		  "durationTicks": 240,
		  "midi": 36,
		  "name": "C2",
		  "ticks": 28560,
		  "time": 23.032212,
		  "velocity": 0.7480314960629921
		},
		{
		  "duration": 0.19354799999999983,
		  "durationTicks": 240,
		  "midi": 55,
		  "name": "G3",
		  "ticks": 28800,
		  "time": 23.22576,
		  "velocity": 0.7480314960629921
		},
		{
		  "duration": 0.19354799999999983,
		  "durationTicks": 240,
		  "midi": 36,
		  "name": "C2",
		  "ticks": 28800,
		  "time": 23.22576,
		  "velocity": 0.7480314960629921
		},
		{
		  "duration": 0.19354799999999983,
		  "durationTicks": 240,
		  "midi": 36,
		  "name": "C2",
		  "ticks": 29040,
		  "time": 23.419308,
		  "velocity": 0.7480314960629921
		},
		{
		  "duration": 0.19354799999999983,
		  "durationTicks": 240,
		  "midi": 55,
		  "name": "G3",
		  "ticks": 29280,
		  "time": 23.612856,
		  "velocity": 0.7480314960629921
		},
		{
		  "duration": 0.19354799999999983,
		  "durationTicks": 240,
		  "midi": 38,
		  "name": "D2",
		  "ticks": 29280,
		  "time": 23.612856,
		  "velocity": 0.7480314960629921
		},
		{
		  "duration": 0.19354799999999983,
		  "durationTicks": 240,
		  "midi": 36,
		  "name": "C2",
		  "ticks": 29520,
		  "time": 23.806404,
		  "velocity": 0.7480314960629921
		},
		{
		  "duration": 0.09677399999999992,
		  "durationTicks": 120,
		  "midi": 47,
		  "name": "B2",
		  "ticks": 29760,
		  "time": 23.999952,
		  "velocity": 0.7480314960629921
		},
		{
		  "duration": 0.09677399999999992,
		  "durationTicks": 120,
		  "midi": 36,
		  "name": "C2",
		  "ticks": 29760,
		  "time": 23.999952,
		  "velocity": 0.7480314960629921
		},
		{
		  "duration": 0.09677399999999992,
		  "durationTicks": 120,
		  "midi": 47,
		  "name": "B2",
		  "ticks": 29880,
		  "time": 24.096726,
		  "velocity": 0.7480314960629921
		},
		{
		  "duration": 0.09677399999999992,
		  "durationTicks": 120,
		  "midi": 45,
		  "name": "A2",
		  "ticks": 30000,
		  "time": 24.1935,
		  "velocity": 0.7480314960629921
		},
		{
		  "duration": 0.09677399999999992,
		  "durationTicks": 120,
		  "midi": 36,
		  "name": "C2",
		  "ticks": 30000,
		  "time": 24.1935,
		  "velocity": 0.7480314960629921
		},
		{
		  "duration": 0.09677399999999992,
		  "durationTicks": 120,
		  "midi": 43,
		  "name": "G2",
		  "ticks": 30120,
		  "time": 24.290274,
		  "velocity": 0.7480314960629921
		},
		{
		  "duration": 0.09677399999999992,
		  "durationTicks": 120,
		  "midi": 52,
		  "name": "E3",
		  "ticks": 30240,
		  "time": 24.387048,
		  "velocity": 0.7480314960629921
		},
		{
		  "duration": 0.09677399999999992,
		  "durationTicks": 120,
		  "midi": 38,
		  "name": "D2",
		  "ticks": 30240,
		  "time": 24.387048,
		  "velocity": 0.7480314960629921
		},
		{
		  "duration": 0.19354799999999983,
		  "durationTicks": 240,
		  "midi": 41,
		  "name": "F2",
		  "ticks": 30480,
		  "time": 24.580596,
		  "velocity": 0.7480314960629921
		},
		{
		  "duration": 0.19354799999999983,
		  "durationTicks": 240,
		  "midi": 36,
		  "name": "C2",
		  "ticks": 30480,
		  "time": 24.580596,
		  "velocity": 0.7480314960629921
		},
		{
		  "duration": 0.19354799999999983,
		  "durationTicks": 240,
		  "midi": 49,
		  "name": "C#3",
		  "ticks": 30720,
		  "time": 24.774144,
		  "velocity": 0.7480314960629921
		},
		{
		  "duration": 0.19354799999999983,
		  "durationTicks": 240,
		  "midi": 36,
		  "name": "C2",
		  "ticks": 30720,
		  "time": 24.774144,
		  "velocity": 0.7480314960629921
		},
		{
		  "duration": 0.19354799999999983,
		  "durationTicks": 240,
		  "midi": 36,
		  "name": "C2",
		  "ticks": 30960,
		  "time": 24.967692,
		  "velocity": 0.7480314960629921
		},
		{
		  "duration": 0.19354799999999983,
		  "durationTicks": 240,
		  "midi": 38,
		  "name": "D2",
		  "ticks": 31200,
		  "time": 25.16124,
		  "velocity": 0.7480314960629921
		},
		{
		  "duration": 0.19354799999999983,
		  "durationTicks": 240,
		  "midi": 38,
		  "name": "D2",
		  "ticks": 32160,
		  "time": 25.935432,
		  "velocity": 0.7480314960629921
		},
		{
		  "duration": 0.19354800000000338,
		  "durationTicks": 240,
		  "midi": 38,
		  "name": "D2",
		  "ticks": 33120,
		  "time": 26.709623999999998,
		  "velocity": 0.7480314960629921
		},
		{
		  "duration": 0.09677399999999992,
		  "durationTicks": 120,
		  "midi": 36,
		  "name": "C2",
		  "ticks": 33840,
		  "time": 27.290268,
		  "velocity": 0.7480314960629921
		},
		{
		  "duration": 0.09677399999999992,
		  "durationTicks": 120,
		  "midi": 36,
		  "name": "C2",
		  "ticks": 33960,
		  "time": 27.387042,
		  "velocity": 0.7480314960629921
		},
		{
		  "duration": 0.19354799999999983,
		  "durationTicks": 240,
		  "midi": 38,
		  "name": "D2",
		  "ticks": 34080,
		  "time": 27.483816,
		  "velocity": 0.7480314960629921
		},
		{
		  "duration": 0.19354799999999983,
		  "durationTicks": 240,
		  "midi": 36,
		  "name": "C2",
		  "ticks": 34320,
		  "time": 27.677364,
		  "velocity": 0.7480314960629921
		},
		{
		  "duration": 0.19354799999999983,
		  "durationTicks": 240,
		  "midi": 36,
		  "name": "C2",
		  "ticks": 34560,
		  "time": 27.870912,
		  "velocity": 0.7480314960629921
		},
		{
		  "duration": 0.19354799999999983,
		  "durationTicks": 240,
		  "midi": 36,
		  "name": "C2",
		  "ticks": 34800,
		  "time": 28.06446,
		  "velocity": 0.7480314960629921
		},
		{
		  "duration": 0.19354799999999983,
		  "durationTicks": 240,
		  "midi": 38,
		  "name": "D2",
		  "ticks": 35040,
		  "time": 28.258008,
		  "velocity": 0.7480314960629921
		},
		{
		  "duration": 0.19354799999999983,
		  "durationTicks": 240,
		  "midi": 38,
		  "name": "D2",
		  "ticks": 36000,
		  "time": 29.0322,
		  "velocity": 0.7480314960629921
		},
		{
		  "duration": 0.19354799999999983,
		  "durationTicks": 240,
		  "midi": 38,
		  "name": "D2",
		  "ticks": 36960,
		  "time": 29.806392,
		  "velocity": 0.7480314960629921
		},
		{
		  "duration": 0.09677399999999992,
		  "durationTicks": 120,
		  "midi": 36,
		  "name": "C2",
		  "ticks": 37200,
		  "time": 29.99994,
		  "velocity": 0.7480314960629921
		},
		{
		  "duration": 0.09677399999999992,
		  "durationTicks": 120,
		  "midi": 36,
		  "name": "C2",
		  "ticks": 37320,
		  "time": 30.096714,
		  "velocity": 0.7480314960629921
		},
		{
		  "duration": 0.19354799999999983,
		  "durationTicks": 240,
		  "midi": 36,
		  "name": "C2",
		  "ticks": 37440,
		  "time": 30.193488,
		  "velocity": 0.7480314960629921
		},
		{
		  "duration": 0.09677399999999992,
		  "durationTicks": 120,
		  "midi": 53,
		  "name": "F3",
		  "ticks": 37680,
		  "time": 30.387036,
		  "velocity": 0.7480314960629921
		},
		{
		  "duration": 0.09677399999999992,
		  "durationTicks": 120,
		  "midi": 36,
		  "name": "C2",
		  "ticks": 37680,
		  "time": 30.387036,
		  "velocity": 0.7480314960629921
		},
		{
		  "duration": 0.09677399999999992,
		  "durationTicks": 120,
		  "midi": 36,
		  "name": "C2",
		  "ticks": 37800,
		  "time": 30.48381,
		  "velocity": 0.7480314960629921
		},
		{
		  "duration": 0.19354799999999983,
		  "durationTicks": 240,
		  "midi": 52,
		  "name": "E3",
		  "ticks": 37920,
		  "time": 30.580583999999998,
		  "velocity": 0.7480314960629921
		},
		{
		  "duration": 0.19354799999999983,
		  "durationTicks": 240,
		  "midi": 38,
		  "name": "D2",
		  "ticks": 37920,
		  "time": 30.580583999999998,
		  "velocity": 0.7480314960629921
		},
		{
		  "duration": 0.19354799999999983,
		  "durationTicks": 240,
		  "midi": 49,
		  "name": "C#3",
		  "ticks": 38400,
		  "time": 30.96768,
		  "velocity": 0.7480314960629921
		},
		{
		  "duration": 0.19354799999999983,
		  "durationTicks": 240,
		  "midi": 36,
		  "name": "C2",
		  "ticks": 38400,
		  "time": 30.96768,
		  "velocity": 0.7480314960629921
		},
		{
		  "duration": 0.19354799999999983,
		  "durationTicks": 240,
		  "midi": 36,
		  "name": "C2",
		  "ticks": 38640,
		  "time": 31.161228,
		  "velocity": 0.7480314960629921
		},
		{
		  "duration": 0.19354799999999983,
		  "durationTicks": 240,
		  "midi": 55,
		  "name": "G3",
		  "ticks": 38880,
		  "time": 31.354776,
		  "velocity": 0.7480314960629921
		},
		{
		  "duration": 0.19354799999999983,
		  "durationTicks": 240,
		  "midi": 38,
		  "name": "D2",
		  "ticks": 38880,
		  "time": 31.354776,
		  "velocity": 0.7480314960629921
		},
		{
		  "duration": 0.19354799999999983,
		  "durationTicks": 240,
		  "midi": 36,
		  "name": "C2",
		  "ticks": 39120,
		  "time": 31.548324,
		  "velocity": 0.7480314960629921
		},
		{
		  "duration": 0.19354799999999983,
		  "durationTicks": 240,
		  "midi": 55,
		  "name": "G3",
		  "ticks": 39360,
		  "time": 31.741872,
		  "velocity": 0.7480314960629921
		},
		{
		  "duration": 0.19354799999999983,
		  "durationTicks": 240,
		  "midi": 36,
		  "name": "C2",
		  "ticks": 39360,
		  "time": 31.741872,
		  "velocity": 0.7480314960629921
		},
		{
		  "duration": 0.19354799999999983,
		  "durationTicks": 240,
		  "midi": 36,
		  "name": "C2",
		  "ticks": 39600,
		  "time": 31.93542,
		  "velocity": 0.7480314960629921
		},
		{
		  "duration": 0.19354799999999983,
		  "durationTicks": 240,
		  "midi": 55,
		  "name": "G3",
		  "ticks": 39840,
		  "time": 32.128968,
		  "velocity": 0.7480314960629921
		},
		{
		  "duration": 0.19354799999999983,
		  "durationTicks": 240,
		  "midi": 38,
		  "name": "D2",
		  "ticks": 39840,
		  "time": 32.128968,
		  "velocity": 0.7480314960629921
		},
		{
		  "duration": 0.19354799999999983,
		  "durationTicks": 240,
		  "midi": 36,
		  "name": "C2",
		  "ticks": 40080,
		  "time": 32.322516,
		  "velocity": 0.7480314960629921
		},
		{
		  "duration": 0.19354799999999983,
		  "durationTicks": 240,
		  "midi": 55,
		  "name": "G3",
		  "ticks": 40320,
		  "time": 32.516064,
		  "velocity": 0.7480314960629921
		},
		{
		  "duration": 0.19354799999999983,
		  "durationTicks": 240,
		  "midi": 36,
		  "name": "C2",
		  "ticks": 40320,
		  "time": 32.516064,
		  "velocity": 0.7480314960629921
		},
		{
		  "duration": 0.19354799999999983,
		  "durationTicks": 240,
		  "midi": 36,
		  "name": "C2",
		  "ticks": 40560,
		  "time": 32.709612,
		  "velocity": 0.7480314960629921
		},
		{
		  "duration": 0.19354799999999983,
		  "durationTicks": 240,
		  "midi": 55,
		  "name": "G3",
		  "ticks": 40800,
		  "time": 32.90316,
		  "velocity": 0.7480314960629921
		},
		{
		  "duration": 0.19354799999999983,
		  "durationTicks": 240,
		  "midi": 38,
		  "name": "D2",
		  "ticks": 40800,
		  "time": 32.90316,
		  "velocity": 0.7480314960629921
		},
		{
		  "duration": 0.19354799999999983,
		  "durationTicks": 240,
		  "midi": 36,
		  "name": "C2",
		  "ticks": 41040,
		  "time": 33.096708,
		  "velocity": 0.7480314960629921
		},
		{
		  "duration": 0.19354799999999983,
		  "durationTicks": 240,
		  "midi": 55,
		  "name": "G3",
		  "ticks": 41280,
		  "time": 33.290256,
		  "velocity": 0.7480314960629921
		},
		{
		  "duration": 0.09677400000000347,
		  "durationTicks": 120,
		  "midi": 36,
		  "name": "C2",
		  "ticks": 41520,
		  "time": 33.483804,
		  "velocity": 0.7480314960629921
		},
		{
		  "duration": 0.09677399999999636,
		  "durationTicks": 120,
		  "midi": 36,
		  "name": "C2",
		  "ticks": 41640,
		  "time": 33.580578,
		  "velocity": 0.7480314960629921
		},
		{
		  "duration": 0.19354799999999983,
		  "durationTicks": 240,
		  "midi": 55,
		  "name": "G3",
		  "ticks": 41760,
		  "time": 33.677352,
		  "velocity": 0.7480314960629921
		},
		{
		  "duration": 0.19354799999999983,
		  "durationTicks": 240,
		  "midi": 38,
		  "name": "D2",
		  "ticks": 41760,
		  "time": 33.677352,
		  "velocity": 0.7480314960629921
		},
		{
		  "duration": 0.19354799999999983,
		  "durationTicks": 240,
		  "midi": 36,
		  "name": "C2",
		  "ticks": 42000,
		  "time": 33.8709,
		  "velocity": 0.7480314960629921
		},
		{
		  "duration": 0.19354799999999983,
		  "durationTicks": 240,
		  "midi": 55,
		  "name": "G3",
		  "ticks": 42240,
		  "time": 34.064448,
		  "velocity": 0.7480314960629921
		},
		{
		  "duration": 0.19354799999999983,
		  "durationTicks": 240,
		  "midi": 36,
		  "name": "C2",
		  "ticks": 42240,
		  "time": 34.064448,
		  "velocity": 0.7480314960629921
		},
		{
		  "duration": 0.19354799999999983,
		  "durationTicks": 240,
		  "midi": 36,
		  "name": "C2",
		  "ticks": 42480,
		  "time": 34.257996,
		  "velocity": 0.7480314960629921
		},
		{
		  "duration": 0.19354799999999983,
		  "durationTicks": 240,
		  "midi": 55,
		  "name": "G3",
		  "ticks": 42720,
		  "time": 34.451544,
		  "velocity": 0.7480314960629921
		},
		{
		  "duration": 0.19354799999999983,
		  "durationTicks": 240,
		  "midi": 38,
		  "name": "D2",
		  "ticks": 42720,
		  "time": 34.451544,
		  "velocity": 0.7480314960629921
		},
		{
		  "duration": 0.19354799999999983,
		  "durationTicks": 240,
		  "midi": 36,
		  "name": "C2",
		  "ticks": 42960,
		  "time": 34.645092,
		  "velocity": 0.7480314960629921
		},
		{
		  "duration": 0.19354799999999983,
		  "durationTicks": 240,
		  "midi": 55,
		  "name": "G3",
		  "ticks": 43200,
		  "time": 34.83864,
		  "velocity": 0.7480314960629921
		},
		{
		  "duration": 0.19354799999999983,
		  "durationTicks": 240,
		  "midi": 36,
		  "name": "C2",
		  "ticks": 43200,
		  "time": 34.83864,
		  "velocity": 0.7480314960629921
		},
		{
		  "duration": 0.19354799999999983,
		  "durationTicks": 240,
		  "midi": 36,
		  "name": "C2",
		  "ticks": 43440,
		  "time": 35.032188,
		  "velocity": 0.7480314960629921
		},
		{
		  "duration": 0.19354799999999983,
		  "durationTicks": 240,
		  "midi": 55,
		  "name": "G3",
		  "ticks": 43680,
		  "time": 35.225736,
		  "velocity": 0.7480314960629921
		},
		{
		  "duration": 0.19354799999999983,
		  "durationTicks": 240,
		  "midi": 38,
		  "name": "D2",
		  "ticks": 43680,
		  "time": 35.225736,
		  "velocity": 0.7480314960629921
		},
		{
		  "duration": 0.19354799999999983,
		  "durationTicks": 240,
		  "midi": 36,
		  "name": "C2",
		  "ticks": 43920,
		  "time": 35.419284,
		  "velocity": 0.7480314960629921
		},
		{
		  "duration": 0.19354799999999983,
		  "durationTicks": 240,
		  "midi": 55,
		  "name": "G3",
		  "ticks": 44160,
		  "time": 35.612832,
		  "velocity": 0.7480314960629921
		},
		{
		  "duration": 0.19354799999999983,
		  "durationTicks": 240,
		  "midi": 36,
		  "name": "C2",
		  "ticks": 44160,
		  "time": 35.612832,
		  "velocity": 0.7480314960629921
		},
		{
		  "duration": 0.19354799999999983,
		  "durationTicks": 240,
		  "midi": 36,
		  "name": "C2",
		  "ticks": 44400,
		  "time": 35.80638,
		  "velocity": 0.7480314960629921
		},
		{
		  "duration": 0.19354799999999983,
		  "durationTicks": 240,
		  "midi": 55,
		  "name": "G3",
		  "ticks": 44640,
		  "time": 35.999928,
		  "velocity": 0.7480314960629921
		},
		{
		  "duration": 0.19354799999999983,
		  "durationTicks": 240,
		  "midi": 38,
		  "name": "D2",
		  "ticks": 44640,
		  "time": 35.999928,
		  "velocity": 0.7480314960629921
		},
		{
		  "duration": 0.19354799999999983,
		  "durationTicks": 240,
		  "midi": 36,
		  "name": "C2",
		  "ticks": 44880,
		  "time": 36.193476,
		  "velocity": 0.7480314960629921
		},
		{
		  "duration": 0.19354799999999983,
		  "durationTicks": 240,
		  "midi": 55,
		  "name": "G3",
		  "ticks": 45120,
		  "time": 36.387024,
		  "velocity": 0.7480314960629921
		},
		{
		  "duration": 0.09677400000000347,
		  "durationTicks": 120,
		  "midi": 36,
		  "name": "C2",
		  "ticks": 45360,
		  "time": 36.580572,
		  "velocity": 0.7480314960629921
		},
		{
		  "duration": 0.09677399999999636,
		  "durationTicks": 120,
		  "midi": 36,
		  "name": "C2",
		  "ticks": 45480,
		  "time": 36.677346,
		  "velocity": 0.7480314960629921
		},
		{
		  "duration": 0.19354799999999983,
		  "durationTicks": 240,
		  "midi": 52,
		  "name": "E3",
		  "ticks": 45600,
		  "time": 36.774119999999996,
		  "velocity": 0.7480314960629921
		},
		{
		  "duration": 0.19354799999999983,
		  "durationTicks": 240,
		  "midi": 38,
		  "name": "D2",
		  "ticks": 45600,
		  "time": 36.774119999999996,
		  "velocity": 0.7480314960629921
		},
		{
		  "duration": 0.19354799999999983,
		  "durationTicks": 240,
		  "midi": 36,
		  "name": "C2",
		  "ticks": 45840,
		  "time": 36.967667999999996,
		  "velocity": 0.7480314960629921
		},
		{
		  "duration": 0.19354800000000694,
		  "durationTicks": 240,
		  "midi": 49,
		  "name": "C#3",
		  "ticks": 46080,
		  "time": 37.161215999999996,
		  "velocity": 0.7480314960629921
		},
		{
		  "duration": 0.19354800000000694,
		  "durationTicks": 240,
		  "midi": 36,
		  "name": "C2",
		  "ticks": 46080,
		  "time": 37.161215999999996,
		  "velocity": 0.7480314960629921
		},
		{
		  "duration": 0.19354799999999983,
		  "durationTicks": 240,
		  "midi": 36,
		  "name": "C2",
		  "ticks": 46320,
		  "time": 37.354764,
		  "velocity": 0.7480314960629921
		},
		{
		  "duration": 0.19354799999999983,
		  "durationTicks": 240,
		  "midi": 38,
		  "name": "D2",
		  "ticks": 46560,
		  "time": 37.548312,
		  "velocity": 0.7480314960629921
		},
		{
		  "duration": 0.19354799999999983,
		  "durationTicks": 240,
		  "midi": 38,
		  "name": "D2",
		  "ticks": 47520,
		  "time": 38.322504,
		  "velocity": 0.7480314960629921
		},
		{
		  "duration": 0.19354799999999983,
		  "durationTicks": 240,
		  "midi": 38,
		  "name": "D2",
		  "ticks": 48480,
		  "time": 39.096696,
		  "velocity": 0.7480314960629921
		},
		{
		  "duration": 0.09677399999999636,
		  "durationTicks": 120,
		  "midi": 36,
		  "name": "C2",
		  "ticks": 49200,
		  "time": 39.67734,
		  "velocity": 0.7480314960629921
		},
		{
		  "duration": 0.09677400000000347,
		  "durationTicks": 120,
		  "midi": 36,
		  "name": "C2",
		  "ticks": 49320,
		  "time": 39.774114,
		  "velocity": 0.7480314960629921
		},
		{
		  "duration": 0.19354799999999983,
		  "durationTicks": 240,
		  "midi": 38,
		  "name": "D2",
		  "ticks": 49440,
		  "time": 39.870888,
		  "velocity": 0.7480314960629921
		},
		{
		  "duration": 0.19354799999999983,
		  "durationTicks": 240,
		  "midi": 36,
		  "name": "C2",
		  "ticks": 49680,
		  "time": 40.064436,
		  "velocity": 0.7480314960629921
		},
		{
		  "duration": 0.19354799999999983,
		  "durationTicks": 240,
		  "midi": 36,
		  "name": "C2",
		  "ticks": 49920,
		  "time": 40.257984,
		  "velocity": 0.7480314960629921
		},
		{
		  "duration": 0.19354799999999983,
		  "durationTicks": 240,
		  "midi": 36,
		  "name": "C2",
		  "ticks": 50160,
		  "time": 40.451532,
		  "velocity": 0.7480314960629921
		},
		{
		  "duration": 0.19354799999999983,
		  "durationTicks": 240,
		  "midi": 38,
		  "name": "D2",
		  "ticks": 50400,
		  "time": 40.64508,
		  "velocity": 0.7480314960629921
		},
		{
		  "duration": 0.19354799999999983,
		  "durationTicks": 240,
		  "midi": 38,
		  "name": "D2",
		  "ticks": 51360,
		  "time": 41.419272,
		  "velocity": 0.7480314960629921
		},
		{
		  "duration": 0.19354799999999983,
		  "durationTicks": 240,
		  "midi": 38,
		  "name": "D2",
		  "ticks": 52320,
		  "time": 42.193464,
		  "velocity": 0.7480314960629921
		},
		{
		  "duration": 0.09677400000000347,
		  "durationTicks": 120,
		  "midi": 36,
		  "name": "C2",
		  "ticks": 52560,
		  "time": 42.387012,
		  "velocity": 0.7480314960629921
		},
		{
		  "duration": 0.09677399999999636,
		  "durationTicks": 120,
		  "midi": 36,
		  "name": "C2",
		  "ticks": 52680,
		  "time": 42.483786,
		  "velocity": 0.7480314960629921
		},
		{
		  "duration": 0.19354799999999983,
		  "durationTicks": 240,
		  "midi": 36,
		  "name": "C2",
		  "ticks": 52800,
		  "time": 42.58056,
		  "velocity": 0.7480314960629921
		},
		{
		  "duration": 0.09677400000000347,
		  "durationTicks": 120,
		  "midi": 53,
		  "name": "F3",
		  "ticks": 53040,
		  "time": 42.774108,
		  "velocity": 0.7480314960629921
		},
		{
		  "duration": 0.09677400000000347,
		  "durationTicks": 120,
		  "midi": 36,
		  "name": "C2",
		  "ticks": 53040,
		  "time": 42.774108,
		  "velocity": 0.7480314960629921
		},
		{
		  "duration": 0.09677399999999636,
		  "durationTicks": 120,
		  "midi": 36,
		  "name": "C2",
		  "ticks": 53160,
		  "time": 42.870882,
		  "velocity": 0.7480314960629921
		},
		{
		  "duration": 0.19354799999999983,
		  "durationTicks": 240,
		  "midi": 52,
		  "name": "E3",
		  "ticks": 53280,
		  "time": 42.967656,
		  "velocity": 0.7480314960629921
		},
		{
		  "duration": 0.19354799999999983,
		  "durationTicks": 240,
		  "midi": 38,
		  "name": "D2",
		  "ticks": 53280,
		  "time": 42.967656,
		  "velocity": 0.7480314960629921
		},
		{
		  "duration": 0.19354799999999983,
		  "durationTicks": 240,
		  "midi": 49,
		  "name": "C#3",
		  "ticks": 53760,
		  "time": 43.354752,
		  "velocity": 0.7480314960629921
		},
		{
		  "duration": 0.19354799999999983,
		  "durationTicks": 240,
		  "midi": 36,
		  "name": "C2",
		  "ticks": 53760,
		  "time": 43.354752,
		  "velocity": 0.7480314960629921
		},
		{
		  "duration": 0.19354799999999983,
		  "durationTicks": 240,
		  "midi": 36,
		  "name": "C2",
		  "ticks": 54000,
		  "time": 43.5483,
		  "velocity": 0.7480314960629921
		},
		{
		  "duration": 0.19354799999999983,
		  "durationTicks": 240,
		  "midi": 55,
		  "name": "G3",
		  "ticks": 54240,
		  "time": 43.741848,
		  "velocity": 0.7480314960629921
		},
		{
		  "duration": 0.19354799999999983,
		  "durationTicks": 240,
		  "midi": 38,
		  "name": "D2",
		  "ticks": 54240,
		  "time": 43.741848,
		  "velocity": 0.7480314960629921
		},
		{
		  "duration": 0.19354799999999983,
		  "durationTicks": 240,
		  "midi": 36,
		  "name": "C2",
		  "ticks": 54480,
		  "time": 43.935396,
		  "velocity": 0.7480314960629921
		},
		{
		  "duration": 0.19354799999999983,
		  "durationTicks": 240,
		  "midi": 55,
		  "name": "G3",
		  "ticks": 54720,
		  "time": 44.128944,
		  "velocity": 0.7480314960629921
		},
		{
		  "duration": 0.19354799999999983,
		  "durationTicks": 240,
		  "midi": 36,
		  "name": "C2",
		  "ticks": 54720,
		  "time": 44.128944,
		  "velocity": 0.7480314960629921
		},
		{
		  "duration": 0.19354799999999983,
		  "durationTicks": 240,
		  "midi": 36,
		  "name": "C2",
		  "ticks": 54960,
		  "time": 44.322492,
		  "velocity": 0.7480314960629921
		},
		{
		  "duration": 0.19354799999999983,
		  "durationTicks": 240,
		  "midi": 55,
		  "name": "G3",
		  "ticks": 55200,
		  "time": 44.51604,
		  "velocity": 0.7480314960629921
		},
		{
		  "duration": 0.19354799999999983,
		  "durationTicks": 240,
		  "midi": 38,
		  "name": "D2",
		  "ticks": 55200,
		  "time": 44.51604,
		  "velocity": 0.7480314960629921
		},
		{
		  "duration": 0.19354799999999983,
		  "durationTicks": 240,
		  "midi": 36,
		  "name": "C2",
		  "ticks": 55440,
		  "time": 44.709588,
		  "velocity": 0.7480314960629921
		},
		{
		  "duration": 0.19354799999999983,
		  "durationTicks": 240,
		  "midi": 55,
		  "name": "G3",
		  "ticks": 55680,
		  "time": 44.903135999999996,
		  "velocity": 0.7480314960629921
		},
		{
		  "duration": 0.19354799999999983,
		  "durationTicks": 240,
		  "midi": 36,
		  "name": "C2",
		  "ticks": 55680,
		  "time": 44.903135999999996,
		  "velocity": 0.7480314960629921
		},
		{
		  "duration": 0.19354799999999983,
		  "durationTicks": 240,
		  "midi": 36,
		  "name": "C2",
		  "ticks": 55920,
		  "time": 45.096683999999996,
		  "velocity": 0.7480314960629921
		},
		{
		  "duration": 0.19354800000000694,
		  "durationTicks": 240,
		  "midi": 55,
		  "name": "G3",
		  "ticks": 56160,
		  "time": 45.290231999999996,
		  "velocity": 0.7480314960629921
		},
		{
		  "duration": 0.19354800000000694,
		  "durationTicks": 240,
		  "midi": 38,
		  "name": "D2",
		  "ticks": 56160,
		  "time": 45.290231999999996,
		  "velocity": 0.7480314960629921
		},
		{
		  "duration": 0.19354799999999983,
		  "durationTicks": 240,
		  "midi": 36,
		  "name": "C2",
		  "ticks": 56400,
		  "time": 45.48378,
		  "velocity": 0.7480314960629921
		},
		{
		  "duration": 0.19354799999999983,
		  "durationTicks": 240,
		  "midi": 55,
		  "name": "G3",
		  "ticks": 56640,
		  "time": 45.677328,
		  "velocity": 0.7480314960629921
		},
		{
		  "duration": 0.09677399999999636,
		  "durationTicks": 120,
		  "midi": 36,
		  "name": "C2",
		  "ticks": 56880,
		  "time": 45.870876,
		  "velocity": 0.7480314960629921
		},
		{
		  "duration": 0.09677400000000347,
		  "durationTicks": 120,
		  "midi": 36,
		  "name": "C2",
		  "ticks": 57000,
		  "time": 45.96765,
		  "velocity": 0.7480314960629921
		},
		{
		  "duration": 0.19354799999999983,
		  "durationTicks": 240,
		  "midi": 55,
		  "name": "G3",
		  "ticks": 57120,
		  "time": 46.064424,
		  "velocity": 0.7480314960629921
		},
		{
		  "duration": 0.19354799999999983,
		  "durationTicks": 240,
		  "midi": 38,
		  "name": "D2",
		  "ticks": 57120,
		  "time": 46.064424,
		  "velocity": 0.7480314960629921
		},
		{
		  "duration": 0.19354799999999983,
		  "durationTicks": 240,
		  "midi": 36,
		  "name": "C2",
		  "ticks": 57360,
		  "time": 46.257972,
		  "velocity": 0.7480314960629921
		},
		{
		  "duration": 0.19354799999999983,
		  "durationTicks": 240,
		  "midi": 55,
		  "name": "G3",
		  "ticks": 57600,
		  "time": 46.45152,
		  "velocity": 0.7480314960629921
		},
		{
		  "duration": 0.19354799999999983,
		  "durationTicks": 240,
		  "midi": 36,
		  "name": "C2",
		  "ticks": 57600,
		  "time": 46.45152,
		  "velocity": 0.7480314960629921
		},
		{
		  "duration": 0.19354799999999983,
		  "durationTicks": 240,
		  "midi": 36,
		  "name": "C2",
		  "ticks": 57840,
		  "time": 46.645068,
		  "velocity": 0.7480314960629921
		},
		{
		  "duration": 0.19354799999999983,
		  "durationTicks": 240,
		  "midi": 55,
		  "name": "G3",
		  "ticks": 58080,
		  "time": 46.838616,
		  "velocity": 0.7480314960629921
		},
		{
		  "duration": 0.19354799999999983,
		  "durationTicks": 240,
		  "midi": 38,
		  "name": "D2",
		  "ticks": 58080,
		  "time": 46.838616,
		  "velocity": 0.7480314960629921
		},
		{
		  "duration": 0.19354799999999983,
		  "durationTicks": 240,
		  "midi": 36,
		  "name": "C2",
		  "ticks": 58320,
		  "time": 47.032164,
		  "velocity": 0.7480314960629921
		},
		{
		  "duration": 0.19354799999999983,
		  "durationTicks": 240,
		  "midi": 55,
		  "name": "G3",
		  "ticks": 58560,
		  "time": 47.225712,
		  "velocity": 0.7480314960629921
		},
		{
		  "duration": 0.19354799999999983,
		  "durationTicks": 240,
		  "midi": 36,
		  "name": "C2",
		  "ticks": 58560,
		  "time": 47.225712,
		  "velocity": 0.7480314960629921
		},
		{
		  "duration": 0.19354799999999983,
		  "durationTicks": 240,
		  "midi": 36,
		  "name": "C2",
		  "ticks": 58800,
		  "time": 47.41926,
		  "velocity": 0.7480314960629921
		},
		{
		  "duration": 0.19354799999999983,
		  "durationTicks": 240,
		  "midi": 55,
		  "name": "G3",
		  "ticks": 59040,
		  "time": 47.612808,
		  "velocity": 0.7480314960629921
		},
		{
		  "duration": 0.19354799999999983,
		  "durationTicks": 240,
		  "midi": 38,
		  "name": "D2",
		  "ticks": 59040,
		  "time": 47.612808,
		  "velocity": 0.7480314960629921
		},
		{
		  "duration": 0.19354799999999983,
		  "durationTicks": 240,
		  "midi": 36,
		  "name": "C2",
		  "ticks": 59280,
		  "time": 47.806356,
		  "velocity": 0.7480314960629921
		},
		{
		  "duration": 0.38709599999999966,
		  "durationTicks": 480,
		  "midi": 57,
		  "name": "A3",
		  "ticks": 59520,
		  "time": 47.999904,
		  "velocity": 0.7480314960629921
		},
		{
		  "duration": 0.38709599999999966,
		  "durationTicks": 480,
		  "midi": 36,
		  "name": "C2",
		  "ticks": 59520,
		  "time": 47.999904,
		  "velocity": 0.7480314960629921
		},
		{
		  "duration": 0.38709599999999966,
		  "durationTicks": 480,
		  "midi": 57,
		  "name": "A3",
		  "ticks": 60000,
		  "time": 48.387,
		  "velocity": 0.7480314960629921
		},
		{
		  "duration": 0.38709599999999966,
		  "durationTicks": 480,
		  "midi": 36,
		  "name": "C2",
		  "ticks": 60000,
		  "time": 48.387,
		  "velocity": 0.7480314960629921
		},
		{
		  "duration": 0.38709599999999966,
		  "durationTicks": 480,
		  "midi": 57,
		  "name": "A3",
		  "ticks": 60480,
		  "time": 48.774096,
		  "velocity": 0.7480314960629921
		},
		{
		  "duration": 0.38709599999999966,
		  "durationTicks": 480,
		  "midi": 36,
		  "name": "C2",
		  "ticks": 60480,
		  "time": 48.774096,
		  "velocity": 0.7480314960629921
		},
		{
		  "duration": 0.38709599999999966,
		  "durationTicks": 480,
		  "midi": 57,
		  "name": "A3",
		  "ticks": 60960,
		  "time": 49.161192,
		  "velocity": 0.7480314960629921
		},
		{
		  "duration": 0.38709599999999966,
		  "durationTicks": 480,
		  "midi": 36,
		  "name": "C2",
		  "ticks": 60960,
		  "time": 49.161192,
		  "velocity": 0.7480314960629921
		},
		{
		  "duration": 0.19354799999999983,
		  "durationTicks": 240,
		  "midi": 57,
		  "name": "A3",
		  "ticks": 61680,
		  "time": 49.741836,
		  "velocity": 0.7480314960629921
		},
		{
		  "duration": 0.19354799999999983,
		  "durationTicks": 240,
		  "midi": 36,
		  "name": "C2",
		  "ticks": 61680,
		  "time": 49.741836,
		  "velocity": 0.7480314960629921
		},
		{
		  "duration": 0.19354799999999983,
		  "durationTicks": 240,
		  "midi": 36,
		  "name": "C2",
		  "ticks": 61920,
		  "time": 49.935384,
		  "velocity": 0.7480314960629921
		},
		{
		  "duration": 0.19354799999999983,
		  "durationTicks": 240,
		  "midi": 52,
		  "name": "E3",
		  "ticks": 62160,
		  "time": 50.128932,
		  "velocity": 0.7480314960629921
		},
		{
		  "duration": 0.19354799999999983,
		  "durationTicks": 240,
		  "midi": 38,
		  "name": "D2",
		  "ticks": 62160,
		  "time": 50.128932,
		  "velocity": 0.7480314960629921
		},
		{
		  "duration": 0.12903200000000226,
		  "durationTicks": 160,
		  "midi": 47,
		  "name": "B2",
		  "ticks": 62400,
		  "time": 50.32248,
		  "velocity": 0.7480314960629921
		},
		{
		  "duration": 0.12903200000000226,
		  "durationTicks": 160,
		  "midi": 36,
		  "name": "C2",
		  "ticks": 62400,
		  "time": 50.32248,
		  "velocity": 0.7480314960629921
		},
		{
		  "duration": 0.12903199999999515,
		  "durationTicks": 160,
		  "midi": 45,
		  "name": "A2",
		  "ticks": 62560,
		  "time": 50.451512,
		  "velocity": 0.7480314960629921
		},
		{
		  "duration": 0.12903199999999515,
		  "durationTicks": 160,
		  "midi": 36,
		  "name": "C2",
		  "ticks": 62560,
		  "time": 50.451512,
		  "velocity": 0.7480314960629921
		},
		{
		  "duration": 0.12903200000000226,
		  "durationTicks": 160,
		  "midi": 43,
		  "name": "G2",
		  "ticks": 62720,
		  "time": 50.580543999999996,
		  "velocity": 0.7480314960629921
		},
		{
		  "duration": 0.12903200000000226,
		  "durationTicks": 160,
		  "midi": 36,
		  "name": "C2",
		  "ticks": 62720,
		  "time": 50.580543999999996,
		  "velocity": 0.7480314960629921
		},
		{
		  "duration": 0.38709599999999966,
		  "durationTicks": 480,
		  "midi": 52,
		  "name": "E3",
		  "ticks": 62880,
		  "time": 50.709576,
		  "velocity": 0.7480314960629921
		},
		{
		  "duration": 0.38709599999999966,
		  "durationTicks": 480,
		  "midi": 38,
		  "name": "D2",
		  "ticks": 62880,
		  "time": 50.709576,
		  "velocity": 0.7480314960629921
		},
		{
		  "duration": 0.19354799999999983,
		  "durationTicks": 240,
		  "midi": 49,
		  "name": "C#3",
		  "ticks": 63360,
		  "time": 51.096672,
		  "velocity": 0.7480314960629921
		},
		{
		  "duration": 0.19354799999999983,
		  "durationTicks": 240,
		  "midi": 36,
		  "name": "C2",
		  "ticks": 63360,
		  "time": 51.096672,
		  "velocity": 0.7480314960629921
		},
		{
		  "duration": 0.19354799999999983,
		  "durationTicks": 240,
		  "midi": 36,
		  "name": "C2",
		  "ticks": 63600,
		  "time": 51.29022,
		  "velocity": 0.7480314960629921
		},
		{
		  "duration": 0.19354799999999983,
		  "durationTicks": 240,
		  "midi": 55,
		  "name": "G3",
		  "ticks": 63840,
		  "time": 51.483768,
		  "velocity": 0.7480314960629921
		},
		{
		  "duration": 0.19354799999999983,
		  "durationTicks": 240,
		  "midi": 38,
		  "name": "D2",
		  "ticks": 63840,
		  "time": 51.483768,
		  "velocity": 0.7480314960629921
		},
		{
		  "duration": 0.19354799999999983,
		  "durationTicks": 240,
		  "midi": 55,
		  "name": "G3",
		  "ticks": 64320,
		  "time": 51.870864,
		  "velocity": 0.7480314960629921
		},
		{
		  "duration": 0.19354799999999983,
		  "durationTicks": 240,
		  "midi": 36,
		  "name": "C2",
		  "ticks": 64320,
		  "time": 51.870864,
		  "velocity": 0.7480314960629921
		},
		{
		  "duration": 0.19354799999999983,
		  "durationTicks": 240,
		  "midi": 36,
		  "name": "C2",
		  "ticks": 64560,
		  "time": 52.064412,
		  "velocity": 0.7480314960629921
		},
		{
		  "duration": 0.19354799999999983,
		  "durationTicks": 240,
		  "midi": 55,
		  "name": "G3",
		  "ticks": 64800,
		  "time": 52.25796,
		  "velocity": 0.7480314960629921
		},
		{
		  "duration": 0.19354799999999983,
		  "durationTicks": 240,
		  "midi": 38,
		  "name": "D2",
		  "ticks": 64800,
		  "time": 52.25796,
		  "velocity": 0.7480314960629921
		},
		{
		  "duration": 0.19354799999999983,
		  "durationTicks": 240,
		  "midi": 55,
		  "name": "G3",
		  "ticks": 65280,
		  "time": 52.645056,
		  "velocity": 0.7480314960629921
		},
		{
		  "duration": 0.19354799999999983,
		  "durationTicks": 240,
		  "midi": 36,
		  "name": "C2",
		  "ticks": 65280,
		  "time": 52.645056,
		  "velocity": 0.7480314960629921
		},
		{
		  "duration": 0.19354799999999983,
		  "durationTicks": 240,
		  "midi": 36,
		  "name": "C2",
		  "ticks": 65520,
		  "time": 52.838604,
		  "velocity": 0.7480314960629921
		},
		{
		  "duration": 0.19354799999999983,
		  "durationTicks": 240,
		  "midi": 55,
		  "name": "G3",
		  "ticks": 65760,
		  "time": 53.032151999999996,
		  "velocity": 0.7480314960629921
		},
		{
		  "duration": 0.19354799999999983,
		  "durationTicks": 240,
		  "midi": 38,
		  "name": "D2",
		  "ticks": 65760,
		  "time": 53.032151999999996,
		  "velocity": 0.7480314960629921
		},
		{
		  "duration": 0.19354799999999983,
		  "durationTicks": 240,
		  "midi": 55,
		  "name": "G3",
		  "ticks": 66240,
		  "time": 53.419247999999996,
		  "velocity": 0.7480314960629921
		},
		{
		  "duration": 0.19354799999999983,
		  "durationTicks": 240,
		  "midi": 36,
		  "name": "C2",
		  "ticks": 66240,
		  "time": 53.419247999999996,
		  "velocity": 0.7480314960629921
		},
		{
		  "duration": 0.19354800000000694,
		  "durationTicks": 240,
		  "midi": 36,
		  "name": "C2",
		  "ticks": 66480,
		  "time": 53.612795999999996,
		  "velocity": 0.7480314960629921
		},
		{
		  "duration": 0.19354799999999983,
		  "durationTicks": 240,
		  "midi": 55,
		  "name": "G3",
		  "ticks": 66720,
		  "time": 53.806344,
		  "velocity": 0.7480314960629921
		},
		{
		  "duration": 0.19354799999999983,
		  "durationTicks": 240,
		  "midi": 38,
		  "name": "D2",
		  "ticks": 66720,
		  "time": 53.806344,
		  "velocity": 0.7480314960629921
		},
		{
		  "duration": 0.19354799999999983,
		  "durationTicks": 240,
		  "midi": 36,
		  "name": "C2",
		  "ticks": 66960,
		  "time": 53.999892,
		  "velocity": 0.7480314960629921
		},
		{
		  "duration": 0.19354799999999983,
		  "durationTicks": 240,
		  "midi": 55,
		  "name": "G3",
		  "ticks": 67200,
		  "time": 54.19344,
		  "velocity": 0.7480314960629921
		},
		{
		  "duration": 0.19354799999999983,
		  "durationTicks": 240,
		  "midi": 36,
		  "name": "C2",
		  "ticks": 67200,
		  "time": 54.19344,
		  "velocity": 0.7480314960629921
		},
		{
		  "duration": 0.19354799999999983,
		  "durationTicks": 240,
		  "midi": 36,
		  "name": "C2",
		  "ticks": 67440,
		  "time": 54.386988,
		  "velocity": 0.7480314960629921
		},
		{
		  "duration": 0.19354799999999983,
		  "durationTicks": 240,
		  "midi": 55,
		  "name": "G3",
		  "ticks": 67680,
		  "time": 54.580536,
		  "velocity": 0.7480314960629921
		},
		{
		  "duration": 0.19354799999999983,
		  "durationTicks": 240,
		  "midi": 38,
		  "name": "D2",
		  "ticks": 67680,
		  "time": 54.580536,
		  "velocity": 0.7480314960629921
		},
		{
		  "duration": 0.19354799999999983,
		  "durationTicks": 240,
		  "midi": 55,
		  "name": "G3",
		  "ticks": 68160,
		  "time": 54.967632,
		  "velocity": 0.7480314960629921
		},
		{
		  "duration": 0.19354799999999983,
		  "durationTicks": 240,
		  "midi": 36,
		  "name": "C2",
		  "ticks": 68160,
		  "time": 54.967632,
		  "velocity": 0.7480314960629921
		},
		{
		  "duration": 0.19354799999999983,
		  "durationTicks": 240,
		  "midi": 36,
		  "name": "C2",
		  "ticks": 68400,
		  "time": 55.16118,
		  "velocity": 0.7480314960629921
		},
		{
		  "duration": 0.19354799999999983,
		  "durationTicks": 240,
		  "midi": 55,
		  "name": "G3",
		  "ticks": 68640,
		  "time": 55.354728,
		  "velocity": 0.7480314960629921
		},
		{
		  "duration": 0.19354799999999983,
		  "durationTicks": 240,
		  "midi": 38,
		  "name": "D2",
		  "ticks": 68640,
		  "time": 55.354728,
		  "velocity": 0.7480314960629921
		},
		{
		  "duration": 0.19354799999999983,
		  "durationTicks": 240,
		  "midi": 55,
		  "name": "G3",
		  "ticks": 69120,
		  "time": 55.741824,
		  "velocity": 0.7480314960629921
		},
		{
		  "duration": 0.19354799999999983,
		  "durationTicks": 240,
		  "midi": 36,
		  "name": "C2",
		  "ticks": 69120,
		  "time": 55.741824,
		  "velocity": 0.7480314960629921
		},
		{
		  "duration": 0.19354799999999983,
		  "durationTicks": 240,
		  "midi": 36,
		  "name": "C2",
		  "ticks": 69360,
		  "time": 55.935372,
		  "velocity": 0.7480314960629921
		},
		{
		  "duration": 0.19354799999999983,
		  "durationTicks": 240,
		  "midi": 55,
		  "name": "G3",
		  "ticks": 69600,
		  "time": 56.12892,
		  "velocity": 0.7480314960629921
		},
		{
		  "duration": 0.19354799999999983,
		  "durationTicks": 240,
		  "midi": 38,
		  "name": "D2",
		  "ticks": 69600,
		  "time": 56.12892,
		  "velocity": 0.7480314960629921
		},
		{
		  "duration": 0.19354799999999983,
		  "durationTicks": 240,
		  "midi": 55,
		  "name": "G3",
		  "ticks": 70080,
		  "time": 56.516016,
		  "velocity": 0.7480314960629921
		},
		{
		  "duration": 0.19354799999999983,
		  "durationTicks": 240,
		  "midi": 36,
		  "name": "C2",
		  "ticks": 70080,
		  "time": 56.516016,
		  "velocity": 0.7480314960629921
		},
		{
		  "duration": 0.19354799999999983,
		  "durationTicks": 240,
		  "midi": 36,
		  "name": "C2",
		  "ticks": 70320,
		  "time": 56.709564,
		  "velocity": 0.7480314960629921
		},
		{
		  "duration": 0.19354799999999983,
		  "durationTicks": 240,
		  "midi": 55,
		  "name": "G3",
		  "ticks": 70560,
		  "time": 56.903112,
		  "velocity": 0.7480314960629921
		},
		{
		  "duration": 0.19354799999999983,
		  "durationTicks": 240,
		  "midi": 38,
		  "name": "D2",
		  "ticks": 70560,
		  "time": 56.903112,
		  "velocity": 0.7480314960629921
		},
		{
		  "duration": 0.19354799999999983,
		  "durationTicks": 240,
		  "midi": 36,
		  "name": "C2",
		  "ticks": 70800,
		  "time": 57.09666,
		  "velocity": 0.7480314960629921
		},
		{
		  "duration": 0.19354799999999983,
		  "durationTicks": 240,
		  "midi": 55,
		  "name": "G3",
		  "ticks": 71040,
		  "time": 57.290208,
		  "velocity": 0.7480314960629921
		},
		{
		  "duration": 0.19354799999999983,
		  "durationTicks": 240,
		  "midi": 36,
		  "name": "C2",
		  "ticks": 71040,
		  "time": 57.290208,
		  "velocity": 0.7480314960629921
		},
		{
		  "duration": 0.19354799999999983,
		  "durationTicks": 240,
		  "midi": 36,
		  "name": "C2",
		  "ticks": 71280,
		  "time": 57.483756,
		  "velocity": 0.7480314960629921
		},
		{
		  "duration": 0.19354799999999983,
		  "durationTicks": 240,
		  "midi": 55,
		  "name": "G3",
		  "ticks": 71520,
		  "time": 57.677304,
		  "velocity": 0.7480314960629921
		},
		{
		  "duration": 0.19354799999999983,
		  "durationTicks": 240,
		  "midi": 38,
		  "name": "D2",
		  "ticks": 71520,
		  "time": 57.677304,
		  "velocity": 0.7480314960629921
		},
		{
		  "duration": 0.19354799999999983,
		  "durationTicks": 240,
		  "midi": 55,
		  "name": "G3",
		  "ticks": 72000,
		  "time": 58.0644,
		  "velocity": 0.7480314960629921
		},
		{
		  "duration": 0.19354799999999983,
		  "durationTicks": 240,
		  "midi": 36,
		  "name": "C2",
		  "ticks": 72000,
		  "time": 58.0644,
		  "velocity": 0.7480314960629921
		},
		{
		  "duration": 0.19354799999999983,
		  "durationTicks": 240,
		  "midi": 36,
		  "name": "C2",
		  "ticks": 72240,
		  "time": 58.257948,
		  "velocity": 0.7480314960629921
		},
		{
		  "duration": 0.19354799999999983,
		  "durationTicks": 240,
		  "midi": 55,
		  "name": "G3",
		  "ticks": 72480,
		  "time": 58.451496,
		  "velocity": 0.7480314960629921
		},
		{
		  "duration": 0.19354799999999983,
		  "durationTicks": 240,
		  "midi": 38,
		  "name": "D2",
		  "ticks": 72480,
		  "time": 58.451496,
		  "velocity": 0.7480314960629921
		},
		{
		  "duration": 0.19354799999999983,
		  "durationTicks": 240,
		  "midi": 55,
		  "name": "G3",
		  "ticks": 72960,
		  "time": 58.838592,
		  "velocity": 0.7480314960629921
		},
		{
		  "duration": 0.19354799999999983,
		  "durationTicks": 240,
		  "midi": 36,
		  "name": "C2",
		  "ticks": 72960,
		  "time": 58.838592,
		  "velocity": 0.7480314960629921
		},
		{
		  "duration": 0.19354799999999983,
		  "durationTicks": 240,
		  "midi": 36,
		  "name": "C2",
		  "ticks": 73200,
		  "time": 59.03214,
		  "velocity": 0.7480314960629921
		},
		{
		  "duration": 0.19354799999999983,
		  "durationTicks": 240,
		  "midi": 55,
		  "name": "G3",
		  "ticks": 73440,
		  "time": 59.225688,
		  "velocity": 0.7480314960629921
		},
		{
		  "duration": 0.19354799999999983,
		  "durationTicks": 240,
		  "midi": 38,
		  "name": "D2",
		  "ticks": 73440,
		  "time": 59.225688,
		  "velocity": 0.7480314960629921
		},
		{
		  "duration": 0.19354799999999983,
		  "durationTicks": 240,
		  "midi": 55,
		  "name": "G3",
		  "ticks": 73920,
		  "time": 59.612784,
		  "velocity": 0.7480314960629921
		},
		{
		  "duration": 0.19354799999999983,
		  "durationTicks": 240,
		  "midi": 36,
		  "name": "C2",
		  "ticks": 73920,
		  "time": 59.612784,
		  "velocity": 0.7480314960629921
		},
		{
		  "duration": 0.19354799999999983,
		  "durationTicks": 240,
		  "midi": 36,
		  "name": "C2",
		  "ticks": 74160,
		  "time": 59.806332,
		  "velocity": 0.7480314960629921
		},
		{
		  "duration": 0.19354799999999983,
		  "durationTicks": 240,
		  "midi": 55,
		  "name": "G3",
		  "ticks": 74400,
		  "time": 59.99988,
		  "velocity": 0.7480314960629921
		},
		{
		  "duration": 0.19354799999999983,
		  "durationTicks": 240,
		  "midi": 38,
		  "name": "D2",
		  "ticks": 74400,
		  "time": 59.99988,
		  "velocity": 0.7480314960629921
		},
		{
		  "duration": 0.19354799999999983,
		  "durationTicks": 240,
		  "midi": 36,
		  "name": "C2",
		  "ticks": 74640,
		  "time": 60.193428,
		  "velocity": 0.7480314960629921
		},
		{
		  "duration": 0.19354799999999983,
		  "durationTicks": 240,
		  "midi": 55,
		  "name": "G3",
		  "ticks": 74880,
		  "time": 60.386976,
		  "velocity": 0.7480314960629921
		},
		{
		  "duration": 0.19354799999999983,
		  "durationTicks": 240,
		  "midi": 36,
		  "name": "C2",
		  "ticks": 74880,
		  "time": 60.386976,
		  "velocity": 0.7480314960629921
		},
		{
		  "duration": 0.19354799999999983,
		  "durationTicks": 240,
		  "midi": 36,
		  "name": "C2",
		  "ticks": 75120,
		  "time": 60.580524,
		  "velocity": 0.7480314960629921
		},
		{
		  "duration": 0.19354799999999983,
		  "durationTicks": 240,
		  "midi": 55,
		  "name": "G3",
		  "ticks": 75360,
		  "time": 60.774072,
		  "velocity": 0.7480314960629921
		},
		{
		  "duration": 0.19354799999999983,
		  "durationTicks": 240,
		  "midi": 38,
		  "name": "D2",
		  "ticks": 75360,
		  "time": 60.774072,
		  "velocity": 0.7480314960629921
		},
		{
		  "duration": 0.19354799999999983,
		  "durationTicks": 240,
		  "midi": 55,
		  "name": "G3",
		  "ticks": 75840,
		  "time": 61.161167999999996,
		  "velocity": 0.7480314960629921
		},
		{
		  "duration": 0.19354799999999983,
		  "durationTicks": 240,
		  "midi": 36,
		  "name": "C2",
		  "ticks": 75840,
		  "time": 61.161167999999996,
		  "velocity": 0.7480314960629921
		},
		{
		  "duration": 0.19354799999999983,
		  "durationTicks": 240,
		  "midi": 36,
		  "name": "C2",
		  "ticks": 76080,
		  "time": 61.354715999999996,
		  "velocity": 0.7480314960629921
		},
		{
		  "duration": 0.19354799999999983,
		  "durationTicks": 240,
		  "midi": 55,
		  "name": "G3",
		  "ticks": 76320,
		  "time": 61.548263999999996,
		  "velocity": 0.7480314960629921
		},
		{
		  "duration": 0.19354799999999983,
		  "durationTicks": 240,
		  "midi": 38,
		  "name": "D2",
		  "ticks": 76320,
		  "time": 61.548263999999996,
		  "velocity": 0.7480314960629921
		},
		{
		  "duration": 0.19354799999999983,
		  "durationTicks": 240,
		  "midi": 55,
		  "name": "G3",
		  "ticks": 76800,
		  "time": 61.93536,
		  "velocity": 0.7480314960629921
		},
		{
		  "duration": 0.19354799999999983,
		  "durationTicks": 240,
		  "midi": 36,
		  "name": "C2",
		  "ticks": 76800,
		  "time": 61.93536,
		  "velocity": 0.7480314960629921
		},
		{
		  "duration": 0.19354799999999983,
		  "durationTicks": 240,
		  "midi": 36,
		  "name": "C2",
		  "ticks": 77040,
		  "time": 62.128908,
		  "velocity": 0.7480314960629921
		},
		{
		  "duration": 0.19354799999999983,
		  "durationTicks": 240,
		  "midi": 55,
		  "name": "G3",
		  "ticks": 77280,
		  "time": 62.322456,
		  "velocity": 0.7480314960629921
		},
		{
		  "duration": 0.19354799999999983,
		  "durationTicks": 240,
		  "midi": 38,
		  "name": "D2",
		  "ticks": 77280,
		  "time": 62.322456,
		  "velocity": 0.7480314960629921
		},
		{
		  "duration": 0.19354799999999983,
		  "durationTicks": 240,
		  "midi": 55,
		  "name": "G3",
		  "ticks": 77760,
		  "time": 62.709552,
		  "velocity": 0.7480314960629921
		},
		{
		  "duration": 0.19354799999999983,
		  "durationTicks": 240,
		  "midi": 36,
		  "name": "C2",
		  "ticks": 77760,
		  "time": 62.709552,
		  "velocity": 0.7480314960629921
		},
		{
		  "duration": 0.19354799999999983,
		  "durationTicks": 240,
		  "midi": 36,
		  "name": "C2",
		  "ticks": 78000,
		  "time": 62.9031,
		  "velocity": 0.7480314960629921
		},
		{
		  "duration": 0.19354799999999983,
		  "durationTicks": 240,
		  "midi": 55,
		  "name": "G3",
		  "ticks": 78240,
		  "time": 63.096648,
		  "velocity": 0.7480314960629921
		},
		{
		  "duration": 0.19354799999999983,
		  "durationTicks": 240,
		  "midi": 38,
		  "name": "D2",
		  "ticks": 78240,
		  "time": 63.096648,
		  "velocity": 0.7480314960629921
		},
		{
		  "duration": 0.19354799999999983,
		  "durationTicks": 240,
		  "midi": 36,
		  "name": "C2",
		  "ticks": 78480,
		  "time": 63.290196,
		  "velocity": 0.7480314960629921
		},
		{
		  "duration": 0.19354799999999983,
		  "durationTicks": 240,
		  "midi": 55,
		  "name": "G3",
		  "ticks": 78720,
		  "time": 63.483744,
		  "velocity": 0.7480314960629921
		},
		{
		  "duration": 0.19354799999999983,
		  "durationTicks": 240,
		  "midi": 36,
		  "name": "C2",
		  "ticks": 78720,
		  "time": 63.483744,
		  "velocity": 0.7480314960629921
		},
		{
		  "duration": 0.19354799999999983,
		  "durationTicks": 240,
		  "midi": 36,
		  "name": "C2",
		  "ticks": 78960,
		  "time": 63.677292,
		  "velocity": 0.7480314960629921
		},
		{
		  "duration": 0.19354799999999273,
		  "durationTicks": 240,
		  "midi": 55,
		  "name": "G3",
		  "ticks": 79200,
		  "time": 63.87084,
		  "velocity": 0.7480314960629921
		},
		{
		  "duration": 0.19354799999999273,
		  "durationTicks": 240,
		  "midi": 38,
		  "name": "D2",
		  "ticks": 79200,
		  "time": 63.87084,
		  "velocity": 0.7480314960629921
		},
		{
		  "duration": 0.19354799999999273,
		  "durationTicks": 240,
		  "midi": 55,
		  "name": "G3",
		  "ticks": 79680,
		  "time": 64.257936,
		  "velocity": 0.7480314960629921
		},
		{
		  "duration": 0.19354799999999273,
		  "durationTicks": 240,
		  "midi": 36,
		  "name": "C2",
		  "ticks": 79680,
		  "time": 64.257936,
		  "velocity": 0.7480314960629921
		},
		{
		  "duration": 0.19354800000000694,
		  "durationTicks": 240,
		  "midi": 36,
		  "name": "C2",
		  "ticks": 79920,
		  "time": 64.451484,
		  "velocity": 0.7480314960629921
		},
		{
		  "duration": 0.19354799999999273,
		  "durationTicks": 240,
		  "midi": 55,
		  "name": "G3",
		  "ticks": 80160,
		  "time": 64.645032,
		  "velocity": 0.7480314960629921
		},
		{
		  "duration": 0.19354799999999273,
		  "durationTicks": 240,
		  "midi": 38,
		  "name": "D2",
		  "ticks": 80160,
		  "time": 64.645032,
		  "velocity": 0.7480314960629921
		},
		{
		  "duration": 0.19354799999999273,
		  "durationTicks": 240,
		  "midi": 55,
		  "name": "G3",
		  "ticks": 80640,
		  "time": 65.032128,
		  "velocity": 0.7480314960629921
		},
		{
		  "duration": 0.19354799999999273,
		  "durationTicks": 240,
		  "midi": 36,
		  "name": "C2",
		  "ticks": 80640,
		  "time": 65.032128,
		  "velocity": 0.7480314960629921
		},
		{
		  "duration": 0.19354800000000694,
		  "durationTicks": 240,
		  "midi": 36,
		  "name": "C2",
		  "ticks": 80880,
		  "time": 65.22567599999999,
		  "velocity": 0.7480314960629921
		},
		{
		  "duration": 0.19354799999999273,
		  "durationTicks": 240,
		  "midi": 55,
		  "name": "G3",
		  "ticks": 81120,
		  "time": 65.419224,
		  "velocity": 0.7480314960629921
		},
		{
		  "duration": 0.19354799999999273,
		  "durationTicks": 240,
		  "midi": 38,
		  "name": "D2",
		  "ticks": 81120,
		  "time": 65.419224,
		  "velocity": 0.7480314960629921
		},
		{
		  "duration": 0.19354799999999273,
		  "durationTicks": 240,
		  "midi": 55,
		  "name": "G3",
		  "ticks": 81600,
		  "time": 65.80632,
		  "velocity": 0.7480314960629921
		},
		{
		  "duration": 0.19354799999999273,
		  "durationTicks": 240,
		  "midi": 36,
		  "name": "C2",
		  "ticks": 81600,
		  "time": 65.80632,
		  "velocity": 0.7480314960629921
		},
		{
		  "duration": 0.19354800000000694,
		  "durationTicks": 240,
		  "midi": 36,
		  "name": "C2",
		  "ticks": 81840,
		  "time": 65.99986799999999,
		  "velocity": 0.7480314960629921
		},
		{
		  "duration": 0.19354800000000694,
		  "durationTicks": 240,
		  "midi": 55,
		  "name": "G3",
		  "ticks": 82080,
		  "time": 66.193416,
		  "velocity": 0.7480314960629921
		},
		{
		  "duration": 0.19354800000000694,
		  "durationTicks": 240,
		  "midi": 38,
		  "name": "D2",
		  "ticks": 82080,
		  "time": 66.193416,
		  "velocity": 0.7480314960629921
		},
		{
		  "duration": 0.19354799999999273,
		  "durationTicks": 240,
		  "midi": 36,
		  "name": "C2",
		  "ticks": 82320,
		  "time": 66.386964,
		  "velocity": 0.7480314960629921
		},
		{
		  "duration": 0.19354800000000694,
		  "durationTicks": 240,
		  "midi": 55,
		  "name": "G3",
		  "ticks": 82560,
		  "time": 66.580512,
		  "velocity": 0.7480314960629921
		},
		{
		  "duration": 0.19354800000000694,
		  "durationTicks": 240,
		  "midi": 36,
		  "name": "C2",
		  "ticks": 82560,
		  "time": 66.580512,
		  "velocity": 0.7480314960629921
		},
		{
		  "duration": 0.19354799999999273,
		  "durationTicks": 240,
		  "midi": 36,
		  "name": "C2",
		  "ticks": 82800,
		  "time": 66.77406,
		  "velocity": 0.7480314960629921
		},
		{
		  "duration": 0.19354800000000694,
		  "durationTicks": 240,
		  "midi": 55,
		  "name": "G3",
		  "ticks": 83040,
		  "time": 66.967608,
		  "velocity": 0.7480314960629921
		},
		{
		  "duration": 0.19354800000000694,
		  "durationTicks": 240,
		  "midi": 38,
		  "name": "D2",
		  "ticks": 83040,
		  "time": 66.967608,
		  "velocity": 0.7480314960629921
		},
		{
		  "duration": 0.19354800000000694,
		  "durationTicks": 240,
		  "midi": 55,
		  "name": "G3",
		  "ticks": 83520,
		  "time": 67.354704,
		  "velocity": 0.7480314960629921
		},
		{
		  "duration": 0.19354800000000694,
		  "durationTicks": 240,
		  "midi": 36,
		  "name": "C2",
		  "ticks": 83520,
		  "time": 67.354704,
		  "velocity": 0.7480314960629921
		},
		{
		  "duration": 0.19354799999999273,
		  "durationTicks": 240,
		  "midi": 36,
		  "name": "C2",
		  "ticks": 83760,
		  "time": 67.548252,
		  "velocity": 0.7480314960629921
		},
		{
		  "duration": 0.19354800000000694,
		  "durationTicks": 240,
		  "midi": 55,
		  "name": "G3",
		  "ticks": 84000,
		  "time": 67.7418,
		  "velocity": 0.7480314960629921
		},
		{
		  "duration": 0.19354800000000694,
		  "durationTicks": 240,
		  "midi": 38,
		  "name": "D2",
		  "ticks": 84000,
		  "time": 67.7418,
		  "velocity": 0.7480314960629921
		},
		{
		  "duration": 0.19354800000000694,
		  "durationTicks": 240,
		  "midi": 55,
		  "name": "G3",
		  "ticks": 84480,
		  "time": 68.128896,
		  "velocity": 0.7480314960629921
		},
		{
		  "duration": 0.19354800000000694,
		  "durationTicks": 240,
		  "midi": 36,
		  "name": "C2",
		  "ticks": 84480,
		  "time": 68.128896,
		  "velocity": 0.7480314960629921
		},
		{
		  "duration": 0.19354799999999273,
		  "durationTicks": 240,
		  "midi": 36,
		  "name": "C2",
		  "ticks": 84720,
		  "time": 68.322444,
		  "velocity": 0.7480314960629921
		},
		{
		  "duration": 0.19354800000000694,
		  "durationTicks": 240,
		  "midi": 55,
		  "name": "G3",
		  "ticks": 84960,
		  "time": 68.515992,
		  "velocity": 0.7480314960629921
		},
		{
		  "duration": 0.19354800000000694,
		  "durationTicks": 240,
		  "midi": 38,
		  "name": "D2",
		  "ticks": 84960,
		  "time": 68.515992,
		  "velocity": 0.7480314960629921
		},
		{
		  "duration": 0.19354800000000694,
		  "durationTicks": 240,
		  "midi": 55,
		  "name": "G3",
		  "ticks": 85440,
		  "time": 68.903088,
		  "velocity": 0.7480314960629921
		},
		{
		  "duration": 0.19354800000000694,
		  "durationTicks": 240,
		  "midi": 36,
		  "name": "C2",
		  "ticks": 85440,
		  "time": 68.903088,
		  "velocity": 0.7480314960629921
		},
		{
		  "duration": 0.19354799999999273,
		  "durationTicks": 240,
		  "midi": 36,
		  "name": "C2",
		  "ticks": 85680,
		  "time": 69.096636,
		  "velocity": 0.7480314960629921
		},
		{
		  "duration": 0.19354800000000694,
		  "durationTicks": 240,
		  "midi": 55,
		  "name": "G3",
		  "ticks": 85920,
		  "time": 69.290184,
		  "velocity": 0.7480314960629921
		},
		{
		  "duration": 0.19354800000000694,
		  "durationTicks": 240,
		  "midi": 38,
		  "name": "D2",
		  "ticks": 85920,
		  "time": 69.290184,
		  "velocity": 0.7480314960629921
		},
		{
		  "duration": 0.19354799999999273,
		  "durationTicks": 240,
		  "midi": 36,
		  "name": "C2",
		  "ticks": 86160,
		  "time": 69.483732,
		  "velocity": 0.7480314960629921
		},
		{
		  "duration": 0.19354800000000694,
		  "durationTicks": 240,
		  "midi": 55,
		  "name": "G3",
		  "ticks": 86400,
		  "time": 69.67728,
		  "velocity": 0.7480314960629921
		},
		{
		  "duration": 0.19354800000000694,
		  "durationTicks": 240,
		  "midi": 36,
		  "name": "C2",
		  "ticks": 86400,
		  "time": 69.67728,
		  "velocity": 0.7480314960629921
		},
		{
		  "duration": 0.19354799999999273,
		  "durationTicks": 240,
		  "midi": 36,
		  "name": "C2",
		  "ticks": 86640,
		  "time": 69.870828,
		  "velocity": 0.7480314960629921
		},
		{
		  "duration": 0.19354800000000694,
		  "durationTicks": 240,
		  "midi": 55,
		  "name": "G3",
		  "ticks": 86880,
		  "time": 70.064376,
		  "velocity": 0.7480314960629921
		},
		{
		  "duration": 0.19354800000000694,
		  "durationTicks": 240,
		  "midi": 38,
		  "name": "D2",
		  "ticks": 86880,
		  "time": 70.064376,
		  "velocity": 0.7480314960629921
		},
		{
		  "duration": 0.19354800000000694,
		  "durationTicks": 240,
		  "midi": 55,
		  "name": "G3",
		  "ticks": 87360,
		  "time": 70.451472,
		  "velocity": 0.7480314960629921
		},
		{
		  "duration": 0.19354800000000694,
		  "durationTicks": 240,
		  "midi": 36,
		  "name": "C2",
		  "ticks": 87360,
		  "time": 70.451472,
		  "velocity": 0.7480314960629921
		},
		{
		  "duration": 0.19354799999999273,
		  "durationTicks": 240,
		  "midi": 36,
		  "name": "C2",
		  "ticks": 87600,
		  "time": 70.64502,
		  "velocity": 0.7480314960629921
		},
		{
		  "duration": 0.19354800000000694,
		  "durationTicks": 240,
		  "midi": 55,
		  "name": "G3",
		  "ticks": 87840,
		  "time": 70.838568,
		  "velocity": 0.7480314960629921
		},
		{
		  "duration": 0.19354800000000694,
		  "durationTicks": 240,
		  "midi": 38,
		  "name": "D2",
		  "ticks": 87840,
		  "time": 70.838568,
		  "velocity": 0.7480314960629921
		},
		{
		  "duration": 0.19354800000000694,
		  "durationTicks": 240,
		  "midi": 55,
		  "name": "G3",
		  "ticks": 88320,
		  "time": 71.225664,
		  "velocity": 0.7480314960629921
		},
		{
		  "duration": 0.19354800000000694,
		  "durationTicks": 240,
		  "midi": 36,
		  "name": "C2",
		  "ticks": 88320,
		  "time": 71.225664,
		  "velocity": 0.7480314960629921
		},
		{
		  "duration": 0.19354799999999273,
		  "durationTicks": 240,
		  "midi": 36,
		  "name": "C2",
		  "ticks": 88560,
		  "time": 71.419212,
		  "velocity": 0.7480314960629921
		},
		{
		  "duration": 0.19354800000000694,
		  "durationTicks": 240,
		  "midi": 55,
		  "name": "G3",
		  "ticks": 88800,
		  "time": 71.61276,
		  "velocity": 0.7480314960629921
		},
		{
		  "duration": 0.19354800000000694,
		  "durationTicks": 240,
		  "midi": 38,
		  "name": "D2",
		  "ticks": 88800,
		  "time": 71.61276,
		  "velocity": 0.7480314960629921
		},
		{
		  "duration": 0.19354800000000694,
		  "durationTicks": 240,
		  "midi": 55,
		  "name": "G3",
		  "ticks": 89280,
		  "time": 71.999856,
		  "velocity": 0.7480314960629921
		},
		{
		  "duration": 0.19354800000000694,
		  "durationTicks": 240,
		  "midi": 36,
		  "name": "C2",
		  "ticks": 89280,
		  "time": 71.999856,
		  "velocity": 0.7480314960629921
		},
		{
		  "duration": 0.19354799999999273,
		  "durationTicks": 240,
		  "midi": 36,
		  "name": "C2",
		  "ticks": 89520,
		  "time": 72.193404,
		  "velocity": 0.7480314960629921
		},
		{
		  "duration": 0.19354800000000694,
		  "durationTicks": 240,
		  "midi": 55,
		  "name": "G3",
		  "ticks": 89760,
		  "time": 72.386952,
		  "velocity": 0.7480314960629921
		},
		{
		  "duration": 0.19354800000000694,
		  "durationTicks": 240,
		  "midi": 38,
		  "name": "D2",
		  "ticks": 89760,
		  "time": 72.386952,
		  "velocity": 0.7480314960629921
		},
		{
		  "duration": 0.19354799999999273,
		  "durationTicks": 240,
		  "midi": 36,
		  "name": "C2",
		  "ticks": 90000,
		  "time": 72.5805,
		  "velocity": 0.7480314960629921
		},
		{
		  "duration": 0.19354800000000694,
		  "durationTicks": 240,
		  "midi": 55,
		  "name": "G3",
		  "ticks": 90240,
		  "time": 72.774048,
		  "velocity": 0.7480314960629921
		},
		{
		  "duration": 0.19354800000000694,
		  "durationTicks": 240,
		  "midi": 36,
		  "name": "C2",
		  "ticks": 90240,
		  "time": 72.774048,
		  "velocity": 0.7480314960629921
		},
		{
		  "duration": 0.19354799999999273,
		  "durationTicks": 240,
		  "midi": 36,
		  "name": "C2",
		  "ticks": 90480,
		  "time": 72.967596,
		  "velocity": 0.7480314960629921
		},
		{
		  "duration": 0.19354800000000694,
		  "durationTicks": 240,
		  "midi": 55,
		  "name": "G3",
		  "ticks": 90720,
		  "time": 73.161144,
		  "velocity": 0.7480314960629921
		},
		{
		  "duration": 0.19354800000000694,
		  "durationTicks": 240,
		  "midi": 38,
		  "name": "D2",
		  "ticks": 90720,
		  "time": 73.161144,
		  "velocity": 0.7480314960629921
		},
		{
		  "duration": 0.19354800000000694,
		  "durationTicks": 240,
		  "midi": 55,
		  "name": "G3",
		  "ticks": 91200,
		  "time": 73.54823999999999,
		  "velocity": 0.7480314960629921
		},
		{
		  "duration": 0.19354800000000694,
		  "durationTicks": 240,
		  "midi": 36,
		  "name": "C2",
		  "ticks": 91200,
		  "time": 73.54823999999999,
		  "velocity": 0.7480314960629921
		},
		{
		  "duration": 0.19354799999999273,
		  "durationTicks": 240,
		  "midi": 36,
		  "name": "C2",
		  "ticks": 91440,
		  "time": 73.741788,
		  "velocity": 0.7480314960629921
		},
		{
		  "duration": 0.19354800000000694,
		  "durationTicks": 240,
		  "midi": 52,
		  "name": "E3",
		  "ticks": 91680,
		  "time": 73.93533599999999,
		  "velocity": 0.7480314960629921
		},
		{
		  "duration": 0.19354800000000694,
		  "durationTicks": 240,
		  "midi": 38,
		  "name": "D2",
		  "ticks": 91680,
		  "time": 73.93533599999999,
		  "velocity": 0.7480314960629921
		},
		{
		  "duration": 0.19354800000000694,
		  "durationTicks": 240,
		  "midi": 49,
		  "name": "C#3",
		  "ticks": 92160,
		  "time": 74.32243199999999,
		  "velocity": 0.7480314960629921
		},
		{
		  "duration": 0.19354800000000694,
		  "durationTicks": 240,
		  "midi": 36,
		  "name": "C2",
		  "ticks": 92160,
		  "time": 74.32243199999999,
		  "velocity": 0.7480314960629921
		},
		{
		  "duration": 0.19354800000000694,
		  "durationTicks": 240,
		  "midi": 36,
		  "name": "C2",
		  "ticks": 92400,
		  "time": 74.51598,
		  "velocity": 0.7480314960629921
		},
		{
		  "duration": 0.19354799999999273,
		  "durationTicks": 240,
		  "midi": 57,
		  "name": "A3",
		  "ticks": 92640,
		  "time": 74.709528,
		  "velocity": 0.7480314960629921
		},
		{
		  "duration": 0.19354799999999273,
		  "durationTicks": 240,
		  "midi": 38,
		  "name": "D2",
		  "ticks": 92640,
		  "time": 74.709528,
		  "velocity": 0.7480314960629921
		},
		{
		  "duration": 0.19354800000000694,
		  "durationTicks": 240,
		  "midi": 36,
		  "name": "C2",
		  "ticks": 92880,
		  "time": 74.903076,
		  "velocity": 0.7480314960629921
		},
		{
		  "duration": 0.19354799999999273,
		  "durationTicks": 240,
		  "midi": 57,
		  "name": "A3",
		  "ticks": 93120,
		  "time": 75.096624,
		  "velocity": 0.7480314960629921
		},
		{
		  "duration": 0.19354799999999273,
		  "durationTicks": 240,
		  "midi": 36,
		  "name": "C2",
		  "ticks": 93120,
		  "time": 75.096624,
		  "velocity": 0.7480314960629921
		},
		{
		  "duration": 0.19354799999999273,
		  "durationTicks": 240,
		  "midi": 57,
		  "name": "A3",
		  "ticks": 93600,
		  "time": 75.48372,
		  "velocity": 0.7480314960629921
		},
		{
		  "duration": 0.19354799999999273,
		  "durationTicks": 240,
		  "midi": 38,
		  "name": "D2",
		  "ticks": 93600,
		  "time": 75.48372,
		  "velocity": 0.7480314960629921
		},
		{
		  "duration": 0.19354800000000694,
		  "durationTicks": 240,
		  "midi": 36,
		  "name": "C2",
		  "ticks": 93840,
		  "time": 75.677268,
		  "velocity": 0.7480314960629921
		},
		{
		  "duration": 0.19354799999999273,
		  "durationTicks": 240,
		  "midi": 57,
		  "name": "A3",
		  "ticks": 94080,
		  "time": 75.870816,
		  "velocity": 0.7480314960629921
		},
		{
		  "duration": 0.19354800000000694,
		  "durationTicks": 240,
		  "midi": 36,
		  "name": "C2",
		  "ticks": 94320,
		  "time": 76.064364,
		  "velocity": 0.7480314960629921
		},
		{
		  "duration": 0.19354799999999273,
		  "durationTicks": 240,
		  "midi": 57,
		  "name": "A3",
		  "ticks": 94560,
		  "time": 76.257912,
		  "velocity": 0.7480314960629921
		},
		{
		  "duration": 0.19354799999999273,
		  "durationTicks": 240,
		  "midi": 38,
		  "name": "D2",
		  "ticks": 94560,
		  "time": 76.257912,
		  "velocity": 0.7480314960629921
		},
		{
		  "duration": 0.19354799999999273,
		  "durationTicks": 240,
		  "midi": 57,
		  "name": "A3",
		  "ticks": 95040,
		  "time": 76.645008,
		  "velocity": 0.7480314960629921
		},
		{
		  "duration": 0.09677399999999636,
		  "durationTicks": 120,
		  "midi": 36,
		  "name": "C2",
		  "ticks": 95280,
		  "time": 76.838556,
		  "velocity": 0.7480314960629921
		},
		{
		  "duration": 0.09677400000001057,
		  "durationTicks": 120,
		  "midi": 36,
		  "name": "C2",
		  "ticks": 95400,
		  "time": 76.93533,
		  "velocity": 0.7480314960629921
		},
		{
		  "duration": 0.19354799999999273,
		  "durationTicks": 240,
		  "midi": 57,
		  "name": "A3",
		  "ticks": 95520,
		  "time": 77.032104,
		  "velocity": 0.7480314960629921
		},
		{
		  "duration": 0.19354799999999273,
		  "durationTicks": 240,
		  "midi": 38,
		  "name": "D2",
		  "ticks": 95520,
		  "time": 77.032104,
		  "velocity": 0.7480314960629921
		},
		{
		  "duration": 0.19354799999999273,
		  "durationTicks": 240,
		  "midi": 57,
		  "name": "A3",
		  "ticks": 96000,
		  "time": 77.4192,
		  "velocity": 0.7480314960629921
		},
		{
		  "duration": 0.19354799999999273,
		  "durationTicks": 240,
		  "midi": 36,
		  "name": "C2",
		  "ticks": 96000,
		  "time": 77.4192,
		  "velocity": 0.7480314960629921
		},
		{
		  "duration": 0.19354800000000694,
		  "durationTicks": 240,
		  "midi": 36,
		  "name": "C2",
		  "ticks": 96240,
		  "time": 77.612748,
		  "velocity": 0.7480314960629921
		},
		{
		  "duration": 0.19354799999999273,
		  "durationTicks": 240,
		  "midi": 57,
		  "name": "A3",
		  "ticks": 96480,
		  "time": 77.806296,
		  "velocity": 0.7480314960629921
		},
		{
		  "duration": 0.19354799999999273,
		  "durationTicks": 240,
		  "midi": 38,
		  "name": "D2",
		  "ticks": 96480,
		  "time": 77.806296,
		  "velocity": 0.7480314960629921
		},
		{
		  "duration": 0.19354800000000694,
		  "durationTicks": 240,
		  "midi": 36,
		  "name": "C2",
		  "ticks": 96720,
		  "time": 77.999844,
		  "velocity": 0.7480314960629921
		},
		{
		  "duration": 0.19354799999999273,
		  "durationTicks": 240,
		  "midi": 57,
		  "name": "A3",
		  "ticks": 96960,
		  "time": 78.193392,
		  "velocity": 0.7480314960629921
		},
		{
		  "duration": 0.19354799999999273,
		  "durationTicks": 240,
		  "midi": 36,
		  "name": "C2",
		  "ticks": 96960,
		  "time": 78.193392,
		  "velocity": 0.7480314960629921
		},
		{
		  "duration": 0.19354799999999273,
		  "durationTicks": 240,
		  "midi": 57,
		  "name": "A3",
		  "ticks": 97440,
		  "time": 78.580488,
		  "velocity": 0.7480314960629921
		},
		{
		  "duration": 0.19354799999999273,
		  "durationTicks": 240,
		  "midi": 38,
		  "name": "D2",
		  "ticks": 97440,
		  "time": 78.580488,
		  "velocity": 0.7480314960629921
		},
		{
		  "duration": 0.19354800000000694,
		  "durationTicks": 240,
		  "midi": 36,
		  "name": "C2",
		  "ticks": 97680,
		  "time": 78.774036,
		  "velocity": 0.7480314960629921
		},
		{
		  "duration": 0.19354799999999273,
		  "durationTicks": 240,
		  "midi": 57,
		  "name": "A3",
		  "ticks": 97920,
		  "time": 78.967584,
		  "velocity": 0.7480314960629921
		},
		{
		  "duration": 0.19354800000000694,
		  "durationTicks": 240,
		  "midi": 36,
		  "name": "C2",
		  "ticks": 98160,
		  "time": 79.161132,
		  "velocity": 0.7480314960629921
		},
		{
		  "duration": 0.19354799999999273,
		  "durationTicks": 240,
		  "midi": 57,
		  "name": "A3",
		  "ticks": 98400,
		  "time": 79.35468,
		  "velocity": 0.7480314960629921
		},
		{
		  "duration": 0.19354799999999273,
		  "durationTicks": 240,
		  "midi": 38,
		  "name": "D2",
		  "ticks": 98400,
		  "time": 79.35468,
		  "velocity": 0.7480314960629921
		},
		{
		  "duration": 0.09677400000001057,
		  "durationTicks": 120,
		  "midi": 36,
		  "name": "C2",
		  "ticks": 98640,
		  "time": 79.548228,
		  "velocity": 0.7480314960629921
		},
		{
		  "duration": 0.09677399999999636,
		  "durationTicks": 120,
		  "midi": 36,
		  "name": "C2",
		  "ticks": 98760,
		  "time": 79.645002,
		  "velocity": 0.7480314960629921
		},
		{
		  "duration": 0.19354799999999273,
		  "durationTicks": 240,
		  "midi": 43,
		  "name": "G2",
		  "ticks": 98880,
		  "time": 79.741776,
		  "velocity": 0.7480314960629921
		},
		{
		  "duration": 0.19354799999999273,
		  "durationTicks": 240,
		  "midi": 36,
		  "name": "C2",
		  "ticks": 98880,
		  "time": 79.741776,
		  "velocity": 0.7480314960629921
		},
		{
		  "duration": 0.19354799999999273,
		  "durationTicks": 240,
		  "midi": 49,
		  "name": "C#3",
		  "ticks": 99840,
		  "time": 80.515968,
		  "velocity": 0.7480314960629921
		},
		{
		  "duration": 0.19354799999999273,
		  "durationTicks": 240,
		  "midi": 36,
		  "name": "C2",
		  "ticks": 99840,
		  "time": 80.515968,
		  "velocity": 0.7480314960629921
		},
		{
		  "duration": 0.19354800000000694,
		  "durationTicks": 240,
		  "midi": 36,
		  "name": "C2",
		  "ticks": 100080,
		  "time": 80.709516,
		  "velocity": 0.7480314960629921
		},
		{
		  "duration": 0.19354799999999273,
		  "durationTicks": 240,
		  "midi": 55,
		  "name": "G3",
		  "ticks": 100320,
		  "time": 80.903064,
		  "velocity": 0.7480314960629921
		},
		{
		  "duration": 0.19354799999999273,
		  "durationTicks": 240,
		  "midi": 38,
		  "name": "D2",
		  "ticks": 100320,
		  "time": 80.903064,
		  "velocity": 0.7480314960629921
		},
		{
		  "duration": 0.19354800000000694,
		  "durationTicks": 240,
		  "midi": 36,
		  "name": "C2",
		  "ticks": 100560,
		  "time": 81.096612,
		  "velocity": 0.7480314960629921
		},
		{
		  "duration": 0.19354799999999273,
		  "durationTicks": 240,
		  "midi": 55,
		  "name": "G3",
		  "ticks": 100800,
		  "time": 81.29016,
		  "velocity": 0.7480314960629921
		},
		{
		  "duration": 0.19354800000000694,
		  "durationTicks": 240,
		  "midi": 36,
		  "name": "C2",
		  "ticks": 101040,
		  "time": 81.483708,
		  "velocity": 0.7480314960629921
		},
		{
		  "duration": 0.19354799999999273,
		  "durationTicks": 240,
		  "midi": 55,
		  "name": "G3",
		  "ticks": 101280,
		  "time": 81.677256,
		  "velocity": 0.7480314960629921
		},
		{
		  "duration": 0.19354799999999273,
		  "durationTicks": 240,
		  "midi": 38,
		  "name": "D2",
		  "ticks": 101280,
		  "time": 81.677256,
		  "velocity": 0.7480314960629921
		},
		{
		  "duration": 0.19354800000000694,
		  "durationTicks": 240,
		  "midi": 36,
		  "name": "C2",
		  "ticks": 101520,
		  "time": 81.87080399999999,
		  "velocity": 0.7480314960629921
		},
		{
		  "duration": 0.19354799999999273,
		  "durationTicks": 240,
		  "midi": 55,
		  "name": "G3",
		  "ticks": 101760,
		  "time": 82.064352,
		  "velocity": 0.7480314960629921
		},
		{
		  "duration": 0.19354799999999273,
		  "durationTicks": 240,
		  "midi": 36,
		  "name": "C2",
		  "ticks": 101760,
		  "time": 82.064352,
		  "velocity": 0.7480314960629921
		},
		{
		  "duration": 0.19354800000000694,
		  "durationTicks": 240,
		  "midi": 36,
		  "name": "C2",
		  "ticks": 102000,
		  "time": 82.25789999999999,
		  "velocity": 0.7480314960629921
		},
		{
		  "duration": 0.19354800000000694,
		  "durationTicks": 240,
		  "midi": 55,
		  "name": "G3",
		  "ticks": 102240,
		  "time": 82.451448,
		  "velocity": 0.7480314960629921
		},
		{
		  "duration": 0.19354800000000694,
		  "durationTicks": 240,
		  "midi": 38,
		  "name": "D2",
		  "ticks": 102240,
		  "time": 82.451448,
		  "velocity": 0.7480314960629921
		},
		{
		  "duration": 0.19354799999999273,
		  "durationTicks": 240,
		  "midi": 36,
		  "name": "C2",
		  "ticks": 102480,
		  "time": 82.644996,
		  "velocity": 0.7480314960629921
		},
		{
		  "duration": 0.19354800000000694,
		  "durationTicks": 240,
		  "midi": 55,
		  "name": "G3",
		  "ticks": 102720,
		  "time": 82.838544,
		  "velocity": 0.7480314960629921
		},
		{
		  "duration": 0.09677399999999636,
		  "durationTicks": 120,
		  "midi": 36,
		  "name": "C2",
		  "ticks": 102960,
		  "time": 83.032092,
		  "velocity": 0.7480314960629921
		},
		{
		  "duration": 0.09677399999999636,
		  "durationTicks": 120,
		  "midi": 36,
		  "name": "C2",
		  "ticks": 103080,
		  "time": 83.128866,
		  "velocity": 0.7480314960629921
		},
		{
		  "duration": 0.19354800000000694,
		  "durationTicks": 240,
		  "midi": 55,
		  "name": "G3",
		  "ticks": 103200,
		  "time": 83.22564,
		  "velocity": 0.7480314960629921
		},
		{
		  "duration": 0.19354800000000694,
		  "durationTicks": 240,
		  "midi": 38,
		  "name": "D2",
		  "ticks": 103200,
		  "time": 83.22564,
		  "velocity": 0.7480314960629921
		},
		{
		  "duration": 0.19354799999999273,
		  "durationTicks": 240,
		  "midi": 36,
		  "name": "C2",
		  "ticks": 103440,
		  "time": 83.419188,
		  "velocity": 0.7480314960629921
		},
		{
		  "duration": 0.19354800000000694,
		  "durationTicks": 240,
		  "midi": 55,
		  "name": "G3",
		  "ticks": 103680,
		  "time": 83.612736,
		  "velocity": 0.7480314960629921
		},
		{
		  "duration": 0.19354800000000694,
		  "durationTicks": 240,
		  "midi": 36,
		  "name": "C2",
		  "ticks": 103680,
		  "time": 83.612736,
		  "velocity": 0.7480314960629921
		},
		{
		  "duration": 0.19354799999999273,
		  "durationTicks": 240,
		  "midi": 36,
		  "name": "C2",
		  "ticks": 103920,
		  "time": 83.806284,
		  "velocity": 0.7480314960629921
		},
		{
		  "duration": 0.19354800000000694,
		  "durationTicks": 240,
		  "midi": 55,
		  "name": "G3",
		  "ticks": 104160,
		  "time": 83.999832,
		  "velocity": 0.7480314960629921
		},
		{
		  "duration": 0.19354800000000694,
		  "durationTicks": 240,
		  "midi": 38,
		  "name": "D2",
		  "ticks": 104160,
		  "time": 83.999832,
		  "velocity": 0.7480314960629921
		},
		{
		  "duration": 0.19354799999999273,
		  "durationTicks": 240,
		  "midi": 36,
		  "name": "C2",
		  "ticks": 104400,
		  "time": 84.19338,
		  "velocity": 0.7480314960629921
		},
		{
		  "duration": 0.19354800000000694,
		  "durationTicks": 240,
		  "midi": 55,
		  "name": "G3",
		  "ticks": 104640,
		  "time": 84.386928,
		  "velocity": 0.7480314960629921
		},
		{
		  "duration": 0.19354799999999273,
		  "durationTicks": 240,
		  "midi": 36,
		  "name": "C2",
		  "ticks": 104880,
		  "time": 84.580476,
		  "velocity": 0.7480314960629921
		},
		{
		  "duration": 0.19354800000000694,
		  "durationTicks": 240,
		  "midi": 55,
		  "name": "G3",
		  "ticks": 105120,
		  "time": 84.774024,
		  "velocity": 0.7480314960629921
		},
		{
		  "duration": 0.19354800000000694,
		  "durationTicks": 240,
		  "midi": 38,
		  "name": "D2",
		  "ticks": 105120,
		  "time": 84.774024,
		  "velocity": 0.7480314960629921
		},
		{
		  "duration": 0.19354799999999273,
		  "durationTicks": 240,
		  "midi": 36,
		  "name": "C2",
		  "ticks": 105360,
		  "time": 84.967572,
		  "velocity": 0.7480314960629921
		},
		{
		  "duration": 0.19354800000000694,
		  "durationTicks": 240,
		  "midi": 55,
		  "name": "G3",
		  "ticks": 105600,
		  "time": 85.16112,
		  "velocity": 0.7480314960629921
		},
		{
		  "duration": 0.19354800000000694,
		  "durationTicks": 240,
		  "midi": 36,
		  "name": "C2",
		  "ticks": 105600,
		  "time": 85.16112,
		  "velocity": 0.7480314960629921
		},
		{
		  "duration": 0.19354799999999273,
		  "durationTicks": 240,
		  "midi": 36,
		  "name": "C2",
		  "ticks": 105840,
		  "time": 85.354668,
		  "velocity": 0.7480314960629921
		},
		{
		  "duration": 0.19354800000000694,
		  "durationTicks": 240,
		  "midi": 55,
		  "name": "G3",
		  "ticks": 106080,
		  "time": 85.548216,
		  "velocity": 0.7480314960629921
		},
		{
		  "duration": 0.19354800000000694,
		  "durationTicks": 240,
		  "midi": 38,
		  "name": "D2",
		  "ticks": 106080,
		  "time": 85.548216,
		  "velocity": 0.7480314960629921
		},
		{
		  "duration": 0.19354799999999273,
		  "durationTicks": 240,
		  "midi": 36,
		  "name": "C2",
		  "ticks": 106320,
		  "time": 85.741764,
		  "velocity": 0.7480314960629921
		},
		{
		  "duration": 0.09677399999999636,
		  "durationTicks": 120,
		  "midi": 47,
		  "name": "B2",
		  "ticks": 106560,
		  "time": 85.935312,
		  "velocity": 0.7480314960629921
		},
		{
		  "duration": 0.09677399999999636,
		  "durationTicks": 120,
		  "midi": 36,
		  "name": "C2",
		  "ticks": 106560,
		  "time": 85.935312,
		  "velocity": 0.7480314960629921
		},
		{
		  "duration": 0.09677400000001057,
		  "durationTicks": 120,
		  "midi": 47,
		  "name": "B2",
		  "ticks": 106680,
		  "time": 86.03208599999999,
		  "velocity": 0.7480314960629921
		},
		{
		  "duration": 0.09677399999999636,
		  "durationTicks": 120,
		  "midi": 45,
		  "name": "A2",
		  "ticks": 106800,
		  "time": 86.12886,
		  "velocity": 0.7480314960629921
		},
		{
		  "duration": 0.09677399999999636,
		  "durationTicks": 120,
		  "midi": 36,
		  "name": "C2",
		  "ticks": 106800,
		  "time": 86.12886,
		  "velocity": 0.7480314960629921
		},
		{
		  "duration": 0.09677399999999636,
		  "durationTicks": 120,
		  "midi": 43,
		  "name": "G2",
		  "ticks": 106920,
		  "time": 86.225634,
		  "velocity": 0.7480314960629921
		},
		{
		  "duration": 0.09677399999999636,
		  "durationTicks": 120,
		  "midi": 52,
		  "name": "E3",
		  "ticks": 107040,
		  "time": 86.322408,
		  "velocity": 0.7480314960629921
		},
		{
		  "duration": 0.09677399999999636,
		  "durationTicks": 120,
		  "midi": 38,
		  "name": "D2",
		  "ticks": 107040,
		  "time": 86.322408,
		  "velocity": 0.7480314960629921
		},
		{
		  "duration": 0.19354799999999273,
		  "durationTicks": 240,
		  "midi": 41,
		  "name": "F2",
		  "ticks": 107280,
		  "time": 86.515956,
		  "velocity": 0.7480314960629921
		},
		{
		  "duration": 0.19354799999999273,
		  "durationTicks": 240,
		  "midi": 36,
		  "name": "C2",
		  "ticks": 107280,
		  "time": 86.515956,
		  "velocity": 0.7480314960629921
		},
		{
		  "duration": 0.19354800000000694,
		  "durationTicks": 240,
		  "midi": 49,
		  "name": "C#3",
		  "ticks": 107520,
		  "time": 86.709504,
		  "velocity": 0.7480314960629921
		},
		{
		  "duration": 0.19354800000000694,
		  "durationTicks": 240,
		  "midi": 36,
		  "name": "C2",
		  "ticks": 107520,
		  "time": 86.709504,
		  "velocity": 0.7480314960629921
		},
		{
		  "duration": 0.19354799999999273,
		  "durationTicks": 240,
		  "midi": 36,
		  "name": "C2",
		  "ticks": 107760,
		  "time": 86.903052,
		  "velocity": 0.7480314960629921
		},
		{
		  "duration": 0.19354800000000694,
		  "durationTicks": 240,
		  "midi": 55,
		  "name": "G3",
		  "ticks": 108000,
		  "time": 87.0966,
		  "velocity": 0.7480314960629921
		},
		{
		  "duration": 0.19354800000000694,
		  "durationTicks": 240,
		  "midi": 38,
		  "name": "D2",
		  "ticks": 108000,
		  "time": 87.0966,
		  "velocity": 0.7480314960629921
		},
		{
		  "duration": 0.19354799999999273,
		  "durationTicks": 240,
		  "midi": 36,
		  "name": "C2",
		  "ticks": 108240,
		  "time": 87.290148,
		  "velocity": 0.7480314960629921
		},
		{
		  "duration": 0.19354800000000694,
		  "durationTicks": 240,
		  "midi": 55,
		  "name": "G3",
		  "ticks": 108480,
		  "time": 87.483696,
		  "velocity": 0.7480314960629921
		},
		{
		  "duration": 0.19354799999999273,
		  "durationTicks": 240,
		  "midi": 36,
		  "name": "C2",
		  "ticks": 108720,
		  "time": 87.677244,
		  "velocity": 0.7480314960629921
		},
		{
		  "duration": 0.19354800000000694,
		  "durationTicks": 240,
		  "midi": 55,
		  "name": "G3",
		  "ticks": 108960,
		  "time": 87.870792,
		  "velocity": 0.7480314960629921
		},
		{
		  "duration": 0.19354800000000694,
		  "durationTicks": 240,
		  "midi": 38,
		  "name": "D2",
		  "ticks": 108960,
		  "time": 87.870792,
		  "velocity": 0.7480314960629921
		},
		{
		  "duration": 0.19354799999999273,
		  "durationTicks": 240,
		  "midi": 36,
		  "name": "C2",
		  "ticks": 109200,
		  "time": 88.06434,
		  "velocity": 0.7480314960629921
		},
		{
		  "duration": 0.19354800000000694,
		  "durationTicks": 240,
		  "midi": 55,
		  "name": "G3",
		  "ticks": 109440,
		  "time": 88.257888,
		  "velocity": 0.7480314960629921
		},
		{
		  "duration": 0.19354800000000694,
		  "durationTicks": 240,
		  "midi": 36,
		  "name": "C2",
		  "ticks": 109440,
		  "time": 88.257888,
		  "velocity": 0.7480314960629921
		},
		{
		  "duration": 0.19354799999999273,
		  "durationTicks": 240,
		  "midi": 36,
		  "name": "C2",
		  "ticks": 109680,
		  "time": 88.451436,
		  "velocity": 0.7480314960629921
		},
		{
		  "duration": 0.19354800000000694,
		  "durationTicks": 240,
		  "midi": 55,
		  "name": "G3",
		  "ticks": 109920,
		  "time": 88.644984,
		  "velocity": 0.7480314960629921
		},
		{
		  "duration": 0.19354800000000694,
		  "durationTicks": 240,
		  "midi": 38,
		  "name": "D2",
		  "ticks": 109920,
		  "time": 88.644984,
		  "velocity": 0.7480314960629921
		},
		{
		  "duration": 0.19354799999999273,
		  "durationTicks": 240,
		  "midi": 36,
		  "name": "C2",
		  "ticks": 110160,
		  "time": 88.838532,
		  "velocity": 0.7480314960629921
		},
		{
		  "duration": 0.19354800000000694,
		  "durationTicks": 240,
		  "midi": 55,
		  "name": "G3",
		  "ticks": 110400,
		  "time": 89.03208,
		  "velocity": 0.7480314960629921
		},
		{
		  "duration": 0.09677399999999636,
		  "durationTicks": 120,
		  "midi": 36,
		  "name": "C2",
		  "ticks": 110640,
		  "time": 89.225628,
		  "velocity": 0.7480314960629921
		},
		{
		  "duration": 0.09677399999999636,
		  "durationTicks": 120,
		  "midi": 36,
		  "name": "C2",
		  "ticks": 110760,
		  "time": 89.322402,
		  "velocity": 0.7480314960629921
		},
		{
		  "duration": 0.19354800000000694,
		  "durationTicks": 240,
		  "midi": 55,
		  "name": "G3",
		  "ticks": 110880,
		  "time": 89.419176,
		  "velocity": 0.7480314960629921
		},
		{
		  "duration": 0.19354800000000694,
		  "durationTicks": 240,
		  "midi": 38,
		  "name": "D2",
		  "ticks": 110880,
		  "time": 89.419176,
		  "velocity": 0.7480314960629921
		},
		{
		  "duration": 0.19354799999999273,
		  "durationTicks": 240,
		  "midi": 36,
		  "name": "C2",
		  "ticks": 111120,
		  "time": 89.612724,
		  "velocity": 0.7480314960629921
		},
		{
		  "duration": 0.19354800000000694,
		  "durationTicks": 240,
		  "midi": 55,
		  "name": "G3",
		  "ticks": 111360,
		  "time": 89.80627199999999,
		  "velocity": 0.7480314960629921
		},
		{
		  "duration": 0.19354800000000694,
		  "durationTicks": 240,
		  "midi": 36,
		  "name": "C2",
		  "ticks": 111360,
		  "time": 89.80627199999999,
		  "velocity": 0.7480314960629921
		},
		{
		  "duration": 0.19354799999999273,
		  "durationTicks": 240,
		  "midi": 36,
		  "name": "C2",
		  "ticks": 111600,
		  "time": 89.99982,
		  "velocity": 0.7480314960629921
		},
		{
		  "duration": 0.19354800000000694,
		  "durationTicks": 240,
		  "midi": 55,
		  "name": "G3",
		  "ticks": 111840,
		  "time": 90.19336799999999,
		  "velocity": 0.7480314960629921
		},
		{
		  "duration": 0.19354800000000694,
		  "durationTicks": 240,
		  "midi": 38,
		  "name": "D2",
		  "ticks": 111840,
		  "time": 90.19336799999999,
		  "velocity": 0.7480314960629921
		},
		{
		  "duration": 0.19354799999999273,
		  "durationTicks": 240,
		  "midi": 36,
		  "name": "C2",
		  "ticks": 112080,
		  "time": 90.386916,
		  "velocity": 0.7480314960629921
		},
		{
		  "duration": 0.19354800000000694,
		  "durationTicks": 240,
		  "midi": 55,
		  "name": "G3",
		  "ticks": 112320,
		  "time": 90.58046399999999,
		  "velocity": 0.7480314960629921
		},
		{
		  "duration": 0.19354800000000694,
		  "durationTicks": 240,
		  "midi": 36,
		  "name": "C2",
		  "ticks": 112560,
		  "time": 90.774012,
		  "velocity": 0.7480314960629921
		},
		{
		  "duration": 0.19354799999999273,
		  "durationTicks": 240,
		  "midi": 55,
		  "name": "G3",
		  "ticks": 112800,
		  "time": 90.96756,
		  "velocity": 0.7480314960629921
		},
		{
		  "duration": 0.19354799999999273,
		  "durationTicks": 240,
		  "midi": 38,
		  "name": "D2",
		  "ticks": 112800,
		  "time": 90.96756,
		  "velocity": 0.7480314960629921
		},
		{
		  "duration": 0.19354800000000694,
		  "durationTicks": 240,
		  "midi": 36,
		  "name": "C2",
		  "ticks": 113040,
		  "time": 91.161108,
		  "velocity": 0.7480314960629921
		},
		{
		  "duration": 0.19354799999999273,
		  "durationTicks": 240,
		  "midi": 55,
		  "name": "G3",
		  "ticks": 113280,
		  "time": 91.354656,
		  "velocity": 0.7480314960629921
		},
		{
		  "duration": 0.19354799999999273,
		  "durationTicks": 240,
		  "midi": 36,
		  "name": "C2",
		  "ticks": 113280,
		  "time": 91.354656,
		  "velocity": 0.7480314960629921
		},
		{
		  "duration": 0.19354800000000694,
		  "durationTicks": 240,
		  "midi": 36,
		  "name": "C2",
		  "ticks": 113520,
		  "time": 91.548204,
		  "velocity": 0.7480314960629921
		},
		{
		  "duration": 0.19354799999999273,
		  "durationTicks": 240,
		  "midi": 55,
		  "name": "G3",
		  "ticks": 113760,
		  "time": 91.741752,
		  "velocity": 0.7480314960629921
		},
		{
		  "duration": 0.19354799999999273,
		  "durationTicks": 240,
		  "midi": 38,
		  "name": "D2",
		  "ticks": 113760,
		  "time": 91.741752,
		  "velocity": 0.7480314960629921
		},
		{
		  "duration": 0.19354800000000694,
		  "durationTicks": 240,
		  "midi": 36,
		  "name": "C2",
		  "ticks": 114000,
		  "time": 91.9353,
		  "velocity": 0.7480314960629921
		},
		{
		  "duration": 0.09677399999999636,
		  "durationTicks": 120,
		  "midi": 47,
		  "name": "B2",
		  "ticks": 114240,
		  "time": 92.128848,
		  "velocity": 0.7480314960629921
		},
		{
		  "duration": 0.09677399999999636,
		  "durationTicks": 120,
		  "midi": 36,
		  "name": "C2",
		  "ticks": 114240,
		  "time": 92.128848,
		  "velocity": 0.7480314960629921
		},
		{
		  "duration": 0.09677399999999636,
		  "durationTicks": 120,
		  "midi": 47,
		  "name": "B2",
		  "ticks": 114360,
		  "time": 92.225622,
		  "velocity": 0.7480314960629921
		},
		{
		  "duration": 0.09677399999999636,
		  "durationTicks": 120,
		  "midi": 45,
		  "name": "A2",
		  "ticks": 114480,
		  "time": 92.322396,
		  "velocity": 0.7480314960629921
		},
		{
		  "duration": 0.09677399999999636,
		  "durationTicks": 120,
		  "midi": 36,
		  "name": "C2",
		  "ticks": 114480,
		  "time": 92.322396,
		  "velocity": 0.7480314960629921
		},
		{
		  "duration": 0.09677400000001057,
		  "durationTicks": 120,
		  "midi": 43,
		  "name": "G2",
		  "ticks": 114600,
		  "time": 92.41917,
		  "velocity": 0.7480314960629921
		},
		{
		  "duration": 0.09677399999999636,
		  "durationTicks": 120,
		  "midi": 52,
		  "name": "E3",
		  "ticks": 114720,
		  "time": 92.515944,
		  "velocity": 0.7480314960629921
		},
		{
		  "duration": 0.09677399999999636,
		  "durationTicks": 120,
		  "midi": 38,
		  "name": "D2",
		  "ticks": 114720,
		  "time": 92.515944,
		  "velocity": 0.7480314960629921
		},
		{
		  "duration": 0.19354800000000694,
		  "durationTicks": 240,
		  "midi": 41,
		  "name": "F2",
		  "ticks": 114960,
		  "time": 92.709492,
		  "velocity": 0.7480314960629921
		},
		{
		  "duration": 0.19354800000000694,
		  "durationTicks": 240,
		  "midi": 36,
		  "name": "C2",
		  "ticks": 114960,
		  "time": 92.709492,
		  "velocity": 0.7480314960629921
		},
		{
		  "duration": 0.19354799999999273,
		  "durationTicks": 240,
		  "midi": 49,
		  "name": "C#3",
		  "ticks": 115200,
		  "time": 92.90304,
		  "velocity": 0.7480314960629921
		},
		{
		  "duration": 0.19354799999999273,
		  "durationTicks": 240,
		  "midi": 36,
		  "name": "C2",
		  "ticks": 115200,
		  "time": 92.90304,
		  "velocity": 0.7480314960629921
		},
		{
		  "duration": 0.19354800000000694,
		  "durationTicks": 240,
		  "midi": 36,
		  "name": "C2",
		  "ticks": 115440,
		  "time": 93.096588,
		  "velocity": 0.7480314960629921
		},
		{
		  "duration": 0.19354799999999273,
		  "durationTicks": 240,
		  "midi": 55,
		  "name": "G3",
		  "ticks": 115680,
		  "time": 93.290136,
		  "velocity": 0.7480314960629921
		},
		{
		  "duration": 0.19354799999999273,
		  "durationTicks": 240,
		  "midi": 38,
		  "name": "D2",
		  "ticks": 115680,
		  "time": 93.290136,
		  "velocity": 0.7480314960629921
		},
		{
		  "duration": 0.19354800000000694,
		  "durationTicks": 240,
		  "midi": 36,
		  "name": "C2",
		  "ticks": 115920,
		  "time": 93.483684,
		  "velocity": 0.7480314960629921
		},
		{
		  "duration": 0.19354799999999273,
		  "durationTicks": 240,
		  "midi": 55,
		  "name": "G3",
		  "ticks": 116160,
		  "time": 93.677232,
		  "velocity": 0.7480314960629921
		},
		{
		  "duration": 0.19354800000000694,
		  "durationTicks": 240,
		  "midi": 36,
		  "name": "C2",
		  "ticks": 116400,
		  "time": 93.87078,
		  "velocity": 0.7480314960629921
		},
		{
		  "duration": 0.19354799999999273,
		  "durationTicks": 240,
		  "midi": 55,
		  "name": "G3",
		  "ticks": 116640,
		  "time": 94.064328,
		  "velocity": 0.7480314960629921
		},
		{
		  "duration": 0.19354799999999273,
		  "durationTicks": 240,
		  "midi": 38,
		  "name": "D2",
		  "ticks": 116640,
		  "time": 94.064328,
		  "velocity": 0.7480314960629921
		},
		{
		  "duration": 0.19354800000000694,
		  "durationTicks": 240,
		  "midi": 36,
		  "name": "C2",
		  "ticks": 116880,
		  "time": 94.257876,
		  "velocity": 0.7480314960629921
		},
		{
		  "duration": 0.19354799999999273,
		  "durationTicks": 240,
		  "midi": 55,
		  "name": "G3",
		  "ticks": 117120,
		  "time": 94.451424,
		  "velocity": 0.7480314960629921
		},
		{
		  "duration": 0.19354799999999273,
		  "durationTicks": 240,
		  "midi": 36,
		  "name": "C2",
		  "ticks": 117120,
		  "time": 94.451424,
		  "velocity": 0.7480314960629921
		},
		{
		  "duration": 0.19354800000000694,
		  "durationTicks": 240,
		  "midi": 36,
		  "name": "C2",
		  "ticks": 117360,
		  "time": 94.644972,
		  "velocity": 0.7480314960629921
		},
		{
		  "duration": 0.19354799999999273,
		  "durationTicks": 240,
		  "midi": 55,
		  "name": "G3",
		  "ticks": 117600,
		  "time": 94.83852,
		  "velocity": 0.7480314960629921
		},
		{
		  "duration": 0.19354799999999273,
		  "durationTicks": 240,
		  "midi": 38,
		  "name": "D2",
		  "ticks": 117600,
		  "time": 94.83852,
		  "velocity": 0.7480314960629921
		},
		{
		  "duration": 0.19354800000000694,
		  "durationTicks": 240,
		  "midi": 36,
		  "name": "C2",
		  "ticks": 117840,
		  "time": 95.032068,
		  "velocity": 0.7480314960629921
		},
		{
		  "duration": 0.19354799999999273,
		  "durationTicks": 240,
		  "midi": 55,
		  "name": "G3",
		  "ticks": 118080,
		  "time": 95.225616,
		  "velocity": 0.7480314960629921
		},
		{
		  "duration": 0.09677400000001057,
		  "durationTicks": 120,
		  "midi": 36,
		  "name": "C2",
		  "ticks": 118320,
		  "time": 95.419164,
		  "velocity": 0.7480314960629921
		},
		{
		  "duration": 0.09677399999999636,
		  "durationTicks": 120,
		  "midi": 36,
		  "name": "C2",
		  "ticks": 118440,
		  "time": 95.515938,
		  "velocity": 0.7480314960629921
		},
		{
		  "duration": 0.19354799999999273,
		  "durationTicks": 240,
		  "midi": 55,
		  "name": "G3",
		  "ticks": 118560,
		  "time": 95.612712,
		  "velocity": 0.7480314960629921
		},
		{
		  "duration": 0.19354799999999273,
		  "durationTicks": 240,
		  "midi": 38,
		  "name": "D2",
		  "ticks": 118560,
		  "time": 95.612712,
		  "velocity": 0.7480314960629921
		},
		{
		  "duration": 0.19354800000000694,
		  "durationTicks": 240,
		  "midi": 36,
		  "name": "C2",
		  "ticks": 118800,
		  "time": 95.80626,
		  "velocity": 0.7480314960629921
		},
		{
		  "duration": 0.19354799999999273,
		  "durationTicks": 240,
		  "midi": 55,
		  "name": "G3",
		  "ticks": 119040,
		  "time": 95.999808,
		  "velocity": 0.7480314960629921
		},
		{
		  "duration": 0.19354799999999273,
		  "durationTicks": 240,
		  "midi": 36,
		  "name": "C2",
		  "ticks": 119040,
		  "time": 95.999808,
		  "velocity": 0.7480314960629921
		},
		{
		  "duration": 0.19354800000000694,
		  "durationTicks": 240,
		  "midi": 36,
		  "name": "C2",
		  "ticks": 119280,
		  "time": 96.193356,
		  "velocity": 0.7480314960629921
		},
		{
		  "duration": 0.19354799999999273,
		  "durationTicks": 240,
		  "midi": 55,
		  "name": "G3",
		  "ticks": 119520,
		  "time": 96.386904,
		  "velocity": 0.7480314960629921
		},
		{
		  "duration": 0.19354799999999273,
		  "durationTicks": 240,
		  "midi": 38,
		  "name": "D2",
		  "ticks": 119520,
		  "time": 96.386904,
		  "velocity": 0.7480314960629921
		},
		{
		  "duration": 0.19354800000000694,
		  "durationTicks": 240,
		  "midi": 36,
		  "name": "C2",
		  "ticks": 119760,
		  "time": 96.580452,
		  "velocity": 0.7480314960629921
		},
		{
		  "duration": 0.19354799999999273,
		  "durationTicks": 240,
		  "midi": 55,
		  "name": "G3",
		  "ticks": 120000,
		  "time": 96.774,
		  "velocity": 0.7480314960629921
		},
		{
		  "duration": 0.19354800000000694,
		  "durationTicks": 240,
		  "midi": 36,
		  "name": "C2",
		  "ticks": 120240,
		  "time": 96.967548,
		  "velocity": 0.7480314960629921
		},
		{
		  "duration": 0.19354799999999273,
		  "durationTicks": 240,
		  "midi": 55,
		  "name": "G3",
		  "ticks": 120480,
		  "time": 97.161096,
		  "velocity": 0.7480314960629921
		},
		{
		  "duration": 0.19354799999999273,
		  "durationTicks": 240,
		  "midi": 38,
		  "name": "D2",
		  "ticks": 120480,
		  "time": 97.161096,
		  "velocity": 0.7480314960629921
		},
		{
		  "duration": 0.19354800000000694,
		  "durationTicks": 240,
		  "midi": 36,
		  "name": "C2",
		  "ticks": 120720,
		  "time": 97.354644,
		  "velocity": 0.7480314960629921
		},
		{
		  "duration": 0.19354799999999273,
		  "durationTicks": 240,
		  "midi": 55,
		  "name": "G3",
		  "ticks": 120960,
		  "time": 97.548192,
		  "velocity": 0.7480314960629921
		},
		{
		  "duration": 0.19354799999999273,
		  "durationTicks": 240,
		  "midi": 36,
		  "name": "C2",
		  "ticks": 120960,
		  "time": 97.548192,
		  "velocity": 0.7480314960629921
		},
		{
		  "duration": 0.19354800000000694,
		  "durationTicks": 240,
		  "midi": 36,
		  "name": "C2",
		  "ticks": 121200,
		  "time": 97.74174,
		  "velocity": 0.7480314960629921
		},
		{
		  "duration": 0.19354799999999273,
		  "durationTicks": 240,
		  "midi": 55,
		  "name": "G3",
		  "ticks": 121440,
		  "time": 97.935288,
		  "velocity": 0.7480314960629921
		},
		{
		  "duration": 0.19354799999999273,
		  "durationTicks": 240,
		  "midi": 38,
		  "name": "D2",
		  "ticks": 121440,
		  "time": 97.935288,
		  "velocity": 0.7480314960629921
		},
		{
		  "duration": 0.19354800000000694,
		  "durationTicks": 240,
		  "midi": 36,
		  "name": "C2",
		  "ticks": 121680,
		  "time": 98.12883599999999,
		  "velocity": 0.7480314960629921
		},
		{
		  "duration": 0.09677399999999636,
		  "durationTicks": 120,
		  "midi": 47,
		  "name": "B2",
		  "ticks": 121920,
		  "time": 98.322384,
		  "velocity": 0.7480314960629921
		},
		{
		  "duration": 0.09677399999999636,
		  "durationTicks": 120,
		  "midi": 36,
		  "name": "C2",
		  "ticks": 121920,
		  "time": 98.322384,
		  "velocity": 0.7480314960629921
		},
		{
		  "duration": 0.09677399999999636,
		  "durationTicks": 120,
		  "midi": 47,
		  "name": "B2",
		  "ticks": 122040,
		  "time": 98.419158,
		  "velocity": 0.7480314960629921
		},
		{
		  "duration": 0.09677400000001057,
		  "durationTicks": 120,
		  "midi": 45,
		  "name": "A2",
		  "ticks": 122160,
		  "time": 98.51593199999999,
		  "velocity": 0.7480314960629921
		},
		{
		  "duration": 0.09677400000001057,
		  "durationTicks": 120,
		  "midi": 36,
		  "name": "C2",
		  "ticks": 122160,
		  "time": 98.51593199999999,
		  "velocity": 0.7480314960629921
		},
		{
		  "duration": 0.09677399999999636,
		  "durationTicks": 120,
		  "midi": 43,
		  "name": "G2",
		  "ticks": 122280,
		  "time": 98.612706,
		  "velocity": 0.7480314960629921
		},
		{
		  "duration": 0.09677399999999636,
		  "durationTicks": 120,
		  "midi": 52,
		  "name": "E3",
		  "ticks": 122400,
		  "time": 98.70948,
		  "velocity": 0.7480314960629921
		},
		{
		  "duration": 0.09677399999999636,
		  "durationTicks": 120,
		  "midi": 38,
		  "name": "D2",
		  "ticks": 122400,
		  "time": 98.70948,
		  "velocity": 0.7480314960629921
		},
		{
		  "duration": 0.19354800000000694,
		  "durationTicks": 240,
		  "midi": 41,
		  "name": "F2",
		  "ticks": 122640,
		  "time": 98.90302799999999,
		  "velocity": 0.7480314960629921
		},
		{
		  "duration": 0.19354800000000694,
		  "durationTicks": 240,
		  "midi": 36,
		  "name": "C2",
		  "ticks": 122640,
		  "time": 98.90302799999999,
		  "velocity": 0.7480314960629921
		},
		{
		  "duration": 0.19354800000000694,
		  "durationTicks": 240,
		  "midi": 49,
		  "name": "C#3",
		  "ticks": 122880,
		  "time": 99.096576,
		  "velocity": 0.7480314960629921
		},
		{
		  "duration": 0.19354800000000694,
		  "durationTicks": 240,
		  "midi": 36,
		  "name": "C2",
		  "ticks": 122880,
		  "time": 99.096576,
		  "velocity": 0.7480314960629921
		},
		{
		  "duration": 0.19354799999999273,
		  "durationTicks": 240,
		  "midi": 36,
		  "name": "C2",
		  "ticks": 123120,
		  "time": 99.290124,
		  "velocity": 0.7480314960629921
		},
		{
		  "duration": 0.19354800000000694,
		  "durationTicks": 240,
		  "midi": 55,
		  "name": "G3",
		  "ticks": 123360,
		  "time": 99.483672,
		  "velocity": 0.7480314960629921
		},
		{
		  "duration": 0.19354800000000694,
		  "durationTicks": 240,
		  "midi": 38,
		  "name": "D2",
		  "ticks": 123360,
		  "time": 99.483672,
		  "velocity": 0.7480314960629921
		},
		{
		  "duration": 0.19354799999999273,
		  "durationTicks": 240,
		  "midi": 36,
		  "name": "C2",
		  "ticks": 123600,
		  "time": 99.67722,
		  "velocity": 0.7480314960629921
		},
		{
		  "duration": 0.19354800000000694,
		  "durationTicks": 240,
		  "midi": 55,
		  "name": "G3",
		  "ticks": 123840,
		  "time": 99.870768,
		  "velocity": 0.7480314960629921
		},
		{
		  "duration": 0.19354799999999273,
		  "durationTicks": 240,
		  "midi": 36,
		  "name": "C2",
		  "ticks": 124080,
		  "time": 100.064316,
		  "velocity": 0.7480314960629921
		},
		{
		  "duration": 0.19354800000000694,
		  "durationTicks": 240,
		  "midi": 55,
		  "name": "G3",
		  "ticks": 124320,
		  "time": 100.257864,
		  "velocity": 0.7480314960629921
		},
		{
		  "duration": 0.19354800000000694,
		  "durationTicks": 240,
		  "midi": 38,
		  "name": "D2",
		  "ticks": 124320,
		  "time": 100.257864,
		  "velocity": 0.7480314960629921
		},
		{
		  "duration": 0.19354799999999273,
		  "durationTicks": 240,
		  "midi": 36,
		  "name": "C2",
		  "ticks": 124560,
		  "time": 100.451412,
		  "velocity": 0.7480314960629921
		},
		{
		  "duration": 0.19354800000000694,
		  "durationTicks": 240,
		  "midi": 55,
		  "name": "G3",
		  "ticks": 124800,
		  "time": 100.64496,
		  "velocity": 0.7480314960629921
		},
		{
		  "duration": 0.19354800000000694,
		  "durationTicks": 240,
		  "midi": 36,
		  "name": "C2",
		  "ticks": 124800,
		  "time": 100.64496,
		  "velocity": 0.7480314960629921
		},
		{
		  "duration": 0.19354799999999273,
		  "durationTicks": 240,
		  "midi": 36,
		  "name": "C2",
		  "ticks": 125040,
		  "time": 100.838508,
		  "velocity": 0.7480314960629921
		},
		{
		  "duration": 0.19354800000000694,
		  "durationTicks": 240,
		  "midi": 55,
		  "name": "G3",
		  "ticks": 125280,
		  "time": 101.032056,
		  "velocity": 0.7480314960629921
		},
		{
		  "duration": 0.19354800000000694,
		  "durationTicks": 240,
		  "midi": 38,
		  "name": "D2",
		  "ticks": 125280,
		  "time": 101.032056,
		  "velocity": 0.7480314960629921
		},
		{
		  "duration": 0.19354799999999273,
		  "durationTicks": 240,
		  "midi": 36,
		  "name": "C2",
		  "ticks": 125520,
		  "time": 101.225604,
		  "velocity": 0.7480314960629921
		},
		{
		  "duration": 0.19354800000000694,
		  "durationTicks": 240,
		  "midi": 55,
		  "name": "G3",
		  "ticks": 125760,
		  "time": 101.419152,
		  "velocity": 0.7480314960629921
		},
		{
		  "duration": 0.09677399999999636,
		  "durationTicks": 120,
		  "midi": 36,
		  "name": "C2",
		  "ticks": 126000,
		  "time": 101.6127,
		  "velocity": 0.7480314960629921
		},
		{
		  "duration": 0.09677399999999636,
		  "durationTicks": 120,
		  "midi": 36,
		  "name": "C2",
		  "ticks": 126120,
		  "time": 101.709474,
		  "velocity": 0.7480314960629921
		},
		{
		  "duration": 0.19354800000000694,
		  "durationTicks": 240,
		  "midi": 55,
		  "name": "G3",
		  "ticks": 126240,
		  "time": 101.806248,
		  "velocity": 0.7480314960629921
		},
		{
		  "duration": 0.19354800000000694,
		  "durationTicks": 240,
		  "midi": 38,
		  "name": "D2",
		  "ticks": 126240,
		  "time": 101.806248,
		  "velocity": 0.7480314960629921
		},
		{
		  "duration": 0.19354799999999273,
		  "durationTicks": 240,
		  "midi": 36,
		  "name": "C2",
		  "ticks": 126480,
		  "time": 101.999796,
		  "velocity": 0.7480314960629921
		},
		{
		  "duration": 0.19354800000000694,
		  "durationTicks": 240,
		  "midi": 55,
		  "name": "G3",
		  "ticks": 126720,
		  "time": 102.193344,
		  "velocity": 0.7480314960629921
		},
		{
		  "duration": 0.19354800000000694,
		  "durationTicks": 240,
		  "midi": 36,
		  "name": "C2",
		  "ticks": 126720,
		  "time": 102.193344,
		  "velocity": 0.7480314960629921
		},
		{
		  "duration": 0.19354799999999273,
		  "durationTicks": 240,
		  "midi": 36,
		  "name": "C2",
		  "ticks": 126960,
		  "time": 102.386892,
		  "velocity": 0.7480314960629921
		},
		{
		  "duration": 0.19354800000000694,
		  "durationTicks": 240,
		  "midi": 55,
		  "name": "G3",
		  "ticks": 127200,
		  "time": 102.58044,
		  "velocity": 0.7480314960629921
		},
		{
		  "duration": 0.19354800000000694,
		  "durationTicks": 240,
		  "midi": 38,
		  "name": "D2",
		  "ticks": 127200,
		  "time": 102.58044,
		  "velocity": 0.7480314960629921
		},
		{
		  "duration": 0.19354799999999273,
		  "durationTicks": 240,
		  "midi": 36,
		  "name": "C2",
		  "ticks": 127440,
		  "time": 102.773988,
		  "velocity": 0.7480314960629921
		},
		{
		  "duration": 0.19354800000000694,
		  "durationTicks": 240,
		  "midi": 55,
		  "name": "G3",
		  "ticks": 127680,
		  "time": 102.967536,
		  "velocity": 0.7480314960629921
		},
		{
		  "duration": 0.19354799999999273,
		  "durationTicks": 240,
		  "midi": 36,
		  "name": "C2",
		  "ticks": 127920,
		  "time": 103.161084,
		  "velocity": 0.7480314960629921
		},
		{
		  "duration": 0.19354800000000694,
		  "durationTicks": 240,
		  "midi": 55,
		  "name": "G3",
		  "ticks": 128160,
		  "time": 103.354632,
		  "velocity": 0.7480314960629921
		},
		{
		  "duration": 0.19354800000000694,
		  "durationTicks": 240,
		  "midi": 38,
		  "name": "D2",
		  "ticks": 128160,
		  "time": 103.354632,
		  "velocity": 0.7480314960629921
		},
		{
		  "duration": 0.19354799999999273,
		  "durationTicks": 240,
		  "midi": 36,
		  "name": "C2",
		  "ticks": 128400,
		  "time": 103.54818,
		  "velocity": 0.7480314960629921
		},
		{
		  "duration": 0.19354800000000694,
		  "durationTicks": 240,
		  "midi": 55,
		  "name": "G3",
		  "ticks": 128640,
		  "time": 103.741728,
		  "velocity": 0.7480314960629921
		},
		{
		  "duration": 0.19354800000000694,
		  "durationTicks": 240,
		  "midi": 36,
		  "name": "C2",
		  "ticks": 128640,
		  "time": 103.741728,
		  "velocity": 0.7480314960629921
		},
		{
		  "duration": 0.19354799999999273,
		  "durationTicks": 240,
		  "midi": 36,
		  "name": "C2",
		  "ticks": 128880,
		  "time": 103.935276,
		  "velocity": 0.7480314960629921
		},
		{
		  "duration": 0.19354800000000694,
		  "durationTicks": 240,
		  "midi": 55,
		  "name": "G3",
		  "ticks": 129120,
		  "time": 104.128824,
		  "velocity": 0.7480314960629921
		},
		{
		  "duration": 0.19354800000000694,
		  "durationTicks": 240,
		  "midi": 38,
		  "name": "D2",
		  "ticks": 129120,
		  "time": 104.128824,
		  "velocity": 0.7480314960629921
		},
		{
		  "duration": 0.19354799999999273,
		  "durationTicks": 240,
		  "midi": 36,
		  "name": "C2",
		  "ticks": 129360,
		  "time": 104.322372,
		  "velocity": 0.7480314960629921
		},
		{
		  "duration": 0.09677400000001057,
		  "durationTicks": 120,
		  "midi": 47,
		  "name": "B2",
		  "ticks": 129600,
		  "time": 104.51592,
		  "velocity": 0.7480314960629921
		},
		{
		  "duration": 0.09677400000001057,
		  "durationTicks": 120,
		  "midi": 36,
		  "name": "C2",
		  "ticks": 129600,
		  "time": 104.51592,
		  "velocity": 0.7480314960629921
		},
		{
		  "duration": 0.09677399999999636,
		  "durationTicks": 120,
		  "midi": 47,
		  "name": "B2",
		  "ticks": 129720,
		  "time": 104.612694,
		  "velocity": 0.7480314960629921
		},
		{
		  "duration": 0.09677399999999636,
		  "durationTicks": 120,
		  "midi": 45,
		  "name": "A2",
		  "ticks": 129840,
		  "time": 104.709468,
		  "velocity": 0.7480314960629921
		},
		{
		  "duration": 0.09677399999999636,
		  "durationTicks": 120,
		  "midi": 36,
		  "name": "C2",
		  "ticks": 129840,
		  "time": 104.709468,
		  "velocity": 0.7480314960629921
		},
		{
		  "duration": 0.09677399999999636,
		  "durationTicks": 120,
		  "midi": 43,
		  "name": "G2",
		  "ticks": 129960,
		  "time": 104.806242,
		  "velocity": 0.7480314960629921
		},
		{
		  "duration": 0.09677400000001057,
		  "durationTicks": 120,
		  "midi": 52,
		  "name": "E3",
		  "ticks": 130080,
		  "time": 104.903016,
		  "velocity": 0.7480314960629921
		},
		{
		  "duration": 0.09677400000001057,
		  "durationTicks": 120,
		  "midi": 38,
		  "name": "D2",
		  "ticks": 130080,
		  "time": 104.903016,
		  "velocity": 0.7480314960629921
		},
		{
		  "duration": 0.19354799999999273,
		  "durationTicks": 240,
		  "midi": 41,
		  "name": "F2",
		  "ticks": 130320,
		  "time": 105.096564,
		  "velocity": 0.7480314960629921
		},
		{
		  "duration": 0.19354799999999273,
		  "durationTicks": 240,
		  "midi": 36,
		  "name": "C2",
		  "ticks": 130320,
		  "time": 105.096564,
		  "velocity": 0.7480314960629921
		},
		{
		  "duration": 0.19354800000000694,
		  "durationTicks": 240,
		  "midi": 49,
		  "name": "C#3",
		  "ticks": 130560,
		  "time": 105.290112,
		  "velocity": 0.7480314960629921
		},
		{
		  "duration": 0.19354800000000694,
		  "durationTicks": 240,
		  "midi": 36,
		  "name": "C2",
		  "ticks": 130560,
		  "time": 105.290112,
		  "velocity": 0.7480314960629921
		},
		{
		  "duration": 0.19354799999999273,
		  "durationTicks": 240,
		  "midi": 36,
		  "name": "C2",
		  "ticks": 130800,
		  "time": 105.48366,
		  "velocity": 0.7480314960629921
		},
		{
		  "duration": 0.19354800000000694,
		  "durationTicks": 240,
		  "midi": 38,
		  "name": "D2",
		  "ticks": 131040,
		  "time": 105.677208,
		  "velocity": 0.7480314960629921
		},
		{
		  "duration": 0.19354800000000694,
		  "durationTicks": 240,
		  "midi": 38,
		  "name": "D2",
		  "ticks": 132000,
		  "time": 106.45139999999999,
		  "velocity": 0.7480314960629921
		},
		{
		  "duration": 0.19354800000000694,
		  "durationTicks": 240,
		  "midi": 38,
		  "name": "D2",
		  "ticks": 132960,
		  "time": 107.22559199999999,
		  "velocity": 0.7480314960629921
		},
		{
		  "duration": 0.09677399999999636,
		  "durationTicks": 120,
		  "midi": 36,
		  "name": "C2",
		  "ticks": 133680,
		  "time": 107.806236,
		  "velocity": 0.7480314960629921
		},
		{
		  "duration": 0.09677400000001057,
		  "durationTicks": 120,
		  "midi": 36,
		  "name": "C2",
		  "ticks": 133800,
		  "time": 107.90301,
		  "velocity": 0.7480314960629921
		},
		{
		  "duration": 0.19354799999999273,
		  "durationTicks": 240,
		  "midi": 38,
		  "name": "D2",
		  "ticks": 133920,
		  "time": 107.999784,
		  "velocity": 0.7480314960629921
		},
		{
		  "duration": 0.19354800000000694,
		  "durationTicks": 240,
		  "midi": 36,
		  "name": "C2",
		  "ticks": 134160,
		  "time": 108.193332,
		  "velocity": 0.7480314960629921
		},
		{
		  "duration": 0.19354799999999273,
		  "durationTicks": 240,
		  "midi": 36,
		  "name": "C2",
		  "ticks": 134400,
		  "time": 108.38688,
		  "velocity": 0.7480314960629921
		},
		{
		  "duration": 0.19354800000000694,
		  "durationTicks": 240,
		  "midi": 36,
		  "name": "C2",
		  "ticks": 134640,
		  "time": 108.580428,
		  "velocity": 0.7480314960629921
		},
		{
		  "duration": 0.19354799999999273,
		  "durationTicks": 240,
		  "midi": 38,
		  "name": "D2",
		  "ticks": 134880,
		  "time": 108.773976,
		  "velocity": 0.7480314960629921
		},
		{
		  "duration": 0.19354799999999273,
		  "durationTicks": 240,
		  "midi": 38,
		  "name": "D2",
		  "ticks": 135840,
		  "time": 109.548168,
		  "velocity": 0.7480314960629921
		},
		{
		  "duration": 0.19354799999999273,
		  "durationTicks": 240,
		  "midi": 38,
		  "name": "D2",
		  "ticks": 136800,
		  "time": 110.32236,
		  "velocity": 0.7480314960629921
		},
		{
		  "duration": 0.09677399999999636,
		  "durationTicks": 120,
		  "midi": 36,
		  "name": "C2",
		  "ticks": 137040,
		  "time": 110.515908,
		  "velocity": 0.7480314960629921
		},
		{
		  "duration": 0.09677400000001057,
		  "durationTicks": 120,
		  "midi": 36,
		  "name": "C2",
		  "ticks": 137160,
		  "time": 110.61268199999999,
		  "velocity": 0.7480314960629921
		},
		{
		  "duration": 0.19354799999999273,
		  "durationTicks": 240,
		  "midi": 36,
		  "name": "C2",
		  "ticks": 137280,
		  "time": 110.709456,
		  "velocity": 0.7480314960629921
		},
		{
		  "duration": 0.09677399999999636,
		  "durationTicks": 120,
		  "midi": 53,
		  "name": "F3",
		  "ticks": 137520,
		  "time": 110.903004,
		  "velocity": 0.7480314960629921
		},
		{
		  "duration": 0.09677399999999636,
		  "durationTicks": 120,
		  "midi": 36,
		  "name": "C2",
		  "ticks": 137520,
		  "time": 110.903004,
		  "velocity": 0.7480314960629921
		},
		{
		  "duration": 0.09677400000001057,
		  "durationTicks": 120,
		  "midi": 36,
		  "name": "C2",
		  "ticks": 137640,
		  "time": 110.99977799999999,
		  "velocity": 0.7480314960629921
		},
		{
		  "duration": 0.19354799999999273,
		  "durationTicks": 240,
		  "midi": 52,
		  "name": "E3",
		  "ticks": 137760,
		  "time": 111.096552,
		  "velocity": 0.7480314960629921
		},
		{
		  "duration": 0.19354799999999273,
		  "durationTicks": 240,
		  "midi": 38,
		  "name": "D2",
		  "ticks": 137760,
		  "time": 111.096552,
		  "velocity": 0.7480314960629921
		},
		{
		  "duration": 0.19354799999999273,
		  "durationTicks": 240,
		  "midi": 49,
		  "name": "C#3",
		  "ticks": 138240,
		  "time": 111.483648,
		  "velocity": 0.7480314960629921
		},
		{
		  "duration": 0.19354799999999273,
		  "durationTicks": 240,
		  "midi": 36,
		  "name": "C2",
		  "ticks": 138240,
		  "time": 111.483648,
		  "velocity": 0.7480314960629921
		},
		{
		  "duration": 0.19354800000000694,
		  "durationTicks": 240,
		  "midi": 36,
		  "name": "C2",
		  "ticks": 138480,
		  "time": 111.677196,
		  "velocity": 0.7480314960629921
		},
		{
		  "duration": 0.19354799999999273,
		  "durationTicks": 240,
		  "midi": 55,
		  "name": "G3",
		  "ticks": 138720,
		  "time": 111.870744,
		  "velocity": 0.7480314960629921
		},
		{
		  "duration": 0.19354799999999273,
		  "durationTicks": 240,
		  "midi": 38,
		  "name": "D2",
		  "ticks": 138720,
		  "time": 111.870744,
		  "velocity": 0.7480314960629921
		},
		{
		  "duration": 0.19354800000000694,
		  "durationTicks": 240,
		  "midi": 36,
		  "name": "C2",
		  "ticks": 138960,
		  "time": 112.064292,
		  "velocity": 0.7480314960629921
		},
		{
		  "duration": 0.19354799999999273,
		  "durationTicks": 240,
		  "midi": 55,
		  "name": "G3",
		  "ticks": 139200,
		  "time": 112.25784,
		  "velocity": 0.7480314960629921
		},
		{
		  "duration": 0.19354799999999273,
		  "durationTicks": 240,
		  "midi": 36,
		  "name": "C2",
		  "ticks": 139200,
		  "time": 112.25784,
		  "velocity": 0.7480314960629921
		},
		{
		  "duration": 0.19354800000000694,
		  "durationTicks": 240,
		  "midi": 36,
		  "name": "C2",
		  "ticks": 139440,
		  "time": 112.451388,
		  "velocity": 0.7480314960629921
		},
		{
		  "duration": 0.19354799999999273,
		  "durationTicks": 240,
		  "midi": 55,
		  "name": "G3",
		  "ticks": 139680,
		  "time": 112.644936,
		  "velocity": 0.7480314960629921
		},
		{
		  "duration": 0.19354799999999273,
		  "durationTicks": 240,
		  "midi": 38,
		  "name": "D2",
		  "ticks": 139680,
		  "time": 112.644936,
		  "velocity": 0.7480314960629921
		},
		{
		  "duration": 0.19354800000000694,
		  "durationTicks": 240,
		  "midi": 36,
		  "name": "C2",
		  "ticks": 139920,
		  "time": 112.838484,
		  "velocity": 0.7480314960629921
		},
		{
		  "duration": 0.19354799999999273,
		  "durationTicks": 240,
		  "midi": 55,
		  "name": "G3",
		  "ticks": 140160,
		  "time": 113.032032,
		  "velocity": 0.7480314960629921
		},
		{
		  "duration": 0.19354799999999273,
		  "durationTicks": 240,
		  "midi": 36,
		  "name": "C2",
		  "ticks": 140160,
		  "time": 113.032032,
		  "velocity": 0.7480314960629921
		},
		{
		  "duration": 0.19354800000000694,
		  "durationTicks": 240,
		  "midi": 36,
		  "name": "C2",
		  "ticks": 140400,
		  "time": 113.22558,
		  "velocity": 0.7480314960629921
		},
		{
		  "duration": 0.19354799999999273,
		  "durationTicks": 240,
		  "midi": 55,
		  "name": "G3",
		  "ticks": 140640,
		  "time": 113.419128,
		  "velocity": 0.7480314960629921
		},
		{
		  "duration": 0.19354799999999273,
		  "durationTicks": 240,
		  "midi": 38,
		  "name": "D2",
		  "ticks": 140640,
		  "time": 113.419128,
		  "velocity": 0.7480314960629921
		},
		{
		  "duration": 0.19354800000000694,
		  "durationTicks": 240,
		  "midi": 36,
		  "name": "C2",
		  "ticks": 140880,
		  "time": 113.612676,
		  "velocity": 0.7480314960629921
		},
		{
		  "duration": 0.19354799999999273,
		  "durationTicks": 240,
		  "midi": 55,
		  "name": "G3",
		  "ticks": 141120,
		  "time": 113.806224,
		  "velocity": 0.7480314960629921
		},
		{
		  "duration": 0.09677400000001057,
		  "durationTicks": 120,
		  "midi": 36,
		  "name": "C2",
		  "ticks": 141360,
		  "time": 113.999772,
		  "velocity": 0.7480314960629921
		},
		{
		  "duration": 0.09677399999999636,
		  "durationTicks": 120,
		  "midi": 36,
		  "name": "C2",
		  "ticks": 141480,
		  "time": 114.096546,
		  "velocity": 0.7480314960629921
		},
		{
		  "duration": 0.19354799999999273,
		  "durationTicks": 240,
		  "midi": 55,
		  "name": "G3",
		  "ticks": 141600,
		  "time": 114.19332,
		  "velocity": 0.7480314960629921
		},
		{
		  "duration": 0.19354799999999273,
		  "durationTicks": 240,
		  "midi": 38,
		  "name": "D2",
		  "ticks": 141600,
		  "time": 114.19332,
		  "velocity": 0.7480314960629921
		},
		{
		  "duration": 0.19354800000000694,
		  "durationTicks": 240,
		  "midi": 36,
		  "name": "C2",
		  "ticks": 141840,
		  "time": 114.38686799999999,
		  "velocity": 0.7480314960629921
		},
		{
		  "duration": 0.19354799999999273,
		  "durationTicks": 240,
		  "midi": 55,
		  "name": "G3",
		  "ticks": 142080,
		  "time": 114.580416,
		  "velocity": 0.7480314960629921
		},
		{
		  "duration": 0.19354799999999273,
		  "durationTicks": 240,
		  "midi": 36,
		  "name": "C2",
		  "ticks": 142080,
		  "time": 114.580416,
		  "velocity": 0.7480314960629921
		},
		{
		  "duration": 0.19354800000000694,
		  "durationTicks": 240,
		  "midi": 36,
		  "name": "C2",
		  "ticks": 142320,
		  "time": 114.77396399999999,
		  "velocity": 0.7480314960629921
		},
		{
		  "duration": 0.19354799999999273,
		  "durationTicks": 240,
		  "midi": 55,
		  "name": "G3",
		  "ticks": 142560,
		  "time": 114.967512,
		  "velocity": 0.7480314960629921
		},
		{
		  "duration": 0.19354799999999273,
		  "durationTicks": 240,
		  "midi": 38,
		  "name": "D2",
		  "ticks": 142560,
		  "time": 114.967512,
		  "velocity": 0.7480314960629921
		},
		{
		  "duration": 0.19354800000000694,
		  "durationTicks": 240,
		  "midi": 36,
		  "name": "C2",
		  "ticks": 142800,
		  "time": 115.16105999999999,
		  "velocity": 0.7480314960629921
		},
		{
		  "duration": 0.19354799999999273,
		  "durationTicks": 240,
		  "midi": 55,
		  "name": "G3",
		  "ticks": 143040,
		  "time": 115.354608,
		  "velocity": 0.7480314960629921
		},
		{
		  "duration": 0.19354799999999273,
		  "durationTicks": 240,
		  "midi": 36,
		  "name": "C2",
		  "ticks": 143040,
		  "time": 115.354608,
		  "velocity": 0.7480314960629921
		},
		{
		  "duration": 0.19354800000000694,
		  "durationTicks": 240,
		  "midi": 36,
		  "name": "C2",
		  "ticks": 143280,
		  "time": 115.54815599999999,
		  "velocity": 0.7480314960629921
		},
		{
		  "duration": 0.19354800000000694,
		  "durationTicks": 240,
		  "midi": 55,
		  "name": "G3",
		  "ticks": 143520,
		  "time": 115.741704,
		  "velocity": 0.7480314960629921
		},
		{
		  "duration": 0.19354800000000694,
		  "durationTicks": 240,
		  "midi": 38,
		  "name": "D2",
		  "ticks": 143520,
		  "time": 115.741704,
		  "velocity": 0.7480314960629921
		},
		{
		  "duration": 0.19354799999999273,
		  "durationTicks": 240,
		  "midi": 36,
		  "name": "C2",
		  "ticks": 143760,
		  "time": 115.935252,
		  "velocity": 0.7480314960629921
		},
		{
		  "duration": 0.19354800000000694,
		  "durationTicks": 240,
		  "midi": 55,
		  "name": "G3",
		  "ticks": 144000,
		  "time": 116.1288,
		  "velocity": 0.7480314960629921
		},
		{
		  "duration": 0.19354800000000694,
		  "durationTicks": 240,
		  "midi": 36,
		  "name": "C2",
		  "ticks": 144000,
		  "time": 116.1288,
		  "velocity": 0.7480314960629921
		},
		{
		  "duration": 0.19354799999999273,
		  "durationTicks": 240,
		  "midi": 36,
		  "name": "C2",
		  "ticks": 144240,
		  "time": 116.322348,
		  "velocity": 0.7480314960629921
		},
		{
		  "duration": 0.19354800000000694,
		  "durationTicks": 240,
		  "midi": 55,
		  "name": "G3",
		  "ticks": 144480,
		  "time": 116.515896,
		  "velocity": 0.7480314960629921
		},
		{
		  "duration": 0.19354800000000694,
		  "durationTicks": 240,
		  "midi": 38,
		  "name": "D2",
		  "ticks": 144480,
		  "time": 116.515896,
		  "velocity": 0.7480314960629921
		},
		{
		  "duration": 0.19354799999999273,
		  "durationTicks": 240,
		  "midi": 36,
		  "name": "C2",
		  "ticks": 144720,
		  "time": 116.709444,
		  "velocity": 0.7480314960629921
		},
		{
		  "duration": 0.19354800000000694,
		  "durationTicks": 240,
		  "midi": 55,
		  "name": "G3",
		  "ticks": 144960,
		  "time": 116.902992,
		  "velocity": 0.7480314960629921
		},
		{
		  "duration": 0.09677399999999636,
		  "durationTicks": 120,
		  "midi": 36,
		  "name": "C2",
		  "ticks": 145200,
		  "time": 117.09654,
		  "velocity": 0.7480314960629921
		},
		{
		  "duration": 0.09677399999999636,
		  "durationTicks": 120,
		  "midi": 36,
		  "name": "C2",
		  "ticks": 145320,
		  "time": 117.193314,
		  "velocity": 0.7480314960629921
		},
		{
		  "duration": 0.19354800000000694,
		  "durationTicks": 240,
		  "midi": 52,
		  "name": "E3",
		  "ticks": 145440,
		  "time": 117.290088,
		  "velocity": 0.7480314960629921
		},
		{
		  "duration": 0.19354800000000694,
		  "durationTicks": 240,
		  "midi": 38,
		  "name": "D2",
		  "ticks": 145440,
		  "time": 117.290088,
		  "velocity": 0.7480314960629921
		},
		{
		  "duration": 0.19354799999999273,
		  "durationTicks": 240,
		  "midi": 36,
		  "name": "C2",
		  "ticks": 145680,
		  "time": 117.483636,
		  "velocity": 0.7480314960629921
		},
		{
		  "duration": 0.19354800000000694,
		  "durationTicks": 240,
		  "midi": 49,
		  "name": "C#3",
		  "ticks": 145920,
		  "time": 117.677184,
		  "velocity": 0.7480314960629921
		},
		{
		  "duration": 0.19354800000000694,
		  "durationTicks": 240,
		  "midi": 36,
		  "name": "C2",
		  "ticks": 145920,
		  "time": 117.677184,
		  "velocity": 0.7480314960629921
		},
		{
		  "duration": 0.19354799999999273,
		  "durationTicks": 240,
		  "midi": 36,
		  "name": "C2",
		  "ticks": 146160,
		  "time": 117.870732,
		  "velocity": 0.7480314960629921
		},
		{
		  "duration": 0.19354800000000694,
		  "durationTicks": 240,
		  "midi": 38,
		  "name": "D2",
		  "ticks": 146400,
		  "time": 118.06428,
		  "velocity": 0.7480314960629921
		},
		{
		  "duration": 0.19354800000000694,
		  "durationTicks": 240,
		  "midi": 38,
		  "name": "D2",
		  "ticks": 147360,
		  "time": 118.838472,
		  "velocity": 0.7480314960629921
		},
		{
		  "duration": 0.19354800000000694,
		  "durationTicks": 240,
		  "midi": 38,
		  "name": "D2",
		  "ticks": 148320,
		  "time": 119.612664,
		  "velocity": 0.7480314960629921
		},
		{
		  "duration": 0.09677399999999636,
		  "durationTicks": 120,
		  "midi": 36,
		  "name": "C2",
		  "ticks": 149040,
		  "time": 120.193308,
		  "velocity": 0.7480314960629921
		},
		{
		  "duration": 0.09677399999999636,
		  "durationTicks": 120,
		  "midi": 36,
		  "name": "C2",
		  "ticks": 149160,
		  "time": 120.290082,
		  "velocity": 0.7480314960629921
		},
		{
		  "duration": 0.19354800000000694,
		  "durationTicks": 240,
		  "midi": 38,
		  "name": "D2",
		  "ticks": 149280,
		  "time": 120.386856,
		  "velocity": 0.7480314960629921
		},
		{
		  "duration": 0.19354799999999273,
		  "durationTicks": 240,
		  "midi": 36,
		  "name": "C2",
		  "ticks": 149520,
		  "time": 120.580404,
		  "velocity": 0.7480314960629921
		},
		{
		  "duration": 0.19354800000000694,
		  "durationTicks": 240,
		  "midi": 36,
		  "name": "C2",
		  "ticks": 149760,
		  "time": 120.773952,
		  "velocity": 0.7480314960629921
		},
		{
		  "duration": 0.19354799999999273,
		  "durationTicks": 240,
		  "midi": 36,
		  "name": "C2",
		  "ticks": 150000,
		  "time": 120.9675,
		  "velocity": 0.7480314960629921
		},
		{
		  "duration": 0.19354800000000694,
		  "durationTicks": 240,
		  "midi": 38,
		  "name": "D2",
		  "ticks": 150240,
		  "time": 121.161048,
		  "velocity": 0.7480314960629921
		},
		{
		  "duration": 0.19354800000000694,
		  "durationTicks": 240,
		  "midi": 38,
		  "name": "D2",
		  "ticks": 151200,
		  "time": 121.93524,
		  "velocity": 0.7480314960629921
		},
		{
		  "duration": 0.19354800000000694,
		  "durationTicks": 240,
		  "midi": 38,
		  "name": "D2",
		  "ticks": 152160,
		  "time": 122.70943199999999,
		  "velocity": 0.7480314960629921
		},
		{
		  "duration": 0.09677399999999636,
		  "durationTicks": 120,
		  "midi": 36,
		  "name": "C2",
		  "ticks": 152400,
		  "time": 122.90298,
		  "velocity": 0.7480314960629921
		},
		{
		  "duration": 0.09677399999999636,
		  "durationTicks": 120,
		  "midi": 36,
		  "name": "C2",
		  "ticks": 152520,
		  "time": 122.999754,
		  "velocity": 0.7480314960629921
		},
		{
		  "duration": 0.19354800000000694,
		  "durationTicks": 240,
		  "midi": 36,
		  "name": "C2",
		  "ticks": 152640,
		  "time": 123.09652799999999,
		  "velocity": 0.7480314960629921
		},
		{
		  "duration": 0.09677399999999636,
		  "durationTicks": 120,
		  "midi": 53,
		  "name": "F3",
		  "ticks": 152880,
		  "time": 123.290076,
		  "velocity": 0.7480314960629921
		},
		{
		  "duration": 0.09677399999999636,
		  "durationTicks": 120,
		  "midi": 36,
		  "name": "C2",
		  "ticks": 152880,
		  "time": 123.290076,
		  "velocity": 0.7480314960629921
		},
		{
		  "duration": 0.09677399999999636,
		  "durationTicks": 120,
		  "midi": 36,
		  "name": "C2",
		  "ticks": 153000,
		  "time": 123.38685,
		  "velocity": 0.7480314960629921
		},
		{
		  "duration": 0.19354800000000694,
		  "durationTicks": 240,
		  "midi": 52,
		  "name": "E3",
		  "ticks": 153120,
		  "time": 123.48362399999999,
		  "velocity": 0.7480314960629921
		},
		{
		  "duration": 0.19354800000000694,
		  "durationTicks": 240,
		  "midi": 38,
		  "name": "D2",
		  "ticks": 153120,
		  "time": 123.48362399999999,
		  "velocity": 0.7480314960629921
		},
		{
		  "duration": 0.19354799999999273,
		  "durationTicks": 240,
		  "midi": 49,
		  "name": "C#3",
		  "ticks": 153600,
		  "time": 123.87072,
		  "velocity": 0.7480314960629921
		},
		{
		  "duration": 0.19354799999999273,
		  "durationTicks": 240,
		  "midi": 36,
		  "name": "C2",
		  "ticks": 153600,
		  "time": 123.87072,
		  "velocity": 0.7480314960629921
		},
		{
		  "duration": 0.19354800000000694,
		  "durationTicks": 240,
		  "midi": 36,
		  "name": "C2",
		  "ticks": 153840,
		  "time": 124.064268,
		  "velocity": 0.7480314960629921
		},
		{
		  "duration": 0.19354799999999273,
		  "durationTicks": 240,
		  "midi": 55,
		  "name": "G3",
		  "ticks": 154080,
		  "time": 124.257816,
		  "velocity": 0.7480314960629921
		},
		{
		  "duration": 0.19354799999999273,
		  "durationTicks": 240,
		  "midi": 38,
		  "name": "D2",
		  "ticks": 154080,
		  "time": 124.257816,
		  "velocity": 0.7480314960629921
		},
		{
		  "duration": 0.19354800000000694,
		  "durationTicks": 240,
		  "midi": 36,
		  "name": "C2",
		  "ticks": 154320,
		  "time": 124.451364,
		  "velocity": 0.7480314960629921
		},
		{
		  "duration": 0.19354799999999273,
		  "durationTicks": 240,
		  "midi": 55,
		  "name": "G3",
		  "ticks": 154560,
		  "time": 124.644912,
		  "velocity": 0.7480314960629921
		},
		{
		  "duration": 0.19354799999999273,
		  "durationTicks": 240,
		  "midi": 36,
		  "name": "C2",
		  "ticks": 154560,
		  "time": 124.644912,
		  "velocity": 0.7480314960629921
		},
		{
		  "duration": 0.19354800000000694,
		  "durationTicks": 240,
		  "midi": 36,
		  "name": "C2",
		  "ticks": 154800,
		  "time": 124.83846,
		  "velocity": 0.7480314960629921
		},
		{
		  "duration": 0.19354799999999273,
		  "durationTicks": 240,
		  "midi": 55,
		  "name": "G3",
		  "ticks": 155040,
		  "time": 125.032008,
		  "velocity": 0.7480314960629921
		},
		{
		  "duration": 0.19354799999999273,
		  "durationTicks": 240,
		  "midi": 38,
		  "name": "D2",
		  "ticks": 155040,
		  "time": 125.032008,
		  "velocity": 0.7480314960629921
		},
		{
		  "duration": 0.19354800000000694,
		  "durationTicks": 240,
		  "midi": 36,
		  "name": "C2",
		  "ticks": 155280,
		  "time": 125.225556,
		  "velocity": 0.7480314960629921
		},
		{
		  "duration": 0.19354799999999273,
		  "durationTicks": 240,
		  "midi": 55,
		  "name": "G3",
		  "ticks": 155520,
		  "time": 125.419104,
		  "velocity": 0.7480314960629921
		},
		{
		  "duration": 0.19354799999999273,
		  "durationTicks": 240,
		  "midi": 36,
		  "name": "C2",
		  "ticks": 155520,
		  "time": 125.419104,
		  "velocity": 0.7480314960629921
		},
		{
		  "duration": 0.19354800000000694,
		  "durationTicks": 240,
		  "midi": 36,
		  "name": "C2",
		  "ticks": 155760,
		  "time": 125.612652,
		  "velocity": 0.7480314960629921
		},
		{
		  "duration": 0.19354799999999273,
		  "durationTicks": 240,
		  "midi": 55,
		  "name": "G3",
		  "ticks": 156000,
		  "time": 125.8062,
		  "velocity": 0.7480314960629921
		},
		{
		  "duration": 0.19354799999999273,
		  "durationTicks": 240,
		  "midi": 38,
		  "name": "D2",
		  "ticks": 156000,
		  "time": 125.8062,
		  "velocity": 0.7480314960629921
		},
		{
		  "duration": 0.19354800000000694,
		  "durationTicks": 240,
		  "midi": 36,
		  "name": "C2",
		  "ticks": 156240,
		  "time": 125.999748,
		  "velocity": 0.7480314960629921
		},
		{
		  "duration": 0.19354799999999273,
		  "durationTicks": 240,
		  "midi": 55,
		  "name": "G3",
		  "ticks": 156480,
		  "time": 126.193296,
		  "velocity": 0.7480314960629921
		},
		{
		  "duration": 0.09677399999999636,
		  "durationTicks": 120,
		  "midi": 36,
		  "name": "C2",
		  "ticks": 156720,
		  "time": 126.386844,
		  "velocity": 0.7480314960629921
		},
		{
		  "duration": 0.09677400000001057,
		  "durationTicks": 120,
		  "midi": 36,
		  "name": "C2",
		  "ticks": 156840,
		  "time": 126.48361799999999,
		  "velocity": 0.7480314960629921
		},
		{
		  "duration": 0.19354799999999273,
		  "durationTicks": 240,
		  "midi": 55,
		  "name": "G3",
		  "ticks": 156960,
		  "time": 126.580392,
		  "velocity": 0.7480314960629921
		},
		{
		  "duration": 0.19354799999999273,
		  "durationTicks": 240,
		  "midi": 38,
		  "name": "D2",
		  "ticks": 156960,
		  "time": 126.580392,
		  "velocity": 0.7480314960629921
		},
		{
		  "duration": 0.19354800000000694,
		  "durationTicks": 240,
		  "midi": 36,
		  "name": "C2",
		  "ticks": 157200,
		  "time": 126.77394,
		  "velocity": 0.7480314960629921
		},
		{
		  "duration": 0.19354799999999273,
		  "durationTicks": 240,
		  "midi": 55,
		  "name": "G3",
		  "ticks": 157440,
		  "time": 126.967488,
		  "velocity": 0.7480314960629921
		},
		{
		  "duration": 0.19354799999999273,
		  "durationTicks": 240,
		  "midi": 36,
		  "name": "C2",
		  "ticks": 157440,
		  "time": 126.967488,
		  "velocity": 0.7480314960629921
		},
		{
		  "duration": 0.19354800000000694,
		  "durationTicks": 240,
		  "midi": 36,
		  "name": "C2",
		  "ticks": 157680,
		  "time": 127.161036,
		  "velocity": 0.7480314960629921
		},
		{
		  "duration": 0.19354799999999273,
		  "durationTicks": 240,
		  "midi": 55,
		  "name": "G3",
		  "ticks": 157920,
		  "time": 127.354584,
		  "velocity": 0.7480314960629921
		},
		{
		  "duration": 0.19354799999999273,
		  "durationTicks": 240,
		  "midi": 38,
		  "name": "D2",
		  "ticks": 157920,
		  "time": 127.354584,
		  "velocity": 0.7480314960629921
		},
		{
		  "duration": 0.19354800000000694,
		  "durationTicks": 240,
		  "midi": 36,
		  "name": "C2",
		  "ticks": 158160,
		  "time": 127.548132,
		  "velocity": 0.7480314960629921
		},
		{
		  "duration": 0.19354799999999273,
		  "durationTicks": 240,
		  "midi": 55,
		  "name": "G3",
		  "ticks": 158400,
		  "time": 127.74168,
		  "velocity": 0.7480314960629921
		},
		{
		  "duration": 0.19354799999999273,
		  "durationTicks": 240,
		  "midi": 36,
		  "name": "C2",
		  "ticks": 158400,
		  "time": 127.74168,
		  "velocity": 0.7480314960629921
		},
		{
		  "duration": 0.19354799999999273,
		  "durationTicks": 240,
		  "midi": 36,
		  "name": "C2",
		  "ticks": 158640,
		  "time": 127.935228,
		  "velocity": 0.7480314960629921
		},
		{
		  "duration": 0.19354800000002115,
		  "durationTicks": 240,
		  "midi": 55,
		  "name": "G3",
		  "ticks": 158880,
		  "time": 128.128776,
		  "velocity": 0.7480314960629921
		},
		{
		  "duration": 0.19354800000002115,
		  "durationTicks": 240,
		  "midi": 38,
		  "name": "D2",
		  "ticks": 158880,
		  "time": 128.128776,
		  "velocity": 0.7480314960629921
		},
		{
		  "duration": 0.19354799999999273,
		  "durationTicks": 240,
		  "midi": 36,
		  "name": "C2",
		  "ticks": 159120,
		  "time": 128.322324,
		  "velocity": 0.7480314960629921
		},
		{
		  "duration": 0.38709599999998545,
		  "durationTicks": 480,
		  "midi": 57,
		  "name": "A3",
		  "ticks": 159360,
		  "time": 128.515872,
		  "velocity": 0.7480314960629921
		},
		{
		  "duration": 0.38709599999998545,
		  "durationTicks": 480,
		  "midi": 36,
		  "name": "C2",
		  "ticks": 159360,
		  "time": 128.515872,
		  "velocity": 0.7480314960629921
		},
		{
		  "duration": 0.3870960000000139,
		  "durationTicks": 480,
		  "midi": 57,
		  "name": "A3",
		  "ticks": 159840,
		  "time": 128.902968,
		  "velocity": 0.7480314960629921
		},
		{
		  "duration": 0.3870960000000139,
		  "durationTicks": 480,
		  "midi": 36,
		  "name": "C2",
		  "ticks": 159840,
		  "time": 128.902968,
		  "velocity": 0.7480314960629921
		},
		{
		  "duration": 0.38709599999998545,
		  "durationTicks": 480,
		  "midi": 57,
		  "name": "A3",
		  "ticks": 160320,
		  "time": 129.290064,
		  "velocity": 0.7480314960629921
		},
		{
		  "duration": 0.38709599999998545,
		  "durationTicks": 480,
		  "midi": 36,
		  "name": "C2",
		  "ticks": 160320,
		  "time": 129.290064,
		  "velocity": 0.7480314960629921
		},
		{
		  "duration": 0.3870960000000139,
		  "durationTicks": 480,
		  "midi": 57,
		  "name": "A3",
		  "ticks": 160800,
		  "time": 129.67716,
		  "velocity": 0.7480314960629921
		},
		{
		  "duration": 0.3870960000000139,
		  "durationTicks": 480,
		  "midi": 36,
		  "name": "C2",
		  "ticks": 160800,
		  "time": 129.67716,
		  "velocity": 0.7480314960629921
		},
		{
		  "duration": 0.19354799999999273,
		  "durationTicks": 240,
		  "midi": 57,
		  "name": "A3",
		  "ticks": 161520,
		  "time": 130.257804,
		  "velocity": 0.7480314960629921
		},
		{
		  "duration": 0.19354799999999273,
		  "durationTicks": 240,
		  "midi": 36,
		  "name": "C2",
		  "ticks": 161520,
		  "time": 130.257804,
		  "velocity": 0.7480314960629921
		},
		{
		  "duration": 0.19354800000002115,
		  "durationTicks": 240,
		  "midi": 36,
		  "name": "C2",
		  "ticks": 161760,
		  "time": 130.45135199999999,
		  "velocity": 0.7480314960629921
		},
		{
		  "duration": 0.19354799999999273,
		  "durationTicks": 240,
		  "midi": 52,
		  "name": "E3",
		  "ticks": 162000,
		  "time": 130.6449,
		  "velocity": 0.7480314960629921
		},
		{
		  "duration": 0.19354799999999273,
		  "durationTicks": 240,
		  "midi": 38,
		  "name": "D2",
		  "ticks": 162000,
		  "time": 130.6449,
		  "velocity": 0.7480314960629921
		},
		{
		  "duration": 0.12903199999999515,
		  "durationTicks": 160,
		  "midi": 47,
		  "name": "B2",
		  "ticks": 162240,
		  "time": 130.838448,
		  "velocity": 0.7480314960629921
		},
		{
		  "duration": 0.12903199999999515,
		  "durationTicks": 160,
		  "midi": 36,
		  "name": "C2",
		  "ticks": 162240,
		  "time": 130.838448,
		  "velocity": 0.7480314960629921
		},
		{
		  "duration": 0.12903200000002357,
		  "durationTicks": 160,
		  "midi": 45,
		  "name": "A2",
		  "ticks": 162400,
		  "time": 130.96748,
		  "velocity": 0.7480314960629921
		},
		{
		  "duration": 0.12903200000002357,
		  "durationTicks": 160,
		  "midi": 36,
		  "name": "C2",
		  "ticks": 162400,
		  "time": 130.96748,
		  "velocity": 0.7480314960629921
		},
		{
		  "duration": 0.12903199999996673,
		  "durationTicks": 160,
		  "midi": 43,
		  "name": "G2",
		  "ticks": 162560,
		  "time": 131.09651200000002,
		  "velocity": 0.7480314960629921
		},
		{
		  "duration": 0.12903199999996673,
		  "durationTicks": 160,
		  "midi": 36,
		  "name": "C2",
		  "ticks": 162560,
		  "time": 131.09651200000002,
		  "velocity": 0.7480314960629921
		},
		{
		  "duration": 0.3870960000000139,
		  "durationTicks": 480,
		  "midi": 52,
		  "name": "E3",
		  "ticks": 162720,
		  "time": 131.22554399999999,
		  "velocity": 0.7480314960629921
		},
		{
		  "duration": 0.3870960000000139,
		  "durationTicks": 480,
		  "midi": 38,
		  "name": "D2",
		  "ticks": 162720,
		  "time": 131.22554399999999,
		  "velocity": 0.7480314960629921
		},
		{
		  "duration": 0.19354799999999273,
		  "durationTicks": 240,
		  "midi": 49,
		  "name": "C#3",
		  "ticks": 163200,
		  "time": 131.61264,
		  "velocity": 0.7480314960629921
		},
		{
		  "duration": 0.19354799999999273,
		  "durationTicks": 240,
		  "midi": 36,
		  "name": "C2",
		  "ticks": 163200,
		  "time": 131.61264,
		  "velocity": 0.7480314960629921
		},
		{
		  "duration": 0.19354799999999273,
		  "durationTicks": 240,
		  "midi": 36,
		  "name": "C2",
		  "ticks": 163440,
		  "time": 131.806188,
		  "velocity": 0.7480314960629921
		},
		{
		  "duration": 0.19354800000002115,
		  "durationTicks": 240,
		  "midi": 55,
		  "name": "G3",
		  "ticks": 163680,
		  "time": 131.99973599999998,
		  "velocity": 0.7480314960629921
		},
		{
		  "duration": 0.19354800000002115,
		  "durationTicks": 240,
		  "midi": 38,
		  "name": "D2",
		  "ticks": 163680,
		  "time": 131.99973599999998,
		  "velocity": 0.7480314960629921
		},
		{
		  "duration": 0.19354799999999273,
		  "durationTicks": 240,
		  "midi": 55,
		  "name": "G3",
		  "ticks": 164160,
		  "time": 132.386832,
		  "velocity": 0.7480314960629921
		},
		{
		  "duration": 0.19354799999999273,
		  "durationTicks": 240,
		  "midi": 36,
		  "name": "C2",
		  "ticks": 164160,
		  "time": 132.386832,
		  "velocity": 0.7480314960629921
		},
		{
		  "duration": 0.19354800000002115,
		  "durationTicks": 240,
		  "midi": 36,
		  "name": "C2",
		  "ticks": 164400,
		  "time": 132.58038,
		  "velocity": 0.7480314960629921
		},
		{
		  "duration": 0.19354799999999273,
		  "durationTicks": 240,
		  "midi": 55,
		  "name": "G3",
		  "ticks": 164640,
		  "time": 132.773928,
		  "velocity": 0.7480314960629921
		},
		{
		  "duration": 0.19354799999999273,
		  "durationTicks": 240,
		  "midi": 38,
		  "name": "D2",
		  "ticks": 164640,
		  "time": 132.773928,
		  "velocity": 0.7480314960629921
		},
		{
		  "duration": 0.19354799999999273,
		  "durationTicks": 240,
		  "midi": 55,
		  "name": "G3",
		  "ticks": 165120,
		  "time": 133.161024,
		  "velocity": 0.7480314960629921
		},
		{
		  "duration": 0.19354799999999273,
		  "durationTicks": 240,
		  "midi": 36,
		  "name": "C2",
		  "ticks": 165120,
		  "time": 133.161024,
		  "velocity": 0.7480314960629921
		},
		{
		  "duration": 0.19354800000002115,
		  "durationTicks": 240,
		  "midi": 36,
		  "name": "C2",
		  "ticks": 165360,
		  "time": 133.354572,
		  "velocity": 0.7480314960629921
		},
		{
		  "duration": 0.19354799999999273,
		  "durationTicks": 240,
		  "midi": 55,
		  "name": "G3",
		  "ticks": 165600,
		  "time": 133.54812,
		  "velocity": 0.7480314960629921
		},
		{
		  "duration": 0.19354799999999273,
		  "durationTicks": 240,
		  "midi": 38,
		  "name": "D2",
		  "ticks": 165600,
		  "time": 133.54812,
		  "velocity": 0.7480314960629921
		},
		{
		  "duration": 0.19354799999999273,
		  "durationTicks": 240,
		  "midi": 55,
		  "name": "G3",
		  "ticks": 166080,
		  "time": 133.935216,
		  "velocity": 0.7480314960629921
		},
		{
		  "duration": 0.19354799999999273,
		  "durationTicks": 240,
		  "midi": 36,
		  "name": "C2",
		  "ticks": 166080,
		  "time": 133.935216,
		  "velocity": 0.7480314960629921
		},
		{
		  "duration": 0.19354800000002115,
		  "durationTicks": 240,
		  "midi": 36,
		  "name": "C2",
		  "ticks": 166320,
		  "time": 134.128764,
		  "velocity": 0.7480314960629921
		},
		{
		  "duration": 0.19354799999999273,
		  "durationTicks": 240,
		  "midi": 55,
		  "name": "G3",
		  "ticks": 166560,
		  "time": 134.322312,
		  "velocity": 0.7480314960629921
		},
		{
		  "duration": 0.19354799999999273,
		  "durationTicks": 240,
		  "midi": 38,
		  "name": "D2",
		  "ticks": 166560,
		  "time": 134.322312,
		  "velocity": 0.7480314960629921
		},
		{
		  "duration": 0.19354799999999273,
		  "durationTicks": 240,
		  "midi": 36,
		  "name": "C2",
		  "ticks": 166800,
		  "time": 134.51586,
		  "velocity": 0.7480314960629921
		},
		{
		  "duration": 0.19354799999999273,
		  "durationTicks": 240,
		  "midi": 55,
		  "name": "G3",
		  "ticks": 167040,
		  "time": 134.709408,
		  "velocity": 0.7480314960629921
		},
		{
		  "duration": 0.19354799999999273,
		  "durationTicks": 240,
		  "midi": 36,
		  "name": "C2",
		  "ticks": 167040,
		  "time": 134.709408,
		  "velocity": 0.7480314960629921
		},
		{
		  "duration": 0.19354800000002115,
		  "durationTicks": 240,
		  "midi": 36,
		  "name": "C2",
		  "ticks": 167280,
		  "time": 134.902956,
		  "velocity": 0.7480314960629921
		},
		{
		  "duration": 0.19354799999999273,
		  "durationTicks": 240,
		  "midi": 55,
		  "name": "G3",
		  "ticks": 167520,
		  "time": 135.096504,
		  "velocity": 0.7480314960629921
		},
		{
		  "duration": 0.19354799999999273,
		  "durationTicks": 240,
		  "midi": 38,
		  "name": "D2",
		  "ticks": 167520,
		  "time": 135.096504,
		  "velocity": 0.7480314960629921
		},
		{
		  "duration": 0.19354799999999273,
		  "durationTicks": 240,
		  "midi": 55,
		  "name": "G3",
		  "ticks": 168000,
		  "time": 135.4836,
		  "velocity": 0.7480314960629921
		},
		{
		  "duration": 0.19354799999999273,
		  "durationTicks": 240,
		  "midi": 36,
		  "name": "C2",
		  "ticks": 168000,
		  "time": 135.4836,
		  "velocity": 0.7480314960629921
		},
		{
		  "duration": 0.19354800000002115,
		  "durationTicks": 240,
		  "midi": 36,
		  "name": "C2",
		  "ticks": 168240,
		  "time": 135.677148,
		  "velocity": 0.7480314960629921
		},
		{
		  "duration": 0.19354799999999273,
		  "durationTicks": 240,
		  "midi": 55,
		  "name": "G3",
		  "ticks": 168480,
		  "time": 135.870696,
		  "velocity": 0.7480314960629921
		},
		{
		  "duration": 0.19354799999999273,
		  "durationTicks": 240,
		  "midi": 38,
		  "name": "D2",
		  "ticks": 168480,
		  "time": 135.870696,
		  "velocity": 0.7480314960629921
		},
		{
		  "duration": 0.19354799999999273,
		  "durationTicks": 240,
		  "midi": 55,
		  "name": "G3",
		  "ticks": 168960,
		  "time": 136.257792,
		  "velocity": 0.7480314960629921
		},
		{
		  "duration": 0.19354799999999273,
		  "durationTicks": 240,
		  "midi": 36,
		  "name": "C2",
		  "ticks": 168960,
		  "time": 136.257792,
		  "velocity": 0.7480314960629921
		},
		{
		  "duration": 0.19354800000002115,
		  "durationTicks": 240,
		  "midi": 36,
		  "name": "C2",
		  "ticks": 169200,
		  "time": 136.45134,
		  "velocity": 0.7480314960629921
		},
		{
		  "duration": 0.19354799999999273,
		  "durationTicks": 240,
		  "midi": 55,
		  "name": "G3",
		  "ticks": 169440,
		  "time": 136.644888,
		  "velocity": 0.7480314960629921
		},
		{
		  "duration": 0.19354799999999273,
		  "durationTicks": 240,
		  "midi": 38,
		  "name": "D2",
		  "ticks": 169440,
		  "time": 136.644888,
		  "velocity": 0.7480314960629921
		},
		{
		  "duration": 0.19354799999999273,
		  "durationTicks": 240,
		  "midi": 55,
		  "name": "G3",
		  "ticks": 169920,
		  "time": 137.031984,
		  "velocity": 0.7480314960629921
		},
		{
		  "duration": 0.19354799999999273,
		  "durationTicks": 240,
		  "midi": 36,
		  "name": "C2",
		  "ticks": 169920,
		  "time": 137.031984,
		  "velocity": 0.7480314960629921
		},
		{
		  "duration": 0.19354800000002115,
		  "durationTicks": 240,
		  "midi": 36,
		  "name": "C2",
		  "ticks": 170160,
		  "time": 137.225532,
		  "velocity": 0.7480314960629921
		},
		{
		  "duration": 0.19354799999999273,
		  "durationTicks": 240,
		  "midi": 55,
		  "name": "G3",
		  "ticks": 170400,
		  "time": 137.41908,
		  "velocity": 0.7480314960629921
		},
		{
		  "duration": 0.19354799999999273,
		  "durationTicks": 240,
		  "midi": 38,
		  "name": "D2",
		  "ticks": 170400,
		  "time": 137.41908,
		  "velocity": 0.7480314960629921
		},
		{
		  "duration": 0.19354799999999273,
		  "durationTicks": 240,
		  "midi": 36,
		  "name": "C2",
		  "ticks": 170640,
		  "time": 137.612628,
		  "velocity": 0.7480314960629921
		},
		{
		  "duration": 0.19354799999999273,
		  "durationTicks": 240,
		  "midi": 55,
		  "name": "G3",
		  "ticks": 170880,
		  "time": 137.806176,
		  "velocity": 0.7480314960629921
		},
		{
		  "duration": 0.19354799999999273,
		  "durationTicks": 240,
		  "midi": 36,
		  "name": "C2",
		  "ticks": 170880,
		  "time": 137.806176,
		  "velocity": 0.7480314960629921
		},
		{
		  "duration": 0.19354800000002115,
		  "durationTicks": 240,
		  "midi": 36,
		  "name": "C2",
		  "ticks": 171120,
		  "time": 137.999724,
		  "velocity": 0.7480314960629921
		},
		{
		  "duration": 0.19354799999999273,
		  "durationTicks": 240,
		  "midi": 55,
		  "name": "G3",
		  "ticks": 171360,
		  "time": 138.193272,
		  "velocity": 0.7480314960629921
		},
		{
		  "duration": 0.19354799999999273,
		  "durationTicks": 240,
		  "midi": 38,
		  "name": "D2",
		  "ticks": 171360,
		  "time": 138.193272,
		  "velocity": 0.7480314960629921
		},
		{
		  "duration": 0.19354799999999273,
		  "durationTicks": 240,
		  "midi": 55,
		  "name": "G3",
		  "ticks": 171840,
		  "time": 138.580368,
		  "velocity": 0.7480314960629921
		},
		{
		  "duration": 0.19354799999999273,
		  "durationTicks": 240,
		  "midi": 36,
		  "name": "C2",
		  "ticks": 171840,
		  "time": 138.580368,
		  "velocity": 0.7480314960629921
		},
		{
		  "duration": 0.19354800000002115,
		  "durationTicks": 240,
		  "midi": 36,
		  "name": "C2",
		  "ticks": 172080,
		  "time": 138.77391599999999,
		  "velocity": 0.7480314960629921
		},
		{
		  "duration": 0.19354799999999273,
		  "durationTicks": 240,
		  "midi": 55,
		  "name": "G3",
		  "ticks": 172320,
		  "time": 138.967464,
		  "velocity": 0.7480314960629921
		},
		{
		  "duration": 0.19354799999999273,
		  "durationTicks": 240,
		  "midi": 38,
		  "name": "D2",
		  "ticks": 172320,
		  "time": 138.967464,
		  "velocity": 0.7480314960629921
		},
		{
		  "duration": 0.19354799999999273,
		  "durationTicks": 240,
		  "midi": 55,
		  "name": "G3",
		  "ticks": 172800,
		  "time": 139.35456,
		  "velocity": 0.7480314960629921
		},
		{
		  "duration": 0.19354799999999273,
		  "durationTicks": 240,
		  "midi": 36,
		  "name": "C2",
		  "ticks": 172800,
		  "time": 139.35456,
		  "velocity": 0.7480314960629921
		},
		{
		  "duration": 0.19354800000002115,
		  "durationTicks": 240,
		  "midi": 36,
		  "name": "C2",
		  "ticks": 173040,
		  "time": 139.54810799999998,
		  "velocity": 0.7480314960629921
		},
		{
		  "duration": 0.19354799999999273,
		  "durationTicks": 240,
		  "midi": 55,
		  "name": "G3",
		  "ticks": 173280,
		  "time": 139.741656,
		  "velocity": 0.7480314960629921
		},
		{
		  "duration": 0.19354799999999273,
		  "durationTicks": 240,
		  "midi": 38,
		  "name": "D2",
		  "ticks": 173280,
		  "time": 139.741656,
		  "velocity": 0.7480314960629921
		},
		{
		  "duration": 0.19354799999999273,
		  "durationTicks": 240,
		  "midi": 55,
		  "name": "G3",
		  "ticks": 173760,
		  "time": 140.128752,
		  "velocity": 0.7480314960629921
		},
		{
		  "duration": 0.19354799999999273,
		  "durationTicks": 240,
		  "midi": 36,
		  "name": "C2",
		  "ticks": 173760,
		  "time": 140.128752,
		  "velocity": 0.7480314960629921
		},
		{
		  "duration": 0.19354800000002115,
		  "durationTicks": 240,
		  "midi": 36,
		  "name": "C2",
		  "ticks": 174000,
		  "time": 140.32229999999998,
		  "velocity": 0.7480314960629921
		},
		{
		  "duration": 0.19354799999999273,
		  "durationTicks": 240,
		  "midi": 55,
		  "name": "G3",
		  "ticks": 174240,
		  "time": 140.515848,
		  "velocity": 0.7480314960629921
		},
		{
		  "duration": 0.19354799999999273,
		  "durationTicks": 240,
		  "midi": 38,
		  "name": "D2",
		  "ticks": 174240,
		  "time": 140.515848,
		  "velocity": 0.7480314960629921
		},
		{
		  "duration": 0.19354799999999273,
		  "durationTicks": 240,
		  "midi": 36,
		  "name": "C2",
		  "ticks": 174480,
		  "time": 140.709396,
		  "velocity": 0.7480314960629921
		},
		{
		  "duration": 0.19354800000002115,
		  "durationTicks": 240,
		  "midi": 55,
		  "name": "G3",
		  "ticks": 174720,
		  "time": 140.902944,
		  "velocity": 0.7480314960629921
		},
		{
		  "duration": 0.19354800000002115,
		  "durationTicks": 240,
		  "midi": 36,
		  "name": "C2",
		  "ticks": 174720,
		  "time": 140.902944,
		  "velocity": 0.7480314960629921
		},
		{
		  "duration": 0.19354799999999273,
		  "durationTicks": 240,
		  "midi": 36,
		  "name": "C2",
		  "ticks": 174960,
		  "time": 141.096492,
		  "velocity": 0.7480314960629921
		},
		{
		  "duration": 0.19354799999999273,
		  "durationTicks": 240,
		  "midi": 55,
		  "name": "G3",
		  "ticks": 175200,
		  "time": 141.29004,
		  "velocity": 0.7480314960629921
		},
		{
		  "duration": 0.19354799999999273,
		  "durationTicks": 240,
		  "midi": 38,
		  "name": "D2",
		  "ticks": 175200,
		  "time": 141.29004,
		  "velocity": 0.7480314960629921
		},
		{
		  "duration": 0.19354800000002115,
		  "durationTicks": 240,
		  "midi": 55,
		  "name": "G3",
		  "ticks": 175680,
		  "time": 141.677136,
		  "velocity": 0.7480314960629921
		},
		{
		  "duration": 0.19354800000002115,
		  "durationTicks": 240,
		  "midi": 36,
		  "name": "C2",
		  "ticks": 175680,
		  "time": 141.677136,
		  "velocity": 0.7480314960629921
		},
		{
		  "duration": 0.19354799999999273,
		  "durationTicks": 240,
		  "midi": 36,
		  "name": "C2",
		  "ticks": 175920,
		  "time": 141.870684,
		  "velocity": 0.7480314960629921
		},
		{
		  "duration": 0.19354799999999273,
		  "durationTicks": 240,
		  "midi": 55,
		  "name": "G3",
		  "ticks": 176160,
		  "time": 142.064232,
		  "velocity": 0.7480314960629921
		},
		{
		  "duration": 0.19354799999999273,
		  "durationTicks": 240,
		  "midi": 38,
		  "name": "D2",
		  "ticks": 176160,
		  "time": 142.064232,
		  "velocity": 0.7480314960629921
		},
		{
		  "duration": 0.19354800000002115,
		  "durationTicks": 240,
		  "midi": 55,
		  "name": "G3",
		  "ticks": 176640,
		  "time": 142.451328,
		  "velocity": 0.7480314960629921
		},
		{
		  "duration": 0.19354800000002115,
		  "durationTicks": 240,
		  "midi": 36,
		  "name": "C2",
		  "ticks": 176640,
		  "time": 142.451328,
		  "velocity": 0.7480314960629921
		},
		{
		  "duration": 0.19354799999999273,
		  "durationTicks": 240,
		  "midi": 36,
		  "name": "C2",
		  "ticks": 176880,
		  "time": 142.644876,
		  "velocity": 0.7480314960629921
		},
		{
		  "duration": 0.19354799999999273,
		  "durationTicks": 240,
		  "midi": 55,
		  "name": "G3",
		  "ticks": 177120,
		  "time": 142.838424,
		  "velocity": 0.7480314960629921
		},
		{
		  "duration": 0.19354799999999273,
		  "durationTicks": 240,
		  "midi": 38,
		  "name": "D2",
		  "ticks": 177120,
		  "time": 142.838424,
		  "velocity": 0.7480314960629921
		},
		{
		  "duration": 0.19354800000002115,
		  "durationTicks": 240,
		  "midi": 55,
		  "name": "G3",
		  "ticks": 177600,
		  "time": 143.22552,
		  "velocity": 0.7480314960629921
		},
		{
		  "duration": 0.19354800000002115,
		  "durationTicks": 240,
		  "midi": 36,
		  "name": "C2",
		  "ticks": 177600,
		  "time": 143.22552,
		  "velocity": 0.7480314960629921
		},
		{
		  "duration": 0.19354799999999273,
		  "durationTicks": 240,
		  "midi": 36,
		  "name": "C2",
		  "ticks": 177840,
		  "time": 143.419068,
		  "velocity": 0.7480314960629921
		},
		{
		  "duration": 0.19354799999999273,
		  "durationTicks": 240,
		  "midi": 55,
		  "name": "G3",
		  "ticks": 178080,
		  "time": 143.612616,
		  "velocity": 0.7480314960629921
		},
		{
		  "duration": 0.19354799999999273,
		  "durationTicks": 240,
		  "midi": 38,
		  "name": "D2",
		  "ticks": 178080,
		  "time": 143.612616,
		  "velocity": 0.7480314960629921
		},
		{
		  "duration": 0.19354799999999273,
		  "durationTicks": 240,
		  "midi": 36,
		  "name": "C2",
		  "ticks": 178320,
		  "time": 143.806164,
		  "velocity": 0.7480314960629921
		},
		{
		  "duration": 0.19354800000002115,
		  "durationTicks": 240,
		  "midi": 55,
		  "name": "G3",
		  "ticks": 178560,
		  "time": 143.999712,
		  "velocity": 0.7480314960629921
		},
		{
		  "duration": 0.19354800000002115,
		  "durationTicks": 240,
		  "midi": 36,
		  "name": "C2",
		  "ticks": 178560,
		  "time": 143.999712,
		  "velocity": 0.7480314960629921
		},
		{
		  "duration": 0.19354799999999273,
		  "durationTicks": 240,
		  "midi": 36,
		  "name": "C2",
		  "ticks": 178800,
		  "time": 144.19326,
		  "velocity": 0.7480314960629921
		},
		{
		  "duration": 0.19354799999999273,
		  "durationTicks": 240,
		  "midi": 55,
		  "name": "G3",
		  "ticks": 179040,
		  "time": 144.386808,
		  "velocity": 0.7480314960629921
		},
		{
		  "duration": 0.19354799999999273,
		  "durationTicks": 240,
		  "midi": 38,
		  "name": "D2",
		  "ticks": 179040,
		  "time": 144.386808,
		  "velocity": 0.7480314960629921
		},
		{
		  "duration": 0.19354800000002115,
		  "durationTicks": 240,
		  "midi": 55,
		  "name": "G3",
		  "ticks": 179520,
		  "time": 144.773904,
		  "velocity": 0.7480314960629921
		},
		{
		  "duration": 0.19354800000002115,
		  "durationTicks": 240,
		  "midi": 36,
		  "name": "C2",
		  "ticks": 179520,
		  "time": 144.773904,
		  "velocity": 0.7480314960629921
		},
		{
		  "duration": 0.19354799999999273,
		  "durationTicks": 240,
		  "midi": 36,
		  "name": "C2",
		  "ticks": 179760,
		  "time": 144.967452,
		  "velocity": 0.7480314960629921
		},
		{
		  "duration": 0.19354799999999273,
		  "durationTicks": 240,
		  "midi": 55,
		  "name": "G3",
		  "ticks": 180000,
		  "time": 145.161,
		  "velocity": 0.7480314960629921
		},
		{
		  "duration": 0.19354799999999273,
		  "durationTicks": 240,
		  "midi": 38,
		  "name": "D2",
		  "ticks": 180000,
		  "time": 145.161,
		  "velocity": 0.7480314960629921
		},
		{
		  "duration": 0.19354800000002115,
		  "durationTicks": 240,
		  "midi": 55,
		  "name": "G3",
		  "ticks": 180480,
		  "time": 145.548096,
		  "velocity": 0.7480314960629921
		},
		{
		  "duration": 0.19354800000002115,
		  "durationTicks": 240,
		  "midi": 36,
		  "name": "C2",
		  "ticks": 180480,
		  "time": 145.548096,
		  "velocity": 0.7480314960629921
		},
		{
		  "duration": 0.19354799999999273,
		  "durationTicks": 240,
		  "midi": 36,
		  "name": "C2",
		  "ticks": 180720,
		  "time": 145.741644,
		  "velocity": 0.7480314960629921
		},
		{
		  "duration": 0.19354799999999273,
		  "durationTicks": 240,
		  "midi": 55,
		  "name": "G3",
		  "ticks": 180960,
		  "time": 145.935192,
		  "velocity": 0.7480314960629921
		},
		{
		  "duration": 0.19354799999999273,
		  "durationTicks": 240,
		  "midi": 38,
		  "name": "D2",
		  "ticks": 180960,
		  "time": 145.935192,
		  "velocity": 0.7480314960629921
		},
		{
		  "duration": 0.19354800000002115,
		  "durationTicks": 240,
		  "midi": 55,
		  "name": "G3",
		  "ticks": 181440,
		  "time": 146.322288,
		  "velocity": 0.7480314960629921
		},
		{
		  "duration": 0.19354800000002115,
		  "durationTicks": 240,
		  "midi": 36,
		  "name": "C2",
		  "ticks": 181440,
		  "time": 146.322288,
		  "velocity": 0.7480314960629921
		},
		{
		  "duration": 0.19354799999999273,
		  "durationTicks": 240,
		  "midi": 36,
		  "name": "C2",
		  "ticks": 181680,
		  "time": 146.515836,
		  "velocity": 0.7480314960629921
		},
		{
		  "duration": 0.19354799999999273,
		  "durationTicks": 240,
		  "midi": 55,
		  "name": "G3",
		  "ticks": 181920,
		  "time": 146.709384,
		  "velocity": 0.7480314960629921
		},
		{
		  "duration": 0.19354799999999273,
		  "durationTicks": 240,
		  "midi": 38,
		  "name": "D2",
		  "ticks": 181920,
		  "time": 146.709384,
		  "velocity": 0.7480314960629921
		},
		{
		  "duration": 0.19354799999999273,
		  "durationTicks": 240,
		  "midi": 36,
		  "name": "C2",
		  "ticks": 182160,
		  "time": 146.902932,
		  "velocity": 0.7480314960629921
		},
		{
		  "duration": 0.19354800000002115,
		  "durationTicks": 240,
		  "midi": 55,
		  "name": "G3",
		  "ticks": 182400,
		  "time": 147.09647999999999,
		  "velocity": 0.7480314960629921
		},
		{
		  "duration": 0.19354800000002115,
		  "durationTicks": 240,
		  "midi": 36,
		  "name": "C2",
		  "ticks": 182400,
		  "time": 147.09647999999999,
		  "velocity": 0.7480314960629921
		},
		{
		  "duration": 0.19354799999999273,
		  "durationTicks": 240,
		  "midi": 36,
		  "name": "C2",
		  "ticks": 182640,
		  "time": 147.290028,
		  "velocity": 0.7480314960629921
		},
		{
		  "duration": 0.19354799999999273,
		  "durationTicks": 240,
		  "midi": 55,
		  "name": "G3",
		  "ticks": 182880,
		  "time": 147.483576,
		  "velocity": 0.7480314960629921
		},
		{
		  "duration": 0.19354799999999273,
		  "durationTicks": 240,
		  "midi": 38,
		  "name": "D2",
		  "ticks": 182880,
		  "time": 147.483576,
		  "velocity": 0.7480314960629921
		},
		{
		  "duration": 0.19354800000002115,
		  "durationTicks": 240,
		  "midi": 55,
		  "name": "G3",
		  "ticks": 183360,
		  "time": 147.87067199999998,
		  "velocity": 0.7480314960629921
		},
		{
		  "duration": 0.19354800000002115,
		  "durationTicks": 240,
		  "midi": 36,
		  "name": "C2",
		  "ticks": 183360,
		  "time": 147.87067199999998,
		  "velocity": 0.7480314960629921
		},
		{
		  "duration": 0.19354799999999273,
		  "durationTicks": 240,
		  "midi": 36,
		  "name": "C2",
		  "ticks": 183600,
		  "time": 148.06422,
		  "velocity": 0.7480314960629921
		},
		{
		  "duration": 0.19354799999999273,
		  "durationTicks": 240,
		  "midi": 55,
		  "name": "G3",
		  "ticks": 183840,
		  "time": 148.257768,
		  "velocity": 0.7480314960629921
		},
		{
		  "duration": 0.19354799999999273,
		  "durationTicks": 240,
		  "midi": 38,
		  "name": "D2",
		  "ticks": 183840,
		  "time": 148.257768,
		  "velocity": 0.7480314960629921
		},
		{
		  "duration": 0.19354800000002115,
		  "durationTicks": 240,
		  "midi": 55,
		  "name": "G3",
		  "ticks": 184320,
		  "time": 148.64486399999998,
		  "velocity": 0.7480314960629921
		},
		{
		  "duration": 0.19354800000002115,
		  "durationTicks": 240,
		  "midi": 36,
		  "name": "C2",
		  "ticks": 184320,
		  "time": 148.64486399999998,
		  "velocity": 0.7480314960629921
		},
		{
		  "duration": 0.19354799999999273,
		  "durationTicks": 240,
		  "midi": 36,
		  "name": "C2",
		  "ticks": 184560,
		  "time": 148.838412,
		  "velocity": 0.7480314960629921
		},
		{
		  "duration": 0.19354799999999273,
		  "durationTicks": 240,
		  "midi": 55,
		  "name": "G3",
		  "ticks": 184800,
		  "time": 149.03196,
		  "velocity": 0.7480314960629921
		},
		{
		  "duration": 0.19354799999999273,
		  "durationTicks": 240,
		  "midi": 38,
		  "name": "D2",
		  "ticks": 184800,
		  "time": 149.03196,
		  "velocity": 0.7480314960629921
		},
		{
		  "duration": 0.19354799999999273,
		  "durationTicks": 240,
		  "midi": 55,
		  "name": "G3",
		  "ticks": 185280,
		  "time": 149.419056,
		  "velocity": 0.7480314960629921
		},
		{
		  "duration": 0.19354799999999273,
		  "durationTicks": 240,
		  "midi": 36,
		  "name": "C2",
		  "ticks": 185280,
		  "time": 149.419056,
		  "velocity": 0.7480314960629921
		},
		{
		  "duration": 0.19354799999999273,
		  "durationTicks": 240,
		  "midi": 36,
		  "name": "C2",
		  "ticks": 185520,
		  "time": 149.612604,
		  "velocity": 0.7480314960629921
		},
		{
		  "duration": 0.19354799999999273,
		  "durationTicks": 240,
		  "midi": 55,
		  "name": "G3",
		  "ticks": 185760,
		  "time": 149.806152,
		  "velocity": 0.7480314960629921
		},
		{
		  "duration": 0.19354799999999273,
		  "durationTicks": 240,
		  "midi": 38,
		  "name": "D2",
		  "ticks": 185760,
		  "time": 149.806152,
		  "velocity": 0.7480314960629921
		},
		{
		  "duration": 0.19354800000002115,
		  "durationTicks": 240,
		  "midi": 36,
		  "name": "C2",
		  "ticks": 186000,
		  "time": 149.9997,
		  "velocity": 0.7480314960629921
		},
		{
		  "duration": 0.19354799999999273,
		  "durationTicks": 240,
		  "midi": 55,
		  "name": "G3",
		  "ticks": 186240,
		  "time": 150.193248,
		  "velocity": 0.7480314960629921
		},
		{
		  "duration": 0.19354799999999273,
		  "durationTicks": 240,
		  "midi": 36,
		  "name": "C2",
		  "ticks": 186240,
		  "time": 150.193248,
		  "velocity": 0.7480314960629921
		},
		{
		  "duration": 0.19354799999999273,
		  "durationTicks": 240,
		  "midi": 36,
		  "name": "C2",
		  "ticks": 186480,
		  "time": 150.386796,
		  "velocity": 0.7480314960629921
		},
		{
		  "duration": 0.19354799999999273,
		  "durationTicks": 240,
		  "midi": 55,
		  "name": "G3",
		  "ticks": 186720,
		  "time": 150.580344,
		  "velocity": 0.7480314960629921
		},
		{
		  "duration": 0.19354799999999273,
		  "durationTicks": 240,
		  "midi": 38,
		  "name": "D2",
		  "ticks": 186720,
		  "time": 150.580344,
		  "velocity": 0.7480314960629921
		},
		{
		  "duration": 0.19354799999999273,
		  "durationTicks": 240,
		  "midi": 55,
		  "name": "G3",
		  "ticks": 187200,
		  "time": 150.96744,
		  "velocity": 0.7480314960629921
		},
		{
		  "duration": 0.19354799999999273,
		  "durationTicks": 240,
		  "midi": 36,
		  "name": "C2",
		  "ticks": 187200,
		  "time": 150.96744,
		  "velocity": 0.7480314960629921
		},
		{
		  "duration": 0.19354799999999273,
		  "durationTicks": 240,
		  "midi": 36,
		  "name": "C2",
		  "ticks": 187440,
		  "time": 151.160988,
		  "velocity": 0.7480314960629921
		},
		{
		  "duration": 0.19354799999999273,
		  "durationTicks": 240,
		  "midi": 55,
		  "name": "G3",
		  "ticks": 187680,
		  "time": 151.354536,
		  "velocity": 0.7480314960629921
		},
		{
		  "duration": 0.19354799999999273,
		  "durationTicks": 240,
		  "midi": 38,
		  "name": "D2",
		  "ticks": 187680,
		  "time": 151.354536,
		  "velocity": 0.7480314960629921
		},
		{
		  "duration": 0.19354799999999273,
		  "durationTicks": 240,
		  "midi": 55,
		  "name": "G3",
		  "ticks": 188160,
		  "time": 151.741632,
		  "velocity": 0.7480314960629921
		},
		{
		  "duration": 0.19354799999999273,
		  "durationTicks": 240,
		  "midi": 36,
		  "name": "C2",
		  "ticks": 188160,
		  "time": 151.741632,
		  "velocity": 0.7480314960629921
		},
		{
		  "duration": 0.19354799999999273,
		  "durationTicks": 240,
		  "midi": 36,
		  "name": "C2",
		  "ticks": 188400,
		  "time": 151.93518,
		  "velocity": 0.7480314960629921
		},
		{
		  "duration": 0.19354799999999273,
		  "durationTicks": 240,
		  "midi": 55,
		  "name": "G3",
		  "ticks": 188640,
		  "time": 152.128728,
		  "velocity": 0.7480314960629921
		},
		{
		  "duration": 0.19354799999999273,
		  "durationTicks": 240,
		  "midi": 38,
		  "name": "D2",
		  "ticks": 188640,
		  "time": 152.128728,
		  "velocity": 0.7480314960629921
		},
		{
		  "duration": 0.19354799999999273,
		  "durationTicks": 240,
		  "midi": 55,
		  "name": "G3",
		  "ticks": 189120,
		  "time": 152.515824,
		  "velocity": 0.7480314960629921
		},
		{
		  "duration": 0.19354799999999273,
		  "durationTicks": 240,
		  "midi": 36,
		  "name": "C2",
		  "ticks": 189120,
		  "time": 152.515824,
		  "velocity": 0.7480314960629921
		},
		{
		  "duration": 0.19354799999999273,
		  "durationTicks": 240,
		  "midi": 36,
		  "name": "C2",
		  "ticks": 189360,
		  "time": 152.709372,
		  "velocity": 0.7480314960629921
		},
		{
		  "duration": 0.19354799999999273,
		  "durationTicks": 240,
		  "midi": 55,
		  "name": "G3",
		  "ticks": 189600,
		  "time": 152.90292,
		  "velocity": 0.7480314960629921
		},
		{
		  "duration": 0.19354799999999273,
		  "durationTicks": 240,
		  "midi": 38,
		  "name": "D2",
		  "ticks": 189600,
		  "time": 152.90292,
		  "velocity": 0.7480314960629921
		},
		{
		  "duration": 0.19354800000002115,
		  "durationTicks": 240,
		  "midi": 36,
		  "name": "C2",
		  "ticks": 189840,
		  "time": 153.096468,
		  "velocity": 0.7480314960629921
		},
		{
		  "duration": 0.19354799999999273,
		  "durationTicks": 240,
		  "midi": 55,
		  "name": "G3",
		  "ticks": 190080,
		  "time": 153.290016,
		  "velocity": 0.7480314960629921
		},
		{
		  "duration": 0.19354799999999273,
		  "durationTicks": 240,
		  "midi": 36,
		  "name": "C2",
		  "ticks": 190080,
		  "time": 153.290016,
		  "velocity": 0.7480314960629921
		},
		{
		  "duration": 0.19354799999999273,
		  "durationTicks": 240,
		  "midi": 36,
		  "name": "C2",
		  "ticks": 190320,
		  "time": 153.483564,
		  "velocity": 0.7480314960629921
		},
		{
		  "duration": 0.19354799999999273,
		  "durationTicks": 240,
		  "midi": 55,
		  "name": "G3",
		  "ticks": 190560,
		  "time": 153.677112,
		  "velocity": 0.7480314960629921
		},
		{
		  "duration": 0.19354799999999273,
		  "durationTicks": 240,
		  "midi": 38,
		  "name": "D2",
		  "ticks": 190560,
		  "time": 153.677112,
		  "velocity": 0.7480314960629921
		},
		{
		  "duration": 0.19354799999999273,
		  "durationTicks": 240,
		  "midi": 55,
		  "name": "G3",
		  "ticks": 191040,
		  "time": 154.064208,
		  "velocity": 0.7480314960629921
		},
		{
		  "duration": 0.19354799999999273,
		  "durationTicks": 240,
		  "midi": 36,
		  "name": "C2",
		  "ticks": 191040,
		  "time": 154.064208,
		  "velocity": 0.7480314960629921
		},
		{
		  "duration": 0.19354799999999273,
		  "durationTicks": 240,
		  "midi": 36,
		  "name": "C2",
		  "ticks": 191280,
		  "time": 154.257756,
		  "velocity": 0.7480314960629921
		},
		{
		  "duration": 0.19354799999999273,
		  "durationTicks": 240,
		  "midi": 52,
		  "name": "E3",
		  "ticks": 191520,
		  "time": 154.451304,
		  "velocity": 0.7480314960629921
		},
		{
		  "duration": 0.19354799999999273,
		  "durationTicks": 240,
		  "midi": 38,
		  "name": "D2",
		  "ticks": 191520,
		  "time": 154.451304,
		  "velocity": 0.7480314960629921
		},
		{
		  "duration": 0.19354799999999273,
		  "durationTicks": 240,
		  "midi": 49,
		  "name": "C#3",
		  "ticks": 192000,
		  "time": 154.8384,
		  "velocity": 0.7480314960629921
		},
		{
		  "duration": 0.19354799999999273,
		  "durationTicks": 240,
		  "midi": 36,
		  "name": "C2",
		  "ticks": 192000,
		  "time": 154.8384,
		  "velocity": 0.7480314960629921
		},
		{
		  "duration": 0.19354799999999273,
		  "durationTicks": 240,
		  "midi": 36,
		  "name": "C2",
		  "ticks": 192240,
		  "time": 155.031948,
		  "velocity": 0.7480314960629921
		},
		{
		  "duration": 0.19354799999999273,
		  "durationTicks": 240,
		  "midi": 57,
		  "name": "A3",
		  "ticks": 192480,
		  "time": 155.225496,
		  "velocity": 0.7480314960629921
		},
		{
		  "duration": 0.19354799999999273,
		  "durationTicks": 240,
		  "midi": 38,
		  "name": "D2",
		  "ticks": 192480,
		  "time": 155.225496,
		  "velocity": 0.7480314960629921
		},
		{
		  "duration": 0.19354800000002115,
		  "durationTicks": 240,
		  "midi": 36,
		  "name": "C2",
		  "ticks": 192720,
		  "time": 155.41904399999999,
		  "velocity": 0.7480314960629921
		},
		{
		  "duration": 0.19354799999999273,
		  "durationTicks": 240,
		  "midi": 57,
		  "name": "A3",
		  "ticks": 192960,
		  "time": 155.612592,
		  "velocity": 0.7480314960629921
		},
		{
		  "duration": 0.19354799999999273,
		  "durationTicks": 240,
		  "midi": 36,
		  "name": "C2",
		  "ticks": 192960,
		  "time": 155.612592,
		  "velocity": 0.7480314960629921
		},
		{
		  "duration": 0.19354799999999273,
		  "durationTicks": 240,
		  "midi": 57,
		  "name": "A3",
		  "ticks": 193440,
		  "time": 155.999688,
		  "velocity": 0.7480314960629921
		},
		{
		  "duration": 0.19354799999999273,
		  "durationTicks": 240,
		  "midi": 38,
		  "name": "D2",
		  "ticks": 193440,
		  "time": 155.999688,
		  "velocity": 0.7480314960629921
		},
		{
		  "duration": 0.19354800000002115,
		  "durationTicks": 240,
		  "midi": 36,
		  "name": "C2",
		  "ticks": 193680,
		  "time": 156.19323599999998,
		  "velocity": 0.7480314960629921
		},
		{
		  "duration": 0.19354799999999273,
		  "durationTicks": 240,
		  "midi": 57,
		  "name": "A3",
		  "ticks": 193920,
		  "time": 156.386784,
		  "velocity": 0.7480314960629921
		},
		{
		  "duration": 0.19354799999999273,
		  "durationTicks": 240,
		  "midi": 36,
		  "name": "C2",
		  "ticks": 194160,
		  "time": 156.580332,
		  "velocity": 0.7480314960629921
		},
		{
		  "duration": 0.19354800000002115,
		  "durationTicks": 240,
		  "midi": 57,
		  "name": "A3",
		  "ticks": 194400,
		  "time": 156.77388,
		  "velocity": 0.7480314960629921
		},
		{
		  "duration": 0.19354800000002115,
		  "durationTicks": 240,
		  "midi": 38,
		  "name": "D2",
		  "ticks": 194400,
		  "time": 156.77388,
		  "velocity": 0.7480314960629921
		},
		{
		  "duration": 0.19354799999999273,
		  "durationTicks": 240,
		  "midi": 57,
		  "name": "A3",
		  "ticks": 194880,
		  "time": 157.160976,
		  "velocity": 0.7480314960629921
		},
		{
		  "duration": 0.09677400000001057,
		  "durationTicks": 120,
		  "midi": 36,
		  "name": "C2",
		  "ticks": 195120,
		  "time": 157.354524,
		  "velocity": 0.7480314960629921
		},
		{
		  "duration": 0.09677399999998215,
		  "durationTicks": 120,
		  "midi": 36,
		  "name": "C2",
		  "ticks": 195240,
		  "time": 157.451298,
		  "velocity": 0.7480314960629921
		},
		{
		  "duration": 0.19354800000002115,
		  "durationTicks": 240,
		  "midi": 57,
		  "name": "A3",
		  "ticks": 195360,
		  "time": 157.548072,
		  "velocity": 0.7480314960629921
		},
		{
		  "duration": 0.19354800000002115,
		  "durationTicks": 240,
		  "midi": 38,
		  "name": "D2",
		  "ticks": 195360,
		  "time": 157.548072,
		  "velocity": 0.7480314960629921
		},
		{
		  "duration": 0.19354799999999273,
		  "durationTicks": 240,
		  "midi": 57,
		  "name": "A3",
		  "ticks": 195840,
		  "time": 157.935168,
		  "velocity": 0.7480314960629921
		},
		{
		  "duration": 0.19354799999999273,
		  "durationTicks": 240,
		  "midi": 36,
		  "name": "C2",
		  "ticks": 195840,
		  "time": 157.935168,
		  "velocity": 0.7480314960629921
		},
		{
		  "duration": 0.19354799999999273,
		  "durationTicks": 240,
		  "midi": 36,
		  "name": "C2",
		  "ticks": 196080,
		  "time": 158.128716,
		  "velocity": 0.7480314960629921
		},
		{
		  "duration": 0.19354800000002115,
		  "durationTicks": 240,
		  "midi": 57,
		  "name": "A3",
		  "ticks": 196320,
		  "time": 158.322264,
		  "velocity": 0.7480314960629921
		},
		{
		  "duration": 0.19354800000002115,
		  "durationTicks": 240,
		  "midi": 38,
		  "name": "D2",
		  "ticks": 196320,
		  "time": 158.322264,
		  "velocity": 0.7480314960629921
		},
		{
		  "duration": 0.19354799999999273,
		  "durationTicks": 240,
		  "midi": 36,
		  "name": "C2",
		  "ticks": 196560,
		  "time": 158.515812,
		  "velocity": 0.7480314960629921
		},
		{
		  "duration": 0.19354799999999273,
		  "durationTicks": 240,
		  "midi": 57,
		  "name": "A3",
		  "ticks": 196800,
		  "time": 158.70936,
		  "velocity": 0.7480314960629921
		},
		{
		  "duration": 0.19354799999999273,
		  "durationTicks": 240,
		  "midi": 36,
		  "name": "C2",
		  "ticks": 196800,
		  "time": 158.70936,
		  "velocity": 0.7480314960629921
		},
		{
		  "duration": 0.19354800000002115,
		  "durationTicks": 240,
		  "midi": 57,
		  "name": "A3",
		  "ticks": 197280,
		  "time": 159.096456,
		  "velocity": 0.7480314960629921
		},
		{
		  "duration": 0.19354800000002115,
		  "durationTicks": 240,
		  "midi": 38,
		  "name": "D2",
		  "ticks": 197280,
		  "time": 159.096456,
		  "velocity": 0.7480314960629921
		},
		{
		  "duration": 0.19354799999999273,
		  "durationTicks": 240,
		  "midi": 36,
		  "name": "C2",
		  "ticks": 197520,
		  "time": 159.290004,
		  "velocity": 0.7480314960629921
		},
		{
		  "duration": 0.19354799999999273,
		  "durationTicks": 240,
		  "midi": 57,
		  "name": "A3",
		  "ticks": 197760,
		  "time": 159.483552,
		  "velocity": 0.7480314960629921
		},
		{
		  "duration": 0.19354799999999273,
		  "durationTicks": 240,
		  "midi": 36,
		  "name": "C2",
		  "ticks": 198000,
		  "time": 159.6771,
		  "velocity": 0.7480314960629921
		},
		{
		  "duration": 0.19354800000002115,
		  "durationTicks": 240,
		  "midi": 57,
		  "name": "A3",
		  "ticks": 198240,
		  "time": 159.870648,
		  "velocity": 0.7480314960629921
		},
		{
		  "duration": 0.19354800000002115,
		  "durationTicks": 240,
		  "midi": 38,
		  "name": "D2",
		  "ticks": 198240,
		  "time": 159.870648,
		  "velocity": 0.7480314960629921
		},
		{
		  "duration": 0.09677399999998215,
		  "durationTicks": 120,
		  "midi": 36,
		  "name": "C2",
		  "ticks": 198480,
		  "time": 160.064196,
		  "velocity": 0.7480314960629921
		},
		{
		  "duration": 0.09677400000001057,
		  "durationTicks": 120,
		  "midi": 36,
		  "name": "C2",
		  "ticks": 198600,
		  "time": 160.16097,
		  "velocity": 0.7480314960629921
		},
		{
		  "duration": 0.19354799999999273,
		  "durationTicks": 240,
		  "midi": 43,
		  "name": "G2",
		  "ticks": 198720,
		  "time": 160.257744,
		  "velocity": 0.7480314960629921
		},
		{
		  "duration": 0.19354799999999273,
		  "durationTicks": 240,
		  "midi": 36,
		  "name": "C2",
		  "ticks": 198720,
		  "time": 160.257744,
		  "velocity": 0.7480314960629921
		}
	  ]
	}
  ]
}
