{
  "header": {
	"keySignatures": [],
	"meta": [],
	"name": "",
	"ppq": 480,
	"tempos": [
	  {
		"bpm": 113.00009605008164,
		"ticks": 0
	  }
	],
	"timeSignatures": [
	  {
		"ticks": 0,
		"timeSignature": [
		  4,
		  4
		],
		"measures": 0
	  }
	]
  },
  "tracks": [
	{
	  "channel": 0,
	  "controlChanges": {
		"6": [
		  {
			"number": 6,
			"ticks": 0,
			"time": 0,
			"value": 0.09448818897637795
		  },
		  {
			"number": 6,
			"ticks": 0,
			"time": 0,
			"value": 0.5039370078740157
		  },
		  {
			"number": 6,
			"ticks": 0,
			"time": 0,
			"value": 0.5039370078740157
		  }
		],
		"38": [
		  {
			"number": 38,
			"ticks": 0,
			"time": 0,
			"value": 0
		  }
		],
		"100": [
		  {
			"number": 100,
			"ticks": 0,
			"time": 0,
			"value": 0
		  },
		  {
			"number": 100,
			"ticks": 0,
			"time": 0,
			"value": 0.007874015748031496
		  },
		  {
			"number": 100,
			"ticks": 0,
			"time": 0,
			"value": 1
		  },
		  {
			"number": 100,
			"ticks": 0,
			"time": 0,
			"value": 0.015748031496062992
		  },
		  {
			"number": 100,
			"ticks": 0,
			"time": 0,
			"value": 1
		  }
		],
		"101": [
		  {
			"number": 101,
			"ticks": 0,
			"time": 0,
			"value": 0
		  },
		  {
			"number": 101,
			"ticks": 0,
			"time": 0,
			"value": 0
		  },
		  {
			"number": 101,
			"ticks": 0,
			"time": 0,
			"value": 1
		  },
		  {
			"number": 101,
			"ticks": 0,
			"time": 0,
			"value": 0
		  },
		  {
			"number": 101,
			"ticks": 0,
			"time": 0,
			"value": 1
		  }
		]
	  },
	  "pitchBends": [
		{
		  "ticks": 0,
		  "time": 0,
		  "value": 0
		}
	  ],
	  "instrument": {
		"family": "piano",
		"number": 0,
		"name": "acoustic grand piano"
	  },
	  "name": "Lead",
	  "notes": [],
	  "endOfTrackTicks": 53730
	},
	{
	  "channel": 0,
	  "controlChanges": {
		"6": [
		  {
			"number": 6,
			"ticks": 0,
			"time": 0,
			"value": 0.09448818897637795
		  },
		  {
			"number": 6,
			"ticks": 0,
			"time": 0,
			"value": 0.5039370078740157
		  },
		  {
			"number": 6,
			"ticks": 0,
			"time": 0,
			"value": 0.5039370078740157
		  }
		],
		"38": [
		  {
			"number": 38,
			"ticks": 0,
			"time": 0,
			"value": 0
		  }
		],
		"100": [
		  {
			"number": 100,
			"ticks": 0,
			"time": 0,
			"value": 0
		  },
		  {
			"number": 100,
			"ticks": 0,
			"time": 0,
			"value": 0.007874015748031496
		  },
		  {
			"number": 100,
			"ticks": 0,
			"time": 0,
			"value": 1
		  },
		  {
			"number": 100,
			"ticks": 0,
			"time": 0,
			"value": 0.015748031496062992
		  },
		  {
			"number": 100,
			"ticks": 0,
			"time": 0,
			"value": 1
		  }
		],
		"101": [
		  {
			"number": 101,
			"ticks": 0,
			"time": 0,
			"value": 0
		  },
		  {
			"number": 101,
			"ticks": 0,
			"time": 0,
			"value": 0
		  },
		  {
			"number": 101,
			"ticks": 0,
			"time": 0,
			"value": 1
		  },
		  {
			"number": 101,
			"ticks": 0,
			"time": 0,
			"value": 0
		  },
		  {
			"number": 101,
			"ticks": 0,
			"time": 0,
			"value": 1
		  }
		]
	  },
	  "pitchBends": [
		{
		  "ticks": 0,
		  "time": 0,
		  "value": 0
		}
	  ],
	  "instrument": {
		"family": "piano",
		"number": 0,
		"name": "acoustic grand piano"
	  },
	  "name": "",
	  "notes": []
	},
	{
	  "channel": 0,
	  "controlChanges": {
		"0": [
		  {
			"number": 0,
			"ticks": 0,
			"time": 0,
			"value": 0
		  }
		],
		"7": [
		  {
			"number": 7,
			"ticks": 0,
			"time": 0,
			"value": 0.8188976377952756
		  }
		],
		"10": [
		  {
			"number": 10,
			"ticks": 0,
			"time": 0,
			"value": 0.5039370078740157
		  }
		],
		"91": [
		  {
			"number": 91,
			"ticks": 0,
			"time": 0,
			"value": 0
		  }
		],
		"92": [
		  {
			"number": 92,
			"ticks": 0,
			"time": 0,
			"value": 0
		  }
		],
		"93": [
		  {
			"number": 93,
			"ticks": 0,
			"time": 0,
			"value": 0
		  }
		],
		"95": [
		  {
			"number": 95,
			"ticks": 0,
			"time": 0,
			"value": 0
		  }
		]
	  },
	  "pitchBends": [],
	  "instrument": {
		"family": "guitar",
		"number": 30,
		"name": "distortion guitar"
	  },
	  "name": "",
	  "notes": []
	},
	{
	  "channel": 0,
	  "controlChanges": {
		"0": [
		  {
			"number": 0,
			"ticks": 0,
			"time": 0,
			"value": 0
		  }
		],
		"7": [
		  {
			"number": 7,
			"ticks": 0,
			"time": 0,
			"value": 0.8188976377952756
		  }
		],
		"10": [
		  {
			"number": 10,
			"ticks": 0,
			"time": 0,
			"value": 0.5039370078740157
		  }
		],
		"91": [
		  {
			"number": 91,
			"ticks": 0,
			"time": 0,
			"value": 0
		  }
		],
		"92": [
		  {
			"number": 92,
			"ticks": 0,
			"time": 0,
			"value": 0
		  }
		],
		"93": [
		  {
			"number": 93,
			"ticks": 0,
			"time": 0,
			"value": 0
		  }
		],
		"95": [
		  {
			"number": 95,
			"ticks": 0,
			"time": 0,
			"value": 0
		  }
		]
	  },
	  "pitchBends": [],
	  "instrument": {
		"family": "guitar",
		"number": 30,
		"name": "distortion guitar"
	  },
	  "name": "",
	  "notes": [
		{
		  "duration": 0.13274325,
		  "durationTicks": 120,
		  "midi": 64,
		  "name": "E4",
		  "ticks": 0,
		  "time": 0,
		  "velocity": 0.7480314960629921
		},
		{
		  "duration": 0.09955743750000001,
		  "durationTicks": 90,
		  "midi": 52,
		  "name": "E3",
		  "ticks": 120,
		  "time": 0.13274325,
		  "velocity": 0.5984251968503937
		},
		{
		  "duration": 0.09955743750000001,
		  "durationTicks": 90,
		  "midi": 52,
		  "name": "E3",
		  "ticks": 240,
		  "time": 0.2654865,
		  "velocity": 0.5984251968503937
		},
		{
		  "duration": 0.13274324999999998,
		  "durationTicks": 120,
		  "midi": 67,
		  "name": "G4",
		  "ticks": 360,
		  "time": 0.39822975000000005,
		  "velocity": 0.7480314960629921
		},
		{
		  "duration": 0.09955743750000001,
		  "durationTicks": 90,
		  "midi": 52,
		  "name": "E3",
		  "ticks": 480,
		  "time": 0.530973,
		  "velocity": 0.5984251968503937
		},
		{
		  "duration": 0.09955743750000001,
		  "durationTicks": 90,
		  "midi": 52,
		  "name": "E3",
		  "ticks": 600,
		  "time": 0.66371625,
		  "velocity": 0.5984251968503937
		},
		{
		  "duration": 0.13274324999999998,
		  "durationTicks": 120,
		  "midi": 64,
		  "name": "E4",
		  "ticks": 720,
		  "time": 0.7964595000000001,
		  "velocity": 0.7480314960629921
		},
		{
		  "duration": 0.09955743750000001,
		  "durationTicks": 90,
		  "midi": 52,
		  "name": "E3",
		  "ticks": 840,
		  "time": 0.9292027500000001,
		  "velocity": 0.5984251968503937
		},
		{
		  "duration": 0.0995574374999999,
		  "durationTicks": 90,
		  "midi": 52,
		  "name": "E3",
		  "ticks": 960,
		  "time": 1.061946,
		  "velocity": 0.5984251968503937
		},
		{
		  "duration": 0.13274324999999987,
		  "durationTicks": 120,
		  "midi": 67,
		  "name": "G4",
		  "ticks": 1080,
		  "time": 1.1946892500000001,
		  "velocity": 0.7480314960629921
		},
		{
		  "duration": 0.09955743750000012,
		  "durationTicks": 90,
		  "midi": 52,
		  "name": "E3",
		  "ticks": 1200,
		  "time": 1.3274325,
		  "velocity": 0.5984251968503937
		},
		{
		  "duration": 0.0995574374999999,
		  "durationTicks": 90,
		  "midi": 52,
		  "name": "E3",
		  "ticks": 1320,
		  "time": 1.46017575,
		  "velocity": 0.5984251968503937
		},
		{
		  "duration": 0.13274324999999987,
		  "durationTicks": 120,
		  "midi": 66,
		  "name": "F#4",
		  "ticks": 1440,
		  "time": 1.5929190000000002,
		  "velocity": 0.7480314960629921
		},
		{
		  "duration": 0.09955743750000012,
		  "durationTicks": 90,
		  "midi": 52,
		  "name": "E3",
		  "ticks": 1560,
		  "time": 1.72566225,
		  "velocity": 0.5984251968503937
		},
		{
		  "duration": 0.13274324999999987,
		  "durationTicks": 120,
		  "midi": 62,
		  "name": "D4",
		  "ticks": 1680,
		  "time": 1.8584055000000002,
		  "velocity": 0.7480314960629921
		},
		{
		  "duration": 0.0995574374999999,
		  "durationTicks": 90,
		  "midi": 52,
		  "name": "E3",
		  "ticks": 1800,
		  "time": 1.99114875,
		  "velocity": 0.5984251968503937
		},
		{
		  "duration": 0.13274324999999987,
		  "durationTicks": 120,
		  "midi": 64,
		  "name": "E4",
		  "ticks": 1920,
		  "time": 2.123892,
		  "velocity": 0.7480314960629921
		},
		{
		  "duration": 0.09955743750000012,
		  "durationTicks": 90,
		  "midi": 52,
		  "name": "E3",
		  "ticks": 2040,
		  "time": 2.25663525,
		  "velocity": 0.5984251968503937
		},
		{
		  "duration": 0.09955743749999968,
		  "durationTicks": 90,
		  "midi": 52,
		  "name": "E3",
		  "ticks": 2160,
		  "time": 2.3893785000000003,
		  "velocity": 0.5984251968503937
		},
		{
		  "duration": 0.13274324999999987,
		  "durationTicks": 120,
		  "midi": 67,
		  "name": "G4",
		  "ticks": 2280,
		  "time": 2.52212175,
		  "velocity": 0.7480314960629921
		},
		{
		  "duration": 0.09955743750000012,
		  "durationTicks": 90,
		  "midi": 52,
		  "name": "E3",
		  "ticks": 2400,
		  "time": 2.654865,
		  "velocity": 0.5984251968503937
		},
		{
		  "duration": 0.09955743749999968,
		  "durationTicks": 90,
		  "midi": 52,
		  "name": "E3",
		  "ticks": 2520,
		  "time": 2.7876082500000003,
		  "velocity": 0.5984251968503937
		},
		{
		  "duration": 0.13274324999999987,
		  "durationTicks": 120,
		  "midi": 64,
		  "name": "E4",
		  "ticks": 2640,
		  "time": 2.9203515,
		  "velocity": 0.7480314960629921
		},
		{
		  "duration": 0.09955743750000012,
		  "durationTicks": 90,
		  "midi": 52,
		  "name": "E3",
		  "ticks": 2760,
		  "time": 3.05309475,
		  "velocity": 0.5984251968503937
		},
		{
		  "duration": 0.09955743749999968,
		  "durationTicks": 90,
		  "midi": 52,
		  "name": "E3",
		  "ticks": 2880,
		  "time": 3.1858380000000004,
		  "velocity": 0.5984251968503937
		},
		{
		  "duration": 0.13274324999999987,
		  "durationTicks": 120,
		  "midi": 67,
		  "name": "G4",
		  "ticks": 3000,
		  "time": 3.3185812500000003,
		  "velocity": 0.7480314960629921
		},
		{
		  "duration": 0.09955743750000012,
		  "durationTicks": 90,
		  "midi": 52,
		  "name": "E3",
		  "ticks": 3120,
		  "time": 3.4513245,
		  "velocity": 0.5984251968503937
		},
		{
		  "duration": 0.09955743750000012,
		  "durationTicks": 90,
		  "midi": 52,
		  "name": "E3",
		  "ticks": 3240,
		  "time": 3.58406775,
		  "velocity": 0.5984251968503937
		},
		{
		  "duration": 0.13274324999999987,
		  "durationTicks": 120,
		  "midi": 69,
		  "name": "A4",
		  "ticks": 3360,
		  "time": 3.7168110000000003,
		  "velocity": 0.7480314960629921
		},
		{
		  "duration": 0.13274324999999987,
		  "durationTicks": 120,
		  "midi": 66,
		  "name": "F#4",
		  "ticks": 3480,
		  "time": 3.84955425,
		  "velocity": 0.7480314960629921
		},
		{
		  "duration": 0.09955743750000012,
		  "durationTicks": 90,
		  "midi": 52,
		  "name": "E3",
		  "ticks": 3600,
		  "time": 3.9822975,
		  "velocity": 0.5984251968503937
		},
		{
		  "duration": 0.13274324999999987,
		  "durationTicks": 120,
		  "midi": 62,
		  "name": "D4",
		  "ticks": 3720,
		  "time": 4.11504075,
		  "velocity": 0.7480314960629921
		},
		{
		  "duration": 0.13274324999999987,
		  "durationTicks": 120,
		  "midi": 64,
		  "name": "E4",
		  "ticks": 3840,
		  "time": 4.247784,
		  "velocity": 0.7480314960629921
		},
		{
		  "duration": 0.09955743750000057,
		  "durationTicks": 90,
		  "midi": 52,
		  "name": "E3",
		  "ticks": 3960,
		  "time": 4.38052725,
		  "velocity": 0.5984251968503937
		},
		{
		  "duration": 0.09955743750000057,
		  "durationTicks": 90,
		  "midi": 52,
		  "name": "E3",
		  "ticks": 4080,
		  "time": 4.5132705,
		  "velocity": 0.5984251968503937
		},
		{
		  "duration": 0.13274325000000076,
		  "durationTicks": 120,
		  "midi": 67,
		  "name": "G4",
		  "ticks": 4200,
		  "time": 4.64601375,
		  "velocity": 0.7480314960629921
		},
		{
		  "duration": 0.09955743749999968,
		  "durationTicks": 90,
		  "midi": 52,
		  "name": "E3",
		  "ticks": 4320,
		  "time": 4.778757000000001,
		  "velocity": 0.5984251968503937
		},
		{
		  "duration": 0.09955743749999968,
		  "durationTicks": 90,
		  "midi": 52,
		  "name": "E3",
		  "ticks": 4440,
		  "time": 4.9115002500000005,
		  "velocity": 0.5984251968503937
		},
		{
		  "duration": 0.13274324999999987,
		  "durationTicks": 120,
		  "midi": 64,
		  "name": "E4",
		  "ticks": 4560,
		  "time": 5.0442435,
		  "velocity": 0.7480314960629921
		},
		{
		  "duration": 0.09955743749999968,
		  "durationTicks": 90,
		  "midi": 52,
		  "name": "E3",
		  "ticks": 4680,
		  "time": 5.17698675,
		  "velocity": 0.5984251968503937
		},
		{
		  "duration": 0.09955743750000057,
		  "durationTicks": 90,
		  "midi": 52,
		  "name": "E3",
		  "ticks": 4800,
		  "time": 5.30973,
		  "velocity": 0.5984251968503937
		},
		{
		  "duration": 0.13274325000000076,
		  "durationTicks": 120,
		  "midi": 67,
		  "name": "G4",
		  "ticks": 4920,
		  "time": 5.44247325,
		  "velocity": 0.7480314960629921
		},
		{
		  "duration": 0.09955743749999968,
		  "durationTicks": 90,
		  "midi": 52,
		  "name": "E3",
		  "ticks": 5040,
		  "time": 5.575216500000001,
		  "velocity": 0.5984251968503937
		},
		{
		  "duration": 0.09955743749999968,
		  "durationTicks": 90,
		  "midi": 52,
		  "name": "E3",
		  "ticks": 5160,
		  "time": 5.7079597500000006,
		  "velocity": 0.5984251968503937
		},
		{
		  "duration": 0.13274324999999987,
		  "durationTicks": 120,
		  "midi": 66,
		  "name": "F#4",
		  "ticks": 5280,
		  "time": 5.840703,
		  "velocity": 0.7480314960629921
		},
		{
		  "duration": 0.09955743749999968,
		  "durationTicks": 90,
		  "midi": 52,
		  "name": "E3",
		  "ticks": 5400,
		  "time": 5.97344625,
		  "velocity": 0.5984251968503937
		},
		{
		  "duration": 0.13274324999999987,
		  "durationTicks": 120,
		  "midi": 62,
		  "name": "D4",
		  "ticks": 5520,
		  "time": 6.1061895,
		  "velocity": 0.7480314960629921
		},
		{
		  "duration": 0.09955743750000057,
		  "durationTicks": 90,
		  "midi": 52,
		  "name": "E3",
		  "ticks": 5640,
		  "time": 6.23893275,
		  "velocity": 0.5984251968503937
		},
		{
		  "duration": 0.13274324999999987,
		  "durationTicks": 120,
		  "midi": 60,
		  "name": "C4",
		  "ticks": 5760,
		  "time": 6.371676000000001,
		  "velocity": 0.7480314960629921
		},
		{
		  "duration": 0.09955743749999968,
		  "durationTicks": 90,
		  "midi": 48,
		  "name": "C3",
		  "ticks": 5880,
		  "time": 6.504419250000001,
		  "velocity": 0.5984251968503937
		},
		{
		  "duration": 0.09955743749999968,
		  "durationTicks": 90,
		  "midi": 48,
		  "name": "C3",
		  "ticks": 6000,
		  "time": 6.6371625000000005,
		  "velocity": 0.5984251968503937
		},
		{
		  "duration": 0.13274324999999987,
		  "durationTicks": 120,
		  "midi": 67,
		  "name": "G4",
		  "ticks": 6120,
		  "time": 6.76990575,
		  "velocity": 0.7480314960629921
		},
		{
		  "duration": 0.09955743749999968,
		  "durationTicks": 90,
		  "midi": 48,
		  "name": "C3",
		  "ticks": 6240,
		  "time": 6.902649,
		  "velocity": 0.5984251968503937
		},
		{
		  "duration": 0.13274324999999987,
		  "durationTicks": 120,
		  "midi": 66,
		  "name": "F#4",
		  "ticks": 6360,
		  "time": 7.03539225,
		  "velocity": 0.7480314960629921
		},
		{
		  "duration": 0.09955743750000057,
		  "durationTicks": 90,
		  "midi": 48,
		  "name": "C3",
		  "ticks": 6480,
		  "time": 7.1681355,
		  "velocity": 0.5984251968503937
		},
		{
		  "duration": 0.13274324999999987,
		  "durationTicks": 120,
		  "midi": 60,
		  "name": "C4",
		  "ticks": 6600,
		  "time": 7.300878750000001,
		  "velocity": 0.7480314960629921
		},
		{
		  "duration": 0.09955743749999968,
		  "durationTicks": 90,
		  "midi": 50,
		  "name": "D3",
		  "ticks": 6720,
		  "time": 7.433622000000001,
		  "velocity": 0.5984251968503937
		},
		{
		  "duration": 0.13274324999999987,
		  "durationTicks": 120,
		  "midi": 62,
		  "name": "D4",
		  "ticks": 6840,
		  "time": 7.5663652500000005,
		  "velocity": 0.7480314960629921
		},
		{
		  "duration": 0.09955743749999968,
		  "durationTicks": 90,
		  "midi": 50,
		  "name": "D3",
		  "ticks": 6960,
		  "time": 7.6991085,
		  "velocity": 0.5984251968503937
		},
		{
		  "duration": 0.13274324999999987,
		  "durationTicks": 120,
		  "midi": 62,
		  "name": "D4",
		  "ticks": 7080,
		  "time": 7.83185175,
		  "velocity": 0.7480314960629921
		},
		{
		  "duration": 0.13274324999999987,
		  "durationTicks": 120,
		  "midi": 67,
		  "name": "G4",
		  "ticks": 7200,
		  "time": 7.964595,
		  "velocity": 0.7480314960629921
		},
		{
		  "duration": 0.09955743749999968,
		  "durationTicks": 90,
		  "midi": 50,
		  "name": "D3",
		  "ticks": 7320,
		  "time": 8.09733825,
		  "velocity": 0.5984251968503937
		},
		{
		  "duration": 0.13274324999999898,
		  "durationTicks": 120,
		  "midi": 66,
		  "name": "F#4",
		  "ticks": 7440,
		  "time": 8.2300815,
		  "velocity": 0.7480314960629921
		},
		{
		  "duration": 0.09955743750000146,
		  "durationTicks": 90,
		  "midi": 50,
		  "name": "D3",
		  "ticks": 7560,
		  "time": 8.36282475,
		  "velocity": 0.5984251968503937
		},
		{
		  "duration": 0.13274325000000076,
		  "durationTicks": 120,
		  "midi": 64,
		  "name": "E4",
		  "ticks": 7680,
		  "time": 8.495568,
		  "velocity": 0.7480314960629921
		},
		{
		  "duration": 0.09955743749999968,
		  "durationTicks": 90,
		  "midi": 52,
		  "name": "E3",
		  "ticks": 7800,
		  "time": 8.628311250000001,
		  "velocity": 0.5984251968503937
		},
		{
		  "duration": 0.09955743749999968,
		  "durationTicks": 90,
		  "midi": 52,
		  "name": "E3",
		  "ticks": 7920,
		  "time": 8.7610545,
		  "velocity": 0.5984251968503937
		},
		{
		  "duration": 0.13274324999999898,
		  "durationTicks": 120,
		  "midi": 67,
		  "name": "G4",
		  "ticks": 8040,
		  "time": 8.893797750000001,
		  "velocity": 0.7480314960629921
		},
		{
		  "duration": 0.09955743749999968,
		  "durationTicks": 90,
		  "midi": 52,
		  "name": "E3",
		  "ticks": 8160,
		  "time": 9.026541,
		  "velocity": 0.5984251968503937
		},
		{
		  "duration": 0.09955743749999968,
		  "durationTicks": 90,
		  "midi": 52,
		  "name": "E3",
		  "ticks": 8280,
		  "time": 9.15928425,
		  "velocity": 0.5984251968503937
		},
		{
		  "duration": 0.13274325000000076,
		  "durationTicks": 120,
		  "midi": 64,
		  "name": "E4",
		  "ticks": 8400,
		  "time": 9.2920275,
		  "velocity": 0.7480314960629921
		},
		{
		  "duration": 0.09955743749999968,
		  "durationTicks": 90,
		  "midi": 52,
		  "name": "E3",
		  "ticks": 8520,
		  "time": 9.42477075,
		  "velocity": 0.5984251968503937
		},
		{
		  "duration": 0.09955743749999968,
		  "durationTicks": 90,
		  "midi": 52,
		  "name": "E3",
		  "ticks": 8640,
		  "time": 9.557514000000001,
		  "velocity": 0.5984251968503937
		},
		{
		  "duration": 0.13274325000000076,
		  "durationTicks": 120,
		  "midi": 67,
		  "name": "G4",
		  "ticks": 8760,
		  "time": 9.69025725,
		  "velocity": 0.7480314960629921
		},
		{
		  "duration": 0.09955743749999968,
		  "durationTicks": 90,
		  "midi": 52,
		  "name": "E3",
		  "ticks": 8880,
		  "time": 9.823000500000001,
		  "velocity": 0.5984251968503937
		},
		{
		  "duration": 0.09955743750000146,
		  "durationTicks": 90,
		  "midi": 52,
		  "name": "E3",
		  "ticks": 9000,
		  "time": 9.95574375,
		  "velocity": 0.5984251968503937
		},
		{
		  "duration": 0.13274325000000076,
		  "durationTicks": 120,
		  "midi": 66,
		  "name": "F#4",
		  "ticks": 9120,
		  "time": 10.088487,
		  "velocity": 0.7480314960629921
		},
		{
		  "duration": 0.09955743749999968,
		  "durationTicks": 90,
		  "midi": 52,
		  "name": "E3",
		  "ticks": 9240,
		  "time": 10.221230250000001,
		  "velocity": 0.5984251968503937
		},
		{
		  "duration": 0.13274325000000076,
		  "durationTicks": 120,
		  "midi": 62,
		  "name": "D4",
		  "ticks": 9360,
		  "time": 10.3539735,
		  "velocity": 0.7480314960629921
		},
		{
		  "duration": 0.09955743749999968,
		  "durationTicks": 90,
		  "midi": 52,
		  "name": "E3",
		  "ticks": 9480,
		  "time": 10.486716750000001,
		  "velocity": 0.5984251968503937
		},
		{
		  "duration": 0.13274325000000076,
		  "durationTicks": 120,
		  "midi": 64,
		  "name": "E4",
		  "ticks": 9600,
		  "time": 10.61946,
		  "velocity": 0.7480314960629921
		},
		{
		  "duration": 0.09955743749999968,
		  "durationTicks": 90,
		  "midi": 52,
		  "name": "E3",
		  "ticks": 9720,
		  "time": 10.75220325,
		  "velocity": 0.5984251968503937
		},
		{
		  "duration": 0.09955743750000146,
		  "durationTicks": 90,
		  "midi": 52,
		  "name": "E3",
		  "ticks": 9840,
		  "time": 10.8849465,
		  "velocity": 0.5984251968503937
		},
		{
		  "duration": 0.13274325000000076,
		  "durationTicks": 120,
		  "midi": 67,
		  "name": "G4",
		  "ticks": 9960,
		  "time": 11.01768975,
		  "velocity": 0.7480314960629921
		},
		{
		  "duration": 0.09955743749999968,
		  "durationTicks": 90,
		  "midi": 52,
		  "name": "E3",
		  "ticks": 10080,
		  "time": 11.150433000000001,
		  "velocity": 0.5984251968503937
		},
		{
		  "duration": 0.09955743749999968,
		  "durationTicks": 90,
		  "midi": 52,
		  "name": "E3",
		  "ticks": 10200,
		  "time": 11.28317625,
		  "velocity": 0.5984251968503937
		},
		{
		  "duration": 0.13274324999999898,
		  "durationTicks": 120,
		  "midi": 64,
		  "name": "E4",
		  "ticks": 10320,
		  "time": 11.415919500000001,
		  "velocity": 0.7480314960629921
		},
		{
		  "duration": 0.09955743749999968,
		  "durationTicks": 90,
		  "midi": 52,
		  "name": "E3",
		  "ticks": 10440,
		  "time": 11.54866275,
		  "velocity": 0.5984251968503937
		},
		{
		  "duration": 0.09955743749999968,
		  "durationTicks": 90,
		  "midi": 52,
		  "name": "E3",
		  "ticks": 10560,
		  "time": 11.681406,
		  "velocity": 0.5984251968503937
		},
		{
		  "duration": 0.13274325000000076,
		  "durationTicks": 120,
		  "midi": 67,
		  "name": "G4",
		  "ticks": 10680,
		  "time": 11.81414925,
		  "velocity": 0.7480314960629921
		},
		{
		  "duration": 0.09955743749999968,
		  "durationTicks": 90,
		  "midi": 52,
		  "name": "E3",
		  "ticks": 10800,
		  "time": 11.9468925,
		  "velocity": 0.5984251968503937
		},
		{
		  "duration": 0.09955743749999968,
		  "durationTicks": 90,
		  "midi": 52,
		  "name": "E3",
		  "ticks": 10920,
		  "time": 12.079635750000001,
		  "velocity": 0.5984251968503937
		},
		{
		  "duration": 0.13274325000000076,
		  "durationTicks": 120,
		  "midi": 69,
		  "name": "A4",
		  "ticks": 11040,
		  "time": 12.212379,
		  "velocity": 0.7480314960629921
		},
		{
		  "duration": 0.13274324999999898,
		  "durationTicks": 120,
		  "midi": 66,
		  "name": "F#4",
		  "ticks": 11160,
		  "time": 12.345122250000001,
		  "velocity": 0.7480314960629921
		},
		{
		  "duration": 0.09955743750000146,
		  "durationTicks": 90,
		  "midi": 52,
		  "name": "E3",
		  "ticks": 11280,
		  "time": 12.4778655,
		  "velocity": 0.5984251968503937
		},
		{
		  "duration": 0.13274325000000076,
		  "durationTicks": 120,
		  "midi": 62,
		  "name": "D4",
		  "ticks": 11400,
		  "time": 12.61060875,
		  "velocity": 0.7480314960629921
		},
		{
		  "duration": 0.13274324999999898,
		  "durationTicks": 120,
		  "midi": 64,
		  "name": "E4",
		  "ticks": 11520,
		  "time": 12.743352000000002,
		  "velocity": 0.7480314960629921
		},
		{
		  "duration": 0.09955743749999968,
		  "durationTicks": 90,
		  "midi": 52,
		  "name": "E3",
		  "ticks": 11640,
		  "time": 12.87609525,
		  "velocity": 0.5984251968503937
		},
		{
		  "duration": 0.09955743749999968,
		  "durationTicks": 90,
		  "midi": 52,
		  "name": "E3",
		  "ticks": 11760,
		  "time": 13.008838500000001,
		  "velocity": 0.5984251968503937
		},
		{
		  "duration": 0.13274325000000076,
		  "durationTicks": 120,
		  "midi": 67,
		  "name": "G4",
		  "ticks": 11880,
		  "time": 13.14158175,
		  "velocity": 0.7480314960629921
		},
		{
		  "duration": 0.09955743749999968,
		  "durationTicks": 90,
		  "midi": 52,
		  "name": "E3",
		  "ticks": 12000,
		  "time": 13.274325000000001,
		  "velocity": 0.5984251968503937
		},
		{
		  "duration": 0.09955743750000146,
		  "durationTicks": 90,
		  "midi": 52,
		  "name": "E3",
		  "ticks": 12120,
		  "time": 13.40706825,
		  "velocity": 0.5984251968503937
		},
		{
		  "duration": 0.13274325000000076,
		  "durationTicks": 120,
		  "midi": 64,
		  "name": "E4",
		  "ticks": 12240,
		  "time": 13.5398115,
		  "velocity": 0.7480314960629921
		},
		{
		  "duration": 0.09955743749999968,
		  "durationTicks": 90,
		  "midi": 52,
		  "name": "E3",
		  "ticks": 12360,
		  "time": 13.672554750000002,
		  "velocity": 0.5984251968503937
		},
		{
		  "duration": 0.09955743749999968,
		  "durationTicks": 90,
		  "midi": 52,
		  "name": "E3",
		  "ticks": 12480,
		  "time": 13.805298,
		  "velocity": 0.5984251968503937
		},
		{
		  "duration": 0.13274324999999898,
		  "durationTicks": 120,
		  "midi": 67,
		  "name": "G4",
		  "ticks": 12600,
		  "time": 13.938041250000001,
		  "velocity": 0.7480314960629921
		},
		{
		  "duration": 0.09955743749999968,
		  "durationTicks": 90,
		  "midi": 52,
		  "name": "E3",
		  "ticks": 12720,
		  "time": 14.0707845,
		  "velocity": 0.5984251968503937
		},
		{
		  "duration": 0.09955743749999968,
		  "durationTicks": 90,
		  "midi": 52,
		  "name": "E3",
		  "ticks": 12840,
		  "time": 14.203527750000001,
		  "velocity": 0.5984251968503937
		},
		{
		  "duration": 0.13274325000000076,
		  "durationTicks": 120,
		  "midi": 66,
		  "name": "F#4",
		  "ticks": 12960,
		  "time": 14.336271,
		  "velocity": 0.7480314960629921
		},
		{
		  "duration": 0.09955743749999968,
		  "durationTicks": 90,
		  "midi": 52,
		  "name": "E3",
		  "ticks": 13080,
		  "time": 14.46901425,
		  "velocity": 0.5984251968503937
		},
		{
		  "duration": 0.13274324999999898,
		  "durationTicks": 120,
		  "midi": 62,
		  "name": "D4",
		  "ticks": 13200,
		  "time": 14.601757500000001,
		  "velocity": 0.7480314960629921
		},
		{
		  "duration": 0.09955743749999968,
		  "durationTicks": 90,
		  "midi": 52,
		  "name": "E3",
		  "ticks": 13320,
		  "time": 14.73450075,
		  "velocity": 0.5984251968503937
		},
		{
		  "duration": 0.13274324999999898,
		  "durationTicks": 120,
		  "midi": 60,
		  "name": "C4",
		  "ticks": 13440,
		  "time": 14.867244000000001,
		  "velocity": 0.7480314960629921
		},
		{
		  "duration": 0.09955743750000146,
		  "durationTicks": 90,
		  "midi": 48,
		  "name": "C3",
		  "ticks": 13560,
		  "time": 14.99998725,
		  "velocity": 0.5984251968503937
		},
		{
		  "duration": 0.09955743749999968,
		  "durationTicks": 90,
		  "midi": 48,
		  "name": "C3",
		  "ticks": 13680,
		  "time": 15.132730500000001,
		  "velocity": 0.5984251968503937
		},
		{
		  "duration": 0.13274325000000076,
		  "durationTicks": 120,
		  "midi": 67,
		  "name": "G4",
		  "ticks": 13800,
		  "time": 15.26547375,
		  "velocity": 0.7480314960629921
		},
		{
		  "duration": 0.09955743749999968,
		  "durationTicks": 90,
		  "midi": 48,
		  "name": "C3",
		  "ticks": 13920,
		  "time": 15.398217,
		  "velocity": 0.5984251968503937
		},
		{
		  "duration": 0.13274324999999898,
		  "durationTicks": 120,
		  "midi": 66,
		  "name": "F#4",
		  "ticks": 14040,
		  "time": 15.530960250000001,
		  "velocity": 0.7480314960629921
		},
		{
		  "duration": 0.09955743749999968,
		  "durationTicks": 90,
		  "midi": 48,
		  "name": "C3",
		  "ticks": 14160,
		  "time": 15.6637035,
		  "velocity": 0.5984251968503937
		},
		{
		  "duration": 0.13274324999999898,
		  "durationTicks": 120,
		  "midi": 60,
		  "name": "C4",
		  "ticks": 14280,
		  "time": 15.796446750000001,
		  "velocity": 0.7480314960629921
		},
		{
		  "duration": 0.09955743750000146,
		  "durationTicks": 90,
		  "midi": 50,
		  "name": "D3",
		  "ticks": 14400,
		  "time": 15.92919,
		  "velocity": 0.5984251968503937
		},
		{
		  "duration": 0.13274325000000076,
		  "durationTicks": 120,
		  "midi": 62,
		  "name": "D4",
		  "ticks": 14520,
		  "time": 16.06193325,
		  "velocity": 0.7480314960629921
		},
		{
		  "duration": 0.09955743749999968,
		  "durationTicks": 90,
		  "midi": 50,
		  "name": "D3",
		  "ticks": 14640,
		  "time": 16.1946765,
		  "velocity": 0.5984251968503937
		},
		{
		  "duration": 0.13274325000000076,
		  "durationTicks": 120,
		  "midi": 62,
		  "name": "D4",
		  "ticks": 14760,
		  "time": 16.32741975,
		  "velocity": 0.7480314960629921
		},
		{
		  "duration": 0.13274325000000076,
		  "durationTicks": 120,
		  "midi": 67,
		  "name": "G4",
		  "ticks": 14880,
		  "time": 16.460163,
		  "velocity": 0.7480314960629921
		},
		{
		  "duration": 0.09955743749999968,
		  "durationTicks": 90,
		  "midi": 50,
		  "name": "D3",
		  "ticks": 15000,
		  "time": 16.592906250000002,
		  "velocity": 0.5984251968503937
		},
		{
		  "duration": 0.13274325000000076,
		  "durationTicks": 120,
		  "midi": 66,
		  "name": "F#4",
		  "ticks": 15120,
		  "time": 16.7256495,
		  "velocity": 0.7480314960629921
		},
		{
		  "duration": 0.09955743749999968,
		  "durationTicks": 90,
		  "midi": 50,
		  "name": "D3",
		  "ticks": 15240,
		  "time": 16.85839275,
		  "velocity": 0.5984251968503937
		},
		{
		  "duration": 0.09955743749999968,
		  "durationTicks": 90,
		  "midi": 52,
		  "name": "E3",
		  "ticks": 15360,
		  "time": 16.991136,
		  "velocity": 0.5984251968503937
		},
		{
		  "duration": 0.09955743749999968,
		  "durationTicks": 90,
		  "midi": 52,
		  "name": "E3",
		  "ticks": 15480,
		  "time": 17.12387925,
		  "velocity": 0.5984251968503937
		},
		{
		  "duration": 0.1327432499999972,
		  "durationTicks": 120,
		  "midi": 64,
		  "name": "E4",
		  "ticks": 15600,
		  "time": 17.256622500000002,
		  "velocity": 0.7480314960629921
		},
		{
		  "duration": 0.09955743749999968,
		  "durationTicks": 90,
		  "midi": 52,
		  "name": "E3",
		  "ticks": 15720,
		  "time": 17.38936575,
		  "velocity": 0.5984251968503937
		},
		{
		  "duration": 0.09955743749999968,
		  "durationTicks": 90,
		  "midi": 52,
		  "name": "E3",
		  "ticks": 15840,
		  "time": 17.522109,
		  "velocity": 0.5984251968503937
		},
		{
		  "duration": 0.13274325000000076,
		  "durationTicks": 120,
		  "midi": 66,
		  "name": "F#4",
		  "ticks": 15960,
		  "time": 17.65485225,
		  "velocity": 0.7480314960629921
		},
		{
		  "duration": 0.09955743749999968,
		  "durationTicks": 90,
		  "midi": 52,
		  "name": "E3",
		  "ticks": 16080,
		  "time": 17.787595500000002,
		  "velocity": 0.5984251968503937
		},
		{
		  "duration": 0.1327432499999972,
		  "durationTicks": 120,
		  "midi": 67,
		  "name": "G4",
		  "ticks": 16200,
		  "time": 17.920338750000003,
		  "velocity": 0.7480314960629921
		},
		{
		  "duration": 0.09955743749999968,
		  "durationTicks": 90,
		  "midi": 52,
		  "name": "E3",
		  "ticks": 17280,
		  "time": 19.115028000000002,
		  "velocity": 0.5984251968503937
		},
		{
		  "duration": 0.09955743750000323,
		  "durationTicks": 90,
		  "midi": 52,
		  "name": "E3",
		  "ticks": 17400,
		  "time": 19.24777125,
		  "velocity": 0.5984251968503937
		},
		{
		  "duration": 0.13274325000000076,
		  "durationTicks": 120,
		  "midi": 64,
		  "name": "E4",
		  "ticks": 17520,
		  "time": 19.3805145,
		  "velocity": 0.7480314960629921
		},
		{
		  "duration": 0.09955743749999968,
		  "durationTicks": 90,
		  "midi": 52,
		  "name": "E3",
		  "ticks": 17640,
		  "time": 19.51325775,
		  "velocity": 0.5984251968503937
		},
		{
		  "duration": 0.09955743749999968,
		  "durationTicks": 90,
		  "midi": 52,
		  "name": "E3",
		  "ticks": 17760,
		  "time": 19.646001000000002,
		  "velocity": 0.5984251968503937
		},
		{
		  "duration": 0.1327432499999972,
		  "durationTicks": 120,
		  "midi": 66,
		  "name": "F#4",
		  "ticks": 17880,
		  "time": 19.778744250000003,
		  "velocity": 0.7480314960629921
		},
		{
		  "duration": 0.09955743749999968,
		  "durationTicks": 90,
		  "midi": 52,
		  "name": "E3",
		  "ticks": 18000,
		  "time": 19.9114875,
		  "velocity": 0.5984251968503937
		},
		{
		  "duration": 0.13274325000000076,
		  "durationTicks": 120,
		  "midi": 67,
		  "name": "G4",
		  "ticks": 18120,
		  "time": 20.04423075,
		  "velocity": 0.7480314960629921
		},
		{
		  "duration": 0.09955743749999968,
		  "durationTicks": 90,
		  "midi": 52,
		  "name": "E3",
		  "ticks": 18240,
		  "time": 20.176974,
		  "velocity": 0.5984251968503937
		},
		{
		  "duration": 0.09955743749999968,
		  "durationTicks": 90,
		  "midi": 52,
		  "name": "E3",
		  "ticks": 18360,
		  "time": 20.309717250000002,
		  "velocity": 0.5984251968503937
		},
		{
		  "duration": 0.26548649999999796,
		  "durationTicks": 240,
		  "midi": 69,
		  "name": "A4",
		  "ticks": 18480,
		  "time": 20.442460500000003,
		  "velocity": 0.7480314960629921
		},
		{
		  "duration": 0.09955743749999968,
		  "durationTicks": 90,
		  "midi": 52,
		  "name": "E3",
		  "ticks": 18720,
		  "time": 20.707947,
		  "velocity": 0.5984251968503937
		},
		{
		  "duration": 0.13274325000000076,
		  "durationTicks": 120,
		  "midi": 67,
		  "name": "G4",
		  "ticks": 18840,
		  "time": 20.84069025,
		  "velocity": 0.7480314960629921
		},
		{
		  "duration": 0.1327432499999972,
		  "durationTicks": 120,
		  "midi": 66,
		  "name": "F#4",
		  "ticks": 18960,
		  "time": 20.973433500000002,
		  "velocity": 0.7480314960629921
		},
		{
		  "duration": 0.13274325000000076,
		  "durationTicks": 120,
		  "midi": 62,
		  "name": "D4",
		  "ticks": 19080,
		  "time": 21.10617675,
		  "velocity": 0.7480314960629921
		},
		{
		  "duration": 0.09955743749999968,
		  "durationTicks": 90,
		  "midi": 52,
		  "name": "E3",
		  "ticks": 19200,
		  "time": 21.23892,
		  "velocity": 0.5984251968503937
		},
		{
		  "duration": 0.09955743749999968,
		  "durationTicks": 90,
		  "midi": 52,
		  "name": "E3",
		  "ticks": 19320,
		  "time": 21.37166325,
		  "velocity": 0.5984251968503937
		},
		{
		  "duration": 0.13274325000000076,
		  "durationTicks": 120,
		  "midi": 64,
		  "name": "E4",
		  "ticks": 19440,
		  "time": 21.5044065,
		  "velocity": 0.7480314960629921
		},
		{
		  "duration": 0.09955743749999968,
		  "durationTicks": 90,
		  "midi": 52,
		  "name": "E3",
		  "ticks": 19560,
		  "time": 21.637149750000003,
		  "velocity": 0.5984251968503937
		},
		{
		  "duration": 0.09955743749999968,
		  "durationTicks": 90,
		  "midi": 52,
		  "name": "E3",
		  "ticks": 19680,
		  "time": 21.769893,
		  "velocity": 0.5984251968503937
		},
		{
		  "duration": 0.13274325000000076,
		  "durationTicks": 120,
		  "midi": 66,
		  "name": "F#4",
		  "ticks": 19800,
		  "time": 21.90263625,
		  "velocity": 0.7480314960629921
		},
		{
		  "duration": 0.09955743749999968,
		  "durationTicks": 90,
		  "midi": 52,
		  "name": "E3",
		  "ticks": 19920,
		  "time": 22.0353795,
		  "velocity": 0.5984251968503937
		},
		{
		  "duration": 0.13274325000000076,
		  "durationTicks": 120,
		  "midi": 67,
		  "name": "G4",
		  "ticks": 20040,
		  "time": 22.168122750000002,
		  "velocity": 0.7480314960629921
		},
		{
		  "duration": 0.09955743749999968,
		  "durationTicks": 90,
		  "midi": 52,
		  "name": "E3",
		  "ticks": 23040,
		  "time": 25.486704000000003,
		  "velocity": 0.5984251968503937
		},
		{
		  "duration": 0.09955743749999968,
		  "durationTicks": 90,
		  "midi": 52,
		  "name": "E3",
		  "ticks": 23160,
		  "time": 25.61944725,
		  "velocity": 0.5984251968503937
		},
		{
		  "duration": 0.13274325000000076,
		  "durationTicks": 120,
		  "midi": 64,
		  "name": "E4",
		  "ticks": 23280,
		  "time": 25.7521905,
		  "velocity": 0.7480314960629921
		},
		{
		  "duration": 0.09955743749999968,
		  "durationTicks": 90,
		  "midi": 52,
		  "name": "E3",
		  "ticks": 23400,
		  "time": 25.884933750000002,
		  "velocity": 0.5984251968503937
		},
		{
		  "duration": 0.09955743749999968,
		  "durationTicks": 90,
		  "midi": 52,
		  "name": "E3",
		  "ticks": 23520,
		  "time": 26.017677000000003,
		  "velocity": 0.5984251968503937
		},
		{
		  "duration": 0.13274325000000076,
		  "durationTicks": 120,
		  "midi": 66,
		  "name": "F#4",
		  "ticks": 23640,
		  "time": 26.15042025,
		  "velocity": 0.7480314960629921
		},
		{
		  "duration": 0.09955743749999968,
		  "durationTicks": 90,
		  "midi": 52,
		  "name": "E3",
		  "ticks": 23760,
		  "time": 26.2831635,
		  "velocity": 0.5984251968503937
		},
		{
		  "duration": 0.13274325000000076,
		  "durationTicks": 120,
		  "midi": 67,
		  "name": "G4",
		  "ticks": 23880,
		  "time": 26.41590675,
		  "velocity": 0.7480314960629921
		},
		{
		  "duration": 0.09955743749999968,
		  "durationTicks": 90,
		  "midi": 52,
		  "name": "E3",
		  "ticks": 24000,
		  "time": 26.548650000000002,
		  "velocity": 0.5984251968503937
		},
		{
		  "duration": 0.09955743749999968,
		  "durationTicks": 90,
		  "midi": 52,
		  "name": "E3",
		  "ticks": 24120,
		  "time": 26.681393250000003,
		  "velocity": 0.5984251968503937
		},
		{
		  "duration": 0.13274325000000076,
		  "durationTicks": 120,
		  "midi": 64,
		  "name": "E4",
		  "ticks": 24240,
		  "time": 26.8141365,
		  "velocity": 0.7480314960629921
		},
		{
		  "duration": 0.09955743749999968,
		  "durationTicks": 90,
		  "midi": 52,
		  "name": "E3",
		  "ticks": 24360,
		  "time": 26.94687975,
		  "velocity": 0.5984251968503937
		},
		{
		  "duration": 0.09955743749999968,
		  "durationTicks": 90,
		  "midi": 52,
		  "name": "E3",
		  "ticks": 24480,
		  "time": 27.079623,
		  "velocity": 0.5984251968503937
		},
		{
		  "duration": 0.13274325000000076,
		  "durationTicks": 120,
		  "midi": 66,
		  "name": "F#4",
		  "ticks": 24600,
		  "time": 27.212366250000002,
		  "velocity": 0.7480314960629921
		},
		{
		  "duration": 0.09955743749999968,
		  "durationTicks": 90,
		  "midi": 52,
		  "name": "E3",
		  "ticks": 24720,
		  "time": 27.345109500000003,
		  "velocity": 0.5984251968503937
		},
		{
		  "duration": 0.13274325000000076,
		  "durationTicks": 120,
		  "midi": 62,
		  "name": "D4",
		  "ticks": 24840,
		  "time": 27.47785275,
		  "velocity": 0.7480314960629921
		},
		{
		  "duration": 0.09955743749999968,
		  "durationTicks": 90,
		  "midi": 48,
		  "name": "C3",
		  "ticks": 24960,
		  "time": 27.610596,
		  "velocity": 0.5984251968503937
		},
		{
		  "duration": 0.09955743749999968,
		  "durationTicks": 90,
		  "midi": 48,
		  "name": "C3",
		  "ticks": 25080,
		  "time": 27.743339250000002,
		  "velocity": 0.5984251968503937
		},
		{
		  "duration": 0.1327432499999972,
		  "durationTicks": 120,
		  "midi": 64,
		  "name": "E4",
		  "ticks": 25200,
		  "time": 27.876082500000003,
		  "velocity": 0.7480314960629921
		},
		{
		  "duration": 0.09955743750000323,
		  "durationTicks": 90,
		  "midi": 48,
		  "name": "C3",
		  "ticks": 25320,
		  "time": 28.00882575,
		  "velocity": 0.5984251968503937
		},
		{
		  "duration": 0.09955743749999968,
		  "durationTicks": 90,
		  "midi": 48,
		  "name": "C3",
		  "ticks": 25440,
		  "time": 28.141569,
		  "velocity": 0.5984251968503937
		},
		{
		  "duration": 0.13274325000000076,
		  "durationTicks": 120,
		  "midi": 66,
		  "name": "F#4",
		  "ticks": 25560,
		  "time": 28.27431225,
		  "velocity": 0.7480314960629921
		},
		{
		  "duration": 0.09955743749999968,
		  "durationTicks": 90,
		  "midi": 48,
		  "name": "C3",
		  "ticks": 25680,
		  "time": 28.407055500000002,
		  "velocity": 0.5984251968503937
		},
		{
		  "duration": 0.1327432499999972,
		  "durationTicks": 120,
		  "midi": 67,
		  "name": "G4",
		  "ticks": 25800,
		  "time": 28.539798750000003,
		  "velocity": 0.7480314960629921
		},
		{
		  "duration": 0.09955743750000323,
		  "durationTicks": 90,
		  "midi": 50,
		  "name": "D3",
		  "ticks": 25920,
		  "time": 28.672542,
		  "velocity": 0.5984251968503937
		},
		{
		  "duration": 0.09955743749999968,
		  "durationTicks": 90,
		  "midi": 50,
		  "name": "D3",
		  "ticks": 26040,
		  "time": 28.80528525,
		  "velocity": 0.5984251968503937
		},
		{
		  "duration": 0.13274325000000076,
		  "durationTicks": 120,
		  "midi": 69,
		  "name": "A4",
		  "ticks": 26160,
		  "time": 28.9380285,
		  "velocity": 0.7480314960629921
		},
		{
		  "duration": 0.09955743749999968,
		  "durationTicks": 90,
		  "midi": 50,
		  "name": "D3",
		  "ticks": 26280,
		  "time": 29.070771750000002,
		  "velocity": 0.5984251968503937
		},
		{
		  "duration": 0.09955743749999968,
		  "durationTicks": 90,
		  "midi": 50,
		  "name": "D3",
		  "ticks": 26400,
		  "time": 29.203515000000003,
		  "velocity": 0.5984251968503937
		},
		{
		  "duration": 0.13274325000000076,
		  "durationTicks": 120,
		  "midi": 67,
		  "name": "G4",
		  "ticks": 26520,
		  "time": 29.33625825,
		  "velocity": 0.7480314960629921
		},
		{
		  "duration": 0.09955743749999968,
		  "durationTicks": 90,
		  "midi": 50,
		  "name": "D3",
		  "ticks": 26640,
		  "time": 29.4690015,
		  "velocity": 0.5984251968503937
		},
		{
		  "duration": 0.13274325000000076,
		  "durationTicks": 120,
		  "midi": 66,
		  "name": "F#4",
		  "ticks": 26760,
		  "time": 29.60174475,
		  "velocity": 0.7480314960629921
		},
		{
		  "duration": 0.09955743749999968,
		  "durationTicks": 90,
		  "midi": 52,
		  "name": "E3",
		  "ticks": 26880,
		  "time": 29.734488000000002,
		  "velocity": 0.5984251968503937
		},
		{
		  "duration": 0.09955743749999968,
		  "durationTicks": 90,
		  "midi": 52,
		  "name": "E3",
		  "ticks": 27000,
		  "time": 29.867231250000003,
		  "velocity": 0.5984251968503937
		},
		{
		  "duration": 0.13274325000000076,
		  "durationTicks": 120,
		  "midi": 64,
		  "name": "E4",
		  "ticks": 27120,
		  "time": 29.9999745,
		  "velocity": 0.7480314960629921
		},
		{
		  "duration": 0.09955743749999968,
		  "durationTicks": 90,
		  "midi": 52,
		  "name": "E3",
		  "ticks": 27240,
		  "time": 30.13271775,
		  "velocity": 0.5984251968503937
		},
		{
		  "duration": 0.09955743749999968,
		  "durationTicks": 90,
		  "midi": 52,
		  "name": "E3",
		  "ticks": 27360,
		  "time": 30.265461000000002,
		  "velocity": 0.5984251968503937
		},
		{
		  "duration": 0.1327432499999972,
		  "durationTicks": 120,
		  "midi": 66,
		  "name": "F#4",
		  "ticks": 27480,
		  "time": 30.398204250000003,
		  "velocity": 0.7480314960629921
		},
		{
		  "duration": 0.09955743750000323,
		  "durationTicks": 90,
		  "midi": 52,
		  "name": "E3",
		  "ticks": 27600,
		  "time": 30.5309475,
		  "velocity": 0.5984251968503937
		},
		{
		  "duration": 0.13274325000000076,
		  "durationTicks": 120,
		  "midi": 67,
		  "name": "G4",
		  "ticks": 27720,
		  "time": 30.66369075,
		  "velocity": 0.7480314960629921
		},
		{
		  "duration": 0.09955743749999968,
		  "durationTicks": 90,
		  "midi": 52,
		  "name": "E3",
		  "ticks": 27840,
		  "time": 30.796434,
		  "velocity": 0.5984251968503937
		},
		{
		  "duration": 0.09955743749999968,
		  "durationTicks": 90,
		  "midi": 52,
		  "name": "E3",
		  "ticks": 27960,
		  "time": 30.929177250000002,
		  "velocity": 0.5984251968503937
		},
		{
		  "duration": 0.1327432499999972,
		  "durationTicks": 120,
		  "midi": 64,
		  "name": "E4",
		  "ticks": 28080,
		  "time": 31.061920500000003,
		  "velocity": 0.7480314960629921
		},
		{
		  "duration": 0.09955743750000323,
		  "durationTicks": 90,
		  "midi": 52,
		  "name": "E3",
		  "ticks": 28200,
		  "time": 31.19466375,
		  "velocity": 0.5984251968503937
		},
		{
		  "duration": 0.09955743749999968,
		  "durationTicks": 90,
		  "midi": 52,
		  "name": "E3",
		  "ticks": 28320,
		  "time": 31.327407,
		  "velocity": 0.5984251968503937
		},
		{
		  "duration": 0.13274325000000076,
		  "durationTicks": 120,
		  "midi": 66,
		  "name": "F#4",
		  "ticks": 28440,
		  "time": 31.46015025,
		  "velocity": 0.7480314960629921
		},
		{
		  "duration": 0.09955743749999968,
		  "durationTicks": 90,
		  "midi": 52,
		  "name": "E3",
		  "ticks": 28560,
		  "time": 31.592893500000002,
		  "velocity": 0.5984251968503937
		},
		{
		  "duration": 0.1327432499999972,
		  "durationTicks": 120,
		  "midi": 62,
		  "name": "D4",
		  "ticks": 28680,
		  "time": 31.725636750000003,
		  "velocity": 0.7480314960629921
		},
		{
		  "duration": 0.09955743749999968,
		  "durationTicks": 90,
		  "midi": 48,
		  "name": "C3",
		  "ticks": 28800,
		  "time": 31.85838,
		  "velocity": 0.5984251968503937
		},
		{
		  "duration": 0.09955743750000323,
		  "durationTicks": 90,
		  "midi": 48,
		  "name": "C3",
		  "ticks": 28920,
		  "time": 31.99112325,
		  "velocity": 0.5984251968503937
		},
		{
		  "duration": 0.1327432500000043,
		  "durationTicks": 120,
		  "midi": 64,
		  "name": "E4",
		  "ticks": 29040,
		  "time": 32.1238665,
		  "velocity": 0.7480314960629921
		},
		{
		  "duration": 0.09955743749999613,
		  "durationTicks": 90,
		  "midi": 48,
		  "name": "C3",
		  "ticks": 29160,
		  "time": 32.25660975,
		  "velocity": 0.5984251968503937
		},
		{
		  "duration": 0.09955743750000323,
		  "durationTicks": 90,
		  "midi": 48,
		  "name": "C3",
		  "ticks": 29280,
		  "time": 32.389353,
		  "velocity": 0.5984251968503937
		},
		{
		  "duration": 0.1327432499999972,
		  "durationTicks": 120,
		  "midi": 66,
		  "name": "F#4",
		  "ticks": 29400,
		  "time": 32.522096250000004,
		  "velocity": 0.7480314960629921
		},
		{
		  "duration": 0.09955743750000323,
		  "durationTicks": 90,
		  "midi": 48,
		  "name": "C3",
		  "ticks": 29520,
		  "time": 32.6548395,
		  "velocity": 0.5984251968503937
		},
		{
		  "duration": 0.1327432500000043,
		  "durationTicks": 120,
		  "midi": 67,
		  "name": "G4",
		  "ticks": 29640,
		  "time": 32.78758275,
		  "velocity": 0.7480314960629921
		},
		{
		  "duration": 0.09955743749999613,
		  "durationTicks": 90,
		  "midi": 50,
		  "name": "D3",
		  "ticks": 29760,
		  "time": 32.920326,
		  "velocity": 0.5984251968503937
		},
		{
		  "duration": 0.09955743750000323,
		  "durationTicks": 90,
		  "midi": 50,
		  "name": "D3",
		  "ticks": 29880,
		  "time": 33.05306925,
		  "velocity": 0.5984251968503937
		},
		{
		  "duration": 0.1327432499999972,
		  "durationTicks": 120,
		  "midi": 66,
		  "name": "F#4",
		  "ticks": 30000,
		  "time": 33.185812500000004,
		  "velocity": 0.7480314960629921
		},
		{
		  "duration": 0.09955743750000323,
		  "durationTicks": 90,
		  "midi": 50,
		  "name": "D3",
		  "ticks": 30120,
		  "time": 33.31855575,
		  "velocity": 0.5984251968503937
		},
		{
		  "duration": 0.1327432500000043,
		  "durationTicks": 120,
		  "midi": 69,
		  "name": "A4",
		  "ticks": 30240,
		  "time": 33.451299,
		  "velocity": 0.7480314960629921
		},
		{
		  "duration": 0.09955743749999613,
		  "durationTicks": 90,
		  "midi": 50,
		  "name": "D3",
		  "ticks": 30360,
		  "time": 33.58404225,
		  "velocity": 0.5984251968503937
		},
		{
		  "duration": 0.1327432500000043,
		  "durationTicks": 120,
		  "midi": 67,
		  "name": "G4",
		  "ticks": 30480,
		  "time": 33.7167855,
		  "velocity": 0.7480314960629921
		},
		{
		  "duration": 0.1327432499999972,
		  "durationTicks": 120,
		  "midi": 66,
		  "name": "F#4",
		  "ticks": 30600,
		  "time": 33.849528750000005,
		  "velocity": 0.7480314960629921
		},
		{
		  "duration": 0.09955743750000323,
		  "durationTicks": 90,
		  "midi": 52,
		  "name": "E3",
		  "ticks": 30720,
		  "time": 33.982272,
		  "velocity": 0.5984251968503937
		},
		{
		  "duration": 0.09955743750000323,
		  "durationTicks": 90,
		  "midi": 52,
		  "name": "E3",
		  "ticks": 30840,
		  "time": 34.11501525,
		  "velocity": 0.5984251968503937
		},
		{
		  "duration": 0.1327432499999972,
		  "durationTicks": 120,
		  "midi": 64,
		  "name": "E4",
		  "ticks": 30960,
		  "time": 34.2477585,
		  "velocity": 0.7480314960629921
		},
		{
		  "duration": 0.09955743750000323,
		  "durationTicks": 90,
		  "midi": 52,
		  "name": "E3",
		  "ticks": 31080,
		  "time": 34.38050175,
		  "velocity": 0.5984251968503937
		},
		{
		  "duration": 0.09955743749999613,
		  "durationTicks": 90,
		  "midi": 52,
		  "name": "E3",
		  "ticks": 31200,
		  "time": 34.513245000000005,
		  "velocity": 0.5984251968503937
		},
		{
		  "duration": 0.1327432499999972,
		  "durationTicks": 120,
		  "midi": 66,
		  "name": "F#4",
		  "ticks": 31320,
		  "time": 34.64598825,
		  "velocity": 0.7480314960629921
		},
		{
		  "duration": 0.09955743750000323,
		  "durationTicks": 90,
		  "midi": 52,
		  "name": "E3",
		  "ticks": 31440,
		  "time": 34.7787315,
		  "velocity": 0.5984251968503937
		},
		{
		  "duration": 0.1327432499999972,
		  "durationTicks": 120,
		  "midi": 67,
		  "name": "G4",
		  "ticks": 31560,
		  "time": 34.911474750000004,
		  "velocity": 0.7480314960629921
		},
		{
		  "duration": 0.2654865000000015,
		  "durationTicks": 240,
		  "midi": 69,
		  "name": "A4",
		  "ticks": 31680,
		  "time": 35.044218,
		  "velocity": 0.7480314960629921
		},
		{
		  "duration": 0.09955743749999613,
		  "durationTicks": 90,
		  "midi": 52,
		  "name": "E3",
		  "ticks": 31920,
		  "time": 35.3097045,
		  "velocity": 0.5984251968503937
		},
		{
		  "duration": 0.3982297500000058,
		  "durationTicks": 360,
		  "midi": 71,
		  "name": "B4",
		  "ticks": 32040,
		  "time": 35.44244775,
		  "velocity": 0.7480314960629921
		},
		{
		  "duration": 0.1327432499999972,
		  "durationTicks": 120,
		  "midi": 67,
		  "name": "G4",
		  "ticks": 32400,
		  "time": 35.840677500000005,
		  "velocity": 0.7480314960629921
		},
		{
		  "duration": 0.1327432499999972,
		  "durationTicks": 120,
		  "midi": 66,
		  "name": "F#4",
		  "ticks": 32520,
		  "time": 35.97342075,
		  "velocity": 0.7480314960629921
		},
		{
		  "duration": 0.09955743750000323,
		  "durationTicks": 90,
		  "midi": 48,
		  "name": "C3",
		  "ticks": 32640,
		  "time": 36.106164,
		  "velocity": 0.5984251968503937
		},
		{
		  "duration": 0.09955743749999613,
		  "durationTicks": 90,
		  "midi": 48,
		  "name": "C3",
		  "ticks": 32760,
		  "time": 36.238907250000004,
		  "velocity": 0.5984251968503937
		},
		{
		  "duration": 0.1327432499999972,
		  "durationTicks": 120,
		  "midi": 64,
		  "name": "E4",
		  "ticks": 32880,
		  "time": 36.3716505,
		  "velocity": 0.7480314960629921
		},
		{
		  "duration": 0.09955743750000323,
		  "durationTicks": 90,
		  "midi": 48,
		  "name": "C3",
		  "ticks": 33000,
		  "time": 36.50439375,
		  "velocity": 0.5984251968503937
		},
		{
		  "duration": 0.09955743749999613,
		  "durationTicks": 90,
		  "midi": 48,
		  "name": "C3",
		  "ticks": 33120,
		  "time": 36.637137,
		  "velocity": 0.5984251968503937
		},
		{
		  "duration": 0.1327432500000043,
		  "durationTicks": 120,
		  "midi": 66,
		  "name": "F#4",
		  "ticks": 33240,
		  "time": 36.76988025,
		  "velocity": 0.7480314960629921
		},
		{
		  "duration": 0.09955743749999613,
		  "durationTicks": 90,
		  "midi": 48,
		  "name": "C3",
		  "ticks": 33360,
		  "time": 36.902623500000004,
		  "velocity": 0.5984251968503937
		},
		{
		  "duration": 0.1327432499999972,
		  "durationTicks": 120,
		  "midi": 67,
		  "name": "G4",
		  "ticks": 33480,
		  "time": 37.03536675,
		  "velocity": 0.7480314960629921
		},
		{
		  "duration": 0.09955743750000323,
		  "durationTicks": 90,
		  "midi": 50,
		  "name": "D3",
		  "ticks": 33600,
		  "time": 37.16811,
		  "velocity": 0.5984251968503937
		},
		{
		  "duration": 0.09955743749999613,
		  "durationTicks": 90,
		  "midi": 50,
		  "name": "D3",
		  "ticks": 33720,
		  "time": 37.30085325,
		  "velocity": 0.5984251968503937
		},
		{
		  "duration": 0.1327432500000043,
		  "durationTicks": 120,
		  "midi": 69,
		  "name": "A4",
		  "ticks": 33840,
		  "time": 37.4335965,
		  "velocity": 0.7480314960629921
		},
		{
		  "duration": 0.09955743749999613,
		  "durationTicks": 90,
		  "midi": 50,
		  "name": "D3",
		  "ticks": 33960,
		  "time": 37.566339750000004,
		  "velocity": 0.5984251968503937
		},
		{
		  "duration": 0.09955743750000323,
		  "durationTicks": 90,
		  "midi": 50,
		  "name": "D3",
		  "ticks": 34080,
		  "time": 37.699083,
		  "velocity": 0.5984251968503937
		},
		{
		  "duration": 0.1327432500000043,
		  "durationTicks": 120,
		  "midi": 67,
		  "name": "G4",
		  "ticks": 34200,
		  "time": 37.83182625,
		  "velocity": 0.7480314960629921
		},
		{
		  "duration": 0.09955743749999613,
		  "durationTicks": 90,
		  "midi": 50,
		  "name": "D3",
		  "ticks": 34320,
		  "time": 37.9645695,
		  "velocity": 0.5984251968503937
		},
		{
		  "duration": 0.1327432500000043,
		  "durationTicks": 120,
		  "midi": 66,
		  "name": "F#4",
		  "ticks": 34440,
		  "time": 38.09731275,
		  "velocity": 0.7480314960629921
		},
		{
		  "duration": 0.09955743749999613,
		  "durationTicks": 90,
		  "midi": 52,
		  "name": "E3",
		  "ticks": 34560,
		  "time": 38.230056000000005,
		  "velocity": 0.5984251968503937
		},
		{
		  "duration": 0.09955743750000323,
		  "durationTicks": 90,
		  "midi": 52,
		  "name": "E3",
		  "ticks": 34680,
		  "time": 38.36279925,
		  "velocity": 0.5984251968503937
		},
		{
		  "duration": 0.1327432500000043,
		  "durationTicks": 120,
		  "midi": 64,
		  "name": "E4",
		  "ticks": 34800,
		  "time": 38.4955425,
		  "velocity": 0.7480314960629921
		},
		{
		  "duration": 0.09955743749999613,
		  "durationTicks": 90,
		  "midi": 52,
		  "name": "E3",
		  "ticks": 34920,
		  "time": 38.62828575,
		  "velocity": 0.5984251968503937
		},
		{
		  "duration": 0.09955743750000323,
		  "durationTicks": 90,
		  "midi": 52,
		  "name": "E3",
		  "ticks": 35040,
		  "time": 38.761029,
		  "velocity": 0.5984251968503937
		},
		{
		  "duration": 0.1327432499999972,
		  "durationTicks": 120,
		  "midi": 66,
		  "name": "F#4",
		  "ticks": 35160,
		  "time": 38.893772250000005,
		  "velocity": 0.7480314960629921
		},
		{
		  "duration": 0.09955743750000323,
		  "durationTicks": 90,
		  "midi": 52,
		  "name": "E3",
		  "ticks": 35280,
		  "time": 39.0265155,
		  "velocity": 0.5984251968503937
		},
		{
		  "duration": 0.1327432500000043,
		  "durationTicks": 120,
		  "midi": 67,
		  "name": "G4",
		  "ticks": 35400,
		  "time": 39.15925875,
		  "velocity": 0.7480314960629921
		},
		{
		  "duration": 0.09955743749999613,
		  "durationTicks": 90,
		  "midi": 52,
		  "name": "E3",
		  "ticks": 35520,
		  "time": 39.292002000000004,
		  "velocity": 0.5984251968503937
		},
		{
		  "duration": 0.09955743750000323,
		  "durationTicks": 90,
		  "midi": 52,
		  "name": "E3",
		  "ticks": 35640,
		  "time": 39.42474525,
		  "velocity": 0.5984251968503937
		},
		{
		  "duration": 0.1327432499999972,
		  "durationTicks": 120,
		  "midi": 64,
		  "name": "E4",
		  "ticks": 35760,
		  "time": 39.557488500000005,
		  "velocity": 0.7480314960629921
		},
		{
		  "duration": 0.09955743750000323,
		  "durationTicks": 90,
		  "midi": 52,
		  "name": "E3",
		  "ticks": 35880,
		  "time": 39.69023175,
		  "velocity": 0.5984251968503937
		},
		{
		  "duration": 0.09955743750000323,
		  "durationTicks": 90,
		  "midi": 52,
		  "name": "E3",
		  "ticks": 36000,
		  "time": 39.822975,
		  "velocity": 0.5984251968503937
		},
		{
		  "duration": 0.1327432499999972,
		  "durationTicks": 120,
		  "midi": 66,
		  "name": "F#4",
		  "ticks": 36120,
		  "time": 39.955718250000004,
		  "velocity": 0.7480314960629921
		},
		{
		  "duration": 0.09955743750000323,
		  "durationTicks": 90,
		  "midi": 52,
		  "name": "E3",
		  "ticks": 36240,
		  "time": 40.0884615,
		  "velocity": 0.5984251968503937
		},
		{
		  "duration": 0.1327432499999972,
		  "durationTicks": 120,
		  "midi": 62,
		  "name": "D4",
		  "ticks": 36360,
		  "time": 40.221204750000005,
		  "velocity": 0.7480314960629921
		},
		{
		  "duration": 0.09955743749999613,
		  "durationTicks": 90,
		  "midi": 48,
		  "name": "C3",
		  "ticks": 36480,
		  "time": 40.353948,
		  "velocity": 0.5984251968503937
		},
		{
		  "duration": 0.09955743750000323,
		  "durationTicks": 90,
		  "midi": 48,
		  "name": "C3",
		  "ticks": 36600,
		  "time": 40.48669125,
		  "velocity": 0.5984251968503937
		},
		{
		  "duration": 0.1327432499999972,
		  "durationTicks": 120,
		  "midi": 64,
		  "name": "E4",
		  "ticks": 36720,
		  "time": 40.619434500000004,
		  "velocity": 0.7480314960629921
		},
		{
		  "duration": 0.09955743750000323,
		  "durationTicks": 90,
		  "midi": 48,
		  "name": "C3",
		  "ticks": 36840,
		  "time": 40.75217775,
		  "velocity": 0.5984251968503937
		},
		{
		  "duration": 0.09955743749999613,
		  "durationTicks": 90,
		  "midi": 48,
		  "name": "C3",
		  "ticks": 36960,
		  "time": 40.884921000000006,
		  "velocity": 0.5984251968503937
		},
		{
		  "duration": 0.1327432499999972,
		  "durationTicks": 120,
		  "midi": 66,
		  "name": "F#4",
		  "ticks": 37080,
		  "time": 41.01766425,
		  "velocity": 0.7480314960629921
		},
		{
		  "duration": 0.09955743750000323,
		  "durationTicks": 90,
		  "midi": 48,
		  "name": "C3",
		  "ticks": 37200,
		  "time": 41.1504075,
		  "velocity": 0.5984251968503937
		},
		{
		  "duration": 0.1327432499999972,
		  "durationTicks": 120,
		  "midi": 67,
		  "name": "G4",
		  "ticks": 37320,
		  "time": 41.283150750000004,
		  "velocity": 0.7480314960629921
		},
		{
		  "duration": 0.1327432500000043,
		  "durationTicks": 120,
		  "midi": 64,
		  "name": "E4",
		  "ticks": 38400,
		  "time": 42.47784,
		  "velocity": 0.7480314960629921
		},
		{
		  "duration": 0.09955743749999613,
		  "durationTicks": 90,
		  "midi": 52,
		  "name": "E3",
		  "ticks": 38520,
		  "time": 42.610583250000005,
		  "velocity": 0.5984251968503937
		},
		{
		  "duration": 0.09955743750000323,
		  "durationTicks": 90,
		  "midi": 52,
		  "name": "E3",
		  "ticks": 38640,
		  "time": 42.7433265,
		  "velocity": 0.5984251968503937
		},
		{
		  "duration": 0.1327432500000043,
		  "durationTicks": 120,
		  "midi": 67,
		  "name": "G4",
		  "ticks": 38760,
		  "time": 42.87606975,
		  "velocity": 0.7480314960629921
		},
		{
		  "duration": 0.09955743749999613,
		  "durationTicks": 90,
		  "midi": 52,
		  "name": "E3",
		  "ticks": 38880,
		  "time": 43.008813,
		  "velocity": 0.5984251968503937
		},
		{
		  "duration": 0.09955743750000323,
		  "durationTicks": 90,
		  "midi": 52,
		  "name": "E3",
		  "ticks": 39000,
		  "time": 43.14155625,
		  "velocity": 0.5984251968503937
		},
		{
		  "duration": 0.1327432499999972,
		  "durationTicks": 120,
		  "midi": 64,
		  "name": "E4",
		  "ticks": 39120,
		  "time": 43.274299500000005,
		  "velocity": 0.7480314960629921
		},
		{
		  "duration": 0.09955743750000323,
		  "durationTicks": 90,
		  "midi": 52,
		  "name": "E3",
		  "ticks": 39240,
		  "time": 43.40704275,
		  "velocity": 0.5984251968503937
		},
		{
		  "duration": 0.09955743750000323,
		  "durationTicks": 90,
		  "midi": 52,
		  "name": "E3",
		  "ticks": 39360,
		  "time": 43.539786,
		  "velocity": 0.5984251968503937
		},
		{
		  "duration": 0.1327432499999972,
		  "durationTicks": 120,
		  "midi": 67,
		  "name": "G4",
		  "ticks": 39480,
		  "time": 43.672529250000004,
		  "velocity": 0.7480314960629921
		},
		{
		  "duration": 0.09955743750000323,
		  "durationTicks": 90,
		  "midi": 52,
		  "name": "E3",
		  "ticks": 39600,
		  "time": 43.8052725,
		  "velocity": 0.5984251968503937
		},
		{
		  "duration": 0.09955743749999613,
		  "durationTicks": 90,
		  "midi": 52,
		  "name": "E3",
		  "ticks": 39720,
		  "time": 43.938015750000005,
		  "velocity": 0.5984251968503937
		},
		{
		  "duration": 0.1327432499999972,
		  "durationTicks": 120,
		  "midi": 66,
		  "name": "F#4",
		  "ticks": 39840,
		  "time": 44.070759,
		  "velocity": 0.7480314960629921
		},
		{
		  "duration": 0.09955743750000323,
		  "durationTicks": 90,
		  "midi": 52,
		  "name": "E3",
		  "ticks": 39960,
		  "time": 44.20350225,
		  "velocity": 0.5984251968503937
		},
		{
		  "duration": 0.1327432499999972,
		  "durationTicks": 120,
		  "midi": 62,
		  "name": "D4",
		  "ticks": 40080,
		  "time": 44.336245500000004,
		  "velocity": 0.7480314960629921
		},
		{
		  "duration": 0.09955743750000323,
		  "durationTicks": 90,
		  "midi": 52,
		  "name": "E3",
		  "ticks": 40200,
		  "time": 44.46898875,
		  "velocity": 0.5984251968503937
		},
		{
		  "duration": 0.1327432499999972,
		  "durationTicks": 120,
		  "midi": 64,
		  "name": "E4",
		  "ticks": 40320,
		  "time": 44.601732000000005,
		  "velocity": 0.7480314960629921
		},
		{
		  "duration": 0.09955743750000323,
		  "durationTicks": 90,
		  "midi": 52,
		  "name": "E3",
		  "ticks": 40440,
		  "time": 44.73447525,
		  "velocity": 0.5984251968503937
		},
		{
		  "duration": 0.09955743750000323,
		  "durationTicks": 90,
		  "midi": 52,
		  "name": "E3",
		  "ticks": 40560,
		  "time": 44.8672185,
		  "velocity": 0.5984251968503937
		},
		{
		  "duration": 0.1327432499999972,
		  "durationTicks": 120,
		  "midi": 67,
		  "name": "G4",
		  "ticks": 40680,
		  "time": 44.999961750000004,
		  "velocity": 0.7480314960629921
		},
		{
		  "duration": 0.09955743750000323,
		  "durationTicks": 90,
		  "midi": 52,
		  "name": "E3",
		  "ticks": 40800,
		  "time": 45.132705,
		  "velocity": 0.5984251968503937
		},
		{
		  "duration": 0.09955743749999613,
		  "durationTicks": 90,
		  "midi": 52,
		  "name": "E3",
		  "ticks": 40920,
		  "time": 45.265448250000006,
		  "velocity": 0.5984251968503937
		},
		{
		  "duration": 0.1327432499999972,
		  "durationTicks": 120,
		  "midi": 64,
		  "name": "E4",
		  "ticks": 41040,
		  "time": 45.3981915,
		  "velocity": 0.7480314960629921
		},
		{
		  "duration": 0.09955743750000323,
		  "durationTicks": 90,
		  "midi": 52,
		  "name": "E3",
		  "ticks": 41160,
		  "time": 45.53093475,
		  "velocity": 0.5984251968503937
		},
		{
		  "duration": 0.09955743749999613,
		  "durationTicks": 90,
		  "midi": 52,
		  "name": "E3",
		  "ticks": 41280,
		  "time": 45.663678000000004,
		  "velocity": 0.5984251968503937
		},
		{
		  "duration": 0.1327432500000043,
		  "durationTicks": 120,
		  "midi": 67,
		  "name": "G4",
		  "ticks": 41400,
		  "time": 45.79642125,
		  "velocity": 0.7480314960629921
		},
		{
		  "duration": 0.09955743749999613,
		  "durationTicks": 90,
		  "midi": 52,
		  "name": "E3",
		  "ticks": 41520,
		  "time": 45.929164500000006,
		  "velocity": 0.5984251968503937
		},
		{
		  "duration": 0.09955743749999613,
		  "durationTicks": 90,
		  "midi": 52,
		  "name": "E3",
		  "ticks": 41640,
		  "time": 46.06190775,
		  "velocity": 0.5984251968503937
		},
		{
		  "duration": 0.1327432500000043,
		  "durationTicks": 120,
		  "midi": 69,
		  "name": "A4",
		  "ticks": 41760,
		  "time": 46.194651,
		  "velocity": 0.7480314960629921
		},
		{
		  "duration": 0.1327432499999972,
		  "durationTicks": 120,
		  "midi": 66,
		  "name": "F#4",
		  "ticks": 41880,
		  "time": 46.327394250000005,
		  "velocity": 0.7480314960629921
		},
		{
		  "duration": 0.09955743750000323,
		  "durationTicks": 90,
		  "midi": 52,
		  "name": "E3",
		  "ticks": 42000,
		  "time": 46.4601375,
		  "velocity": 0.5984251968503937
		},
		{
		  "duration": 0.1327432500000043,
		  "durationTicks": 120,
		  "midi": 62,
		  "name": "D4",
		  "ticks": 42120,
		  "time": 46.59288075,
		  "velocity": 0.7480314960629921
		},
		{
		  "duration": 0.1327432499999972,
		  "durationTicks": 120,
		  "midi": 64,
		  "name": "E4",
		  "ticks": 42240,
		  "time": 46.725624,
		  "velocity": 0.7480314960629921
		},
		{
		  "duration": 0.09955743750000323,
		  "durationTicks": 90,
		  "midi": 52,
		  "name": "E3",
		  "ticks": 42360,
		  "time": 46.85836725,
		  "velocity": 0.5984251968503937
		},
		{
		  "duration": 0.09955743749999613,
		  "durationTicks": 90,
		  "midi": 52,
		  "name": "E3",
		  "ticks": 42480,
		  "time": 46.991110500000005,
		  "velocity": 0.5984251968503937
		},
		{
		  "duration": 0.1327432499999972,
		  "durationTicks": 120,
		  "midi": 67,
		  "name": "G4",
		  "ticks": 42600,
		  "time": 47.12385375,
		  "velocity": 0.7480314960629921
		},
		{
		  "duration": 0.09955743750000323,
		  "durationTicks": 90,
		  "midi": 52,
		  "name": "E3",
		  "ticks": 42720,
		  "time": 47.256597,
		  "velocity": 0.5984251968503937
		},
		{
		  "duration": 0.09955743749999613,
		  "durationTicks": 90,
		  "midi": 52,
		  "name": "E3",
		  "ticks": 42840,
		  "time": 47.389340250000004,
		  "velocity": 0.5984251968503937
		},
		{
		  "duration": 0.1327432500000043,
		  "durationTicks": 120,
		  "midi": 64,
		  "name": "E4",
		  "ticks": 42960,
		  "time": 47.5220835,
		  "velocity": 0.7480314960629921
		},
		{
		  "duration": 0.09955743749999613,
		  "durationTicks": 90,
		  "midi": 52,
		  "name": "E3",
		  "ticks": 43080,
		  "time": 47.654826750000005,
		  "velocity": 0.5984251968503937
		},
		{
		  "duration": 0.09955743750000323,
		  "durationTicks": 90,
		  "midi": 52,
		  "name": "E3",
		  "ticks": 43200,
		  "time": 47.78757,
		  "velocity": 0.5984251968503937
		},
		{
		  "duration": 0.1327432500000043,
		  "durationTicks": 120,
		  "midi": 67,
		  "name": "G4",
		  "ticks": 43320,
		  "time": 47.92031325,
		  "velocity": 0.7480314960629921
		},
		{
		  "duration": 0.09955743749999613,
		  "durationTicks": 90,
		  "midi": 52,
		  "name": "E3",
		  "ticks": 43440,
		  "time": 48.053056500000004,
		  "velocity": 0.5984251968503937
		},
		{
		  "duration": 0.09955743750000323,
		  "durationTicks": 90,
		  "midi": 52,
		  "name": "E3",
		  "ticks": 43560,
		  "time": 48.18579975,
		  "velocity": 0.5984251968503937
		},
		{
		  "duration": 0.1327432499999972,
		  "durationTicks": 120,
		  "midi": 66,
		  "name": "F#4",
		  "ticks": 43680,
		  "time": 48.318543000000005,
		  "velocity": 0.7480314960629921
		},
		{
		  "duration": 0.09955743750000323,
		  "durationTicks": 90,
		  "midi": 52,
		  "name": "E3",
		  "ticks": 43800,
		  "time": 48.45128625,
		  "velocity": 0.5984251968503937
		},
		{
		  "duration": 0.1327432500000043,
		  "durationTicks": 120,
		  "midi": 62,
		  "name": "D4",
		  "ticks": 43920,
		  "time": 48.5840295,
		  "velocity": 0.7480314960629921
		},
		{
		  "duration": 0.09955743749999613,
		  "durationTicks": 90,
		  "midi": 52,
		  "name": "E3",
		  "ticks": 44040,
		  "time": 48.716772750000004,
		  "velocity": 0.5984251968503937
		},
		{
		  "duration": 0.1327432500000043,
		  "durationTicks": 120,
		  "midi": 60,
		  "name": "C4",
		  "ticks": 44160,
		  "time": 48.849516,
		  "velocity": 0.7480314960629921
		},
		{
		  "duration": 0.09955743749999613,
		  "durationTicks": 90,
		  "midi": 48,
		  "name": "C3",
		  "ticks": 44280,
		  "time": 48.982259250000006,
		  "velocity": 0.5984251968503937
		},
		{
		  "duration": 0.09955743750000323,
		  "durationTicks": 90,
		  "midi": 48,
		  "name": "C3",
		  "ticks": 44400,
		  "time": 49.1150025,
		  "velocity": 0.5984251968503937
		},
		{
		  "duration": 0.1327432500000043,
		  "durationTicks": 120,
		  "midi": 67,
		  "name": "G4",
		  "ticks": 44520,
		  "time": 49.24774575,
		  "velocity": 0.7480314960629921
		},
		{
		  "duration": 0.09955743749999613,
		  "durationTicks": 90,
		  "midi": 48,
		  "name": "C3",
		  "ticks": 44640,
		  "time": 49.380489000000004,
		  "velocity": 0.5984251968503937
		},
		{
		  "duration": 0.1327432500000043,
		  "durationTicks": 120,
		  "midi": 66,
		  "name": "F#4",
		  "ticks": 44760,
		  "time": 49.51323225,
		  "velocity": 0.7480314960629921
		},
		{
		  "duration": 0.09955743749999613,
		  "durationTicks": 90,
		  "midi": 48,
		  "name": "C3",
		  "ticks": 44880,
		  "time": 49.645975500000006,
		  "velocity": 0.5984251968503937
		},
		{
		  "duration": 0.1327432499999972,
		  "durationTicks": 120,
		  "midi": 60,
		  "name": "C4",
		  "ticks": 45000,
		  "time": 49.77871875,
		  "velocity": 0.7480314960629921
		},
		{
		  "duration": 0.09955743750000323,
		  "durationTicks": 90,
		  "midi": 50,
		  "name": "D3",
		  "ticks": 45120,
		  "time": 49.911462,
		  "velocity": 0.5984251968503937
		},
		{
		  "duration": 0.1327432499999972,
		  "durationTicks": 120,
		  "midi": 62,
		  "name": "D4",
		  "ticks": 45240,
		  "time": 50.044205250000005,
		  "velocity": 0.7480314960629921
		},
		{
		  "duration": 0.09955743750000323,
		  "durationTicks": 90,
		  "midi": 50,
		  "name": "D3",
		  "ticks": 45360,
		  "time": 50.1769485,
		  "velocity": 0.5984251968503937
		},
		{
		  "duration": 0.1327432499999972,
		  "durationTicks": 120,
		  "midi": 62,
		  "name": "D4",
		  "ticks": 45480,
		  "time": 50.309691750000006,
		  "velocity": 0.7480314960629921
		},
		{
		  "duration": 0.1327432499999972,
		  "durationTicks": 120,
		  "midi": 67,
		  "name": "G4",
		  "ticks": 45600,
		  "time": 50.442435,
		  "velocity": 0.7480314960629921
		},
		{
		  "duration": 0.09955743750000323,
		  "durationTicks": 90,
		  "midi": 50,
		  "name": "D3",
		  "ticks": 45720,
		  "time": 50.57517825,
		  "velocity": 0.5984251968503937
		},
		{
		  "duration": 0.1327432499999972,
		  "durationTicks": 120,
		  "midi": 66,
		  "name": "F#4",
		  "ticks": 45840,
		  "time": 50.707921500000005,
		  "velocity": 0.7480314960629921
		},
		{
		  "duration": 0.09955743750000323,
		  "durationTicks": 90,
		  "midi": 50,
		  "name": "D3",
		  "ticks": 45960,
		  "time": 50.84066475,
		  "velocity": 0.5984251968503937
		},
		{
		  "duration": 0.1327432499999972,
		  "durationTicks": 120,
		  "midi": 64,
		  "name": "E4",
		  "ticks": 46080,
		  "time": 50.973408000000006,
		  "velocity": 0.7480314960629921
		},
		{
		  "duration": 0.09955743749999613,
		  "durationTicks": 90,
		  "midi": 52,
		  "name": "E3",
		  "ticks": 46200,
		  "time": 51.10615125,
		  "velocity": 0.5984251968503937
		},
		{
		  "duration": 0.09955743750000323,
		  "durationTicks": 90,
		  "midi": 52,
		  "name": "E3",
		  "ticks": 46320,
		  "time": 51.2388945,
		  "velocity": 0.5984251968503937
		},
		{
		  "duration": 0.1327432499999972,
		  "durationTicks": 120,
		  "midi": 67,
		  "name": "G4",
		  "ticks": 46440,
		  "time": 51.371637750000005,
		  "velocity": 0.7480314960629921
		},
		{
		  "duration": 0.09955743750000323,
		  "durationTicks": 90,
		  "midi": 52,
		  "name": "E3",
		  "ticks": 46560,
		  "time": 51.504381,
		  "velocity": 0.5984251968503937
		},
		{
		  "duration": 0.09955743750000323,
		  "durationTicks": 90,
		  "midi": 52,
		  "name": "E3",
		  "ticks": 46680,
		  "time": 51.63712425,
		  "velocity": 0.5984251968503937
		},
		{
		  "duration": 0.1327432499999972,
		  "durationTicks": 120,
		  "midi": 64,
		  "name": "E4",
		  "ticks": 46800,
		  "time": 51.769867500000004,
		  "velocity": 0.7480314960629921
		},
		{
		  "duration": 0.09955743750000323,
		  "durationTicks": 90,
		  "midi": 52,
		  "name": "E3",
		  "ticks": 46920,
		  "time": 51.90261075,
		  "velocity": 0.5984251968503937
		},
		{
		  "duration": 0.09955743749999613,
		  "durationTicks": 90,
		  "midi": 52,
		  "name": "E3",
		  "ticks": 47040,
		  "time": 52.035354000000005,
		  "velocity": 0.5984251968503937
		},
		{
		  "duration": 0.1327432499999972,
		  "durationTicks": 120,
		  "midi": 67,
		  "name": "G4",
		  "ticks": 47160,
		  "time": 52.16809725,
		  "velocity": 0.7480314960629921
		},
		{
		  "duration": 0.09955743750000323,
		  "durationTicks": 90,
		  "midi": 52,
		  "name": "E3",
		  "ticks": 47280,
		  "time": 52.3008405,
		  "velocity": 0.5984251968503937
		},
		{
		  "duration": 0.09955743749999613,
		  "durationTicks": 90,
		  "midi": 52,
		  "name": "E3",
		  "ticks": 47400,
		  "time": 52.433583750000004,
		  "velocity": 0.5984251968503937
		},
		{
		  "duration": 0.1327432500000043,
		  "durationTicks": 120,
		  "midi": 66,
		  "name": "F#4",
		  "ticks": 47520,
		  "time": 52.566327,
		  "velocity": 0.7480314960629921
		},
		{
		  "duration": 0.09955743749999613,
		  "durationTicks": 90,
		  "midi": 52,
		  "name": "E3",
		  "ticks": 47640,
		  "time": 52.699070250000005,
		  "velocity": 0.5984251968503937
		},
		{
		  "duration": 0.1327432499999972,
		  "durationTicks": 120,
		  "midi": 62,
		  "name": "D4",
		  "ticks": 47760,
		  "time": 52.8318135,
		  "velocity": 0.7480314960629921
		},
		{
		  "duration": 0.09955743750000323,
		  "durationTicks": 90,
		  "midi": 52,
		  "name": "E3",
		  "ticks": 47880,
		  "time": 52.96455675,
		  "velocity": 0.5984251968503937
		},
		{
		  "duration": 0.1327432499999972,
		  "durationTicks": 120,
		  "midi": 64,
		  "name": "E4",
		  "ticks": 48000,
		  "time": 53.097300000000004,
		  "velocity": 0.7480314960629921
		},
		{
		  "duration": 0.09955743750000323,
		  "durationTicks": 90,
		  "midi": 52,
		  "name": "E3",
		  "ticks": 48120,
		  "time": 53.23004325,
		  "velocity": 0.5984251968503937
		},
		{
		  "duration": 0.09955743749999613,
		  "durationTicks": 90,
		  "midi": 52,
		  "name": "E3",
		  "ticks": 48240,
		  "time": 53.362786500000006,
		  "velocity": 0.5984251968503937
		},
		{
		  "duration": 0.1327432499999972,
		  "durationTicks": 120,
		  "midi": 67,
		  "name": "G4",
		  "ticks": 48360,
		  "time": 53.49552975,
		  "velocity": 0.7480314960629921
		},
		{
		  "duration": 0.09955743750000323,
		  "durationTicks": 90,
		  "midi": 52,
		  "name": "E3",
		  "ticks": 48480,
		  "time": 53.628273,
		  "velocity": 0.5984251968503937
		},
		{
		  "duration": 0.09955743749999613,
		  "durationTicks": 90,
		  "midi": 52,
		  "name": "E3",
		  "ticks": 48600,
		  "time": 53.761016250000004,
		  "velocity": 0.5984251968503937
		},
		{
		  "duration": 0.1327432500000043,
		  "durationTicks": 120,
		  "midi": 64,
		  "name": "E4",
		  "ticks": 48720,
		  "time": 53.8937595,
		  "velocity": 0.7480314960629921
		},
		{
		  "duration": 0.09955743749999613,
		  "durationTicks": 90,
		  "midi": 52,
		  "name": "E3",
		  "ticks": 48840,
		  "time": 54.026502750000006,
		  "velocity": 0.5984251968503937
		},
		{
		  "duration": 0.09955743750000323,
		  "durationTicks": 90,
		  "midi": 52,
		  "name": "E3",
		  "ticks": 48960,
		  "time": 54.159246,
		  "velocity": 0.5984251968503937
		},
		{
		  "duration": 0.1327432500000043,
		  "durationTicks": 120,
		  "midi": 67,
		  "name": "G4",
		  "ticks": 49080,
		  "time": 54.29198925,
		  "velocity": 0.7480314960629921
		},
		{
		  "duration": 0.09955743749999613,
		  "durationTicks": 90,
		  "midi": 52,
		  "name": "E3",
		  "ticks": 49200,
		  "time": 54.424732500000005,
		  "velocity": 0.5984251968503937
		},
		{
		  "duration": 0.09955743750000323,
		  "durationTicks": 90,
		  "midi": 52,
		  "name": "E3",
		  "ticks": 49320,
		  "time": 54.55747575,
		  "velocity": 0.5984251968503937
		},
		{
		  "duration": 0.1327432499999972,
		  "durationTicks": 120,
		  "midi": 69,
		  "name": "A4",
		  "ticks": 49440,
		  "time": 54.690219000000006,
		  "velocity": 0.7480314960629921
		},
		{
		  "duration": 0.1327432499999972,
		  "durationTicks": 120,
		  "midi": 66,
		  "name": "F#4",
		  "ticks": 49560,
		  "time": 54.82296225,
		  "velocity": 0.7480314960629921
		},
		{
		  "duration": 0.09955743750000323,
		  "durationTicks": 90,
		  "midi": 52,
		  "name": "E3",
		  "ticks": 49680,
		  "time": 54.9557055,
		  "velocity": 0.5984251968503937
		},
		{
		  "duration": 0.1327432499999972,
		  "durationTicks": 120,
		  "midi": 62,
		  "name": "D4",
		  "ticks": 49800,
		  "time": 55.088448750000005,
		  "velocity": 0.7480314960629921
		},
		{
		  "duration": 0.1327432500000043,
		  "durationTicks": 120,
		  "midi": 64,
		  "name": "E4",
		  "ticks": 49920,
		  "time": 55.221192,
		  "velocity": 0.7480314960629921
		},
		{
		  "duration": 0.09955743749999613,
		  "durationTicks": 90,
		  "midi": 52,
		  "name": "E3",
		  "ticks": 50040,
		  "time": 55.353935250000006,
		  "velocity": 0.5984251968503937
		},
		{
		  "duration": 0.09955743749999613,
		  "durationTicks": 90,
		  "midi": 52,
		  "name": "E3",
		  "ticks": 50160,
		  "time": 55.486678500000004,
		  "velocity": 0.5984251968503937
		},
		{
		  "duration": 0.1327432500000043,
		  "durationTicks": 120,
		  "midi": 67,
		  "name": "G4",
		  "ticks": 50280,
		  "time": 55.61942175,
		  "velocity": 0.7480314960629921
		},
		{
		  "duration": 0.09955743749999613,
		  "durationTicks": 90,
		  "midi": 52,
		  "name": "E3",
		  "ticks": 50400,
		  "time": 55.752165000000005,
		  "velocity": 0.5984251968503937
		},
		{
		  "duration": 0.09955743750000323,
		  "durationTicks": 90,
		  "midi": 52,
		  "name": "E3",
		  "ticks": 50520,
		  "time": 55.88490825,
		  "velocity": 0.5984251968503937
		},
		{
		  "duration": 0.1327432500000043,
		  "durationTicks": 120,
		  "midi": 64,
		  "name": "E4",
		  "ticks": 50640,
		  "time": 56.0176515,
		  "velocity": 0.7480314960629921
		},
		{
		  "duration": 0.09955743749999613,
		  "durationTicks": 90,
		  "midi": 52,
		  "name": "E3",
		  "ticks": 50760,
		  "time": 56.150394750000004,
		  "velocity": 0.5984251968503937
		},
		{
		  "duration": 0.09955743750000323,
		  "durationTicks": 90,
		  "midi": 52,
		  "name": "E3",
		  "ticks": 50880,
		  "time": 56.283138,
		  "velocity": 0.5984251968503937
		},
		{
		  "duration": 0.1327432499999972,
		  "durationTicks": 120,
		  "midi": 67,
		  "name": "G4",
		  "ticks": 51000,
		  "time": 56.415881250000005,
		  "velocity": 0.7480314960629921
		},
		{
		  "duration": 0.09955743750000323,
		  "durationTicks": 90,
		  "midi": 52,
		  "name": "E3",
		  "ticks": 51120,
		  "time": 56.5486245,
		  "velocity": 0.5984251968503937
		},
		{
		  "duration": 0.09955743750000323,
		  "durationTicks": 90,
		  "midi": 52,
		  "name": "E3",
		  "ticks": 51240,
		  "time": 56.68136775,
		  "velocity": 0.5984251968503937
		},
		{
		  "duration": 0.1327432499999972,
		  "durationTicks": 120,
		  "midi": 66,
		  "name": "F#4",
		  "ticks": 51360,
		  "time": 56.814111000000004,
		  "velocity": 0.7480314960629921
		},
		{
		  "duration": 0.09955743750000323,
		  "durationTicks": 90,
		  "midi": 52,
		  "name": "E3",
		  "ticks": 51480,
		  "time": 56.94685425,
		  "velocity": 0.5984251968503937
		},
		{
		  "duration": 0.1327432499999972,
		  "durationTicks": 120,
		  "midi": 62,
		  "name": "D4",
		  "ticks": 51600,
		  "time": 57.079597500000006,
		  "velocity": 0.7480314960629921
		},
		{
		  "duration": 0.09955743750000323,
		  "durationTicks": 90,
		  "midi": 52,
		  "name": "E3",
		  "ticks": 51720,
		  "time": 57.21234075,
		  "velocity": 0.5984251968503937
		},
		{
		  "duration": 0.1327432500000043,
		  "durationTicks": 120,
		  "midi": 60,
		  "name": "C4",
		  "ticks": 51840,
		  "time": 57.345084,
		  "velocity": 0.7480314960629921
		},
		{
		  "duration": 0.09955743749999613,
		  "durationTicks": 90,
		  "midi": 48,
		  "name": "C3",
		  "ticks": 51960,
		  "time": 57.477827250000004,
		  "velocity": 0.5984251968503937
		},
		{
		  "duration": 0.09955743750000323,
		  "durationTicks": 90,
		  "midi": 48,
		  "name": "C3",
		  "ticks": 52080,
		  "time": 57.6105705,
		  "velocity": 0.5984251968503937
		},
		{
		  "duration": 0.1327432499999972,
		  "durationTicks": 120,
		  "midi": 67,
		  "name": "G4",
		  "ticks": 52200,
		  "time": 57.743313750000006,
		  "velocity": 0.7480314960629921
		},
		{
		  "duration": 0.09955743750000323,
		  "durationTicks": 90,
		  "midi": 48,
		  "name": "C3",
		  "ticks": 52320,
		  "time": 57.876057,
		  "velocity": 0.5984251968503937
		},
		{
		  "duration": 0.1327432500000043,
		  "durationTicks": 120,
		  "midi": 66,
		  "name": "F#4",
		  "ticks": 52440,
		  "time": 58.00880025,
		  "velocity": 0.7480314960629921
		},
		{
		  "duration": 0.09955743749999613,
		  "durationTicks": 90,
		  "midi": 48,
		  "name": "C3",
		  "ticks": 52560,
		  "time": 58.141543500000004,
		  "velocity": 0.5984251968503937
		},
		{
		  "duration": 0.1327432500000043,
		  "durationTicks": 120,
		  "midi": 60,
		  "name": "C4",
		  "ticks": 52680,
		  "time": 58.27428675,
		  "velocity": 0.7480314960629921
		},
		{
		  "duration": 0.09955743749999613,
		  "durationTicks": 90,
		  "midi": 50,
		  "name": "D3",
		  "ticks": 52800,
		  "time": 58.407030000000006,
		  "velocity": 0.5984251968503937
		},
		{
		  "duration": 0.1327432499999972,
		  "durationTicks": 120,
		  "midi": 62,
		  "name": "D4",
		  "ticks": 52920,
		  "time": 58.53977325,
		  "velocity": 0.7480314960629921
		},
		{
		  "duration": 0.09955743750000323,
		  "durationTicks": 90,
		  "midi": 50,
		  "name": "D3",
		  "ticks": 53040,
		  "time": 58.6725165,
		  "velocity": 0.5984251968503937
		},
		{
		  "duration": 0.1327432499999972,
		  "durationTicks": 120,
		  "midi": 62,
		  "name": "D4",
		  "ticks": 53160,
		  "time": 58.805259750000005,
		  "velocity": 0.7480314960629921
		},
		{
		  "duration": 0.1327432500000043,
		  "durationTicks": 120,
		  "midi": 67,
		  "name": "G4",
		  "ticks": 53280,
		  "time": 58.938003,
		  "velocity": 0.7480314960629921
		},
		{
		  "duration": 0.09955743749999613,
		  "durationTicks": 90,
		  "midi": 50,
		  "name": "D3",
		  "ticks": 53400,
		  "time": 59.070746250000006,
		  "velocity": 0.5984251968503937
		},
		{
		  "duration": 0.1327432499999972,
		  "durationTicks": 120,
		  "midi": 66,
		  "name": "F#4",
		  "ticks": 53520,
		  "time": 59.2034895,
		  "velocity": 0.7480314960629921
		},
		{
		  "duration": 0.09955743750000323,
		  "durationTicks": 90,
		  "midi": 50,
		  "name": "D3",
		  "ticks": 53640,
		  "time": 59.33623275,
		  "velocity": 0.5984251968503937
		}
	  ]
	},
	{
	  "channel": 0,
	  "controlChanges": {
		"6": [
		  {
			"number": 6,
			"ticks": 0,
			"time": 0,
			"value": 0.09448818897637795
		  },
		  {
			"number": 6,
			"ticks": 0,
			"time": 0,
			"value": 0.5039370078740157
		  },
		  {
			"number": 6,
			"ticks": 0,
			"time": 0,
			"value": 0.5039370078740157
		  }
		],
		"38": [
		  {
			"number": 38,
			"ticks": 0,
			"time": 0,
			"value": 0
		  }
		],
		"100": [
		  {
			"number": 100,
			"ticks": 0,
			"time": 0,
			"value": 0
		  },
		  {
			"number": 100,
			"ticks": 0,
			"time": 0,
			"value": 0.007874015748031496
		  },
		  {
			"number": 100,
			"ticks": 0,
			"time": 0,
			"value": 1
		  },
		  {
			"number": 100,
			"ticks": 0,
			"time": 0,
			"value": 0.015748031496062992
		  },
		  {
			"number": 100,
			"ticks": 0,
			"time": 0,
			"value": 1
		  }
		],
		"101": [
		  {
			"number": 101,
			"ticks": 0,
			"time": 0,
			"value": 0
		  },
		  {
			"number": 101,
			"ticks": 0,
			"time": 0,
			"value": 0
		  },
		  {
			"number": 101,
			"ticks": 0,
			"time": 0,
			"value": 1
		  },
		  {
			"number": 101,
			"ticks": 0,
			"time": 0,
			"value": 0
		  },
		  {
			"number": 101,
			"ticks": 0,
			"time": 0,
			"value": 1
		  }
		]
	  },
	  "pitchBends": [
		{
		  "ticks": 0,
		  "time": 0,
		  "value": 0
		}
	  ],
	  "instrument": {
		"family": "piano",
		"number": 0,
		"name": "acoustic grand piano"
	  },
	  "name": "Right Guitar",
	  "notes": [],
	  "endOfTrackTicks": 53760
	},
	{
	  "channel": 0,
	  "controlChanges": {
		"6": [
		  {
			"number": 6,
			"ticks": 0,
			"time": 0,
			"value": 0.09448818897637795
		  },
		  {
			"number": 6,
			"ticks": 0,
			"time": 0,
			"value": 0.5039370078740157
		  },
		  {
			"number": 6,
			"ticks": 0,
			"time": 0,
			"value": 0.5039370078740157
		  }
		],
		"38": [
		  {
			"number": 38,
			"ticks": 0,
			"time": 0,
			"value": 0
		  }
		],
		"100": [
		  {
			"number": 100,
			"ticks": 0,
			"time": 0,
			"value": 0
		  },
		  {
			"number": 100,
			"ticks": 0,
			"time": 0,
			"value": 0.007874015748031496
		  },
		  {
			"number": 100,
			"ticks": 0,
			"time": 0,
			"value": 1
		  },
		  {
			"number": 100,
			"ticks": 0,
			"time": 0,
			"value": 0.015748031496062992
		  },
		  {
			"number": 100,
			"ticks": 0,
			"time": 0,
			"value": 1
		  }
		],
		"101": [
		  {
			"number": 101,
			"ticks": 0,
			"time": 0,
			"value": 0
		  },
		  {
			"number": 101,
			"ticks": 0,
			"time": 0,
			"value": 0
		  },
		  {
			"number": 101,
			"ticks": 0,
			"time": 0,
			"value": 1
		  },
		  {
			"number": 101,
			"ticks": 0,
			"time": 0,
			"value": 0
		  },
		  {
			"number": 101,
			"ticks": 0,
			"time": 0,
			"value": 1
		  }
		]
	  },
	  "pitchBends": [
		{
		  "ticks": 0,
		  "time": 0,
		  "value": 0
		}
	  ],
	  "instrument": {
		"family": "piano",
		"number": 0,
		"name": "acoustic grand piano"
	  },
	  "name": "",
	  "notes": []
	},
	{
	  "channel": 0,
	  "controlChanges": {
		"0": [
		  {
			"number": 0,
			"ticks": 0,
			"time": 0,
			"value": 0
		  }
		],
		"7": [
		  {
			"number": 7,
			"ticks": 0,
			"time": 0,
			"value": 0.5039370078740157
		  }
		],
		"10": [
		  {
			"number": 10,
			"ticks": 0,
			"time": 0,
			"value": 1
		  }
		],
		"91": [
		  {
			"number": 91,
			"ticks": 0,
			"time": 0,
			"value": 0
		  }
		],
		"92": [
		  {
			"number": 92,
			"ticks": 0,
			"time": 0,
			"value": 0
		  }
		],
		"93": [
		  {
			"number": 93,
			"ticks": 0,
			"time": 0,
			"value": 0
		  }
		],
		"95": [
		  {
			"number": 95,
			"ticks": 0,
			"time": 0,
			"value": 0
		  }
		]
	  },
	  "pitchBends": [],
	  "instrument": {
		"family": "guitar",
		"number": 29,
		"name": "overdriven guitar"
	  },
	  "name": "",
	  "notes": []
	},
	{
	  "channel": 2,
	  "controlChanges": {
		"0": [
		  {
			"number": 0,
			"ticks": 0,
			"time": 0,
			"value": 0
		  }
		],
		"7": [
		  {
			"number": 7,
			"ticks": 0,
			"time": 0,
			"value": 0.5039370078740157
		  }
		],
		"10": [
		  {
			"number": 10,
			"ticks": 0,
			"time": 0,
			"value": 1
		  }
		],
		"91": [
		  {
			"number": 91,
			"ticks": 0,
			"time": 0,
			"value": 0
		  }
		],
		"92": [
		  {
			"number": 92,
			"ticks": 0,
			"time": 0,
			"value": 0
		  }
		],
		"93": [
		  {
			"number": 93,
			"ticks": 0,
			"time": 0,
			"value": 0
		  }
		],
		"95": [
		  {
			"number": 95,
			"ticks": 0,
			"time": 0,
			"value": 0
		  }
		]
	  },
	  "pitchBends": [],
	  "instrument": {
		"family": "guitar",
		"number": 29,
		"name": "overdriven guitar"
	  },
	  "name": "",
	  "notes": [
		{
		  "duration": 0.7964595000000001,
		  "durationTicks": 720,
		  "midi": 52,
		  "name": "E3",
		  "ticks": 0,
		  "time": 0,
		  "velocity": 0.7480314960629921
		},
		{
		  "duration": 0.7964595000000001,
		  "durationTicks": 720,
		  "midi": 47,
		  "name": "B2",
		  "ticks": 0,
		  "time": 0,
		  "velocity": 0.7480314960629921
		},
		{
		  "duration": 0.7964595000000001,
		  "durationTicks": 720,
		  "midi": 40,
		  "name": "E2",
		  "ticks": 0,
		  "time": 0,
		  "velocity": 0.7480314960629921
		},
		{
		  "duration": 0.2654865000000002,
		  "durationTicks": 240,
		  "midi": 52,
		  "name": "E3",
		  "ticks": 1920,
		  "time": 2.123892,
		  "velocity": 0.7480314960629921
		},
		{
		  "duration": 0.2654865000000002,
		  "durationTicks": 240,
		  "midi": 47,
		  "name": "B2",
		  "ticks": 1920,
		  "time": 2.123892,
		  "velocity": 0.7480314960629921
		},
		{
		  "duration": 0.2654865000000002,
		  "durationTicks": 240,
		  "midi": 40,
		  "name": "E2",
		  "ticks": 1920,
		  "time": 2.123892,
		  "velocity": 0.7480314960629921
		},
		{
		  "duration": 0.26548649999999974,
		  "durationTicks": 240,
		  "midi": 52,
		  "name": "E3",
		  "ticks": 2160,
		  "time": 2.3893785000000003,
		  "velocity": 0.7480314960629921
		},
		{
		  "duration": 0.26548649999999974,
		  "durationTicks": 240,
		  "midi": 47,
		  "name": "B2",
		  "ticks": 2160,
		  "time": 2.3893785000000003,
		  "velocity": 0.7480314960629921
		},
		{
		  "duration": 0.26548649999999974,
		  "durationTicks": 240,
		  "midi": 40,
		  "name": "E2",
		  "ticks": 2160,
		  "time": 2.3893785000000003,
		  "velocity": 0.7480314960629921
		},
		{
		  "duration": 0.13274324999999987,
		  "durationTicks": 120,
		  "midi": 57,
		  "name": "A3",
		  "ticks": 3360,
		  "time": 3.7168110000000003,
		  "velocity": 0.7480314960629921
		},
		{
		  "duration": 0.13274324999999987,
		  "durationTicks": 120,
		  "midi": 54,
		  "name": "F#3",
		  "ticks": 3480,
		  "time": 3.84955425,
		  "velocity": 0.7480314960629921
		},
		{
		  "duration": 0.09955743750000012,
		  "durationTicks": 90,
		  "midi": 40,
		  "name": "E2",
		  "ticks": 3600,
		  "time": 3.9822975,
		  "velocity": 0.5984251968503937
		},
		{
		  "duration": 0.13274324999999987,
		  "durationTicks": 120,
		  "midi": 50,
		  "name": "D3",
		  "ticks": 3720,
		  "time": 4.11504075,
		  "velocity": 0.7480314960629921
		},
		{
		  "duration": 0.5309730000000004,
		  "durationTicks": 480,
		  "midi": 52,
		  "name": "E3",
		  "ticks": 3840,
		  "time": 4.247784,
		  "velocity": 0.7480314960629921
		},
		{
		  "duration": 0.5309730000000004,
		  "durationTicks": 480,
		  "midi": 47,
		  "name": "B2",
		  "ticks": 3840,
		  "time": 4.247784,
		  "velocity": 0.7480314960629921
		},
		{
		  "duration": 0.5309730000000004,
		  "durationTicks": 480,
		  "midi": 40,
		  "name": "E2",
		  "ticks": 3840,
		  "time": 4.247784,
		  "velocity": 0.7480314960629921
		},
		{
		  "duration": 0.5309730000000004,
		  "durationTicks": 480,
		  "midi": 62,
		  "name": "D4",
		  "ticks": 5280,
		  "time": 5.840703,
		  "velocity": 0.7480314960629921
		},
		{
		  "duration": 0.5309730000000004,
		  "durationTicks": 480,
		  "midi": 57,
		  "name": "A3",
		  "ticks": 5280,
		  "time": 5.840703,
		  "velocity": 0.7480314960629921
		},
		{
		  "duration": 0.5309730000000004,
		  "durationTicks": 480,
		  "midi": 50,
		  "name": "D3",
		  "ticks": 5280,
		  "time": 5.840703,
		  "velocity": 0.7480314960629921
		},
		{
		  "duration": 0.13274324999999987,
		  "durationTicks": 120,
		  "midi": 64,
		  "name": "E4",
		  "ticks": 5760,
		  "time": 6.371676000000001,
		  "velocity": 0.7480314960629921
		},
		{
		  "duration": 0.09955743749999968,
		  "durationTicks": 90,
		  "midi": 48,
		  "name": "C3",
		  "ticks": 5880,
		  "time": 6.504419250000001,
		  "velocity": 0.5984251968503937
		},
		{
		  "duration": 0.09955743749999968,
		  "durationTicks": 90,
		  "midi": 48,
		  "name": "C3",
		  "ticks": 6000,
		  "time": 6.6371625000000005,
		  "velocity": 0.5984251968503937
		},
		{
		  "duration": 0.13274324999999987,
		  "durationTicks": 120,
		  "midi": 67,
		  "name": "G4",
		  "ticks": 6120,
		  "time": 6.76990575,
		  "velocity": 0.7480314960629921
		},
		{
		  "duration": 0.09955743749999968,
		  "durationTicks": 90,
		  "midi": 48,
		  "name": "C3",
		  "ticks": 6240,
		  "time": 6.902649,
		  "velocity": 0.5984251968503937
		},
		{
		  "duration": 0.13274324999999987,
		  "durationTicks": 120,
		  "midi": 66,
		  "name": "F#4",
		  "ticks": 6360,
		  "time": 7.03539225,
		  "velocity": 0.7480314960629921
		},
		{
		  "duration": 0.09955743750000057,
		  "durationTicks": 90,
		  "midi": 48,
		  "name": "C3",
		  "ticks": 6480,
		  "time": 7.1681355,
		  "velocity": 0.5984251968503937
		},
		{
		  "duration": 0.13274324999999987,
		  "durationTicks": 120,
		  "midi": 60,
		  "name": "C4",
		  "ticks": 6600,
		  "time": 7.300878750000001,
		  "velocity": 0.7480314960629921
		},
		{
		  "duration": 0.09955743749999968,
		  "durationTicks": 90,
		  "midi": 50,
		  "name": "D3",
		  "ticks": 6720,
		  "time": 7.433622000000001,
		  "velocity": 0.5984251968503937
		},
		{
		  "duration": 0.13274324999999987,
		  "durationTicks": 120,
		  "midi": 62,
		  "name": "D4",
		  "ticks": 6840,
		  "time": 7.5663652500000005,
		  "velocity": 0.7480314960629921
		},
		{
		  "duration": 0.09955743749999968,
		  "durationTicks": 90,
		  "midi": 50,
		  "name": "D3",
		  "ticks": 6960,
		  "time": 7.6991085,
		  "velocity": 0.5984251968503937
		},
		{
		  "duration": 0.13274324999999987,
		  "durationTicks": 120,
		  "midi": 62,
		  "name": "D4",
		  "ticks": 7080,
		  "time": 7.83185175,
		  "velocity": 0.7480314960629921
		},
		{
		  "duration": 0.13274324999999987,
		  "durationTicks": 120,
		  "midi": 67,
		  "name": "G4",
		  "ticks": 7200,
		  "time": 7.964595,
		  "velocity": 0.7480314960629921
		},
		{
		  "duration": 0.09955743749999968,
		  "durationTicks": 90,
		  "midi": 50,
		  "name": "D3",
		  "ticks": 7320,
		  "time": 8.09733825,
		  "velocity": 0.5984251968503937
		},
		{
		  "duration": 0.13274324999999898,
		  "durationTicks": 120,
		  "midi": 66,
		  "name": "F#4",
		  "ticks": 7440,
		  "time": 8.2300815,
		  "velocity": 0.7480314960629921
		},
		{
		  "duration": 0.09955743750000146,
		  "durationTicks": 90,
		  "midi": 50,
		  "name": "D3",
		  "ticks": 7560,
		  "time": 8.36282475,
		  "velocity": 0.5984251968503937
		},
		{
		  "duration": 0.13274325000000076,
		  "durationTicks": 120,
		  "midi": 52,
		  "name": "E3",
		  "ticks": 7680,
		  "time": 8.495568,
		  "velocity": 0.7480314960629921
		},
		{
		  "duration": 0.09955743749999968,
		  "durationTicks": 90,
		  "midi": 40,
		  "name": "E2",
		  "ticks": 7800,
		  "time": 8.628311250000001,
		  "velocity": 0.5984251968503937
		},
		{
		  "duration": 0.09955743749999968,
		  "durationTicks": 90,
		  "midi": 40,
		  "name": "E2",
		  "ticks": 7920,
		  "time": 8.7610545,
		  "velocity": 0.5984251968503937
		},
		{
		  "duration": 0.13274324999999898,
		  "durationTicks": 120,
		  "midi": 55,
		  "name": "G3",
		  "ticks": 8040,
		  "time": 8.893797750000001,
		  "velocity": 0.7480314960629921
		},
		{
		  "duration": 0.09955743749999968,
		  "durationTicks": 90,
		  "midi": 40,
		  "name": "E2",
		  "ticks": 8160,
		  "time": 9.026541,
		  "velocity": 0.5984251968503937
		},
		{
		  "duration": 0.09955743749999968,
		  "durationTicks": 90,
		  "midi": 40,
		  "name": "E2",
		  "ticks": 8280,
		  "time": 9.15928425,
		  "velocity": 0.5984251968503937
		},
		{
		  "duration": 0.13274325000000076,
		  "durationTicks": 120,
		  "midi": 52,
		  "name": "E3",
		  "ticks": 8400,
		  "time": 9.2920275,
		  "velocity": 0.7480314960629921
		},
		{
		  "duration": 0.09955743749999968,
		  "durationTicks": 90,
		  "midi": 40,
		  "name": "E2",
		  "ticks": 8520,
		  "time": 9.42477075,
		  "velocity": 0.5984251968503937
		},
		{
		  "duration": 0.09955743749999968,
		  "durationTicks": 90,
		  "midi": 40,
		  "name": "E2",
		  "ticks": 8640,
		  "time": 9.557514000000001,
		  "velocity": 0.5984251968503937
		},
		{
		  "duration": 0.13274325000000076,
		  "durationTicks": 120,
		  "midi": 55,
		  "name": "G3",
		  "ticks": 8760,
		  "time": 9.69025725,
		  "velocity": 0.7480314960629921
		},
		{
		  "duration": 0.09955743749999968,
		  "durationTicks": 90,
		  "midi": 40,
		  "name": "E2",
		  "ticks": 8880,
		  "time": 9.823000500000001,
		  "velocity": 0.5984251968503937
		},
		{
		  "duration": 0.09955743750000146,
		  "durationTicks": 90,
		  "midi": 40,
		  "name": "E2",
		  "ticks": 9000,
		  "time": 9.95574375,
		  "velocity": 0.5984251968503937
		},
		{
		  "duration": 0.13274325000000076,
		  "durationTicks": 120,
		  "midi": 54,
		  "name": "F#3",
		  "ticks": 9120,
		  "time": 10.088487,
		  "velocity": 0.7480314960629921
		},
		{
		  "duration": 0.09955743749999968,
		  "durationTicks": 90,
		  "midi": 40,
		  "name": "E2",
		  "ticks": 9240,
		  "time": 10.221230250000001,
		  "velocity": 0.5984251968503937
		},
		{
		  "duration": 0.13274325000000076,
		  "durationTicks": 120,
		  "midi": 50,
		  "name": "D3",
		  "ticks": 9360,
		  "time": 10.3539735,
		  "velocity": 0.7480314960629921
		},
		{
		  "duration": 0.09955743749999968,
		  "durationTicks": 90,
		  "midi": 40,
		  "name": "E2",
		  "ticks": 9480,
		  "time": 10.486716750000001,
		  "velocity": 0.5984251968503937
		},
		{
		  "duration": 0.13274325000000076,
		  "durationTicks": 120,
		  "midi": 52,
		  "name": "E3",
		  "ticks": 9600,
		  "time": 10.61946,
		  "velocity": 0.7480314960629921
		},
		{
		  "duration": 0.09955743749999968,
		  "durationTicks": 90,
		  "midi": 40,
		  "name": "E2",
		  "ticks": 9720,
		  "time": 10.75220325,
		  "velocity": 0.5984251968503937
		},
		{
		  "duration": 0.09955743750000146,
		  "durationTicks": 90,
		  "midi": 40,
		  "name": "E2",
		  "ticks": 9840,
		  "time": 10.8849465,
		  "velocity": 0.5984251968503937
		},
		{
		  "duration": 0.13274325000000076,
		  "durationTicks": 120,
		  "midi": 55,
		  "name": "G3",
		  "ticks": 9960,
		  "time": 11.01768975,
		  "velocity": 0.7480314960629921
		},
		{
		  "duration": 0.09955743749999968,
		  "durationTicks": 90,
		  "midi": 40,
		  "name": "E2",
		  "ticks": 10080,
		  "time": 11.150433000000001,
		  "velocity": 0.5984251968503937
		},
		{
		  "duration": 0.09955743749999968,
		  "durationTicks": 90,
		  "midi": 40,
		  "name": "E2",
		  "ticks": 10200,
		  "time": 11.28317625,
		  "velocity": 0.5984251968503937
		},
		{
		  "duration": 0.13274324999999898,
		  "durationTicks": 120,
		  "midi": 52,
		  "name": "E3",
		  "ticks": 10320,
		  "time": 11.415919500000001,
		  "velocity": 0.7480314960629921
		},
		{
		  "duration": 0.09955743749999968,
		  "durationTicks": 90,
		  "midi": 40,
		  "name": "E2",
		  "ticks": 10440,
		  "time": 11.54866275,
		  "velocity": 0.5984251968503937
		},
		{
		  "duration": 0.09955743749999968,
		  "durationTicks": 90,
		  "midi": 40,
		  "name": "E2",
		  "ticks": 10560,
		  "time": 11.681406,
		  "velocity": 0.5984251968503937
		},
		{
		  "duration": 0.13274325000000076,
		  "durationTicks": 120,
		  "midi": 55,
		  "name": "G3",
		  "ticks": 10680,
		  "time": 11.81414925,
		  "velocity": 0.7480314960629921
		},
		{
		  "duration": 0.09955743749999968,
		  "durationTicks": 90,
		  "midi": 40,
		  "name": "E2",
		  "ticks": 10800,
		  "time": 11.9468925,
		  "velocity": 0.5984251968503937
		},
		{
		  "duration": 0.09955743749999968,
		  "durationTicks": 90,
		  "midi": 40,
		  "name": "E2",
		  "ticks": 10920,
		  "time": 12.079635750000001,
		  "velocity": 0.5984251968503937
		},
		{
		  "duration": 0.13274325000000076,
		  "durationTicks": 120,
		  "midi": 57,
		  "name": "A3",
		  "ticks": 11040,
		  "time": 12.212379,
		  "velocity": 0.7480314960629921
		},
		{
		  "duration": 0.13274324999999898,
		  "durationTicks": 120,
		  "midi": 54,
		  "name": "F#3",
		  "ticks": 11160,
		  "time": 12.345122250000001,
		  "velocity": 0.7480314960629921
		},
		{
		  "duration": 0.09955743750000146,
		  "durationTicks": 90,
		  "midi": 40,
		  "name": "E2",
		  "ticks": 11280,
		  "time": 12.4778655,
		  "velocity": 0.5984251968503937
		},
		{
		  "duration": 0.13274325000000076,
		  "durationTicks": 120,
		  "midi": 50,
		  "name": "D3",
		  "ticks": 11400,
		  "time": 12.61060875,
		  "velocity": 0.7480314960629921
		},
		{
		  "duration": 0.13274324999999898,
		  "durationTicks": 120,
		  "midi": 52,
		  "name": "E3",
		  "ticks": 11520,
		  "time": 12.743352000000002,
		  "velocity": 0.7480314960629921
		},
		{
		  "duration": 0.09955743749999968,
		  "durationTicks": 90,
		  "midi": 40,
		  "name": "E2",
		  "ticks": 11640,
		  "time": 12.87609525,
		  "velocity": 0.5984251968503937
		},
		{
		  "duration": 0.09955743749999968,
		  "durationTicks": 90,
		  "midi": 40,
		  "name": "E2",
		  "ticks": 11760,
		  "time": 13.008838500000001,
		  "velocity": 0.5984251968503937
		},
		{
		  "duration": 0.13274325000000076,
		  "durationTicks": 120,
		  "midi": 55,
		  "name": "G3",
		  "ticks": 11880,
		  "time": 13.14158175,
		  "velocity": 0.7480314960629921
		},
		{
		  "duration": 0.09955743749999968,
		  "durationTicks": 90,
		  "midi": 40,
		  "name": "E2",
		  "ticks": 12000,
		  "time": 13.274325000000001,
		  "velocity": 0.5984251968503937
		},
		{
		  "duration": 0.09955743750000146,
		  "durationTicks": 90,
		  "midi": 40,
		  "name": "E2",
		  "ticks": 12120,
		  "time": 13.40706825,
		  "velocity": 0.5984251968503937
		},
		{
		  "duration": 0.13274325000000076,
		  "durationTicks": 120,
		  "midi": 52,
		  "name": "E3",
		  "ticks": 12240,
		  "time": 13.5398115,
		  "velocity": 0.7480314960629921
		},
		{
		  "duration": 0.09955743749999968,
		  "durationTicks": 90,
		  "midi": 40,
		  "name": "E2",
		  "ticks": 12360,
		  "time": 13.672554750000002,
		  "velocity": 0.5984251968503937
		},
		{
		  "duration": 0.09955743749999968,
		  "durationTicks": 90,
		  "midi": 40,
		  "name": "E2",
		  "ticks": 12480,
		  "time": 13.805298,
		  "velocity": 0.5984251968503937
		},
		{
		  "duration": 0.13274324999999898,
		  "durationTicks": 120,
		  "midi": 55,
		  "name": "G3",
		  "ticks": 12600,
		  "time": 13.938041250000001,
		  "velocity": 0.7480314960629921
		},
		{
		  "duration": 0.09955743749999968,
		  "durationTicks": 90,
		  "midi": 40,
		  "name": "E2",
		  "ticks": 12720,
		  "time": 14.0707845,
		  "velocity": 0.5984251968503937
		},
		{
		  "duration": 0.09955743749999968,
		  "durationTicks": 90,
		  "midi": 40,
		  "name": "E2",
		  "ticks": 12840,
		  "time": 14.203527750000001,
		  "velocity": 0.5984251968503937
		},
		{
		  "duration": 0.13274325000000076,
		  "durationTicks": 120,
		  "midi": 54,
		  "name": "F#3",
		  "ticks": 12960,
		  "time": 14.336271,
		  "velocity": 0.7480314960629921
		},
		{
		  "duration": 0.09955743749999968,
		  "durationTicks": 90,
		  "midi": 40,
		  "name": "E2",
		  "ticks": 13080,
		  "time": 14.46901425,
		  "velocity": 0.5984251968503937
		},
		{
		  "duration": 0.13274324999999898,
		  "durationTicks": 120,
		  "midi": 50,
		  "name": "D3",
		  "ticks": 13200,
		  "time": 14.601757500000001,
		  "velocity": 0.7480314960629921
		},
		{
		  "duration": 0.09955743749999968,
		  "durationTicks": 90,
		  "midi": 40,
		  "name": "E2",
		  "ticks": 13320,
		  "time": 14.73450075,
		  "velocity": 0.5984251968503937
		},
		{
		  "duration": 1.061945999999999,
		  "durationTicks": 960,
		  "midi": 60,
		  "name": "C4",
		  "ticks": 13440,
		  "time": 14.867244000000001,
		  "velocity": 0.7480314960629921
		},
		{
		  "duration": 1.061945999999999,
		  "durationTicks": 960,
		  "midi": 55,
		  "name": "G3",
		  "ticks": 13440,
		  "time": 14.867244000000001,
		  "velocity": 0.7480314960629921
		},
		{
		  "duration": 1.061945999999999,
		  "durationTicks": 960,
		  "midi": 48,
		  "name": "C3",
		  "ticks": 13440,
		  "time": 14.867244000000001,
		  "velocity": 0.7480314960629921
		},
		{
		  "duration": 0.09955743749999968,
		  "durationTicks": 90,
		  "midi": 40,
		  "name": "E2",
		  "ticks": 15360,
		  "time": 16.991136,
		  "velocity": 0.5984251968503937
		},
		{
		  "duration": 0.09955743749999968,
		  "durationTicks": 90,
		  "midi": 40,
		  "name": "E2",
		  "ticks": 15480,
		  "time": 17.12387925,
		  "velocity": 0.5984251968503937
		},
		{
		  "duration": 0.09955743749999968,
		  "durationTicks": 90,
		  "midi": 40,
		  "name": "E2",
		  "ticks": 15720,
		  "time": 17.38936575,
		  "velocity": 0.5984251968503937
		},
		{
		  "duration": 0.09955743749999968,
		  "durationTicks": 90,
		  "midi": 40,
		  "name": "E2",
		  "ticks": 15840,
		  "time": 17.522109,
		  "velocity": 0.5984251968503937
		},
		{
		  "duration": 0.09955743749999968,
		  "durationTicks": 90,
		  "midi": 40,
		  "name": "E2",
		  "ticks": 16080,
		  "time": 17.787595500000002,
		  "velocity": 0.5984251968503937
		},
		{
		  "duration": 0.09955743749999968,
		  "durationTicks": 90,
		  "midi": 40,
		  "name": "E2",
		  "ticks": 16320,
		  "time": 18.053082,
		  "velocity": 0.5984251968503937
		},
		{
		  "duration": 0.09955743749999968,
		  "durationTicks": 90,
		  "midi": 40,
		  "name": "E2",
		  "ticks": 16440,
		  "time": 18.18582525,
		  "velocity": 0.5984251968503937
		},
		{
		  "duration": 0.09955743749999968,
		  "durationTicks": 90,
		  "midi": 40,
		  "name": "E2",
		  "ticks": 16680,
		  "time": 18.451311750000002,
		  "velocity": 0.5984251968503937
		},
		{
		  "duration": 0.09955743750000323,
		  "durationTicks": 90,
		  "midi": 40,
		  "name": "E2",
		  "ticks": 16800,
		  "time": 18.584055,
		  "velocity": 0.5984251968503937
		},
		{
		  "duration": 0.09955743749999968,
		  "durationTicks": 90,
		  "midi": 40,
		  "name": "E2",
		  "ticks": 17040,
		  "time": 18.8495415,
		  "velocity": 0.5984251968503937
		},
		{
		  "duration": 0.09955743749999968,
		  "durationTicks": 90,
		  "midi": 40,
		  "name": "E2",
		  "ticks": 17280,
		  "time": 19.115028000000002,
		  "velocity": 0.5984251968503937
		},
		{
		  "duration": 0.09955743750000323,
		  "durationTicks": 90,
		  "midi": 40,
		  "name": "E2",
		  "ticks": 17400,
		  "time": 19.24777125,
		  "velocity": 0.5984251968503937
		},
		{
		  "duration": 0.09955743749999968,
		  "durationTicks": 90,
		  "midi": 40,
		  "name": "E2",
		  "ticks": 17640,
		  "time": 19.51325775,
		  "velocity": 0.5984251968503937
		},
		{
		  "duration": 0.09955743749999968,
		  "durationTicks": 90,
		  "midi": 40,
		  "name": "E2",
		  "ticks": 17760,
		  "time": 19.646001000000002,
		  "velocity": 0.5984251968503937
		},
		{
		  "duration": 0.09955743749999968,
		  "durationTicks": 90,
		  "midi": 40,
		  "name": "E2",
		  "ticks": 18000,
		  "time": 19.9114875,
		  "velocity": 0.5984251968503937
		},
		{
		  "duration": 0.09955743749999968,
		  "durationTicks": 90,
		  "midi": 40,
		  "name": "E2",
		  "ticks": 18240,
		  "time": 20.176974,
		  "velocity": 0.5984251968503937
		},
		{
		  "duration": 0.09955743749999968,
		  "durationTicks": 90,
		  "midi": 40,
		  "name": "E2",
		  "ticks": 18360,
		  "time": 20.309717250000002,
		  "velocity": 0.5984251968503937
		},
		{
		  "duration": 0.26548649999999796,
		  "durationTicks": 240,
		  "midi": 60,
		  "name": "C4",
		  "ticks": 18480,
		  "time": 20.442460500000003,
		  "velocity": 0.7480314960629921
		},
		{
		  "duration": 0.09955743749999968,
		  "durationTicks": 90,
		  "midi": 40,
		  "name": "E2",
		  "ticks": 18720,
		  "time": 20.707947,
		  "velocity": 0.5984251968503937
		},
		{
		  "duration": 0.13274325000000076,
		  "durationTicks": 120,
		  "midi": 59,
		  "name": "B3",
		  "ticks": 18840,
		  "time": 20.84069025,
		  "velocity": 0.7480314960629921
		},
		{
		  "duration": 0.1327432499999972,
		  "durationTicks": 120,
		  "midi": 57,
		  "name": "A3",
		  "ticks": 18960,
		  "time": 20.973433500000002,
		  "velocity": 0.7480314960629921
		},
		{
		  "duration": 0.13274325000000076,
		  "durationTicks": 120,
		  "midi": 54,
		  "name": "F#3",
		  "ticks": 19080,
		  "time": 21.10617675,
		  "velocity": 0.7480314960629921
		},
		{
		  "duration": 0.09955743749999968,
		  "durationTicks": 90,
		  "midi": 40,
		  "name": "E2",
		  "ticks": 19200,
		  "time": 21.23892,
		  "velocity": 0.5984251968503937
		},
		{
		  "duration": 0.09955743749999968,
		  "durationTicks": 90,
		  "midi": 40,
		  "name": "E2",
		  "ticks": 19320,
		  "time": 21.37166325,
		  "velocity": 0.5984251968503937
		},
		{
		  "duration": 0.09955743749999968,
		  "durationTicks": 90,
		  "midi": 40,
		  "name": "E2",
		  "ticks": 19560,
		  "time": 21.637149750000003,
		  "velocity": 0.5984251968503937
		},
		{
		  "duration": 0.09955743749999968,
		  "durationTicks": 90,
		  "midi": 40,
		  "name": "E2",
		  "ticks": 19680,
		  "time": 21.769893,
		  "velocity": 0.5984251968503937
		},
		{
		  "duration": 0.09955743749999968,
		  "durationTicks": 90,
		  "midi": 40,
		  "name": "E2",
		  "ticks": 19920,
		  "time": 22.0353795,
		  "velocity": 0.5984251968503937
		},
		{
		  "duration": 0.09955743749999968,
		  "durationTicks": 90,
		  "midi": 40,
		  "name": "E2",
		  "ticks": 20160,
		  "time": 22.300866000000003,
		  "velocity": 0.5984251968503937
		},
		{
		  "duration": 0.09955743749999968,
		  "durationTicks": 90,
		  "midi": 40,
		  "name": "E2",
		  "ticks": 20280,
		  "time": 22.43360925,
		  "velocity": 0.5984251968503937
		},
		{
		  "duration": 0.09955743749999968,
		  "durationTicks": 90,
		  "midi": 40,
		  "name": "E2",
		  "ticks": 20520,
		  "time": 22.69909575,
		  "velocity": 0.5984251968503937
		},
		{
		  "duration": 0.09955743749999968,
		  "durationTicks": 90,
		  "midi": 40,
		  "name": "E2",
		  "ticks": 20640,
		  "time": 22.831839000000002,
		  "velocity": 0.5984251968503937
		},
		{
		  "duration": 0.09955743749999968,
		  "durationTicks": 90,
		  "midi": 40,
		  "name": "E2",
		  "ticks": 20880,
		  "time": 23.0973255,
		  "velocity": 0.5984251968503937
		},
		{
		  "duration": 0.09955743749999968,
		  "durationTicks": 90,
		  "midi": 48,
		  "name": "C3",
		  "ticks": 21120,
		  "time": 23.362812,
		  "velocity": 0.5984251968503937
		},
		{
		  "duration": 0.09955743749999968,
		  "durationTicks": 90,
		  "midi": 48,
		  "name": "C3",
		  "ticks": 21240,
		  "time": 23.495555250000002,
		  "velocity": 0.5984251968503937
		},
		{
		  "duration": 0.13274325000000076,
		  "durationTicks": 120,
		  "midi": 55,
		  "name": "G3",
		  "ticks": 21360,
		  "time": 23.6282985,
		  "velocity": 0.7480314960629921
		},
		{
		  "duration": 0.09955743749999968,
		  "durationTicks": 90,
		  "midi": 48,
		  "name": "C3",
		  "ticks": 21480,
		  "time": 23.76104175,
		  "velocity": 0.5984251968503937
		},
		{
		  "duration": 0.09955743749999968,
		  "durationTicks": 90,
		  "midi": 48,
		  "name": "C3",
		  "ticks": 21600,
		  "time": 23.893785,
		  "velocity": 0.5984251968503937
		},
		{
		  "duration": 0.13274325000000076,
		  "durationTicks": 120,
		  "midi": 57,
		  "name": "A3",
		  "ticks": 21720,
		  "time": 24.026528250000002,
		  "velocity": 0.7480314960629921
		},
		{
		  "duration": 0.09955743749999968,
		  "durationTicks": 90,
		  "midi": 48,
		  "name": "C3",
		  "ticks": 21840,
		  "time": 24.159271500000003,
		  "velocity": 0.5984251968503937
		},
		{
		  "duration": 0.13274325000000076,
		  "durationTicks": 120,
		  "midi": 59,
		  "name": "B3",
		  "ticks": 21960,
		  "time": 24.29201475,
		  "velocity": 0.7480314960629921
		},
		{
		  "duration": 0.09955743749999968,
		  "durationTicks": 90,
		  "midi": 50,
		  "name": "D3",
		  "ticks": 22080,
		  "time": 24.424758,
		  "velocity": 0.5984251968503937
		},
		{
		  "duration": 0.09955743749999968,
		  "durationTicks": 90,
		  "midi": 50,
		  "name": "D3",
		  "ticks": 22200,
		  "time": 24.55750125,
		  "velocity": 0.5984251968503937
		},
		{
		  "duration": 0.13274325000000076,
		  "durationTicks": 120,
		  "midi": 57,
		  "name": "A3",
		  "ticks": 22320,
		  "time": 24.690244500000002,
		  "velocity": 0.7480314960629921
		},
		{
		  "duration": 0.09955743749999968,
		  "durationTicks": 90,
		  "midi": 50,
		  "name": "D3",
		  "ticks": 22440,
		  "time": 24.822987750000003,
		  "velocity": 0.5984251968503937
		},
		{
		  "duration": 0.530973000000003,
		  "durationTicks": 480,
		  "midi": 62,
		  "name": "D4",
		  "ticks": 22560,
		  "time": 24.955731,
		  "velocity": 0.7480314960629921
		},
		{
		  "duration": 0.530973000000003,
		  "durationTicks": 480,
		  "midi": 57,
		  "name": "A3",
		  "ticks": 22560,
		  "time": 24.955731,
		  "velocity": 0.7480314960629921
		},
		{
		  "duration": 0.530973000000003,
		  "durationTicks": 480,
		  "midi": 50,
		  "name": "D3",
		  "ticks": 22560,
		  "time": 24.955731,
		  "velocity": 0.7480314960629921
		},
		{
		  "duration": 0.5309729999999995,
		  "durationTicks": 480,
		  "midi": 52,
		  "name": "E3",
		  "ticks": 23040,
		  "time": 25.486704000000003,
		  "velocity": 0.7480314960629921
		},
		{
		  "duration": 0.5309729999999995,
		  "durationTicks": 480,
		  "midi": 47,
		  "name": "B2",
		  "ticks": 23040,
		  "time": 25.486704000000003,
		  "velocity": 0.7480314960629921
		},
		{
		  "duration": 0.5309729999999995,
		  "durationTicks": 480,
		  "midi": 40,
		  "name": "E2",
		  "ticks": 23040,
		  "time": 25.486704000000003,
		  "velocity": 0.7480314960629921
		},
		{
		  "duration": 0.09955743749999968,
		  "durationTicks": 90,
		  "midi": 40,
		  "name": "E2",
		  "ticks": 24240,
		  "time": 26.8141365,
		  "velocity": 0.5984251968503937
		},
		{
		  "duration": 0.09955743749999968,
		  "durationTicks": 90,
		  "midi": 40,
		  "name": "E2",
		  "ticks": 24360,
		  "time": 26.94687975,
		  "velocity": 0.5984251968503937
		},
		{
		  "duration": 0.5309729999999995,
		  "durationTicks": 480,
		  "midi": 64,
		  "name": "E4",
		  "ticks": 24480,
		  "time": 27.079623,
		  "velocity": 0.7480314960629921
		},
		{
		  "duration": 0.5309729999999995,
		  "durationTicks": 480,
		  "midi": 59,
		  "name": "B3",
		  "ticks": 24480,
		  "time": 27.079623,
		  "velocity": 0.7480314960629921
		},
		{
		  "duration": 0.5309729999999995,
		  "durationTicks": 480,
		  "midi": 52,
		  "name": "E3",
		  "ticks": 24480,
		  "time": 27.079623,
		  "velocity": 0.7480314960629921
		},
		{
		  "duration": 0.09955743749999968,
		  "durationTicks": 90,
		  "midi": 36,
		  "name": "C2",
		  "ticks": 24960,
		  "time": 27.610596,
		  "velocity": 0.5984251968503937
		},
		{
		  "duration": 0.09955743749999968,
		  "durationTicks": 90,
		  "midi": 36,
		  "name": "C2",
		  "ticks": 25080,
		  "time": 27.743339250000002,
		  "velocity": 0.5984251968503937
		},
		{
		  "duration": 0.1327432499999972,
		  "durationTicks": 120,
		  "midi": 52,
		  "name": "E3",
		  "ticks": 25200,
		  "time": 27.876082500000003,
		  "velocity": 0.7480314960629921
		},
		{
		  "duration": 0.09955743750000323,
		  "durationTicks": 90,
		  "midi": 36,
		  "name": "C2",
		  "ticks": 25320,
		  "time": 28.00882575,
		  "velocity": 0.5984251968503937
		},
		{
		  "duration": 0.09955743749999968,
		  "durationTicks": 90,
		  "midi": 36,
		  "name": "C2",
		  "ticks": 25440,
		  "time": 28.141569,
		  "velocity": 0.5984251968503937
		},
		{
		  "duration": 0.13274325000000076,
		  "durationTicks": 120,
		  "midi": 54,
		  "name": "F#3",
		  "ticks": 25560,
		  "time": 28.27431225,
		  "velocity": 0.7480314960629921
		},
		{
		  "duration": 0.09955743749999968,
		  "durationTicks": 90,
		  "midi": 36,
		  "name": "C2",
		  "ticks": 25680,
		  "time": 28.407055500000002,
		  "velocity": 0.5984251968503937
		},
		{
		  "duration": 0.1327432499999972,
		  "durationTicks": 120,
		  "midi": 55,
		  "name": "G3",
		  "ticks": 25800,
		  "time": 28.539798750000003,
		  "velocity": 0.7480314960629921
		},
		{
		  "duration": 0.09955743750000323,
		  "durationTicks": 90,
		  "midi": 38,
		  "name": "D2",
		  "ticks": 25920,
		  "time": 28.672542,
		  "velocity": 0.5984251968503937
		},
		{
		  "duration": 0.09955743749999968,
		  "durationTicks": 90,
		  "midi": 38,
		  "name": "D2",
		  "ticks": 26040,
		  "time": 28.80528525,
		  "velocity": 0.5984251968503937
		},
		{
		  "duration": 0.13274325000000076,
		  "durationTicks": 120,
		  "midi": 54,
		  "name": "F#3",
		  "ticks": 26160,
		  "time": 28.9380285,
		  "velocity": 0.7480314960629921
		},
		{
		  "duration": 0.09955743749999968,
		  "durationTicks": 90,
		  "midi": 38,
		  "name": "D2",
		  "ticks": 26280,
		  "time": 29.070771750000002,
		  "velocity": 0.5984251968503937
		},
		{
		  "duration": 0.09955743749999968,
		  "durationTicks": 90,
		  "midi": 38,
		  "name": "D2",
		  "ticks": 26400,
		  "time": 29.203515000000003,
		  "velocity": 0.5984251968503937
		},
		{
		  "duration": 0.13274325000000076,
		  "durationTicks": 120,
		  "midi": 52,
		  "name": "E3",
		  "ticks": 26520,
		  "time": 29.33625825,
		  "velocity": 0.7480314960629921
		},
		{
		  "duration": 0.09955743749999968,
		  "durationTicks": 90,
		  "midi": 38,
		  "name": "D2",
		  "ticks": 26640,
		  "time": 29.4690015,
		  "velocity": 0.5984251968503937
		},
		{
		  "duration": 0.13274325000000076,
		  "durationTicks": 120,
		  "midi": 50,
		  "name": "D3",
		  "ticks": 26760,
		  "time": 29.60174475,
		  "velocity": 0.7480314960629921
		},
		{
		  "duration": 0.09955743749999968,
		  "durationTicks": 90,
		  "midi": 40,
		  "name": "E2",
		  "ticks": 26880,
		  "time": 29.734488000000002,
		  "velocity": 0.5984251968503937
		},
		{
		  "duration": 0.09955743749999968,
		  "durationTicks": 90,
		  "midi": 40,
		  "name": "E2",
		  "ticks": 27000,
		  "time": 29.867231250000003,
		  "velocity": 0.5984251968503937
		},
		{
		  "duration": 0.09955743749999968,
		  "durationTicks": 90,
		  "midi": 40,
		  "name": "E2",
		  "ticks": 27120,
		  "time": 29.9999745,
		  "velocity": 0.5984251968503937
		},
		{
		  "duration": 0.09955743749999968,
		  "durationTicks": 90,
		  "midi": 40,
		  "name": "E2",
		  "ticks": 27240,
		  "time": 30.13271775,
		  "velocity": 0.5984251968503937
		},
		{
		  "duration": 0.5309729999999995,
		  "durationTicks": 480,
		  "midi": 64,
		  "name": "E4",
		  "ticks": 27360,
		  "time": 30.265461000000002,
		  "velocity": 0.7480314960629921
		},
		{
		  "duration": 0.5309729999999995,
		  "durationTicks": 480,
		  "midi": 59,
		  "name": "B3",
		  "ticks": 27360,
		  "time": 30.265461000000002,
		  "velocity": 0.7480314960629921
		},
		{
		  "duration": 0.5309729999999995,
		  "durationTicks": 480,
		  "midi": 52,
		  "name": "E3",
		  "ticks": 27360,
		  "time": 30.265461000000002,
		  "velocity": 0.7480314960629921
		},
		{
		  "duration": 0.1327432499999972,
		  "durationTicks": 120,
		  "midi": 52,
		  "name": "E3",
		  "ticks": 28080,
		  "time": 31.061920500000003,
		  "velocity": 0.7480314960629921
		},
		{
		  "duration": 0.09955743750000323,
		  "durationTicks": 90,
		  "midi": 40,
		  "name": "E2",
		  "ticks": 28200,
		  "time": 31.19466375,
		  "velocity": 0.5984251968503937
		},
		{
		  "duration": 0.09955743749999968,
		  "durationTicks": 90,
		  "midi": 40,
		  "name": "E2",
		  "ticks": 28320,
		  "time": 31.327407,
		  "velocity": 0.5984251968503937
		},
		{
		  "duration": 0.13274325000000076,
		  "durationTicks": 120,
		  "midi": 54,
		  "name": "F#3",
		  "ticks": 28440,
		  "time": 31.46015025,
		  "velocity": 0.7480314960629921
		},
		{
		  "duration": 0.09955743749999968,
		  "durationTicks": 90,
		  "midi": 40,
		  "name": "E2",
		  "ticks": 28560,
		  "time": 31.592893500000002,
		  "velocity": 0.5984251968503937
		},
		{
		  "duration": 0.1327432499999972,
		  "durationTicks": 120,
		  "midi": 50,
		  "name": "D3",
		  "ticks": 28680,
		  "time": 31.725636750000003,
		  "velocity": 0.7480314960629921
		},
		{
		  "duration": 0.09955743749999968,
		  "durationTicks": 90,
		  "midi": 36,
		  "name": "C2",
		  "ticks": 28800,
		  "time": 31.85838,
		  "velocity": 0.5984251968503937
		},
		{
		  "duration": 0.09955743750000323,
		  "durationTicks": 90,
		  "midi": 36,
		  "name": "C2",
		  "ticks": 28920,
		  "time": 31.99112325,
		  "velocity": 0.5984251968503937
		},
		{
		  "duration": 0.1327432500000043,
		  "durationTicks": 120,
		  "midi": 52,
		  "name": "E3",
		  "ticks": 29040,
		  "time": 32.1238665,
		  "velocity": 0.7480314960629921
		},
		{
		  "duration": 0.09955743749999613,
		  "durationTicks": 90,
		  "midi": 36,
		  "name": "C2",
		  "ticks": 29160,
		  "time": 32.25660975,
		  "velocity": 0.5984251968503937
		},
		{
		  "duration": 0.09955743750000323,
		  "durationTicks": 90,
		  "midi": 36,
		  "name": "C2",
		  "ticks": 29280,
		  "time": 32.389353,
		  "velocity": 0.5984251968503937
		},
		{
		  "duration": 0.1327432499999972,
		  "durationTicks": 120,
		  "midi": 54,
		  "name": "F#3",
		  "ticks": 29400,
		  "time": 32.522096250000004,
		  "velocity": 0.7480314960629921
		},
		{
		  "duration": 0.09955743750000323,
		  "durationTicks": 90,
		  "midi": 36,
		  "name": "C2",
		  "ticks": 29520,
		  "time": 32.6548395,
		  "velocity": 0.5984251968503937
		},
		{
		  "duration": 0.1327432500000043,
		  "durationTicks": 120,
		  "midi": 55,
		  "name": "G3",
		  "ticks": 29640,
		  "time": 32.78758275,
		  "velocity": 0.7480314960629921
		},
		{
		  "duration": 0.09955743749999613,
		  "durationTicks": 90,
		  "midi": 38,
		  "name": "D2",
		  "ticks": 29760,
		  "time": 32.920326,
		  "velocity": 0.5984251968503937
		},
		{
		  "duration": 0.09955743750000323,
		  "durationTicks": 90,
		  "midi": 38,
		  "name": "D2",
		  "ticks": 29880,
		  "time": 33.05306925,
		  "velocity": 0.5984251968503937
		},
		{
		  "duration": 0.1327432499999972,
		  "durationTicks": 120,
		  "midi": 54,
		  "name": "F#3",
		  "ticks": 30000,
		  "time": 33.185812500000004,
		  "velocity": 0.7480314960629921
		},
		{
		  "duration": 0.09955743750000323,
		  "durationTicks": 90,
		  "midi": 38,
		  "name": "D2",
		  "ticks": 30120,
		  "time": 33.31855575,
		  "velocity": 0.5984251968503937
		},
		{
		  "duration": 0.1327432500000043,
		  "durationTicks": 120,
		  "midi": 57,
		  "name": "A3",
		  "ticks": 30240,
		  "time": 33.451299,
		  "velocity": 0.7480314960629921
		},
		{
		  "duration": 0.09955743749999613,
		  "durationTicks": 90,
		  "midi": 38,
		  "name": "D2",
		  "ticks": 30360,
		  "time": 33.58404225,
		  "velocity": 0.5984251968503937
		},
		{
		  "duration": 0.1327432500000043,
		  "durationTicks": 120,
		  "midi": 55,
		  "name": "G3",
		  "ticks": 30480,
		  "time": 33.7167855,
		  "velocity": 0.7480314960629921
		},
		{
		  "duration": 0.1327432499999972,
		  "durationTicks": 120,
		  "midi": 54,
		  "name": "F#3",
		  "ticks": 30600,
		  "time": 33.849528750000005,
		  "velocity": 0.7480314960629921
		},
		{
		  "duration": 0.530973000000003,
		  "durationTicks": 480,
		  "midi": 52,
		  "name": "E3",
		  "ticks": 30720,
		  "time": 33.982272,
		  "velocity": 0.7480314960629921
		},
		{
		  "duration": 0.530973000000003,
		  "durationTicks": 480,
		  "midi": 47,
		  "name": "B2",
		  "ticks": 30720,
		  "time": 33.982272,
		  "velocity": 0.7480314960629921
		},
		{
		  "duration": 0.530973000000003,
		  "durationTicks": 480,
		  "midi": 40,
		  "name": "E2",
		  "ticks": 30720,
		  "time": 33.982272,
		  "velocity": 0.7480314960629921
		},
		{
		  "duration": 0.09955743749999613,
		  "durationTicks": 90,
		  "midi": 40,
		  "name": "E2",
		  "ticks": 31200,
		  "time": 34.513245000000005,
		  "velocity": 0.5984251968503937
		},
		{
		  "duration": 0.09955743750000323,
		  "durationTicks": 90,
		  "midi": 40,
		  "name": "E2",
		  "ticks": 31320,
		  "time": 34.64598825,
		  "velocity": 0.5984251968503937
		},
		{
		  "duration": 0.09955743750000323,
		  "durationTicks": 90,
		  "midi": 40,
		  "name": "E2",
		  "ticks": 31440,
		  "time": 34.7787315,
		  "velocity": 0.5984251968503937
		},
		{
		  "duration": 0.09955743749999613,
		  "durationTicks": 90,
		  "midi": 40,
		  "name": "E2",
		  "ticks": 31560,
		  "time": 34.911474750000004,
		  "velocity": 0.5984251968503937
		},
		{
		  "duration": 0.2654865000000015,
		  "durationTicks": 240,
		  "midi": 52,
		  "name": "E3",
		  "ticks": 31680,
		  "time": 35.044218,
		  "velocity": 0.7480314960629921
		},
		{
		  "duration": 0.2654865000000015,
		  "durationTicks": 240,
		  "midi": 47,
		  "name": "B2",
		  "ticks": 31680,
		  "time": 35.044218,
		  "velocity": 0.7480314960629921
		},
		{
		  "duration": 0.2654865000000015,
		  "durationTicks": 240,
		  "midi": 40,
		  "name": "E2",
		  "ticks": 31680,
		  "time": 35.044218,
		  "velocity": 0.7480314960629921
		},
		{
		  "duration": 0.09955743749999613,
		  "durationTicks": 90,
		  "midi": 40,
		  "name": "E2",
		  "ticks": 31920,
		  "time": 35.3097045,
		  "velocity": 0.5984251968503937
		},
		{
		  "duration": 0.3982297500000058,
		  "durationTicks": 360,
		  "midi": 64,
		  "name": "E4",
		  "ticks": 32040,
		  "time": 35.44244775,
		  "velocity": 0.7480314960629921
		},
		{
		  "duration": 0.3982297500000058,
		  "durationTicks": 360,
		  "midi": 59,
		  "name": "B3",
		  "ticks": 32040,
		  "time": 35.44244775,
		  "velocity": 0.7480314960629921
		},
		{
		  "duration": 0.3982297500000058,
		  "durationTicks": 360,
		  "midi": 52,
		  "name": "E3",
		  "ticks": 32040,
		  "time": 35.44244775,
		  "velocity": 0.7480314960629921
		},
		{
		  "duration": 0.1327432499999972,
		  "durationTicks": 120,
		  "midi": 55,
		  "name": "G3",
		  "ticks": 32400,
		  "time": 35.840677500000005,
		  "velocity": 0.7480314960629921
		},
		{
		  "duration": 0.1327432499999972,
		  "durationTicks": 120,
		  "midi": 54,
		  "name": "F#3",
		  "ticks": 32520,
		  "time": 35.97342075,
		  "velocity": 0.7480314960629921
		},
		{
		  "duration": 0.09955743750000323,
		  "durationTicks": 90,
		  "midi": 36,
		  "name": "C2",
		  "ticks": 32640,
		  "time": 36.106164,
		  "velocity": 0.5984251968503937
		},
		{
		  "duration": 0.09955743749999613,
		  "durationTicks": 90,
		  "midi": 36,
		  "name": "C2",
		  "ticks": 32760,
		  "time": 36.238907250000004,
		  "velocity": 0.5984251968503937
		},
		{
		  "duration": 0.1327432499999972,
		  "durationTicks": 120,
		  "midi": 52,
		  "name": "E3",
		  "ticks": 32880,
		  "time": 36.3716505,
		  "velocity": 0.7480314960629921
		},
		{
		  "duration": 0.09955743750000323,
		  "durationTicks": 90,
		  "midi": 36,
		  "name": "C2",
		  "ticks": 33000,
		  "time": 36.50439375,
		  "velocity": 0.5984251968503937
		},
		{
		  "duration": 0.09955743749999613,
		  "durationTicks": 90,
		  "midi": 36,
		  "name": "C2",
		  "ticks": 33120,
		  "time": 36.637137,
		  "velocity": 0.5984251968503937
		},
		{
		  "duration": 0.1327432500000043,
		  "durationTicks": 120,
		  "midi": 54,
		  "name": "F#3",
		  "ticks": 33240,
		  "time": 36.76988025,
		  "velocity": 0.7480314960629921
		},
		{
		  "duration": 0.09955743749999613,
		  "durationTicks": 90,
		  "midi": 36,
		  "name": "C2",
		  "ticks": 33360,
		  "time": 36.902623500000004,
		  "velocity": 0.5984251968503937
		},
		{
		  "duration": 0.1327432499999972,
		  "durationTicks": 120,
		  "midi": 55,
		  "name": "G3",
		  "ticks": 33480,
		  "time": 37.03536675,
		  "velocity": 0.7480314960629921
		},
		{
		  "duration": 0.09955743750000323,
		  "durationTicks": 90,
		  "midi": 38,
		  "name": "D2",
		  "ticks": 33600,
		  "time": 37.16811,
		  "velocity": 0.5984251968503937
		},
		{
		  "duration": 0.09955743749999613,
		  "durationTicks": 90,
		  "midi": 38,
		  "name": "D2",
		  "ticks": 33720,
		  "time": 37.30085325,
		  "velocity": 0.5984251968503937
		},
		{
		  "duration": 0.1327432500000043,
		  "durationTicks": 120,
		  "midi": 57,
		  "name": "A3",
		  "ticks": 33840,
		  "time": 37.4335965,
		  "velocity": 0.7480314960629921
		},
		{
		  "duration": 0.09955743749999613,
		  "durationTicks": 90,
		  "midi": 38,
		  "name": "D2",
		  "ticks": 33960,
		  "time": 37.566339750000004,
		  "velocity": 0.5984251968503937
		},
		{
		  "duration": 0.09955743750000323,
		  "durationTicks": 90,
		  "midi": 38,
		  "name": "D2",
		  "ticks": 34080,
		  "time": 37.699083,
		  "velocity": 0.5984251968503937
		},
		{
		  "duration": 0.1327432500000043,
		  "durationTicks": 120,
		  "midi": 55,
		  "name": "G3",
		  "ticks": 34200,
		  "time": 37.83182625,
		  "velocity": 0.7480314960629921
		},
		{
		  "duration": 0.09955743749999613,
		  "durationTicks": 90,
		  "midi": 38,
		  "name": "D2",
		  "ticks": 34320,
		  "time": 37.9645695,
		  "velocity": 0.5984251968503937
		},
		{
		  "duration": 0.1327432500000043,
		  "durationTicks": 120,
		  "midi": 54,
		  "name": "F#3",
		  "ticks": 34440,
		  "time": 38.09731275,
		  "velocity": 0.7480314960629921
		},
		{
		  "duration": 0.09955743749999613,
		  "durationTicks": 90,
		  "midi": 40,
		  "name": "E2",
		  "ticks": 34560,
		  "time": 38.230056000000005,
		  "velocity": 0.5984251968503937
		},
		{
		  "duration": 0.09955743750000323,
		  "durationTicks": 90,
		  "midi": 40,
		  "name": "E2",
		  "ticks": 34680,
		  "time": 38.36279925,
		  "velocity": 0.5984251968503937
		},
		{
		  "duration": 0.09955743750000323,
		  "durationTicks": 90,
		  "midi": 40,
		  "name": "E2",
		  "ticks": 34800,
		  "time": 38.4955425,
		  "velocity": 0.5984251968503937
		},
		{
		  "duration": 0.09955743749999613,
		  "durationTicks": 90,
		  "midi": 40,
		  "name": "E2",
		  "ticks": 34920,
		  "time": 38.62828575,
		  "velocity": 0.5984251968503937
		},
		{
		  "duration": 0.530973000000003,
		  "durationTicks": 480,
		  "midi": 64,
		  "name": "E4",
		  "ticks": 35040,
		  "time": 38.761029,
		  "velocity": 0.7480314960629921
		},
		{
		  "duration": 0.530973000000003,
		  "durationTicks": 480,
		  "midi": 59,
		  "name": "B3",
		  "ticks": 35040,
		  "time": 38.761029,
		  "velocity": 0.7480314960629921
		},
		{
		  "duration": 0.530973000000003,
		  "durationTicks": 480,
		  "midi": 52,
		  "name": "E3",
		  "ticks": 35040,
		  "time": 38.761029,
		  "velocity": 0.7480314960629921
		},
		{
		  "duration": 0.09955743749999613,
		  "durationTicks": 90,
		  "midi": 40,
		  "name": "E2",
		  "ticks": 35520,
		  "time": 39.292002000000004,
		  "velocity": 0.5984251968503937
		},
		{
		  "duration": 0.09955743750000323,
		  "durationTicks": 90,
		  "midi": 47,
		  "name": "B2",
		  "ticks": 35640,
		  "time": 39.42474525,
		  "velocity": 0.5984251968503937
		},
		{
		  "duration": 0.1327432499999972,
		  "durationTicks": 120,
		  "midi": 52,
		  "name": "E3",
		  "ticks": 35760,
		  "time": 39.557488500000005,
		  "velocity": 0.7480314960629921
		},
		{
		  "duration": 0.09955743750000323,
		  "durationTicks": 90,
		  "midi": 40,
		  "name": "E2",
		  "ticks": 35880,
		  "time": 39.69023175,
		  "velocity": 0.5984251968503937
		},
		{
		  "duration": 0.1327432500000043,
		  "durationTicks": 120,
		  "midi": 55,
		  "name": "G3",
		  "ticks": 36000,
		  "time": 39.822975,
		  "velocity": 0.7480314960629921
		},
		{
		  "duration": 0.1327432499999972,
		  "durationTicks": 120,
		  "midi": 54,
		  "name": "F#3",
		  "ticks": 36120,
		  "time": 39.955718250000004,
		  "velocity": 0.7480314960629921
		},
		{
		  "duration": 0.1327432500000043,
		  "durationTicks": 120,
		  "midi": 50,
		  "name": "D3",
		  "ticks": 36240,
		  "time": 40.0884615,
		  "velocity": 0.7480314960629921
		},
		{
		  "duration": 0.1327432499999972,
		  "durationTicks": 120,
		  "midi": 52,
		  "name": "E3",
		  "ticks": 36360,
		  "time": 40.221204750000005,
		  "velocity": 0.7480314960629921
		},
		{
		  "duration": 0.09955743749999613,
		  "durationTicks": 90,
		  "midi": 36,
		  "name": "C2",
		  "ticks": 36480,
		  "time": 40.353948,
		  "velocity": 0.5984251968503937
		},
		{
		  "duration": 0.09955743750000323,
		  "durationTicks": 90,
		  "midi": 36,
		  "name": "C2",
		  "ticks": 36600,
		  "time": 40.48669125,
		  "velocity": 0.5984251968503937
		},
		{
		  "duration": 0.1327432499999972,
		  "durationTicks": 120,
		  "midi": 52,
		  "name": "E3",
		  "ticks": 36720,
		  "time": 40.619434500000004,
		  "velocity": 0.7480314960629921
		},
		{
		  "duration": 0.09955743750000323,
		  "durationTicks": 90,
		  "midi": 36,
		  "name": "C2",
		  "ticks": 36840,
		  "time": 40.75217775,
		  "velocity": 0.5984251968503937
		},
		{
		  "duration": 0.09955743749999613,
		  "durationTicks": 90,
		  "midi": 36,
		  "name": "C2",
		  "ticks": 36960,
		  "time": 40.884921000000006,
		  "velocity": 0.5984251968503937
		},
		{
		  "duration": 0.1327432499999972,
		  "durationTicks": 120,
		  "midi": 54,
		  "name": "F#3",
		  "ticks": 37080,
		  "time": 41.01766425,
		  "velocity": 0.7480314960629921
		},
		{
		  "duration": 0.09955743750000323,
		  "durationTicks": 90,
		  "midi": 36,
		  "name": "C2",
		  "ticks": 37200,
		  "time": 41.1504075,
		  "velocity": 0.5984251968503937
		},
		{
		  "duration": 0.1327432499999972,
		  "durationTicks": 120,
		  "midi": 55,
		  "name": "G3",
		  "ticks": 37320,
		  "time": 41.283150750000004,
		  "velocity": 0.7480314960629921
		},
		{
		  "duration": 0.09955743750000323,
		  "durationTicks": 90,
		  "midi": 50,
		  "name": "D3",
		  "ticks": 37440,
		  "time": 41.415894,
		  "velocity": 0.5984251968503937
		},
		{
		  "duration": 0.1327432500000043,
		  "durationTicks": 120,
		  "midi": 62,
		  "name": "D4",
		  "ticks": 37560,
		  "time": 41.54863725,
		  "velocity": 0.7480314960629921
		},
		{
		  "duration": 0.09955743749999613,
		  "durationTicks": 90,
		  "midi": 38,
		  "name": "D2",
		  "ticks": 37680,
		  "time": 41.6813805,
		  "velocity": 0.5984251968503937
		},
		{
		  "duration": 0.1327432500000043,
		  "durationTicks": 120,
		  "midi": 62,
		  "name": "D4",
		  "ticks": 37800,
		  "time": 41.81412375,
		  "velocity": 0.7480314960629921
		},
		{
		  "duration": 0.1327432499999972,
		  "durationTicks": 120,
		  "midi": 67,
		  "name": "G4",
		  "ticks": 37920,
		  "time": 41.946867000000005,
		  "velocity": 0.7480314960629921
		},
		{
		  "duration": 0.09955743750000323,
		  "durationTicks": 90,
		  "midi": 38,
		  "name": "D2",
		  "ticks": 38040,
		  "time": 42.07961025,
		  "velocity": 0.5984251968503937
		},
		{
		  "duration": 0.1327432500000043,
		  "durationTicks": 120,
		  "midi": 66,
		  "name": "F#4",
		  "ticks": 38160,
		  "time": 42.2123535,
		  "velocity": 0.7480314960629921
		},
		{
		  "duration": 0.09955743749999613,
		  "durationTicks": 90,
		  "midi": 38,
		  "name": "D2",
		  "ticks": 38280,
		  "time": 42.34509675,
		  "velocity": 0.5984251968503937
		},
		{
		  "duration": 0.1327432500000043,
		  "durationTicks": 120,
		  "midi": 52,
		  "name": "E3",
		  "ticks": 38400,
		  "time": 42.47784,
		  "velocity": 0.7480314960629921
		},
		{
		  "duration": 0.09955743749999613,
		  "durationTicks": 90,
		  "midi": 40,
		  "name": "E2",
		  "ticks": 38520,
		  "time": 42.610583250000005,
		  "velocity": 0.5984251968503937
		},
		{
		  "duration": 0.09955743750000323,
		  "durationTicks": 90,
		  "midi": 40,
		  "name": "E2",
		  "ticks": 38640,
		  "time": 42.7433265,
		  "velocity": 0.5984251968503937
		},
		{
		  "duration": 0.1327432500000043,
		  "durationTicks": 120,
		  "midi": 55,
		  "name": "G3",
		  "ticks": 38760,
		  "time": 42.87606975,
		  "velocity": 0.7480314960629921
		},
		{
		  "duration": 0.09955743749999613,
		  "durationTicks": 90,
		  "midi": 40,
		  "name": "E2",
		  "ticks": 38880,
		  "time": 43.008813,
		  "velocity": 0.5984251968503937
		},
		{
		  "duration": 0.09955743750000323,
		  "durationTicks": 90,
		  "midi": 40,
		  "name": "E2",
		  "ticks": 39000,
		  "time": 43.14155625,
		  "velocity": 0.5984251968503937
		},
		{
		  "duration": 0.1327432499999972,
		  "durationTicks": 120,
		  "midi": 52,
		  "name": "E3",
		  "ticks": 39120,
		  "time": 43.274299500000005,
		  "velocity": 0.7480314960629921
		},
		{
		  "duration": 0.09955743750000323,
		  "durationTicks": 90,
		  "midi": 40,
		  "name": "E2",
		  "ticks": 39240,
		  "time": 43.40704275,
		  "velocity": 0.5984251968503937
		},
		{
		  "duration": 0.09955743750000323,
		  "durationTicks": 90,
		  "midi": 40,
		  "name": "E2",
		  "ticks": 39360,
		  "time": 43.539786,
		  "velocity": 0.5984251968503937
		},
		{
		  "duration": 0.1327432499999972,
		  "durationTicks": 120,
		  "midi": 55,
		  "name": "G3",
		  "ticks": 39480,
		  "time": 43.672529250000004,
		  "velocity": 0.7480314960629921
		},
		{
		  "duration": 0.09955743750000323,
		  "durationTicks": 90,
		  "midi": 40,
		  "name": "E2",
		  "ticks": 39600,
		  "time": 43.8052725,
		  "velocity": 0.5984251968503937
		},
		{
		  "duration": 0.09955743749999613,
		  "durationTicks": 90,
		  "midi": 40,
		  "name": "E2",
		  "ticks": 39720,
		  "time": 43.938015750000005,
		  "velocity": 0.5984251968503937
		},
		{
		  "duration": 0.1327432499999972,
		  "durationTicks": 120,
		  "midi": 54,
		  "name": "F#3",
		  "ticks": 39840,
		  "time": 44.070759,
		  "velocity": 0.7480314960629921
		},
		{
		  "duration": 0.09955743750000323,
		  "durationTicks": 90,
		  "midi": 40,
		  "name": "E2",
		  "ticks": 39960,
		  "time": 44.20350225,
		  "velocity": 0.5984251968503937
		},
		{
		  "duration": 0.1327432499999972,
		  "durationTicks": 120,
		  "midi": 50,
		  "name": "D3",
		  "ticks": 40080,
		  "time": 44.336245500000004,
		  "velocity": 0.7480314960629921
		},
		{
		  "duration": 0.09955743750000323,
		  "durationTicks": 90,
		  "midi": 40,
		  "name": "E2",
		  "ticks": 40200,
		  "time": 44.46898875,
		  "velocity": 0.5984251968503937
		},
		{
		  "duration": 0.1327432499999972,
		  "durationTicks": 120,
		  "midi": 52,
		  "name": "E3",
		  "ticks": 40320,
		  "time": 44.601732000000005,
		  "velocity": 0.7480314960629921
		},
		{
		  "duration": 0.09955743750000323,
		  "durationTicks": 90,
		  "midi": 40,
		  "name": "E2",
		  "ticks": 40440,
		  "time": 44.73447525,
		  "velocity": 0.5984251968503937
		},
		{
		  "duration": 0.09955743750000323,
		  "durationTicks": 90,
		  "midi": 40,
		  "name": "E2",
		  "ticks": 40560,
		  "time": 44.8672185,
		  "velocity": 0.5984251968503937
		},
		{
		  "duration": 0.1327432499999972,
		  "durationTicks": 120,
		  "midi": 55,
		  "name": "G3",
		  "ticks": 40680,
		  "time": 44.999961750000004,
		  "velocity": 0.7480314960629921
		},
		{
		  "duration": 0.09955743750000323,
		  "durationTicks": 90,
		  "midi": 40,
		  "name": "E2",
		  "ticks": 40800,
		  "time": 45.132705,
		  "velocity": 0.5984251968503937
		},
		{
		  "duration": 0.09955743749999613,
		  "durationTicks": 90,
		  "midi": 40,
		  "name": "E2",
		  "ticks": 40920,
		  "time": 45.265448250000006,
		  "velocity": 0.5984251968503937
		},
		{
		  "duration": 0.1327432499999972,
		  "durationTicks": 120,
		  "midi": 52,
		  "name": "E3",
		  "ticks": 41040,
		  "time": 45.3981915,
		  "velocity": 0.7480314960629921
		},
		{
		  "duration": 0.09955743750000323,
		  "durationTicks": 90,
		  "midi": 40,
		  "name": "E2",
		  "ticks": 41160,
		  "time": 45.53093475,
		  "velocity": 0.5984251968503937
		},
		{
		  "duration": 0.09955743749999613,
		  "durationTicks": 90,
		  "midi": 40,
		  "name": "E2",
		  "ticks": 41280,
		  "time": 45.663678000000004,
		  "velocity": 0.5984251968503937
		},
		{
		  "duration": 0.1327432500000043,
		  "durationTicks": 120,
		  "midi": 55,
		  "name": "G3",
		  "ticks": 41400,
		  "time": 45.79642125,
		  "velocity": 0.7480314960629921
		},
		{
		  "duration": 0.09955743749999613,
		  "durationTicks": 90,
		  "midi": 40,
		  "name": "E2",
		  "ticks": 41520,
		  "time": 45.929164500000006,
		  "velocity": 0.5984251968503937
		},
		{
		  "duration": 0.09955743749999613,
		  "durationTicks": 90,
		  "midi": 40,
		  "name": "E2",
		  "ticks": 41640,
		  "time": 46.06190775,
		  "velocity": 0.5984251968503937
		},
		{
		  "duration": 0.1327432500000043,
		  "durationTicks": 120,
		  "midi": 57,
		  "name": "A3",
		  "ticks": 41760,
		  "time": 46.194651,
		  "velocity": 0.7480314960629921
		},
		{
		  "duration": 0.1327432499999972,
		  "durationTicks": 120,
		  "midi": 54,
		  "name": "F#3",
		  "ticks": 41880,
		  "time": 46.327394250000005,
		  "velocity": 0.7480314960629921
		},
		{
		  "duration": 0.09955743750000323,
		  "durationTicks": 90,
		  "midi": 40,
		  "name": "E2",
		  "ticks": 42000,
		  "time": 46.4601375,
		  "velocity": 0.5984251968503937
		},
		{
		  "duration": 0.1327432500000043,
		  "durationTicks": 120,
		  "midi": 50,
		  "name": "D3",
		  "ticks": 42120,
		  "time": 46.59288075,
		  "velocity": 0.7480314960629921
		},
		{
		  "duration": 0.1327432499999972,
		  "durationTicks": 120,
		  "midi": 52,
		  "name": "E3",
		  "ticks": 42240,
		  "time": 46.725624,
		  "velocity": 0.7480314960629921
		},
		{
		  "duration": 0.09955743750000323,
		  "durationTicks": 90,
		  "midi": 40,
		  "name": "E2",
		  "ticks": 42360,
		  "time": 46.85836725,
		  "velocity": 0.5984251968503937
		},
		{
		  "duration": 0.09955743749999613,
		  "durationTicks": 90,
		  "midi": 40,
		  "name": "E2",
		  "ticks": 42480,
		  "time": 46.991110500000005,
		  "velocity": 0.5984251968503937
		},
		{
		  "duration": 0.1327432499999972,
		  "durationTicks": 120,
		  "midi": 55,
		  "name": "G3",
		  "ticks": 42600,
		  "time": 47.12385375,
		  "velocity": 0.7480314960629921
		},
		{
		  "duration": 0.09955743750000323,
		  "durationTicks": 90,
		  "midi": 40,
		  "name": "E2",
		  "ticks": 42720,
		  "time": 47.256597,
		  "velocity": 0.5984251968503937
		},
		{
		  "duration": 0.09955743749999613,
		  "durationTicks": 90,
		  "midi": 40,
		  "name": "E2",
		  "ticks": 42840,
		  "time": 47.389340250000004,
		  "velocity": 0.5984251968503937
		},
		{
		  "duration": 0.1327432500000043,
		  "durationTicks": 120,
		  "midi": 52,
		  "name": "E3",
		  "ticks": 42960,
		  "time": 47.5220835,
		  "velocity": 0.7480314960629921
		},
		{
		  "duration": 0.09955743749999613,
		  "durationTicks": 90,
		  "midi": 40,
		  "name": "E2",
		  "ticks": 43080,
		  "time": 47.654826750000005,
		  "velocity": 0.5984251968503937
		},
		{
		  "duration": 0.09955743750000323,
		  "durationTicks": 90,
		  "midi": 40,
		  "name": "E2",
		  "ticks": 43200,
		  "time": 47.78757,
		  "velocity": 0.5984251968503937
		},
		{
		  "duration": 0.1327432500000043,
		  "durationTicks": 120,
		  "midi": 55,
		  "name": "G3",
		  "ticks": 43320,
		  "time": 47.92031325,
		  "velocity": 0.7480314960629921
		},
		{
		  "duration": 0.09955743749999613,
		  "durationTicks": 90,
		  "midi": 40,
		  "name": "E2",
		  "ticks": 43440,
		  "time": 48.053056500000004,
		  "velocity": 0.5984251968503937
		},
		{
		  "duration": 0.09955743750000323,
		  "durationTicks": 90,
		  "midi": 40,
		  "name": "E2",
		  "ticks": 43560,
		  "time": 48.18579975,
		  "velocity": 0.5984251968503937
		},
		{
		  "duration": 0.1327432499999972,
		  "durationTicks": 120,
		  "midi": 54,
		  "name": "F#3",
		  "ticks": 43680,
		  "time": 48.318543000000005,
		  "velocity": 0.7480314960629921
		},
		{
		  "duration": 0.09955743750000323,
		  "durationTicks": 90,
		  "midi": 40,
		  "name": "E2",
		  "ticks": 43800,
		  "time": 48.45128625,
		  "velocity": 0.5984251968503937
		},
		{
		  "duration": 0.1327432500000043,
		  "durationTicks": 120,
		  "midi": 50,
		  "name": "D3",
		  "ticks": 43920,
		  "time": 48.5840295,
		  "velocity": 0.7480314960629921
		},
		{
		  "duration": 0.09955743749999613,
		  "durationTicks": 90,
		  "midi": 40,
		  "name": "E2",
		  "ticks": 44040,
		  "time": 48.716772750000004,
		  "velocity": 0.5984251968503937
		},
		{
		  "duration": 0.1327432500000043,
		  "durationTicks": 120,
		  "midi": 64,
		  "name": "E4",
		  "ticks": 44160,
		  "time": 48.849516,
		  "velocity": 0.7480314960629921
		},
		{
		  "duration": 0.09955743749999613,
		  "durationTicks": 90,
		  "midi": 48,
		  "name": "C3",
		  "ticks": 44280,
		  "time": 48.982259250000006,
		  "velocity": 0.5984251968503937
		},
		{
		  "duration": 0.09955743750000323,
		  "durationTicks": 90,
		  "midi": 48,
		  "name": "C3",
		  "ticks": 44400,
		  "time": 49.1150025,
		  "velocity": 0.5984251968503937
		},
		{
		  "duration": 0.1327432500000043,
		  "durationTicks": 120,
		  "midi": 67,
		  "name": "G4",
		  "ticks": 44520,
		  "time": 49.24774575,
		  "velocity": 0.7480314960629921
		},
		{
		  "duration": 0.09955743749999613,
		  "durationTicks": 90,
		  "midi": 48,
		  "name": "C3",
		  "ticks": 44640,
		  "time": 49.380489000000004,
		  "velocity": 0.5984251968503937
		},
		{
		  "duration": 0.1327432500000043,
		  "durationTicks": 120,
		  "midi": 66,
		  "name": "F#4",
		  "ticks": 44760,
		  "time": 49.51323225,
		  "velocity": 0.7480314960629921
		},
		{
		  "duration": 0.09955743749999613,
		  "durationTicks": 90,
		  "midi": 48,
		  "name": "C3",
		  "ticks": 44880,
		  "time": 49.645975500000006,
		  "velocity": 0.5984251968503937
		},
		{
		  "duration": 0.1327432499999972,
		  "durationTicks": 120,
		  "midi": 60,
		  "name": "C4",
		  "ticks": 45000,
		  "time": 49.77871875,
		  "velocity": 0.7480314960629921
		},
		{
		  "duration": 0.09955743750000323,
		  "durationTicks": 90,
		  "midi": 50,
		  "name": "D3",
		  "ticks": 45120,
		  "time": 49.911462,
		  "velocity": 0.5984251968503937
		},
		{
		  "duration": 0.1327432499999972,
		  "durationTicks": 120,
		  "midi": 62,
		  "name": "D4",
		  "ticks": 45240,
		  "time": 50.044205250000005,
		  "velocity": 0.7480314960629921
		},
		{
		  "duration": 0.09955743750000323,
		  "durationTicks": 90,
		  "midi": 50,
		  "name": "D3",
		  "ticks": 45360,
		  "time": 50.1769485,
		  "velocity": 0.5984251968503937
		},
		{
		  "duration": 0.1327432499999972,
		  "durationTicks": 120,
		  "midi": 62,
		  "name": "D4",
		  "ticks": 45480,
		  "time": 50.309691750000006,
		  "velocity": 0.7480314960629921
		},
		{
		  "duration": 0.1327432499999972,
		  "durationTicks": 120,
		  "midi": 67,
		  "name": "G4",
		  "ticks": 45600,
		  "time": 50.442435,
		  "velocity": 0.7480314960629921
		},
		{
		  "duration": 0.09955743750000323,
		  "durationTicks": 90,
		  "midi": 50,
		  "name": "D3",
		  "ticks": 45720,
		  "time": 50.57517825,
		  "velocity": 0.5984251968503937
		},
		{
		  "duration": 0.1327432499999972,
		  "durationTicks": 120,
		  "midi": 66,
		  "name": "F#4",
		  "ticks": 45840,
		  "time": 50.707921500000005,
		  "velocity": 0.7480314960629921
		},
		{
		  "duration": 0.09955743750000323,
		  "durationTicks": 90,
		  "midi": 50,
		  "name": "D3",
		  "ticks": 45960,
		  "time": 50.84066475,
		  "velocity": 0.5984251968503937
		},
		{
		  "duration": 0.1327432499999972,
		  "durationTicks": 120,
		  "midi": 52,
		  "name": "E3",
		  "ticks": 46080,
		  "time": 50.973408000000006,
		  "velocity": 0.7480314960629921
		},
		{
		  "duration": 0.1327432499999972,
		  "durationTicks": 120,
		  "midi": 47,
		  "name": "B2",
		  "ticks": 46080,
		  "time": 50.973408000000006,
		  "velocity": 0.7480314960629921
		},
		{
		  "duration": 0.09955743749999613,
		  "durationTicks": 90,
		  "midi": 40,
		  "name": "E2",
		  "ticks": 46200,
		  "time": 51.10615125,
		  "velocity": 0.5984251968503937
		},
		{
		  "duration": 0.09955743750000323,
		  "durationTicks": 90,
		  "midi": 40,
		  "name": "E2",
		  "ticks": 46320,
		  "time": 51.2388945,
		  "velocity": 0.5984251968503937
		},
		{
		  "duration": 0.1327432499999972,
		  "durationTicks": 120,
		  "midi": 55,
		  "name": "G3",
		  "ticks": 46440,
		  "time": 51.371637750000005,
		  "velocity": 0.7480314960629921
		},
		{
		  "duration": 0.1327432499999972,
		  "durationTicks": 120,
		  "midi": 50,
		  "name": "D3",
		  "ticks": 46440,
		  "time": 51.371637750000005,
		  "velocity": 0.7480314960629921
		},
		{
		  "duration": 0.09955743750000323,
		  "durationTicks": 90,
		  "midi": 40,
		  "name": "E2",
		  "ticks": 46560,
		  "time": 51.504381,
		  "velocity": 0.5984251968503937
		},
		{
		  "duration": 0.09955743750000323,
		  "durationTicks": 90,
		  "midi": 40,
		  "name": "E2",
		  "ticks": 46680,
		  "time": 51.63712425,
		  "velocity": 0.5984251968503937
		},
		{
		  "duration": 0.1327432499999972,
		  "durationTicks": 120,
		  "midi": 52,
		  "name": "E3",
		  "ticks": 46800,
		  "time": 51.769867500000004,
		  "velocity": 0.7480314960629921
		},
		{
		  "duration": 0.1327432499999972,
		  "durationTicks": 120,
		  "midi": 47,
		  "name": "B2",
		  "ticks": 46800,
		  "time": 51.769867500000004,
		  "velocity": 0.7480314960629921
		},
		{
		  "duration": 0.09955743750000323,
		  "durationTicks": 90,
		  "midi": 40,
		  "name": "E2",
		  "ticks": 46920,
		  "time": 51.90261075,
		  "velocity": 0.5984251968503937
		},
		{
		  "duration": 0.09955743749999613,
		  "durationTicks": 90,
		  "midi": 40,
		  "name": "E2",
		  "ticks": 47040,
		  "time": 52.035354000000005,
		  "velocity": 0.5984251968503937
		},
		{
		  "duration": 0.1327432499999972,
		  "durationTicks": 120,
		  "midi": 55,
		  "name": "G3",
		  "ticks": 47160,
		  "time": 52.16809725,
		  "velocity": 0.7480314960629921
		},
		{
		  "duration": 0.1327432499999972,
		  "durationTicks": 120,
		  "midi": 50,
		  "name": "D3",
		  "ticks": 47160,
		  "time": 52.16809725,
		  "velocity": 0.7480314960629921
		},
		{
		  "duration": 0.09955743750000323,
		  "durationTicks": 90,
		  "midi": 40,
		  "name": "E2",
		  "ticks": 47280,
		  "time": 52.3008405,
		  "velocity": 0.5984251968503937
		},
		{
		  "duration": 0.09955743749999613,
		  "durationTicks": 90,
		  "midi": 40,
		  "name": "E2",
		  "ticks": 47400,
		  "time": 52.433583750000004,
		  "velocity": 0.5984251968503937
		},
		{
		  "duration": 0.1327432500000043,
		  "durationTicks": 120,
		  "midi": 54,
		  "name": "F#3",
		  "ticks": 47520,
		  "time": 52.566327,
		  "velocity": 0.7480314960629921
		},
		{
		  "duration": 0.1327432500000043,
		  "durationTicks": 120,
		  "midi": 50,
		  "name": "D3",
		  "ticks": 47520,
		  "time": 52.566327,
		  "velocity": 0.7480314960629921
		},
		{
		  "duration": 0.09955743749999613,
		  "durationTicks": 90,
		  "midi": 40,
		  "name": "E2",
		  "ticks": 47640,
		  "time": 52.699070250000005,
		  "velocity": 0.5984251968503937
		},
		{
		  "duration": 0.1327432499999972,
		  "durationTicks": 120,
		  "midi": 50,
		  "name": "D3",
		  "ticks": 47760,
		  "time": 52.8318135,
		  "velocity": 0.7480314960629921
		},
		{
		  "duration": 0.1327432499999972,
		  "durationTicks": 120,
		  "midi": 45,
		  "name": "A2",
		  "ticks": 47760,
		  "time": 52.8318135,
		  "velocity": 0.7480314960629921
		},
		{
		  "duration": 0.09955743750000323,
		  "durationTicks": 90,
		  "midi": 40,
		  "name": "E2",
		  "ticks": 47880,
		  "time": 52.96455675,
		  "velocity": 0.5984251968503937
		},
		{
		  "duration": 0.1327432499999972,
		  "durationTicks": 120,
		  "midi": 52,
		  "name": "E3",
		  "ticks": 48000,
		  "time": 53.097300000000004,
		  "velocity": 0.7480314960629921
		},
		{
		  "duration": 0.1327432499999972,
		  "durationTicks": 120,
		  "midi": 47,
		  "name": "B2",
		  "ticks": 48000,
		  "time": 53.097300000000004,
		  "velocity": 0.7480314960629921
		},
		{
		  "duration": 0.09955743750000323,
		  "durationTicks": 90,
		  "midi": 40,
		  "name": "E2",
		  "ticks": 48120,
		  "time": 53.23004325,
		  "velocity": 0.5984251968503937
		},
		{
		  "duration": 0.09955743749999613,
		  "durationTicks": 90,
		  "midi": 40,
		  "name": "E2",
		  "ticks": 48240,
		  "time": 53.362786500000006,
		  "velocity": 0.5984251968503937
		},
		{
		  "duration": 0.1327432499999972,
		  "durationTicks": 120,
		  "midi": 55,
		  "name": "G3",
		  "ticks": 48360,
		  "time": 53.49552975,
		  "velocity": 0.7480314960629921
		},
		{
		  "duration": 0.1327432499999972,
		  "durationTicks": 120,
		  "midi": 50,
		  "name": "D3",
		  "ticks": 48360,
		  "time": 53.49552975,
		  "velocity": 0.7480314960629921
		},
		{
		  "duration": 0.09955743750000323,
		  "durationTicks": 90,
		  "midi": 40,
		  "name": "E2",
		  "ticks": 48480,
		  "time": 53.628273,
		  "velocity": 0.5984251968503937
		},
		{
		  "duration": 0.09955743749999613,
		  "durationTicks": 90,
		  "midi": 40,
		  "name": "E2",
		  "ticks": 48600,
		  "time": 53.761016250000004,
		  "velocity": 0.5984251968503937
		},
		{
		  "duration": 0.1327432500000043,
		  "durationTicks": 120,
		  "midi": 52,
		  "name": "E3",
		  "ticks": 48720,
		  "time": 53.8937595,
		  "velocity": 0.7480314960629921
		},
		{
		  "duration": 0.1327432500000043,
		  "durationTicks": 120,
		  "midi": 47,
		  "name": "B2",
		  "ticks": 48720,
		  "time": 53.8937595,
		  "velocity": 0.7480314960629921
		},
		{
		  "duration": 0.09955743749999613,
		  "durationTicks": 90,
		  "midi": 40,
		  "name": "E2",
		  "ticks": 48840,
		  "time": 54.026502750000006,
		  "velocity": 0.5984251968503937
		},
		{
		  "duration": 0.09955743750000323,
		  "durationTicks": 90,
		  "midi": 40,
		  "name": "E2",
		  "ticks": 48960,
		  "time": 54.159246,
		  "velocity": 0.5984251968503937
		},
		{
		  "duration": 0.1327432500000043,
		  "durationTicks": 120,
		  "midi": 55,
		  "name": "G3",
		  "ticks": 49080,
		  "time": 54.29198925,
		  "velocity": 0.7480314960629921
		},
		{
		  "duration": 0.1327432500000043,
		  "durationTicks": 120,
		  "midi": 50,
		  "name": "D3",
		  "ticks": 49080,
		  "time": 54.29198925,
		  "velocity": 0.7480314960629921
		},
		{
		  "duration": 0.09955743749999613,
		  "durationTicks": 90,
		  "midi": 40,
		  "name": "E2",
		  "ticks": 49200,
		  "time": 54.424732500000005,
		  "velocity": 0.5984251968503937
		},
		{
		  "duration": 0.09955743750000323,
		  "durationTicks": 90,
		  "midi": 40,
		  "name": "E2",
		  "ticks": 49320,
		  "time": 54.55747575,
		  "velocity": 0.5984251968503937
		},
		{
		  "duration": 0.1327432499999972,
		  "durationTicks": 120,
		  "midi": 57,
		  "name": "A3",
		  "ticks": 49440,
		  "time": 54.690219000000006,
		  "velocity": 0.7480314960629921
		},
		{
		  "duration": 0.1327432499999972,
		  "durationTicks": 120,
		  "midi": 54,
		  "name": "F#3",
		  "ticks": 49560,
		  "time": 54.82296225,
		  "velocity": 0.7480314960629921
		},
		{
		  "duration": 0.09955743750000323,
		  "durationTicks": 90,
		  "midi": 40,
		  "name": "E2",
		  "ticks": 49680,
		  "time": 54.9557055,
		  "velocity": 0.5984251968503937
		},
		{
		  "duration": 0.1327432499999972,
		  "durationTicks": 120,
		  "midi": 50,
		  "name": "D3",
		  "ticks": 49800,
		  "time": 55.088448750000005,
		  "velocity": 0.7480314960629921
		},
		{
		  "duration": 0.1327432500000043,
		  "durationTicks": 120,
		  "midi": 52,
		  "name": "E3",
		  "ticks": 49920,
		  "time": 55.221192,
		  "velocity": 0.7480314960629921
		},
		{
		  "duration": 0.1327432500000043,
		  "durationTicks": 120,
		  "midi": 47,
		  "name": "B2",
		  "ticks": 49920,
		  "time": 55.221192,
		  "velocity": 0.7480314960629921
		},
		{
		  "duration": 0.09955743749999613,
		  "durationTicks": 90,
		  "midi": 40,
		  "name": "E2",
		  "ticks": 50040,
		  "time": 55.353935250000006,
		  "velocity": 0.5984251968503937
		},
		{
		  "duration": 0.09955743749999613,
		  "durationTicks": 90,
		  "midi": 40,
		  "name": "E2",
		  "ticks": 50160,
		  "time": 55.486678500000004,
		  "velocity": 0.5984251968503937
		},
		{
		  "duration": 0.1327432500000043,
		  "durationTicks": 120,
		  "midi": 55,
		  "name": "G3",
		  "ticks": 50280,
		  "time": 55.61942175,
		  "velocity": 0.7480314960629921
		},
		{
		  "duration": 0.1327432500000043,
		  "durationTicks": 120,
		  "midi": 50,
		  "name": "D3",
		  "ticks": 50280,
		  "time": 55.61942175,
		  "velocity": 0.7480314960629921
		},
		{
		  "duration": 0.09955743749999613,
		  "durationTicks": 90,
		  "midi": 40,
		  "name": "E2",
		  "ticks": 50400,
		  "time": 55.752165000000005,
		  "velocity": 0.5984251968503937
		},
		{
		  "duration": 0.09955743750000323,
		  "durationTicks": 90,
		  "midi": 40,
		  "name": "E2",
		  "ticks": 50520,
		  "time": 55.88490825,
		  "velocity": 0.5984251968503937
		},
		{
		  "duration": 0.1327432500000043,
		  "durationTicks": 120,
		  "midi": 52,
		  "name": "E3",
		  "ticks": 50640,
		  "time": 56.0176515,
		  "velocity": 0.7480314960629921
		},
		{
		  "duration": 0.1327432500000043,
		  "durationTicks": 120,
		  "midi": 47,
		  "name": "B2",
		  "ticks": 50640,
		  "time": 56.0176515,
		  "velocity": 0.7480314960629921
		},
		{
		  "duration": 0.09955743749999613,
		  "durationTicks": 90,
		  "midi": 40,
		  "name": "E2",
		  "ticks": 50760,
		  "time": 56.150394750000004,
		  "velocity": 0.5984251968503937
		},
		{
		  "duration": 0.09955743750000323,
		  "durationTicks": 90,
		  "midi": 40,
		  "name": "E2",
		  "ticks": 50880,
		  "time": 56.283138,
		  "velocity": 0.5984251968503937
		},
		{
		  "duration": 0.1327432499999972,
		  "durationTicks": 120,
		  "midi": 55,
		  "name": "G3",
		  "ticks": 51000,
		  "time": 56.415881250000005,
		  "velocity": 0.7480314960629921
		},
		{
		  "duration": 0.1327432499999972,
		  "durationTicks": 120,
		  "midi": 50,
		  "name": "D3",
		  "ticks": 51000,
		  "time": 56.415881250000005,
		  "velocity": 0.7480314960629921
		},
		{
		  "duration": 0.09955743750000323,
		  "durationTicks": 90,
		  "midi": 40,
		  "name": "E2",
		  "ticks": 51120,
		  "time": 56.5486245,
		  "velocity": 0.5984251968503937
		},
		{
		  "duration": 0.09955743750000323,
		  "durationTicks": 90,
		  "midi": 40,
		  "name": "E2",
		  "ticks": 51240,
		  "time": 56.68136775,
		  "velocity": 0.5984251968503937
		},
		{
		  "duration": 0.1327432499999972,
		  "durationTicks": 120,
		  "midi": 54,
		  "name": "F#3",
		  "ticks": 51360,
		  "time": 56.814111000000004,
		  "velocity": 0.7480314960629921
		},
		{
		  "duration": 0.1327432499999972,
		  "durationTicks": 120,
		  "midi": 50,
		  "name": "D3",
		  "ticks": 51360,
		  "time": 56.814111000000004,
		  "velocity": 0.7480314960629921
		},
		{
		  "duration": 0.09955743750000323,
		  "durationTicks": 90,
		  "midi": 40,
		  "name": "E2",
		  "ticks": 51480,
		  "time": 56.94685425,
		  "velocity": 0.5984251968503937
		},
		{
		  "duration": 0.1327432499999972,
		  "durationTicks": 120,
		  "midi": 50,
		  "name": "D3",
		  "ticks": 51600,
		  "time": 57.079597500000006,
		  "velocity": 0.7480314960629921
		},
		{
		  "duration": 0.1327432499999972,
		  "durationTicks": 120,
		  "midi": 45,
		  "name": "A2",
		  "ticks": 51600,
		  "time": 57.079597500000006,
		  "velocity": 0.7480314960629921
		},
		{
		  "duration": 0.09955743750000323,
		  "durationTicks": 90,
		  "midi": 40,
		  "name": "E2",
		  "ticks": 51720,
		  "time": 57.21234075,
		  "velocity": 0.5984251968503937
		},
		{
		  "duration": 1.061946000000006,
		  "durationTicks": 960,
		  "midi": 48,
		  "name": "C3",
		  "ticks": 51840,
		  "time": 57.345084,
		  "velocity": 0.7480314960629921
		},
		{
		  "duration": 1.061946000000006,
		  "durationTicks": 960,
		  "midi": 43,
		  "name": "G2",
		  "ticks": 51840,
		  "time": 57.345084,
		  "velocity": 0.7480314960629921
		},
		{
		  "duration": 1.061946000000006,
		  "durationTicks": 960,
		  "midi": 36,
		  "name": "C2",
		  "ticks": 51840,
		  "time": 57.345084,
		  "velocity": 0.7480314960629921
		},
		{
		  "duration": 1.061945999999999,
		  "durationTicks": 960,
		  "midi": 50,
		  "name": "D3",
		  "ticks": 52800,
		  "time": 58.407030000000006,
		  "velocity": 0.7480314960629921
		},
		{
		  "duration": 1.061945999999999,
		  "durationTicks": 960,
		  "midi": 45,
		  "name": "A2",
		  "ticks": 52800,
		  "time": 58.407030000000006,
		  "velocity": 0.7480314960629921
		},
		{
		  "duration": 1.061945999999999,
		  "durationTicks": 960,
		  "midi": 38,
		  "name": "D2",
		  "ticks": 52800,
		  "time": 58.407030000000006,
		  "velocity": 0.7480314960629921
		}
	  ]
	},
	{
	  "channel": 0,
	  "controlChanges": {
		"6": [
		  {
			"number": 6,
			"ticks": 0,
			"time": 0,
			"value": 0.09448818897637795
		  },
		  {
			"number": 6,
			"ticks": 0,
			"time": 0,
			"value": 0.5039370078740157
		  },
		  {
			"number": 6,
			"ticks": 0,
			"time": 0,
			"value": 0.5039370078740157
		  }
		],
		"38": [
		  {
			"number": 38,
			"ticks": 0,
			"time": 0,
			"value": 0
		  }
		],
		"100": [
		  {
			"number": 100,
			"ticks": 0,
			"time": 0,
			"value": 0
		  },
		  {
			"number": 100,
			"ticks": 0,
			"time": 0,
			"value": 0.007874015748031496
		  },
		  {
			"number": 100,
			"ticks": 0,
			"time": 0,
			"value": 1
		  },
		  {
			"number": 100,
			"ticks": 0,
			"time": 0,
			"value": 0.015748031496062992
		  },
		  {
			"number": 100,
			"ticks": 0,
			"time": 0,
			"value": 1
		  }
		],
		"101": [
		  {
			"number": 101,
			"ticks": 0,
			"time": 0,
			"value": 0
		  },
		  {
			"number": 101,
			"ticks": 0,
			"time": 0,
			"value": 0
		  },
		  {
			"number": 101,
			"ticks": 0,
			"time": 0,
			"value": 1
		  },
		  {
			"number": 101,
			"ticks": 0,
			"time": 0,
			"value": 0
		  },
		  {
			"number": 101,
			"ticks": 0,
			"time": 0,
			"value": 1
		  }
		]
	  },
	  "pitchBends": [
		{
		  "ticks": 0,
		  "time": 0,
		  "value": 0
		}
	  ],
	  "instrument": {
		"family": "piano",
		"number": 0,
		"name": "acoustic grand piano"
	  },
	  "name": "Left  Guitar",
	  "notes": [],
	  "endOfTrackTicks": 53760
	},
	{
	  "channel": 0,
	  "controlChanges": {
		"6": [
		  {
			"number": 6,
			"ticks": 0,
			"time": 0,
			"value": 0.09448818897637795
		  },
		  {
			"number": 6,
			"ticks": 0,
			"time": 0,
			"value": 0.5039370078740157
		  },
		  {
			"number": 6,
			"ticks": 0,
			"time": 0,
			"value": 0.5039370078740157
		  }
		],
		"38": [
		  {
			"number": 38,
			"ticks": 0,
			"time": 0,
			"value": 0
		  }
		],
		"100": [
		  {
			"number": 100,
			"ticks": 0,
			"time": 0,
			"value": 0
		  },
		  {
			"number": 100,
			"ticks": 0,
			"time": 0,
			"value": 0.007874015748031496
		  },
		  {
			"number": 100,
			"ticks": 0,
			"time": 0,
			"value": 1
		  },
		  {
			"number": 100,
			"ticks": 0,
			"time": 0,
			"value": 0.015748031496062992
		  },
		  {
			"number": 100,
			"ticks": 0,
			"time": 0,
			"value": 1
		  }
		],
		"101": [
		  {
			"number": 101,
			"ticks": 0,
			"time": 0,
			"value": 0
		  },
		  {
			"number": 101,
			"ticks": 0,
			"time": 0,
			"value": 0
		  },
		  {
			"number": 101,
			"ticks": 0,
			"time": 0,
			"value": 1
		  },
		  {
			"number": 101,
			"ticks": 0,
			"time": 0,
			"value": 0
		  },
		  {
			"number": 101,
			"ticks": 0,
			"time": 0,
			"value": 1
		  }
		]
	  },
	  "pitchBends": [
		{
		  "ticks": 0,
		  "time": 0,
		  "value": 0
		}
	  ],
	  "instrument": {
		"family": "piano",
		"number": 0,
		"name": "acoustic grand piano"
	  },
	  "name": "",
	  "notes": []
	},
	{
	  "channel": 0,
	  "controlChanges": {
		"0": [
		  {
			"number": 0,
			"ticks": 0,
			"time": 0,
			"value": 0
		  }
		],
		"7": [
		  {
			"number": 7,
			"ticks": 0,
			"time": 0,
			"value": 0.5039370078740157
		  }
		],
		"10": [
		  {
			"number": 10,
			"ticks": 0,
			"time": 0,
			"value": 0
		  }
		],
		"91": [
		  {
			"number": 91,
			"ticks": 0,
			"time": 0,
			"value": 0
		  }
		],
		"92": [
		  {
			"number": 92,
			"ticks": 0,
			"time": 0,
			"value": 0
		  }
		],
		"93": [
		  {
			"number": 93,
			"ticks": 0,
			"time": 0,
			"value": 0
		  }
		],
		"95": [
		  {
			"number": 95,
			"ticks": 0,
			"time": 0,
			"value": 0
		  }
		]
	  },
	  "pitchBends": [],
	  "instrument": {
		"family": "guitar",
		"number": 30,
		"name": "distortion guitar"
	  },
	  "name": "",
	  "notes": []
	},
	{
	  "channel": 4,
	  "controlChanges": {
		"0": [
		  {
			"number": 0,
			"ticks": 0,
			"time": 0,
			"value": 0
		  }
		],
		"7": [
		  {
			"number": 7,
			"ticks": 0,
			"time": 0,
			"value": 0.5039370078740157
		  }
		],
		"10": [
		  {
			"number": 10,
			"ticks": 0,
			"time": 0,
			"value": 0
		  }
		],
		"91": [
		  {
			"number": 91,
			"ticks": 0,
			"time": 0,
			"value": 0
		  }
		],
		"92": [
		  {
			"number": 92,
			"ticks": 0,
			"time": 0,
			"value": 0
		  }
		],
		"93": [
		  {
			"number": 93,
			"ticks": 0,
			"time": 0,
			"value": 0
		  }
		],
		"95": [
		  {
			"number": 95,
			"ticks": 0,
			"time": 0,
			"value": 0
		  }
		]
	  },
	  "pitchBends": [],
	  "instrument": {
		"family": "guitar",
		"number": 30,
		"name": "distortion guitar"
	  },
	  "name": "",
	  "notes": [
		{
		  "duration": 0.7964595000000001,
		  "durationTicks": 720,
		  "midi": 52,
		  "name": "E3",
		  "ticks": 0,
		  "time": 0,
		  "velocity": 0.7480314960629921
		},
		{
		  "duration": 0.7964595000000001,
		  "durationTicks": 720,
		  "midi": 47,
		  "name": "B2",
		  "ticks": 0,
		  "time": 0,
		  "velocity": 0.7480314960629921
		},
		{
		  "duration": 0.7964595000000001,
		  "durationTicks": 720,
		  "midi": 40,
		  "name": "E2",
		  "ticks": 0,
		  "time": 0,
		  "velocity": 0.7480314960629921
		},
		{
		  "duration": 0.2654865000000002,
		  "durationTicks": 240,
		  "midi": 52,
		  "name": "E3",
		  "ticks": 1920,
		  "time": 2.123892,
		  "velocity": 0.7480314960629921
		},
		{
		  "duration": 0.2654865000000002,
		  "durationTicks": 240,
		  "midi": 47,
		  "name": "B2",
		  "ticks": 1920,
		  "time": 2.123892,
		  "velocity": 0.7480314960629921
		},
		{
		  "duration": 0.2654865000000002,
		  "durationTicks": 240,
		  "midi": 40,
		  "name": "E2",
		  "ticks": 1920,
		  "time": 2.123892,
		  "velocity": 0.7480314960629921
		},
		{
		  "duration": 0.26548649999999974,
		  "durationTicks": 240,
		  "midi": 52,
		  "name": "E3",
		  "ticks": 2160,
		  "time": 2.3893785000000003,
		  "velocity": 0.7480314960629921
		},
		{
		  "duration": 0.26548649999999974,
		  "durationTicks": 240,
		  "midi": 47,
		  "name": "B2",
		  "ticks": 2160,
		  "time": 2.3893785000000003,
		  "velocity": 0.7480314960629921
		},
		{
		  "duration": 0.26548649999999974,
		  "durationTicks": 240,
		  "midi": 40,
		  "name": "E2",
		  "ticks": 2160,
		  "time": 2.3893785000000003,
		  "velocity": 0.7480314960629921
		},
		{
		  "duration": 0.13274324999999987,
		  "durationTicks": 120,
		  "midi": 57,
		  "name": "A3",
		  "ticks": 3360,
		  "time": 3.7168110000000003,
		  "velocity": 0.7480314960629921
		},
		{
		  "duration": 0.13274324999999987,
		  "durationTicks": 120,
		  "midi": 54,
		  "name": "F#3",
		  "ticks": 3480,
		  "time": 3.84955425,
		  "velocity": 0.7480314960629921
		},
		{
		  "duration": 0.09955743750000012,
		  "durationTicks": 90,
		  "midi": 40,
		  "name": "E2",
		  "ticks": 3600,
		  "time": 3.9822975,
		  "velocity": 0.5984251968503937
		},
		{
		  "duration": 0.13274324999999987,
		  "durationTicks": 120,
		  "midi": 50,
		  "name": "D3",
		  "ticks": 3720,
		  "time": 4.11504075,
		  "velocity": 0.7480314960629921
		},
		{
		  "duration": 0.5309730000000004,
		  "durationTicks": 480,
		  "midi": 52,
		  "name": "E3",
		  "ticks": 3840,
		  "time": 4.247784,
		  "velocity": 0.7480314960629921
		},
		{
		  "duration": 0.5309730000000004,
		  "durationTicks": 480,
		  "midi": 47,
		  "name": "B2",
		  "ticks": 3840,
		  "time": 4.247784,
		  "velocity": 0.7480314960629921
		},
		{
		  "duration": 0.5309730000000004,
		  "durationTicks": 480,
		  "midi": 40,
		  "name": "E2",
		  "ticks": 3840,
		  "time": 4.247784,
		  "velocity": 0.7480314960629921
		},
		{
		  "duration": 0.5309730000000004,
		  "durationTicks": 480,
		  "midi": 62,
		  "name": "D4",
		  "ticks": 5280,
		  "time": 5.840703,
		  "velocity": 0.7480314960629921
		},
		{
		  "duration": 0.5309730000000004,
		  "durationTicks": 480,
		  "midi": 57,
		  "name": "A3",
		  "ticks": 5280,
		  "time": 5.840703,
		  "velocity": 0.7480314960629921
		},
		{
		  "duration": 0.5309730000000004,
		  "durationTicks": 480,
		  "midi": 50,
		  "name": "D3",
		  "ticks": 5280,
		  "time": 5.840703,
		  "velocity": 0.7480314960629921
		},
		{
		  "duration": 0.13274324999999987,
		  "durationTicks": 120,
		  "midi": 67,
		  "name": "G4",
		  "ticks": 5760,
		  "time": 6.371676000000001,
		  "velocity": 0.7480314960629921
		},
		{
		  "duration": 0.09955743749999968,
		  "durationTicks": 90,
		  "midi": 48,
		  "name": "C3",
		  "ticks": 5880,
		  "time": 6.504419250000001,
		  "velocity": 0.5984251968503937
		},
		{
		  "duration": 0.09955743749999968,
		  "durationTicks": 90,
		  "midi": 48,
		  "name": "C3",
		  "ticks": 6000,
		  "time": 6.6371625000000005,
		  "velocity": 0.5984251968503937
		},
		{
		  "duration": 0.13274324999999987,
		  "durationTicks": 120,
		  "midi": 71,
		  "name": "B4",
		  "ticks": 6120,
		  "time": 6.76990575,
		  "velocity": 0.7480314960629921
		},
		{
		  "duration": 0.09955743749999968,
		  "durationTicks": 90,
		  "midi": 48,
		  "name": "C3",
		  "ticks": 6240,
		  "time": 6.902649,
		  "velocity": 0.5984251968503937
		},
		{
		  "duration": 0.13274324999999987,
		  "durationTicks": 120,
		  "midi": 69,
		  "name": "A4",
		  "ticks": 6360,
		  "time": 7.03539225,
		  "velocity": 0.7480314960629921
		},
		{
		  "duration": 0.09955743750000057,
		  "durationTicks": 90,
		  "midi": 48,
		  "name": "C3",
		  "ticks": 6480,
		  "time": 7.1681355,
		  "velocity": 0.5984251968503937
		},
		{
		  "duration": 0.13274324999999987,
		  "durationTicks": 120,
		  "midi": 64,
		  "name": "E4",
		  "ticks": 6600,
		  "time": 7.300878750000001,
		  "velocity": 0.7480314960629921
		},
		{
		  "duration": 0.09955743749999968,
		  "durationTicks": 90,
		  "midi": 50,
		  "name": "D3",
		  "ticks": 6720,
		  "time": 7.433622000000001,
		  "velocity": 0.5984251968503937
		},
		{
		  "duration": 0.13274324999999987,
		  "durationTicks": 120,
		  "midi": 66,
		  "name": "F#4",
		  "ticks": 6840,
		  "time": 7.5663652500000005,
		  "velocity": 0.7480314960629921
		},
		{
		  "duration": 0.09955743749999968,
		  "durationTicks": 90,
		  "midi": 50,
		  "name": "D3",
		  "ticks": 6960,
		  "time": 7.6991085,
		  "velocity": 0.5984251968503937
		},
		{
		  "duration": 0.13274324999999987,
		  "durationTicks": 120,
		  "midi": 66,
		  "name": "F#4",
		  "ticks": 7080,
		  "time": 7.83185175,
		  "velocity": 0.7480314960629921
		},
		{
		  "duration": 0.13274324999999987,
		  "durationTicks": 120,
		  "midi": 71,
		  "name": "B4",
		  "ticks": 7200,
		  "time": 7.964595,
		  "velocity": 0.7480314960629921
		},
		{
		  "duration": 0.09955743749999968,
		  "durationTicks": 90,
		  "midi": 50,
		  "name": "D3",
		  "ticks": 7320,
		  "time": 8.09733825,
		  "velocity": 0.5984251968503937
		},
		{
		  "duration": 0.13274324999999898,
		  "durationTicks": 120,
		  "midi": 69,
		  "name": "A4",
		  "ticks": 7440,
		  "time": 8.2300815,
		  "velocity": 0.7480314960629921
		},
		{
		  "duration": 0.09955743750000146,
		  "durationTicks": 90,
		  "midi": 50,
		  "name": "D3",
		  "ticks": 7560,
		  "time": 8.36282475,
		  "velocity": 0.5984251968503937
		},
		{
		  "duration": 0.13274325000000076,
		  "durationTicks": 120,
		  "midi": 52,
		  "name": "E3",
		  "ticks": 7680,
		  "time": 8.495568,
		  "velocity": 0.7480314960629921
		},
		{
		  "duration": 0.09955743749999968,
		  "durationTicks": 90,
		  "midi": 40,
		  "name": "E2",
		  "ticks": 7800,
		  "time": 8.628311250000001,
		  "velocity": 0.5984251968503937
		},
		{
		  "duration": 0.09955743749999968,
		  "durationTicks": 90,
		  "midi": 40,
		  "name": "E2",
		  "ticks": 7920,
		  "time": 8.7610545,
		  "velocity": 0.5984251968503937
		},
		{
		  "duration": 0.13274324999999898,
		  "durationTicks": 120,
		  "midi": 55,
		  "name": "G3",
		  "ticks": 8040,
		  "time": 8.893797750000001,
		  "velocity": 0.7480314960629921
		},
		{
		  "duration": 0.09955743749999968,
		  "durationTicks": 90,
		  "midi": 40,
		  "name": "E2",
		  "ticks": 8160,
		  "time": 9.026541,
		  "velocity": 0.5984251968503937
		},
		{
		  "duration": 0.09955743749999968,
		  "durationTicks": 90,
		  "midi": 40,
		  "name": "E2",
		  "ticks": 8280,
		  "time": 9.15928425,
		  "velocity": 0.5984251968503937
		},
		{
		  "duration": 0.13274325000000076,
		  "durationTicks": 120,
		  "midi": 52,
		  "name": "E3",
		  "ticks": 8400,
		  "time": 9.2920275,
		  "velocity": 0.7480314960629921
		},
		{
		  "duration": 0.09955743749999968,
		  "durationTicks": 90,
		  "midi": 40,
		  "name": "E2",
		  "ticks": 8520,
		  "time": 9.42477075,
		  "velocity": 0.5984251968503937
		},
		{
		  "duration": 0.09955743749999968,
		  "durationTicks": 90,
		  "midi": 40,
		  "name": "E2",
		  "ticks": 8640,
		  "time": 9.557514000000001,
		  "velocity": 0.5984251968503937
		},
		{
		  "duration": 0.13274325000000076,
		  "durationTicks": 120,
		  "midi": 55,
		  "name": "G3",
		  "ticks": 8760,
		  "time": 9.69025725,
		  "velocity": 0.7480314960629921
		},
		{
		  "duration": 0.09955743749999968,
		  "durationTicks": 90,
		  "midi": 40,
		  "name": "E2",
		  "ticks": 8880,
		  "time": 9.823000500000001,
		  "velocity": 0.5984251968503937
		},
		{
		  "duration": 0.09955743750000146,
		  "durationTicks": 90,
		  "midi": 40,
		  "name": "E2",
		  "ticks": 9000,
		  "time": 9.95574375,
		  "velocity": 0.5984251968503937
		},
		{
		  "duration": 0.13274325000000076,
		  "durationTicks": 120,
		  "midi": 54,
		  "name": "F#3",
		  "ticks": 9120,
		  "time": 10.088487,
		  "velocity": 0.7480314960629921
		},
		{
		  "duration": 0.09955743749999968,
		  "durationTicks": 90,
		  "midi": 40,
		  "name": "E2",
		  "ticks": 9240,
		  "time": 10.221230250000001,
		  "velocity": 0.5984251968503937
		},
		{
		  "duration": 0.13274325000000076,
		  "durationTicks": 120,
		  "midi": 50,
		  "name": "D3",
		  "ticks": 9360,
		  "time": 10.3539735,
		  "velocity": 0.7480314960629921
		},
		{
		  "duration": 0.09955743749999968,
		  "durationTicks": 90,
		  "midi": 40,
		  "name": "E2",
		  "ticks": 9480,
		  "time": 10.486716750000001,
		  "velocity": 0.5984251968503937
		},
		{
		  "duration": 0.13274325000000076,
		  "durationTicks": 120,
		  "midi": 52,
		  "name": "E3",
		  "ticks": 9600,
		  "time": 10.61946,
		  "velocity": 0.7480314960629921
		},
		{
		  "duration": 0.09955743749999968,
		  "durationTicks": 90,
		  "midi": 40,
		  "name": "E2",
		  "ticks": 9720,
		  "time": 10.75220325,
		  "velocity": 0.5984251968503937
		},
		{
		  "duration": 0.09955743750000146,
		  "durationTicks": 90,
		  "midi": 40,
		  "name": "E2",
		  "ticks": 9840,
		  "time": 10.8849465,
		  "velocity": 0.5984251968503937
		},
		{
		  "duration": 0.13274325000000076,
		  "durationTicks": 120,
		  "midi": 55,
		  "name": "G3",
		  "ticks": 9960,
		  "time": 11.01768975,
		  "velocity": 0.7480314960629921
		},
		{
		  "duration": 0.09955743749999968,
		  "durationTicks": 90,
		  "midi": 40,
		  "name": "E2",
		  "ticks": 10080,
		  "time": 11.150433000000001,
		  "velocity": 0.5984251968503937
		},
		{
		  "duration": 0.09955743749999968,
		  "durationTicks": 90,
		  "midi": 40,
		  "name": "E2",
		  "ticks": 10200,
		  "time": 11.28317625,
		  "velocity": 0.5984251968503937
		},
		{
		  "duration": 0.13274324999999898,
		  "durationTicks": 120,
		  "midi": 52,
		  "name": "E3",
		  "ticks": 10320,
		  "time": 11.415919500000001,
		  "velocity": 0.7480314960629921
		},
		{
		  "duration": 0.09955743749999968,
		  "durationTicks": 90,
		  "midi": 40,
		  "name": "E2",
		  "ticks": 10440,
		  "time": 11.54866275,
		  "velocity": 0.5984251968503937
		},
		{
		  "duration": 0.09955743749999968,
		  "durationTicks": 90,
		  "midi": 40,
		  "name": "E2",
		  "ticks": 10560,
		  "time": 11.681406,
		  "velocity": 0.5984251968503937
		},
		{
		  "duration": 0.13274325000000076,
		  "durationTicks": 120,
		  "midi": 55,
		  "name": "G3",
		  "ticks": 10680,
		  "time": 11.81414925,
		  "velocity": 0.7480314960629921
		},
		{
		  "duration": 0.09955743749999968,
		  "durationTicks": 90,
		  "midi": 40,
		  "name": "E2",
		  "ticks": 10800,
		  "time": 11.9468925,
		  "velocity": 0.5984251968503937
		},
		{
		  "duration": 0.09955743749999968,
		  "durationTicks": 90,
		  "midi": 40,
		  "name": "E2",
		  "ticks": 10920,
		  "time": 12.079635750000001,
		  "velocity": 0.5984251968503937
		},
		{
		  "duration": 0.13274325000000076,
		  "durationTicks": 120,
		  "midi": 57,
		  "name": "A3",
		  "ticks": 11040,
		  "time": 12.212379,
		  "velocity": 0.7480314960629921
		},
		{
		  "duration": 0.13274324999999898,
		  "durationTicks": 120,
		  "midi": 54,
		  "name": "F#3",
		  "ticks": 11160,
		  "time": 12.345122250000001,
		  "velocity": 0.7480314960629921
		},
		{
		  "duration": 0.09955743750000146,
		  "durationTicks": 90,
		  "midi": 40,
		  "name": "E2",
		  "ticks": 11280,
		  "time": 12.4778655,
		  "velocity": 0.5984251968503937
		},
		{
		  "duration": 0.13274325000000076,
		  "durationTicks": 120,
		  "midi": 50,
		  "name": "D3",
		  "ticks": 11400,
		  "time": 12.61060875,
		  "velocity": 0.7480314960629921
		},
		{
		  "duration": 0.13274324999999898,
		  "durationTicks": 120,
		  "midi": 52,
		  "name": "E3",
		  "ticks": 11520,
		  "time": 12.743352000000002,
		  "velocity": 0.7480314960629921
		},
		{
		  "duration": 0.09955743749999968,
		  "durationTicks": 90,
		  "midi": 40,
		  "name": "E2",
		  "ticks": 11640,
		  "time": 12.87609525,
		  "velocity": 0.5984251968503937
		},
		{
		  "duration": 0.09955743749999968,
		  "durationTicks": 90,
		  "midi": 40,
		  "name": "E2",
		  "ticks": 11760,
		  "time": 13.008838500000001,
		  "velocity": 0.5984251968503937
		},
		{
		  "duration": 0.13274325000000076,
		  "durationTicks": 120,
		  "midi": 55,
		  "name": "G3",
		  "ticks": 11880,
		  "time": 13.14158175,
		  "velocity": 0.7480314960629921
		},
		{
		  "duration": 0.09955743749999968,
		  "durationTicks": 90,
		  "midi": 40,
		  "name": "E2",
		  "ticks": 12000,
		  "time": 13.274325000000001,
		  "velocity": 0.5984251968503937
		},
		{
		  "duration": 0.09955743750000146,
		  "durationTicks": 90,
		  "midi": 40,
		  "name": "E2",
		  "ticks": 12120,
		  "time": 13.40706825,
		  "velocity": 0.5984251968503937
		},
		{
		  "duration": 0.13274325000000076,
		  "durationTicks": 120,
		  "midi": 52,
		  "name": "E3",
		  "ticks": 12240,
		  "time": 13.5398115,
		  "velocity": 0.7480314960629921
		},
		{
		  "duration": 0.09955743749999968,
		  "durationTicks": 90,
		  "midi": 40,
		  "name": "E2",
		  "ticks": 12360,
		  "time": 13.672554750000002,
		  "velocity": 0.5984251968503937
		},
		{
		  "duration": 0.09955743749999968,
		  "durationTicks": 90,
		  "midi": 40,
		  "name": "E2",
		  "ticks": 12480,
		  "time": 13.805298,
		  "velocity": 0.5984251968503937
		},
		{
		  "duration": 0.13274324999999898,
		  "durationTicks": 120,
		  "midi": 55,
		  "name": "G3",
		  "ticks": 12600,
		  "time": 13.938041250000001,
		  "velocity": 0.7480314960629921
		},
		{
		  "duration": 0.09955743749999968,
		  "durationTicks": 90,
		  "midi": 40,
		  "name": "E2",
		  "ticks": 12720,
		  "time": 14.0707845,
		  "velocity": 0.5984251968503937
		},
		{
		  "duration": 0.09955743749999968,
		  "durationTicks": 90,
		  "midi": 40,
		  "name": "E2",
		  "ticks": 12840,
		  "time": 14.203527750000001,
		  "velocity": 0.5984251968503937
		},
		{
		  "duration": 0.13274325000000076,
		  "durationTicks": 120,
		  "midi": 54,
		  "name": "F#3",
		  "ticks": 12960,
		  "time": 14.336271,
		  "velocity": 0.7480314960629921
		},
		{
		  "duration": 0.09955743749999968,
		  "durationTicks": 90,
		  "midi": 40,
		  "name": "E2",
		  "ticks": 13080,
		  "time": 14.46901425,
		  "velocity": 0.5984251968503937
		},
		{
		  "duration": 0.13274324999999898,
		  "durationTicks": 120,
		  "midi": 50,
		  "name": "D3",
		  "ticks": 13200,
		  "time": 14.601757500000001,
		  "velocity": 0.7480314960629921
		},
		{
		  "duration": 0.09955743749999968,
		  "durationTicks": 90,
		  "midi": 40,
		  "name": "E2",
		  "ticks": 13320,
		  "time": 14.73450075,
		  "velocity": 0.5984251968503937
		},
		{
		  "duration": 1.061945999999999,
		  "durationTicks": 960,
		  "midi": 60,
		  "name": "C4",
		  "ticks": 13440,
		  "time": 14.867244000000001,
		  "velocity": 0.7480314960629921
		},
		{
		  "duration": 1.061945999999999,
		  "durationTicks": 960,
		  "midi": 55,
		  "name": "G3",
		  "ticks": 13440,
		  "time": 14.867244000000001,
		  "velocity": 0.7480314960629921
		},
		{
		  "duration": 1.061945999999999,
		  "durationTicks": 960,
		  "midi": 48,
		  "name": "C3",
		  "ticks": 13440,
		  "time": 14.867244000000001,
		  "velocity": 0.7480314960629921
		},
		{
		  "duration": 0.09955743749999968,
		  "durationTicks": 90,
		  "midi": 40,
		  "name": "E2",
		  "ticks": 15360,
		  "time": 16.991136,
		  "velocity": 0.5984251968503937
		},
		{
		  "duration": 0.09955743749999968,
		  "durationTicks": 90,
		  "midi": 40,
		  "name": "E2",
		  "ticks": 15480,
		  "time": 17.12387925,
		  "velocity": 0.5984251968503937
		},
		{
		  "duration": 0.09955743749999968,
		  "durationTicks": 90,
		  "midi": 40,
		  "name": "E2",
		  "ticks": 15720,
		  "time": 17.38936575,
		  "velocity": 0.5984251968503937
		},
		{
		  "duration": 0.09955743749999968,
		  "durationTicks": 90,
		  "midi": 40,
		  "name": "E2",
		  "ticks": 15840,
		  "time": 17.522109,
		  "velocity": 0.5984251968503937
		},
		{
		  "duration": 0.09955743749999968,
		  "durationTicks": 90,
		  "midi": 40,
		  "name": "E2",
		  "ticks": 16080,
		  "time": 17.787595500000002,
		  "velocity": 0.5984251968503937
		},
		{
		  "duration": 0.09955743749999968,
		  "durationTicks": 90,
		  "midi": 40,
		  "name": "E2",
		  "ticks": 16320,
		  "time": 18.053082,
		  "velocity": 0.5984251968503937
		},
		{
		  "duration": 0.09955743749999968,
		  "durationTicks": 90,
		  "midi": 40,
		  "name": "E2",
		  "ticks": 16440,
		  "time": 18.18582525,
		  "velocity": 0.5984251968503937
		},
		{
		  "duration": 0.09955743749999968,
		  "durationTicks": 90,
		  "midi": 40,
		  "name": "E2",
		  "ticks": 16680,
		  "time": 18.451311750000002,
		  "velocity": 0.5984251968503937
		},
		{
		  "duration": 0.09955743750000323,
		  "durationTicks": 90,
		  "midi": 40,
		  "name": "E2",
		  "ticks": 16800,
		  "time": 18.584055,
		  "velocity": 0.5984251968503937
		},
		{
		  "duration": 0.09955743749999968,
		  "durationTicks": 90,
		  "midi": 40,
		  "name": "E2",
		  "ticks": 17040,
		  "time": 18.8495415,
		  "velocity": 0.5984251968503937
		},
		{
		  "duration": 0.09955743749999968,
		  "durationTicks": 90,
		  "midi": 40,
		  "name": "E2",
		  "ticks": 17280,
		  "time": 19.115028000000002,
		  "velocity": 0.5984251968503937
		},
		{
		  "duration": 0.09955743750000323,
		  "durationTicks": 90,
		  "midi": 40,
		  "name": "E2",
		  "ticks": 17400,
		  "time": 19.24777125,
		  "velocity": 0.5984251968503937
		},
		{
		  "duration": 0.09955743749999968,
		  "durationTicks": 90,
		  "midi": 40,
		  "name": "E2",
		  "ticks": 17640,
		  "time": 19.51325775,
		  "velocity": 0.5984251968503937
		},
		{
		  "duration": 0.09955743749999968,
		  "durationTicks": 90,
		  "midi": 40,
		  "name": "E2",
		  "ticks": 17760,
		  "time": 19.646001000000002,
		  "velocity": 0.5984251968503937
		},
		{
		  "duration": 0.09955743749999968,
		  "durationTicks": 90,
		  "midi": 40,
		  "name": "E2",
		  "ticks": 18000,
		  "time": 19.9114875,
		  "velocity": 0.5984251968503937
		},
		{
		  "duration": 0.09955743749999968,
		  "durationTicks": 90,
		  "midi": 40,
		  "name": "E2",
		  "ticks": 18240,
		  "time": 20.176974,
		  "velocity": 0.5984251968503937
		},
		{
		  "duration": 0.09955743749999968,
		  "durationTicks": 90,
		  "midi": 40,
		  "name": "E2",
		  "ticks": 18360,
		  "time": 20.309717250000002,
		  "velocity": 0.5984251968503937
		},
		{
		  "duration": 0.26548649999999796,
		  "durationTicks": 240,
		  "midi": 57,
		  "name": "A3",
		  "ticks": 18480,
		  "time": 20.442460500000003,
		  "velocity": 0.7480314960629921
		},
		{
		  "duration": 0.09955743749999968,
		  "durationTicks": 90,
		  "midi": 40,
		  "name": "E2",
		  "ticks": 18720,
		  "time": 20.707947,
		  "velocity": 0.5984251968503937
		},
		{
		  "duration": 0.13274325000000076,
		  "durationTicks": 120,
		  "midi": 55,
		  "name": "G3",
		  "ticks": 18840,
		  "time": 20.84069025,
		  "velocity": 0.7480314960629921
		},
		{
		  "duration": 0.1327432499999972,
		  "durationTicks": 120,
		  "midi": 54,
		  "name": "F#3",
		  "ticks": 18960,
		  "time": 20.973433500000002,
		  "velocity": 0.7480314960629921
		},
		{
		  "duration": 0.13274325000000076,
		  "durationTicks": 120,
		  "midi": 50,
		  "name": "D3",
		  "ticks": 19080,
		  "time": 21.10617675,
		  "velocity": 0.7480314960629921
		},
		{
		  "duration": 0.09955743749999968,
		  "durationTicks": 90,
		  "midi": 40,
		  "name": "E2",
		  "ticks": 19200,
		  "time": 21.23892,
		  "velocity": 0.5984251968503937
		},
		{
		  "duration": 0.09955743749999968,
		  "durationTicks": 90,
		  "midi": 40,
		  "name": "E2",
		  "ticks": 19320,
		  "time": 21.37166325,
		  "velocity": 0.5984251968503937
		},
		{
		  "duration": 0.09955743749999968,
		  "durationTicks": 90,
		  "midi": 40,
		  "name": "E2",
		  "ticks": 19560,
		  "time": 21.637149750000003,
		  "velocity": 0.5984251968503937
		},
		{
		  "duration": 0.09955743749999968,
		  "durationTicks": 90,
		  "midi": 40,
		  "name": "E2",
		  "ticks": 19680,
		  "time": 21.769893,
		  "velocity": 0.5984251968503937
		},
		{
		  "duration": 0.09955743749999968,
		  "durationTicks": 90,
		  "midi": 40,
		  "name": "E2",
		  "ticks": 19920,
		  "time": 22.0353795,
		  "velocity": 0.5984251968503937
		},
		{
		  "duration": 0.09955743749999968,
		  "durationTicks": 90,
		  "midi": 40,
		  "name": "E2",
		  "ticks": 20160,
		  "time": 22.300866000000003,
		  "velocity": 0.5984251968503937
		},
		{
		  "duration": 0.09955743749999968,
		  "durationTicks": 90,
		  "midi": 40,
		  "name": "E2",
		  "ticks": 20280,
		  "time": 22.43360925,
		  "velocity": 0.5984251968503937
		},
		{
		  "duration": 0.09955743749999968,
		  "durationTicks": 90,
		  "midi": 40,
		  "name": "E2",
		  "ticks": 20520,
		  "time": 22.69909575,
		  "velocity": 0.5984251968503937
		},
		{
		  "duration": 0.09955743749999968,
		  "durationTicks": 90,
		  "midi": 40,
		  "name": "E2",
		  "ticks": 20640,
		  "time": 22.831839000000002,
		  "velocity": 0.5984251968503937
		},
		{
		  "duration": 0.09955743749999968,
		  "durationTicks": 90,
		  "midi": 40,
		  "name": "E2",
		  "ticks": 20880,
		  "time": 23.0973255,
		  "velocity": 0.5984251968503937
		},
		{
		  "duration": 0.09955743749999968,
		  "durationTicks": 90,
		  "midi": 48,
		  "name": "C3",
		  "ticks": 21120,
		  "time": 23.362812,
		  "velocity": 0.5984251968503937
		},
		{
		  "duration": 0.09955743749999968,
		  "durationTicks": 90,
		  "midi": 48,
		  "name": "C3",
		  "ticks": 21240,
		  "time": 23.495555250000002,
		  "velocity": 0.5984251968503937
		},
		{
		  "duration": 0.13274325000000076,
		  "durationTicks": 120,
		  "midi": 52,
		  "name": "E3",
		  "ticks": 21360,
		  "time": 23.6282985,
		  "velocity": 0.7480314960629921
		},
		{
		  "duration": 0.09955743749999968,
		  "durationTicks": 90,
		  "midi": 48,
		  "name": "C3",
		  "ticks": 21480,
		  "time": 23.76104175,
		  "velocity": 0.5984251968503937
		},
		{
		  "duration": 0.09955743749999968,
		  "durationTicks": 90,
		  "midi": 48,
		  "name": "C3",
		  "ticks": 21600,
		  "time": 23.893785,
		  "velocity": 0.5984251968503937
		},
		{
		  "duration": 0.13274325000000076,
		  "durationTicks": 120,
		  "midi": 54,
		  "name": "F#3",
		  "ticks": 21720,
		  "time": 24.026528250000002,
		  "velocity": 0.7480314960629921
		},
		{
		  "duration": 0.09955743749999968,
		  "durationTicks": 90,
		  "midi": 48,
		  "name": "C3",
		  "ticks": 21840,
		  "time": 24.159271500000003,
		  "velocity": 0.5984251968503937
		},
		{
		  "duration": 0.13274325000000076,
		  "durationTicks": 120,
		  "midi": 55,
		  "name": "G3",
		  "ticks": 21960,
		  "time": 24.29201475,
		  "velocity": 0.7480314960629921
		},
		{
		  "duration": 0.09955743749999968,
		  "durationTicks": 90,
		  "midi": 50,
		  "name": "D3",
		  "ticks": 22080,
		  "time": 24.424758,
		  "velocity": 0.5984251968503937
		},
		{
		  "duration": 0.09955743749999968,
		  "durationTicks": 90,
		  "midi": 50,
		  "name": "D3",
		  "ticks": 22200,
		  "time": 24.55750125,
		  "velocity": 0.5984251968503937
		},
		{
		  "duration": 0.13274325000000076,
		  "durationTicks": 120,
		  "midi": 54,
		  "name": "F#3",
		  "ticks": 22320,
		  "time": 24.690244500000002,
		  "velocity": 0.7480314960629921
		},
		{
		  "duration": 0.09955743749999968,
		  "durationTicks": 90,
		  "midi": 50,
		  "name": "D3",
		  "ticks": 22440,
		  "time": 24.822987750000003,
		  "velocity": 0.5984251968503937
		},
		{
		  "duration": 0.530973000000003,
		  "durationTicks": 480,
		  "midi": 62,
		  "name": "D4",
		  "ticks": 22560,
		  "time": 24.955731,
		  "velocity": 0.7480314960629921
		},
		{
		  "duration": 0.530973000000003,
		  "durationTicks": 480,
		  "midi": 57,
		  "name": "A3",
		  "ticks": 22560,
		  "time": 24.955731,
		  "velocity": 0.7480314960629921
		},
		{
		  "duration": 0.530973000000003,
		  "durationTicks": 480,
		  "midi": 50,
		  "name": "D3",
		  "ticks": 22560,
		  "time": 24.955731,
		  "velocity": 0.7480314960629921
		},
		{
		  "duration": 0.5309729999999995,
		  "durationTicks": 480,
		  "midi": 52,
		  "name": "E3",
		  "ticks": 23040,
		  "time": 25.486704000000003,
		  "velocity": 0.7480314960629921
		},
		{
		  "duration": 0.5309729999999995,
		  "durationTicks": 480,
		  "midi": 47,
		  "name": "B2",
		  "ticks": 23040,
		  "time": 25.486704000000003,
		  "velocity": 0.7480314960629921
		},
		{
		  "duration": 0.5309729999999995,
		  "durationTicks": 480,
		  "midi": 40,
		  "name": "E2",
		  "ticks": 23040,
		  "time": 25.486704000000003,
		  "velocity": 0.7480314960629921
		},
		{
		  "duration": 0.09955743749999968,
		  "durationTicks": 90,
		  "midi": 40,
		  "name": "E2",
		  "ticks": 24240,
		  "time": 26.8141365,
		  "velocity": 0.5984251968503937
		},
		{
		  "duration": 0.09955743749999968,
		  "durationTicks": 90,
		  "midi": 40,
		  "name": "E2",
		  "ticks": 24360,
		  "time": 26.94687975,
		  "velocity": 0.5984251968503937
		},
		{
		  "duration": 0.5309729999999995,
		  "durationTicks": 480,
		  "midi": 64,
		  "name": "E4",
		  "ticks": 24480,
		  "time": 27.079623,
		  "velocity": 0.7480314960629921
		},
		{
		  "duration": 0.5309729999999995,
		  "durationTicks": 480,
		  "midi": 59,
		  "name": "B3",
		  "ticks": 24480,
		  "time": 27.079623,
		  "velocity": 0.7480314960629921
		},
		{
		  "duration": 0.5309729999999995,
		  "durationTicks": 480,
		  "midi": 52,
		  "name": "E3",
		  "ticks": 24480,
		  "time": 27.079623,
		  "velocity": 0.7480314960629921
		},
		{
		  "duration": 0.09955743749999968,
		  "durationTicks": 90,
		  "midi": 36,
		  "name": "C2",
		  "ticks": 24960,
		  "time": 27.610596,
		  "velocity": 0.5984251968503937
		},
		{
		  "duration": 0.09955743749999968,
		  "durationTicks": 90,
		  "midi": 36,
		  "name": "C2",
		  "ticks": 25080,
		  "time": 27.743339250000002,
		  "velocity": 0.5984251968503937
		},
		{
		  "duration": 0.1327432499999972,
		  "durationTicks": 120,
		  "midi": 55,
		  "name": "G3",
		  "ticks": 25200,
		  "time": 27.876082500000003,
		  "velocity": 0.7480314960629921
		},
		{
		  "duration": 0.09955743750000323,
		  "durationTicks": 90,
		  "midi": 36,
		  "name": "C2",
		  "ticks": 25320,
		  "time": 28.00882575,
		  "velocity": 0.5984251968503937
		},
		{
		  "duration": 0.09955743749999968,
		  "durationTicks": 90,
		  "midi": 36,
		  "name": "C2",
		  "ticks": 25440,
		  "time": 28.141569,
		  "velocity": 0.5984251968503937
		},
		{
		  "duration": 0.13274325000000076,
		  "durationTicks": 120,
		  "midi": 57,
		  "name": "A3",
		  "ticks": 25560,
		  "time": 28.27431225,
		  "velocity": 0.7480314960629921
		},
		{
		  "duration": 0.09955743749999968,
		  "durationTicks": 90,
		  "midi": 36,
		  "name": "C2",
		  "ticks": 25680,
		  "time": 28.407055500000002,
		  "velocity": 0.5984251968503937
		},
		{
		  "duration": 0.1327432499999972,
		  "durationTicks": 120,
		  "midi": 59,
		  "name": "B3",
		  "ticks": 25800,
		  "time": 28.539798750000003,
		  "velocity": 0.7480314960629921
		},
		{
		  "duration": 0.09955743750000323,
		  "durationTicks": 90,
		  "midi": 38,
		  "name": "D2",
		  "ticks": 25920,
		  "time": 28.672542,
		  "velocity": 0.5984251968503937
		},
		{
		  "duration": 0.09955743749999968,
		  "durationTicks": 90,
		  "midi": 38,
		  "name": "D2",
		  "ticks": 26040,
		  "time": 28.80528525,
		  "velocity": 0.5984251968503937
		},
		{
		  "duration": 0.13274325000000076,
		  "durationTicks": 120,
		  "midi": 57,
		  "name": "A3",
		  "ticks": 26160,
		  "time": 28.9380285,
		  "velocity": 0.7480314960629921
		},
		{
		  "duration": 0.09955743749999968,
		  "durationTicks": 90,
		  "midi": 38,
		  "name": "D2",
		  "ticks": 26280,
		  "time": 29.070771750000002,
		  "velocity": 0.5984251968503937
		},
		{
		  "duration": 0.09955743749999968,
		  "durationTicks": 90,
		  "midi": 38,
		  "name": "D2",
		  "ticks": 26400,
		  "time": 29.203515000000003,
		  "velocity": 0.5984251968503937
		},
		{
		  "duration": 0.13274325000000076,
		  "durationTicks": 120,
		  "midi": 55,
		  "name": "G3",
		  "ticks": 26520,
		  "time": 29.33625825,
		  "velocity": 0.7480314960629921
		},
		{
		  "duration": 0.09955743749999968,
		  "durationTicks": 90,
		  "midi": 38,
		  "name": "D2",
		  "ticks": 26640,
		  "time": 29.4690015,
		  "velocity": 0.5984251968503937
		},
		{
		  "duration": 0.13274325000000076,
		  "durationTicks": 120,
		  "midi": 54,
		  "name": "F#3",
		  "ticks": 26760,
		  "time": 29.60174475,
		  "velocity": 0.7480314960629921
		},
		{
		  "duration": 0.09955743749999968,
		  "durationTicks": 90,
		  "midi": 40,
		  "name": "E2",
		  "ticks": 26880,
		  "time": 29.734488000000002,
		  "velocity": 0.5984251968503937
		},
		{
		  "duration": 0.09955743749999968,
		  "durationTicks": 90,
		  "midi": 40,
		  "name": "E2",
		  "ticks": 27000,
		  "time": 29.867231250000003,
		  "velocity": 0.5984251968503937
		},
		{
		  "duration": 0.09955743749999968,
		  "durationTicks": 90,
		  "midi": 40,
		  "name": "E2",
		  "ticks": 27120,
		  "time": 29.9999745,
		  "velocity": 0.5984251968503937
		},
		{
		  "duration": 0.09955743749999968,
		  "durationTicks": 90,
		  "midi": 40,
		  "name": "E2",
		  "ticks": 27240,
		  "time": 30.13271775,
		  "velocity": 0.5984251968503937
		},
		{
		  "duration": 0.5309729999999995,
		  "durationTicks": 480,
		  "midi": 64,
		  "name": "E4",
		  "ticks": 27360,
		  "time": 30.265461000000002,
		  "velocity": 0.7480314960629921
		},
		{
		  "duration": 0.5309729999999995,
		  "durationTicks": 480,
		  "midi": 59,
		  "name": "B3",
		  "ticks": 27360,
		  "time": 30.265461000000002,
		  "velocity": 0.7480314960629921
		},
		{
		  "duration": 0.5309729999999995,
		  "durationTicks": 480,
		  "midi": 52,
		  "name": "E3",
		  "ticks": 27360,
		  "time": 30.265461000000002,
		  "velocity": 0.7480314960629921
		},
		{
		  "duration": 0.1327432499999972,
		  "durationTicks": 120,
		  "midi": 55,
		  "name": "G3",
		  "ticks": 28080,
		  "time": 31.061920500000003,
		  "velocity": 0.7480314960629921
		},
		{
		  "duration": 0.09955743750000323,
		  "durationTicks": 90,
		  "midi": 40,
		  "name": "E2",
		  "ticks": 28200,
		  "time": 31.19466375,
		  "velocity": 0.5984251968503937
		},
		{
		  "duration": 0.09955743749999968,
		  "durationTicks": 90,
		  "midi": 40,
		  "name": "E2",
		  "ticks": 28320,
		  "time": 31.327407,
		  "velocity": 0.5984251968503937
		},
		{
		  "duration": 0.13274325000000076,
		  "durationTicks": 120,
		  "midi": 57,
		  "name": "A3",
		  "ticks": 28440,
		  "time": 31.46015025,
		  "velocity": 0.7480314960629921
		},
		{
		  "duration": 0.09955743749999968,
		  "durationTicks": 90,
		  "midi": 40,
		  "name": "E2",
		  "ticks": 28560,
		  "time": 31.592893500000002,
		  "velocity": 0.5984251968503937
		},
		{
		  "duration": 0.1327432499999972,
		  "durationTicks": 120,
		  "midi": 59,
		  "name": "B3",
		  "ticks": 28680,
		  "time": 31.725636750000003,
		  "velocity": 0.7480314960629921
		},
		{
		  "duration": 0.09955743749999968,
		  "durationTicks": 90,
		  "midi": 36,
		  "name": "C2",
		  "ticks": 28800,
		  "time": 31.85838,
		  "velocity": 0.5984251968503937
		},
		{
		  "duration": 0.09955743750000323,
		  "durationTicks": 90,
		  "midi": 36,
		  "name": "C2",
		  "ticks": 28920,
		  "time": 31.99112325,
		  "velocity": 0.5984251968503937
		},
		{
		  "duration": 0.1327432500000043,
		  "durationTicks": 120,
		  "midi": 55,
		  "name": "G3",
		  "ticks": 29040,
		  "time": 32.1238665,
		  "velocity": 0.7480314960629921
		},
		{
		  "duration": 0.09955743749999613,
		  "durationTicks": 90,
		  "midi": 36,
		  "name": "C2",
		  "ticks": 29160,
		  "time": 32.25660975,
		  "velocity": 0.5984251968503937
		},
		{
		  "duration": 0.09955743750000323,
		  "durationTicks": 90,
		  "midi": 36,
		  "name": "C2",
		  "ticks": 29280,
		  "time": 32.389353,
		  "velocity": 0.5984251968503937
		},
		{
		  "duration": 0.1327432499999972,
		  "durationTicks": 120,
		  "midi": 57,
		  "name": "A3",
		  "ticks": 29400,
		  "time": 32.522096250000004,
		  "velocity": 0.7480314960629921
		},
		{
		  "duration": 0.09955743750000323,
		  "durationTicks": 90,
		  "midi": 36,
		  "name": "C2",
		  "ticks": 29520,
		  "time": 32.6548395,
		  "velocity": 0.5984251968503937
		},
		{
		  "duration": 0.1327432500000043,
		  "durationTicks": 120,
		  "midi": 59,
		  "name": "B3",
		  "ticks": 29640,
		  "time": 32.78758275,
		  "velocity": 0.7480314960629921
		},
		{
		  "duration": 0.09955743749999613,
		  "durationTicks": 90,
		  "midi": 38,
		  "name": "D2",
		  "ticks": 29760,
		  "time": 32.920326,
		  "velocity": 0.5984251968503937
		},
		{
		  "duration": 0.09955743750000323,
		  "durationTicks": 90,
		  "midi": 38,
		  "name": "D2",
		  "ticks": 29880,
		  "time": 33.05306925,
		  "velocity": 0.5984251968503937
		},
		{
		  "duration": 0.1327432499999972,
		  "durationTicks": 120,
		  "midi": 57,
		  "name": "A3",
		  "ticks": 30000,
		  "time": 33.185812500000004,
		  "velocity": 0.7480314960629921
		},
		{
		  "duration": 0.09955743750000323,
		  "durationTicks": 90,
		  "midi": 38,
		  "name": "D2",
		  "ticks": 30120,
		  "time": 33.31855575,
		  "velocity": 0.5984251968503937
		},
		{
		  "duration": 0.1327432500000043,
		  "durationTicks": 120,
		  "midi": 62,
		  "name": "D4",
		  "ticks": 30240,
		  "time": 33.451299,
		  "velocity": 0.7480314960629921
		},
		{
		  "duration": 0.09955743749999613,
		  "durationTicks": 90,
		  "midi": 38,
		  "name": "D2",
		  "ticks": 30360,
		  "time": 33.58404225,
		  "velocity": 0.5984251968503937
		},
		{
		  "duration": 0.1327432500000043,
		  "durationTicks": 120,
		  "midi": 59,
		  "name": "B3",
		  "ticks": 30480,
		  "time": 33.7167855,
		  "velocity": 0.7480314960629921
		},
		{
		  "duration": 0.1327432499999972,
		  "durationTicks": 120,
		  "midi": 57,
		  "name": "A3",
		  "ticks": 30600,
		  "time": 33.849528750000005,
		  "velocity": 0.7480314960629921
		},
		{
		  "duration": 0.530973000000003,
		  "durationTicks": 480,
		  "midi": 52,
		  "name": "E3",
		  "ticks": 30720,
		  "time": 33.982272,
		  "velocity": 0.7480314960629921
		},
		{
		  "duration": 0.530973000000003,
		  "durationTicks": 480,
		  "midi": 47,
		  "name": "B2",
		  "ticks": 30720,
		  "time": 33.982272,
		  "velocity": 0.7480314960629921
		},
		{
		  "duration": 0.530973000000003,
		  "durationTicks": 480,
		  "midi": 40,
		  "name": "E2",
		  "ticks": 30720,
		  "time": 33.982272,
		  "velocity": 0.7480314960629921
		},
		{
		  "duration": 0.09955743749999613,
		  "durationTicks": 90,
		  "midi": 40,
		  "name": "E2",
		  "ticks": 31200,
		  "time": 34.513245000000005,
		  "velocity": 0.5984251968503937
		},
		{
		  "duration": 0.09955743750000323,
		  "durationTicks": 90,
		  "midi": 40,
		  "name": "E2",
		  "ticks": 31320,
		  "time": 34.64598825,
		  "velocity": 0.5984251968503937
		},
		{
		  "duration": 0.09955743750000323,
		  "durationTicks": 90,
		  "midi": 40,
		  "name": "E2",
		  "ticks": 31440,
		  "time": 34.7787315,
		  "velocity": 0.5984251968503937
		},
		{
		  "duration": 0.09955743749999613,
		  "durationTicks": 90,
		  "midi": 40,
		  "name": "E2",
		  "ticks": 31560,
		  "time": 34.911474750000004,
		  "velocity": 0.5984251968503937
		},
		{
		  "duration": 0.2654865000000015,
		  "durationTicks": 240,
		  "midi": 52,
		  "name": "E3",
		  "ticks": 31680,
		  "time": 35.044218,
		  "velocity": 0.7480314960629921
		},
		{
		  "duration": 0.2654865000000015,
		  "durationTicks": 240,
		  "midi": 47,
		  "name": "B2",
		  "ticks": 31680,
		  "time": 35.044218,
		  "velocity": 0.7480314960629921
		},
		{
		  "duration": 0.2654865000000015,
		  "durationTicks": 240,
		  "midi": 40,
		  "name": "E2",
		  "ticks": 31680,
		  "time": 35.044218,
		  "velocity": 0.7480314960629921
		},
		{
		  "duration": 0.09955743749999613,
		  "durationTicks": 90,
		  "midi": 40,
		  "name": "E2",
		  "ticks": 31920,
		  "time": 35.3097045,
		  "velocity": 0.5984251968503937
		},
		{
		  "duration": 0.3982297500000058,
		  "durationTicks": 360,
		  "midi": 64,
		  "name": "E4",
		  "ticks": 32040,
		  "time": 35.44244775,
		  "velocity": 0.7480314960629921
		},
		{
		  "duration": 0.3982297500000058,
		  "durationTicks": 360,
		  "midi": 59,
		  "name": "B3",
		  "ticks": 32040,
		  "time": 35.44244775,
		  "velocity": 0.7480314960629921
		},
		{
		  "duration": 0.3982297500000058,
		  "durationTicks": 360,
		  "midi": 52,
		  "name": "E3",
		  "ticks": 32040,
		  "time": 35.44244775,
		  "velocity": 0.7480314960629921
		},
		{
		  "duration": 0.1327432499999972,
		  "durationTicks": 120,
		  "midi": 52,
		  "name": "E3",
		  "ticks": 32400,
		  "time": 35.840677500000005,
		  "velocity": 0.7480314960629921
		},
		{
		  "duration": 0.1327432499999972,
		  "durationTicks": 120,
		  "midi": 50,
		  "name": "D3",
		  "ticks": 32520,
		  "time": 35.97342075,
		  "velocity": 0.7480314960629921
		},
		{
		  "duration": 0.09955743750000323,
		  "durationTicks": 90,
		  "midi": 36,
		  "name": "C2",
		  "ticks": 32640,
		  "time": 36.106164,
		  "velocity": 0.5984251968503937
		},
		{
		  "duration": 0.09955743749999613,
		  "durationTicks": 90,
		  "midi": 36,
		  "name": "C2",
		  "ticks": 32760,
		  "time": 36.238907250000004,
		  "velocity": 0.5984251968503937
		},
		{
		  "duration": 0.1327432499999972,
		  "durationTicks": 120,
		  "midi": 55,
		  "name": "G3",
		  "ticks": 32880,
		  "time": 36.3716505,
		  "velocity": 0.7480314960629921
		},
		{
		  "duration": 0.09955743750000323,
		  "durationTicks": 90,
		  "midi": 36,
		  "name": "C2",
		  "ticks": 33000,
		  "time": 36.50439375,
		  "velocity": 0.5984251968503937
		},
		{
		  "duration": 0.09955743749999613,
		  "durationTicks": 90,
		  "midi": 36,
		  "name": "C2",
		  "ticks": 33120,
		  "time": 36.637137,
		  "velocity": 0.5984251968503937
		},
		{
		  "duration": 0.1327432500000043,
		  "durationTicks": 120,
		  "midi": 57,
		  "name": "A3",
		  "ticks": 33240,
		  "time": 36.76988025,
		  "velocity": 0.7480314960629921
		},
		{
		  "duration": 0.09955743749999613,
		  "durationTicks": 90,
		  "midi": 36,
		  "name": "C2",
		  "ticks": 33360,
		  "time": 36.902623500000004,
		  "velocity": 0.5984251968503937
		},
		{
		  "duration": 0.1327432499999972,
		  "durationTicks": 120,
		  "midi": 59,
		  "name": "B3",
		  "ticks": 33480,
		  "time": 37.03536675,
		  "velocity": 0.7480314960629921
		},
		{
		  "duration": 0.09955743750000323,
		  "durationTicks": 90,
		  "midi": 38,
		  "name": "D2",
		  "ticks": 33600,
		  "time": 37.16811,
		  "velocity": 0.5984251968503937
		},
		{
		  "duration": 0.09955743749999613,
		  "durationTicks": 90,
		  "midi": 38,
		  "name": "D2",
		  "ticks": 33720,
		  "time": 37.30085325,
		  "velocity": 0.5984251968503937
		},
		{
		  "duration": 0.1327432500000043,
		  "durationTicks": 120,
		  "midi": 62,
		  "name": "D4",
		  "ticks": 33840,
		  "time": 37.4335965,
		  "velocity": 0.7480314960629921
		},
		{
		  "duration": 0.09955743749999613,
		  "durationTicks": 90,
		  "midi": 38,
		  "name": "D2",
		  "ticks": 33960,
		  "time": 37.566339750000004,
		  "velocity": 0.5984251968503937
		},
		{
		  "duration": 0.09955743750000323,
		  "durationTicks": 90,
		  "midi": 38,
		  "name": "D2",
		  "ticks": 34080,
		  "time": 37.699083,
		  "velocity": 0.5984251968503937
		},
		{
		  "duration": 0.1327432500000043,
		  "durationTicks": 120,
		  "midi": 59,
		  "name": "B3",
		  "ticks": 34200,
		  "time": 37.83182625,
		  "velocity": 0.7480314960629921
		},
		{
		  "duration": 0.09955743749999613,
		  "durationTicks": 90,
		  "midi": 38,
		  "name": "D2",
		  "ticks": 34320,
		  "time": 37.9645695,
		  "velocity": 0.5984251968503937
		},
		{
		  "duration": 0.1327432500000043,
		  "durationTicks": 120,
		  "midi": 57,
		  "name": "A3",
		  "ticks": 34440,
		  "time": 38.09731275,
		  "velocity": 0.7480314960629921
		},
		{
		  "duration": 0.09955743749999613,
		  "durationTicks": 90,
		  "midi": 40,
		  "name": "E2",
		  "ticks": 34560,
		  "time": 38.230056000000005,
		  "velocity": 0.5984251968503937
		},
		{
		  "duration": 0.09955743750000323,
		  "durationTicks": 90,
		  "midi": 40,
		  "name": "E2",
		  "ticks": 34680,
		  "time": 38.36279925,
		  "velocity": 0.5984251968503937
		},
		{
		  "duration": 0.09955743750000323,
		  "durationTicks": 90,
		  "midi": 40,
		  "name": "E2",
		  "ticks": 34800,
		  "time": 38.4955425,
		  "velocity": 0.5984251968503937
		},
		{
		  "duration": 0.09955743749999613,
		  "durationTicks": 90,
		  "midi": 40,
		  "name": "E2",
		  "ticks": 34920,
		  "time": 38.62828575,
		  "velocity": 0.5984251968503937
		},
		{
		  "duration": 0.530973000000003,
		  "durationTicks": 480,
		  "midi": 64,
		  "name": "E4",
		  "ticks": 35040,
		  "time": 38.761029,
		  "velocity": 0.7480314960629921
		},
		{
		  "duration": 0.530973000000003,
		  "durationTicks": 480,
		  "midi": 59,
		  "name": "B3",
		  "ticks": 35040,
		  "time": 38.761029,
		  "velocity": 0.7480314960629921
		},
		{
		  "duration": 0.530973000000003,
		  "durationTicks": 480,
		  "midi": 52,
		  "name": "E3",
		  "ticks": 35040,
		  "time": 38.761029,
		  "velocity": 0.7480314960629921
		},
		{
		  "duration": 0.09955743749999613,
		  "durationTicks": 90,
		  "midi": 40,
		  "name": "E2",
		  "ticks": 35520,
		  "time": 39.292002000000004,
		  "velocity": 0.5984251968503937
		},
		{
		  "duration": 0.09955743750000323,
		  "durationTicks": 90,
		  "midi": 47,
		  "name": "B2",
		  "ticks": 35640,
		  "time": 39.42474525,
		  "velocity": 0.5984251968503937
		},
		{
		  "duration": 0.1327432499999972,
		  "durationTicks": 120,
		  "midi": 57,
		  "name": "A3",
		  "ticks": 35760,
		  "time": 39.557488500000005,
		  "velocity": 0.7480314960629921
		},
		{
		  "duration": 0.09955743750000323,
		  "durationTicks": 90,
		  "midi": 50,
		  "name": "D3",
		  "ticks": 35880,
		  "time": 39.69023175,
		  "velocity": 0.5984251968503937
		},
		{
		  "duration": 0.1327432500000043,
		  "durationTicks": 120,
		  "midi": 60,
		  "name": "C4",
		  "ticks": 36000,
		  "time": 39.822975,
		  "velocity": 0.7480314960629921
		},
		{
		  "duration": 0.1327432499999972,
		  "durationTicks": 120,
		  "midi": 59,
		  "name": "B3",
		  "ticks": 36120,
		  "time": 39.955718250000004,
		  "velocity": 0.7480314960629921
		},
		{
		  "duration": 0.1327432500000043,
		  "durationTicks": 120,
		  "midi": 55,
		  "name": "G3",
		  "ticks": 36240,
		  "time": 40.0884615,
		  "velocity": 0.7480314960629921
		},
		{
		  "duration": 0.1327432499999972,
		  "durationTicks": 120,
		  "midi": 57,
		  "name": "A3",
		  "ticks": 36360,
		  "time": 40.221204750000005,
		  "velocity": 0.7480314960629921
		},
		{
		  "duration": 0.09955743749999613,
		  "durationTicks": 90,
		  "midi": 36,
		  "name": "C2",
		  "ticks": 36480,
		  "time": 40.353948,
		  "velocity": 0.5984251968503937
		},
		{
		  "duration": 0.09955743750000323,
		  "durationTicks": 90,
		  "midi": 36,
		  "name": "C2",
		  "ticks": 36600,
		  "time": 40.48669125,
		  "velocity": 0.5984251968503937
		},
		{
		  "duration": 0.1327432499999972,
		  "durationTicks": 120,
		  "midi": 55,
		  "name": "G3",
		  "ticks": 36720,
		  "time": 40.619434500000004,
		  "velocity": 0.7480314960629921
		},
		{
		  "duration": 0.09955743750000323,
		  "durationTicks": 90,
		  "midi": 36,
		  "name": "C2",
		  "ticks": 36840,
		  "time": 40.75217775,
		  "velocity": 0.5984251968503937
		},
		{
		  "duration": 0.09955743749999613,
		  "durationTicks": 90,
		  "midi": 36,
		  "name": "C2",
		  "ticks": 36960,
		  "time": 40.884921000000006,
		  "velocity": 0.5984251968503937
		},
		{
		  "duration": 0.1327432499999972,
		  "durationTicks": 120,
		  "midi": 57,
		  "name": "A3",
		  "ticks": 37080,
		  "time": 41.01766425,
		  "velocity": 0.7480314960629921
		},
		{
		  "duration": 0.09955743750000323,
		  "durationTicks": 90,
		  "midi": 36,
		  "name": "C2",
		  "ticks": 37200,
		  "time": 41.1504075,
		  "velocity": 0.5984251968503937
		},
		{
		  "duration": 0.1327432499999972,
		  "durationTicks": 120,
		  "midi": 59,
		  "name": "B3",
		  "ticks": 37320,
		  "time": 41.283150750000004,
		  "velocity": 0.7480314960629921
		},
		{
		  "duration": 0.09955743750000323,
		  "durationTicks": 90,
		  "midi": 50,
		  "name": "D3",
		  "ticks": 37440,
		  "time": 41.415894,
		  "velocity": 0.5984251968503937
		},
		{
		  "duration": 0.1327432500000043,
		  "durationTicks": 120,
		  "midi": 66,
		  "name": "F#4",
		  "ticks": 37560,
		  "time": 41.54863725,
		  "velocity": 0.7480314960629921
		},
		{
		  "duration": 0.09955743749999613,
		  "durationTicks": 90,
		  "midi": 38,
		  "name": "D2",
		  "ticks": 37680,
		  "time": 41.6813805,
		  "velocity": 0.5984251968503937
		},
		{
		  "duration": 0.1327432500000043,
		  "durationTicks": 120,
		  "midi": 66,
		  "name": "F#4",
		  "ticks": 37800,
		  "time": 41.81412375,
		  "velocity": 0.7480314960629921
		},
		{
		  "duration": 0.1327432499999972,
		  "durationTicks": 120,
		  "midi": 71,
		  "name": "B4",
		  "ticks": 37920,
		  "time": 41.946867000000005,
		  "velocity": 0.7480314960629921
		},
		{
		  "duration": 0.09955743750000323,
		  "durationTicks": 90,
		  "midi": 38,
		  "name": "D2",
		  "ticks": 38040,
		  "time": 42.07961025,
		  "velocity": 0.5984251968503937
		},
		{
		  "duration": 0.1327432500000043,
		  "durationTicks": 120,
		  "midi": 69,
		  "name": "A4",
		  "ticks": 38160,
		  "time": 42.2123535,
		  "velocity": 0.7480314960629921
		},
		{
		  "duration": 0.09955743749999613,
		  "durationTicks": 90,
		  "midi": 38,
		  "name": "D2",
		  "ticks": 38280,
		  "time": 42.34509675,
		  "velocity": 0.5984251968503937
		},
		{
		  "duration": 0.1327432500000043,
		  "durationTicks": 120,
		  "midi": 52,
		  "name": "E3",
		  "ticks": 38400,
		  "time": 42.47784,
		  "velocity": 0.7480314960629921
		},
		{
		  "duration": 0.09955743749999613,
		  "durationTicks": 90,
		  "midi": 40,
		  "name": "E2",
		  "ticks": 38520,
		  "time": 42.610583250000005,
		  "velocity": 0.5984251968503937
		},
		{
		  "duration": 0.09955743750000323,
		  "durationTicks": 90,
		  "midi": 40,
		  "name": "E2",
		  "ticks": 38640,
		  "time": 42.7433265,
		  "velocity": 0.5984251968503937
		},
		{
		  "duration": 0.1327432500000043,
		  "durationTicks": 120,
		  "midi": 55,
		  "name": "G3",
		  "ticks": 38760,
		  "time": 42.87606975,
		  "velocity": 0.7480314960629921
		},
		{
		  "duration": 0.09955743749999613,
		  "durationTicks": 90,
		  "midi": 40,
		  "name": "E2",
		  "ticks": 38880,
		  "time": 43.008813,
		  "velocity": 0.5984251968503937
		},
		{
		  "duration": 0.09955743750000323,
		  "durationTicks": 90,
		  "midi": 40,
		  "name": "E2",
		  "ticks": 39000,
		  "time": 43.14155625,
		  "velocity": 0.5984251968503937
		},
		{
		  "duration": 0.1327432499999972,
		  "durationTicks": 120,
		  "midi": 52,
		  "name": "E3",
		  "ticks": 39120,
		  "time": 43.274299500000005,
		  "velocity": 0.7480314960629921
		},
		{
		  "duration": 0.09955743750000323,
		  "durationTicks": 90,
		  "midi": 40,
		  "name": "E2",
		  "ticks": 39240,
		  "time": 43.40704275,
		  "velocity": 0.5984251968503937
		},
		{
		  "duration": 0.09955743750000323,
		  "durationTicks": 90,
		  "midi": 40,
		  "name": "E2",
		  "ticks": 39360,
		  "time": 43.539786,
		  "velocity": 0.5984251968503937
		},
		{
		  "duration": 0.1327432499999972,
		  "durationTicks": 120,
		  "midi": 55,
		  "name": "G3",
		  "ticks": 39480,
		  "time": 43.672529250000004,
		  "velocity": 0.7480314960629921
		},
		{
		  "duration": 0.09955743750000323,
		  "durationTicks": 90,
		  "midi": 40,
		  "name": "E2",
		  "ticks": 39600,
		  "time": 43.8052725,
		  "velocity": 0.5984251968503937
		},
		{
		  "duration": 0.09955743749999613,
		  "durationTicks": 90,
		  "midi": 40,
		  "name": "E2",
		  "ticks": 39720,
		  "time": 43.938015750000005,
		  "velocity": 0.5984251968503937
		},
		{
		  "duration": 0.1327432499999972,
		  "durationTicks": 120,
		  "midi": 54,
		  "name": "F#3",
		  "ticks": 39840,
		  "time": 44.070759,
		  "velocity": 0.7480314960629921
		},
		{
		  "duration": 0.09955743750000323,
		  "durationTicks": 90,
		  "midi": 40,
		  "name": "E2",
		  "ticks": 39960,
		  "time": 44.20350225,
		  "velocity": 0.5984251968503937
		},
		{
		  "duration": 0.1327432499999972,
		  "durationTicks": 120,
		  "midi": 50,
		  "name": "D3",
		  "ticks": 40080,
		  "time": 44.336245500000004,
		  "velocity": 0.7480314960629921
		},
		{
		  "duration": 0.09955743750000323,
		  "durationTicks": 90,
		  "midi": 40,
		  "name": "E2",
		  "ticks": 40200,
		  "time": 44.46898875,
		  "velocity": 0.5984251968503937
		},
		{
		  "duration": 0.1327432499999972,
		  "durationTicks": 120,
		  "midi": 52,
		  "name": "E3",
		  "ticks": 40320,
		  "time": 44.601732000000005,
		  "velocity": 0.7480314960629921
		},
		{
		  "duration": 0.09955743750000323,
		  "durationTicks": 90,
		  "midi": 40,
		  "name": "E2",
		  "ticks": 40440,
		  "time": 44.73447525,
		  "velocity": 0.5984251968503937
		},
		{
		  "duration": 0.09955743750000323,
		  "durationTicks": 90,
		  "midi": 40,
		  "name": "E2",
		  "ticks": 40560,
		  "time": 44.8672185,
		  "velocity": 0.5984251968503937
		},
		{
		  "duration": 0.1327432499999972,
		  "durationTicks": 120,
		  "midi": 55,
		  "name": "G3",
		  "ticks": 40680,
		  "time": 44.999961750000004,
		  "velocity": 0.7480314960629921
		},
		{
		  "duration": 0.09955743750000323,
		  "durationTicks": 90,
		  "midi": 40,
		  "name": "E2",
		  "ticks": 40800,
		  "time": 45.132705,
		  "velocity": 0.5984251968503937
		},
		{
		  "duration": 0.09955743749999613,
		  "durationTicks": 90,
		  "midi": 40,
		  "name": "E2",
		  "ticks": 40920,
		  "time": 45.265448250000006,
		  "velocity": 0.5984251968503937
		},
		{
		  "duration": 0.1327432499999972,
		  "durationTicks": 120,
		  "midi": 52,
		  "name": "E3",
		  "ticks": 41040,
		  "time": 45.3981915,
		  "velocity": 0.7480314960629921
		},
		{
		  "duration": 0.09955743750000323,
		  "durationTicks": 90,
		  "midi": 40,
		  "name": "E2",
		  "ticks": 41160,
		  "time": 45.53093475,
		  "velocity": 0.5984251968503937
		},
		{
		  "duration": 0.09955743749999613,
		  "durationTicks": 90,
		  "midi": 40,
		  "name": "E2",
		  "ticks": 41280,
		  "time": 45.663678000000004,
		  "velocity": 0.5984251968503937
		},
		{
		  "duration": 0.1327432500000043,
		  "durationTicks": 120,
		  "midi": 55,
		  "name": "G3",
		  "ticks": 41400,
		  "time": 45.79642125,
		  "velocity": 0.7480314960629921
		},
		{
		  "duration": 0.09955743749999613,
		  "durationTicks": 90,
		  "midi": 40,
		  "name": "E2",
		  "ticks": 41520,
		  "time": 45.929164500000006,
		  "velocity": 0.5984251968503937
		},
		{
		  "duration": 0.09955743749999613,
		  "durationTicks": 90,
		  "midi": 40,
		  "name": "E2",
		  "ticks": 41640,
		  "time": 46.06190775,
		  "velocity": 0.5984251968503937
		},
		{
		  "duration": 0.1327432500000043,
		  "durationTicks": 120,
		  "midi": 57,
		  "name": "A3",
		  "ticks": 41760,
		  "time": 46.194651,
		  "velocity": 0.7480314960629921
		},
		{
		  "duration": 0.1327432499999972,
		  "durationTicks": 120,
		  "midi": 54,
		  "name": "F#3",
		  "ticks": 41880,
		  "time": 46.327394250000005,
		  "velocity": 0.7480314960629921
		},
		{
		  "duration": 0.09955743750000323,
		  "durationTicks": 90,
		  "midi": 40,
		  "name": "E2",
		  "ticks": 42000,
		  "time": 46.4601375,
		  "velocity": 0.5984251968503937
		},
		{
		  "duration": 0.1327432500000043,
		  "durationTicks": 120,
		  "midi": 50,
		  "name": "D3",
		  "ticks": 42120,
		  "time": 46.59288075,
		  "velocity": 0.7480314960629921
		},
		{
		  "duration": 0.1327432499999972,
		  "durationTicks": 120,
		  "midi": 52,
		  "name": "E3",
		  "ticks": 42240,
		  "time": 46.725624,
		  "velocity": 0.7480314960629921
		},
		{
		  "duration": 0.09955743750000323,
		  "durationTicks": 90,
		  "midi": 40,
		  "name": "E2",
		  "ticks": 42360,
		  "time": 46.85836725,
		  "velocity": 0.5984251968503937
		},
		{
		  "duration": 0.09955743749999613,
		  "durationTicks": 90,
		  "midi": 40,
		  "name": "E2",
		  "ticks": 42480,
		  "time": 46.991110500000005,
		  "velocity": 0.5984251968503937
		},
		{
		  "duration": 0.1327432499999972,
		  "durationTicks": 120,
		  "midi": 55,
		  "name": "G3",
		  "ticks": 42600,
		  "time": 47.12385375,
		  "velocity": 0.7480314960629921
		},
		{
		  "duration": 0.09955743750000323,
		  "durationTicks": 90,
		  "midi": 40,
		  "name": "E2",
		  "ticks": 42720,
		  "time": 47.256597,
		  "velocity": 0.5984251968503937
		},
		{
		  "duration": 0.09955743749999613,
		  "durationTicks": 90,
		  "midi": 40,
		  "name": "E2",
		  "ticks": 42840,
		  "time": 47.389340250000004,
		  "velocity": 0.5984251968503937
		},
		{
		  "duration": 0.1327432500000043,
		  "durationTicks": 120,
		  "midi": 52,
		  "name": "E3",
		  "ticks": 42960,
		  "time": 47.5220835,
		  "velocity": 0.7480314960629921
		},
		{
		  "duration": 0.09955743749999613,
		  "durationTicks": 90,
		  "midi": 40,
		  "name": "E2",
		  "ticks": 43080,
		  "time": 47.654826750000005,
		  "velocity": 0.5984251968503937
		},
		{
		  "duration": 0.09955743750000323,
		  "durationTicks": 90,
		  "midi": 40,
		  "name": "E2",
		  "ticks": 43200,
		  "time": 47.78757,
		  "velocity": 0.5984251968503937
		},
		{
		  "duration": 0.1327432500000043,
		  "durationTicks": 120,
		  "midi": 55,
		  "name": "G3",
		  "ticks": 43320,
		  "time": 47.92031325,
		  "velocity": 0.7480314960629921
		},
		{
		  "duration": 0.09955743749999613,
		  "durationTicks": 90,
		  "midi": 40,
		  "name": "E2",
		  "ticks": 43440,
		  "time": 48.053056500000004,
		  "velocity": 0.5984251968503937
		},
		{
		  "duration": 0.09955743750000323,
		  "durationTicks": 90,
		  "midi": 40,
		  "name": "E2",
		  "ticks": 43560,
		  "time": 48.18579975,
		  "velocity": 0.5984251968503937
		},
		{
		  "duration": 0.1327432499999972,
		  "durationTicks": 120,
		  "midi": 54,
		  "name": "F#3",
		  "ticks": 43680,
		  "time": 48.318543000000005,
		  "velocity": 0.7480314960629921
		},
		{
		  "duration": 0.09955743750000323,
		  "durationTicks": 90,
		  "midi": 40,
		  "name": "E2",
		  "ticks": 43800,
		  "time": 48.45128625,
		  "velocity": 0.5984251968503937
		},
		{
		  "duration": 0.1327432500000043,
		  "durationTicks": 120,
		  "midi": 50,
		  "name": "D3",
		  "ticks": 43920,
		  "time": 48.5840295,
		  "velocity": 0.7480314960629921
		},
		{
		  "duration": 0.09955743749999613,
		  "durationTicks": 90,
		  "midi": 40,
		  "name": "E2",
		  "ticks": 44040,
		  "time": 48.716772750000004,
		  "velocity": 0.5984251968503937
		},
		{
		  "duration": 0.1327432500000043,
		  "durationTicks": 120,
		  "midi": 67,
		  "name": "G4",
		  "ticks": 44160,
		  "time": 48.849516,
		  "velocity": 0.7480314960629921
		},
		{
		  "duration": 0.09955743749999613,
		  "durationTicks": 90,
		  "midi": 48,
		  "name": "C3",
		  "ticks": 44280,
		  "time": 48.982259250000006,
		  "velocity": 0.5984251968503937
		},
		{
		  "duration": 0.09955743750000323,
		  "durationTicks": 90,
		  "midi": 48,
		  "name": "C3",
		  "ticks": 44400,
		  "time": 49.1150025,
		  "velocity": 0.5984251968503937
		},
		{
		  "duration": 0.1327432500000043,
		  "durationTicks": 120,
		  "midi": 71,
		  "name": "B4",
		  "ticks": 44520,
		  "time": 49.24774575,
		  "velocity": 0.7480314960629921
		},
		{
		  "duration": 0.09955743749999613,
		  "durationTicks": 90,
		  "midi": 48,
		  "name": "C3",
		  "ticks": 44640,
		  "time": 49.380489000000004,
		  "velocity": 0.5984251968503937
		},
		{
		  "duration": 0.1327432500000043,
		  "durationTicks": 120,
		  "midi": 69,
		  "name": "A4",
		  "ticks": 44760,
		  "time": 49.51323225,
		  "velocity": 0.7480314960629921
		},
		{
		  "duration": 0.09955743749999613,
		  "durationTicks": 90,
		  "midi": 48,
		  "name": "C3",
		  "ticks": 44880,
		  "time": 49.645975500000006,
		  "velocity": 0.5984251968503937
		},
		{
		  "duration": 0.1327432499999972,
		  "durationTicks": 120,
		  "midi": 64,
		  "name": "E4",
		  "ticks": 45000,
		  "time": 49.77871875,
		  "velocity": 0.7480314960629921
		},
		{
		  "duration": 0.09955743750000323,
		  "durationTicks": 90,
		  "midi": 50,
		  "name": "D3",
		  "ticks": 45120,
		  "time": 49.911462,
		  "velocity": 0.5984251968503937
		},
		{
		  "duration": 0.1327432499999972,
		  "durationTicks": 120,
		  "midi": 66,
		  "name": "F#4",
		  "ticks": 45240,
		  "time": 50.044205250000005,
		  "velocity": 0.7480314960629921
		},
		{
		  "duration": 0.09955743750000323,
		  "durationTicks": 90,
		  "midi": 50,
		  "name": "D3",
		  "ticks": 45360,
		  "time": 50.1769485,
		  "velocity": 0.5984251968503937
		},
		{
		  "duration": 0.1327432499999972,
		  "durationTicks": 120,
		  "midi": 66,
		  "name": "F#4",
		  "ticks": 45480,
		  "time": 50.309691750000006,
		  "velocity": 0.7480314960629921
		},
		{
		  "duration": 0.1327432499999972,
		  "durationTicks": 120,
		  "midi": 71,
		  "name": "B4",
		  "ticks": 45600,
		  "time": 50.442435,
		  "velocity": 0.7480314960629921
		},
		{
		  "duration": 0.09955743750000323,
		  "durationTicks": 90,
		  "midi": 50,
		  "name": "D3",
		  "ticks": 45720,
		  "time": 50.57517825,
		  "velocity": 0.5984251968503937
		},
		{
		  "duration": 0.1327432499999972,
		  "durationTicks": 120,
		  "midi": 69,
		  "name": "A4",
		  "ticks": 45840,
		  "time": 50.707921500000005,
		  "velocity": 0.7480314960629921
		},
		{
		  "duration": 0.09955743750000323,
		  "durationTicks": 90,
		  "midi": 50,
		  "name": "D3",
		  "ticks": 45960,
		  "time": 50.84066475,
		  "velocity": 0.5984251968503937
		},
		{
		  "duration": 0.1327432499999972,
		  "durationTicks": 120,
		  "midi": 52,
		  "name": "E3",
		  "ticks": 46080,
		  "time": 50.973408000000006,
		  "velocity": 0.7480314960629921
		},
		{
		  "duration": 0.1327432499999972,
		  "durationTicks": 120,
		  "midi": 47,
		  "name": "B2",
		  "ticks": 46080,
		  "time": 50.973408000000006,
		  "velocity": 0.7480314960629921
		},
		{
		  "duration": 0.09955743749999613,
		  "durationTicks": 90,
		  "midi": 40,
		  "name": "E2",
		  "ticks": 46200,
		  "time": 51.10615125,
		  "velocity": 0.5984251968503937
		},
		{
		  "duration": 0.09955743750000323,
		  "durationTicks": 90,
		  "midi": 40,
		  "name": "E2",
		  "ticks": 46320,
		  "time": 51.2388945,
		  "velocity": 0.5984251968503937
		},
		{
		  "duration": 0.1327432499999972,
		  "durationTicks": 120,
		  "midi": 55,
		  "name": "G3",
		  "ticks": 46440,
		  "time": 51.371637750000005,
		  "velocity": 0.7480314960629921
		},
		{
		  "duration": 0.1327432499999972,
		  "durationTicks": 120,
		  "midi": 50,
		  "name": "D3",
		  "ticks": 46440,
		  "time": 51.371637750000005,
		  "velocity": 0.7480314960629921
		},
		{
		  "duration": 0.09955743750000323,
		  "durationTicks": 90,
		  "midi": 40,
		  "name": "E2",
		  "ticks": 46560,
		  "time": 51.504381,
		  "velocity": 0.5984251968503937
		},
		{
		  "duration": 0.09955743750000323,
		  "durationTicks": 90,
		  "midi": 40,
		  "name": "E2",
		  "ticks": 46680,
		  "time": 51.63712425,
		  "velocity": 0.5984251968503937
		},
		{
		  "duration": 0.1327432499999972,
		  "durationTicks": 120,
		  "midi": 52,
		  "name": "E3",
		  "ticks": 46800,
		  "time": 51.769867500000004,
		  "velocity": 0.7480314960629921
		},
		{
		  "duration": 0.1327432499999972,
		  "durationTicks": 120,
		  "midi": 47,
		  "name": "B2",
		  "ticks": 46800,
		  "time": 51.769867500000004,
		  "velocity": 0.7480314960629921
		},
		{
		  "duration": 0.09955743750000323,
		  "durationTicks": 90,
		  "midi": 40,
		  "name": "E2",
		  "ticks": 46920,
		  "time": 51.90261075,
		  "velocity": 0.5984251968503937
		},
		{
		  "duration": 0.09955743749999613,
		  "durationTicks": 90,
		  "midi": 40,
		  "name": "E2",
		  "ticks": 47040,
		  "time": 52.035354000000005,
		  "velocity": 0.5984251968503937
		},
		{
		  "duration": 0.1327432499999972,
		  "durationTicks": 120,
		  "midi": 55,
		  "name": "G3",
		  "ticks": 47160,
		  "time": 52.16809725,
		  "velocity": 0.7480314960629921
		},
		{
		  "duration": 0.1327432499999972,
		  "durationTicks": 120,
		  "midi": 50,
		  "name": "D3",
		  "ticks": 47160,
		  "time": 52.16809725,
		  "velocity": 0.7480314960629921
		},
		{
		  "duration": 0.09955743750000323,
		  "durationTicks": 90,
		  "midi": 40,
		  "name": "E2",
		  "ticks": 47280,
		  "time": 52.3008405,
		  "velocity": 0.5984251968503937
		},
		{
		  "duration": 0.09955743749999613,
		  "durationTicks": 90,
		  "midi": 40,
		  "name": "E2",
		  "ticks": 47400,
		  "time": 52.433583750000004,
		  "velocity": 0.5984251968503937
		},
		{
		  "duration": 0.1327432500000043,
		  "durationTicks": 120,
		  "midi": 54,
		  "name": "F#3",
		  "ticks": 47520,
		  "time": 52.566327,
		  "velocity": 0.7480314960629921
		},
		{
		  "duration": 0.1327432500000043,
		  "durationTicks": 120,
		  "midi": 50,
		  "name": "D3",
		  "ticks": 47520,
		  "time": 52.566327,
		  "velocity": 0.7480314960629921
		},
		{
		  "duration": 0.09955743749999613,
		  "durationTicks": 90,
		  "midi": 40,
		  "name": "E2",
		  "ticks": 47640,
		  "time": 52.699070250000005,
		  "velocity": 0.5984251968503937
		},
		{
		  "duration": 0.1327432499999972,
		  "durationTicks": 120,
		  "midi": 50,
		  "name": "D3",
		  "ticks": 47760,
		  "time": 52.8318135,
		  "velocity": 0.7480314960629921
		},
		{
		  "duration": 0.1327432499999972,
		  "durationTicks": 120,
		  "midi": 45,
		  "name": "A2",
		  "ticks": 47760,
		  "time": 52.8318135,
		  "velocity": 0.7480314960629921
		},
		{
		  "duration": 0.09955743750000323,
		  "durationTicks": 90,
		  "midi": 40,
		  "name": "E2",
		  "ticks": 47880,
		  "time": 52.96455675,
		  "velocity": 0.5984251968503937
		},
		{
		  "duration": 0.1327432499999972,
		  "durationTicks": 120,
		  "midi": 52,
		  "name": "E3",
		  "ticks": 48000,
		  "time": 53.097300000000004,
		  "velocity": 0.7480314960629921
		},
		{
		  "duration": 0.1327432499999972,
		  "durationTicks": 120,
		  "midi": 47,
		  "name": "B2",
		  "ticks": 48000,
		  "time": 53.097300000000004,
		  "velocity": 0.7480314960629921
		},
		{
		  "duration": 0.09955743750000323,
		  "durationTicks": 90,
		  "midi": 40,
		  "name": "E2",
		  "ticks": 48120,
		  "time": 53.23004325,
		  "velocity": 0.5984251968503937
		},
		{
		  "duration": 0.09955743749999613,
		  "durationTicks": 90,
		  "midi": 40,
		  "name": "E2",
		  "ticks": 48240,
		  "time": 53.362786500000006,
		  "velocity": 0.5984251968503937
		},
		{
		  "duration": 0.1327432499999972,
		  "durationTicks": 120,
		  "midi": 55,
		  "name": "G3",
		  "ticks": 48360,
		  "time": 53.49552975,
		  "velocity": 0.7480314960629921
		},
		{
		  "duration": 0.1327432499999972,
		  "durationTicks": 120,
		  "midi": 50,
		  "name": "D3",
		  "ticks": 48360,
		  "time": 53.49552975,
		  "velocity": 0.7480314960629921
		},
		{
		  "duration": 0.09955743750000323,
		  "durationTicks": 90,
		  "midi": 40,
		  "name": "E2",
		  "ticks": 48480,
		  "time": 53.628273,
		  "velocity": 0.5984251968503937
		},
		{
		  "duration": 0.09955743749999613,
		  "durationTicks": 90,
		  "midi": 40,
		  "name": "E2",
		  "ticks": 48600,
		  "time": 53.761016250000004,
		  "velocity": 0.5984251968503937
		},
		{
		  "duration": 0.1327432500000043,
		  "durationTicks": 120,
		  "midi": 52,
		  "name": "E3",
		  "ticks": 48720,
		  "time": 53.8937595,
		  "velocity": 0.7480314960629921
		},
		{
		  "duration": 0.1327432500000043,
		  "durationTicks": 120,
		  "midi": 47,
		  "name": "B2",
		  "ticks": 48720,
		  "time": 53.8937595,
		  "velocity": 0.7480314960629921
		},
		{
		  "duration": 0.09955743749999613,
		  "durationTicks": 90,
		  "midi": 40,
		  "name": "E2",
		  "ticks": 48840,
		  "time": 54.026502750000006,
		  "velocity": 0.5984251968503937
		},
		{
		  "duration": 0.09955743750000323,
		  "durationTicks": 90,
		  "midi": 40,
		  "name": "E2",
		  "ticks": 48960,
		  "time": 54.159246,
		  "velocity": 0.5984251968503937
		},
		{
		  "duration": 0.1327432500000043,
		  "durationTicks": 120,
		  "midi": 55,
		  "name": "G3",
		  "ticks": 49080,
		  "time": 54.29198925,
		  "velocity": 0.7480314960629921
		},
		{
		  "duration": 0.1327432500000043,
		  "durationTicks": 120,
		  "midi": 50,
		  "name": "D3",
		  "ticks": 49080,
		  "time": 54.29198925,
		  "velocity": 0.7480314960629921
		},
		{
		  "duration": 0.09955743749999613,
		  "durationTicks": 90,
		  "midi": 40,
		  "name": "E2",
		  "ticks": 49200,
		  "time": 54.424732500000005,
		  "velocity": 0.5984251968503937
		},
		{
		  "duration": 0.09955743750000323,
		  "durationTicks": 90,
		  "midi": 40,
		  "name": "E2",
		  "ticks": 49320,
		  "time": 54.55747575,
		  "velocity": 0.5984251968503937
		},
		{
		  "duration": 0.1327432499999972,
		  "durationTicks": 120,
		  "midi": 57,
		  "name": "A3",
		  "ticks": 49440,
		  "time": 54.690219000000006,
		  "velocity": 0.7480314960629921
		},
		{
		  "duration": 0.1327432499999972,
		  "durationTicks": 120,
		  "midi": 54,
		  "name": "F#3",
		  "ticks": 49560,
		  "time": 54.82296225,
		  "velocity": 0.7480314960629921
		},
		{
		  "duration": 0.09955743750000323,
		  "durationTicks": 90,
		  "midi": 40,
		  "name": "E2",
		  "ticks": 49680,
		  "time": 54.9557055,
		  "velocity": 0.5984251968503937
		},
		{
		  "duration": 0.1327432499999972,
		  "durationTicks": 120,
		  "midi": 50,
		  "name": "D3",
		  "ticks": 49800,
		  "time": 55.088448750000005,
		  "velocity": 0.7480314960629921
		},
		{
		  "duration": 0.1327432500000043,
		  "durationTicks": 120,
		  "midi": 52,
		  "name": "E3",
		  "ticks": 49920,
		  "time": 55.221192,
		  "velocity": 0.7480314960629921
		},
		{
		  "duration": 0.1327432500000043,
		  "durationTicks": 120,
		  "midi": 47,
		  "name": "B2",
		  "ticks": 49920,
		  "time": 55.221192,
		  "velocity": 0.7480314960629921
		},
		{
		  "duration": 0.09955743749999613,
		  "durationTicks": 90,
		  "midi": 40,
		  "name": "E2",
		  "ticks": 50040,
		  "time": 55.353935250000006,
		  "velocity": 0.5984251968503937
		},
		{
		  "duration": 0.09955743749999613,
		  "durationTicks": 90,
		  "midi": 40,
		  "name": "E2",
		  "ticks": 50160,
		  "time": 55.486678500000004,
		  "velocity": 0.5984251968503937
		},
		{
		  "duration": 0.1327432500000043,
		  "durationTicks": 120,
		  "midi": 55,
		  "name": "G3",
		  "ticks": 50280,
		  "time": 55.61942175,
		  "velocity": 0.7480314960629921
		},
		{
		  "duration": 0.1327432500000043,
		  "durationTicks": 120,
		  "midi": 50,
		  "name": "D3",
		  "ticks": 50280,
		  "time": 55.61942175,
		  "velocity": 0.7480314960629921
		},
		{
		  "duration": 0.09955743749999613,
		  "durationTicks": 90,
		  "midi": 40,
		  "name": "E2",
		  "ticks": 50400,
		  "time": 55.752165000000005,
		  "velocity": 0.5984251968503937
		},
		{
		  "duration": 0.09955743750000323,
		  "durationTicks": 90,
		  "midi": 40,
		  "name": "E2",
		  "ticks": 50520,
		  "time": 55.88490825,
		  "velocity": 0.5984251968503937
		},
		{
		  "duration": 0.1327432500000043,
		  "durationTicks": 120,
		  "midi": 52,
		  "name": "E3",
		  "ticks": 50640,
		  "time": 56.0176515,
		  "velocity": 0.7480314960629921
		},
		{
		  "duration": 0.1327432500000043,
		  "durationTicks": 120,
		  "midi": 47,
		  "name": "B2",
		  "ticks": 50640,
		  "time": 56.0176515,
		  "velocity": 0.7480314960629921
		},
		{
		  "duration": 0.09955743749999613,
		  "durationTicks": 90,
		  "midi": 40,
		  "name": "E2",
		  "ticks": 50760,
		  "time": 56.150394750000004,
		  "velocity": 0.5984251968503937
		},
		{
		  "duration": 0.09955743750000323,
		  "durationTicks": 90,
		  "midi": 40,
		  "name": "E2",
		  "ticks": 50880,
		  "time": 56.283138,
		  "velocity": 0.5984251968503937
		},
		{
		  "duration": 0.1327432499999972,
		  "durationTicks": 120,
		  "midi": 55,
		  "name": "G3",
		  "ticks": 51000,
		  "time": 56.415881250000005,
		  "velocity": 0.7480314960629921
		},
		{
		  "duration": 0.1327432499999972,
		  "durationTicks": 120,
		  "midi": 50,
		  "name": "D3",
		  "ticks": 51000,
		  "time": 56.415881250000005,
		  "velocity": 0.7480314960629921
		},
		{
		  "duration": 0.09955743750000323,
		  "durationTicks": 90,
		  "midi": 40,
		  "name": "E2",
		  "ticks": 51120,
		  "time": 56.5486245,
		  "velocity": 0.5984251968503937
		},
		{
		  "duration": 0.09955743750000323,
		  "durationTicks": 90,
		  "midi": 40,
		  "name": "E2",
		  "ticks": 51240,
		  "time": 56.68136775,
		  "velocity": 0.5984251968503937
		},
		{
		  "duration": 0.1327432499999972,
		  "durationTicks": 120,
		  "midi": 54,
		  "name": "F#3",
		  "ticks": 51360,
		  "time": 56.814111000000004,
		  "velocity": 0.7480314960629921
		},
		{
		  "duration": 0.1327432499999972,
		  "durationTicks": 120,
		  "midi": 50,
		  "name": "D3",
		  "ticks": 51360,
		  "time": 56.814111000000004,
		  "velocity": 0.7480314960629921
		},
		{
		  "duration": 0.09955743750000323,
		  "durationTicks": 90,
		  "midi": 40,
		  "name": "E2",
		  "ticks": 51480,
		  "time": 56.94685425,
		  "velocity": 0.5984251968503937
		},
		{
		  "duration": 0.1327432499999972,
		  "durationTicks": 120,
		  "midi": 50,
		  "name": "D3",
		  "ticks": 51600,
		  "time": 57.079597500000006,
		  "velocity": 0.7480314960629921
		},
		{
		  "duration": 0.1327432499999972,
		  "durationTicks": 120,
		  "midi": 45,
		  "name": "A2",
		  "ticks": 51600,
		  "time": 57.079597500000006,
		  "velocity": 0.7480314960629921
		},
		{
		  "duration": 0.09955743750000323,
		  "durationTicks": 90,
		  "midi": 40,
		  "name": "E2",
		  "ticks": 51720,
		  "time": 57.21234075,
		  "velocity": 0.5984251968503937
		},
		{
		  "duration": 1.061946000000006,
		  "durationTicks": 960,
		  "midi": 48,
		  "name": "C3",
		  "ticks": 51840,
		  "time": 57.345084,
		  "velocity": 0.7480314960629921
		},
		{
		  "duration": 1.061946000000006,
		  "durationTicks": 960,
		  "midi": 43,
		  "name": "G2",
		  "ticks": 51840,
		  "time": 57.345084,
		  "velocity": 0.7480314960629921
		},
		{
		  "duration": 1.061946000000006,
		  "durationTicks": 960,
		  "midi": 36,
		  "name": "C2",
		  "ticks": 51840,
		  "time": 57.345084,
		  "velocity": 0.7480314960629921
		},
		{
		  "duration": 1.061945999999999,
		  "durationTicks": 960,
		  "midi": 50,
		  "name": "D3",
		  "ticks": 52800,
		  "time": 58.407030000000006,
		  "velocity": 0.7480314960629921
		},
		{
		  "duration": 1.061945999999999,
		  "durationTicks": 960,
		  "midi": 45,
		  "name": "A2",
		  "ticks": 52800,
		  "time": 58.407030000000006,
		  "velocity": 0.7480314960629921
		},
		{
		  "duration": 1.061945999999999,
		  "durationTicks": 960,
		  "midi": 38,
		  "name": "D2",
		  "ticks": 52800,
		  "time": 58.407030000000006,
		  "velocity": 0.7480314960629921
		}
	  ]
	},
	{
	  "channel": 0,
	  "controlChanges": {
		"6": [
		  {
			"number": 6,
			"ticks": 0,
			"time": 0,
			"value": 0.09448818897637795
		  },
		  {
			"number": 6,
			"ticks": 0,
			"time": 0,
			"value": 0.5039370078740157
		  },
		  {
			"number": 6,
			"ticks": 0,
			"time": 0,
			"value": 0.5039370078740157
		  }
		],
		"38": [
		  {
			"number": 38,
			"ticks": 0,
			"time": 0,
			"value": 0
		  }
		],
		"100": [
		  {
			"number": 100,
			"ticks": 0,
			"time": 0,
			"value": 0
		  },
		  {
			"number": 100,
			"ticks": 0,
			"time": 0,
			"value": 0.007874015748031496
		  },
		  {
			"number": 100,
			"ticks": 0,
			"time": 0,
			"value": 1
		  },
		  {
			"number": 100,
			"ticks": 0,
			"time": 0,
			"value": 0.015748031496062992
		  },
		  {
			"number": 100,
			"ticks": 0,
			"time": 0,
			"value": 1
		  }
		],
		"101": [
		  {
			"number": 101,
			"ticks": 0,
			"time": 0,
			"value": 0
		  },
		  {
			"number": 101,
			"ticks": 0,
			"time": 0,
			"value": 0
		  },
		  {
			"number": 101,
			"ticks": 0,
			"time": 0,
			"value": 1
		  },
		  {
			"number": 101,
			"ticks": 0,
			"time": 0,
			"value": 0
		  },
		  {
			"number": 101,
			"ticks": 0,
			"time": 0,
			"value": 1
		  }
		]
	  },
	  "pitchBends": [
		{
		  "ticks": 0,
		  "time": 0,
		  "value": 0
		}
	  ],
	  "instrument": {
		"family": "piano",
		"number": 0,
		"name": "acoustic grand piano"
	  },
	  "name": "Bass",
	  "notes": [],
	  "endOfTrackTicks": 53760
	},
	{
	  "channel": 0,
	  "controlChanges": {
		"6": [
		  {
			"number": 6,
			"ticks": 0,
			"time": 0,
			"value": 0.09448818897637795
		  },
		  {
			"number": 6,
			"ticks": 0,
			"time": 0,
			"value": 0.5039370078740157
		  },
		  {
			"number": 6,
			"ticks": 0,
			"time": 0,
			"value": 0.5039370078740157
		  }
		],
		"38": [
		  {
			"number": 38,
			"ticks": 0,
			"time": 0,
			"value": 0
		  }
		],
		"100": [
		  {
			"number": 100,
			"ticks": 0,
			"time": 0,
			"value": 0
		  },
		  {
			"number": 100,
			"ticks": 0,
			"time": 0,
			"value": 0.007874015748031496
		  },
		  {
			"number": 100,
			"ticks": 0,
			"time": 0,
			"value": 1
		  },
		  {
			"number": 100,
			"ticks": 0,
			"time": 0,
			"value": 0.015748031496062992
		  },
		  {
			"number": 100,
			"ticks": 0,
			"time": 0,
			"value": 1
		  }
		],
		"101": [
		  {
			"number": 101,
			"ticks": 0,
			"time": 0,
			"value": 0
		  },
		  {
			"number": 101,
			"ticks": 0,
			"time": 0,
			"value": 0
		  },
		  {
			"number": 101,
			"ticks": 0,
			"time": 0,
			"value": 1
		  },
		  {
			"number": 101,
			"ticks": 0,
			"time": 0,
			"value": 0
		  },
		  {
			"number": 101,
			"ticks": 0,
			"time": 0,
			"value": 1
		  }
		]
	  },
	  "pitchBends": [
		{
		  "ticks": 0,
		  "time": 0,
		  "value": 0
		}
	  ],
	  "instrument": {
		"family": "piano",
		"number": 0,
		"name": "acoustic grand piano"
	  },
	  "name": "",
	  "notes": []
	},
	{
	  "channel": 7,
	  "controlChanges": {
		"0": [
		  {
			"number": 0,
			"ticks": 0,
			"time": 0,
			"value": 0
		  }
		],
		"7": [
		  {
			"number": 7,
			"ticks": 0,
			"time": 0,
			"value": 0.8188976377952756
		  }
		],
		"10": [
		  {
			"number": 10,
			"ticks": 0,
			"time": 0,
			"value": 0.5039370078740157
		  }
		],
		"91": [
		  {
			"number": 91,
			"ticks": 0,
			"time": 0,
			"value": 0
		  }
		],
		"92": [
		  {
			"number": 92,
			"ticks": 0,
			"time": 0,
			"value": 0
		  }
		],
		"93": [
		  {
			"number": 93,
			"ticks": 0,
			"time": 0,
			"value": 0
		  }
		],
		"95": [
		  {
			"number": 95,
			"ticks": 0,
			"time": 0,
			"value": 0
		  }
		]
	  },
	  "pitchBends": [
		{
		  "ticks": 0,
		  "time": 0,
		  "value": 0
		},
		{
		  "ticks": 144,
		  "time": 0.15929190000000001,
		  "value": -0.015625
		},
		{
		  "ticks": 176,
		  "time": 0.1946901,
		  "value": -0.046875
		},
		{
		  "ticks": 208,
		  "time": 0.23008830000000002,
		  "value": -0.0625
		},
		{
		  "ticks": 240,
		  "time": 0.2654865,
		  "value": -0.109375
		},
		{
		  "ticks": 256,
		  "time": 0.28318560000000004,
		  "value": -0.140625
		},
		{
		  "ticks": 288,
		  "time": 0.31858380000000003,
		  "value": -0.1875
		},
		{
		  "ticks": 320,
		  "time": 0.353982,
		  "value": -0.25
		},
		{
		  "ticks": 336,
		  "time": 0.3716811,
		  "value": -0.296875
		},
		{
		  "ticks": 368,
		  "time": 0.40707930000000003,
		  "value": -0.359375
		},
		{
		  "ticks": 400,
		  "time": 0.4424775,
		  "value": -0.421875
		},
		{
		  "ticks": 432,
		  "time": 0.4778757,
		  "value": -0.46875
		},
		{
		  "ticks": 448,
		  "time": 0.49557480000000004,
		  "value": -0.53125
		},
		{
		  "ticks": 480,
		  "time": 0.530973,
		  "value": -0.578125
		},
		{
		  "ticks": 512,
		  "time": 0.5663712000000001,
		  "value": -0.625
		},
		{
		  "ticks": 544,
		  "time": 0.6017694,
		  "value": -0.6875
		},
		{
		  "ticks": 560,
		  "time": 0.6194685000000001,
		  "value": -0.71875
		},
		{
		  "ticks": 592,
		  "time": 0.6548667,
		  "value": -0.765625
		},
		{
		  "ticks": 624,
		  "time": 0.6902649000000001,
		  "value": -0.796875
		},
		{
		  "ticks": 656,
		  "time": 0.7256631,
		  "value": -0.828125
		},
		{
		  "ticks": 672,
		  "time": 0.7433622,
		  "value": -0.859375
		},
		{
		  "ticks": 704,
		  "time": 0.7787604,
		  "value": -0.890625
		},
		{
		  "ticks": 736,
		  "time": 0.8141586000000001,
		  "value": -0.90625
		},
		{
		  "ticks": 768,
		  "time": 0.8495568000000001,
		  "value": -0.921875
		},
		{
		  "ticks": 784,
		  "time": 0.8672559000000001,
		  "value": -0.9375
		},
		{
		  "ticks": 816,
		  "time": 0.9026541,
		  "value": -0.953125
		},
		{
		  "ticks": 848,
		  "time": 0.9380523000000001,
		  "value": -0.96875
		},
		{
		  "ticks": 896,
		  "time": 0.9911496000000001,
		  "value": -0.984375
		},
		{
		  "ticks": 960,
		  "time": 1.061946,
		  "value": -1
		},
		{
		  "ticks": 960,
		  "time": 1.061946,
		  "value": 0
		},
		{
		  "ticks": 3840,
		  "time": 4.247784,
		  "value": 0
		},
		{
		  "ticks": 3984,
		  "time": 4.407075900000001,
		  "value": -0.015625
		},
		{
		  "ticks": 4016,
		  "time": 4.4424741,
		  "value": -0.046875
		},
		{
		  "ticks": 4048,
		  "time": 4.4778723000000005,
		  "value": -0.0625
		},
		{
		  "ticks": 4080,
		  "time": 4.5132705,
		  "value": -0.109375
		},
		{
		  "ticks": 4096,
		  "time": 4.530969600000001,
		  "value": -0.140625
		},
		{
		  "ticks": 4128,
		  "time": 4.5663678,
		  "value": -0.1875
		},
		{
		  "ticks": 4160,
		  "time": 4.601766,
		  "value": -0.25
		},
		{
		  "ticks": 4176,
		  "time": 4.6194651,
		  "value": -0.296875
		},
		{
		  "ticks": 4208,
		  "time": 4.654863300000001,
		  "value": -0.359375
		},
		{
		  "ticks": 4240,
		  "time": 4.690261500000001,
		  "value": -0.421875
		},
		{
		  "ticks": 4272,
		  "time": 4.7256597000000005,
		  "value": -0.46875
		},
		{
		  "ticks": 4288,
		  "time": 4.7433588,
		  "value": -0.53125
		},
		{
		  "ticks": 4320,
		  "time": 4.778757000000001,
		  "value": -0.578125
		},
		{
		  "ticks": 4352,
		  "time": 4.8141552,
		  "value": -0.625
		},
		{
		  "ticks": 4384,
		  "time": 4.8495534,
		  "value": -0.6875
		},
		{
		  "ticks": 4400,
		  "time": 4.8672525,
		  "value": -0.71875
		},
		{
		  "ticks": 4432,
		  "time": 4.9026507,
		  "value": -0.765625
		},
		{
		  "ticks": 4464,
		  "time": 4.938048900000001,
		  "value": -0.796875
		},
		{
		  "ticks": 4496,
		  "time": 4.9734471000000005,
		  "value": -0.828125
		},
		{
		  "ticks": 4512,
		  "time": 4.9911462,
		  "value": -0.859375
		},
		{
		  "ticks": 4544,
		  "time": 5.026544400000001,
		  "value": -0.890625
		},
		{
		  "ticks": 4576,
		  "time": 5.0619426,
		  "value": -0.90625
		},
		{
		  "ticks": 4608,
		  "time": 5.0973408000000004,
		  "value": -0.921875
		},
		{
		  "ticks": 4624,
		  "time": 5.1150399,
		  "value": -0.9375
		},
		{
		  "ticks": 4656,
		  "time": 5.1504381,
		  "value": -0.953125
		},
		{
		  "ticks": 4688,
		  "time": 5.185836300000001,
		  "value": -0.96875
		},
		{
		  "ticks": 4736,
		  "time": 5.2389336,
		  "value": -0.984375
		},
		{
		  "ticks": 4800,
		  "time": 5.30973,
		  "value": -1
		},
		{
		  "ticks": 4800,
		  "time": 5.30973,
		  "value": 0
		},
		{
		  "ticks": 22560,
		  "time": 24.955731,
		  "value": -0.171875
		},
		{
		  "ticks": 22576,
		  "time": 24.9734301,
		  "value": -0.15625
		},
		{
		  "ticks": 22704,
		  "time": 25.1150229,
		  "value": -0.140625
		},
		{
		  "ticks": 22768,
		  "time": 25.1858193,
		  "value": -0.125
		},
		{
		  "ticks": 22800,
		  "time": 25.2212175,
		  "value": -0.109375
		},
		{
		  "ticks": 22832,
		  "time": 25.256615700000005,
		  "value": -0.09375
		},
		{
		  "ticks": 22864,
		  "time": 25.2920139,
		  "value": -0.078125
		},
		{
		  "ticks": 22880,
		  "time": 25.309713,
		  "value": -0.0625
		},
		{
		  "ticks": 22912,
		  "time": 25.3451112,
		  "value": -0.046875
		},
		{
		  "ticks": 22944,
		  "time": 25.3805094,
		  "value": -0.03125
		},
		{
		  "ticks": 22976,
		  "time": 25.4159076,
		  "value": -0.015625
		},
		{
		  "ticks": 23008,
		  "time": 25.4513058,
		  "value": 0
		},
		{
		  "ticks": 23040,
		  "time": 25.486704000000003,
		  "value": 0
		},
		{
		  "ticks": 23520,
		  "time": 26.017677000000003,
		  "value": 0
		},
		{
		  "ticks": 23536,
		  "time": 26.0353761,
		  "value": -0.015625
		},
		{
		  "ticks": 23568,
		  "time": 26.070774300000004,
		  "value": -0.046875
		},
		{
		  "ticks": 23584,
		  "time": 26.0884734,
		  "value": -0.0625
		},
		{
		  "ticks": 23616,
		  "time": 26.123871600000005,
		  "value": -0.109375
		},
		{
		  "ticks": 23632,
		  "time": 26.141570700000003,
		  "value": -0.140625
		},
		{
		  "ticks": 23664,
		  "time": 26.1769689,
		  "value": -0.1875
		},
		{
		  "ticks": 23680,
		  "time": 26.194668000000004,
		  "value": -0.25
		},
		{
		  "ticks": 23712,
		  "time": 26.2300662,
		  "value": -0.296875
		},
		{
		  "ticks": 23728,
		  "time": 26.2477653,
		  "value": -0.359375
		},
		{
		  "ticks": 23760,
		  "time": 26.2831635,
		  "value": -0.421875
		},
		{
		  "ticks": 23776,
		  "time": 26.300862600000002,
		  "value": -0.46875
		},
		{
		  "ticks": 23808,
		  "time": 26.3362608,
		  "value": -0.53125
		},
		{
		  "ticks": 23824,
		  "time": 26.3539599,
		  "value": -0.578125
		},
		{
		  "ticks": 23856,
		  "time": 26.389358100000003,
		  "value": -0.625
		},
		{
		  "ticks": 23872,
		  "time": 26.4070572,
		  "value": -0.6875
		},
		{
		  "ticks": 23904,
		  "time": 26.4424554,
		  "value": -0.71875
		},
		{
		  "ticks": 23920,
		  "time": 26.4601545,
		  "value": -0.765625
		},
		{
		  "ticks": 23952,
		  "time": 26.4955527,
		  "value": -0.796875
		},
		{
		  "ticks": 23968,
		  "time": 26.5132518,
		  "value": -0.828125
		},
		{
		  "ticks": 24000,
		  "time": 26.548650000000002,
		  "value": -0.859375
		},
		{
		  "ticks": 24016,
		  "time": 26.5663491,
		  "value": -0.890625
		},
		{
		  "ticks": 24048,
		  "time": 26.601747300000003,
		  "value": -0.90625
		},
		{
		  "ticks": 24064,
		  "time": 26.6194464,
		  "value": -0.921875
		},
		{
		  "ticks": 24096,
		  "time": 26.654844600000004,
		  "value": -0.9375
		},
		{
		  "ticks": 24112,
		  "time": 26.672543700000002,
		  "value": -0.953125
		},
		{
		  "ticks": 24144,
		  "time": 26.7079419,
		  "value": -0.96875
		},
		{
		  "ticks": 24192,
		  "time": 26.7610392,
		  "value": -0.984375
		},
		{
		  "ticks": 24240,
		  "time": 26.8141365,
		  "value": -1
		},
		{
		  "ticks": 24240,
		  "time": 26.8141365,
		  "value": 0
		},
		{
		  "ticks": 32040,
		  "time": 35.44244775,
		  "value": 0
		},
		{
		  "ticks": 32056,
		  "time": 35.46014685,
		  "value": 0.03125
		},
		{
		  "ticks": 32072,
		  "time": 35.47784595,
		  "value": 0.078125
		},
		{
		  "ticks": 32088,
		  "time": 35.49554505,
		  "value": 0.21875
		},
		{
		  "ticks": 32104,
		  "time": 35.513244150000006,
		  "value": 0.40625
		},
		{
		  "ticks": 32120,
		  "time": 35.53094325000001,
		  "value": 0.515625
		},
		{
		  "ticks": 32136,
		  "time": 35.54864235,
		  "value": 0.578125
		},
		{
		  "ticks": 32400,
		  "time": 35.840677500000005,
		  "value": 0
		}
	  ],
	  "instrument": {
		"family": "bass",
		"number": 36,
		"name": "slap bass 1"
	  },
	  "name": "",
	  "notes": [
		{
		  "duration": 1.061946,
		  "durationTicks": 960,
		  "midi": 40,
		  "name": "E2",
		  "ticks": 0,
		  "time": 0,
		  "velocity": 0.7480314960629921
		},
		{
		  "duration": 1.0619459999999998,
		  "durationTicks": 960,
		  "midi": 40,
		  "name": "E2",
		  "ticks": 3840,
		  "time": 4.247784,
		  "velocity": 0.7480314960629921
		},
		{
		  "duration": 0.530973000000003,
		  "durationTicks": 480,
		  "midi": 28,
		  "name": "E1",
		  "ticks": 22560,
		  "time": 24.955731,
		  "velocity": 0.7480314960629921
		},
		{
		  "duration": 0.7964594999999974,
		  "durationTicks": 720,
		  "midi": 40,
		  "name": "E2",
		  "ticks": 23520,
		  "time": 26.017677000000003,
		  "velocity": 0.7480314960629921
		},
		{
		  "duration": 0.3982297500000058,
		  "durationTicks": 360,
		  "midi": 33,
		  "name": "A1",
		  "ticks": 32040,
		  "time": 35.44244775,
		  "velocity": 0.7480314960629921
		}
	  ]
	},
	{
	  "channel": 6,
	  "controlChanges": {
		"0": [
		  {
			"number": 0,
			"ticks": 0,
			"time": 0,
			"value": 0
		  }
		],
		"7": [
		  {
			"number": 7,
			"ticks": 0,
			"time": 0,
			"value": 0.8188976377952756
		  }
		],
		"10": [
		  {
			"number": 10,
			"ticks": 0,
			"time": 0,
			"value": 0.5039370078740157
		  }
		],
		"91": [
		  {
			"number": 91,
			"ticks": 0,
			"time": 0,
			"value": 0
		  }
		],
		"92": [
		  {
			"number": 92,
			"ticks": 0,
			"time": 0,
			"value": 0
		  }
		],
		"93": [
		  {
			"number": 93,
			"ticks": 0,
			"time": 0,
			"value": 0
		  }
		],
		"95": [
		  {
			"number": 95,
			"ticks": 0,
			"time": 0,
			"value": 0
		  }
		]
	  },
	  "pitchBends": [],
	  "instrument": {
		"family": "bass",
		"number": 36,
		"name": "slap bass 1"
	  },
	  "name": "",
	  "notes": [
		{
		  "duration": 0.13274324999999987,
		  "durationTicks": 120,
		  "midi": 28,
		  "name": "E1",
		  "ticks": 1920,
		  "time": 2.123892,
		  "velocity": 0.7480314960629921
		},
		{
		  "duration": 0.1327432500000003,
		  "durationTicks": 120,
		  "midi": 28,
		  "name": "E1",
		  "ticks": 2040,
		  "time": 2.25663525,
		  "velocity": 0.7480314960629921
		},
		{
		  "duration": 0.13274324999999987,
		  "durationTicks": 120,
		  "midi": 28,
		  "name": "E1",
		  "ticks": 2160,
		  "time": 2.3893785000000003,
		  "velocity": 0.7480314960629921
		},
		{
		  "duration": 0.13274324999999987,
		  "durationTicks": 120,
		  "midi": 28,
		  "name": "E1",
		  "ticks": 2280,
		  "time": 2.52212175,
		  "velocity": 0.7480314960629921
		},
		{
		  "duration": 0.13274324999999987,
		  "durationTicks": 120,
		  "midi": 45,
		  "name": "A2",
		  "ticks": 3360,
		  "time": 3.7168110000000003,
		  "velocity": 0.7480314960629921
		},
		{
		  "duration": 0.13274324999999987,
		  "durationTicks": 120,
		  "midi": 42,
		  "name": "F#2",
		  "ticks": 3480,
		  "time": 3.84955425,
		  "velocity": 0.7480314960629921
		},
		{
		  "duration": 0.1327432500000003,
		  "durationTicks": 120,
		  "midi": 28,
		  "name": "E1",
		  "ticks": 3600,
		  "time": 3.9822975,
		  "velocity": 0.7480314960629921
		},
		{
		  "duration": 0.13274324999999987,
		  "durationTicks": 120,
		  "midi": 38,
		  "name": "D2",
		  "ticks": 3720,
		  "time": 4.11504075,
		  "velocity": 0.7480314960629921
		},
		{
		  "duration": 0.26548649999999974,
		  "durationTicks": 240,
		  "midi": 38,
		  "name": "D2",
		  "ticks": 5280,
		  "time": 5.840703,
		  "velocity": 0.7480314960629921
		},
		{
		  "duration": 0.2654865000000006,
		  "durationTicks": 240,
		  "midi": 38,
		  "name": "D2",
		  "ticks": 5520,
		  "time": 6.1061895,
		  "velocity": 0.7480314960629921
		},
		{
		  "duration": 0.13274324999999987,
		  "durationTicks": 120,
		  "midi": 40,
		  "name": "E2",
		  "ticks": 5760,
		  "time": 6.371676000000001,
		  "velocity": 0.7480314960629921
		},
		{
		  "duration": 0.13274324999999987,
		  "durationTicks": 120,
		  "midi": 24,
		  "name": "C1",
		  "ticks": 5880,
		  "time": 6.504419250000001,
		  "velocity": 0.7480314960629921
		},
		{
		  "duration": 0.13274324999999987,
		  "durationTicks": 120,
		  "midi": 24,
		  "name": "C1",
		  "ticks": 6000,
		  "time": 6.6371625000000005,
		  "velocity": 0.7480314960629921
		},
		{
		  "duration": 0.13274324999999987,
		  "durationTicks": 120,
		  "midi": 43,
		  "name": "G2",
		  "ticks": 6120,
		  "time": 6.76990575,
		  "velocity": 0.7480314960629921
		},
		{
		  "duration": 0.13274324999999987,
		  "durationTicks": 120,
		  "midi": 24,
		  "name": "C1",
		  "ticks": 6240,
		  "time": 6.902649,
		  "velocity": 0.7480314960629921
		},
		{
		  "duration": 0.13274324999999987,
		  "durationTicks": 120,
		  "midi": 42,
		  "name": "F#2",
		  "ticks": 6360,
		  "time": 7.03539225,
		  "velocity": 0.7480314960629921
		},
		{
		  "duration": 0.13274325000000076,
		  "durationTicks": 120,
		  "midi": 24,
		  "name": "C1",
		  "ticks": 6480,
		  "time": 7.1681355,
		  "velocity": 0.7480314960629921
		},
		{
		  "duration": 0.13274324999999987,
		  "durationTicks": 120,
		  "midi": 36,
		  "name": "C2",
		  "ticks": 6600,
		  "time": 7.300878750000001,
		  "velocity": 0.7480314960629921
		},
		{
		  "duration": 0.13274324999999987,
		  "durationTicks": 120,
		  "midi": 24,
		  "name": "C1",
		  "ticks": 6720,
		  "time": 7.433622000000001,
		  "velocity": 0.7480314960629921
		},
		{
		  "duration": 0.13274324999999987,
		  "durationTicks": 120,
		  "midi": 38,
		  "name": "D2",
		  "ticks": 6840,
		  "time": 7.5663652500000005,
		  "velocity": 0.7480314960629921
		},
		{
		  "duration": 0.13274324999999987,
		  "durationTicks": 120,
		  "midi": 26,
		  "name": "D1",
		  "ticks": 6960,
		  "time": 7.6991085,
		  "velocity": 0.7480314960629921
		},
		{
		  "duration": 0.13274324999999987,
		  "durationTicks": 120,
		  "midi": 38,
		  "name": "D2",
		  "ticks": 7080,
		  "time": 7.83185175,
		  "velocity": 0.7480314960629921
		},
		{
		  "duration": 0.13274324999999987,
		  "durationTicks": 120,
		  "midi": 43,
		  "name": "G2",
		  "ticks": 7200,
		  "time": 7.964595,
		  "velocity": 0.7480314960629921
		},
		{
		  "duration": 0.13274325000000076,
		  "durationTicks": 120,
		  "midi": 26,
		  "name": "D1",
		  "ticks": 7320,
		  "time": 8.09733825,
		  "velocity": 0.7480314960629921
		},
		{
		  "duration": 0.13274324999999898,
		  "durationTicks": 120,
		  "midi": 42,
		  "name": "F#2",
		  "ticks": 7440,
		  "time": 8.2300815,
		  "velocity": 0.7480314960629921
		},
		{
		  "duration": 0.13274325000000076,
		  "durationTicks": 120,
		  "midi": 26,
		  "name": "D1",
		  "ticks": 7560,
		  "time": 8.36282475,
		  "velocity": 0.7480314960629921
		},
		{
		  "duration": 0.26548649999999974,
		  "durationTicks": 240,
		  "midi": 28,
		  "name": "E1",
		  "ticks": 7680,
		  "time": 8.495568,
		  "velocity": 0.7480314960629921
		},
		{
		  "duration": 0.13274325000000076,
		  "durationTicks": 120,
		  "midi": 28,
		  "name": "E1",
		  "ticks": 7920,
		  "time": 8.7610545,
		  "velocity": 0.7480314960629921
		},
		{
		  "duration": 0.26548649999999974,
		  "durationTicks": 240,
		  "midi": 28,
		  "name": "E1",
		  "ticks": 8040,
		  "time": 8.893797750000001,
		  "velocity": 0.7480314960629921
		},
		{
		  "duration": 0.26548649999999974,
		  "durationTicks": 240,
		  "midi": 28,
		  "name": "E1",
		  "ticks": 8280,
		  "time": 9.15928425,
		  "velocity": 0.7480314960629921
		},
		{
		  "duration": 0.26548649999999974,
		  "durationTicks": 240,
		  "midi": 28,
		  "name": "E1",
		  "ticks": 8520,
		  "time": 9.42477075,
		  "velocity": 0.7480314960629921
		},
		{
		  "duration": 0.13274325000000076,
		  "durationTicks": 120,
		  "midi": 28,
		  "name": "E1",
		  "ticks": 8760,
		  "time": 9.69025725,
		  "velocity": 0.7480314960629921
		},
		{
		  "duration": 0.13274324999999898,
		  "durationTicks": 120,
		  "midi": 28,
		  "name": "E1",
		  "ticks": 8880,
		  "time": 9.823000500000001,
		  "velocity": 0.7480314960629921
		},
		{
		  "duration": 0.13274325000000076,
		  "durationTicks": 120,
		  "midi": 28,
		  "name": "E1",
		  "ticks": 9000,
		  "time": 9.95574375,
		  "velocity": 0.7480314960629921
		},
		{
		  "duration": 0.26548649999999974,
		  "durationTicks": 240,
		  "midi": 38,
		  "name": "D2",
		  "ticks": 9120,
		  "time": 10.088487,
		  "velocity": 0.7480314960629921
		},
		{
		  "duration": 0.26548649999999974,
		  "durationTicks": 240,
		  "midi": 38,
		  "name": "D2",
		  "ticks": 9360,
		  "time": 10.3539735,
		  "velocity": 0.7480314960629921
		},
		{
		  "duration": 0.26548649999999974,
		  "durationTicks": 240,
		  "midi": 40,
		  "name": "E2",
		  "ticks": 9600,
		  "time": 10.61946,
		  "velocity": 0.7480314960629921
		},
		{
		  "duration": 0.13274325000000076,
		  "durationTicks": 120,
		  "midi": 40,
		  "name": "E2",
		  "ticks": 9840,
		  "time": 10.8849465,
		  "velocity": 0.7480314960629921
		},
		{
		  "duration": 0.26548649999999974,
		  "durationTicks": 240,
		  "midi": 40,
		  "name": "E2",
		  "ticks": 9960,
		  "time": 11.01768975,
		  "velocity": 0.7480314960629921
		},
		{
		  "duration": 0.26548649999999974,
		  "durationTicks": 240,
		  "midi": 28,
		  "name": "E1",
		  "ticks": 10200,
		  "time": 11.28317625,
		  "velocity": 0.7480314960629921
		},
		{
		  "duration": 0.26548649999999974,
		  "durationTicks": 240,
		  "midi": 28,
		  "name": "E1",
		  "ticks": 10440,
		  "time": 11.54866275,
		  "velocity": 0.7480314960629921
		},
		{
		  "duration": 0.13274325000000076,
		  "durationTicks": 120,
		  "midi": 28,
		  "name": "E1",
		  "ticks": 10680,
		  "time": 11.81414925,
		  "velocity": 0.7480314960629921
		},
		{
		  "duration": 0.13274325000000076,
		  "durationTicks": 120,
		  "midi": 28,
		  "name": "E1",
		  "ticks": 10800,
		  "time": 11.9468925,
		  "velocity": 0.7480314960629921
		},
		{
		  "duration": 0.13274324999999898,
		  "durationTicks": 120,
		  "midi": 28,
		  "name": "E1",
		  "ticks": 10920,
		  "time": 12.079635750000001,
		  "velocity": 0.7480314960629921
		},
		{
		  "duration": 0.13274325000000076,
		  "durationTicks": 120,
		  "midi": 45,
		  "name": "A2",
		  "ticks": 11040,
		  "time": 12.212379,
		  "velocity": 0.7480314960629921
		},
		{
		  "duration": 0.13274324999999898,
		  "durationTicks": 120,
		  "midi": 42,
		  "name": "F#2",
		  "ticks": 11160,
		  "time": 12.345122250000001,
		  "velocity": 0.7480314960629921
		},
		{
		  "duration": 0.13274325000000076,
		  "durationTicks": 120,
		  "midi": 28,
		  "name": "E1",
		  "ticks": 11280,
		  "time": 12.4778655,
		  "velocity": 0.7480314960629921
		},
		{
		  "duration": 0.13274325000000076,
		  "durationTicks": 120,
		  "midi": 38,
		  "name": "D2",
		  "ticks": 11400,
		  "time": 12.61060875,
		  "velocity": 0.7480314960629921
		},
		{
		  "duration": 0.26548649999999974,
		  "durationTicks": 240,
		  "midi": 28,
		  "name": "E1",
		  "ticks": 11520,
		  "time": 12.743352000000002,
		  "velocity": 0.7480314960629921
		},
		{
		  "duration": 0.13274324999999898,
		  "durationTicks": 120,
		  "midi": 28,
		  "name": "E1",
		  "ticks": 11760,
		  "time": 13.008838500000001,
		  "velocity": 0.7480314960629921
		},
		{
		  "duration": 0.26548649999999974,
		  "durationTicks": 240,
		  "midi": 28,
		  "name": "E1",
		  "ticks": 11880,
		  "time": 13.14158175,
		  "velocity": 0.7480314960629921
		},
		{
		  "duration": 0.2654865000000015,
		  "durationTicks": 240,
		  "midi": 28,
		  "name": "E1",
		  "ticks": 12120,
		  "time": 13.40706825,
		  "velocity": 0.7480314960629921
		},
		{
		  "duration": 0.26548649999999974,
		  "durationTicks": 240,
		  "midi": 28,
		  "name": "E1",
		  "ticks": 12360,
		  "time": 13.672554750000002,
		  "velocity": 0.7480314960629921
		},
		{
		  "duration": 0.13274324999999898,
		  "durationTicks": 120,
		  "midi": 28,
		  "name": "E1",
		  "ticks": 12600,
		  "time": 13.938041250000001,
		  "velocity": 0.7480314960629921
		},
		{
		  "duration": 0.13274325000000076,
		  "durationTicks": 120,
		  "midi": 28,
		  "name": "E1",
		  "ticks": 12720,
		  "time": 14.0707845,
		  "velocity": 0.7480314960629921
		},
		{
		  "duration": 0.13274324999999898,
		  "durationTicks": 120,
		  "midi": 28,
		  "name": "E1",
		  "ticks": 12840,
		  "time": 14.203527750000001,
		  "velocity": 0.7480314960629921
		},
		{
		  "duration": 0.2654865000000015,
		  "durationTicks": 240,
		  "midi": 38,
		  "name": "D2",
		  "ticks": 12960,
		  "time": 14.336271,
		  "velocity": 0.7480314960629921
		},
		{
		  "duration": 0.26548649999999974,
		  "durationTicks": 240,
		  "midi": 38,
		  "name": "D2",
		  "ticks": 13200,
		  "time": 14.601757500000001,
		  "velocity": 0.7480314960629921
		},
		{
		  "duration": 1.061945999999999,
		  "durationTicks": 960,
		  "midi": 36,
		  "name": "C2",
		  "ticks": 13440,
		  "time": 14.867244000000001,
		  "velocity": 0.7480314960629921
		},
		{
		  "duration": 0.13274325000000076,
		  "durationTicks": 120,
		  "midi": 28,
		  "name": "E1",
		  "ticks": 15360,
		  "time": 16.991136,
		  "velocity": 0.7480314960629921
		},
		{
		  "duration": 0.26548649999999796,
		  "durationTicks": 240,
		  "midi": 28,
		  "name": "E1",
		  "ticks": 15480,
		  "time": 17.12387925,
		  "velocity": 0.7480314960629921
		},
		{
		  "duration": 0.13274325000000076,
		  "durationTicks": 120,
		  "midi": 28,
		  "name": "E1",
		  "ticks": 15720,
		  "time": 17.38936575,
		  "velocity": 0.7480314960629921
		},
		{
		  "duration": 0.2654865000000015,
		  "durationTicks": 240,
		  "midi": 28,
		  "name": "E1",
		  "ticks": 15840,
		  "time": 17.522109,
		  "velocity": 0.7480314960629921
		},
		{
		  "duration": 0.26548649999999796,
		  "durationTicks": 240,
		  "midi": 28,
		  "name": "E1",
		  "ticks": 16080,
		  "time": 17.787595500000002,
		  "velocity": 0.7480314960629921
		},
		{
		  "duration": 0.13274325000000076,
		  "durationTicks": 120,
		  "midi": 28,
		  "name": "E1",
		  "ticks": 16320,
		  "time": 18.053082,
		  "velocity": 0.7480314960629921
		},
		{
		  "duration": 0.2654865000000015,
		  "durationTicks": 240,
		  "midi": 28,
		  "name": "E1",
		  "ticks": 16440,
		  "time": 18.18582525,
		  "velocity": 0.7480314960629921
		},
		{
		  "duration": 0.1327432499999972,
		  "durationTicks": 120,
		  "midi": 28,
		  "name": "E1",
		  "ticks": 16680,
		  "time": 18.451311750000002,
		  "velocity": 0.7480314960629921
		},
		{
		  "duration": 0.2654865000000015,
		  "durationTicks": 240,
		  "midi": 28,
		  "name": "E1",
		  "ticks": 16800,
		  "time": 18.584055,
		  "velocity": 0.7480314960629921
		},
		{
		  "duration": 0.2654865000000015,
		  "durationTicks": 240,
		  "midi": 28,
		  "name": "E1",
		  "ticks": 17040,
		  "time": 18.8495415,
		  "velocity": 0.7480314960629921
		},
		{
		  "duration": 0.1327432499999972,
		  "durationTicks": 120,
		  "midi": 28,
		  "name": "E1",
		  "ticks": 17280,
		  "time": 19.115028000000002,
		  "velocity": 0.7480314960629921
		},
		{
		  "duration": 0.2654865000000015,
		  "durationTicks": 240,
		  "midi": 28,
		  "name": "E1",
		  "ticks": 17400,
		  "time": 19.24777125,
		  "velocity": 0.7480314960629921
		},
		{
		  "duration": 0.13274325000000076,
		  "durationTicks": 120,
		  "midi": 28,
		  "name": "E1",
		  "ticks": 17640,
		  "time": 19.51325775,
		  "velocity": 0.7480314960629921
		},
		{
		  "duration": 0.26548649999999796,
		  "durationTicks": 240,
		  "midi": 28,
		  "name": "E1",
		  "ticks": 17760,
		  "time": 19.646001000000002,
		  "velocity": 0.7480314960629921
		},
		{
		  "duration": 0.2654865000000015,
		  "durationTicks": 240,
		  "midi": 28,
		  "name": "E1",
		  "ticks": 18000,
		  "time": 19.9114875,
		  "velocity": 0.7480314960629921
		},
		{
		  "duration": 0.13274325000000076,
		  "durationTicks": 120,
		  "midi": 28,
		  "name": "E1",
		  "ticks": 18240,
		  "time": 20.176974,
		  "velocity": 0.7480314960629921
		},
		{
		  "duration": 0.13274325000000076,
		  "durationTicks": 120,
		  "midi": 28,
		  "name": "E1",
		  "ticks": 18360,
		  "time": 20.309717250000002,
		  "velocity": 0.7480314960629921
		},
		{
		  "duration": 0.26548649999999796,
		  "durationTicks": 240,
		  "midi": 48,
		  "name": "C3",
		  "ticks": 18480,
		  "time": 20.442460500000003,
		  "velocity": 0.7480314960629921
		},
		{
		  "duration": 0.13274325000000076,
		  "durationTicks": 120,
		  "midi": 28,
		  "name": "E1",
		  "ticks": 18720,
		  "time": 20.707947,
		  "velocity": 0.7480314960629921
		},
		{
		  "duration": 0.13274325000000076,
		  "durationTicks": 120,
		  "midi": 47,
		  "name": "B2",
		  "ticks": 18840,
		  "time": 20.84069025,
		  "velocity": 0.7480314960629921
		},
		{
		  "duration": 0.1327432499999972,
		  "durationTicks": 120,
		  "midi": 45,
		  "name": "A2",
		  "ticks": 18960,
		  "time": 20.973433500000002,
		  "velocity": 0.7480314960629921
		},
		{
		  "duration": 0.13274325000000076,
		  "durationTicks": 120,
		  "midi": 42,
		  "name": "F#2",
		  "ticks": 19080,
		  "time": 21.10617675,
		  "velocity": 0.7480314960629921
		},
		{
		  "duration": 0.13274325000000076,
		  "durationTicks": 120,
		  "midi": 28,
		  "name": "E1",
		  "ticks": 19200,
		  "time": 21.23892,
		  "velocity": 0.7480314960629921
		},
		{
		  "duration": 0.2654865000000015,
		  "durationTicks": 240,
		  "midi": 28,
		  "name": "E1",
		  "ticks": 19320,
		  "time": 21.37166325,
		  "velocity": 0.7480314960629921
		},
		{
		  "duration": 0.1327432499999972,
		  "durationTicks": 120,
		  "midi": 28,
		  "name": "E1",
		  "ticks": 19560,
		  "time": 21.637149750000003,
		  "velocity": 0.7480314960629921
		},
		{
		  "duration": 0.2654865000000015,
		  "durationTicks": 240,
		  "midi": 28,
		  "name": "E1",
		  "ticks": 19680,
		  "time": 21.769893,
		  "velocity": 0.7480314960629921
		},
		{
		  "duration": 0.2654865000000015,
		  "durationTicks": 240,
		  "midi": 28,
		  "name": "E1",
		  "ticks": 19920,
		  "time": 22.0353795,
		  "velocity": 0.7480314960629921
		},
		{
		  "duration": 0.1327432499999972,
		  "durationTicks": 120,
		  "midi": 28,
		  "name": "E1",
		  "ticks": 20160,
		  "time": 22.300866000000003,
		  "velocity": 0.7480314960629921
		},
		{
		  "duration": 0.2654865000000015,
		  "durationTicks": 240,
		  "midi": 28,
		  "name": "E1",
		  "ticks": 20280,
		  "time": 22.43360925,
		  "velocity": 0.7480314960629921
		},
		{
		  "duration": 0.13274325000000076,
		  "durationTicks": 120,
		  "midi": 28,
		  "name": "E1",
		  "ticks": 20520,
		  "time": 22.69909575,
		  "velocity": 0.7480314960629921
		},
		{
		  "duration": 0.26548649999999796,
		  "durationTicks": 240,
		  "midi": 28,
		  "name": "E1",
		  "ticks": 20640,
		  "time": 22.831839000000002,
		  "velocity": 0.7480314960629921
		},
		{
		  "duration": 0.2654865000000015,
		  "durationTicks": 240,
		  "midi": 28,
		  "name": "E1",
		  "ticks": 20880,
		  "time": 23.0973255,
		  "velocity": 0.7480314960629921
		},
		{
		  "duration": 0.5309729999999995,
		  "durationTicks": 480,
		  "midi": 28,
		  "name": "E1",
		  "ticks": 23040,
		  "time": 25.486704000000003,
		  "velocity": 0.7480314960629921
		},
		{
		  "duration": 0.13274325000000076,
		  "durationTicks": 120,
		  "midi": 28,
		  "name": "E1",
		  "ticks": 24240,
		  "time": 26.8141365,
		  "velocity": 0.7480314960629921
		},
		{
		  "duration": 0.13274325000000076,
		  "durationTicks": 120,
		  "midi": 28,
		  "name": "E1",
		  "ticks": 24360,
		  "time": 26.94687975,
		  "velocity": 0.7480314960629921
		},
		{
		  "duration": 0.5309729999999995,
		  "durationTicks": 480,
		  "midi": 40,
		  "name": "E2",
		  "ticks": 24480,
		  "time": 27.079623,
		  "velocity": 0.7480314960629921
		},
		{
		  "duration": 0.13274325000000076,
		  "durationTicks": 120,
		  "midi": 24,
		  "name": "C1",
		  "ticks": 24960,
		  "time": 27.610596,
		  "velocity": 0.7480314960629921
		},
		{
		  "duration": 0.26548649999999796,
		  "durationTicks": 240,
		  "midi": 24,
		  "name": "C1",
		  "ticks": 25080,
		  "time": 27.743339250000002,
		  "velocity": 0.7480314960629921
		},
		{
		  "duration": 0.13274325000000076,
		  "durationTicks": 120,
		  "midi": 24,
		  "name": "C1",
		  "ticks": 25320,
		  "time": 28.00882575,
		  "velocity": 0.7480314960629921
		},
		{
		  "duration": 0.2654865000000015,
		  "durationTicks": 240,
		  "midi": 24,
		  "name": "C1",
		  "ticks": 25440,
		  "time": 28.141569,
		  "velocity": 0.7480314960629921
		},
		{
		  "duration": 0.26548649999999796,
		  "durationTicks": 240,
		  "midi": 24,
		  "name": "C1",
		  "ticks": 25680,
		  "time": 28.407055500000002,
		  "velocity": 0.7480314960629921
		},
		{
		  "duration": 0.13274325000000076,
		  "durationTicks": 120,
		  "midi": 26,
		  "name": "D1",
		  "ticks": 25920,
		  "time": 28.672542,
		  "velocity": 0.7480314960629921
		},
		{
		  "duration": 0.2654865000000015,
		  "durationTicks": 240,
		  "midi": 26,
		  "name": "D1",
		  "ticks": 26040,
		  "time": 28.80528525,
		  "velocity": 0.7480314960629921
		},
		{
		  "duration": 0.13274325000000076,
		  "durationTicks": 120,
		  "midi": 26,
		  "name": "D1",
		  "ticks": 26280,
		  "time": 29.070771750000002,
		  "velocity": 0.7480314960629921
		},
		{
		  "duration": 0.26548649999999796,
		  "durationTicks": 240,
		  "midi": 26,
		  "name": "D1",
		  "ticks": 26400,
		  "time": 29.203515000000003,
		  "velocity": 0.7480314960629921
		},
		{
		  "duration": 0.2654865000000015,
		  "durationTicks": 240,
		  "midi": 26,
		  "name": "D1",
		  "ticks": 26640,
		  "time": 29.4690015,
		  "velocity": 0.7480314960629921
		},
		{
		  "duration": 0.13274325000000076,
		  "durationTicks": 120,
		  "midi": 28,
		  "name": "E1",
		  "ticks": 26880,
		  "time": 29.734488000000002,
		  "velocity": 0.7480314960629921
		},
		{
		  "duration": 0.26548649999999796,
		  "durationTicks": 240,
		  "midi": 28,
		  "name": "E1",
		  "ticks": 27000,
		  "time": 29.867231250000003,
		  "velocity": 0.7480314960629921
		},
		{
		  "duration": 0.13274325000000076,
		  "durationTicks": 120,
		  "midi": 28,
		  "name": "E1",
		  "ticks": 27240,
		  "time": 30.13271775,
		  "velocity": 0.7480314960629921
		},
		{
		  "duration": 0.5309729999999995,
		  "durationTicks": 480,
		  "midi": 40,
		  "name": "E2",
		  "ticks": 27360,
		  "time": 30.265461000000002,
		  "velocity": 0.7480314960629921
		},
		{
		  "duration": 0.26548649999999796,
		  "durationTicks": 240,
		  "midi": 28,
		  "name": "E1",
		  "ticks": 28080,
		  "time": 31.061920500000003,
		  "velocity": 0.7480314960629921
		},
		{
		  "duration": 0.2654865000000015,
		  "durationTicks": 240,
		  "midi": 28,
		  "name": "E1",
		  "ticks": 28320,
		  "time": 31.327407,
		  "velocity": 0.7480314960629921
		},
		{
		  "duration": 0.26548649999999796,
		  "durationTicks": 240,
		  "midi": 28,
		  "name": "E1",
		  "ticks": 28560,
		  "time": 31.592893500000002,
		  "velocity": 0.7480314960629921
		},
		{
		  "duration": 0.13274325000000076,
		  "durationTicks": 120,
		  "midi": 24,
		  "name": "C1",
		  "ticks": 28800,
		  "time": 31.85838,
		  "velocity": 0.7480314960629921
		},
		{
		  "duration": 0.2654865000000015,
		  "durationTicks": 240,
		  "midi": 24,
		  "name": "C1",
		  "ticks": 28920,
		  "time": 31.99112325,
		  "velocity": 0.7480314960629921
		},
		{
		  "duration": 0.1327432499999972,
		  "durationTicks": 120,
		  "midi": 24,
		  "name": "C1",
		  "ticks": 29160,
		  "time": 32.25660975,
		  "velocity": 0.7480314960629921
		},
		{
		  "duration": 0.2654865000000015,
		  "durationTicks": 240,
		  "midi": 24,
		  "name": "C1",
		  "ticks": 29280,
		  "time": 32.389353,
		  "velocity": 0.7480314960629921
		},
		{
		  "duration": 0.2654865000000015,
		  "durationTicks": 240,
		  "midi": 24,
		  "name": "C1",
		  "ticks": 29520,
		  "time": 32.6548395,
		  "velocity": 0.7480314960629921
		},
		{
		  "duration": 0.2654865000000015,
		  "durationTicks": 240,
		  "midi": 26,
		  "name": "D1",
		  "ticks": 29760,
		  "time": 32.920326,
		  "velocity": 0.7480314960629921
		},
		{
		  "duration": 0.2654864999999944,
		  "durationTicks": 240,
		  "midi": 26,
		  "name": "D1",
		  "ticks": 30000,
		  "time": 33.185812500000004,
		  "velocity": 0.7480314960629921
		},
		{
		  "duration": 0.2654865000000015,
		  "durationTicks": 240,
		  "midi": 26,
		  "name": "D1",
		  "ticks": 30240,
		  "time": 33.451299,
		  "velocity": 0.7480314960629921
		},
		{
		  "duration": 0.2654865000000015,
		  "durationTicks": 240,
		  "midi": 26,
		  "name": "D1",
		  "ticks": 30480,
		  "time": 33.7167855,
		  "velocity": 0.7480314960629921
		},
		{
		  "duration": 0.530973000000003,
		  "durationTicks": 480,
		  "midi": 28,
		  "name": "E1",
		  "ticks": 30720,
		  "time": 33.982272,
		  "velocity": 0.7480314960629921
		},
		{
		  "duration": 0.1327432499999972,
		  "durationTicks": 120,
		  "midi": 28,
		  "name": "E1",
		  "ticks": 31200,
		  "time": 34.513245000000005,
		  "velocity": 0.7480314960629921
		},
		{
		  "duration": 0.1327432499999972,
		  "durationTicks": 120,
		  "midi": 28,
		  "name": "E1",
		  "ticks": 31320,
		  "time": 34.64598825,
		  "velocity": 0.7480314960629921
		},
		{
		  "duration": 0.1327432500000043,
		  "durationTicks": 120,
		  "midi": 28,
		  "name": "E1",
		  "ticks": 31440,
		  "time": 34.7787315,
		  "velocity": 0.7480314960629921
		},
		{
		  "duration": 0.1327432499999972,
		  "durationTicks": 120,
		  "midi": 28,
		  "name": "E1",
		  "ticks": 31560,
		  "time": 34.911474750000004,
		  "velocity": 0.7480314960629921
		},
		{
		  "duration": 0.2654865000000015,
		  "durationTicks": 240,
		  "midi": 33,
		  "name": "A1",
		  "ticks": 31680,
		  "time": 35.044218,
		  "velocity": 0.7480314960629921
		},
		{
		  "duration": 0.1327432499999972,
		  "durationTicks": 120,
		  "midi": 28,
		  "name": "E1",
		  "ticks": 31920,
		  "time": 35.3097045,
		  "velocity": 0.7480314960629921
		},
		{
		  "duration": 0.1327432499999972,
		  "durationTicks": 120,
		  "midi": 31,
		  "name": "G1",
		  "ticks": 32400,
		  "time": 35.840677500000005,
		  "velocity": 0.7480314960629921
		},
		{
		  "duration": 0.1327432499999972,
		  "durationTicks": 120,
		  "midi": 30,
		  "name": "F#1",
		  "ticks": 32520,
		  "time": 35.97342075,
		  "velocity": 0.7480314960629921
		},
		{
		  "duration": 0.1327432500000043,
		  "durationTicks": 120,
		  "midi": 24,
		  "name": "C1",
		  "ticks": 32640,
		  "time": 36.106164,
		  "velocity": 0.7480314960629921
		},
		{
		  "duration": 0.2654864999999944,
		  "durationTicks": 240,
		  "midi": 24,
		  "name": "C1",
		  "ticks": 32760,
		  "time": 36.238907250000004,
		  "velocity": 0.7480314960629921
		},
		{
		  "duration": 0.1327432500000043,
		  "durationTicks": 120,
		  "midi": 24,
		  "name": "C1",
		  "ticks": 33000,
		  "time": 36.50439375,
		  "velocity": 0.7480314960629921
		},
		{
		  "duration": 0.2654865000000015,
		  "durationTicks": 240,
		  "midi": 24,
		  "name": "C1",
		  "ticks": 33120,
		  "time": 36.637137,
		  "velocity": 0.7480314960629921
		},
		{
		  "duration": 0.2654864999999944,
		  "durationTicks": 240,
		  "midi": 24,
		  "name": "C1",
		  "ticks": 33360,
		  "time": 36.902623500000004,
		  "velocity": 0.7480314960629921
		},
		{
		  "duration": 0.1327432500000043,
		  "durationTicks": 120,
		  "midi": 26,
		  "name": "D1",
		  "ticks": 33600,
		  "time": 37.16811,
		  "velocity": 0.7480314960629921
		},
		{
		  "duration": 0.2654865000000015,
		  "durationTicks": 240,
		  "midi": 26,
		  "name": "D1",
		  "ticks": 33720,
		  "time": 37.30085325,
		  "velocity": 0.7480314960629921
		},
		{
		  "duration": 0.1327432499999972,
		  "durationTicks": 120,
		  "midi": 26,
		  "name": "D1",
		  "ticks": 33960,
		  "time": 37.566339750000004,
		  "velocity": 0.7480314960629921
		},
		{
		  "duration": 0.2654865000000015,
		  "durationTicks": 240,
		  "midi": 26,
		  "name": "D1",
		  "ticks": 34080,
		  "time": 37.699083,
		  "velocity": 0.7480314960629921
		},
		{
		  "duration": 0.2654865000000015,
		  "durationTicks": 240,
		  "midi": 26,
		  "name": "D1",
		  "ticks": 34320,
		  "time": 37.9645695,
		  "velocity": 0.7480314960629921
		},
		{
		  "duration": 0.1327432499999972,
		  "durationTicks": 120,
		  "midi": 28,
		  "name": "E1",
		  "ticks": 34560,
		  "time": 38.230056000000005,
		  "velocity": 0.7480314960629921
		},
		{
		  "duration": 0.2654865000000015,
		  "durationTicks": 240,
		  "midi": 28,
		  "name": "E1",
		  "ticks": 34680,
		  "time": 38.36279925,
		  "velocity": 0.7480314960629921
		},
		{
		  "duration": 0.1327432499999972,
		  "durationTicks": 120,
		  "midi": 28,
		  "name": "E1",
		  "ticks": 34920,
		  "time": 38.62828575,
		  "velocity": 0.7480314960629921
		},
		{
		  "duration": 0.2654865000000015,
		  "durationTicks": 240,
		  "midi": 28,
		  "name": "E1",
		  "ticks": 35040,
		  "time": 38.761029,
		  "velocity": 0.7480314960629921
		},
		{
		  "duration": 0.2654865000000015,
		  "durationTicks": 240,
		  "midi": 28,
		  "name": "E1",
		  "ticks": 35280,
		  "time": 39.0265155,
		  "velocity": 0.7480314960629921
		},
		{
		  "duration": 0.2654864999999944,
		  "durationTicks": 240,
		  "midi": 28,
		  "name": "E1",
		  "ticks": 35760,
		  "time": 39.557488500000005,
		  "velocity": 0.7480314960629921
		},
		{
		  "duration": 0.2654865000000015,
		  "durationTicks": 240,
		  "midi": 28,
		  "name": "E1",
		  "ticks": 36000,
		  "time": 39.822975,
		  "velocity": 0.7480314960629921
		},
		{
		  "duration": 0.2654865000000015,
		  "durationTicks": 240,
		  "midi": 28,
		  "name": "E1",
		  "ticks": 36240,
		  "time": 40.0884615,
		  "velocity": 0.7480314960629921
		},
		{
		  "duration": 0.1327432499999972,
		  "durationTicks": 120,
		  "midi": 24,
		  "name": "C1",
		  "ticks": 36480,
		  "time": 40.353948,
		  "velocity": 0.7480314960629921
		},
		{
		  "duration": 0.2654865000000015,
		  "durationTicks": 240,
		  "midi": 24,
		  "name": "C1",
		  "ticks": 36600,
		  "time": 40.48669125,
		  "velocity": 0.7480314960629921
		},
		{
		  "duration": 0.1327432500000043,
		  "durationTicks": 120,
		  "midi": 24,
		  "name": "C1",
		  "ticks": 36840,
		  "time": 40.75217775,
		  "velocity": 0.7480314960629921
		},
		{
		  "duration": 0.2654864999999944,
		  "durationTicks": 240,
		  "midi": 24,
		  "name": "C1",
		  "ticks": 36960,
		  "time": 40.884921000000006,
		  "velocity": 0.7480314960629921
		},
		{
		  "duration": 0.2654865000000015,
		  "durationTicks": 240,
		  "midi": 24,
		  "name": "C1",
		  "ticks": 37200,
		  "time": 41.1504075,
		  "velocity": 0.7480314960629921
		},
		{
		  "duration": 0.2654865000000015,
		  "durationTicks": 240,
		  "midi": 28,
		  "name": "E1",
		  "ticks": 38400,
		  "time": 42.47784,
		  "velocity": 0.7480314960629921
		},
		{
		  "duration": 0.1327432499999972,
		  "durationTicks": 120,
		  "midi": 28,
		  "name": "E1",
		  "ticks": 38640,
		  "time": 42.7433265,
		  "velocity": 0.7480314960629921
		},
		{
		  "duration": 0.2654865000000015,
		  "durationTicks": 240,
		  "midi": 28,
		  "name": "E1",
		  "ticks": 38760,
		  "time": 42.87606975,
		  "velocity": 0.7480314960629921
		},
		{
		  "duration": 0.2654865000000015,
		  "durationTicks": 240,
		  "midi": 28,
		  "name": "E1",
		  "ticks": 39000,
		  "time": 43.14155625,
		  "velocity": 0.7480314960629921
		},
		{
		  "duration": 0.2654865000000015,
		  "durationTicks": 240,
		  "midi": 28,
		  "name": "E1",
		  "ticks": 39240,
		  "time": 43.40704275,
		  "velocity": 0.7480314960629921
		},
		{
		  "duration": 0.1327432499999972,
		  "durationTicks": 120,
		  "midi": 28,
		  "name": "E1",
		  "ticks": 39480,
		  "time": 43.672529250000004,
		  "velocity": 0.7480314960629921
		},
		{
		  "duration": 0.1327432500000043,
		  "durationTicks": 120,
		  "midi": 28,
		  "name": "E1",
		  "ticks": 39600,
		  "time": 43.8052725,
		  "velocity": 0.7480314960629921
		},
		{
		  "duration": 0.1327432499999972,
		  "durationTicks": 120,
		  "midi": 28,
		  "name": "E1",
		  "ticks": 39720,
		  "time": 43.938015750000005,
		  "velocity": 0.7480314960629921
		},
		{
		  "duration": 0.2654865000000015,
		  "durationTicks": 240,
		  "midi": 38,
		  "name": "D2",
		  "ticks": 39840,
		  "time": 44.070759,
		  "velocity": 0.7480314960629921
		},
		{
		  "duration": 0.2654865000000015,
		  "durationTicks": 240,
		  "midi": 38,
		  "name": "D2",
		  "ticks": 40080,
		  "time": 44.336245500000004,
		  "velocity": 0.7480314960629921
		},
		{
		  "duration": 0.2654864999999944,
		  "durationTicks": 240,
		  "midi": 40,
		  "name": "E2",
		  "ticks": 40320,
		  "time": 44.601732000000005,
		  "velocity": 0.7480314960629921
		},
		{
		  "duration": 0.1327432500000043,
		  "durationTicks": 120,
		  "midi": 40,
		  "name": "E2",
		  "ticks": 40560,
		  "time": 44.8672185,
		  "velocity": 0.7480314960629921
		},
		{
		  "duration": 0.2654865000000015,
		  "durationTicks": 240,
		  "midi": 40,
		  "name": "E2",
		  "ticks": 40680,
		  "time": 44.999961750000004,
		  "velocity": 0.7480314960629921
		},
		{
		  "duration": 0.2654864999999944,
		  "durationTicks": 240,
		  "midi": 28,
		  "name": "E1",
		  "ticks": 40920,
		  "time": 45.265448250000006,
		  "velocity": 0.7480314960629921
		},
		{
		  "duration": 0.2654865000000015,
		  "durationTicks": 240,
		  "midi": 28,
		  "name": "E1",
		  "ticks": 41160,
		  "time": 45.53093475,
		  "velocity": 0.7480314960629921
		},
		{
		  "duration": 0.1327432500000043,
		  "durationTicks": 120,
		  "midi": 28,
		  "name": "E1",
		  "ticks": 41400,
		  "time": 45.79642125,
		  "velocity": 0.7480314960629921
		},
		{
		  "duration": 0.1327432499999972,
		  "durationTicks": 120,
		  "midi": 28,
		  "name": "E1",
		  "ticks": 41520,
		  "time": 45.929164500000006,
		  "velocity": 0.7480314960629921
		},
		{
		  "duration": 0.1327432499999972,
		  "durationTicks": 120,
		  "midi": 28,
		  "name": "E1",
		  "ticks": 41640,
		  "time": 46.06190775,
		  "velocity": 0.7480314960629921
		},
		{
		  "duration": 0.1327432500000043,
		  "durationTicks": 120,
		  "midi": 45,
		  "name": "A2",
		  "ticks": 41760,
		  "time": 46.194651,
		  "velocity": 0.7480314960629921
		},
		{
		  "duration": 0.1327432499999972,
		  "durationTicks": 120,
		  "midi": 42,
		  "name": "F#2",
		  "ticks": 41880,
		  "time": 46.327394250000005,
		  "velocity": 0.7480314960629921
		},
		{
		  "duration": 0.1327432499999972,
		  "durationTicks": 120,
		  "midi": 28,
		  "name": "E1",
		  "ticks": 42000,
		  "time": 46.4601375,
		  "velocity": 0.7480314960629921
		},
		{
		  "duration": 0.1327432500000043,
		  "durationTicks": 120,
		  "midi": 38,
		  "name": "D2",
		  "ticks": 42120,
		  "time": 46.59288075,
		  "velocity": 0.7480314960629921
		},
		{
		  "duration": 0.2654865000000015,
		  "durationTicks": 240,
		  "midi": 28,
		  "name": "E1",
		  "ticks": 42240,
		  "time": 46.725624,
		  "velocity": 0.7480314960629921
		},
		{
		  "duration": 0.1327432499999972,
		  "durationTicks": 120,
		  "midi": 28,
		  "name": "E1",
		  "ticks": 42480,
		  "time": 46.991110500000005,
		  "velocity": 0.7480314960629921
		},
		{
		  "duration": 0.2654865000000015,
		  "durationTicks": 240,
		  "midi": 28,
		  "name": "E1",
		  "ticks": 42600,
		  "time": 47.12385375,
		  "velocity": 0.7480314960629921
		},
		{
		  "duration": 0.2654865000000015,
		  "durationTicks": 240,
		  "midi": 28,
		  "name": "E1",
		  "ticks": 42840,
		  "time": 47.389340250000004,
		  "velocity": 0.7480314960629921
		},
		{
		  "duration": 0.2654864999999944,
		  "durationTicks": 240,
		  "midi": 28,
		  "name": "E1",
		  "ticks": 43080,
		  "time": 47.654826750000005,
		  "velocity": 0.7480314960629921
		},
		{
		  "duration": 0.1327432500000043,
		  "durationTicks": 120,
		  "midi": 28,
		  "name": "E1",
		  "ticks": 43320,
		  "time": 47.92031325,
		  "velocity": 0.7480314960629921
		},
		{
		  "duration": 0.1327432499999972,
		  "durationTicks": 120,
		  "midi": 28,
		  "name": "E1",
		  "ticks": 43440,
		  "time": 48.053056500000004,
		  "velocity": 0.7480314960629921
		},
		{
		  "duration": 0.1327432500000043,
		  "durationTicks": 120,
		  "midi": 28,
		  "name": "E1",
		  "ticks": 43560,
		  "time": 48.18579975,
		  "velocity": 0.7480314960629921
		},
		{
		  "duration": 0.2654864999999944,
		  "durationTicks": 240,
		  "midi": 38,
		  "name": "D2",
		  "ticks": 43680,
		  "time": 48.318543000000005,
		  "velocity": 0.7480314960629921
		},
		{
		  "duration": 0.2654865000000015,
		  "durationTicks": 240,
		  "midi": 38,
		  "name": "D2",
		  "ticks": 43920,
		  "time": 48.5840295,
		  "velocity": 0.7480314960629921
		},
		{
		  "duration": 0.1327432500000043,
		  "durationTicks": 120,
		  "midi": 40,
		  "name": "E2",
		  "ticks": 44160,
		  "time": 48.849516,
		  "velocity": 0.7480314960629921
		},
		{
		  "duration": 0.1327432499999972,
		  "durationTicks": 120,
		  "midi": 24,
		  "name": "C1",
		  "ticks": 44280,
		  "time": 48.982259250000006,
		  "velocity": 0.7480314960629921
		},
		{
		  "duration": 0.1327432499999972,
		  "durationTicks": 120,
		  "midi": 24,
		  "name": "C1",
		  "ticks": 44400,
		  "time": 49.1150025,
		  "velocity": 0.7480314960629921
		},
		{
		  "duration": 0.1327432500000043,
		  "durationTicks": 120,
		  "midi": 43,
		  "name": "G2",
		  "ticks": 44520,
		  "time": 49.24774575,
		  "velocity": 0.7480314960629921
		},
		{
		  "duration": 0.1327432499999972,
		  "durationTicks": 120,
		  "midi": 24,
		  "name": "C1",
		  "ticks": 44640,
		  "time": 49.380489000000004,
		  "velocity": 0.7480314960629921
		},
		{
		  "duration": 0.1327432500000043,
		  "durationTicks": 120,
		  "midi": 42,
		  "name": "F#2",
		  "ticks": 44760,
		  "time": 49.51323225,
		  "velocity": 0.7480314960629921
		},
		{
		  "duration": 0.1327432499999972,
		  "durationTicks": 120,
		  "midi": 24,
		  "name": "C1",
		  "ticks": 44880,
		  "time": 49.645975500000006,
		  "velocity": 0.7480314960629921
		},
		{
		  "duration": 0.1327432499999972,
		  "durationTicks": 120,
		  "midi": 36,
		  "name": "C2",
		  "ticks": 45000,
		  "time": 49.77871875,
		  "velocity": 0.7480314960629921
		},
		{
		  "duration": 0.1327432500000043,
		  "durationTicks": 120,
		  "midi": 24,
		  "name": "C1",
		  "ticks": 45120,
		  "time": 49.911462,
		  "velocity": 0.7480314960629921
		},
		{
		  "duration": 0.1327432499999972,
		  "durationTicks": 120,
		  "midi": 38,
		  "name": "D2",
		  "ticks": 45240,
		  "time": 50.044205250000005,
		  "velocity": 0.7480314960629921
		},
		{
		  "duration": 0.1327432500000043,
		  "durationTicks": 120,
		  "midi": 26,
		  "name": "D1",
		  "ticks": 45360,
		  "time": 50.1769485,
		  "velocity": 0.7480314960629921
		},
		{
		  "duration": 0.1327432499999972,
		  "durationTicks": 120,
		  "midi": 38,
		  "name": "D2",
		  "ticks": 45480,
		  "time": 50.309691750000006,
		  "velocity": 0.7480314960629921
		},
		{
		  "duration": 0.1327432499999972,
		  "durationTicks": 120,
		  "midi": 43,
		  "name": "G2",
		  "ticks": 45600,
		  "time": 50.442435,
		  "velocity": 0.7480314960629921
		},
		{
		  "duration": 0.1327432500000043,
		  "durationTicks": 120,
		  "midi": 26,
		  "name": "D1",
		  "ticks": 45720,
		  "time": 50.57517825,
		  "velocity": 0.7480314960629921
		},
		{
		  "duration": 0.1327432499999972,
		  "durationTicks": 120,
		  "midi": 42,
		  "name": "F#2",
		  "ticks": 45840,
		  "time": 50.707921500000005,
		  "velocity": 0.7480314960629921
		},
		{
		  "duration": 0.1327432500000043,
		  "durationTicks": 120,
		  "midi": 26,
		  "name": "D1",
		  "ticks": 45960,
		  "time": 50.84066475,
		  "velocity": 0.7480314960629921
		},
		{
		  "duration": 0.2654864999999944,
		  "durationTicks": 240,
		  "midi": 28,
		  "name": "E1",
		  "ticks": 46080,
		  "time": 50.973408000000006,
		  "velocity": 0.7480314960629921
		},
		{
		  "duration": 0.1327432500000043,
		  "durationTicks": 120,
		  "midi": 28,
		  "name": "E1",
		  "ticks": 46320,
		  "time": 51.2388945,
		  "velocity": 0.7480314960629921
		},
		{
		  "duration": 0.2654864999999944,
		  "durationTicks": 240,
		  "midi": 28,
		  "name": "E1",
		  "ticks": 46440,
		  "time": 51.371637750000005,
		  "velocity": 0.7480314960629921
		},
		{
		  "duration": 0.2654865000000015,
		  "durationTicks": 240,
		  "midi": 28,
		  "name": "E1",
		  "ticks": 46680,
		  "time": 51.63712425,
		  "velocity": 0.7480314960629921
		},
		{
		  "duration": 0.2654865000000015,
		  "durationTicks": 240,
		  "midi": 28,
		  "name": "E1",
		  "ticks": 46920,
		  "time": 51.90261075,
		  "velocity": 0.7480314960629921
		},
		{
		  "duration": 0.1327432499999972,
		  "durationTicks": 120,
		  "midi": 28,
		  "name": "E1",
		  "ticks": 47160,
		  "time": 52.16809725,
		  "velocity": 0.7480314960629921
		},
		{
		  "duration": 0.1327432500000043,
		  "durationTicks": 120,
		  "midi": 28,
		  "name": "E1",
		  "ticks": 47280,
		  "time": 52.3008405,
		  "velocity": 0.7480314960629921
		},
		{
		  "duration": 0.1327432499999972,
		  "durationTicks": 120,
		  "midi": 28,
		  "name": "E1",
		  "ticks": 47400,
		  "time": 52.433583750000004,
		  "velocity": 0.7480314960629921
		},
		{
		  "duration": 0.2654865000000015,
		  "durationTicks": 240,
		  "midi": 38,
		  "name": "D2",
		  "ticks": 47520,
		  "time": 52.566327,
		  "velocity": 0.7480314960629921
		},
		{
		  "duration": 0.2654865000000015,
		  "durationTicks": 240,
		  "midi": 38,
		  "name": "D2",
		  "ticks": 47760,
		  "time": 52.8318135,
		  "velocity": 0.7480314960629921
		},
		{
		  "duration": 0.2654865000000015,
		  "durationTicks": 240,
		  "midi": 40,
		  "name": "E2",
		  "ticks": 48000,
		  "time": 53.097300000000004,
		  "velocity": 0.7480314960629921
		},
		{
		  "duration": 0.1327432499999972,
		  "durationTicks": 120,
		  "midi": 40,
		  "name": "E2",
		  "ticks": 48240,
		  "time": 53.362786500000006,
		  "velocity": 0.7480314960629921
		},
		{
		  "duration": 0.2654865000000015,
		  "durationTicks": 240,
		  "midi": 40,
		  "name": "E2",
		  "ticks": 48360,
		  "time": 53.49552975,
		  "velocity": 0.7480314960629921
		},
		{
		  "duration": 0.2654865000000015,
		  "durationTicks": 240,
		  "midi": 28,
		  "name": "E1",
		  "ticks": 48600,
		  "time": 53.761016250000004,
		  "velocity": 0.7480314960629921
		},
		{
		  "duration": 0.2654864999999944,
		  "durationTicks": 240,
		  "midi": 28,
		  "name": "E1",
		  "ticks": 48840,
		  "time": 54.026502750000006,
		  "velocity": 0.7480314960629921
		},
		{
		  "duration": 0.1327432500000043,
		  "durationTicks": 120,
		  "midi": 28,
		  "name": "E1",
		  "ticks": 49080,
		  "time": 54.29198925,
		  "velocity": 0.7480314960629921
		},
		{
		  "duration": 0.1327432499999972,
		  "durationTicks": 120,
		  "midi": 28,
		  "name": "E1",
		  "ticks": 49200,
		  "time": 54.424732500000005,
		  "velocity": 0.7480314960629921
		},
		{
		  "duration": 0.1327432500000043,
		  "durationTicks": 120,
		  "midi": 28,
		  "name": "E1",
		  "ticks": 49320,
		  "time": 54.55747575,
		  "velocity": 0.7480314960629921
		},
		{
		  "duration": 0.1327432499999972,
		  "durationTicks": 120,
		  "midi": 45,
		  "name": "A2",
		  "ticks": 49440,
		  "time": 54.690219000000006,
		  "velocity": 0.7480314960629921
		},
		{
		  "duration": 0.1327432499999972,
		  "durationTicks": 120,
		  "midi": 42,
		  "name": "F#2",
		  "ticks": 49560,
		  "time": 54.82296225,
		  "velocity": 0.7480314960629921
		},
		{
		  "duration": 0.1327432500000043,
		  "durationTicks": 120,
		  "midi": 28,
		  "name": "E1",
		  "ticks": 49680,
		  "time": 54.9557055,
		  "velocity": 0.7480314960629921
		},
		{
		  "duration": 0.1327432499999972,
		  "durationTicks": 120,
		  "midi": 38,
		  "name": "D2",
		  "ticks": 49800,
		  "time": 55.088448750000005,
		  "velocity": 0.7480314960629921
		},
		{
		  "duration": 0.2654865000000015,
		  "durationTicks": 240,
		  "midi": 28,
		  "name": "E1",
		  "ticks": 49920,
		  "time": 55.221192,
		  "velocity": 0.7480314960629921
		},
		{
		  "duration": 0.1327432499999972,
		  "durationTicks": 120,
		  "midi": 28,
		  "name": "E1",
		  "ticks": 50160,
		  "time": 55.486678500000004,
		  "velocity": 0.7480314960629921
		},
		{
		  "duration": 0.2654865000000015,
		  "durationTicks": 240,
		  "midi": 28,
		  "name": "E1",
		  "ticks": 50280,
		  "time": 55.61942175,
		  "velocity": 0.7480314960629921
		},
		{
		  "duration": 0.2654865000000015,
		  "durationTicks": 240,
		  "midi": 28,
		  "name": "E1",
		  "ticks": 50520,
		  "time": 55.88490825,
		  "velocity": 0.7480314960629921
		},
		{
		  "duration": 0.2654865000000015,
		  "durationTicks": 240,
		  "midi": 28,
		  "name": "E1",
		  "ticks": 50760,
		  "time": 56.150394750000004,
		  "velocity": 0.7480314960629921
		},
		{
		  "duration": 0.1327432499999972,
		  "durationTicks": 120,
		  "midi": 28,
		  "name": "E1",
		  "ticks": 51000,
		  "time": 56.415881250000005,
		  "velocity": 0.7480314960629921
		},
		{
		  "duration": 0.1327432499999972,
		  "durationTicks": 120,
		  "midi": 28,
		  "name": "E1",
		  "ticks": 51120,
		  "time": 56.5486245,
		  "velocity": 0.7480314960629921
		},
		{
		  "duration": 0.1327432500000043,
		  "durationTicks": 120,
		  "midi": 28,
		  "name": "E1",
		  "ticks": 51240,
		  "time": 56.68136775,
		  "velocity": 0.7480314960629921
		},
		{
		  "duration": 0.2654865000000015,
		  "durationTicks": 240,
		  "midi": 38,
		  "name": "D2",
		  "ticks": 51360,
		  "time": 56.814111000000004,
		  "velocity": 0.7480314960629921
		},
		{
		  "duration": 0.2654864999999944,
		  "durationTicks": 240,
		  "midi": 38,
		  "name": "D2",
		  "ticks": 51600,
		  "time": 57.079597500000006,
		  "velocity": 0.7480314960629921
		},
		{
		  "duration": 1.061946000000006,
		  "durationTicks": 960,
		  "midi": 24,
		  "name": "C1",
		  "ticks": 51840,
		  "time": 57.345084,
		  "velocity": 0.7480314960629921
		},
		{
		  "duration": 1.061945999999999,
		  "durationTicks": 960,
		  "midi": 26,
		  "name": "D1",
		  "ticks": 52800,
		  "time": 58.407030000000006,
		  "velocity": 0.7480314960629921
		}
	  ]
	},
	{
	  "channel": 9,
	  "controlChanges": {
		"0": [
		  {
			"number": 0,
			"ticks": 0,
			"time": 0,
			"value": 0
		  }
		],
		"6": [
		  {
			"number": 6,
			"ticks": 0,
			"time": 0,
			"value": 0.09448818897637795
		  },
		  {
			"number": 6,
			"ticks": 0,
			"time": 0,
			"value": 0.5039370078740157
		  }
		],
		"7": [
		  {
			"number": 7,
			"ticks": 0,
			"time": 0,
			"value": 0.8188976377952756
		  }
		],
		"10": [
		  {
			"number": 10,
			"ticks": 0,
			"time": 0,
			"value": 0.5039370078740157
		  }
		],
		"38": [
		  {
			"number": 38,
			"ticks": 0,
			"time": 0,
			"value": 0
		  }
		],
		"91": [
		  {
			"number": 91,
			"ticks": 0,
			"time": 0,
			"value": 0
		  }
		],
		"92": [
		  {
			"number": 92,
			"ticks": 0,
			"time": 0,
			"value": 0
		  }
		],
		"93": [
		  {
			"number": 93,
			"ticks": 0,
			"time": 0,
			"value": 0
		  }
		],
		"95": [
		  {
			"number": 95,
			"ticks": 0,
			"time": 0,
			"value": 0
		  }
		],
		"100": [
		  {
			"number": 100,
			"ticks": 0,
			"time": 0,
			"value": 0
		  },
		  {
			"number": 100,
			"ticks": 0,
			"time": 0,
			"value": 0.007874015748031496
		  },
		  {
			"number": 100,
			"ticks": 0,
			"time": 0,
			"value": 1
		  }
		],
		"101": [
		  {
			"number": 101,
			"ticks": 0,
			"time": 0,
			"value": 0
		  },
		  {
			"number": 101,
			"ticks": 0,
			"time": 0,
			"value": 0
		  },
		  {
			"number": 101,
			"ticks": 0,
			"time": 0,
			"value": 1
		  }
		]
	  },
	  "pitchBends": [
		{
		  "ticks": 0,
		  "time": 0,
		  "value": 0
		}
	  ],
	  "instrument": {
		"family": "drums",
		"number": 0,
		"name": "standard kit"
	  },
	  "name": "Drums",
	  "notes": [
		{
		  "duration": 0.530973,
		  "durationTicks": 480,
		  "midi": 49,
		  "name": "C#3",
		  "ticks": 0,
		  "time": 0,
		  "velocity": 0.7480314960629921
		},
		{
		  "duration": 0.530973,
		  "durationTicks": 480,
		  "midi": 38,
		  "name": "D2",
		  "ticks": 0,
		  "time": 0,
		  "velocity": 0.7480314960629921
		},
		{
		  "duration": 0.530973,
		  "durationTicks": 480,
		  "midi": 36,
		  "name": "C2",
		  "ticks": 0,
		  "time": 0,
		  "velocity": 0.7480314960629921
		},
		{
		  "duration": 0.06637162499999993,
		  "durationTicks": 60,
		  "midi": 45,
		  "name": "A2",
		  "ticks": 1740,
		  "time": 1.924777125,
		  "velocity": 0.7480314960629921
		},
		{
		  "duration": 0.06637162499999993,
		  "durationTicks": 60,
		  "midi": 36,
		  "name": "C2",
		  "ticks": 1740,
		  "time": 1.924777125,
		  "velocity": 0.7480314960629921
		},
		{
		  "duration": 0.06637162500000016,
		  "durationTicks": 60,
		  "midi": 43,
		  "name": "G2",
		  "ticks": 1800,
		  "time": 1.99114875,
		  "velocity": 0.7480314960629921
		},
		{
		  "duration": 0.06637162500000016,
		  "durationTicks": 60,
		  "midi": 36,
		  "name": "C2",
		  "ticks": 1800,
		  "time": 1.99114875,
		  "velocity": 0.7480314960629921
		},
		{
		  "duration": 0.06637162499999993,
		  "durationTicks": 60,
		  "midi": 41,
		  "name": "F2",
		  "ticks": 1860,
		  "time": 2.057520375,
		  "velocity": 0.7480314960629921
		},
		{
		  "duration": 0.06637162499999993,
		  "durationTicks": 60,
		  "midi": 36,
		  "name": "C2",
		  "ticks": 1860,
		  "time": 2.057520375,
		  "velocity": 0.7480314960629921
		},
		{
		  "duration": 0.13274324999999987,
		  "durationTicks": 120,
		  "midi": 38,
		  "name": "D2",
		  "ticks": 1920,
		  "time": 2.123892,
		  "velocity": 0.7480314960629921
		},
		{
		  "duration": 0.1327432500000003,
		  "durationTicks": 120,
		  "midi": 38,
		  "name": "D2",
		  "ticks": 2040,
		  "time": 2.25663525,
		  "velocity": 0.7480314960629921
		},
		{
		  "duration": 0.13274324999999987,
		  "durationTicks": 120,
		  "midi": 38,
		  "name": "D2",
		  "ticks": 2160,
		  "time": 2.3893785000000003,
		  "velocity": 0.7480314960629921
		},
		{
		  "duration": 0.13274324999999987,
		  "durationTicks": 120,
		  "midi": 38,
		  "name": "D2",
		  "ticks": 2280,
		  "time": 2.52212175,
		  "velocity": 0.7480314960629921
		},
		{
		  "duration": 0.5309730000000004,
		  "durationTicks": 480,
		  "midi": 49,
		  "name": "C#3",
		  "ticks": 3840,
		  "time": 4.247784,
		  "velocity": 0.7480314960629921
		},
		{
		  "duration": 0.5309730000000004,
		  "durationTicks": 480,
		  "midi": 38,
		  "name": "D2",
		  "ticks": 3840,
		  "time": 4.247784,
		  "velocity": 0.7480314960629921
		},
		{
		  "duration": 0.5309730000000004,
		  "durationTicks": 480,
		  "midi": 36,
		  "name": "C2",
		  "ticks": 3840,
		  "time": 4.247784,
		  "velocity": 0.7480314960629921
		},
		{
		  "duration": 0.13274324999999987,
		  "durationTicks": 120,
		  "midi": 49,
		  "name": "C#3",
		  "ticks": 5760,
		  "time": 6.371676000000001,
		  "velocity": 0.7480314960629921
		},
		{
		  "duration": 0.13274324999999987,
		  "durationTicks": 120,
		  "midi": 38,
		  "name": "D2",
		  "ticks": 5760,
		  "time": 6.371676000000001,
		  "velocity": 0.7480314960629921
		},
		{
		  "duration": 0.06637162499999949,
		  "durationTicks": 60,
		  "midi": 48,
		  "name": "C3",
		  "ticks": 5880,
		  "time": 6.504419250000001,
		  "velocity": 0.7480314960629921
		},
		{
		  "duration": 0.06637162499999949,
		  "durationTicks": 60,
		  "midi": 36,
		  "name": "C2",
		  "ticks": 5880,
		  "time": 6.504419250000001,
		  "velocity": 0.7480314960629921
		},
		{
		  "duration": 0.06637162500000038,
		  "durationTicks": 60,
		  "midi": 48,
		  "name": "C3",
		  "ticks": 5940,
		  "time": 6.570790875,
		  "velocity": 0.7480314960629921
		},
		{
		  "duration": 0.06637162500000038,
		  "durationTicks": 60,
		  "midi": 36,
		  "name": "C2",
		  "ticks": 5940,
		  "time": 6.570790875,
		  "velocity": 0.7480314960629921
		},
		{
		  "duration": 0.06637162499999949,
		  "durationTicks": 60,
		  "midi": 47,
		  "name": "B2",
		  "ticks": 6000,
		  "time": 6.6371625000000005,
		  "velocity": 0.7480314960629921
		},
		{
		  "duration": 0.06637162499999949,
		  "durationTicks": 60,
		  "midi": 36,
		  "name": "C2",
		  "ticks": 6000,
		  "time": 6.6371625000000005,
		  "velocity": 0.7480314960629921
		},
		{
		  "duration": 0.06637162500000038,
		  "durationTicks": 60,
		  "midi": 47,
		  "name": "B2",
		  "ticks": 6060,
		  "time": 6.703534125,
		  "velocity": 0.7480314960629921
		},
		{
		  "duration": 0.06637162500000038,
		  "durationTicks": 60,
		  "midi": 36,
		  "name": "C2",
		  "ticks": 6060,
		  "time": 6.703534125,
		  "velocity": 0.7480314960629921
		},
		{
		  "duration": 0.06637162500000038,
		  "durationTicks": 60,
		  "midi": 45,
		  "name": "A2",
		  "ticks": 6120,
		  "time": 6.76990575,
		  "velocity": 0.7480314960629921
		},
		{
		  "duration": 0.06637162500000038,
		  "durationTicks": 60,
		  "midi": 36,
		  "name": "C2",
		  "ticks": 6120,
		  "time": 6.76990575,
		  "velocity": 0.7480314960629921
		},
		{
		  "duration": 0.06637162499999949,
		  "durationTicks": 60,
		  "midi": 45,
		  "name": "A2",
		  "ticks": 6180,
		  "time": 6.836277375000001,
		  "velocity": 0.7480314960629921
		},
		{
		  "duration": 0.06637162499999949,
		  "durationTicks": 60,
		  "midi": 36,
		  "name": "C2",
		  "ticks": 6180,
		  "time": 6.836277375000001,
		  "velocity": 0.7480314960629921
		},
		{
		  "duration": 0.13274324999999987,
		  "durationTicks": 120,
		  "midi": 47,
		  "name": "B2",
		  "ticks": 6240,
		  "time": 6.902649,
		  "velocity": 0.7480314960629921
		},
		{
		  "duration": 0.13274324999999987,
		  "durationTicks": 120,
		  "midi": 36,
		  "name": "C2",
		  "ticks": 6240,
		  "time": 6.902649,
		  "velocity": 0.7480314960629921
		},
		{
		  "duration": 0.13274324999999987,
		  "durationTicks": 120,
		  "midi": 45,
		  "name": "A2",
		  "ticks": 6360,
		  "time": 7.03539225,
		  "velocity": 0.7480314960629921
		},
		{
		  "duration": 0.13274324999999987,
		  "durationTicks": 120,
		  "midi": 36,
		  "name": "C2",
		  "ticks": 6360,
		  "time": 7.03539225,
		  "velocity": 0.7480314960629921
		},
		{
		  "duration": 0.13274325000000076,
		  "durationTicks": 120,
		  "midi": 43,
		  "name": "G2",
		  "ticks": 6480,
		  "time": 7.1681355,
		  "velocity": 0.7480314960629921
		},
		{
		  "duration": 0.13274325000000076,
		  "durationTicks": 120,
		  "midi": 36,
		  "name": "C2",
		  "ticks": 6480,
		  "time": 7.1681355,
		  "velocity": 0.7480314960629921
		},
		{
		  "duration": 0.13274324999999987,
		  "durationTicks": 120,
		  "midi": 41,
		  "name": "F2",
		  "ticks": 6600,
		  "time": 7.300878750000001,
		  "velocity": 0.7480314960629921
		},
		{
		  "duration": 0.13274324999999987,
		  "durationTicks": 120,
		  "midi": 36,
		  "name": "C2",
		  "ticks": 6600,
		  "time": 7.300878750000001,
		  "velocity": 0.7480314960629921
		},
		{
		  "duration": 0.13274324999999987,
		  "durationTicks": 120,
		  "midi": 57,
		  "name": "A3",
		  "ticks": 6720,
		  "time": 7.433622000000001,
		  "velocity": 0.7480314960629921
		},
		{
		  "duration": 0.13274324999999987,
		  "durationTicks": 120,
		  "midi": 38,
		  "name": "D2",
		  "ticks": 6720,
		  "time": 7.433622000000001,
		  "velocity": 0.7480314960629921
		},
		{
		  "duration": 0.13274324999999987,
		  "durationTicks": 120,
		  "midi": 41,
		  "name": "F2",
		  "ticks": 6840,
		  "time": 7.5663652500000005,
		  "velocity": 0.7480314960629921
		},
		{
		  "duration": 0.13274324999999987,
		  "durationTicks": 120,
		  "midi": 36,
		  "name": "C2",
		  "ticks": 6840,
		  "time": 7.5663652500000005,
		  "velocity": 0.7480314960629921
		},
		{
		  "duration": 0.13274324999999987,
		  "durationTicks": 120,
		  "midi": 41,
		  "name": "F2",
		  "ticks": 6960,
		  "time": 7.6991085,
		  "velocity": 0.7480314960629921
		},
		{
		  "duration": 0.13274324999999987,
		  "durationTicks": 120,
		  "midi": 36,
		  "name": "C2",
		  "ticks": 6960,
		  "time": 7.6991085,
		  "velocity": 0.7480314960629921
		},
		{
		  "duration": 0.13274324999999987,
		  "durationTicks": 120,
		  "midi": 57,
		  "name": "A3",
		  "ticks": 7080,
		  "time": 7.83185175,
		  "velocity": 0.7480314960629921
		},
		{
		  "duration": 0.13274324999999987,
		  "durationTicks": 120,
		  "midi": 38,
		  "name": "D2",
		  "ticks": 7080,
		  "time": 7.83185175,
		  "velocity": 0.7480314960629921
		},
		{
		  "duration": 0.13274324999999987,
		  "durationTicks": 120,
		  "midi": 41,
		  "name": "F2",
		  "ticks": 7200,
		  "time": 7.964595,
		  "velocity": 0.7480314960629921
		},
		{
		  "duration": 0.13274324999999987,
		  "durationTicks": 120,
		  "midi": 36,
		  "name": "C2",
		  "ticks": 7200,
		  "time": 7.964595,
		  "velocity": 0.7480314960629921
		},
		{
		  "duration": 0.13274325000000076,
		  "durationTicks": 120,
		  "midi": 41,
		  "name": "F2",
		  "ticks": 7320,
		  "time": 8.09733825,
		  "velocity": 0.7480314960629921
		},
		{
		  "duration": 0.13274325000000076,
		  "durationTicks": 120,
		  "midi": 36,
		  "name": "C2",
		  "ticks": 7320,
		  "time": 8.09733825,
		  "velocity": 0.7480314960629921
		},
		{
		  "duration": 0.13274324999999898,
		  "durationTicks": 120,
		  "midi": 52,
		  "name": "E3",
		  "ticks": 7440,
		  "time": 8.2300815,
		  "velocity": 0.7480314960629921
		},
		{
		  "duration": 0.13274324999999898,
		  "durationTicks": 120,
		  "midi": 38,
		  "name": "D2",
		  "ticks": 7440,
		  "time": 8.2300815,
		  "velocity": 0.7480314960629921
		},
		{
		  "duration": 0.13274325000000076,
		  "durationTicks": 120,
		  "midi": 38,
		  "name": "D2",
		  "ticks": 7560,
		  "time": 8.36282475,
		  "velocity": 0.7480314960629921
		},
		{
		  "duration": 0.13274325000000076,
		  "durationTicks": 120,
		  "midi": 49,
		  "name": "C#3",
		  "ticks": 7680,
		  "time": 8.495568,
		  "velocity": 0.7480314960629921
		},
		{
		  "duration": 0.13274325000000076,
		  "durationTicks": 120,
		  "midi": 38,
		  "name": "D2",
		  "ticks": 7680,
		  "time": 8.495568,
		  "velocity": 0.7480314960629921
		},
		{
		  "duration": 0.13274324999999898,
		  "durationTicks": 120,
		  "midi": 36,
		  "name": "C2",
		  "ticks": 7800,
		  "time": 8.628311250000001,
		  "velocity": 0.7480314960629921
		},
		{
		  "duration": 0.13274325000000076,
		  "durationTicks": 120,
		  "midi": 55,
		  "name": "G3",
		  "ticks": 7920,
		  "time": 8.7610545,
		  "velocity": 0.7480314960629921
		},
		{
		  "duration": 0.13274325000000076,
		  "durationTicks": 120,
		  "midi": 38,
		  "name": "D2",
		  "ticks": 7920,
		  "time": 8.7610545,
		  "velocity": 0.7480314960629921
		},
		{
		  "duration": 0.13274324999999898,
		  "durationTicks": 120,
		  "midi": 36,
		  "name": "C2",
		  "ticks": 8040,
		  "time": 8.893797750000001,
		  "velocity": 0.7480314960629921
		},
		{
		  "duration": 0.13274325000000076,
		  "durationTicks": 120,
		  "midi": 55,
		  "name": "G3",
		  "ticks": 8160,
		  "time": 9.026541,
		  "velocity": 0.7480314960629921
		},
		{
		  "duration": 0.13274325000000076,
		  "durationTicks": 120,
		  "midi": 38,
		  "name": "D2",
		  "ticks": 8160,
		  "time": 9.026541,
		  "velocity": 0.7480314960629921
		},
		{
		  "duration": 0.13274324999999898,
		  "durationTicks": 120,
		  "midi": 36,
		  "name": "C2",
		  "ticks": 8280,
		  "time": 9.15928425,
		  "velocity": 0.7480314960629921
		},
		{
		  "duration": 0.13274325000000076,
		  "durationTicks": 120,
		  "midi": 55,
		  "name": "G3",
		  "ticks": 8400,
		  "time": 9.2920275,
		  "velocity": 0.7480314960629921
		},
		{
		  "duration": 0.13274325000000076,
		  "durationTicks": 120,
		  "midi": 38,
		  "name": "D2",
		  "ticks": 8400,
		  "time": 9.2920275,
		  "velocity": 0.7480314960629921
		},
		{
		  "duration": 0.13274325000000076,
		  "durationTicks": 120,
		  "midi": 36,
		  "name": "C2",
		  "ticks": 8520,
		  "time": 9.42477075,
		  "velocity": 0.7480314960629921
		},
		{
		  "duration": 0.13274324999999898,
		  "durationTicks": 120,
		  "midi": 55,
		  "name": "G3",
		  "ticks": 8640,
		  "time": 9.557514000000001,
		  "velocity": 0.7480314960629921
		},
		{
		  "duration": 0.13274324999999898,
		  "durationTicks": 120,
		  "midi": 38,
		  "name": "D2",
		  "ticks": 8640,
		  "time": 9.557514000000001,
		  "velocity": 0.7480314960629921
		},
		{
		  "duration": 0.13274325000000076,
		  "durationTicks": 120,
		  "midi": 36,
		  "name": "C2",
		  "ticks": 8760,
		  "time": 9.69025725,
		  "velocity": 0.7480314960629921
		},
		{
		  "duration": 0.13274324999999898,
		  "durationTicks": 120,
		  "midi": 55,
		  "name": "G3",
		  "ticks": 8880,
		  "time": 9.823000500000001,
		  "velocity": 0.7480314960629921
		},
		{
		  "duration": 0.13274324999999898,
		  "durationTicks": 120,
		  "midi": 38,
		  "name": "D2",
		  "ticks": 8880,
		  "time": 9.823000500000001,
		  "velocity": 0.7480314960629921
		},
		{
		  "duration": 0.13274325000000076,
		  "durationTicks": 120,
		  "midi": 36,
		  "name": "C2",
		  "ticks": 9000,
		  "time": 9.95574375,
		  "velocity": 0.7480314960629921
		},
		{
		  "duration": 0.13274325000000076,
		  "durationTicks": 120,
		  "midi": 55,
		  "name": "G3",
		  "ticks": 9120,
		  "time": 10.088487,
		  "velocity": 0.7480314960629921
		},
		{
		  "duration": 0.13274325000000076,
		  "durationTicks": 120,
		  "midi": 38,
		  "name": "D2",
		  "ticks": 9120,
		  "time": 10.088487,
		  "velocity": 0.7480314960629921
		},
		{
		  "duration": 0.13274324999999898,
		  "durationTicks": 120,
		  "midi": 36,
		  "name": "C2",
		  "ticks": 9240,
		  "time": 10.221230250000001,
		  "velocity": 0.7480314960629921
		},
		{
		  "duration": 0.13274325000000076,
		  "durationTicks": 120,
		  "midi": 55,
		  "name": "G3",
		  "ticks": 9360,
		  "time": 10.3539735,
		  "velocity": 0.7480314960629921
		},
		{
		  "duration": 0.13274325000000076,
		  "durationTicks": 120,
		  "midi": 38,
		  "name": "D2",
		  "ticks": 9360,
		  "time": 10.3539735,
		  "velocity": 0.7480314960629921
		},
		{
		  "duration": 0.13274324999999898,
		  "durationTicks": 120,
		  "midi": 36,
		  "name": "C2",
		  "ticks": 9480,
		  "time": 10.486716750000001,
		  "velocity": 0.7480314960629921
		},
		{
		  "duration": 0.13274325000000076,
		  "durationTicks": 120,
		  "midi": 55,
		  "name": "G3",
		  "ticks": 9600,
		  "time": 10.61946,
		  "velocity": 0.7480314960629921
		},
		{
		  "duration": 0.13274325000000076,
		  "durationTicks": 120,
		  "midi": 38,
		  "name": "D2",
		  "ticks": 9600,
		  "time": 10.61946,
		  "velocity": 0.7480314960629921
		},
		{
		  "duration": 0.13274324999999898,
		  "durationTicks": 120,
		  "midi": 36,
		  "name": "C2",
		  "ticks": 9720,
		  "time": 10.75220325,
		  "velocity": 0.7480314960629921
		},
		{
		  "duration": 0.13274325000000076,
		  "durationTicks": 120,
		  "midi": 55,
		  "name": "G3",
		  "ticks": 9840,
		  "time": 10.8849465,
		  "velocity": 0.7480314960629921
		},
		{
		  "duration": 0.13274325000000076,
		  "durationTicks": 120,
		  "midi": 38,
		  "name": "D2",
		  "ticks": 9840,
		  "time": 10.8849465,
		  "velocity": 0.7480314960629921
		},
		{
		  "duration": 0.13274325000000076,
		  "durationTicks": 120,
		  "midi": 36,
		  "name": "C2",
		  "ticks": 9960,
		  "time": 11.01768975,
		  "velocity": 0.7480314960629921
		},
		{
		  "duration": 0.13274324999999898,
		  "durationTicks": 120,
		  "midi": 55,
		  "name": "G3",
		  "ticks": 10080,
		  "time": 11.150433000000001,
		  "velocity": 0.7480314960629921
		},
		{
		  "duration": 0.13274324999999898,
		  "durationTicks": 120,
		  "midi": 38,
		  "name": "D2",
		  "ticks": 10080,
		  "time": 11.150433000000001,
		  "velocity": 0.7480314960629921
		},
		{
		  "duration": 0.13274325000000076,
		  "durationTicks": 120,
		  "midi": 36,
		  "name": "C2",
		  "ticks": 10200,
		  "time": 11.28317625,
		  "velocity": 0.7480314960629921
		},
		{
		  "duration": 0.13274324999999898,
		  "durationTicks": 120,
		  "midi": 55,
		  "name": "G3",
		  "ticks": 10320,
		  "time": 11.415919500000001,
		  "velocity": 0.7480314960629921
		},
		{
		  "duration": 0.13274324999999898,
		  "durationTicks": 120,
		  "midi": 38,
		  "name": "D2",
		  "ticks": 10320,
		  "time": 11.415919500000001,
		  "velocity": 0.7480314960629921
		},
		{
		  "duration": 0.13274325000000076,
		  "durationTicks": 120,
		  "midi": 36,
		  "name": "C2",
		  "ticks": 10440,
		  "time": 11.54866275,
		  "velocity": 0.7480314960629921
		},
		{
		  "duration": 0.13274324999999898,
		  "durationTicks": 120,
		  "midi": 55,
		  "name": "G3",
		  "ticks": 10560,
		  "time": 11.681406,
		  "velocity": 0.7480314960629921
		},
		{
		  "duration": 0.13274324999999898,
		  "durationTicks": 120,
		  "midi": 38,
		  "name": "D2",
		  "ticks": 10560,
		  "time": 11.681406,
		  "velocity": 0.7480314960629921
		},
		{
		  "duration": 0.13274325000000076,
		  "durationTicks": 120,
		  "midi": 36,
		  "name": "C2",
		  "ticks": 10680,
		  "time": 11.81414925,
		  "velocity": 0.7480314960629921
		},
		{
		  "duration": 0.13274325000000076,
		  "durationTicks": 120,
		  "midi": 55,
		  "name": "G3",
		  "ticks": 10800,
		  "time": 11.9468925,
		  "velocity": 0.7480314960629921
		},
		{
		  "duration": 0.13274325000000076,
		  "durationTicks": 120,
		  "midi": 38,
		  "name": "D2",
		  "ticks": 10800,
		  "time": 11.9468925,
		  "velocity": 0.7480314960629921
		},
		{
		  "duration": 0.13274324999999898,
		  "durationTicks": 120,
		  "midi": 36,
		  "name": "C2",
		  "ticks": 10920,
		  "time": 12.079635750000001,
		  "velocity": 0.7480314960629921
		},
		{
		  "duration": 0.13274325000000076,
		  "durationTicks": 120,
		  "midi": 55,
		  "name": "G3",
		  "ticks": 11040,
		  "time": 12.212379,
		  "velocity": 0.7480314960629921
		},
		{
		  "duration": 0.13274325000000076,
		  "durationTicks": 120,
		  "midi": 38,
		  "name": "D2",
		  "ticks": 11040,
		  "time": 12.212379,
		  "velocity": 0.7480314960629921
		},
		{
		  "duration": 0.13274324999999898,
		  "durationTicks": 120,
		  "midi": 36,
		  "name": "C2",
		  "ticks": 11160,
		  "time": 12.345122250000001,
		  "velocity": 0.7480314960629921
		},
		{
		  "duration": 0.13274325000000076,
		  "durationTicks": 120,
		  "midi": 55,
		  "name": "G3",
		  "ticks": 11280,
		  "time": 12.4778655,
		  "velocity": 0.7480314960629921
		},
		{
		  "duration": 0.13274325000000076,
		  "durationTicks": 120,
		  "midi": 38,
		  "name": "D2",
		  "ticks": 11280,
		  "time": 12.4778655,
		  "velocity": 0.7480314960629921
		},
		{
		  "duration": 0.13274325000000076,
		  "durationTicks": 120,
		  "midi": 36,
		  "name": "C2",
		  "ticks": 11400,
		  "time": 12.61060875,
		  "velocity": 0.7480314960629921
		},
		{
		  "duration": 0.13274324999999898,
		  "durationTicks": 120,
		  "midi": 55,
		  "name": "G3",
		  "ticks": 11520,
		  "time": 12.743352000000002,
		  "velocity": 0.7480314960629921
		},
		{
		  "duration": 0.13274324999999898,
		  "durationTicks": 120,
		  "midi": 38,
		  "name": "D2",
		  "ticks": 11520,
		  "time": 12.743352000000002,
		  "velocity": 0.7480314960629921
		},
		{
		  "duration": 0.13274325000000076,
		  "durationTicks": 120,
		  "midi": 36,
		  "name": "C2",
		  "ticks": 11640,
		  "time": 12.87609525,
		  "velocity": 0.7480314960629921
		},
		{
		  "duration": 0.13274324999999898,
		  "durationTicks": 120,
		  "midi": 55,
		  "name": "G3",
		  "ticks": 11760,
		  "time": 13.008838500000001,
		  "velocity": 0.7480314960629921
		},
		{
		  "duration": 0.13274324999999898,
		  "durationTicks": 120,
		  "midi": 38,
		  "name": "D2",
		  "ticks": 11760,
		  "time": 13.008838500000001,
		  "velocity": 0.7480314960629921
		},
		{
		  "duration": 0.13274325000000076,
		  "durationTicks": 120,
		  "midi": 36,
		  "name": "C2",
		  "ticks": 11880,
		  "time": 13.14158175,
		  "velocity": 0.7480314960629921
		},
		{
		  "duration": 0.13274324999999898,
		  "durationTicks": 120,
		  "midi": 55,
		  "name": "G3",
		  "ticks": 12000,
		  "time": 13.274325000000001,
		  "velocity": 0.7480314960629921
		},
		{
		  "duration": 0.13274324999999898,
		  "durationTicks": 120,
		  "midi": 38,
		  "name": "D2",
		  "ticks": 12000,
		  "time": 13.274325000000001,
		  "velocity": 0.7480314960629921
		},
		{
		  "duration": 0.13274325000000076,
		  "durationTicks": 120,
		  "midi": 36,
		  "name": "C2",
		  "ticks": 12120,
		  "time": 13.40706825,
		  "velocity": 0.7480314960629921
		},
		{
		  "duration": 0.13274325000000076,
		  "durationTicks": 120,
		  "midi": 55,
		  "name": "G3",
		  "ticks": 12240,
		  "time": 13.5398115,
		  "velocity": 0.7480314960629921
		},
		{
		  "duration": 0.13274325000000076,
		  "durationTicks": 120,
		  "midi": 38,
		  "name": "D2",
		  "ticks": 12240,
		  "time": 13.5398115,
		  "velocity": 0.7480314960629921
		},
		{
		  "duration": 0.13274324999999898,
		  "durationTicks": 120,
		  "midi": 36,
		  "name": "C2",
		  "ticks": 12360,
		  "time": 13.672554750000002,
		  "velocity": 0.7480314960629921
		},
		{
		  "duration": 0.13274325000000076,
		  "durationTicks": 120,
		  "midi": 55,
		  "name": "G3",
		  "ticks": 12480,
		  "time": 13.805298,
		  "velocity": 0.7480314960629921
		},
		{
		  "duration": 0.13274325000000076,
		  "durationTicks": 120,
		  "midi": 38,
		  "name": "D2",
		  "ticks": 12480,
		  "time": 13.805298,
		  "velocity": 0.7480314960629921
		},
		{
		  "duration": 0.13274324999999898,
		  "durationTicks": 120,
		  "midi": 36,
		  "name": "C2",
		  "ticks": 12600,
		  "time": 13.938041250000001,
		  "velocity": 0.7480314960629921
		},
		{
		  "duration": 0.13274325000000076,
		  "durationTicks": 120,
		  "midi": 55,
		  "name": "G3",
		  "ticks": 12720,
		  "time": 14.0707845,
		  "velocity": 0.7480314960629921
		},
		{
		  "duration": 0.13274325000000076,
		  "durationTicks": 120,
		  "midi": 38,
		  "name": "D2",
		  "ticks": 12720,
		  "time": 14.0707845,
		  "velocity": 0.7480314960629921
		},
		{
		  "duration": 0.13274324999999898,
		  "durationTicks": 120,
		  "midi": 36,
		  "name": "C2",
		  "ticks": 12840,
		  "time": 14.203527750000001,
		  "velocity": 0.7480314960629921
		},
		{
		  "duration": 0.13274325000000076,
		  "durationTicks": 120,
		  "midi": 55,
		  "name": "G3",
		  "ticks": 12960,
		  "time": 14.336271,
		  "velocity": 0.7480314960629921
		},
		{
		  "duration": 0.13274325000000076,
		  "durationTicks": 120,
		  "midi": 38,
		  "name": "D2",
		  "ticks": 12960,
		  "time": 14.336271,
		  "velocity": 0.7480314960629921
		},
		{
		  "duration": 0.13274325000000076,
		  "durationTicks": 120,
		  "midi": 36,
		  "name": "C2",
		  "ticks": 13080,
		  "time": 14.46901425,
		  "velocity": 0.7480314960629921
		},
		{
		  "duration": 0.13274324999999898,
		  "durationTicks": 120,
		  "midi": 55,
		  "name": "G3",
		  "ticks": 13200,
		  "time": 14.601757500000001,
		  "velocity": 0.7480314960629921
		},
		{
		  "duration": 0.13274324999999898,
		  "durationTicks": 120,
		  "midi": 38,
		  "name": "D2",
		  "ticks": 13200,
		  "time": 14.601757500000001,
		  "velocity": 0.7480314960629921
		},
		{
		  "duration": 0.13274325000000076,
		  "durationTicks": 120,
		  "midi": 36,
		  "name": "C2",
		  "ticks": 13320,
		  "time": 14.73450075,
		  "velocity": 0.7480314960629921
		},
		{
		  "duration": 0.13274324999999898,
		  "durationTicks": 120,
		  "midi": 49,
		  "name": "C#3",
		  "ticks": 13440,
		  "time": 14.867244000000001,
		  "velocity": 0.7480314960629921
		},
		{
		  "duration": 0.13274324999999898,
		  "durationTicks": 120,
		  "midi": 38,
		  "name": "D2",
		  "ticks": 13440,
		  "time": 14.867244000000001,
		  "velocity": 0.7480314960629921
		},
		{
		  "duration": 0.06637162500000038,
		  "durationTicks": 60,
		  "midi": 48,
		  "name": "C3",
		  "ticks": 13560,
		  "time": 14.99998725,
		  "velocity": 0.7480314960629921
		},
		{
		  "duration": 0.06637162500000038,
		  "durationTicks": 60,
		  "midi": 36,
		  "name": "C2",
		  "ticks": 13560,
		  "time": 14.99998725,
		  "velocity": 0.7480314960629921
		},
		{
		  "duration": 0.06637162500000038,
		  "durationTicks": 60,
		  "midi": 48,
		  "name": "C3",
		  "ticks": 13620,
		  "time": 15.066358875,
		  "velocity": 0.7480314960629921
		},
		{
		  "duration": 0.06637162500000038,
		  "durationTicks": 60,
		  "midi": 36,
		  "name": "C2",
		  "ticks": 13620,
		  "time": 15.066358875,
		  "velocity": 0.7480314960629921
		},
		{
		  "duration": 0.06637162500000038,
		  "durationTicks": 60,
		  "midi": 47,
		  "name": "B2",
		  "ticks": 13680,
		  "time": 15.132730500000001,
		  "velocity": 0.7480314960629921
		},
		{
		  "duration": 0.06637162500000038,
		  "durationTicks": 60,
		  "midi": 36,
		  "name": "C2",
		  "ticks": 13680,
		  "time": 15.132730500000001,
		  "velocity": 0.7480314960629921
		},
		{
		  "duration": 0.0663716249999986,
		  "durationTicks": 60,
		  "midi": 47,
		  "name": "B2",
		  "ticks": 13740,
		  "time": 15.199102125000001,
		  "velocity": 0.7480314960629921
		},
		{
		  "duration": 0.0663716249999986,
		  "durationTicks": 60,
		  "midi": 36,
		  "name": "C2",
		  "ticks": 13740,
		  "time": 15.199102125000001,
		  "velocity": 0.7480314960629921
		},
		{
		  "duration": 0.06637162500000038,
		  "durationTicks": 60,
		  "midi": 45,
		  "name": "A2",
		  "ticks": 13800,
		  "time": 15.26547375,
		  "velocity": 0.7480314960629921
		},
		{
		  "duration": 0.06637162500000038,
		  "durationTicks": 60,
		  "midi": 36,
		  "name": "C2",
		  "ticks": 13800,
		  "time": 15.26547375,
		  "velocity": 0.7480314960629921
		},
		{
		  "duration": 0.06637162500000038,
		  "durationTicks": 60,
		  "midi": 45,
		  "name": "A2",
		  "ticks": 13860,
		  "time": 15.331845375,
		  "velocity": 0.7480314960629921
		},
		{
		  "duration": 0.06637162500000038,
		  "durationTicks": 60,
		  "midi": 36,
		  "name": "C2",
		  "ticks": 13860,
		  "time": 15.331845375,
		  "velocity": 0.7480314960629921
		},
		{
		  "duration": 0.13274325000000076,
		  "durationTicks": 120,
		  "midi": 47,
		  "name": "B2",
		  "ticks": 13920,
		  "time": 15.398217,
		  "velocity": 0.7480314960629921
		},
		{
		  "duration": 0.13274325000000076,
		  "durationTicks": 120,
		  "midi": 36,
		  "name": "C2",
		  "ticks": 13920,
		  "time": 15.398217,
		  "velocity": 0.7480314960629921
		},
		{
		  "duration": 0.13274324999999898,
		  "durationTicks": 120,
		  "midi": 45,
		  "name": "A2",
		  "ticks": 14040,
		  "time": 15.530960250000001,
		  "velocity": 0.7480314960629921
		},
		{
		  "duration": 0.13274324999999898,
		  "durationTicks": 120,
		  "midi": 36,
		  "name": "C2",
		  "ticks": 14040,
		  "time": 15.530960250000001,
		  "velocity": 0.7480314960629921
		},
		{
		  "duration": 0.13274325000000076,
		  "durationTicks": 120,
		  "midi": 43,
		  "name": "G2",
		  "ticks": 14160,
		  "time": 15.6637035,
		  "velocity": 0.7480314960629921
		},
		{
		  "duration": 0.13274325000000076,
		  "durationTicks": 120,
		  "midi": 36,
		  "name": "C2",
		  "ticks": 14160,
		  "time": 15.6637035,
		  "velocity": 0.7480314960629921
		},
		{
		  "duration": 0.13274324999999898,
		  "durationTicks": 120,
		  "midi": 41,
		  "name": "F2",
		  "ticks": 14280,
		  "time": 15.796446750000001,
		  "velocity": 0.7480314960629921
		},
		{
		  "duration": 0.13274324999999898,
		  "durationTicks": 120,
		  "midi": 36,
		  "name": "C2",
		  "ticks": 14280,
		  "time": 15.796446750000001,
		  "velocity": 0.7480314960629921
		},
		{
		  "duration": 1.0619460000000007,
		  "durationTicks": 960,
		  "midi": 52,
		  "name": "E3",
		  "ticks": 14400,
		  "time": 15.92919,
		  "velocity": 0.7480314960629921
		},
		{
		  "duration": 1.0619460000000007,
		  "durationTicks": 960,
		  "midi": 38,
		  "name": "D2",
		  "ticks": 14400,
		  "time": 15.92919,
		  "velocity": 0.7480314960629921
		},
		{
		  "duration": 0.13274325000000076,
		  "durationTicks": 120,
		  "midi": 49,
		  "name": "C#3",
		  "ticks": 15360,
		  "time": 16.991136,
		  "velocity": 0.7480314960629921
		},
		{
		  "duration": 0.13274325000000076,
		  "durationTicks": 120,
		  "midi": 36,
		  "name": "C2",
		  "ticks": 15360,
		  "time": 16.991136,
		  "velocity": 0.7480314960629921
		},
		{
		  "duration": 0.13274325000000076,
		  "durationTicks": 120,
		  "midi": 36,
		  "name": "C2",
		  "ticks": 15480,
		  "time": 17.12387925,
		  "velocity": 0.7480314960629921
		},
		{
		  "duration": 0.13274325000000076,
		  "durationTicks": 120,
		  "midi": 36,
		  "name": "C2",
		  "ticks": 15720,
		  "time": 17.38936575,
		  "velocity": 0.7480314960629921
		},
		{
		  "duration": 0.13274325000000076,
		  "durationTicks": 120,
		  "midi": 55,
		  "name": "G3",
		  "ticks": 15840,
		  "time": 17.522109,
		  "velocity": 0.7480314960629921
		},
		{
		  "duration": 0.13274325000000076,
		  "durationTicks": 120,
		  "midi": 38,
		  "name": "D2",
		  "ticks": 15840,
		  "time": 17.522109,
		  "velocity": 0.7480314960629921
		},
		{
		  "duration": 0.13274325000000076,
		  "durationTicks": 120,
		  "midi": 36,
		  "name": "C2",
		  "ticks": 16080,
		  "time": 17.787595500000002,
		  "velocity": 0.7480314960629921
		},
		{
		  "duration": 0.13274325000000076,
		  "durationTicks": 120,
		  "midi": 55,
		  "name": "G3",
		  "ticks": 16320,
		  "time": 18.053082,
		  "velocity": 0.7480314960629921
		},
		{
		  "duration": 0.13274325000000076,
		  "durationTicks": 120,
		  "midi": 36,
		  "name": "C2",
		  "ticks": 16320,
		  "time": 18.053082,
		  "velocity": 0.7480314960629921
		},
		{
		  "duration": 0.13274325000000076,
		  "durationTicks": 120,
		  "midi": 36,
		  "name": "C2",
		  "ticks": 16440,
		  "time": 18.18582525,
		  "velocity": 0.7480314960629921
		},
		{
		  "duration": 0.1327432499999972,
		  "durationTicks": 120,
		  "midi": 36,
		  "name": "C2",
		  "ticks": 16680,
		  "time": 18.451311750000002,
		  "velocity": 0.7480314960629921
		},
		{
		  "duration": 0.13274325000000076,
		  "durationTicks": 120,
		  "midi": 55,
		  "name": "G3",
		  "ticks": 16800,
		  "time": 18.584055,
		  "velocity": 0.7480314960629921
		},
		{
		  "duration": 0.13274325000000076,
		  "durationTicks": 120,
		  "midi": 38,
		  "name": "D2",
		  "ticks": 16800,
		  "time": 18.584055,
		  "velocity": 0.7480314960629921
		},
		{
		  "duration": 0.13274325000000076,
		  "durationTicks": 120,
		  "midi": 36,
		  "name": "C2",
		  "ticks": 16920,
		  "time": 18.71679825,
		  "velocity": 0.7480314960629921
		},
		{
		  "duration": 0.13274325000000076,
		  "durationTicks": 120,
		  "midi": 36,
		  "name": "C2",
		  "ticks": 17040,
		  "time": 18.8495415,
		  "velocity": 0.7480314960629921
		},
		{
		  "duration": 0.13274325000000076,
		  "durationTicks": 120,
		  "midi": 36,
		  "name": "C2",
		  "ticks": 17160,
		  "time": 18.98228475,
		  "velocity": 0.7480314960629921
		},
		{
		  "duration": 0.1327432499999972,
		  "durationTicks": 120,
		  "midi": 55,
		  "name": "G3",
		  "ticks": 17280,
		  "time": 19.115028000000002,
		  "velocity": 0.7480314960629921
		},
		{
		  "duration": 0.1327432499999972,
		  "durationTicks": 120,
		  "midi": 36,
		  "name": "C2",
		  "ticks": 17280,
		  "time": 19.115028000000002,
		  "velocity": 0.7480314960629921
		},
		{
		  "duration": 0.13274325000000076,
		  "durationTicks": 120,
		  "midi": 36,
		  "name": "C2",
		  "ticks": 17400,
		  "time": 19.24777125,
		  "velocity": 0.7480314960629921
		},
		{
		  "duration": 0.13274325000000076,
		  "durationTicks": 120,
		  "midi": 36,
		  "name": "C2",
		  "ticks": 17640,
		  "time": 19.51325775,
		  "velocity": 0.7480314960629921
		},
		{
		  "duration": 0.13274325000000076,
		  "durationTicks": 120,
		  "midi": 55,
		  "name": "G3",
		  "ticks": 17760,
		  "time": 19.646001000000002,
		  "velocity": 0.7480314960629921
		},
		{
		  "duration": 0.13274325000000076,
		  "durationTicks": 120,
		  "midi": 38,
		  "name": "D2",
		  "ticks": 17760,
		  "time": 19.646001000000002,
		  "velocity": 0.7480314960629921
		},
		{
		  "duration": 0.13274325000000076,
		  "durationTicks": 120,
		  "midi": 36,
		  "name": "C2",
		  "ticks": 18000,
		  "time": 19.9114875,
		  "velocity": 0.7480314960629921
		},
		{
		  "duration": 0.13274325000000076,
		  "durationTicks": 120,
		  "midi": 55,
		  "name": "G3",
		  "ticks": 18240,
		  "time": 20.176974,
		  "velocity": 0.7480314960629921
		},
		{
		  "duration": 0.13274325000000076,
		  "durationTicks": 120,
		  "midi": 36,
		  "name": "C2",
		  "ticks": 18240,
		  "time": 20.176974,
		  "velocity": 0.7480314960629921
		},
		{
		  "duration": 0.13274325000000076,
		  "durationTicks": 120,
		  "midi": 36,
		  "name": "C2",
		  "ticks": 18360,
		  "time": 20.309717250000002,
		  "velocity": 0.7480314960629921
		},
		{
		  "duration": 0.1327432499999972,
		  "durationTicks": 120,
		  "midi": 59,
		  "name": "B3",
		  "ticks": 18480,
		  "time": 20.442460500000003,
		  "velocity": 0.7480314960629921
		},
		{
		  "duration": 0.1327432499999972,
		  "durationTicks": 120,
		  "midi": 38,
		  "name": "D2",
		  "ticks": 18480,
		  "time": 20.442460500000003,
		  "velocity": 0.7480314960629921
		},
		{
		  "duration": 0.13274325000000076,
		  "durationTicks": 120,
		  "midi": 55,
		  "name": "G3",
		  "ticks": 18720,
		  "time": 20.707947,
		  "velocity": 0.7480314960629921
		},
		{
		  "duration": 0.13274325000000076,
		  "durationTicks": 120,
		  "midi": 38,
		  "name": "D2",
		  "ticks": 18720,
		  "time": 20.707947,
		  "velocity": 0.7480314960629921
		},
		{
		  "duration": 0.13274325000000076,
		  "durationTicks": 120,
		  "midi": 36,
		  "name": "C2",
		  "ticks": 18840,
		  "time": 20.84069025,
		  "velocity": 0.7480314960629921
		},
		{
		  "duration": 0.1327432499999972,
		  "durationTicks": 120,
		  "midi": 36,
		  "name": "C2",
		  "ticks": 18960,
		  "time": 20.973433500000002,
		  "velocity": 0.7480314960629921
		},
		{
		  "duration": 0.13274325000000076,
		  "durationTicks": 120,
		  "midi": 38,
		  "name": "D2",
		  "ticks": 19080,
		  "time": 21.10617675,
		  "velocity": 0.7480314960629921
		},
		{
		  "duration": 0.13274325000000076,
		  "durationTicks": 120,
		  "midi": 57,
		  "name": "A3",
		  "ticks": 19200,
		  "time": 21.23892,
		  "velocity": 0.7480314960629921
		},
		{
		  "duration": 0.13274325000000076,
		  "durationTicks": 120,
		  "midi": 36,
		  "name": "C2",
		  "ticks": 19200,
		  "time": 21.23892,
		  "velocity": 0.7480314960629921
		},
		{
		  "duration": 0.13274325000000076,
		  "durationTicks": 120,
		  "midi": 36,
		  "name": "C2",
		  "ticks": 19320,
		  "time": 21.37166325,
		  "velocity": 0.7480314960629921
		},
		{
		  "duration": 0.1327432499999972,
		  "durationTicks": 120,
		  "midi": 36,
		  "name": "C2",
		  "ticks": 19560,
		  "time": 21.637149750000003,
		  "velocity": 0.7480314960629921
		},
		{
		  "duration": 0.13274325000000076,
		  "durationTicks": 120,
		  "midi": 55,
		  "name": "G3",
		  "ticks": 19680,
		  "time": 21.769893,
		  "velocity": 0.7480314960629921
		},
		{
		  "duration": 0.13274325000000076,
		  "durationTicks": 120,
		  "midi": 38,
		  "name": "D2",
		  "ticks": 19680,
		  "time": 21.769893,
		  "velocity": 0.7480314960629921
		},
		{
		  "duration": 0.13274325000000076,
		  "durationTicks": 120,
		  "midi": 36,
		  "name": "C2",
		  "ticks": 19920,
		  "time": 22.0353795,
		  "velocity": 0.7480314960629921
		},
		{
		  "duration": 0.1327432499999972,
		  "durationTicks": 120,
		  "midi": 55,
		  "name": "G3",
		  "ticks": 20160,
		  "time": 22.300866000000003,
		  "velocity": 0.7480314960629921
		},
		{
		  "duration": 0.1327432499999972,
		  "durationTicks": 120,
		  "midi": 36,
		  "name": "C2",
		  "ticks": 20160,
		  "time": 22.300866000000003,
		  "velocity": 0.7480314960629921
		},
		{
		  "duration": 0.13274325000000076,
		  "durationTicks": 120,
		  "midi": 36,
		  "name": "C2",
		  "ticks": 20280,
		  "time": 22.43360925,
		  "velocity": 0.7480314960629921
		},
		{
		  "duration": 0.13274325000000076,
		  "durationTicks": 120,
		  "midi": 36,
		  "name": "C2",
		  "ticks": 20520,
		  "time": 22.69909575,
		  "velocity": 0.7480314960629921
		},
		{
		  "duration": 0.13274325000000076,
		  "durationTicks": 120,
		  "midi": 55,
		  "name": "G3",
		  "ticks": 20640,
		  "time": 22.831839000000002,
		  "velocity": 0.7480314960629921
		},
		{
		  "duration": 0.13274325000000076,
		  "durationTicks": 120,
		  "midi": 38,
		  "name": "D2",
		  "ticks": 20640,
		  "time": 22.831839000000002,
		  "velocity": 0.7480314960629921
		},
		{
		  "duration": 0.1327432499999972,
		  "durationTicks": 120,
		  "midi": 36,
		  "name": "C2",
		  "ticks": 20760,
		  "time": 22.964582250000003,
		  "velocity": 0.7480314960629921
		},
		{
		  "duration": 0.13274325000000076,
		  "durationTicks": 120,
		  "midi": 36,
		  "name": "C2",
		  "ticks": 20880,
		  "time": 23.0973255,
		  "velocity": 0.7480314960629921
		},
		{
		  "duration": 0.13274325000000076,
		  "durationTicks": 120,
		  "midi": 36,
		  "name": "C2",
		  "ticks": 21000,
		  "time": 23.23006875,
		  "velocity": 0.7480314960629921
		},
		{
		  "duration": 1.061945999999999,
		  "durationTicks": 960,
		  "midi": 57,
		  "name": "A3",
		  "ticks": 21120,
		  "time": 23.362812,
		  "velocity": 0.7480314960629921
		},
		{
		  "duration": 1.061945999999999,
		  "durationTicks": 960,
		  "midi": 38,
		  "name": "D2",
		  "ticks": 21120,
		  "time": 23.362812,
		  "velocity": 0.7480314960629921
		},
		{
		  "duration": 0.13274325000000076,
		  "durationTicks": 120,
		  "midi": 57,
		  "name": "A3",
		  "ticks": 22080,
		  "time": 24.424758,
		  "velocity": 0.7480314960629921
		},
		{
		  "duration": 0.13274325000000076,
		  "durationTicks": 120,
		  "midi": 38,
		  "name": "D2",
		  "ticks": 22080,
		  "time": 24.424758,
		  "velocity": 0.7480314960629921
		},
		{
		  "duration": 0.13274325000000076,
		  "durationTicks": 120,
		  "midi": 36,
		  "name": "C2",
		  "ticks": 22080,
		  "time": 24.424758,
		  "velocity": 0.7480314960629921
		},
		{
		  "duration": 0.0663716249999986,
		  "durationTicks": 60,
		  "midi": 47,
		  "name": "B2",
		  "ticks": 22200,
		  "time": 24.55750125,
		  "velocity": 0.7480314960629921
		},
		{
		  "duration": 0.0663716249999986,
		  "durationTicks": 60,
		  "midi": 36,
		  "name": "C2",
		  "ticks": 22200,
		  "time": 24.55750125,
		  "velocity": 0.7480314960629921
		},
		{
		  "duration": 0.06637162500000215,
		  "durationTicks": 60,
		  "midi": 36,
		  "name": "C2",
		  "ticks": 22260,
		  "time": 24.623872875,
		  "velocity": 0.7480314960629921
		},
		{
		  "duration": 0.0663716249999986,
		  "durationTicks": 60,
		  "midi": 45,
		  "name": "A2",
		  "ticks": 22320,
		  "time": 24.690244500000002,
		  "velocity": 0.7480314960629921
		},
		{
		  "duration": 0.0663716249999986,
		  "durationTicks": 60,
		  "midi": 36,
		  "name": "C2",
		  "ticks": 22320,
		  "time": 24.690244500000002,
		  "velocity": 0.7480314960629921
		},
		{
		  "duration": 0.06637162500000215,
		  "durationTicks": 60,
		  "midi": 36,
		  "name": "C2",
		  "ticks": 22380,
		  "time": 24.756616125,
		  "velocity": 0.7480314960629921
		},
		{
		  "duration": 0.1327432499999972,
		  "durationTicks": 120,
		  "midi": 38,
		  "name": "D2",
		  "ticks": 22440,
		  "time": 24.822987750000003,
		  "velocity": 0.7480314960629921
		},
		{
		  "duration": 0.1327432499999972,
		  "durationTicks": 120,
		  "midi": 36,
		  "name": "C2",
		  "ticks": 22440,
		  "time": 24.822987750000003,
		  "velocity": 0.7480314960629921
		},
		{
		  "duration": 0.13274325000000076,
		  "durationTicks": 120,
		  "midi": 41,
		  "name": "F2",
		  "ticks": 22560,
		  "time": 24.955731,
		  "velocity": 0.7480314960629921
		},
		{
		  "duration": 0.13274325000000076,
		  "durationTicks": 120,
		  "midi": 36,
		  "name": "C2",
		  "ticks": 22560,
		  "time": 24.955731,
		  "velocity": 0.7480314960629921
		},
		{
		  "duration": 0.13274325000000076,
		  "durationTicks": 120,
		  "midi": 36,
		  "name": "C2",
		  "ticks": 22680,
		  "time": 25.08847425,
		  "velocity": 0.7480314960629921
		},
		{
		  "duration": 0.13274325000000076,
		  "durationTicks": 120,
		  "midi": 52,
		  "name": "E3",
		  "ticks": 22800,
		  "time": 25.2212175,
		  "velocity": 0.7480314960629921
		},
		{
		  "duration": 0.13274325000000076,
		  "durationTicks": 120,
		  "midi": 38,
		  "name": "D2",
		  "ticks": 22800,
		  "time": 25.2212175,
		  "velocity": 0.7480314960629921
		},
		{
		  "duration": 0.13274325000000076,
		  "durationTicks": 120,
		  "midi": 38,
		  "name": "D2",
		  "ticks": 22920,
		  "time": 25.353960750000002,
		  "velocity": 0.7480314960629921
		},
		{
		  "duration": 0.1327432499999972,
		  "durationTicks": 120,
		  "midi": 36,
		  "name": "C2",
		  "ticks": 23040,
		  "time": 25.486704000000003,
		  "velocity": 0.7480314960629921
		},
		{
		  "duration": 0.13274325000000076,
		  "durationTicks": 120,
		  "midi": 36,
		  "name": "C2",
		  "ticks": 23160,
		  "time": 25.61944725,
		  "velocity": 0.7480314960629921
		},
		{
		  "duration": 0.13274325000000076,
		  "durationTicks": 120,
		  "midi": 36,
		  "name": "C2",
		  "ticks": 23280,
		  "time": 25.7521905,
		  "velocity": 0.7480314960629921
		},
		{
		  "duration": 0.13274325000000076,
		  "durationTicks": 120,
		  "midi": 36,
		  "name": "C2",
		  "ticks": 23400,
		  "time": 25.884933750000002,
		  "velocity": 0.7480314960629921
		},
		{
		  "duration": 0.1327432499999972,
		  "durationTicks": 120,
		  "midi": 49,
		  "name": "C#3",
		  "ticks": 23520,
		  "time": 26.017677000000003,
		  "velocity": 0.7480314960629921
		},
		{
		  "duration": 0.1327432499999972,
		  "durationTicks": 120,
		  "midi": 38,
		  "name": "D2",
		  "ticks": 23520,
		  "time": 26.017677000000003,
		  "velocity": 0.7480314960629921
		},
		{
		  "duration": 0.13274325000000076,
		  "durationTicks": 120,
		  "midi": 55,
		  "name": "G3",
		  "ticks": 24000,
		  "time": 26.548650000000002,
		  "velocity": 0.7480314960629921
		},
		{
		  "duration": 0.13274325000000076,
		  "durationTicks": 120,
		  "midi": 36,
		  "name": "C2",
		  "ticks": 24240,
		  "time": 26.8141365,
		  "velocity": 0.7480314960629921
		},
		{
		  "duration": 0.13274325000000076,
		  "durationTicks": 120,
		  "midi": 36,
		  "name": "C2",
		  "ticks": 24360,
		  "time": 26.94687975,
		  "velocity": 0.7480314960629921
		},
		{
		  "duration": 0.13274325000000076,
		  "durationTicks": 120,
		  "midi": 55,
		  "name": "G3",
		  "ticks": 24480,
		  "time": 27.079623,
		  "velocity": 0.7480314960629921
		},
		{
		  "duration": 0.13274325000000076,
		  "durationTicks": 120,
		  "midi": 38,
		  "name": "D2",
		  "ticks": 24480,
		  "time": 27.079623,
		  "velocity": 0.7480314960629921
		},
		{
		  "duration": 0.0663716249999986,
		  "durationTicks": 60,
		  "midi": 36,
		  "name": "C2",
		  "ticks": 24780,
		  "time": 27.411481125,
		  "velocity": 0.7480314960629921
		},
		{
		  "duration": 0.06637162500000215,
		  "durationTicks": 60,
		  "midi": 36,
		  "name": "C2",
		  "ticks": 24840,
		  "time": 27.47785275,
		  "velocity": 0.7480314960629921
		},
		{
		  "duration": 0.0663716249999986,
		  "durationTicks": 60,
		  "midi": 36,
		  "name": "C2",
		  "ticks": 24900,
		  "time": 27.544224375000002,
		  "velocity": 0.7480314960629921
		},
		{
		  "duration": 0.13274325000000076,
		  "durationTicks": 120,
		  "midi": 55,
		  "name": "G3",
		  "ticks": 24960,
		  "time": 27.610596,
		  "velocity": 0.7480314960629921
		},
		{
		  "duration": 0.13274325000000076,
		  "durationTicks": 120,
		  "midi": 36,
		  "name": "C2",
		  "ticks": 24960,
		  "time": 27.610596,
		  "velocity": 0.7480314960629921
		},
		{
		  "duration": 0.13274325000000076,
		  "durationTicks": 120,
		  "midi": 36,
		  "name": "C2",
		  "ticks": 25080,
		  "time": 27.743339250000002,
		  "velocity": 0.7480314960629921
		},
		{
		  "duration": 0.1327432499999972,
		  "durationTicks": 120,
		  "midi": 36,
		  "name": "C2",
		  "ticks": 25200,
		  "time": 27.876082500000003,
		  "velocity": 0.7480314960629921
		},
		{
		  "duration": 0.13274325000000076,
		  "durationTicks": 120,
		  "midi": 36,
		  "name": "C2",
		  "ticks": 25320,
		  "time": 28.00882575,
		  "velocity": 0.7480314960629921
		},
		{
		  "duration": 0.13274325000000076,
		  "durationTicks": 120,
		  "midi": 55,
		  "name": "G3",
		  "ticks": 25440,
		  "time": 28.141569,
		  "velocity": 0.7480314960629921
		},
		{
		  "duration": 0.13274325000000076,
		  "durationTicks": 120,
		  "midi": 38,
		  "name": "D2",
		  "ticks": 25440,
		  "time": 28.141569,
		  "velocity": 0.7480314960629921
		},
		{
		  "duration": 0.13274325000000076,
		  "durationTicks": 120,
		  "midi": 36,
		  "name": "C2",
		  "ticks": 25560,
		  "time": 28.27431225,
		  "velocity": 0.7480314960629921
		},
		{
		  "duration": 0.13274325000000076,
		  "durationTicks": 120,
		  "midi": 36,
		  "name": "C2",
		  "ticks": 25680,
		  "time": 28.407055500000002,
		  "velocity": 0.7480314960629921
		},
		{
		  "duration": 0.1327432499999972,
		  "durationTicks": 120,
		  "midi": 36,
		  "name": "C2",
		  "ticks": 25800,
		  "time": 28.539798750000003,
		  "velocity": 0.7480314960629921
		},
		{
		  "duration": 0.13274325000000076,
		  "durationTicks": 120,
		  "midi": 55,
		  "name": "G3",
		  "ticks": 25920,
		  "time": 28.672542,
		  "velocity": 0.7480314960629921
		},
		{
		  "duration": 0.13274325000000076,
		  "durationTicks": 120,
		  "midi": 36,
		  "name": "C2",
		  "ticks": 25920,
		  "time": 28.672542,
		  "velocity": 0.7480314960629921
		},
		{
		  "duration": 0.13274325000000076,
		  "durationTicks": 120,
		  "midi": 36,
		  "name": "C2",
		  "ticks": 26040,
		  "time": 28.80528525,
		  "velocity": 0.7480314960629921
		},
		{
		  "duration": 0.13274325000000076,
		  "durationTicks": 120,
		  "midi": 36,
		  "name": "C2",
		  "ticks": 26160,
		  "time": 28.9380285,
		  "velocity": 0.7480314960629921
		},
		{
		  "duration": 0.13274325000000076,
		  "durationTicks": 120,
		  "midi": 36,
		  "name": "C2",
		  "ticks": 26280,
		  "time": 29.070771750000002,
		  "velocity": 0.7480314960629921
		},
		{
		  "duration": 0.1327432499999972,
		  "durationTicks": 120,
		  "midi": 55,
		  "name": "G3",
		  "ticks": 26400,
		  "time": 29.203515000000003,
		  "velocity": 0.7480314960629921
		},
		{
		  "duration": 0.1327432499999972,
		  "durationTicks": 120,
		  "midi": 38,
		  "name": "D2",
		  "ticks": 26400,
		  "time": 29.203515000000003,
		  "velocity": 0.7480314960629921
		},
		{
		  "duration": 0.13274325000000076,
		  "durationTicks": 120,
		  "midi": 36,
		  "name": "C2",
		  "ticks": 26520,
		  "time": 29.33625825,
		  "velocity": 0.7480314960629921
		},
		{
		  "duration": 0.13274325000000076,
		  "durationTicks": 120,
		  "midi": 36,
		  "name": "C2",
		  "ticks": 26640,
		  "time": 29.4690015,
		  "velocity": 0.7480314960629921
		},
		{
		  "duration": 0.13274325000000076,
		  "durationTicks": 120,
		  "midi": 36,
		  "name": "C2",
		  "ticks": 26760,
		  "time": 29.60174475,
		  "velocity": 0.7480314960629921
		},
		{
		  "duration": 0.13274325000000076,
		  "durationTicks": 120,
		  "midi": 55,
		  "name": "G3",
		  "ticks": 26880,
		  "time": 29.734488000000002,
		  "velocity": 0.7480314960629921
		},
		{
		  "duration": 0.13274325000000076,
		  "durationTicks": 120,
		  "midi": 36,
		  "name": "C2",
		  "ticks": 26880,
		  "time": 29.734488000000002,
		  "velocity": 0.7480314960629921
		},
		{
		  "duration": 0.1327432499999972,
		  "durationTicks": 120,
		  "midi": 36,
		  "name": "C2",
		  "ticks": 27000,
		  "time": 29.867231250000003,
		  "velocity": 0.7480314960629921
		},
		{
		  "duration": 0.13274325000000076,
		  "durationTicks": 120,
		  "midi": 36,
		  "name": "C2",
		  "ticks": 27120,
		  "time": 29.9999745,
		  "velocity": 0.7480314960629921
		},
		{
		  "duration": 0.13274325000000076,
		  "durationTicks": 120,
		  "midi": 36,
		  "name": "C2",
		  "ticks": 27240,
		  "time": 30.13271775,
		  "velocity": 0.7480314960629921
		},
		{
		  "duration": 0.13274325000000076,
		  "durationTicks": 120,
		  "midi": 55,
		  "name": "G3",
		  "ticks": 27360,
		  "time": 30.265461000000002,
		  "velocity": 0.7480314960629921
		},
		{
		  "duration": 0.13274325000000076,
		  "durationTicks": 120,
		  "midi": 38,
		  "name": "D2",
		  "ticks": 27360,
		  "time": 30.265461000000002,
		  "velocity": 0.7480314960629921
		},
		{
		  "duration": 0.13274325000000076,
		  "durationTicks": 120,
		  "midi": 55,
		  "name": "G3",
		  "ticks": 27840,
		  "time": 30.796434,
		  "velocity": 0.7480314960629921
		},
		{
		  "duration": 0.1327432499999972,
		  "durationTicks": 120,
		  "midi": 36,
		  "name": "C2",
		  "ticks": 28080,
		  "time": 31.061920500000003,
		  "velocity": 0.7480314960629921
		},
		{
		  "duration": 0.13274325000000076,
		  "durationTicks": 120,
		  "midi": 36,
		  "name": "C2",
		  "ticks": 28200,
		  "time": 31.19466375,
		  "velocity": 0.7480314960629921
		},
		{
		  "duration": 0.13274325000000076,
		  "durationTicks": 120,
		  "midi": 55,
		  "name": "G3",
		  "ticks": 28320,
		  "time": 31.327407,
		  "velocity": 0.7480314960629921
		},
		{
		  "duration": 0.13274325000000076,
		  "durationTicks": 120,
		  "midi": 38,
		  "name": "D2",
		  "ticks": 28320,
		  "time": 31.327407,
		  "velocity": 0.7480314960629921
		},
		{
		  "duration": 0.13274325000000076,
		  "durationTicks": 120,
		  "midi": 36,
		  "name": "C2",
		  "ticks": 28440,
		  "time": 31.46015025,
		  "velocity": 0.7480314960629921
		},
		{
		  "duration": 0.13274325000000076,
		  "durationTicks": 120,
		  "midi": 36,
		  "name": "C2",
		  "ticks": 28560,
		  "time": 31.592893500000002,
		  "velocity": 0.7480314960629921
		},
		{
		  "duration": 0.1327432499999972,
		  "durationTicks": 120,
		  "midi": 36,
		  "name": "C2",
		  "ticks": 28680,
		  "time": 31.725636750000003,
		  "velocity": 0.7480314960629921
		},
		{
		  "duration": 0.13274325000000076,
		  "durationTicks": 120,
		  "midi": 55,
		  "name": "G3",
		  "ticks": 28800,
		  "time": 31.85838,
		  "velocity": 0.7480314960629921
		},
		{
		  "duration": 0.13274325000000076,
		  "durationTicks": 120,
		  "midi": 36,
		  "name": "C2",
		  "ticks": 28800,
		  "time": 31.85838,
		  "velocity": 0.7480314960629921
		},
		{
		  "duration": 0.1327432499999972,
		  "durationTicks": 120,
		  "midi": 36,
		  "name": "C2",
		  "ticks": 28920,
		  "time": 31.99112325,
		  "velocity": 0.7480314960629921
		},
		{
		  "duration": 0.1327432500000043,
		  "durationTicks": 120,
		  "midi": 36,
		  "name": "C2",
		  "ticks": 29040,
		  "time": 32.1238665,
		  "velocity": 0.7480314960629921
		},
		{
		  "duration": 0.1327432499999972,
		  "durationTicks": 120,
		  "midi": 36,
		  "name": "C2",
		  "ticks": 29160,
		  "time": 32.25660975,
		  "velocity": 0.7480314960629921
		},
		{
		  "duration": 0.1327432500000043,
		  "durationTicks": 120,
		  "midi": 38,
		  "name": "D2",
		  "ticks": 29280,
		  "time": 32.389353,
		  "velocity": 0.7480314960629921
		},
		{
		  "duration": 0.1327432499999972,
		  "durationTicks": 120,
		  "midi": 49,
		  "name": "C#3",
		  "ticks": 29760,
		  "time": 32.920326,
		  "velocity": 0.7480314960629921
		},
		{
		  "duration": 0.1327432499999972,
		  "durationTicks": 120,
		  "midi": 38,
		  "name": "D2",
		  "ticks": 29760,
		  "time": 32.920326,
		  "velocity": 0.7480314960629921
		},
		{
		  "duration": 0.06637162500000215,
		  "durationTicks": 60,
		  "midi": 48,
		  "name": "C3",
		  "ticks": 29880,
		  "time": 33.05306925,
		  "velocity": 0.7480314960629921
		},
		{
		  "duration": 0.06637162500000215,
		  "durationTicks": 60,
		  "midi": 45,
		  "name": "A2",
		  "ticks": 29880,
		  "time": 33.05306925,
		  "velocity": 0.7480314960629921
		},
		{
		  "duration": 0.06637162500000215,
		  "durationTicks": 60,
		  "midi": 36,
		  "name": "C2",
		  "ticks": 29880,
		  "time": 33.05306925,
		  "velocity": 0.7480314960629921
		},
		{
		  "duration": 0.06637162500000215,
		  "durationTicks": 60,
		  "midi": 36,
		  "name": "C2",
		  "ticks": 29940,
		  "time": 33.119440875,
		  "velocity": 0.7480314960629921
		},
		{
		  "duration": 0.06637162499999505,
		  "durationTicks": 60,
		  "midi": 43,
		  "name": "G2",
		  "ticks": 30000,
		  "time": 33.185812500000004,
		  "velocity": 0.7480314960629921
		},
		{
		  "duration": 0.06637162499999505,
		  "durationTicks": 60,
		  "midi": 41,
		  "name": "F2",
		  "ticks": 30000,
		  "time": 33.185812500000004,
		  "velocity": 0.7480314960629921
		},
		{
		  "duration": 0.06637162499999505,
		  "durationTicks": 60,
		  "midi": 36,
		  "name": "C2",
		  "ticks": 30000,
		  "time": 33.185812500000004,
		  "velocity": 0.7480314960629921
		},
		{
		  "duration": 0.06637162500000215,
		  "durationTicks": 60,
		  "midi": 36,
		  "name": "C2",
		  "ticks": 30060,
		  "time": 33.252184125,
		  "velocity": 0.7480314960629921
		},
		{
		  "duration": 0.1327432499999972,
		  "durationTicks": 120,
		  "midi": 57,
		  "name": "A3",
		  "ticks": 30120,
		  "time": 33.31855575,
		  "velocity": 0.7480314960629921
		},
		{
		  "duration": 0.1327432499999972,
		  "durationTicks": 120,
		  "midi": 38,
		  "name": "D2",
		  "ticks": 30120,
		  "time": 33.31855575,
		  "velocity": 0.7480314960629921
		},
		{
		  "duration": 0.1327432500000043,
		  "durationTicks": 120,
		  "midi": 41,
		  "name": "F2",
		  "ticks": 30240,
		  "time": 33.451299,
		  "velocity": 0.7480314960629921
		},
		{
		  "duration": 0.1327432500000043,
		  "durationTicks": 120,
		  "midi": 36,
		  "name": "C2",
		  "ticks": 30240,
		  "time": 33.451299,
		  "velocity": 0.7480314960629921
		},
		{
		  "duration": 0.1327432499999972,
		  "durationTicks": 120,
		  "midi": 36,
		  "name": "C2",
		  "ticks": 30360,
		  "time": 33.58404225,
		  "velocity": 0.7480314960629921
		},
		{
		  "duration": 0.1327432500000043,
		  "durationTicks": 120,
		  "midi": 52,
		  "name": "E3",
		  "ticks": 30480,
		  "time": 33.7167855,
		  "velocity": 0.7480314960629921
		},
		{
		  "duration": 0.1327432500000043,
		  "durationTicks": 120,
		  "midi": 38,
		  "name": "D2",
		  "ticks": 30480,
		  "time": 33.7167855,
		  "velocity": 0.7480314960629921
		},
		{
		  "duration": 0.1327432499999972,
		  "durationTicks": 120,
		  "midi": 38,
		  "name": "D2",
		  "ticks": 30600,
		  "time": 33.849528750000005,
		  "velocity": 0.7480314960629921
		},
		{
		  "duration": 0.1327432499999972,
		  "durationTicks": 120,
		  "midi": 36,
		  "name": "C2",
		  "ticks": 30720,
		  "time": 33.982272,
		  "velocity": 0.7480314960629921
		},
		{
		  "duration": 0.1327432500000043,
		  "durationTicks": 120,
		  "midi": 36,
		  "name": "C2",
		  "ticks": 30840,
		  "time": 34.11501525,
		  "velocity": 0.7480314960629921
		},
		{
		  "duration": 0.1327432499999972,
		  "durationTicks": 120,
		  "midi": 36,
		  "name": "C2",
		  "ticks": 30960,
		  "time": 34.2477585,
		  "velocity": 0.7480314960629921
		},
		{
		  "duration": 0.1327432500000043,
		  "durationTicks": 120,
		  "midi": 36,
		  "name": "C2",
		  "ticks": 31080,
		  "time": 34.38050175,
		  "velocity": 0.7480314960629921
		},
		{
		  "duration": 0.1327432499999972,
		  "durationTicks": 120,
		  "midi": 49,
		  "name": "C#3",
		  "ticks": 31200,
		  "time": 34.513245000000005,
		  "velocity": 0.7480314960629921
		},
		{
		  "duration": 0.1327432499999972,
		  "durationTicks": 120,
		  "midi": 38,
		  "name": "D2",
		  "ticks": 31200,
		  "time": 34.513245000000005,
		  "velocity": 0.7480314960629921
		},
		{
		  "duration": 0.1327432499999972,
		  "durationTicks": 120,
		  "midi": 36,
		  "name": "C2",
		  "ticks": 31320,
		  "time": 34.64598825,
		  "velocity": 0.7480314960629921
		},
		{
		  "duration": 0.1327432500000043,
		  "durationTicks": 120,
		  "midi": 36,
		  "name": "C2",
		  "ticks": 31440,
		  "time": 34.7787315,
		  "velocity": 0.7480314960629921
		},
		{
		  "duration": 0.1327432499999972,
		  "durationTicks": 120,
		  "midi": 36,
		  "name": "C2",
		  "ticks": 31560,
		  "time": 34.911474750000004,
		  "velocity": 0.7480314960629921
		},
		{
		  "duration": 0.1327432500000043,
		  "durationTicks": 120,
		  "midi": 57,
		  "name": "A3",
		  "ticks": 31680,
		  "time": 35.044218,
		  "velocity": 0.7480314960629921
		},
		{
		  "duration": 0.1327432500000043,
		  "durationTicks": 120,
		  "midi": 38,
		  "name": "D2",
		  "ticks": 31680,
		  "time": 35.044218,
		  "velocity": 0.7480314960629921
		},
		{
		  "duration": 0.1327432499999972,
		  "durationTicks": 120,
		  "midi": 36,
		  "name": "C2",
		  "ticks": 31920,
		  "time": 35.3097045,
		  "velocity": 0.7480314960629921
		},
		{
		  "duration": 0.1327432500000043,
		  "durationTicks": 120,
		  "midi": 52,
		  "name": "E3",
		  "ticks": 32040,
		  "time": 35.44244775,
		  "velocity": 0.7480314960629921
		},
		{
		  "duration": 0.1327432500000043,
		  "durationTicks": 120,
		  "midi": 38,
		  "name": "D2",
		  "ticks": 32040,
		  "time": 35.44244775,
		  "velocity": 0.7480314960629921
		},
		{
		  "duration": 0.1327432500000043,
		  "durationTicks": 120,
		  "midi": 36,
		  "name": "C2",
		  "ticks": 32280,
		  "time": 35.70793425,
		  "velocity": 0.7480314960629921
		},
		{
		  "duration": 0.1327432499999972,
		  "durationTicks": 120,
		  "midi": 52,
		  "name": "E3",
		  "ticks": 32400,
		  "time": 35.840677500000005,
		  "velocity": 0.7480314960629921
		},
		{
		  "duration": 0.1327432499999972,
		  "durationTicks": 120,
		  "midi": 38,
		  "name": "D2",
		  "ticks": 32400,
		  "time": 35.840677500000005,
		  "velocity": 0.7480314960629921
		},
		{
		  "duration": 0.1327432499999972,
		  "durationTicks": 120,
		  "midi": 38,
		  "name": "D2",
		  "ticks": 32520,
		  "time": 35.97342075,
		  "velocity": 0.7480314960629921
		},
		{
		  "duration": 0.1327432500000043,
		  "durationTicks": 120,
		  "midi": 55,
		  "name": "G3",
		  "ticks": 32640,
		  "time": 36.106164,
		  "velocity": 0.7480314960629921
		},
		{
		  "duration": 0.1327432500000043,
		  "durationTicks": 120,
		  "midi": 36,
		  "name": "C2",
		  "ticks": 32640,
		  "time": 36.106164,
		  "velocity": 0.7480314960629921
		},
		{
		  "duration": 0.1327432499999972,
		  "durationTicks": 120,
		  "midi": 36,
		  "name": "C2",
		  "ticks": 32760,
		  "time": 36.238907250000004,
		  "velocity": 0.7480314960629921
		},
		{
		  "duration": 0.1327432499999972,
		  "durationTicks": 120,
		  "midi": 36,
		  "name": "C2",
		  "ticks": 32880,
		  "time": 36.3716505,
		  "velocity": 0.7480314960629921
		},
		{
		  "duration": 0.1327432500000043,
		  "durationTicks": 120,
		  "midi": 36,
		  "name": "C2",
		  "ticks": 33000,
		  "time": 36.50439375,
		  "velocity": 0.7480314960629921
		},
		{
		  "duration": 0.1327432499999972,
		  "durationTicks": 120,
		  "midi": 55,
		  "name": "G3",
		  "ticks": 33120,
		  "time": 36.637137,
		  "velocity": 0.7480314960629921
		},
		{
		  "duration": 0.1327432499999972,
		  "durationTicks": 120,
		  "midi": 38,
		  "name": "D2",
		  "ticks": 33120,
		  "time": 36.637137,
		  "velocity": 0.7480314960629921
		},
		{
		  "duration": 0.1327432500000043,
		  "durationTicks": 120,
		  "midi": 36,
		  "name": "C2",
		  "ticks": 33240,
		  "time": 36.76988025,
		  "velocity": 0.7480314960629921
		},
		{
		  "duration": 0.1327432499999972,
		  "durationTicks": 120,
		  "midi": 36,
		  "name": "C2",
		  "ticks": 33360,
		  "time": 36.902623500000004,
		  "velocity": 0.7480314960629921
		},
		{
		  "duration": 0.1327432499999972,
		  "durationTicks": 120,
		  "midi": 36,
		  "name": "C2",
		  "ticks": 33480,
		  "time": 37.03536675,
		  "velocity": 0.7480314960629921
		},
		{
		  "duration": 0.1327432500000043,
		  "durationTicks": 120,
		  "midi": 55,
		  "name": "G3",
		  "ticks": 33600,
		  "time": 37.16811,
		  "velocity": 0.7480314960629921
		},
		{
		  "duration": 0.1327432500000043,
		  "durationTicks": 120,
		  "midi": 36,
		  "name": "C2",
		  "ticks": 33600,
		  "time": 37.16811,
		  "velocity": 0.7480314960629921
		},
		{
		  "duration": 0.1327432499999972,
		  "durationTicks": 120,
		  "midi": 36,
		  "name": "C2",
		  "ticks": 33720,
		  "time": 37.30085325,
		  "velocity": 0.7480314960629921
		},
		{
		  "duration": 0.1327432500000043,
		  "durationTicks": 120,
		  "midi": 36,
		  "name": "C2",
		  "ticks": 33840,
		  "time": 37.4335965,
		  "velocity": 0.7480314960629921
		},
		{
		  "duration": 0.1327432499999972,
		  "durationTicks": 120,
		  "midi": 36,
		  "name": "C2",
		  "ticks": 33960,
		  "time": 37.566339750000004,
		  "velocity": 0.7480314960629921
		},
		{
		  "duration": 0.1327432499999972,
		  "durationTicks": 120,
		  "midi": 55,
		  "name": "G3",
		  "ticks": 34080,
		  "time": 37.699083,
		  "velocity": 0.7480314960629921
		},
		{
		  "duration": 0.1327432499999972,
		  "durationTicks": 120,
		  "midi": 38,
		  "name": "D2",
		  "ticks": 34080,
		  "time": 37.699083,
		  "velocity": 0.7480314960629921
		},
		{
		  "duration": 0.1327432500000043,
		  "durationTicks": 120,
		  "midi": 36,
		  "name": "C2",
		  "ticks": 34200,
		  "time": 37.83182625,
		  "velocity": 0.7480314960629921
		},
		{
		  "duration": 0.1327432499999972,
		  "durationTicks": 120,
		  "midi": 36,
		  "name": "C2",
		  "ticks": 34320,
		  "time": 37.9645695,
		  "velocity": 0.7480314960629921
		},
		{
		  "duration": 0.1327432500000043,
		  "durationTicks": 120,
		  "midi": 36,
		  "name": "C2",
		  "ticks": 34440,
		  "time": 38.09731275,
		  "velocity": 0.7480314960629921
		},
		{
		  "duration": 0.1327432499999972,
		  "durationTicks": 120,
		  "midi": 55,
		  "name": "G3",
		  "ticks": 34560,
		  "time": 38.230056000000005,
		  "velocity": 0.7480314960629921
		},
		{
		  "duration": 0.1327432499999972,
		  "durationTicks": 120,
		  "midi": 36,
		  "name": "C2",
		  "ticks": 34560,
		  "time": 38.230056000000005,
		  "velocity": 0.7480314960629921
		},
		{
		  "duration": 0.1327432499999972,
		  "durationTicks": 120,
		  "midi": 36,
		  "name": "C2",
		  "ticks": 34680,
		  "time": 38.36279925,
		  "velocity": 0.7480314960629921
		},
		{
		  "duration": 0.1327432500000043,
		  "durationTicks": 120,
		  "midi": 36,
		  "name": "C2",
		  "ticks": 34800,
		  "time": 38.4955425,
		  "velocity": 0.7480314960629921
		},
		{
		  "duration": 0.1327432499999972,
		  "durationTicks": 120,
		  "midi": 36,
		  "name": "C2",
		  "ticks": 34920,
		  "time": 38.62828575,
		  "velocity": 0.7480314960629921
		},
		{
		  "duration": 0.1327432500000043,
		  "durationTicks": 120,
		  "midi": 55,
		  "name": "G3",
		  "ticks": 35040,
		  "time": 38.761029,
		  "velocity": 0.7480314960629921
		},
		{
		  "duration": 0.1327432500000043,
		  "durationTicks": 120,
		  "midi": 38,
		  "name": "D2",
		  "ticks": 35040,
		  "time": 38.761029,
		  "velocity": 0.7480314960629921
		},
		{
		  "duration": 0.1327432499999972,
		  "durationTicks": 120,
		  "midi": 55,
		  "name": "G3",
		  "ticks": 35520,
		  "time": 39.292002000000004,
		  "velocity": 0.7480314960629921
		},
		{
		  "duration": 0.1327432499999972,
		  "durationTicks": 120,
		  "midi": 36,
		  "name": "C2",
		  "ticks": 35760,
		  "time": 39.557488500000005,
		  "velocity": 0.7480314960629921
		},
		{
		  "duration": 0.1327432499999972,
		  "durationTicks": 120,
		  "midi": 36,
		  "name": "C2",
		  "ticks": 35880,
		  "time": 39.69023175,
		  "velocity": 0.7480314960629921
		},
		{
		  "duration": 0.1327432500000043,
		  "durationTicks": 120,
		  "midi": 55,
		  "name": "G3",
		  "ticks": 36000,
		  "time": 39.822975,
		  "velocity": 0.7480314960629921
		},
		{
		  "duration": 0.1327432500000043,
		  "durationTicks": 120,
		  "midi": 38,
		  "name": "D2",
		  "ticks": 36000,
		  "time": 39.822975,
		  "velocity": 0.7480314960629921
		},
		{
		  "duration": 0.1327432499999972,
		  "durationTicks": 120,
		  "midi": 36,
		  "name": "C2",
		  "ticks": 36120,
		  "time": 39.955718250000004,
		  "velocity": 0.7480314960629921
		},
		{
		  "duration": 0.1327432500000043,
		  "durationTicks": 120,
		  "midi": 36,
		  "name": "C2",
		  "ticks": 36240,
		  "time": 40.0884615,
		  "velocity": 0.7480314960629921
		},
		{
		  "duration": 0.1327432499999972,
		  "durationTicks": 120,
		  "midi": 36,
		  "name": "C2",
		  "ticks": 36360,
		  "time": 40.221204750000005,
		  "velocity": 0.7480314960629921
		},
		{
		  "duration": 0.1327432499999972,
		  "durationTicks": 120,
		  "midi": 55,
		  "name": "G3",
		  "ticks": 36480,
		  "time": 40.353948,
		  "velocity": 0.7480314960629921
		},
		{
		  "duration": 0.1327432499999972,
		  "durationTicks": 120,
		  "midi": 38,
		  "name": "D2",
		  "ticks": 36480,
		  "time": 40.353948,
		  "velocity": 0.7480314960629921
		},
		{
		  "duration": 0.1327432500000043,
		  "durationTicks": 120,
		  "midi": 36,
		  "name": "C2",
		  "ticks": 36600,
		  "time": 40.48669125,
		  "velocity": 0.7480314960629921
		},
		{
		  "duration": 0.1327432499999972,
		  "durationTicks": 120,
		  "midi": 38,
		  "name": "D2",
		  "ticks": 36720,
		  "time": 40.619434500000004,
		  "velocity": 0.7480314960629921
		},
		{
		  "duration": 0.1327432500000043,
		  "durationTicks": 120,
		  "midi": 36,
		  "name": "C2",
		  "ticks": 36840,
		  "time": 40.75217775,
		  "velocity": 0.7480314960629921
		},
		{
		  "duration": 0.1327432499999972,
		  "durationTicks": 120,
		  "midi": 38,
		  "name": "D2",
		  "ticks": 36960,
		  "time": 40.884921000000006,
		  "velocity": 0.7480314960629921
		},
		{
		  "duration": 0.06637162500000215,
		  "durationTicks": 60,
		  "midi": 36,
		  "name": "C2",
		  "ticks": 37080,
		  "time": 41.01766425,
		  "velocity": 0.7480314960629921
		},
		{
		  "duration": 0.06637162499999505,
		  "durationTicks": 60,
		  "midi": 36,
		  "name": "C2",
		  "ticks": 37140,
		  "time": 41.084035875000005,
		  "velocity": 0.7480314960629921
		},
		{
		  "duration": 0.06637162500000215,
		  "durationTicks": 60,
		  "midi": 36,
		  "name": "C2",
		  "ticks": 37200,
		  "time": 41.1504075,
		  "velocity": 0.7480314960629921
		},
		{
		  "duration": 0.06637162500000215,
		  "durationTicks": 60,
		  "midi": 36,
		  "name": "C2",
		  "ticks": 37260,
		  "time": 41.216779125,
		  "velocity": 0.7480314960629921
		},
		{
		  "duration": 0.06637162499999505,
		  "durationTicks": 60,
		  "midi": 36,
		  "name": "C2",
		  "ticks": 37320,
		  "time": 41.283150750000004,
		  "velocity": 0.7480314960629921
		},
		{
		  "duration": 0.06637162500000215,
		  "durationTicks": 60,
		  "midi": 36,
		  "name": "C2",
		  "ticks": 37380,
		  "time": 41.349522375,
		  "velocity": 0.7480314960629921
		},
		{
		  "duration": 0.530973000000003,
		  "durationTicks": 480,
		  "midi": 52,
		  "name": "E3",
		  "ticks": 37440,
		  "time": 41.415894,
		  "velocity": 0.7480314960629921
		},
		{
		  "duration": 0.530973000000003,
		  "durationTicks": 480,
		  "midi": 38,
		  "name": "D2",
		  "ticks": 37440,
		  "time": 41.415894,
		  "velocity": 0.7480314960629921
		},
		{
		  "duration": 0.530973000000003,
		  "durationTicks": 480,
		  "midi": 36,
		  "name": "C2",
		  "ticks": 37440,
		  "time": 41.415894,
		  "velocity": 0.7480314960629921
		},
		{
		  "duration": 0.5309729999999959,
		  "durationTicks": 480,
		  "midi": 57,
		  "name": "A3",
		  "ticks": 37920,
		  "time": 41.946867000000005,
		  "velocity": 0.7480314960629921
		},
		{
		  "duration": 0.1327432500000043,
		  "durationTicks": 120,
		  "midi": 49,
		  "name": "C#3",
		  "ticks": 38400,
		  "time": 42.47784,
		  "velocity": 0.7480314960629921
		},
		{
		  "duration": 0.1327432500000043,
		  "durationTicks": 120,
		  "midi": 36,
		  "name": "C2",
		  "ticks": 38400,
		  "time": 42.47784,
		  "velocity": 0.7480314960629921
		},
		{
		  "duration": 0.1327432499999972,
		  "durationTicks": 120,
		  "midi": 36,
		  "name": "C2",
		  "ticks": 38640,
		  "time": 42.7433265,
		  "velocity": 0.7480314960629921
		},
		{
		  "duration": 0.1327432500000043,
		  "durationTicks": 120,
		  "midi": 36,
		  "name": "C2",
		  "ticks": 38760,
		  "time": 42.87606975,
		  "velocity": 0.7480314960629921
		},
		{
		  "duration": 0.1327432499999972,
		  "durationTicks": 120,
		  "midi": 55,
		  "name": "G3",
		  "ticks": 38880,
		  "time": 43.008813,
		  "velocity": 0.7480314960629921
		},
		{
		  "duration": 0.1327432499999972,
		  "durationTicks": 120,
		  "midi": 38,
		  "name": "D2",
		  "ticks": 38880,
		  "time": 43.008813,
		  "velocity": 0.7480314960629921
		},
		{
		  "duration": 0.1327432500000043,
		  "durationTicks": 120,
		  "midi": 36,
		  "name": "C2",
		  "ticks": 39000,
		  "time": 43.14155625,
		  "velocity": 0.7480314960629921
		},
		{
		  "duration": 0.1327432499999972,
		  "durationTicks": 120,
		  "midi": 36,
		  "name": "C2",
		  "ticks": 39240,
		  "time": 43.40704275,
		  "velocity": 0.7480314960629921
		},
		{
		  "duration": 0.1327432500000043,
		  "durationTicks": 120,
		  "midi": 55,
		  "name": "G3",
		  "ticks": 39360,
		  "time": 43.539786,
		  "velocity": 0.7480314960629921
		},
		{
		  "duration": 0.1327432499999972,
		  "durationTicks": 120,
		  "midi": 36,
		  "name": "C2",
		  "ticks": 39480,
		  "time": 43.672529250000004,
		  "velocity": 0.7480314960629921
		},
		{
		  "duration": 0.1327432500000043,
		  "durationTicks": 120,
		  "midi": 36,
		  "name": "C2",
		  "ticks": 39600,
		  "time": 43.8052725,
		  "velocity": 0.7480314960629921
		},
		{
		  "duration": 0.1327432499999972,
		  "durationTicks": 120,
		  "midi": 36,
		  "name": "C2",
		  "ticks": 39720,
		  "time": 43.938015750000005,
		  "velocity": 0.7480314960629921
		},
		{
		  "duration": 0.1327432499999972,
		  "durationTicks": 120,
		  "midi": 55,
		  "name": "G3",
		  "ticks": 39840,
		  "time": 44.070759,
		  "velocity": 0.7480314960629921
		},
		{
		  "duration": 0.1327432499999972,
		  "durationTicks": 120,
		  "midi": 38,
		  "name": "D2",
		  "ticks": 39840,
		  "time": 44.070759,
		  "velocity": 0.7480314960629921
		},
		{
		  "duration": 0.1327432500000043,
		  "durationTicks": 120,
		  "midi": 36,
		  "name": "C2",
		  "ticks": 39960,
		  "time": 44.20350225,
		  "velocity": 0.7480314960629921
		},
		{
		  "duration": 0.1327432499999972,
		  "durationTicks": 120,
		  "midi": 36,
		  "name": "C2",
		  "ticks": 40080,
		  "time": 44.336245500000004,
		  "velocity": 0.7480314960629921
		},
		{
		  "duration": 0.1327432500000043,
		  "durationTicks": 120,
		  "midi": 36,
		  "name": "C2",
		  "ticks": 40200,
		  "time": 44.46898875,
		  "velocity": 0.7480314960629921
		},
		{
		  "duration": 0.1327432499999972,
		  "durationTicks": 120,
		  "midi": 55,
		  "name": "G3",
		  "ticks": 40320,
		  "time": 44.601732000000005,
		  "velocity": 0.7480314960629921
		},
		{
		  "duration": 0.1327432499999972,
		  "durationTicks": 120,
		  "midi": 36,
		  "name": "C2",
		  "ticks": 40320,
		  "time": 44.601732000000005,
		  "velocity": 0.7480314960629921
		},
		{
		  "duration": 0.1327432499999972,
		  "durationTicks": 120,
		  "midi": 36,
		  "name": "C2",
		  "ticks": 40680,
		  "time": 44.999961750000004,
		  "velocity": 0.7480314960629921
		},
		{
		  "duration": 0.1327432500000043,
		  "durationTicks": 120,
		  "midi": 55,
		  "name": "G3",
		  "ticks": 40800,
		  "time": 45.132705,
		  "velocity": 0.7480314960629921
		},
		{
		  "duration": 0.1327432500000043,
		  "durationTicks": 120,
		  "midi": 38,
		  "name": "D2",
		  "ticks": 40800,
		  "time": 45.132705,
		  "velocity": 0.7480314960629921
		},
		{
		  "duration": 0.1327432499999972,
		  "durationTicks": 120,
		  "midi": 36,
		  "name": "C2",
		  "ticks": 40920,
		  "time": 45.265448250000006,
		  "velocity": 0.7480314960629921
		},
		{
		  "duration": 0.1327432500000043,
		  "durationTicks": 120,
		  "midi": 36,
		  "name": "C2",
		  "ticks": 41160,
		  "time": 45.53093475,
		  "velocity": 0.7480314960629921
		},
		{
		  "duration": 0.1327432499999972,
		  "durationTicks": 120,
		  "midi": 55,
		  "name": "G3",
		  "ticks": 41280,
		  "time": 45.663678000000004,
		  "velocity": 0.7480314960629921
		},
		{
		  "duration": 0.1327432500000043,
		  "durationTicks": 120,
		  "midi": 36,
		  "name": "C2",
		  "ticks": 41400,
		  "time": 45.79642125,
		  "velocity": 0.7480314960629921
		},
		{
		  "duration": 0.1327432499999972,
		  "durationTicks": 120,
		  "midi": 36,
		  "name": "C2",
		  "ticks": 41520,
		  "time": 45.929164500000006,
		  "velocity": 0.7480314960629921
		},
		{
		  "duration": 0.1327432499999972,
		  "durationTicks": 120,
		  "midi": 36,
		  "name": "C2",
		  "ticks": 41640,
		  "time": 46.06190775,
		  "velocity": 0.7480314960629921
		},
		{
		  "duration": 0.1327432500000043,
		  "durationTicks": 120,
		  "midi": 55,
		  "name": "G3",
		  "ticks": 41760,
		  "time": 46.194651,
		  "velocity": 0.7480314960629921
		},
		{
		  "duration": 0.1327432500000043,
		  "durationTicks": 120,
		  "midi": 38,
		  "name": "D2",
		  "ticks": 41760,
		  "time": 46.194651,
		  "velocity": 0.7480314960629921
		},
		{
		  "duration": 0.1327432499999972,
		  "durationTicks": 120,
		  "midi": 36,
		  "name": "C2",
		  "ticks": 41880,
		  "time": 46.327394250000005,
		  "velocity": 0.7480314960629921
		},
		{
		  "duration": 0.1327432499999972,
		  "durationTicks": 120,
		  "midi": 36,
		  "name": "C2",
		  "ticks": 42000,
		  "time": 46.4601375,
		  "velocity": 0.7480314960629921
		},
		{
		  "duration": 0.1327432500000043,
		  "durationTicks": 120,
		  "midi": 52,
		  "name": "E3",
		  "ticks": 42120,
		  "time": 46.59288075,
		  "velocity": 0.7480314960629921
		},
		{
		  "duration": 0.1327432500000043,
		  "durationTicks": 120,
		  "midi": 38,
		  "name": "D2",
		  "ticks": 42120,
		  "time": 46.59288075,
		  "velocity": 0.7480314960629921
		},
		{
		  "duration": 0.1327432499999972,
		  "durationTicks": 120,
		  "midi": 55,
		  "name": "G3",
		  "ticks": 42240,
		  "time": 46.725624,
		  "velocity": 0.7480314960629921
		},
		{
		  "duration": 0.1327432499999972,
		  "durationTicks": 120,
		  "midi": 36,
		  "name": "C2",
		  "ticks": 42240,
		  "time": 46.725624,
		  "velocity": 0.7480314960629921
		},
		{
		  "duration": 0.1327432499999972,
		  "durationTicks": 120,
		  "midi": 36,
		  "name": "C2",
		  "ticks": 42480,
		  "time": 46.991110500000005,
		  "velocity": 0.7480314960629921
		},
		{
		  "duration": 0.1327432499999972,
		  "durationTicks": 120,
		  "midi": 36,
		  "name": "C2",
		  "ticks": 42600,
		  "time": 47.12385375,
		  "velocity": 0.7480314960629921
		},
		{
		  "duration": 0.1327432500000043,
		  "durationTicks": 120,
		  "midi": 55,
		  "name": "G3",
		  "ticks": 42720,
		  "time": 47.256597,
		  "velocity": 0.7480314960629921
		},
		{
		  "duration": 0.1327432500000043,
		  "durationTicks": 120,
		  "midi": 38,
		  "name": "D2",
		  "ticks": 42720,
		  "time": 47.256597,
		  "velocity": 0.7480314960629921
		},
		{
		  "duration": 0.1327432499999972,
		  "durationTicks": 120,
		  "midi": 36,
		  "name": "C2",
		  "ticks": 42840,
		  "time": 47.389340250000004,
		  "velocity": 0.7480314960629921
		},
		{
		  "duration": 0.1327432499999972,
		  "durationTicks": 120,
		  "midi": 36,
		  "name": "C2",
		  "ticks": 43080,
		  "time": 47.654826750000005,
		  "velocity": 0.7480314960629921
		},
		{
		  "duration": 0.1327432499999972,
		  "durationTicks": 120,
		  "midi": 55,
		  "name": "G3",
		  "ticks": 43200,
		  "time": 47.78757,
		  "velocity": 0.7480314960629921
		},
		{
		  "duration": 0.1327432500000043,
		  "durationTicks": 120,
		  "midi": 36,
		  "name": "C2",
		  "ticks": 43320,
		  "time": 47.92031325,
		  "velocity": 0.7480314960629921
		},
		{
		  "duration": 0.1327432499999972,
		  "durationTicks": 120,
		  "midi": 36,
		  "name": "C2",
		  "ticks": 43440,
		  "time": 48.053056500000004,
		  "velocity": 0.7480314960629921
		},
		{
		  "duration": 0.1327432500000043,
		  "durationTicks": 120,
		  "midi": 36,
		  "name": "C2",
		  "ticks": 43560,
		  "time": 48.18579975,
		  "velocity": 0.7480314960629921
		},
		{
		  "duration": 0.1327432499999972,
		  "durationTicks": 120,
		  "midi": 55,
		  "name": "G3",
		  "ticks": 43680,
		  "time": 48.318543000000005,
		  "velocity": 0.7480314960629921
		},
		{
		  "duration": 0.1327432499999972,
		  "durationTicks": 120,
		  "midi": 38,
		  "name": "D2",
		  "ticks": 43680,
		  "time": 48.318543000000005,
		  "velocity": 0.7480314960629921
		},
		{
		  "duration": 0.1327432499999972,
		  "durationTicks": 120,
		  "midi": 36,
		  "name": "C2",
		  "ticks": 43800,
		  "time": 48.45128625,
		  "velocity": 0.7480314960629921
		},
		{
		  "duration": 0.1327432500000043,
		  "durationTicks": 120,
		  "midi": 38,
		  "name": "D2",
		  "ticks": 43920,
		  "time": 48.5840295,
		  "velocity": 0.7480314960629921
		},
		{
		  "duration": 0.1327432499999972,
		  "durationTicks": 120,
		  "midi": 38,
		  "name": "D2",
		  "ticks": 44040,
		  "time": 48.716772750000004,
		  "velocity": 0.7480314960629921
		},
		{
		  "duration": 0.1327432500000043,
		  "durationTicks": 120,
		  "midi": 57,
		  "name": "A3",
		  "ticks": 44160,
		  "time": 48.849516,
		  "velocity": 0.7480314960629921
		},
		{
		  "duration": 0.1327432500000043,
		  "durationTicks": 120,
		  "midi": 38,
		  "name": "D2",
		  "ticks": 44160,
		  "time": 48.849516,
		  "velocity": 0.7480314960629921
		},
		{
		  "duration": 0.1327432499999972,
		  "durationTicks": 120,
		  "midi": 36,
		  "name": "C2",
		  "ticks": 44280,
		  "time": 48.982259250000006,
		  "velocity": 0.7480314960629921
		},
		{
		  "duration": 0.1327432499999972,
		  "durationTicks": 120,
		  "midi": 36,
		  "name": "C2",
		  "ticks": 44400,
		  "time": 49.1150025,
		  "velocity": 0.7480314960629921
		},
		{
		  "duration": 0.1327432500000043,
		  "durationTicks": 120,
		  "midi": 55,
		  "name": "G3",
		  "ticks": 44520,
		  "time": 49.24774575,
		  "velocity": 0.7480314960629921
		},
		{
		  "duration": 0.1327432500000043,
		  "durationTicks": 120,
		  "midi": 38,
		  "name": "D2",
		  "ticks": 44520,
		  "time": 49.24774575,
		  "velocity": 0.7480314960629921
		},
		{
		  "duration": 0.1327432499999972,
		  "durationTicks": 120,
		  "midi": 36,
		  "name": "C2",
		  "ticks": 44640,
		  "time": 49.380489000000004,
		  "velocity": 0.7480314960629921
		},
		{
		  "duration": 0.1327432500000043,
		  "durationTicks": 120,
		  "midi": 55,
		  "name": "G3",
		  "ticks": 44760,
		  "time": 49.51323225,
		  "velocity": 0.7480314960629921
		},
		{
		  "duration": 0.1327432500000043,
		  "durationTicks": 120,
		  "midi": 38,
		  "name": "D2",
		  "ticks": 44760,
		  "time": 49.51323225,
		  "velocity": 0.7480314960629921
		},
		{
		  "duration": 0.1327432499999972,
		  "durationTicks": 120,
		  "midi": 36,
		  "name": "C2",
		  "ticks": 44880,
		  "time": 49.645975500000006,
		  "velocity": 0.7480314960629921
		},
		{
		  "duration": 0.1327432499999972,
		  "durationTicks": 120,
		  "midi": 55,
		  "name": "G3",
		  "ticks": 45000,
		  "time": 49.77871875,
		  "velocity": 0.7480314960629921
		},
		{
		  "duration": 0.1327432499999972,
		  "durationTicks": 120,
		  "midi": 38,
		  "name": "D2",
		  "ticks": 45000,
		  "time": 49.77871875,
		  "velocity": 0.7480314960629921
		},
		{
		  "duration": 0.1327432500000043,
		  "durationTicks": 120,
		  "midi": 36,
		  "name": "C2",
		  "ticks": 45120,
		  "time": 49.911462,
		  "velocity": 0.7480314960629921
		},
		{
		  "duration": 0.1327432499999972,
		  "durationTicks": 120,
		  "midi": 55,
		  "name": "G3",
		  "ticks": 45240,
		  "time": 50.044205250000005,
		  "velocity": 0.7480314960629921
		},
		{
		  "duration": 0.1327432499999972,
		  "durationTicks": 120,
		  "midi": 38,
		  "name": "D2",
		  "ticks": 45240,
		  "time": 50.044205250000005,
		  "velocity": 0.7480314960629921
		},
		{
		  "duration": 0.1327432500000043,
		  "durationTicks": 120,
		  "midi": 36,
		  "name": "C2",
		  "ticks": 45360,
		  "time": 50.1769485,
		  "velocity": 0.7480314960629921
		},
		{
		  "duration": 0.1327432499999972,
		  "durationTicks": 120,
		  "midi": 36,
		  "name": "C2",
		  "ticks": 45480,
		  "time": 50.309691750000006,
		  "velocity": 0.7480314960629921
		},
		{
		  "duration": 0.1327432499999972,
		  "durationTicks": 120,
		  "midi": 52,
		  "name": "E3",
		  "ticks": 45600,
		  "time": 50.442435,
		  "velocity": 0.7480314960629921
		},
		{
		  "duration": 0.1327432499999972,
		  "durationTicks": 120,
		  "midi": 38,
		  "name": "D2",
		  "ticks": 45600,
		  "time": 50.442435,
		  "velocity": 0.7480314960629921
		},
		{
		  "duration": 0.1327432500000043,
		  "durationTicks": 120,
		  "midi": 36,
		  "name": "C2",
		  "ticks": 45720,
		  "time": 50.57517825,
		  "velocity": 0.7480314960629921
		},
		{
		  "duration": 0.1327432499999972,
		  "durationTicks": 120,
		  "midi": 38,
		  "name": "D2",
		  "ticks": 45840,
		  "time": 50.707921500000005,
		  "velocity": 0.7480314960629921
		},
		{
		  "duration": 0.1327432500000043,
		  "durationTicks": 120,
		  "midi": 38,
		  "name": "D2",
		  "ticks": 45960,
		  "time": 50.84066475,
		  "velocity": 0.7480314960629921
		},
		{
		  "duration": 0.1327432499999972,
		  "durationTicks": 120,
		  "midi": 49,
		  "name": "C#3",
		  "ticks": 46080,
		  "time": 50.973408000000006,
		  "velocity": 0.7480314960629921
		},
		{
		  "duration": 0.1327432499999972,
		  "durationTicks": 120,
		  "midi": 38,
		  "name": "D2",
		  "ticks": 46080,
		  "time": 50.973408000000006,
		  "velocity": 0.7480314960629921
		},
		{
		  "duration": 0.1327432499999972,
		  "durationTicks": 120,
		  "midi": 36,
		  "name": "C2",
		  "ticks": 46200,
		  "time": 51.10615125,
		  "velocity": 0.7480314960629921
		},
		{
		  "duration": 0.1327432500000043,
		  "durationTicks": 120,
		  "midi": 55,
		  "name": "G3",
		  "ticks": 46320,
		  "time": 51.2388945,
		  "velocity": 0.7480314960629921
		},
		{
		  "duration": 0.1327432500000043,
		  "durationTicks": 120,
		  "midi": 38,
		  "name": "D2",
		  "ticks": 46320,
		  "time": 51.2388945,
		  "velocity": 0.7480314960629921
		},
		{
		  "duration": 0.1327432499999972,
		  "durationTicks": 120,
		  "midi": 36,
		  "name": "C2",
		  "ticks": 46440,
		  "time": 51.371637750000005,
		  "velocity": 0.7480314960629921
		},
		{
		  "duration": 0.1327432499999972,
		  "durationTicks": 120,
		  "midi": 55,
		  "name": "G3",
		  "ticks": 46560,
		  "time": 51.504381,
		  "velocity": 0.7480314960629921
		},
		{
		  "duration": 0.1327432499999972,
		  "durationTicks": 120,
		  "midi": 38,
		  "name": "D2",
		  "ticks": 46560,
		  "time": 51.504381,
		  "velocity": 0.7480314960629921
		},
		{
		  "duration": 0.1327432500000043,
		  "durationTicks": 120,
		  "midi": 36,
		  "name": "C2",
		  "ticks": 46680,
		  "time": 51.63712425,
		  "velocity": 0.7480314960629921
		},
		{
		  "duration": 0.1327432499999972,
		  "durationTicks": 120,
		  "midi": 55,
		  "name": "G3",
		  "ticks": 46800,
		  "time": 51.769867500000004,
		  "velocity": 0.7480314960629921
		},
		{
		  "duration": 0.1327432499999972,
		  "durationTicks": 120,
		  "midi": 38,
		  "name": "D2",
		  "ticks": 46800,
		  "time": 51.769867500000004,
		  "velocity": 0.7480314960629921
		},
		{
		  "duration": 0.1327432500000043,
		  "durationTicks": 120,
		  "midi": 36,
		  "name": "C2",
		  "ticks": 46920,
		  "time": 51.90261075,
		  "velocity": 0.7480314960629921
		},
		{
		  "duration": 0.1327432499999972,
		  "durationTicks": 120,
		  "midi": 55,
		  "name": "G3",
		  "ticks": 47040,
		  "time": 52.035354000000005,
		  "velocity": 0.7480314960629921
		},
		{
		  "duration": 0.1327432499999972,
		  "durationTicks": 120,
		  "midi": 38,
		  "name": "D2",
		  "ticks": 47040,
		  "time": 52.035354000000005,
		  "velocity": 0.7480314960629921
		},
		{
		  "duration": 0.1327432499999972,
		  "durationTicks": 120,
		  "midi": 36,
		  "name": "C2",
		  "ticks": 47160,
		  "time": 52.16809725,
		  "velocity": 0.7480314960629921
		},
		{
		  "duration": 0.1327432500000043,
		  "durationTicks": 120,
		  "midi": 55,
		  "name": "G3",
		  "ticks": 47280,
		  "time": 52.3008405,
		  "velocity": 0.7480314960629921
		},
		{
		  "duration": 0.1327432500000043,
		  "durationTicks": 120,
		  "midi": 38,
		  "name": "D2",
		  "ticks": 47280,
		  "time": 52.3008405,
		  "velocity": 0.7480314960629921
		},
		{
		  "duration": 0.1327432499999972,
		  "durationTicks": 120,
		  "midi": 36,
		  "name": "C2",
		  "ticks": 47400,
		  "time": 52.433583750000004,
		  "velocity": 0.7480314960629921
		},
		{
		  "duration": 0.1327432500000043,
		  "durationTicks": 120,
		  "midi": 55,
		  "name": "G3",
		  "ticks": 47520,
		  "time": 52.566327,
		  "velocity": 0.7480314960629921
		},
		{
		  "duration": 0.1327432500000043,
		  "durationTicks": 120,
		  "midi": 38,
		  "name": "D2",
		  "ticks": 47520,
		  "time": 52.566327,
		  "velocity": 0.7480314960629921
		},
		{
		  "duration": 0.1327432499999972,
		  "durationTicks": 120,
		  "midi": 36,
		  "name": "C2",
		  "ticks": 47640,
		  "time": 52.699070250000005,
		  "velocity": 0.7480314960629921
		},
		{
		  "duration": 0.1327432499999972,
		  "durationTicks": 120,
		  "midi": 55,
		  "name": "G3",
		  "ticks": 47760,
		  "time": 52.8318135,
		  "velocity": 0.7480314960629921
		},
		{
		  "duration": 0.1327432499999972,
		  "durationTicks": 120,
		  "midi": 38,
		  "name": "D2",
		  "ticks": 47760,
		  "time": 52.8318135,
		  "velocity": 0.7480314960629921
		},
		{
		  "duration": 0.1327432500000043,
		  "durationTicks": 120,
		  "midi": 36,
		  "name": "C2",
		  "ticks": 47880,
		  "time": 52.96455675,
		  "velocity": 0.7480314960629921
		},
		{
		  "duration": 0.1327432499999972,
		  "durationTicks": 120,
		  "midi": 55,
		  "name": "G3",
		  "ticks": 48000,
		  "time": 53.097300000000004,
		  "velocity": 0.7480314960629921
		},
		{
		  "duration": 0.1327432499999972,
		  "durationTicks": 120,
		  "midi": 38,
		  "name": "D2",
		  "ticks": 48000,
		  "time": 53.097300000000004,
		  "velocity": 0.7480314960629921
		},
		{
		  "duration": 0.1327432500000043,
		  "durationTicks": 120,
		  "midi": 36,
		  "name": "C2",
		  "ticks": 48120,
		  "time": 53.23004325,
		  "velocity": 0.7480314960629921
		},
		{
		  "duration": 0.1327432499999972,
		  "durationTicks": 120,
		  "midi": 55,
		  "name": "G3",
		  "ticks": 48240,
		  "time": 53.362786500000006,
		  "velocity": 0.7480314960629921
		},
		{
		  "duration": 0.1327432499999972,
		  "durationTicks": 120,
		  "midi": 38,
		  "name": "D2",
		  "ticks": 48240,
		  "time": 53.362786500000006,
		  "velocity": 0.7480314960629921
		},
		{
		  "duration": 0.1327432499999972,
		  "durationTicks": 120,
		  "midi": 36,
		  "name": "C2",
		  "ticks": 48360,
		  "time": 53.49552975,
		  "velocity": 0.7480314960629921
		},
		{
		  "duration": 0.1327432500000043,
		  "durationTicks": 120,
		  "midi": 55,
		  "name": "G3",
		  "ticks": 48480,
		  "time": 53.628273,
		  "velocity": 0.7480314960629921
		},
		{
		  "duration": 0.1327432500000043,
		  "durationTicks": 120,
		  "midi": 38,
		  "name": "D2",
		  "ticks": 48480,
		  "time": 53.628273,
		  "velocity": 0.7480314960629921
		},
		{
		  "duration": 0.1327432499999972,
		  "durationTicks": 120,
		  "midi": 36,
		  "name": "C2",
		  "ticks": 48600,
		  "time": 53.761016250000004,
		  "velocity": 0.7480314960629921
		},
		{
		  "duration": 0.1327432500000043,
		  "durationTicks": 120,
		  "midi": 55,
		  "name": "G3",
		  "ticks": 48720,
		  "time": 53.8937595,
		  "velocity": 0.7480314960629921
		},
		{
		  "duration": 0.1327432500000043,
		  "durationTicks": 120,
		  "midi": 38,
		  "name": "D2",
		  "ticks": 48720,
		  "time": 53.8937595,
		  "velocity": 0.7480314960629921
		},
		{
		  "duration": 0.1327432499999972,
		  "durationTicks": 120,
		  "midi": 36,
		  "name": "C2",
		  "ticks": 48840,
		  "time": 54.026502750000006,
		  "velocity": 0.7480314960629921
		},
		{
		  "duration": 0.1327432499999972,
		  "durationTicks": 120,
		  "midi": 55,
		  "name": "G3",
		  "ticks": 48960,
		  "time": 54.159246,
		  "velocity": 0.7480314960629921
		},
		{
		  "duration": 0.1327432499999972,
		  "durationTicks": 120,
		  "midi": 38,
		  "name": "D2",
		  "ticks": 48960,
		  "time": 54.159246,
		  "velocity": 0.7480314960629921
		},
		{
		  "duration": 0.1327432500000043,
		  "durationTicks": 120,
		  "midi": 36,
		  "name": "C2",
		  "ticks": 49080,
		  "time": 54.29198925,
		  "velocity": 0.7480314960629921
		},
		{
		  "duration": 0.1327432499999972,
		  "durationTicks": 120,
		  "midi": 55,
		  "name": "G3",
		  "ticks": 49200,
		  "time": 54.424732500000005,
		  "velocity": 0.7480314960629921
		},
		{
		  "duration": 0.1327432499999972,
		  "durationTicks": 120,
		  "midi": 38,
		  "name": "D2",
		  "ticks": 49200,
		  "time": 54.424732500000005,
		  "velocity": 0.7480314960629921
		},
		{
		  "duration": 0.1327432500000043,
		  "durationTicks": 120,
		  "midi": 36,
		  "name": "C2",
		  "ticks": 49320,
		  "time": 54.55747575,
		  "velocity": 0.7480314960629921
		},
		{
		  "duration": 0.1327432499999972,
		  "durationTicks": 120,
		  "midi": 55,
		  "name": "G3",
		  "ticks": 49440,
		  "time": 54.690219000000006,
		  "velocity": 0.7480314960629921
		},
		{
		  "duration": 0.1327432499999972,
		  "durationTicks": 120,
		  "midi": 38,
		  "name": "D2",
		  "ticks": 49440,
		  "time": 54.690219000000006,
		  "velocity": 0.7480314960629921
		},
		{
		  "duration": 0.1327432499999972,
		  "durationTicks": 120,
		  "midi": 36,
		  "name": "C2",
		  "ticks": 49560,
		  "time": 54.82296225,
		  "velocity": 0.7480314960629921
		},
		{
		  "duration": 0.1327432500000043,
		  "durationTicks": 120,
		  "midi": 55,
		  "name": "G3",
		  "ticks": 49680,
		  "time": 54.9557055,
		  "velocity": 0.7480314960629921
		},
		{
		  "duration": 0.1327432500000043,
		  "durationTicks": 120,
		  "midi": 38,
		  "name": "D2",
		  "ticks": 49680,
		  "time": 54.9557055,
		  "velocity": 0.7480314960629921
		},
		{
		  "duration": 0.1327432499999972,
		  "durationTicks": 120,
		  "midi": 36,
		  "name": "C2",
		  "ticks": 49800,
		  "time": 55.088448750000005,
		  "velocity": 0.7480314960629921
		},
		{
		  "duration": 0.1327432500000043,
		  "durationTicks": 120,
		  "midi": 55,
		  "name": "G3",
		  "ticks": 49920,
		  "time": 55.221192,
		  "velocity": 0.7480314960629921
		},
		{
		  "duration": 0.1327432500000043,
		  "durationTicks": 120,
		  "midi": 38,
		  "name": "D2",
		  "ticks": 49920,
		  "time": 55.221192,
		  "velocity": 0.7480314960629921
		},
		{
		  "duration": 0.1327432499999972,
		  "durationTicks": 120,
		  "midi": 36,
		  "name": "C2",
		  "ticks": 50040,
		  "time": 55.353935250000006,
		  "velocity": 0.7480314960629921
		},
		{
		  "duration": 0.1327432499999972,
		  "durationTicks": 120,
		  "midi": 55,
		  "name": "G3",
		  "ticks": 50160,
		  "time": 55.486678500000004,
		  "velocity": 0.7480314960629921
		},
		{
		  "duration": 0.1327432499999972,
		  "durationTicks": 120,
		  "midi": 38,
		  "name": "D2",
		  "ticks": 50160,
		  "time": 55.486678500000004,
		  "velocity": 0.7480314960629921
		},
		{
		  "duration": 0.1327432500000043,
		  "durationTicks": 120,
		  "midi": 36,
		  "name": "C2",
		  "ticks": 50280,
		  "time": 55.61942175,
		  "velocity": 0.7480314960629921
		},
		{
		  "duration": 0.1327432499999972,
		  "durationTicks": 120,
		  "midi": 55,
		  "name": "G3",
		  "ticks": 50400,
		  "time": 55.752165000000005,
		  "velocity": 0.7480314960629921
		},
		{
		  "duration": 0.1327432499999972,
		  "durationTicks": 120,
		  "midi": 38,
		  "name": "D2",
		  "ticks": 50400,
		  "time": 55.752165000000005,
		  "velocity": 0.7480314960629921
		},
		{
		  "duration": 0.1327432499999972,
		  "durationTicks": 120,
		  "midi": 36,
		  "name": "C2",
		  "ticks": 50520,
		  "time": 55.88490825,
		  "velocity": 0.7480314960629921
		},
		{
		  "duration": 0.1327432500000043,
		  "durationTicks": 120,
		  "midi": 55,
		  "name": "G3",
		  "ticks": 50640,
		  "time": 56.0176515,
		  "velocity": 0.7480314960629921
		},
		{
		  "duration": 0.1327432500000043,
		  "durationTicks": 120,
		  "midi": 38,
		  "name": "D2",
		  "ticks": 50640,
		  "time": 56.0176515,
		  "velocity": 0.7480314960629921
		},
		{
		  "duration": 0.1327432499999972,
		  "durationTicks": 120,
		  "midi": 36,
		  "name": "C2",
		  "ticks": 50760,
		  "time": 56.150394750000004,
		  "velocity": 0.7480314960629921
		},
		{
		  "duration": 0.1327432500000043,
		  "durationTicks": 120,
		  "midi": 55,
		  "name": "G3",
		  "ticks": 50880,
		  "time": 56.283138,
		  "velocity": 0.7480314960629921
		},
		{
		  "duration": 0.1327432500000043,
		  "durationTicks": 120,
		  "midi": 38,
		  "name": "D2",
		  "ticks": 50880,
		  "time": 56.283138,
		  "velocity": 0.7480314960629921
		},
		{
		  "duration": 0.1327432499999972,
		  "durationTicks": 120,
		  "midi": 36,
		  "name": "C2",
		  "ticks": 51000,
		  "time": 56.415881250000005,
		  "velocity": 0.7480314960629921
		},
		{
		  "duration": 0.1327432499999972,
		  "durationTicks": 120,
		  "midi": 55,
		  "name": "G3",
		  "ticks": 51120,
		  "time": 56.5486245,
		  "velocity": 0.7480314960629921
		},
		{
		  "duration": 0.1327432499999972,
		  "durationTicks": 120,
		  "midi": 38,
		  "name": "D2",
		  "ticks": 51120,
		  "time": 56.5486245,
		  "velocity": 0.7480314960629921
		},
		{
		  "duration": 0.1327432500000043,
		  "durationTicks": 120,
		  "midi": 36,
		  "name": "C2",
		  "ticks": 51240,
		  "time": 56.68136775,
		  "velocity": 0.7480314960629921
		},
		{
		  "duration": 0.1327432499999972,
		  "durationTicks": 120,
		  "midi": 55,
		  "name": "G3",
		  "ticks": 51360,
		  "time": 56.814111000000004,
		  "velocity": 0.7480314960629921
		},
		{
		  "duration": 0.1327432499999972,
		  "durationTicks": 120,
		  "midi": 38,
		  "name": "D2",
		  "ticks": 51360,
		  "time": 56.814111000000004,
		  "velocity": 0.7480314960629921
		},
		{
		  "duration": 0.1327432500000043,
		  "durationTicks": 120,
		  "midi": 36,
		  "name": "C2",
		  "ticks": 51480,
		  "time": 56.94685425,
		  "velocity": 0.7480314960629921
		},
		{
		  "duration": 0.1327432499999972,
		  "durationTicks": 120,
		  "midi": 55,
		  "name": "G3",
		  "ticks": 51600,
		  "time": 57.079597500000006,
		  "velocity": 0.7480314960629921
		},
		{
		  "duration": 0.1327432499999972,
		  "durationTicks": 120,
		  "midi": 38,
		  "name": "D2",
		  "ticks": 51600,
		  "time": 57.079597500000006,
		  "velocity": 0.7480314960629921
		},
		{
		  "duration": 0.1327432499999972,
		  "durationTicks": 120,
		  "midi": 36,
		  "name": "C2",
		  "ticks": 51720,
		  "time": 57.21234075,
		  "velocity": 0.7480314960629921
		},
		{
		  "duration": 0.1327432500000043,
		  "durationTicks": 120,
		  "midi": 49,
		  "name": "C#3",
		  "ticks": 51840,
		  "time": 57.345084,
		  "velocity": 0.7480314960629921
		},
		{
		  "duration": 0.1327432500000043,
		  "durationTicks": 120,
		  "midi": 38,
		  "name": "D2",
		  "ticks": 51840,
		  "time": 57.345084,
		  "velocity": 0.7480314960629921
		},
		{
		  "duration": 0.06637162500000215,
		  "durationTicks": 60,
		  "midi": 48,
		  "name": "C3",
		  "ticks": 51960,
		  "time": 57.477827250000004,
		  "velocity": 0.7480314960629921
		},
		{
		  "duration": 0.06637162500000215,
		  "durationTicks": 60,
		  "midi": 36,
		  "name": "C2",
		  "ticks": 51960,
		  "time": 57.477827250000004,
		  "velocity": 0.7480314960629921
		},
		{
		  "duration": 0.06637162499999505,
		  "durationTicks": 60,
		  "midi": 48,
		  "name": "C3",
		  "ticks": 52020,
		  "time": 57.544198875000006,
		  "velocity": 0.7480314960629921
		},
		{
		  "duration": 0.06637162499999505,
		  "durationTicks": 60,
		  "midi": 36,
		  "name": "C2",
		  "ticks": 52020,
		  "time": 57.544198875000006,
		  "velocity": 0.7480314960629921
		},
		{
		  "duration": 0.06637162500000215,
		  "durationTicks": 60,
		  "midi": 47,
		  "name": "B2",
		  "ticks": 52080,
		  "time": 57.6105705,
		  "velocity": 0.7480314960629921
		},
		{
		  "duration": 0.06637162500000215,
		  "durationTicks": 60,
		  "midi": 36,
		  "name": "C2",
		  "ticks": 52080,
		  "time": 57.6105705,
		  "velocity": 0.7480314960629921
		},
		{
		  "duration": 0.06637162500000215,
		  "durationTicks": 60,
		  "midi": 47,
		  "name": "B2",
		  "ticks": 52140,
		  "time": 57.676942125000004,
		  "velocity": 0.7480314960629921
		},
		{
		  "duration": 0.06637162500000215,
		  "durationTicks": 60,
		  "midi": 36,
		  "name": "C2",
		  "ticks": 52140,
		  "time": 57.676942125000004,
		  "velocity": 0.7480314960629921
		},
		{
		  "duration": 0.06637162499999505,
		  "durationTicks": 60,
		  "midi": 45,
		  "name": "A2",
		  "ticks": 52200,
		  "time": 57.743313750000006,
		  "velocity": 0.7480314960629921
		},
		{
		  "duration": 0.06637162499999505,
		  "durationTicks": 60,
		  "midi": 36,
		  "name": "C2",
		  "ticks": 52200,
		  "time": 57.743313750000006,
		  "velocity": 0.7480314960629921
		},
		{
		  "duration": 0.06637162500000215,
		  "durationTicks": 60,
		  "midi": 45,
		  "name": "A2",
		  "ticks": 52260,
		  "time": 57.809685375,
		  "velocity": 0.7480314960629921
		},
		{
		  "duration": 0.06637162500000215,
		  "durationTicks": 60,
		  "midi": 36,
		  "name": "C2",
		  "ticks": 52260,
		  "time": 57.809685375,
		  "velocity": 0.7480314960629921
		},
		{
		  "duration": 0.1327432499999972,
		  "durationTicks": 120,
		  "midi": 47,
		  "name": "B2",
		  "ticks": 52320,
		  "time": 57.876057,
		  "velocity": 0.7480314960629921
		},
		{
		  "duration": 0.1327432499999972,
		  "durationTicks": 120,
		  "midi": 36,
		  "name": "C2",
		  "ticks": 52320,
		  "time": 57.876057,
		  "velocity": 0.7480314960629921
		},
		{
		  "duration": 0.1327432500000043,
		  "durationTicks": 120,
		  "midi": 45,
		  "name": "A2",
		  "ticks": 52440,
		  "time": 58.00880025,
		  "velocity": 0.7480314960629921
		},
		{
		  "duration": 0.1327432500000043,
		  "durationTicks": 120,
		  "midi": 36,
		  "name": "C2",
		  "ticks": 52440,
		  "time": 58.00880025,
		  "velocity": 0.7480314960629921
		},
		{
		  "duration": 0.1327432499999972,
		  "durationTicks": 120,
		  "midi": 43,
		  "name": "G2",
		  "ticks": 52560,
		  "time": 58.141543500000004,
		  "velocity": 0.7480314960629921
		},
		{
		  "duration": 0.1327432499999972,
		  "durationTicks": 120,
		  "midi": 36,
		  "name": "C2",
		  "ticks": 52560,
		  "time": 58.141543500000004,
		  "velocity": 0.7480314960629921
		},
		{
		  "duration": 0.1327432500000043,
		  "durationTicks": 120,
		  "midi": 41,
		  "name": "F2",
		  "ticks": 52680,
		  "time": 58.27428675,
		  "velocity": 0.7480314960629921
		},
		{
		  "duration": 0.1327432500000043,
		  "durationTicks": 120,
		  "midi": 36,
		  "name": "C2",
		  "ticks": 52680,
		  "time": 58.27428675,
		  "velocity": 0.7480314960629921
		},
		{
		  "duration": 0.1327432499999972,
		  "durationTicks": 120,
		  "midi": 52,
		  "name": "E3",
		  "ticks": 52800,
		  "time": 58.407030000000006,
		  "velocity": 0.7480314960629921
		},
		{
		  "duration": 0.1327432499999972,
		  "durationTicks": 120,
		  "midi": 38,
		  "name": "D2",
		  "ticks": 52800,
		  "time": 58.407030000000006,
		  "velocity": 0.7480314960629921
		},
		{
		  "duration": 0.1327432499999972,
		  "durationTicks": 120,
		  "midi": 41,
		  "name": "F2",
		  "ticks": 52920,
		  "time": 58.53977325,
		  "velocity": 0.7480314960629921
		},
		{
		  "duration": 0.1327432499999972,
		  "durationTicks": 120,
		  "midi": 36,
		  "name": "C2",
		  "ticks": 52920,
		  "time": 58.53977325,
		  "velocity": 0.7480314960629921
		},
		{
		  "duration": 0.1327432500000043,
		  "durationTicks": 120,
		  "midi": 41,
		  "name": "F2",
		  "ticks": 53040,
		  "time": 58.6725165,
		  "velocity": 0.7480314960629921
		},
		{
		  "duration": 0.1327432500000043,
		  "durationTicks": 120,
		  "midi": 36,
		  "name": "C2",
		  "ticks": 53040,
		  "time": 58.6725165,
		  "velocity": 0.7480314960629921
		},
		{
		  "duration": 0.1327432499999972,
		  "durationTicks": 120,
		  "midi": 57,
		  "name": "A3",
		  "ticks": 53160,
		  "time": 58.805259750000005,
		  "velocity": 0.7480314960629921
		},
		{
		  "duration": 0.1327432499999972,
		  "durationTicks": 120,
		  "midi": 38,
		  "name": "D2",
		  "ticks": 53160,
		  "time": 58.805259750000005,
		  "velocity": 0.7480314960629921
		},
		{
		  "duration": 0.1327432500000043,
		  "durationTicks": 120,
		  "midi": 41,
		  "name": "F2",
		  "ticks": 53280,
		  "time": 58.938003,
		  "velocity": 0.7480314960629921
		},
		{
		  "duration": 0.1327432500000043,
		  "durationTicks": 120,
		  "midi": 36,
		  "name": "C2",
		  "ticks": 53280,
		  "time": 58.938003,
		  "velocity": 0.7480314960629921
		},
		{
		  "duration": 0.1327432499999972,
		  "durationTicks": 120,
		  "midi": 41,
		  "name": "F2",
		  "ticks": 53400,
		  "time": 59.070746250000006,
		  "velocity": 0.7480314960629921
		},
		{
		  "duration": 0.1327432499999972,
		  "durationTicks": 120,
		  "midi": 36,
		  "name": "C2",
		  "ticks": 53400,
		  "time": 59.070746250000006,
		  "velocity": 0.7480314960629921
		},
		{
		  "duration": 0.2654865000000015,
		  "durationTicks": 240,
		  "midi": 52,
		  "name": "E3",
		  "ticks": 53520,
		  "time": 59.2034895,
		  "velocity": 0.7480314960629921
		},
		{
		  "duration": 0.2654865000000015,
		  "durationTicks": 240,
		  "midi": 38,
		  "name": "D2",
		  "ticks": 53520,
		  "time": 59.2034895,
		  "velocity": 0.7480314960629921
		}
	  ],
	  "endOfTrackTicks": 53760
	},
	{
	  "channel": 0,
	  "controlChanges": {
		"6": [
		  {
			"number": 6,
			"ticks": 0,
			"time": 0,
			"value": 0.09448818897637795
		  },
		  {
			"number": 6,
			"ticks": 0,
			"time": 0,
			"value": 0.5039370078740157
		  },
		  {
			"number": 6,
			"ticks": 0,
			"time": 0,
			"value": 0.5039370078740157
		  }
		],
		"38": [
		  {
			"number": 38,
			"ticks": 0,
			"time": 0,
			"value": 0
		  }
		],
		"100": [
		  {
			"number": 100,
			"ticks": 0,
			"time": 0,
			"value": 0
		  },
		  {
			"number": 100,
			"ticks": 0,
			"time": 0,
			"value": 0.007874015748031496
		  },
		  {
			"number": 100,
			"ticks": 0,
			"time": 0,
			"value": 1
		  },
		  {
			"number": 100,
			"ticks": 0,
			"time": 0,
			"value": 0.015748031496062992
		  },
		  {
			"number": 100,
			"ticks": 0,
			"time": 0,
			"value": 1
		  }
		],
		"101": [
		  {
			"number": 101,
			"ticks": 0,
			"time": 0,
			"value": 0
		  },
		  {
			"number": 101,
			"ticks": 0,
			"time": 0,
			"value": 0
		  },
		  {
			"number": 101,
			"ticks": 0,
			"time": 0,
			"value": 1
		  },
		  {
			"number": 101,
			"ticks": 0,
			"time": 0,
			"value": 0
		  },
		  {
			"number": 101,
			"ticks": 0,
			"time": 0,
			"value": 1
		  }
		]
	  },
	  "pitchBends": [
		{
		  "ticks": 0,
		  "time": 0,
		  "value": 0
		}
	  ],
	  "instrument": {
		"family": "piano",
		"number": 0,
		"name": "acoustic grand piano"
	  },
	  "name": "Keyboard",
	  "notes": [],
	  "endOfTrackTicks": 37380
	},
	{
	  "channel": 0,
	  "controlChanges": {
		"6": [
		  {
			"number": 6,
			"ticks": 0,
			"time": 0,
			"value": 0.09448818897637795
		  },
		  {
			"number": 6,
			"ticks": 0,
			"time": 0,
			"value": 0.5039370078740157
		  },
		  {
			"number": 6,
			"ticks": 0,
			"time": 0,
			"value": 0.5039370078740157
		  }
		],
		"38": [
		  {
			"number": 38,
			"ticks": 0,
			"time": 0,
			"value": 0
		  }
		],
		"100": [
		  {
			"number": 100,
			"ticks": 0,
			"time": 0,
			"value": 0
		  },
		  {
			"number": 100,
			"ticks": 0,
			"time": 0,
			"value": 0.007874015748031496
		  },
		  {
			"number": 100,
			"ticks": 0,
			"time": 0,
			"value": 1
		  },
		  {
			"number": 100,
			"ticks": 0,
			"time": 0,
			"value": 0.015748031496062992
		  },
		  {
			"number": 100,
			"ticks": 0,
			"time": 0,
			"value": 1
		  }
		],
		"101": [
		  {
			"number": 101,
			"ticks": 0,
			"time": 0,
			"value": 0
		  },
		  {
			"number": 101,
			"ticks": 0,
			"time": 0,
			"value": 0
		  },
		  {
			"number": 101,
			"ticks": 0,
			"time": 0,
			"value": 1
		  },
		  {
			"number": 101,
			"ticks": 0,
			"time": 0,
			"value": 0
		  },
		  {
			"number": 101,
			"ticks": 0,
			"time": 0,
			"value": 1
		  }
		]
	  },
	  "pitchBends": [
		{
		  "ticks": 0,
		  "time": 0,
		  "value": 0
		}
	  ],
	  "instrument": {
		"family": "piano",
		"number": 0,
		"name": "acoustic grand piano"
	  },
	  "name": "",
	  "notes": []
	},
	{
	  "channel": 0,
	  "controlChanges": {
		"0": [
		  {
			"number": 0,
			"ticks": 0,
			"time": 0,
			"value": 0
		  }
		],
		"7": [
		  {
			"number": 7,
			"ticks": 0,
			"time": 0,
			"value": 0.1889763779527559
		  }
		],
		"10": [
		  {
			"number": 10,
			"ticks": 0,
			"time": 0,
			"value": 0.5039370078740157
		  }
		],
		"91": [
		  {
			"number": 91,
			"ticks": 0,
			"time": 0,
			"value": 0
		  }
		],
		"92": [
		  {
			"number": 92,
			"ticks": 0,
			"time": 0,
			"value": 0
		  }
		],
		"93": [
		  {
			"number": 93,
			"ticks": 0,
			"time": 0,
			"value": 0
		  }
		],
		"95": [
		  {
			"number": 95,
			"ticks": 0,
			"time": 0,
			"value": 0
		  }
		]
	  },
	  "pitchBends": [],
	  "instrument": {
		"family": "synth lead",
		"number": 80,
		"name": "lead 1 (square)"
	  },
	  "name": "",
	  "notes": []
	},
	{
	  "channel": 8,
	  "controlChanges": {
		"0": [
		  {
			"number": 0,
			"ticks": 0,
			"time": 0,
			"value": 0
		  }
		],
		"7": [
		  {
			"number": 7,
			"ticks": 0,
			"time": 0,
			"value": 0.1889763779527559
		  }
		],
		"10": [
		  {
			"number": 10,
			"ticks": 0,
			"time": 0,
			"value": 0.5039370078740157
		  }
		],
		"91": [
		  {
			"number": 91,
			"ticks": 0,
			"time": 0,
			"value": 0
		  }
		],
		"92": [
		  {
			"number": 92,
			"ticks": 0,
			"time": 0,
			"value": 0
		  }
		],
		"93": [
		  {
			"number": 93,
			"ticks": 0,
			"time": 0,
			"value": 0
		  }
		],
		"95": [
		  {
			"number": 95,
			"ticks": 0,
			"time": 0,
			"value": 0
		  }
		]
	  },
	  "pitchBends": [],
	  "instrument": {
		"family": "synth lead",
		"number": 80,
		"name": "lead 1 (square)"
	  },
	  "name": "",
	  "notes": [
		{
		  "duration": 0.0663716249999986,
		  "durationTicks": 60,
		  "midi": 88,
		  "name": "E6",
		  "ticks": 23040,
		  "time": 25.486704000000003,
		  "velocity": 0.7480314960629921
		},
		{
		  "duration": 0.06637162500000215,
		  "durationTicks": 60,
		  "midi": 76,
		  "name": "E5",
		  "ticks": 23160,
		  "time": 25.61944725,
		  "velocity": 0.7480314960629921
		},
		{
		  "duration": 0.0663716249999986,
		  "durationTicks": 60,
		  "midi": 83,
		  "name": "B5",
		  "ticks": 23280,
		  "time": 25.7521905,
		  "velocity": 0.7480314960629921
		},
		{
		  "duration": 0.0663716249999986,
		  "durationTicks": 60,
		  "midi": 76,
		  "name": "E5",
		  "ticks": 23400,
		  "time": 25.884933750000002,
		  "velocity": 0.7480314960629921
		},
		{
		  "duration": 0.06637162500000215,
		  "durationTicks": 60,
		  "midi": 76,
		  "name": "E5",
		  "ticks": 23640,
		  "time": 26.15042025,
		  "velocity": 0.7480314960629921
		},
		{
		  "duration": 0.06637162500000215,
		  "durationTicks": 60,
		  "midi": 86,
		  "name": "D6",
		  "ticks": 23760,
		  "time": 26.2831635,
		  "velocity": 0.7480314960629921
		},
		{
		  "duration": 0.0663716249999986,
		  "durationTicks": 60,
		  "midi": 76,
		  "name": "E5",
		  "ticks": 23880,
		  "time": 26.41590675,
		  "velocity": 0.7480314960629921
		},
		{
		  "duration": 0.0663716249999986,
		  "durationTicks": 60,
		  "midi": 76,
		  "name": "E5",
		  "ticks": 24120,
		  "time": 26.681393250000003,
		  "velocity": 0.7480314960629921
		},
		{
		  "duration": 0.06637162500000215,
		  "durationTicks": 60,
		  "midi": 83,
		  "name": "B5",
		  "ticks": 24240,
		  "time": 26.8141365,
		  "velocity": 0.7480314960629921
		},
		{
		  "duration": 0.06637162500000215,
		  "durationTicks": 60,
		  "midi": 76,
		  "name": "E5",
		  "ticks": 24360,
		  "time": 26.94687975,
		  "velocity": 0.7480314960629921
		},
		{
		  "duration": 0.0663716249999986,
		  "durationTicks": 60,
		  "midi": 91,
		  "name": "G6",
		  "ticks": 24480,
		  "time": 27.079623,
		  "velocity": 0.7480314960629921
		},
		{
		  "duration": 0.0663716249999986,
		  "durationTicks": 60,
		  "midi": 76,
		  "name": "E5",
		  "ticks": 24600,
		  "time": 27.212366250000002,
		  "velocity": 0.7480314960629921
		},
		{
		  "duration": 0.0663716249999986,
		  "durationTicks": 60,
		  "midi": 90,
		  "name": "F#6",
		  "ticks": 24720,
		  "time": 27.345109500000003,
		  "velocity": 0.7480314960629921
		},
		{
		  "duration": 0.06637162500000215,
		  "durationTicks": 60,
		  "midi": 76,
		  "name": "E5",
		  "ticks": 24840,
		  "time": 27.47785275,
		  "velocity": 0.7480314960629921
		},
		{
		  "duration": 0.06637162500000215,
		  "durationTicks": 60,
		  "midi": 88,
		  "name": "E6",
		  "ticks": 24960,
		  "time": 27.610596,
		  "velocity": 0.7480314960629921
		},
		{
		  "duration": 0.0663716249999986,
		  "durationTicks": 60,
		  "midi": 72,
		  "name": "C5",
		  "ticks": 25080,
		  "time": 27.743339250000002,
		  "velocity": 0.7480314960629921
		},
		{
		  "duration": 0.0663716249999986,
		  "durationTicks": 60,
		  "midi": 84,
		  "name": "C6",
		  "ticks": 25200,
		  "time": 27.876082500000003,
		  "velocity": 0.7480314960629921
		},
		{
		  "duration": 0.06637162500000215,
		  "durationTicks": 60,
		  "midi": 72,
		  "name": "C5",
		  "ticks": 25320,
		  "time": 28.00882575,
		  "velocity": 0.7480314960629921
		},
		{
		  "duration": 0.0663716249999986,
		  "durationTicks": 60,
		  "midi": 72,
		  "name": "C5",
		  "ticks": 25560,
		  "time": 28.27431225,
		  "velocity": 0.7480314960629921
		},
		{
		  "duration": 0.0663716249999986,
		  "durationTicks": 60,
		  "midi": 88,
		  "name": "E6",
		  "ticks": 25680,
		  "time": 28.407055500000002,
		  "velocity": 0.7480314960629921
		},
		{
		  "duration": 0.0663716249999986,
		  "durationTicks": 60,
		  "midi": 72,
		  "name": "C5",
		  "ticks": 25800,
		  "time": 28.539798750000003,
		  "velocity": 0.7480314960629921
		},
		{
		  "duration": 0.06637162500000215,
		  "durationTicks": 60,
		  "midi": 74,
		  "name": "D5",
		  "ticks": 26040,
		  "time": 28.80528525,
		  "velocity": 0.7480314960629921
		},
		{
		  "duration": 0.0663716249999986,
		  "durationTicks": 60,
		  "midi": 81,
		  "name": "A5",
		  "ticks": 26160,
		  "time": 28.9380285,
		  "velocity": 0.7480314960629921
		},
		{
		  "duration": 0.0663716249999986,
		  "durationTicks": 60,
		  "midi": 74,
		  "name": "D5",
		  "ticks": 26280,
		  "time": 29.070771750000002,
		  "velocity": 0.7480314960629921
		},
		{
		  "duration": 0.0663716249999986,
		  "durationTicks": 60,
		  "midi": 91,
		  "name": "G6",
		  "ticks": 26400,
		  "time": 29.203515000000003,
		  "velocity": 0.7480314960629921
		},
		{
		  "duration": 0.06637162500000215,
		  "durationTicks": 60,
		  "midi": 74,
		  "name": "D5",
		  "ticks": 26520,
		  "time": 29.33625825,
		  "velocity": 0.7480314960629921
		},
		{
		  "duration": 0.06637162500000215,
		  "durationTicks": 60,
		  "midi": 90,
		  "name": "F#6",
		  "ticks": 26640,
		  "time": 29.4690015,
		  "velocity": 0.7480314960629921
		},
		{
		  "duration": 0.0663716249999986,
		  "durationTicks": 60,
		  "midi": 74,
		  "name": "D5",
		  "ticks": 26760,
		  "time": 29.60174475,
		  "velocity": 0.7480314960629921
		},
		{
		  "duration": 0.0663716249999986,
		  "durationTicks": 60,
		  "midi": 88,
		  "name": "E6",
		  "ticks": 26880,
		  "time": 29.734488000000002,
		  "velocity": 0.7480314960629921
		},
		{
		  "duration": 0.0663716249999986,
		  "durationTicks": 60,
		  "midi": 76,
		  "name": "E5",
		  "ticks": 27000,
		  "time": 29.867231250000003,
		  "velocity": 0.7480314960629921
		},
		{
		  "duration": 0.06637162500000215,
		  "durationTicks": 60,
		  "midi": 83,
		  "name": "B5",
		  "ticks": 27120,
		  "time": 29.9999745,
		  "velocity": 0.7480314960629921
		},
		{
		  "duration": 0.06637162500000215,
		  "durationTicks": 60,
		  "midi": 76,
		  "name": "E5",
		  "ticks": 27240,
		  "time": 30.13271775,
		  "velocity": 0.7480314960629921
		},
		{
		  "duration": 0.0663716249999986,
		  "durationTicks": 60,
		  "midi": 76,
		  "name": "E5",
		  "ticks": 27480,
		  "time": 30.398204250000003,
		  "velocity": 0.7480314960629921
		},
		{
		  "duration": 0.06637162500000215,
		  "durationTicks": 60,
		  "midi": 86,
		  "name": "D6",
		  "ticks": 27600,
		  "time": 30.5309475,
		  "velocity": 0.7480314960629921
		},
		{
		  "duration": 0.06637162500000215,
		  "durationTicks": 60,
		  "midi": 76,
		  "name": "E5",
		  "ticks": 27720,
		  "time": 30.66369075,
		  "velocity": 0.7480314960629921
		},
		{
		  "duration": 0.0663716249999986,
		  "durationTicks": 60,
		  "midi": 76,
		  "name": "E5",
		  "ticks": 27960,
		  "time": 30.929177250000002,
		  "velocity": 0.7480314960629921
		},
		{
		  "duration": 0.0663716249999986,
		  "durationTicks": 60,
		  "midi": 83,
		  "name": "B5",
		  "ticks": 28080,
		  "time": 31.061920500000003,
		  "velocity": 0.7480314960629921
		},
		{
		  "duration": 0.06637162500000215,
		  "durationTicks": 60,
		  "midi": 76,
		  "name": "E5",
		  "ticks": 28200,
		  "time": 31.19466375,
		  "velocity": 0.7480314960629921
		},
		{
		  "duration": 0.06637162500000215,
		  "durationTicks": 60,
		  "midi": 91,
		  "name": "G6",
		  "ticks": 28320,
		  "time": 31.327407,
		  "velocity": 0.7480314960629921
		},
		{
		  "duration": 0.0663716249999986,
		  "durationTicks": 60,
		  "midi": 76,
		  "name": "E5",
		  "ticks": 28440,
		  "time": 31.46015025,
		  "velocity": 0.7480314960629921
		},
		{
		  "duration": 0.0663716249999986,
		  "durationTicks": 60,
		  "midi": 90,
		  "name": "F#6",
		  "ticks": 28560,
		  "time": 31.592893500000002,
		  "velocity": 0.7480314960629921
		},
		{
		  "duration": 0.0663716249999986,
		  "durationTicks": 60,
		  "midi": 76,
		  "name": "E5",
		  "ticks": 28680,
		  "time": 31.725636750000003,
		  "velocity": 0.7480314960629921
		},
		{
		  "duration": 0.06637162500000215,
		  "durationTicks": 60,
		  "midi": 88,
		  "name": "E6",
		  "ticks": 28800,
		  "time": 31.85838,
		  "velocity": 0.7480314960629921
		},
		{
		  "duration": 0.06637162500000215,
		  "durationTicks": 60,
		  "midi": 72,
		  "name": "C5",
		  "ticks": 28920,
		  "time": 31.99112325,
		  "velocity": 0.7480314960629921
		},
		{
		  "duration": 0.06637162500000215,
		  "durationTicks": 60,
		  "midi": 84,
		  "name": "C6",
		  "ticks": 29040,
		  "time": 32.1238665,
		  "velocity": 0.7480314960629921
		},
		{
		  "duration": 0.06637162500000215,
		  "durationTicks": 60,
		  "midi": 72,
		  "name": "C5",
		  "ticks": 29160,
		  "time": 32.25660975,
		  "velocity": 0.7480314960629921
		},
		{
		  "duration": 0.06637162499999505,
		  "durationTicks": 60,
		  "midi": 72,
		  "name": "C5",
		  "ticks": 29400,
		  "time": 32.522096250000004,
		  "velocity": 0.7480314960629921
		},
		{
		  "duration": 0.06637162500000215,
		  "durationTicks": 60,
		  "midi": 88,
		  "name": "E6",
		  "ticks": 29520,
		  "time": 32.6548395,
		  "velocity": 0.7480314960629921
		},
		{
		  "duration": 0.06637162500000215,
		  "durationTicks": 60,
		  "midi": 72,
		  "name": "C5",
		  "ticks": 29640,
		  "time": 32.78758275,
		  "velocity": 0.7480314960629921
		},
		{
		  "duration": 0.06637162500000215,
		  "durationTicks": 60,
		  "midi": 74,
		  "name": "D5",
		  "ticks": 29880,
		  "time": 33.05306925,
		  "velocity": 0.7480314960629921
		},
		{
		  "duration": 0.06637162499999505,
		  "durationTicks": 60,
		  "midi": 81,
		  "name": "A5",
		  "ticks": 30000,
		  "time": 33.185812500000004,
		  "velocity": 0.7480314960629921
		},
		{
		  "duration": 0.06637162500000215,
		  "durationTicks": 60,
		  "midi": 74,
		  "name": "D5",
		  "ticks": 30120,
		  "time": 33.31855575,
		  "velocity": 0.7480314960629921
		},
		{
		  "duration": 0.06637162500000215,
		  "durationTicks": 60,
		  "midi": 91,
		  "name": "G6",
		  "ticks": 30240,
		  "time": 33.451299,
		  "velocity": 0.7480314960629921
		},
		{
		  "duration": 0.06637162500000215,
		  "durationTicks": 60,
		  "midi": 74,
		  "name": "D5",
		  "ticks": 30360,
		  "time": 33.58404225,
		  "velocity": 0.7480314960629921
		},
		{
		  "duration": 0.06637162500000215,
		  "durationTicks": 60,
		  "midi": 90,
		  "name": "F#6",
		  "ticks": 30480,
		  "time": 33.7167855,
		  "velocity": 0.7480314960629921
		},
		{
		  "duration": 0.06637162499999505,
		  "durationTicks": 60,
		  "midi": 74,
		  "name": "D5",
		  "ticks": 30600,
		  "time": 33.849528750000005,
		  "velocity": 0.7480314960629921
		},
		{
		  "duration": 0.06637162500000215,
		  "durationTicks": 60,
		  "midi": 88,
		  "name": "E6",
		  "ticks": 30720,
		  "time": 33.982272,
		  "velocity": 0.7480314960629921
		},
		{
		  "duration": 0.06637162500000215,
		  "durationTicks": 60,
		  "midi": 76,
		  "name": "E5",
		  "ticks": 30840,
		  "time": 34.11501525,
		  "velocity": 0.7480314960629921
		},
		{
		  "duration": 0.06637162499999505,
		  "durationTicks": 60,
		  "midi": 83,
		  "name": "B5",
		  "ticks": 30960,
		  "time": 34.2477585,
		  "velocity": 0.7480314960629921
		},
		{
		  "duration": 0.06637162500000215,
		  "durationTicks": 60,
		  "midi": 76,
		  "name": "E5",
		  "ticks": 31080,
		  "time": 34.38050175,
		  "velocity": 0.7480314960629921
		},
		{
		  "duration": 0.06637162500000215,
		  "durationTicks": 60,
		  "midi": 76,
		  "name": "E5",
		  "ticks": 31320,
		  "time": 34.64598825,
		  "velocity": 0.7480314960629921
		},
		{
		  "duration": 0.06637162500000215,
		  "durationTicks": 60,
		  "midi": 86,
		  "name": "D6",
		  "ticks": 31440,
		  "time": 34.7787315,
		  "velocity": 0.7480314960629921
		},
		{
		  "duration": 0.06637162499999505,
		  "durationTicks": 60,
		  "midi": 76,
		  "name": "E5",
		  "ticks": 31560,
		  "time": 34.911474750000004,
		  "velocity": 0.7480314960629921
		},
		{
		  "duration": 0.06637162499999505,
		  "durationTicks": 60,
		  "midi": 76,
		  "name": "E5",
		  "ticks": 31800,
		  "time": 35.176961250000005,
		  "velocity": 0.7480314960629921
		},
		{
		  "duration": 0.06637162500000215,
		  "durationTicks": 60,
		  "midi": 83,
		  "name": "B5",
		  "ticks": 31920,
		  "time": 35.3097045,
		  "velocity": 0.7480314960629921
		},
		{
		  "duration": 0.06637162500000215,
		  "durationTicks": 60,
		  "midi": 76,
		  "name": "E5",
		  "ticks": 32040,
		  "time": 35.44244775,
		  "velocity": 0.7480314960629921
		},
		{
		  "duration": 0.06637162499999505,
		  "durationTicks": 60,
		  "midi": 91,
		  "name": "G6",
		  "ticks": 32160,
		  "time": 35.575191000000004,
		  "velocity": 0.7480314960629921
		},
		{
		  "duration": 0.06637162500000215,
		  "durationTicks": 60,
		  "midi": 76,
		  "name": "E5",
		  "ticks": 32280,
		  "time": 35.70793425,
		  "velocity": 0.7480314960629921
		},
		{
		  "duration": 0.06637162499999505,
		  "durationTicks": 60,
		  "midi": 90,
		  "name": "F#6",
		  "ticks": 32400,
		  "time": 35.840677500000005,
		  "velocity": 0.7480314960629921
		},
		{
		  "duration": 0.06637162500000215,
		  "durationTicks": 60,
		  "midi": 76,
		  "name": "E5",
		  "ticks": 32520,
		  "time": 35.97342075,
		  "velocity": 0.7480314960629921
		},
		{
		  "duration": 0.06637162500000215,
		  "durationTicks": 60,
		  "midi": 88,
		  "name": "E6",
		  "ticks": 32640,
		  "time": 36.106164,
		  "velocity": 0.7480314960629921
		},
		{
		  "duration": 0.06637162499999505,
		  "durationTicks": 60,
		  "midi": 72,
		  "name": "C5",
		  "ticks": 32760,
		  "time": 36.238907250000004,
		  "velocity": 0.7480314960629921
		},
		{
		  "duration": 0.06637162500000215,
		  "durationTicks": 60,
		  "midi": 84,
		  "name": "C6",
		  "ticks": 32880,
		  "time": 36.3716505,
		  "velocity": 0.7480314960629921
		},
		{
		  "duration": 0.06637162500000215,
		  "durationTicks": 60,
		  "midi": 72,
		  "name": "C5",
		  "ticks": 33000,
		  "time": 36.50439375,
		  "velocity": 0.7480314960629921
		},
		{
		  "duration": 0.06637162500000215,
		  "durationTicks": 60,
		  "midi": 72,
		  "name": "C5",
		  "ticks": 33240,
		  "time": 36.76988025,
		  "velocity": 0.7480314960629921
		},
		{
		  "duration": 0.06637162499999505,
		  "durationTicks": 60,
		  "midi": 88,
		  "name": "E6",
		  "ticks": 33360,
		  "time": 36.902623500000004,
		  "velocity": 0.7480314960629921
		},
		{
		  "duration": 0.06637162500000215,
		  "durationTicks": 60,
		  "midi": 72,
		  "name": "C5",
		  "ticks": 33480,
		  "time": 37.03536675,
		  "velocity": 0.7480314960629921
		},
		{
		  "duration": 0.06637162500000215,
		  "durationTicks": 60,
		  "midi": 74,
		  "name": "D5",
		  "ticks": 33720,
		  "time": 37.30085325,
		  "velocity": 0.7480314960629921
		},
		{
		  "duration": 0.06637162500000215,
		  "durationTicks": 60,
		  "midi": 81,
		  "name": "A5",
		  "ticks": 33840,
		  "time": 37.4335965,
		  "velocity": 0.7480314960629921
		},
		{
		  "duration": 0.06637162499999505,
		  "durationTicks": 60,
		  "midi": 74,
		  "name": "D5",
		  "ticks": 33960,
		  "time": 37.566339750000004,
		  "velocity": 0.7480314960629921
		},
		{
		  "duration": 0.06637162500000215,
		  "durationTicks": 60,
		  "midi": 91,
		  "name": "G6",
		  "ticks": 34080,
		  "time": 37.699083,
		  "velocity": 0.7480314960629921
		},
		{
		  "duration": 0.06637162500000215,
		  "durationTicks": 60,
		  "midi": 74,
		  "name": "D5",
		  "ticks": 34200,
		  "time": 37.83182625,
		  "velocity": 0.7480314960629921
		},
		{
		  "duration": 0.06637162500000215,
		  "durationTicks": 60,
		  "midi": 90,
		  "name": "F#6",
		  "ticks": 34320,
		  "time": 37.9645695,
		  "velocity": 0.7480314960629921
		},
		{
		  "duration": 0.06637162500000215,
		  "durationTicks": 60,
		  "midi": 74,
		  "name": "D5",
		  "ticks": 34440,
		  "time": 38.09731275,
		  "velocity": 0.7480314960629921
		},
		{
		  "duration": 0.06637162499999505,
		  "durationTicks": 60,
		  "midi": 88,
		  "name": "E6",
		  "ticks": 34560,
		  "time": 38.230056000000005,
		  "velocity": 0.7480314960629921
		},
		{
		  "duration": 0.06637162500000215,
		  "durationTicks": 60,
		  "midi": 76,
		  "name": "E5",
		  "ticks": 34680,
		  "time": 38.36279925,
		  "velocity": 0.7480314960629921
		},
		{
		  "duration": 0.06637162500000215,
		  "durationTicks": 60,
		  "midi": 83,
		  "name": "B5",
		  "ticks": 34800,
		  "time": 38.4955425,
		  "velocity": 0.7480314960629921
		},
		{
		  "duration": 0.06637162500000215,
		  "durationTicks": 60,
		  "midi": 76,
		  "name": "E5",
		  "ticks": 34920,
		  "time": 38.62828575,
		  "velocity": 0.7480314960629921
		},
		{
		  "duration": 0.06637162499999505,
		  "durationTicks": 60,
		  "midi": 76,
		  "name": "E5",
		  "ticks": 35160,
		  "time": 38.893772250000005,
		  "velocity": 0.7480314960629921
		},
		{
		  "duration": 0.06637162500000215,
		  "durationTicks": 60,
		  "midi": 86,
		  "name": "D6",
		  "ticks": 35280,
		  "time": 39.0265155,
		  "velocity": 0.7480314960629921
		},
		{
		  "duration": 0.06637162500000215,
		  "durationTicks": 60,
		  "midi": 76,
		  "name": "E5",
		  "ticks": 35400,
		  "time": 39.15925875,
		  "velocity": 0.7480314960629921
		},
		{
		  "duration": 0.06637162500000215,
		  "durationTicks": 60,
		  "midi": 76,
		  "name": "E5",
		  "ticks": 35640,
		  "time": 39.42474525,
		  "velocity": 0.7480314960629921
		},
		{
		  "duration": 0.06637162499999505,
		  "durationTicks": 60,
		  "midi": 83,
		  "name": "B5",
		  "ticks": 35760,
		  "time": 39.557488500000005,
		  "velocity": 0.7480314960629921
		},
		{
		  "duration": 0.06637162500000215,
		  "durationTicks": 60,
		  "midi": 76,
		  "name": "E5",
		  "ticks": 35880,
		  "time": 39.69023175,
		  "velocity": 0.7480314960629921
		},
		{
		  "duration": 0.06637162500000215,
		  "durationTicks": 60,
		  "midi": 91,
		  "name": "G6",
		  "ticks": 36000,
		  "time": 39.822975,
		  "velocity": 0.7480314960629921
		},
		{
		  "duration": 0.06637162499999505,
		  "durationTicks": 60,
		  "midi": 76,
		  "name": "E5",
		  "ticks": 36120,
		  "time": 39.955718250000004,
		  "velocity": 0.7480314960629921
		},
		{
		  "duration": 0.06637162500000215,
		  "durationTicks": 60,
		  "midi": 90,
		  "name": "F#6",
		  "ticks": 36240,
		  "time": 40.0884615,
		  "velocity": 0.7480314960629921
		},
		{
		  "duration": 0.06637162499999505,
		  "durationTicks": 60,
		  "midi": 76,
		  "name": "E5",
		  "ticks": 36360,
		  "time": 40.221204750000005,
		  "velocity": 0.7480314960629921
		},
		{
		  "duration": 0.06637162500000215,
		  "durationTicks": 60,
		  "midi": 88,
		  "name": "E6",
		  "ticks": 36480,
		  "time": 40.353948,
		  "velocity": 0.7480314960629921
		},
		{
		  "duration": 0.06637162500000215,
		  "durationTicks": 60,
		  "midi": 72,
		  "name": "C5",
		  "ticks": 36600,
		  "time": 40.48669125,
		  "velocity": 0.7480314960629921
		},
		{
		  "duration": 0.06637162499999505,
		  "durationTicks": 60,
		  "midi": 84,
		  "name": "C6",
		  "ticks": 36720,
		  "time": 40.619434500000004,
		  "velocity": 0.7480314960629921
		},
		{
		  "duration": 0.06637162500000215,
		  "durationTicks": 60,
		  "midi": 72,
		  "name": "C5",
		  "ticks": 36840,
		  "time": 40.75217775,
		  "velocity": 0.7480314960629921
		},
		{
		  "duration": 0.06637162500000215,
		  "durationTicks": 60,
		  "midi": 72,
		  "name": "C5",
		  "ticks": 37080,
		  "time": 41.01766425,
		  "velocity": 0.7480314960629921
		},
		{
		  "duration": 0.06637162500000215,
		  "durationTicks": 60,
		  "midi": 88,
		  "name": "E6",
		  "ticks": 37200,
		  "time": 41.1504075,
		  "velocity": 0.7480314960629921
		},
		{
		  "duration": 0.06637162499999505,
		  "durationTicks": 60,
		  "midi": 72,
		  "name": "C5",
		  "ticks": 37320,
		  "time": 41.283150750000004,
		  "velocity": 0.7480314960629921
		}
	  ]
	}
  ]
}
